<svg width="385" height="361" viewBox="0 0 385 361" fill="none" xmlns="http://www.w3.org/2000/svg">
<path d="M56.1008 101.2L57.7008 104.5L61.3008 105L58.7008 107.6L59.3008 111.2L56.1008 109.5L52.8008 111.2L53.4008 107.6L50.8008 105L54.4008 104.5L56.1008 101.2Z" fill="#EBEBEB"/>
<path d="M379.7 255.5L381.3 258.8L384.9 259.3L382.3 261.8L382.9 265.4L379.7 263.7L376.5 265.4L377.1 261.8L374.5 259.3L378.1 258.8L379.7 255.5Z" fill="#F5F5F5"/>
<path d="M315.602 350.6L317.202 353.8L320.802 354.4L318.202 356.9L318.802 360.5L315.602 358.8L312.402 360.5L313.002 356.9L310.402 354.4L314.002 353.8L315.602 350.6Z" fill="#F5F5F5"/>
<path d="M168.903 43.2L169.503 44.4L170.803 44.6C171.103 44.6 171.303 45.1 171.003 45.3L170.003 46.2L170.203 47.5C170.303 47.8 169.903 48.1 169.603 47.9L168.403 47.3L167.203 47.9C166.903 48.1 166.603 47.8 166.603 47.5L166.803 46.2L165.803 45.3C165.603 45.1 165.703 44.7 166.003 44.6L167.303 44.4L167.903 43.2C168.403 42.9 168.803 42.9 168.903 43.2Z" fill="#EBEBEB"/>
<path d="M3.80171 335L4.40171 336.2L5.70171 336.4C6.00171 336.4 6.20171 336.9 5.90171 337.1L4.90171 338L5.10171 339.3C5.20171 339.6 4.80171 339.9 4.50171 339.7L3.30171 339.1L2.10171 339.7C1.80171 339.9 1.50171 339.6 1.50171 339.3L1.70171 338L0.701708 337.1C0.501708 336.9 0.601709 336.5 0.901709 336.4L2.20171 336.2L3.00171 335C3.20171 334.7 3.60171 334.7 3.80171 335Z" fill="#F5F5F5"/>
<path d="M30.8017 30.3L31.4017 31.5L32.7017 31.7C33.0017 31.7 33.2017 32.2 32.9017 32.4L31.9017 33.3L32.1017 34.6C32.2017 34.9 31.8017 35.2 31.5017 35L30.3017 34.4L29.1017 35C28.8017 35.2 28.5017 34.9 28.5017 34.6L28.7017 33.3L27.7017 32.4C27.5017 32.2 27.6017 31.8 27.9017 31.7L29.2017 31.5L29.8017 30.3C30.2017 30 30.6017 30 30.8017 30.3Z" fill="#EBEBEB"/>
<path d="M29.1 271.3C29.1 272 28.5 272.6 27.8 272.6C27.1 272.6 26.5 272 26.5 271.3C26.5 270.6 27.1 270 27.8 270C28.5 270 29.1 270.6 29.1 271.3Z" fill="#EBEBEB"/>
<path d="M218.702 104.9C218.702 105.6 218.102 106.2 217.402 106.2C216.702 106.2 216.102 105.6 216.102 104.9C216.102 104.2 216.702 103.6 217.402 103.6C218.102 103.6 218.702 104.2 218.702 104.9Z" fill="#EBEBEB"/>
<path d="M149.702 31.4C149.702 32.1 149.102 32.7 148.402 32.7C147.702 32.7 147.102 32.1 147.102 31.4C147.102 30.7 147.702 30.1 148.402 30.1C149.102 30.1 149.702 30.7 149.702 31.4Z" fill="#F5F5F5"/>
<path d="M151.795 355.483C155.719 354.556 158.149 350.625 157.222 346.701C156.296 342.777 152.364 340.348 148.44 341.274C144.517 342.201 142.087 346.133 143.013 350.056C143.94 353.98 147.872 356.409 151.795 355.483Z" fill="#F0F0F0"/>
<path d="M147.601 344.1C146.001 344.1 144.601 344.6 143.401 345.5C143.001 346.4 142.801 347.4 142.801 348.4C142.801 352.5 146.101 355.7 150.201 355.7C151.601 355.7 152.901 355.3 154.001 354.7C154.601 353.7 154.901 352.5 154.901 351.3C154.801 347.3 151.601 344.1 147.601 344.1Z" fill="#E6E6E6"/>
<path d="M90.7008 220.6H29.8008V193.1L90.7008 120.8H119.801V194.7H134.901V220.6H119.801V243.1H90.7008V220.6ZM90.7008 194.7V156.9L58.5008 194.7H90.7008Z" fill="white"/>
<path d="M145.301 182.5C145.301 159.6 149.401 143.7 157.601 134.5C165.801 125.4 178.401 120.8 195.201 120.8C203.301 120.8 209.901 121.8 215.101 123.8C220.301 125.8 224.501 128.4 227.801 131.6C231.101 134.8 233.701 138.2 235.601 141.7C237.501 145.2 239.001 149.3 240.201 154C242.401 163 243.601 172.3 243.601 182C243.601 203.8 239.901 219.8 232.501 229.9C225.101 240 212.401 245.1 194.401 245.1C184.301 245.1 176.101 243.5 169.901 240.3C163.701 237.1 158.601 232.3 154.601 226.1C151.701 221.7 149.401 215.6 147.801 207.9C146.101 200.3 145.301 191.8 145.301 182.5ZM178.401 182.6C178.401 197.9 179.801 208.4 182.501 214C185.201 219.6 189.101 222.4 194.301 222.4C197.701 222.4 200.601 221.2 203.101 218.8C205.601 216.4 207.401 212.7 208.601 207.5C209.801 202.4 210.401 194.4 210.401 183.5C210.401 167.5 209.001 156.8 206.301 151.3C203.601 145.8 199.501 143.1 194.101 143.1C188.601 143.1 184.601 145.9 182.101 151.5C179.701 157.1 178.401 167.4 178.401 182.6Z" fill="white"/>
<path d="M314.701 220.6H253.801V193.1L314.701 120.8H343.801V194.7H358.901V220.6H343.801V243.1H314.701V220.6ZM314.701 194.7V156.9L282.501 194.7H314.701Z" fill="white"/>
<g opacity="0.3">
<path d="M143.999 78.6C143.999 79.6 143.199 80.5 142.099 80.5C141.099 80.5 140.199 79.7 140.199 78.6C140.199 77.6 140.999 76.7 142.099 76.7C143.099 76.8 143.999 77.6 143.999 78.6Z" fill="#407BFF"/>
<path d="M15.9992 150.4C16.7172 150.4 17.2992 149.818 17.2992 149.1C17.2992 148.382 16.7172 147.8 15.9992 147.8C15.2813 147.8 14.6992 148.382 14.6992 149.1C14.6992 149.818 15.2813 150.4 15.9992 150.4Z" fill="#407BFF"/>
<path d="M234.099 343.2C235.149 343.2 235.999 342.349 235.999 341.3C235.999 340.251 235.149 339.4 234.099 339.4C233.05 339.4 232.199 340.251 232.199 341.3C232.199 342.349 233.05 343.2 234.099 343.2Z" fill="#407BFF"/>
<path d="M279.499 266.3C280.217 266.3 280.799 265.718 280.799 265C280.799 264.282 280.217 263.7 279.499 263.7C278.781 263.7 278.199 264.282 278.199 265C278.199 265.718 278.781 266.3 279.499 266.3Z" fill="#407BFF"/>
<path d="M367.198 28.6C367.198 29.3 366.598 29.9 365.898 29.9C365.198 29.9 364.598 29.3 364.598 28.6C364.598 27.9 365.198 27.3 365.898 27.3C366.598 27.3 367.198 27.9 367.198 28.6Z" fill="#407BFF"/>
<path d="M115.799 1.99999C115.799 2.69999 115.199 3.3 114.499 3.3C113.799 3.3 113.199 2.69999 113.199 1.99999C113.199 1.29999 113.799 0.699991 114.499 0.699991C115.199 0.599991 115.799 1.19999 115.799 1.99999Z" fill="#407BFF"/>
<path d="M220.698 71.2C221.416 71.2 221.998 70.6179 221.998 69.9C221.998 69.182 221.416 68.6 220.698 68.6C219.98 68.6 219.398 69.182 219.398 69.9C219.398 70.6179 219.98 71.2 220.698 71.2Z" fill="#407BFF"/>
</g>
<path opacity="0.7" d="M84.2008 71.3C96.2958 71.3 106.101 61.495 106.101 49.4C106.101 37.305 96.2958 27.5 84.2008 27.5C72.1057 27.5 62.3008 37.305 62.3008 49.4C62.3008 61.495 72.1057 71.3 84.2008 71.3Z" fill="#EEFAFF"/>
<path opacity="0.2" d="M74.5 38.6C74.5 39.7 73.6 40.6 72.5 40.6C71.4 40.6 70.5 39.7 70.5 38.6C70.5 37.5 71.4 36.6 72.5 36.6C73.6 36.6 74.5 37.5 74.5 38.6Z" fill="#02B5FF"/>
<path opacity="0.2" d="M98.1016 36.6C98.1016 37.7 97.2016 38.6 96.1016 38.6C95.0016 38.6 94.1016 37.7 94.1016 36.6C94.1016 35.5 95.0016 34.6 96.1016 34.6C97.2016 34.6 98.1016 35.5 98.1016 36.6Z" fill="#02B5FF"/>
<path opacity="0.2" d="M94.1 50.9C94.1 52.7 92.6 54.2 90.8 54.2C89 54.2 87.5 52.7 87.5 50.9C87.5 49.1 89 47.6 90.8 47.6C92.6 47.6 94.1 49.1 94.1 50.9Z" fill="#02B5FF"/>
<path opacity="0.2" d="M83.6008 60.2C83.6008 62.6 81.6008 64.6 79.2008 64.6C76.8008 64.6 74.8008 62.6 74.8008 60.2C74.8008 57.8 76.8008 55.8 79.2008 55.8C81.7008 55.9 83.6008 57.8 83.6008 60.2Z" fill="#02B5FF"/>
<path d="M343.834 313.683C346.271 303.364 339.88 293.022 329.561 290.586C319.241 288.149 308.9 294.539 306.463 304.859C304.026 315.179 310.417 325.52 320.736 327.957C331.056 330.393 341.397 324.003 343.834 313.683Z" fill="#9AE1FF"/>
<path d="M306.801 314.9C286.301 324.6 301.601 332 330.501 321.6C357.301 312 367.501 299.8 343.601 303.6C344.801 308.8 311.301 321.8 306.801 314.9Z" fill="#02B5FF"/>
<path opacity="0.2" d="M337.101 120.8C310.201 139 275.401 162.9 265.801 220.6H263.801C273.101 163.6 306.701 139 333.601 120.8H337.101Z" fill="black"/>
<path d="M198.002 301.3C181.002 301.3 164.202 293.6 156.002 281.1C150.902 273.4 145.102 257.1 162.602 235.5L164.202 236.8C151.802 252.1 149.602 267.5 157.802 280C167.802 295.3 191.402 303 211.502 297.5C232.102 291.9 244.702 273.9 245.902 248.3C250.002 160.5 296.702 133.4 330.702 113.7C351.902 101.4 367.202 92.6 363.802 73.9C363.302 71.3 362.302 69.5 360.602 68.4C356.202 65.5 347.702 67.5 337.902 69.8C318.602 74.3 292.202 80.5 276.402 53.7L278.102 52.7C293.102 78.2 317.702 72.5 337.402 67.9C347.702 65.5 356.602 63.4 361.602 66.8C363.702 68.2 365.102 70.4 365.602 73.6C369.202 93.7 352.602 103.3 331.502 115.5C297.802 135 251.702 161.8 247.602 248.5C246.302 275.1 233.302 293.7 211.802 299.6C207.402 300.7 202.702 301.3 198.002 301.3Z" fill="#00B5FF"/>
<path opacity="0.2" d="M198.002 301.3C181.002 301.3 164.202 293.6 156.002 281.1C150.902 273.4 145.102 257.1 162.602 235.5L164.202 236.8C151.802 252.1 149.602 267.5 157.802 280C167.802 295.3 191.402 303 211.502 297.5C232.102 291.9 244.702 273.9 245.902 248.3C250.002 160.5 296.702 133.4 330.702 113.7C351.902 101.4 367.202 92.6 363.802 73.9C363.302 71.3 362.302 69.5 360.602 68.4C356.202 65.5 347.702 67.5 337.902 69.8C318.602 74.3 292.202 80.5 276.402 53.7L278.102 52.7C293.102 78.2 317.702 72.5 337.402 67.9C347.702 65.5 356.602 63.4 361.602 66.8C363.702 68.2 365.102 70.4 365.602 73.6C369.202 93.7 352.602 103.3 331.502 115.5C297.802 135 251.702 161.8 247.602 248.5C246.302 275.1 233.302 293.7 211.802 299.6C207.402 300.7 202.702 301.3 198.002 301.3Z" fill="#EFF7FA"/>
<path d="M255.805 29.9C262.705 29.8 269.405 32 269.405 32C269.405 32 280.405 50.8 281.705 55.1C281.205 59.3 274.105 66.3 274.105 66.3L255.805 29.9Z" fill="#00B5FF"/>
<path opacity="0.3" d="M255.805 29.9C262.705 29.8 269.405 32 269.405 32C269.405 32 280.405 50.8 281.705 55.1C281.205 59.3 274.105 66.3 274.105 66.3L255.805 29.9Z" fill="#30C2FE"/>
<path d="M288.302 121.1C284.202 115.9 280.102 110.5 276.702 104.7C275.902 103.3 275.102 101.8 274.302 100.3C273.902 99.5 273.502 98.6 273.102 97.7C272.702 96.9 272.002 95.8 271.902 95C270.702 82.3 275.002 73 270.902 62.8L254.402 69.2C254.402 69.2 255.802 87.3 259.002 98.2C261.002 104.9 265.502 110.7 269.802 116.1C271.202 117.8 272.502 119.5 273.802 121.2C275.102 122.8 276.502 124.3 277.802 125.9C279.702 128.3 280.402 130.6 278.902 133.5C278.802 133.7 278.702 133.8 278.702 134C278.302 134.7 280.202 135.6 281.502 134C283.502 131.4 283.202 131.6 285.002 129.4C286.102 128.1 287.302 126.6 288.302 125.4C289.302 124.2 289.302 122.4 288.302 121.1Z" fill="#00B5FF"/>
<path opacity="0.7" d="M288.302 121.1C284.202 115.9 280.102 110.5 276.702 104.7C275.902 103.3 275.102 101.8 274.302 100.3C273.902 99.5 273.502 98.6 273.102 97.7C272.702 96.9 272.002 95.8 271.902 95C270.702 82.3 275.002 73 270.902 62.8L254.402 69.2C254.402 69.2 255.802 87.3 259.002 98.2C261.002 104.9 265.502 110.7 269.802 116.1C271.202 117.8 272.502 119.5 273.802 121.2C275.102 122.8 276.502 124.3 277.802 125.9C279.702 128.3 280.402 130.6 278.902 133.5C278.802 133.7 278.702 133.8 278.702 134C278.302 134.7 280.202 135.6 281.502 134C283.502 131.4 283.202 131.6 285.002 129.4C286.102 128.1 287.302 126.6 288.302 125.4C289.302 124.2 289.302 122.4 288.302 121.1Z" fill="white"/>
<path opacity="0.3" d="M284.302 115.9C282.102 118.6 277.602 122 275.602 123.4C276.002 123.9 276.502 124.4 276.902 124.9C281.002 122.2 284.202 118.8 285.402 117.4C285.102 116.9 284.702 116.4 284.302 115.9Z" fill="#00B5FF"/>
<path opacity="0.3" d="M288.301 121.1C288.301 121 288.201 121 288.201 121C287.501 121.7 287.001 122.9 286.901 124.2C286.801 125.1 287.001 125.9 287.301 126.6C287.601 126.2 287.901 125.8 288.201 125.5C289.301 124.2 289.301 122.4 288.301 121.1Z" fill="#00B5FF"/>
<path d="M251.805 42C250.105 44.5 248.005 47 245.405 49.2C244.105 50.3 242.605 51.3 241.005 52.2C240.205 52.6 239.305 53 238.405 53.3L237.705 53.5L237.505 53.6C237.305 53.6 237.205 53.7 237.005 53.7C236.705 53.8 236.405 53.8 236.105 53.8C235.005 53.9 234.205 53.7 233.605 53.6C232.305 53.3 231.505 52.8 230.705 52.3C229.905 51.8 229.205 51.4 228.505 50.9C227.205 49.9 226.005 48.9 224.905 47.9C222.705 45.8 220.705 43.6 218.905 41.2C218.105 40.1 218.305 38.5 219.405 37.7C220.305 37.1 221.405 37 222.205 37.6H222.305C224.705 39.1 227.005 40.7 229.405 42.1C230.605 42.8 231.705 43.5 232.805 44C233.405 44.3 233.905 44.5 234.405 44.7C234.905 44.9 235.405 45 235.505 45C235.605 45 235.505 44.9 235.105 44.9C235.005 44.9 234.905 44.9 234.805 44.9C234.705 44.9 234.705 44.9 234.605 45L234.905 44.8C235.305 44.6 235.805 44.3 236.205 44C237.105 43.4 237.905 42.7 238.705 41.9C240.305 40.3 241.905 38.2 243.605 36.1C245.305 33.9 248.505 33.6 250.605 35.3C252.905 36.8 253.305 39.8 251.805 42Z" fill="#00B5FF"/>
<path opacity="0.7" d="M251.805 42C250.105 44.5 248.005 47 245.405 49.2C244.105 50.3 242.605 51.3 241.005 52.2C240.205 52.6 239.305 53 238.405 53.3L237.705 53.5L237.505 53.6C237.305 53.6 237.205 53.7 237.005 53.7C236.705 53.8 236.405 53.8 236.105 53.8C235.005 53.9 234.205 53.7 233.605 53.6C232.305 53.3 231.505 52.8 230.705 52.3C229.905 51.8 229.205 51.4 228.505 50.9C227.205 49.9 226.005 48.9 224.905 47.9C222.705 45.8 220.705 43.6 218.905 41.2C218.105 40.1 218.305 38.5 219.405 37.7C220.305 37.1 221.405 37 222.205 37.6H222.305C224.705 39.1 227.005 40.7 229.405 42.1C230.605 42.8 231.705 43.5 232.805 44C233.405 44.3 233.905 44.5 234.405 44.7C234.905 44.9 235.405 45 235.505 45C235.605 45 235.505 44.9 235.105 44.9C235.005 44.9 234.905 44.9 234.805 44.9C234.705 44.9 234.705 44.9 234.605 45L234.905 44.8C235.305 44.6 235.805 44.3 236.205 44C237.105 43.4 237.905 42.7 238.705 41.9C240.305 40.3 241.905 38.2 243.605 36.1C245.305 33.9 248.505 33.6 250.605 35.3C252.905 36.8 253.305 39.8 251.805 42Z" fill="white"/>
<path d="M215.303 35.4L216.503 37.4C216.503 37.4 217.403 40 219.203 40.5L224.103 38.9L223.903 38.5C223.303 37.6 223.303 35.7 223.603 34.2C223.803 32.7 223.003 32.6 222.403 33C222.103 33.2 221.803 33.9 221.603 34.7C221.403 34.4 221.103 34.1001 220.803 33.8001L219.303 32.3001C218.703 31.7001 217.603 31.6 217.003 32.2L215.803 33.3001C215.003 33.8001 214.903 34.7 215.303 35.4Z" fill="#00B5FF"/>
<path opacity="0.7" d="M215.303 35.4L216.503 37.4C216.503 37.4 217.403 40 219.203 40.5L224.103 38.9L223.903 38.5C223.303 37.6 223.303 35.7 223.603 34.2C223.803 32.7 223.003 32.6 222.403 33C222.103 33.2 221.803 33.9 221.603 34.7C221.403 34.4 221.103 34.1001 220.803 33.8001L219.303 32.3001C218.703 31.7001 217.603 31.6 217.003 32.2L215.803 33.3001C215.003 33.8001 214.903 34.7 215.303 35.4Z" fill="white"/>
<path d="M260.701 28.2C256.101 29.3 249.701 32 245.401 34.7C243.901 35.7 243.101 37.5 243.501 39.2C245.401 48.6 249.801 61.3 254.601 69.3L276.701 60.2C276.901 56.3 271.501 43.7 266.001 31.5C264.901 29.3 263.001 27.7 260.701 28.2Z" fill="#00B5FF"/>
<path opacity="0.8" d="M260.701 28.2C256.101 29.3 249.701 32 245.401 34.7C243.901 35.7 243.101 37.5 243.501 39.2C245.401 48.6 249.801 61.3 254.601 69.3L276.701 60.2C276.901 56.3 271.501 43.7 266.001 31.5C264.901 29.3 263.001 27.7 260.701 28.2Z" fill="white"/>
<path opacity="0.3" d="M269.302 39.2L264.902 37.7C265.902 40.3 269.402 43.5 271.902 45.4C271.102 43.5 270.202 41.4 269.302 39.2Z" fill="#00B5FF"/>
<path d="M259.202 18.3C257.402 14.8 253.402 13.1 248.702 13.5C244.702 13.8 241.202 17.9 241.602 20.1C242.002 22.3 245.402 23.2 246.002 24L243.202 26C241.802 27 241.502 28.9 242.602 30.3C243.802 31.8 245.302 33.3 246.202 34.4C253.902 34.2 259.502 31.3 261.602 28.5C260.802 24.9 261.002 21.8 259.202 18.3Z" fill="#00B5FF"/>
<path opacity="0.8" d="M259.202 18.3C257.402 14.8 253.402 13.1 248.702 13.5C244.702 13.8 241.202 17.9 241.602 20.1C242.002 22.3 245.402 23.2 246.002 24L243.202 26C241.802 27 241.502 28.9 242.602 30.3C243.802 31.8 245.302 33.3 246.202 34.4C253.902 34.2 259.502 31.3 261.602 28.5C260.802 24.9 261.002 21.8 259.202 18.3Z" fill="white"/>
<path d="M255.503 20.5C257.003 24.4 255.103 28.8 251.203 30.3C247.303 31.8 242.903 29.9 241.403 26C239.903 22.1 241.803 17.7 245.703 16.2C249.503 14.7 253.903 16.6 255.503 20.5Z" fill="#263238"/>
<path d="M320.402 110.6C320.302 107.3 320.102 107.6 320.102 104.8C320.002 103.1 320.002 101.2 320.002 99.6C320.002 98 318.902 96.6 317.302 96.3C316.002 96 314.602 95.8 313.302 95.5C311.602 95.1 309.902 94.7 308.202 94.2C306.902 93.8 305.602 93.4 304.302 92.9C302.902 92.4 301.602 91.9 300.202 91.3C298.602 90.6 297.102 89.9 295.502 89.2C293.802 88.4 292.102 87.5 290.402 86.6C283.802 75.7 283.702 68.5 276.602 60.1L261.402 67C261.402 67 272.502 86.8 280.102 95.1C284.502 99.9 291.302 102.1 297.402 103.7C301.802 104.8 306.302 105.7 310.802 106.5C312.502 106.8 314.402 106.9 315.902 108C317.102 108.8 317.702 110.1 318.002 111.5C318.102 111.8 318.102 112.1 318.202 112.3C318.402 113.2 320.502 112.6 320.402 110.6Z" fill="#00B5FF"/>
<path opacity="0.8" d="M320.402 110.6C320.302 107.3 320.102 107.6 320.102 104.8C320.002 103.1 320.002 101.2 320.002 99.6C320.002 98 318.902 96.6 317.302 96.3C316.002 96 314.602 95.8 313.302 95.5C311.602 95.1 309.902 94.7 308.202 94.2C306.902 93.8 305.602 93.4 304.302 92.9C302.902 92.4 301.602 91.9 300.202 91.3C298.602 90.6 297.102 89.9 295.502 89.2C293.802 88.4 292.102 87.5 290.402 86.6C283.802 75.7 283.702 68.5 276.602 60.1L261.402 67C261.402 67 272.502 86.8 280.102 95.1C284.502 99.9 291.302 102.1 297.402 103.7C301.802 104.8 306.302 105.7 310.802 106.5C312.502 106.8 314.402 106.9 315.902 108C317.102 108.8 317.702 110.1 318.002 111.5C318.102 111.8 318.102 112.1 318.202 112.3C318.402 113.2 320.502 112.6 320.402 110.6Z" fill="white"/>
<path opacity="0.3" d="M312.703 95.4001C312.103 95.3001 311.503 95.1001 310.903 95.0001C310.903 98.5001 309.303 104.4 308.703 106.2C309.303 106.3 310.003 106.4 310.603 106.6C312.403 101.8 312.703 96.8001 312.703 95.4001Z" fill="#00B5FF"/>
<path opacity="0.3" d="M320.001 99.6C320.001 98 318.901 96.6 317.301 96.3C317.001 96.2 316.701 96.2 316.301 96.1C316.401 97 317.001 98.1 317.901 99C318.501 99.6 319.301 100 319.901 100.1C320.001 100 320.001 99.8 320.001 99.6Z" fill="#00B5FF"/>
<path d="M254.002 20.5C254.402 22 252.702 23.6 251.302 22.3C250.202 21.2 248.502 19.5 247.202 18.6C245.802 17.7 247.702 16.2 249.902 16.8C252.002 17.4 253.602 19 254.002 20.5Z" fill="white"/>
<path d="M254.203 68.9C253.503 69.2 254.803 70.4 254.803 70.4C254.803 70.4 268.803 65.6 277.303 60.7C277.403 59.7 276.603 59.1 276.603 59.1C276.603 59.1 266.203 64.4 254.203 68.9Z" fill="#30C2FE"/>
<path opacity="0.5" d="M254.203 68.9C253.503 69.2 254.803 70.4 254.803 70.4C254.803 70.4 268.803 65.6 277.303 60.7C277.403 59.7 276.603 59.1 276.603 59.1C276.603 59.1 266.203 64.4 254.203 68.9Z" fill="#30C2FE"/>
<path d="M264.504 27.6C267.304 29 269.904 30.5 272.404 32.1C273.704 32.9 275.004 33.7 276.204 34.6C277.504 35.5 278.704 36.4 280.004 37.5L280.504 37.9L281.104 38.4C281.504 38.8 281.804 39.1 282.104 39.5C282.404 39.9 282.704 40.2 283.004 40.5C283.304 40.8 283.504 41.2 283.804 41.5C284.804 42.8 285.604 44.2 286.404 45.5C287.904 48.2 289.304 50.9 290.404 53.8C290.904 55.1 290.204 56.6 288.904 57C287.904 57.4 286.904 57.1 286.204 56.4V56.3C284.204 54.2 282.304 51.9 280.304 49.8C278.404 47.7 276.404 45.6 274.804 44.7C272.504 43.3 270.004 41.9 267.504 40.5L259.904 36.3C257.504 35 256.604 31.9 258.004 29.5C259.104 27.2 262.104 26.4 264.504 27.6Z" fill="#00B5FF"/>
<path opacity="0.8" d="M264.504 27.6C267.304 29 269.904 30.5 272.404 32.1C273.704 32.9 275.004 33.7 276.204 34.6C277.504 35.5 278.704 36.4 280.004 37.5L280.504 37.9L281.104 38.4C281.504 38.8 281.804 39.1 282.104 39.5C282.404 39.9 282.704 40.2 283.004 40.5C283.304 40.8 283.504 41.2 283.804 41.5C284.804 42.8 285.604 44.2 286.404 45.5C287.904 48.2 289.304 50.9 290.404 53.8C290.904 55.1 290.204 56.6 288.904 57C287.904 57.4 286.904 57.1 286.204 56.4V56.3C284.204 54.2 282.304 51.9 280.304 49.8C278.404 47.7 276.404 45.6 274.804 44.7C272.504 43.3 270.004 41.9 267.504 40.5L259.904 36.3C257.504 35 256.604 31.9 258.004 29.5C259.104 27.2 262.104 26.4 264.504 27.6Z" fill="white"/>
<path d="M292.705 58.7L291.905 56.6C291.905 56.6 291.405 53.9 289.705 53.1L284.705 53.9L284.905 54.3C285.405 55.3 285.005 57.1 284.605 58.6C284.105 60.1 284.905 60.2 285.605 60C286.005 59.8 286.305 59.2 286.705 58.5C286.905 58.9 287.105 59.2 287.305 59.5L288.505 61.2C289.005 61.9 290.005 62.1 290.805 61.6L292.205 60.7C292.805 60.4 293.005 59.5 292.705 58.7Z" fill="#00B5FF"/>
<path opacity="0.8" d="M292.705 58.7L291.905 56.6C291.905 56.6 291.405 53.9 289.705 53.1L284.705 53.9L284.905 54.3C285.405 55.3 285.005 57.1 284.605 58.6C284.105 60.1 284.905 60.2 285.605 60C286.005 59.8 286.305 59.2 286.705 58.5C286.905 58.9 287.105 59.2 287.305 59.5L288.505 61.2C289.005 61.9 290.005 62.1 290.805 61.6L292.205 60.7C292.805 60.4 293.005 59.5 292.705 58.7Z" fill="white"/>
<path opacity="0.3" d="M260.2 39.1L259 39.2L251.5 57.3C251.9 57.3 252.3 57.3 252.7 57.2C252.7 57.2 262.5 53.6 265.4 52.2C263.5 48.1 260.2 39.1 260.2 39.1Z" fill="#00B5FF"/>
<path d="M246.602 43.8C247.002 47.1 249.502 54 251.602 57.2C255.302 55.9 261.402 53.6 264.302 52.2C262.302 48.1 260.202 42.4 259.102 39.1C255.902 39.4 249.002 42 246.602 43.8Z" fill="white"/>
<path opacity="0.3" d="M254 47.7C253.6 49.1 252.2 49.8001 250.8 49.4001C249.4 49.0001 248.7 47.6 249.1 46.2C249.5 44.8 250.9 44.1001 252.3 44.5001C253.6 44.9001 254.4 46.3 254 47.7Z" fill="#00B5FF"/>
<path opacity="0.6" d="M255.903 44.3001C255.803 44.7001 255.303 45 254.803 44.9C254.403 44.8 254.103 44.3001 254.203 43.8001C254.303 43.4001 254.803 43.1 255.303 43.2C255.803 43.3 256.003 43.8001 255.903 44.3001Z" fill="#00B5FF"/>
<path opacity="0.6" d="M258.102 43.4C258.002 43.8 257.502 44.1 257.002 44C256.602 43.9 256.302 43.4 256.402 42.9C256.502 42.5 257.002 42.2 257.502 42.3C258.002 42.5 258.302 43 258.102 43.4Z" fill="#00B5FF"/>
<path opacity="0.5" d="M261.3 51.2L252 54.8L251.5 53L260.7 49.4L261.3 51.2Z" fill="#00B5FF"/>
<path opacity="0.2" d="M210.302 190.2C210.102 197.7 209.502 203.5 208.602 207.6C207.402 212.7 205.602 216.5 203.102 218.9C200.602 221.3 197.702 222.5 194.302 222.5C189.202 222.5 185.202 219.7 182.502 214.1C182.102 213.2 181.702 212.1 181.302 211C175.602 215.9 170.302 221.3 165.402 227L160.102 233.3C163.002 236.2 166.202 238.6 169.902 240.5C176.102 243.7 184.302 245.3 194.402 245.3C196.202 245.3 197.902 245.3 199.602 245.2C205.702 236.1 210.802 226.4 214.702 216.2L229.602 177.5L210.302 190.2Z" fill="black"/>
<path d="M76.4023 243C82.0023 248.6 93.9023 260.5 93.9023 260.5L142.902 214.3C126.002 207.9 93.2023 226.2 76.4023 243Z" fill="#1C567B"/>
<path d="M137.402 304C131.802 298.4 119.902 286.5 119.902 286.5L166.102 237.5C172.502 254.3 154.202 287.2 137.402 304Z" fill="#1C567B"/>
<path d="M204.402 193.7L223.502 156.9L186.702 176C174.902 182.1 164.002 189.9 154.302 199L91.6016 258.1L122.402 288.9L181.502 226.2C190.502 216.4 198.302 205.5 204.402 193.7Z" fill="#02B5FF"/>
<path d="M165.201 228.1C172.325 228.1 178.101 222.325 178.101 215.2C178.101 208.076 172.325 202.3 165.201 202.3C158.076 202.3 152.301 208.076 152.301 215.2C152.301 222.325 158.076 228.1 165.201 228.1Z" fill="white"/>
<path d="M165.202 223.5C169.786 223.5 173.502 219.784 173.502 215.2C173.502 210.616 169.786 206.9 165.202 206.9C160.618 206.9 156.902 210.616 156.902 215.2C156.902 219.784 160.618 223.5 165.202 223.5Z" fill="#02B5FF"/>
<path opacity="0.6" d="M132.702 277.8L102.602 247.6L127.302 224.4L156.002 253.1L132.702 277.8Z" fill="white"/>
<path d="M83.2006 270.6C60.6006 272.4 53.1006 286.9 50.6006 306.1C49.3006 315.9 48.7006 325.8 40.5006 331.6C38.2006 333.2 39.3006 336.7 42.1006 336.7C72.4006 335.8 86.6006 320.9 88.4006 314.7C87.8006 318.6 86.9006 321.7 85.9006 324.2C84.9006 326.7 87.6006 329 89.9006 327.6C98.4006 322.3 109.101 312.4 109.801 296.5C103.501 287.6 83.2006 270.6 83.2006 270.6Z" fill="#9AE1FF"/>
<path opacity="0.2" d="M83.2006 270.6C60.6006 272.4 53.1006 286.9 50.6006 306.1C49.3006 315.9 48.7006 325.8 40.5006 331.6C38.2006 333.2 39.3006 336.7 42.1006 336.7C72.4006 335.8 86.6006 320.9 88.4006 314.7C87.8006 318.6 86.9006 321.7 85.9006 324.2C84.9006 326.7 87.6006 329 89.9006 327.6C98.4006 322.3 109.101 312.4 109.801 296.5C103.501 287.6 83.2006 270.6 83.2006 270.6Z" fill="#9AE1FF"/>
<path d="M113.302 303.3L77.1016 267.1L96.4016 262.9L117.402 284L113.302 303.3Z" fill="#02B5FF"/>
</svg>
