<?xml version="1.0" encoding="UTF-8"?>
<svg id="Layer_1" data-name="Layer 1" xmlns="http://www.w3.org/2000/svg" version="1.1" viewBox="0 0 512 512">
  <defs>
    <style>
      .cls-1 {
        fill: #02b5ff;
        fill-rule: evenodd;
        stroke-width: 0px;
      }
    </style>
  </defs>
  <path class="cls-1" d="M37.7,114.6c-4.2,1.2-8.7-1.3-9.9-5.5s1.3-8.7,5.5-9.9l42.6-12.1c5.3-1.5,10.4,2.6,10.2,8l1.6,43.7c.2,4.4-3.3,8.1-7.7,8.2s-8.1-3.3-8.2-7.7l-.8-23.3c-33.5,44.2-49.1,97.6-46.7,150.4,7.8,175.4,199.6,276.8,348.4,190.2,3.8-2.2,8.7-.9,10.9,2.9s.9,8.7-2.9,10.9c-159.1,92.6-364-15.8-372.4-203.3-2.5-55.2,13.4-111,47.6-157.6l-18.1,5.2h0ZM493.2,88.1l-42.9-9.2,16.8-16.8c4.7-4.7,4.7-12.5,0-17.2s-12.5-4.7-17.2,0l-16.8,16.8-9.2-42.9-73.6,73.6,9.2,42.9-91.3,91.3c7.8,3.2,14,9.4,17.2,17.2l91.3-91.3,42.9,9.2,73.6-73.6h0ZM256,224.6c-17.3,0-31.4,14-31.4,31.4s14,31.4,31.4,31.4,31.4-14,31.4-31.4-.8-8.2-2.3-11.8l-12,12c-4.7,4.7-12.5,4.7-17.2,0s-4.7-12.5,0-17.2l12-12c-3.7-1.5-7.6-2.3-11.8-2.3h-.1ZM291.8,105.8l-11.5-29.8h-48.7l-11.5,29.8c-15.9,3.8-31.1,10.1-45,18.6l-29.2-13-34.5,34.5,13,29.2c-8.6,13.9-14.9,29.1-18.7,45l-29.8,11.5v48.7l29.8,11.5c3.8,15.9,10.1,31.1,18.7,45l-13,29.2,34.5,34.5,29.2-13c13.9,8.6,29.1,14.9,45,18.6l11.5,29.8h48.7l11.5-29.8c15.9-3.8,31.1-10.1,45-18.7l29.2,13,34.5-34.5-13-29.2c8.6-13.9,14.9-29.1,18.6-45l29.8-11.5v-48.7l-29.8-11.5c-3.8-15.9-10.1-31.1-18.7-45l1.6-3.5-7.3-1.6-49.2,49.2c5.4,11.1,8.4,23.6,8.4,36.8,0,46.9-38,85-85,85s-85-38-85-85,38-85,85-85,25.7,3,36.8,8.4l49.2-49.2-1.6-7.3-3.5,1.6c-13.9-8.6-29.1-14.9-45-18.6h0ZM139.3,55.3c-3.8,2.2-8.7.9-10.9-2.9s-.9-8.7,2.9-10.9c76.4-44.5,171.4-44.7,247.9-.8l-11.7,11.7c-71-39-158-38-228.2,2.9ZM471.3,132.7c19.9,34.7,30.7,73.3,32.5,112.1,2.5,55.2-13.4,111-47.6,157.6l18.1-5.2c4.2-1.2,8.7,1.3,9.9,5.5s-1.3,8.7-5.5,9.9l-42.6,12.1c-5.3,1.5-10.4-2.6-10.2-8l-1.6-43.7c-.2-4.4,3.3-8.1,7.7-8.2s8.1,3.3,8.2,7.7l.8,23.3c33.5-44.2,49.1-97.6,46.7-150.4-1.6-34.9-11-69.6-28.3-101.1l11.7-11.7h.2Z"/>
</svg>