<svg width="20" height="20" viewBox="0 0 20 20" fill="none" xmlns="http://www.w3.org/2000/svg">
<path d="M10 9.99996C10.4583 9.99996 10.8508 9.83662 11.1775 9.50996C11.5036 9.18385 11.6667 8.79163 11.6667 8.33329C11.6667 7.87496 11.5036 7.48246 11.1775 7.15579C10.8508 6.82968 10.4583 6.66663 10 6.66663C9.54168 6.66663 9.14945 6.82968 8.82334 7.15579C8.49668 7.48246 8.33334 7.87496 8.33334 8.33329C8.33334 8.79163 8.49668 9.18385 8.82334 9.50996C9.14945 9.83662 9.54168 9.99996 10 9.99996ZM10 18.3333C7.7639 16.4305 6.0939 14.663 4.99001 13.0308C3.88557 11.3991 3.33334 9.88885 3.33334 8.49996C3.33334 6.41663 4.00362 4.7569 5.34418 3.52079C6.68418 2.28468 8.23612 1.66663 10 1.66663C11.7639 1.66663 13.3158 2.28468 14.6558 3.52079C15.9964 4.7569 16.6667 6.41663 16.6667 8.49996C16.6667 9.88885 16.1147 11.3991 15.0108 13.0308C13.9064 14.663 12.2361 16.4305 10 18.3333Z" fill="white"/>
</svg>
