<svg width="1241" height="265" viewBox="0 0 1241 265" fill="none" xmlns="http://www.w3.org/2000/svg">
<path d="M463.106 90.224C463.106 81.0438 464.932 73.0111 468.583 66.126C472.234 59.1316 477.227 53.7218 483.563 49.8967C490.007 46.0717 497.148 44.1591 504.987 44.1591C512.719 44.1591 519.431 45.8531 525.122 49.241C530.814 52.6289 535.055 56.8912 537.847 62.0277V45.6345H552.667V135.469H537.847V118.748C534.948 123.994 530.599 128.365 524.8 131.863C519.108 135.251 512.45 136.945 504.826 136.945C496.987 136.945 489.899 134.977 483.563 131.043C477.227 127.109 472.234 121.59 468.583 114.486C464.932 107.382 463.106 99.2949 463.106 90.224ZM537.847 90.3879C537.847 83.612 536.505 77.7105 533.82 72.6833C531.136 67.656 527.485 63.8309 522.867 61.208C518.357 58.4758 513.363 57.1097 507.886 57.1097C502.41 57.1097 497.416 58.4212 492.906 61.0441C488.396 63.667 484.798 67.4921 482.114 72.5193C479.429 77.5466 478.087 83.4481 478.087 90.224C478.087 97.1091 479.429 103.12 482.114 108.256C484.798 113.284 488.396 117.163 492.906 119.896C497.416 122.519 502.41 123.83 507.886 123.83C513.363 123.83 518.357 122.519 522.867 119.896C527.485 117.163 531.136 113.284 533.82 108.256C536.505 103.12 537.847 97.1637 537.847 90.3879Z" fill="#264FDA"/>
<path d="M615.936 136.945C607.667 136.945 600.15 135.032 593.385 131.207C586.727 127.382 581.465 121.972 577.599 114.978C573.841 107.874 571.961 99.6774 571.961 90.3879C571.961 81.2077 573.894 73.1204 577.76 66.126C581.733 59.0223 587.103 53.6125 593.868 49.8967C600.634 46.0717 608.204 44.1591 616.581 44.1591C624.957 44.1591 632.527 46.0717 639.293 49.8967C646.058 53.6125 651.374 58.9676 655.24 65.9621C659.213 72.9565 661.2 81.0984 661.2 90.3879C661.2 99.6774 659.159 107.874 655.079 114.978C651.105 121.972 645.682 127.382 638.81 131.207C631.937 135.032 624.312 136.945 615.936 136.945ZM615.936 123.83C621.198 123.83 626.138 122.573 630.756 120.06C635.373 117.546 639.078 113.775 641.87 108.748C644.77 103.721 646.219 97.6009 646.219 90.3879C646.219 83.1749 644.823 77.0548 642.031 72.0275C639.239 67.0003 635.588 63.2845 631.078 60.8802C626.568 58.3666 621.681 57.1097 616.419 57.1097C611.05 57.1097 606.11 58.3666 601.6 60.8802C597.197 63.2845 593.653 67.0003 590.969 72.0275C588.284 77.0548 586.942 83.1749 586.942 90.3879C586.942 97.7102 588.23 103.885 590.808 108.912C593.492 113.939 597.036 117.71 601.439 120.223C605.842 122.628 610.674 123.83 615.936 123.83Z" fill="#264FDA"/>
<path d="M723.481 43.9952C734.22 43.9952 742.918 47.3285 749.576 53.995C756.234 60.5523 759.563 70.0603 759.563 82.5192V135.469H745.066V84.6503C745.066 75.6887 742.865 68.8582 738.462 64.1588C734.059 59.3501 728.045 56.9458 720.421 56.9458C712.689 56.9458 706.514 59.4048 701.897 64.3227C697.386 69.2407 695.131 76.399 695.131 85.7978V135.469H680.473V45.6345H695.131V58.4212C698.031 53.8311 701.95 50.2793 706.89 47.7656C711.937 45.252 717.468 43.9952 723.481 43.9952Z" fill="#264FDA"/>
<path d="M819.429 57.9294H800.904V135.469H786.246V57.9294H774.809V45.6345H786.246V39.2412C786.246 29.1867 788.77 21.8644 793.817 17.2743C798.971 12.5749 807.186 10.2252 818.462 10.2252V22.6841C812.019 22.6841 807.455 23.9955 804.77 26.6184C802.193 29.132 800.904 33.3396 800.904 39.2412V45.6345H819.429V57.9294Z" fill="#264FDA"/>
<path d="M851.178 14.1596V135.469H836.52V14.1596H851.178Z" fill="#264FDA"/>
<path d="M914.659 136.945C906.39 136.945 898.873 135.032 892.107 131.207C885.449 127.382 880.187 121.972 876.322 114.978C872.563 107.874 870.684 99.6774 870.684 90.3879C870.684 81.2077 872.617 73.1204 876.483 66.126C880.456 59.0223 885.825 53.6125 892.591 49.8967C899.356 46.0717 906.927 44.1591 915.303 44.1591C923.679 44.1591 931.25 46.0717 938.015 49.8967C944.781 53.6125 950.096 58.9676 953.962 65.9621C957.936 72.9565 959.922 81.0984 959.922 90.3879C959.922 99.6774 957.882 107.874 953.801 114.978C949.828 121.972 944.405 127.382 937.532 131.207C930.659 135.032 923.035 136.945 914.659 136.945ZM914.659 123.83C919.921 123.83 924.86 122.573 929.478 120.06C934.096 117.546 937.801 113.775 940.593 108.748C943.492 103.721 944.942 97.6009 944.942 90.3879C944.942 83.1749 943.546 77.0548 940.754 72.0275C937.962 67.0003 934.31 63.2845 929.8 60.8802C925.29 58.3666 920.404 57.1097 915.142 57.1097C909.773 57.1097 904.833 58.3666 900.322 60.8802C895.92 63.2845 892.376 67.0003 889.691 72.0275C887.006 77.0548 885.664 83.1749 885.664 90.3879C885.664 97.7102 886.953 103.885 889.53 108.912C892.215 113.939 895.759 117.71 900.161 120.223C904.564 122.628 909.397 123.83 914.659 123.83Z" fill="#264FDA"/>
<path d="M1096.78 45.6345L1069.24 135.469H1054.1L1032.84 64.1588L1011.57 135.469H996.431L968.725 45.6345H983.706L1004 121.043L1025.91 45.6345H1040.89L1062.31 121.207L1082.29 45.6345H1096.78Z" fill="#264FDA"/>
<path d="M1116 136.453C1113.21 136.453 1110.85 135.469 1108.92 133.502C1106.98 131.535 1106.02 129.13 1106.02 126.289C1106.02 123.447 1106.98 121.043 1108.92 119.076C1110.85 117.109 1113.21 116.125 1116 116.125C1118.69 116.125 1120.94 117.109 1122.77 119.076C1124.7 121.043 1125.67 123.447 1125.67 126.289C1125.67 129.13 1124.7 131.535 1122.77 133.502C1120.94 135.469 1118.69 136.453 1116 136.453Z" fill="#264FDA"/>
<path d="M481.295 235.464C478.476 235.464 475.948 234.995 473.711 234.055C471.474 233.071 469.706 231.728 468.409 230.028C467.111 228.283 466.395 226.292 466.261 224.054H472.57C472.749 225.889 473.599 227.388 475.12 228.551C476.686 229.715 478.722 230.296 481.228 230.296C483.555 230.296 485.389 229.782 486.732 228.753C488.074 227.724 488.745 226.426 488.745 224.86C488.745 223.249 488.029 222.063 486.597 221.303C485.165 220.497 482.951 219.714 479.953 218.954C477.223 218.238 474.986 217.522 473.241 216.806C471.541 216.045 470.064 214.949 468.811 213.517C467.603 212.041 466.999 210.117 466.999 207.745C466.999 205.866 467.558 204.143 468.677 202.577C469.796 201.011 471.384 199.781 473.442 198.886C475.501 197.946 477.85 197.476 480.49 197.476C484.561 197.476 487.85 198.505 490.356 200.564C492.862 202.622 494.204 205.441 494.383 209.02H488.275C488.141 207.096 487.358 205.553 485.926 204.389C484.539 203.226 482.66 202.644 480.288 202.644C478.096 202.644 476.351 203.114 475.053 204.054C473.756 204.993 473.107 206.224 473.107 207.745C473.107 208.953 473.487 209.96 474.248 210.765C475.053 211.526 476.038 212.152 477.201 212.645C478.409 213.092 480.065 213.607 482.168 214.188C484.807 214.904 486.955 215.62 488.611 216.336C490.266 217.007 491.676 218.036 492.839 219.423C494.047 220.811 494.674 222.623 494.718 224.86C494.718 226.873 494.159 228.686 493.04 230.296C491.922 231.907 490.333 233.182 488.275 234.122C486.262 235.017 483.935 235.464 481.295 235.464Z" fill="#7F7F7F"/>
<path d="M506.495 192.107C505.331 192.107 504.347 191.704 503.542 190.899C502.736 190.093 502.334 189.109 502.334 187.946C502.334 186.782 502.736 185.798 503.542 184.992C504.347 184.187 505.331 183.784 506.495 183.784C507.613 183.784 508.553 184.187 509.314 184.992C510.119 185.798 510.522 186.782 510.522 187.946C510.522 189.109 510.119 190.093 509.314 190.899C508.553 191.704 507.613 192.107 506.495 192.107ZM509.448 198.08V234.86H503.34V198.08H509.448Z" fill="#7F7F7F"/>
<path d="M564.087 197.409C566.951 197.409 569.501 198.013 571.739 199.221C573.976 200.385 575.743 202.152 577.041 204.523C578.339 206.895 578.987 209.781 578.987 213.182V234.86H572.947V214.054C572.947 210.385 572.03 207.588 570.195 205.664C568.405 203.696 565.967 202.711 562.879 202.711C559.702 202.711 557.174 203.74 555.295 205.799C553.416 207.812 552.476 210.743 552.476 214.591V234.86H546.436V214.054C546.436 210.385 545.518 207.588 543.684 205.664C541.894 203.696 539.455 202.711 536.368 202.711C533.191 202.711 530.663 203.74 528.784 205.799C526.905 207.812 525.965 210.743 525.965 214.591V234.86H519.857V198.08H525.965V203.382C527.173 201.458 528.784 199.982 530.797 198.953C532.856 197.924 535.115 197.409 537.576 197.409C540.664 197.409 543.393 198.103 545.764 199.49C548.136 200.877 549.903 202.913 551.067 205.597C552.096 203.002 553.796 200.989 556.168 199.557C558.539 198.125 561.179 197.409 564.087 197.409Z" fill="#7F7F7F"/>
<path d="M595.114 204.859C596.322 202.756 598.112 201.011 600.483 199.624C602.899 198.192 605.696 197.476 608.873 197.476C612.139 197.476 615.092 198.259 617.732 199.825C620.417 201.391 622.52 203.606 624.041 206.47C625.562 209.289 626.323 212.577 626.323 216.336C626.323 220.05 625.562 223.361 624.041 226.269C622.52 229.178 620.417 231.437 617.732 233.048C615.092 234.659 612.139 235.464 608.873 235.464C605.741 235.464 602.966 234.771 600.55 233.384C598.179 231.952 596.367 230.184 595.114 228.081V252.311H589.006V198.08H595.114V204.859ZM620.081 216.336C620.081 213.562 619.522 211.146 618.403 209.087C617.285 207.029 615.763 205.463 613.839 204.389C611.96 203.315 609.879 202.778 607.597 202.778C605.36 202.778 603.28 203.338 601.356 204.456C599.476 205.53 597.955 207.119 596.792 209.222C595.673 211.28 595.114 213.674 595.114 216.403C595.114 219.177 595.673 221.616 596.792 223.719C597.955 225.777 599.476 227.366 601.356 228.484C603.28 229.558 605.36 230.095 607.597 230.095C609.879 230.095 611.96 229.558 613.839 228.484C615.763 227.366 617.285 225.777 618.403 223.719C619.522 221.616 620.081 219.155 620.081 216.336Z" fill="#7F7F7F"/>
<path d="M640.47 185.194V234.86H634.362V185.194H640.47Z" fill="#7F7F7F"/>
<path d="M654.034 192.107C652.871 192.107 651.886 191.704 651.081 190.899C650.275 190.093 649.873 189.109 649.873 187.946C649.873 186.782 650.275 185.798 651.081 184.992C651.886 184.187 652.871 183.784 654.034 183.784C655.153 183.784 656.092 184.187 656.853 184.992C657.658 185.798 658.061 186.782 658.061 187.946C658.061 189.109 657.658 190.093 656.853 190.899C656.092 191.704 655.153 192.107 654.034 192.107ZM656.987 198.08V234.86H650.879V198.08H656.987Z" fill="#7F7F7F"/>
<path d="M665.115 216.403C665.115 212.6 665.875 209.289 667.396 206.47C668.918 203.606 671.021 201.391 673.705 199.825C676.435 198.259 679.545 197.476 683.035 197.476C687.554 197.476 691.268 198.572 694.176 200.765C697.129 202.957 699.076 206 700.015 209.893H693.438C692.811 207.656 691.581 205.888 689.746 204.591C687.957 203.293 685.719 202.644 683.035 202.644C679.545 202.644 676.726 203.852 674.578 206.269C672.43 208.64 671.356 212.018 671.356 216.403C671.356 220.833 672.43 224.256 674.578 226.672C676.726 229.088 679.545 230.296 683.035 230.296C685.719 230.296 687.957 229.67 689.746 228.417C691.536 227.164 692.767 225.374 693.438 223.048H700.015C699.031 226.806 697.062 229.827 694.109 232.109C691.156 234.346 687.464 235.464 683.035 235.464C679.545 235.464 676.435 234.681 673.705 233.115C671.021 231.549 668.918 229.334 667.396 226.471C665.875 223.607 665.115 220.251 665.115 216.403Z" fill="#7F7F7F"/>
<path d="M711.319 192.107C710.156 192.107 709.171 191.704 708.366 190.899C707.561 190.093 707.158 189.109 707.158 187.946C707.158 186.782 707.561 185.798 708.366 184.992C709.171 184.187 710.156 183.784 711.319 183.784C712.438 183.784 713.377 184.187 714.138 184.992C714.944 185.798 715.346 186.782 715.346 187.946C715.346 189.109 714.944 190.093 714.138 190.899C713.377 191.704 712.438 192.107 711.319 192.107ZM714.272 198.08V234.86H708.165V198.08H714.272Z" fill="#7F7F7F"/>
<path d="M732.132 203.114V224.793C732.132 226.583 732.512 227.858 733.273 228.618C734.033 229.334 735.353 229.692 737.233 229.692H741.729V234.86H736.226C732.825 234.86 730.275 234.077 728.575 232.511C726.874 230.945 726.024 228.372 726.024 224.793V203.114H721.259V198.08H726.024V188.818H732.132V198.08H741.729V203.114H732.132Z" fill="#7F7F7F"/>
<path d="M780.809 198.08L758.66 252.176H752.351L759.6 234.458L744.767 198.08H751.546L763.09 227.88L774.5 198.08H780.809Z" fill="#7F7F7F"/>
<path d="M807.996 192.107C806.833 192.107 805.849 191.704 805.043 190.899C804.238 190.093 803.835 189.109 803.835 187.946C803.835 186.782 804.238 185.798 805.043 184.992C805.849 184.187 806.833 183.784 807.996 183.784C809.115 183.784 810.055 184.187 810.815 184.992C811.621 185.798 812.023 186.782 812.023 187.946C812.023 189.109 811.621 190.093 810.815 190.899C810.055 191.704 809.115 192.107 807.996 192.107ZM810.949 198.08V234.86H804.842V198.08H810.949Z" fill="#7F7F7F"/>
<path d="M839.279 197.409C843.754 197.409 847.378 198.774 850.152 201.503C852.926 204.188 854.313 208.081 854.313 213.182V234.86H848.273V214.054C848.273 210.385 847.355 207.588 845.521 205.664C843.686 203.696 841.181 202.711 838.004 202.711C834.782 202.711 832.209 203.718 830.285 205.732C828.406 207.745 827.467 210.676 827.467 214.524V234.86H821.359V198.08H827.467V203.315C828.675 201.436 830.308 199.982 832.366 198.953C834.469 197.924 836.773 197.409 839.279 197.409Z" fill="#7F7F7F"/>
<path d="M885.338 192.107C884.175 192.107 883.19 191.704 882.385 190.899C881.579 190.093 881.177 189.109 881.177 187.946C881.177 186.782 881.579 185.798 882.385 184.992C883.19 184.187 884.175 183.784 885.338 183.784C886.457 183.784 887.396 184.187 888.157 184.992C888.962 185.798 889.365 186.782 889.365 187.946C889.365 189.109 888.962 190.093 888.157 190.899C887.396 191.704 886.457 192.107 885.338 192.107ZM888.291 198.08V234.86H882.184V198.08H888.291Z" fill="#7F7F7F"/>
<path d="M916.621 197.409C921.095 197.409 924.72 198.774 927.494 201.503C930.268 204.188 931.655 208.081 931.655 213.182V234.86H925.614V214.054C925.614 210.385 924.697 207.588 922.863 205.664C921.028 203.696 918.522 202.711 915.346 202.711C912.124 202.711 909.551 203.718 907.627 205.732C905.748 207.745 904.808 210.676 904.808 214.524V234.86H898.701V198.08H904.808V203.315C906.016 201.436 907.65 199.982 909.708 198.953C911.811 197.924 914.115 197.409 916.621 197.409Z" fill="#7F7F7F"/>
<path d="M949.082 203.114V224.793C949.082 226.583 949.462 227.858 950.223 228.618C950.983 229.334 952.303 229.692 954.183 229.692H958.679V234.86H953.176C949.775 234.86 947.225 234.077 945.525 232.511C943.824 230.945 942.974 228.372 942.974 224.793V203.114H938.209V198.08H942.974V188.818H949.082V198.08H958.679V203.114H949.082Z" fill="#7F7F7F"/>
<path d="M999.638 215.061C999.638 216.224 999.571 217.455 999.437 218.752H970.04C970.263 222.377 971.494 225.218 973.731 227.276C976.013 229.29 978.765 230.296 981.986 230.296C984.626 230.296 986.819 229.692 988.564 228.484C990.354 227.231 991.606 225.576 992.322 223.518H998.9C997.915 227.052 995.947 229.938 992.993 232.176C990.04 234.368 986.371 235.464 981.986 235.464C978.496 235.464 975.364 234.681 972.59 233.115C969.861 231.549 967.713 229.334 966.147 226.471C964.581 223.562 963.798 220.206 963.798 216.403C963.798 212.6 964.558 209.266 966.08 206.403C967.601 203.539 969.726 201.347 972.456 199.825C975.23 198.259 978.407 197.476 981.986 197.476C985.476 197.476 988.564 198.237 991.248 199.758C993.933 201.279 995.991 203.382 997.423 206.067C998.9 208.707 999.638 211.705 999.638 215.061ZM993.329 213.786C993.329 211.459 992.815 209.468 991.785 207.812C990.756 206.112 989.347 204.837 987.557 203.987C985.812 203.092 983.866 202.644 981.718 202.644C978.63 202.644 975.991 203.629 973.798 205.597C971.65 207.566 970.42 210.296 970.107 213.786H993.329Z" fill="#7F7F7F"/>
<path d="M1022.87 197.476C1026.05 197.476 1028.82 198.17 1031.19 199.557C1033.61 200.944 1035.4 202.689 1036.56 204.792V198.08H1042.73V235.666C1042.73 239.022 1042.02 241.997 1040.59 244.592C1039.16 247.232 1037.1 249.29 1034.41 250.767C1031.77 252.244 1028.69 252.982 1025.15 252.982C1020.32 252.982 1016.29 251.841 1013.07 249.559C1009.85 247.277 1007.95 244.167 1007.36 240.23H1013.4C1014.08 242.467 1015.46 244.257 1017.57 245.599C1019.67 246.986 1022.2 247.68 1025.15 247.68C1028.51 247.68 1031.24 246.628 1033.34 244.525C1035.49 242.422 1036.56 239.469 1036.56 235.666V227.947C1035.35 230.095 1033.56 231.885 1031.19 233.317C1028.82 234.748 1026.05 235.464 1022.87 235.464C1019.6 235.464 1016.63 234.659 1013.94 233.048C1011.3 231.437 1009.22 229.178 1007.7 226.269C1006.18 223.361 1005.42 220.05 1005.42 216.336C1005.42 212.577 1006.18 209.289 1007.7 206.47C1009.22 203.606 1011.3 201.391 1013.94 199.825C1016.63 198.259 1019.6 197.476 1022.87 197.476ZM1036.56 216.403C1036.56 213.629 1036 211.213 1034.88 209.155C1033.76 207.096 1032.24 205.53 1030.32 204.456C1028.44 203.338 1026.36 202.778 1024.08 202.778C1021.79 202.778 1019.71 203.315 1017.83 204.389C1015.96 205.463 1014.46 207.029 1013.34 209.087C1012.22 211.146 1011.66 213.562 1011.66 216.336C1011.66 219.155 1012.22 221.616 1013.34 223.719C1014.46 225.777 1015.96 227.366 1017.83 228.484C1019.71 229.558 1021.79 230.095 1024.08 230.095C1026.36 230.095 1028.44 229.558 1030.32 228.484C1032.24 227.366 1033.76 225.777 1034.88 223.719C1036 221.616 1036.56 219.177 1036.56 216.403Z" fill="#7F7F7F"/>
<path d="M1059.16 204.054C1060.24 201.951 1061.76 200.317 1063.73 199.154C1065.74 197.991 1068.18 197.409 1071.04 197.409V203.718H1069.43C1062.59 203.718 1059.16 207.432 1059.16 214.859V234.86H1053.06V198.08H1059.16V204.054Z" fill="#7F7F7F"/>
<path d="M1075.81 216.336C1075.81 212.577 1076.57 209.289 1078.09 206.47C1079.62 203.606 1081.7 201.391 1084.34 199.825C1087.02 198.259 1090 197.476 1093.26 197.476C1096.48 197.476 1099.28 198.17 1101.65 199.557C1104.02 200.944 1105.79 202.689 1106.95 204.792V198.08H1113.13V234.86H1106.95V228.014C1105.75 230.162 1103.93 231.952 1101.52 233.384C1099.15 234.771 1096.37 235.464 1093.2 235.464C1089.93 235.464 1086.98 234.659 1084.34 233.048C1081.7 231.437 1079.62 229.178 1078.09 226.269C1076.57 223.361 1075.81 220.05 1075.81 216.336ZM1106.95 216.403C1106.95 213.629 1106.39 211.213 1105.28 209.155C1104.16 207.096 1102.64 205.53 1100.71 204.456C1098.83 203.338 1096.75 202.778 1094.47 202.778C1092.19 202.778 1090.11 203.315 1088.23 204.389C1086.35 205.463 1084.85 207.029 1083.73 209.087C1082.61 211.146 1082.05 213.562 1082.05 216.336C1082.05 219.155 1082.61 221.616 1083.73 223.719C1084.85 225.777 1086.35 227.366 1088.23 228.484C1090.11 229.558 1092.19 230.095 1094.47 230.095C1096.75 230.095 1098.83 229.558 1100.71 228.484C1102.64 227.366 1104.16 225.777 1105.28 223.719C1106.39 221.616 1106.95 219.177 1106.95 216.403Z" fill="#7F7F7F"/>
<path d="M1130.9 203.114V224.793C1130.9 226.583 1131.28 227.858 1132.04 228.618C1132.8 229.334 1134.12 229.692 1136 229.692H1140.5V234.86H1134.99C1131.59 234.86 1129.04 234.077 1127.34 232.511C1125.64 230.945 1124.79 228.372 1124.79 224.793V203.114H1120.03V198.08H1124.79V188.818H1130.9V198.08H1140.5V203.114H1130.9Z" fill="#7F7F7F"/>
<path d="M1151.05 192.107C1149.89 192.107 1148.9 191.704 1148.1 190.899C1147.29 190.093 1146.89 189.109 1146.89 187.946C1146.89 186.782 1147.29 185.798 1148.1 184.992C1148.9 184.187 1149.89 183.784 1151.05 183.784C1152.17 183.784 1153.11 184.187 1153.87 184.992C1154.68 185.798 1155.08 186.782 1155.08 187.946C1155.08 189.109 1154.68 190.093 1153.87 190.899C1153.11 191.704 1152.17 192.107 1151.05 192.107ZM1154.01 198.08V234.86H1147.9V198.08H1154.01Z" fill="#7F7F7F"/>
<path d="M1180.46 235.464C1177.01 235.464 1173.88 234.681 1171.06 233.115C1168.29 231.549 1166.09 229.334 1164.48 226.471C1162.92 223.562 1162.13 220.206 1162.13 216.403C1162.13 212.645 1162.94 209.334 1164.55 206.47C1166.21 203.561 1168.44 201.347 1171.26 199.825C1174.08 198.259 1177.23 197.476 1180.72 197.476C1184.21 197.476 1187.37 198.259 1190.19 199.825C1193.01 201.347 1195.22 203.539 1196.83 206.403C1198.49 209.266 1199.32 212.6 1199.32 216.403C1199.32 220.206 1198.47 223.562 1196.77 226.471C1195.11 229.334 1192.85 231.549 1189.99 233.115C1187.12 234.681 1183.95 235.464 1180.46 235.464ZM1180.46 230.095C1182.65 230.095 1184.71 229.58 1186.63 228.551C1188.55 227.522 1190.1 225.979 1191.26 223.92C1192.47 221.862 1193.07 219.356 1193.07 216.403C1193.07 213.45 1192.49 210.944 1191.33 208.886C1190.17 206.828 1188.64 205.307 1186.77 204.322C1184.89 203.293 1182.85 202.778 1180.66 202.778C1178.42 202.778 1176.36 203.293 1174.48 204.322C1172.65 205.307 1171.17 206.828 1170.05 208.886C1168.93 210.944 1168.38 213.45 1168.38 216.403C1168.38 219.401 1168.91 221.929 1169.99 223.987C1171.1 226.046 1172.58 227.589 1174.42 228.618C1176.25 229.603 1178.26 230.095 1180.46 230.095Z" fill="#7F7F7F"/>
<path d="M1225.27 197.409C1229.74 197.409 1233.37 198.774 1236.14 201.503C1238.91 204.188 1240.3 208.081 1240.3 213.182V234.86H1234.26V214.054C1234.26 210.385 1233.34 207.588 1231.51 205.664C1229.67 203.696 1227.17 202.711 1223.99 202.711C1220.77 202.711 1218.2 203.718 1216.27 205.732C1214.39 207.745 1213.45 210.676 1213.45 214.524V234.86H1207.35V198.08H1213.45V203.315C1214.66 201.436 1216.3 199.982 1218.35 198.953C1220.46 197.924 1222.76 197.409 1225.27 197.409Z" fill="#7F7F7F"/>
<path d="M46.0505 180.801L189.701 49.5347H207.038L382.886 193.185L348.212 237.766L46.0505 220.429V180.801Z" fill="white"/>
<path fill-rule="evenodd" clip-rule="evenodd" d="M131.709 61.3445C156.142 10.7274 207.635 -7.76367 250.564 2.91338C293.323 13.543 331.651 55.0807 330.656 110.238C333.417 110.922 336.196 111.517 338.965 112.111L338.965 112.111L338.966 112.111L338.966 112.111C344.895 113.381 350.781 114.641 356.364 116.754C387.682 128.602 406.94 161.029 403.754 194.562C400.225 231.719 374.518 259.289 340.028 264.129C336.174 264.667 332.242 264.952 328.356 264.952C246.399 264.999 164.427 265.015 82.4699 264.984C34.2874 264.968 -3.09283 225.17 0.202227 176.056C2.48701 141.952 19.8327 117.624 50.7006 103.721C50.7966 103.678 50.8918 103.635 50.9863 103.593L50.9885 103.592C53.0504 102.675 54.7401 101.924 55.3789 98.9752C62.7773 65.1882 98.168 45.8588 130.124 60.7751C130.413 60.9221 130.718 61.0206 131.14 61.1572C131.309 61.2118 131.496 61.2724 131.709 61.3445ZM159.484 213.67H66.2745V185.72H134.15C140.087 197.125 148.853 206.758 159.484 213.67ZM255.88 175.549C259.035 167.988 260.776 159.668 260.776 150.921C260.776 150.858 260.776 150.795 260.775 150.733C260.775 150.67 260.774 150.607 260.774 150.544V150.542C260.771 150.16 260.768 149.77 260.791 149.355C260.776 149.197 260.776 149.039 260.776 148.881V148.88L260.759 148.521L260.748 148.284C260.742 148.147 260.736 148.009 260.729 147.868C260.729 147.676 260.716 147.498 260.701 147.308L260.698 147.267C260.683 146.919 260.667 146.587 260.636 146.239C260.636 146.128 260.62 146.018 260.605 145.907L260.605 145.906C260.605 145.883 260.601 145.859 260.597 145.836L260.597 145.835C260.593 145.811 260.589 145.788 260.589 145.764L260.589 145.759C260.558 145.35 260.527 144.94 260.481 144.53C260.481 144.467 260.465 144.419 260.465 144.356L260.453 144.239C260.41 143.817 260.366 143.384 260.31 142.964V142.933C260.31 142.911 260.306 142.889 260.303 142.866L260.303 142.865C260.298 142.838 260.294 142.808 260.294 142.774C260.232 142.284 260.17 141.794 260.092 141.303C260.092 141.236 260.081 141.18 260.068 141.116L260.061 141.082C260.045 141.035 260.045 140.987 260.03 140.94C259.983 140.607 259.936 140.291 259.874 139.975C259.874 139.911 259.859 139.848 259.843 139.785C259.843 139.722 259.828 139.643 259.812 139.579C259.769 139.341 259.721 139.103 259.673 138.868L259.672 138.865C259.635 138.679 259.598 138.495 259.564 138.314C259.564 138.287 259.558 138.265 259.554 138.245C259.552 138.236 259.55 138.227 259.549 138.218C259.548 138.213 259.548 138.208 259.548 138.203C259.548 138.156 259.532 138.108 259.517 138.061C259.509 138.045 259.505 138.025 259.501 138.005C259.497 137.986 259.494 137.966 259.486 137.95C259.451 137.74 259.4 137.512 259.35 137.292L259.35 137.292L259.349 137.285C259.332 137.21 259.315 137.136 259.299 137.064C259.268 136.985 259.253 136.906 259.237 136.827C259.206 136.7 259.175 136.558 259.144 136.416C259.051 135.973 258.942 135.53 258.833 135.103C258.817 135.071 258.802 135.04 258.802 135.008L258.801 135.005C258.677 134.532 258.553 134.058 258.429 133.6C258.367 133.386 258.304 133.177 258.242 132.967C258.214 132.872 258.186 132.777 258.158 132.682C258.124 132.567 258.09 132.451 258.056 132.335C257.963 132.034 257.869 131.734 257.776 131.449C257.745 131.338 257.714 131.227 257.667 131.117C257.59 130.848 257.497 130.58 257.403 130.311L257.403 130.311L257.403 130.31L257.217 129.788C257.203 129.753 257.19 129.717 257.177 129.682C257.161 129.638 257.146 129.594 257.131 129.551C257.117 129.509 257.103 129.468 257.088 129.426C257.074 129.389 257.06 129.351 257.046 129.313C256.999 129.155 256.937 128.997 256.875 128.839C256.735 128.428 256.579 128.016 256.424 127.621C256.32 127.336 256.203 127.051 256.085 126.767L256.085 126.766C256.026 126.624 255.968 126.482 255.911 126.34C255.709 125.865 255.507 125.391 255.305 124.932C255.134 124.521 254.947 124.094 254.745 123.682L254.605 123.398C254.52 123.216 254.431 123.038 254.341 122.86C254.252 122.682 254.162 122.504 254.077 122.322C254.072 122.305 254.064 122.289 254.056 122.272C254.048 122.257 254.04 122.242 254.032 122.226L254.019 122.202C254.012 122.19 254.006 122.177 253.999 122.164L253.997 122.16C253.796 121.766 253.595 121.372 253.393 120.993C253.348 120.889 253.294 120.793 253.238 120.694L253.237 120.693L253.237 120.692C253.216 120.656 253.196 120.619 253.175 120.582C253.02 120.297 252.865 120.013 252.694 119.728C252.367 119.143 252.025 118.557 251.683 117.988L251.683 117.987L251.682 117.986C251.481 117.655 251.279 117.323 251.062 116.991C251.031 116.928 250.999 116.865 250.953 116.802C250.783 116.514 250.597 116.234 250.412 115.957L250.383 115.913C250.324 115.824 250.265 115.736 250.207 115.647C249.974 115.299 249.741 114.951 249.507 114.619C249.438 114.524 249.372 114.429 249.306 114.334L249.305 114.334C249.239 114.239 249.173 114.144 249.103 114.049L249.103 114.049C248.947 113.827 248.792 113.606 248.621 113.385C248.528 113.243 248.435 113.116 248.326 112.974C248.202 112.808 248.074 112.641 247.945 112.475C247.817 112.309 247.689 112.143 247.565 111.977C247.347 111.692 247.129 111.423 246.896 111.139L246.43 110.569C246.43 110.56 246.425 110.551 246.418 110.542C246.412 110.536 246.406 110.529 246.399 110.522L246.296 110.398L246.296 110.397C246.085 110.142 245.882 109.897 245.668 109.652C245.389 109.32 245.11 109.005 244.831 108.689L244.829 108.687L244.798 108.655C244.456 108.26 244.098 107.864 243.741 107.485L243.663 107.406L243.64 107.381L243.639 107.38L243.638 107.379C243.29 107.009 242.955 106.654 242.606 106.314C242.234 105.936 241.847 105.557 241.46 105.179L241.456 105.175C241.193 104.918 240.923 104.668 240.655 104.421L240.654 104.42C240.527 104.303 240.4 104.185 240.275 104.068C240.057 103.863 239.809 103.641 239.576 103.435C239.42 103.288 239.265 103.154 239.109 103.021C239.032 102.954 238.954 102.887 238.876 102.819C238.627 102.597 238.394 102.391 238.146 102.186C237.477 101.632 236.793 101.079 236.094 100.557C235.907 100.406 235.713 100.262 235.518 100.117C235.405 100.032 235.291 99.9475 235.177 99.8606L235.177 99.8603C234.881 99.639 234.586 99.4176 234.291 99.2121L233.405 98.5952C233.362 98.5669 233.319 98.5383 233.276 98.5094C233.22 98.4715 233.164 98.4332 233.107 98.3946C232.941 98.2812 232.772 98.1662 232.597 98.0574C232.589 98.0491 232.58 98.0419 232.57 98.0352C232.561 98.0291 232.552 98.0235 232.542 98.0178C232.533 98.0118 232.523 98.0058 232.513 97.9992C232.504 97.9929 232.496 97.9861 232.488 97.9783C232.317 97.8518 232.131 97.7252 231.944 97.6145C231.649 97.409 231.338 97.2194 231.028 97.0297L231.028 97.0296L231.027 97.0292C230.763 96.8552 230.499 96.697 230.219 96.5389C230.094 96.4598 229.986 96.3965 229.877 96.3332C229.551 96.1277 229.209 95.938 228.867 95.7483L228.867 95.748C228.831 95.7281 228.796 95.7082 228.76 95.6883C228.724 95.6677 228.686 95.6471 228.649 95.6265C228.58 95.5879 228.509 95.5494 228.439 95.5108C228.296 95.4317 228.152 95.3525 228.012 95.2734C227.976 95.2533 227.939 95.2332 227.901 95.2131C227.85 95.1857 227.799 95.1584 227.748 95.1311C227.658 95.0836 227.569 95.0362 227.483 94.9887L226.644 94.5616L226.643 94.5611C225.882 94.1816 225.12 93.8022 224.359 93.4544C224.32 93.4386 224.278 93.4188 224.235 93.399C224.205 93.385 224.174 93.3709 224.145 93.3583C224.133 93.3531 224.122 93.3482 224.111 93.3436L222.945 92.8217H222.929L221.67 92.2997L220.598 91.8726C220.567 91.8726 220.52 91.8568 220.489 91.841L219.743 91.5563V123.002C220.023 123.208 220.303 123.429 220.582 123.666C220.774 123.818 220.958 123.977 221.145 124.139L221.146 124.139C221.232 124.213 221.318 124.288 221.406 124.362C221.422 124.394 221.437 124.41 221.468 124.426L221.551 124.5C221.785 124.71 222.007 124.91 222.23 125.122L222.401 125.296C222.665 125.533 222.913 125.786 223.162 126.039L223.162 126.039L223.162 126.039L223.162 126.039C223.442 126.308 223.706 126.593 223.971 126.878L223.986 126.893C224.235 127.162 224.499 127.463 224.748 127.747C225.167 128.238 225.587 128.728 225.976 129.25C225.999 129.282 226.022 129.309 226.046 129.337C226.069 129.365 226.092 129.393 226.116 129.424L226.116 129.425C226.194 129.536 226.271 129.646 226.349 129.741V129.756C226.481 129.916 226.604 130.094 226.725 130.269C226.76 130.32 226.796 130.371 226.831 130.421C226.893 130.484 226.924 130.547 226.97 130.61C227.096 130.788 227.216 130.971 227.337 131.157L227.338 131.158C227.382 131.226 227.426 131.294 227.471 131.361C227.501 131.406 227.531 131.451 227.561 131.496C227.584 131.531 227.608 131.567 227.632 131.604C227.667 131.656 227.702 131.71 227.738 131.764C227.778 131.827 227.819 131.891 227.856 131.955C227.965 132.113 228.058 132.271 228.151 132.429L228.152 132.43L228.153 132.432C228.308 132.684 228.463 132.936 228.602 133.189C228.654 133.281 228.707 133.373 228.76 133.465L228.761 133.467L228.761 133.467C228.899 133.708 229.039 133.95 229.162 134.201C229.302 134.438 229.426 134.692 229.551 134.945C229.768 135.372 229.97 135.783 230.157 136.21C230.157 136.218 230.161 136.226 230.164 136.234C230.167 136.238 230.169 136.243 230.17 136.248C230.172 136.251 230.172 136.254 230.172 136.257C230.211 136.344 230.25 136.434 230.288 136.525L230.289 136.526L230.289 136.528C230.328 136.618 230.367 136.709 230.405 136.795C230.429 136.819 230.444 136.853 230.456 136.881L230.457 136.882C230.459 136.887 230.461 136.892 230.463 136.897C230.465 136.9 230.466 136.903 230.468 136.906C230.468 136.938 230.483 136.969 230.499 137.001C230.576 137.175 230.654 137.365 230.716 137.539C230.809 137.776 230.903 138.013 230.996 138.266C231.322 139.089 231.602 139.927 231.851 140.781C231.874 140.868 231.901 140.959 231.929 141.05C231.956 141.141 231.983 141.232 232.006 141.319C232.115 141.699 232.208 142.078 232.302 142.474L232.347 142.665C232.425 142.993 232.501 143.313 232.566 143.644C232.581 143.731 232.601 143.822 232.62 143.913L232.64 144.006C232.652 144.066 232.664 144.125 232.675 144.182C232.715 144.333 232.744 144.496 232.771 144.651L232.783 144.72V144.736L232.783 144.736C232.815 144.926 232.846 145.116 232.877 145.321C232.892 145.527 232.923 145.717 232.954 145.922C232.985 146.096 233.017 146.286 233.032 146.46L233.125 147.219C233.156 147.441 233.172 147.678 233.188 147.915C233.203 148.01 233.219 148.105 233.219 148.216L233.222 148.258C233.237 148.416 233.25 148.561 233.25 148.706C233.265 148.864 233.281 149.023 233.281 149.181C233.296 149.339 233.296 149.497 233.296 149.655C233.327 150.082 233.327 150.494 233.327 150.921C233.327 160.522 229.551 169.206 223.427 175.549H255.88ZM210.091 70.5026V120.408C210.091 126.751 205.039 131.892 198.807 131.892C192.574 131.892 187.523 126.751 187.523 120.408V70.5026C187.523 64.1596 192.574 59.0189 198.807 59.0189C201.915 59.0189 204.744 60.3001 206.78 62.3723C208.816 64.4602 210.091 67.339 210.091 70.5026ZM320.631 170.361L369.653 198.833L321.393 228.602L321.191 213.654H192.745C173.69 211.772 157.168 201.111 147.128 185.704C140.631 175.723 136.838 163.765 136.838 150.889V150.888C136.838 150.382 136.838 149.876 136.854 149.37C136.854 149.289 136.858 149.208 136.862 149.129C136.866 149.054 136.869 148.981 136.869 148.912C136.877 148.738 136.885 148.56 136.893 148.382C136.9 148.204 136.908 148.026 136.916 147.852C136.932 147.757 136.932 147.678 136.932 147.583C136.932 147.488 136.932 147.393 136.947 147.298V147.172C136.963 146.84 136.978 146.523 137.009 146.207V146.191C137.017 146.145 137.021 146.096 137.024 146.048C137.028 145.997 137.032 145.947 137.04 145.906C137.056 145.843 137.056 145.796 137.056 145.732L137.062 145.649C137.091 145.279 137.121 144.898 137.165 144.53C137.165 144.499 137.169 144.471 137.172 144.443C137.176 144.416 137.18 144.388 137.18 144.356C137.227 143.897 137.273 143.423 137.336 142.964V142.933C137.336 142.911 137.339 142.889 137.343 142.865C137.347 142.838 137.351 142.808 137.351 142.774L137.352 142.772C137.414 142.282 137.476 141.793 137.553 141.303C137.553 141.236 137.565 141.18 137.578 141.116C137.58 141.105 137.582 141.094 137.584 141.082C137.592 141.058 137.596 141.034 137.6 141.011C137.604 140.987 137.608 140.963 137.615 140.94C137.662 140.607 137.709 140.291 137.771 139.975C137.771 139.911 137.786 139.848 137.802 139.785C137.802 139.722 137.818 139.643 137.833 139.579L137.833 139.578C137.911 139.152 137.989 138.725 138.082 138.314C138.082 138.288 138.086 138.266 138.091 138.247C138.094 138.232 138.097 138.217 138.097 138.203C138.097 138.156 138.113 138.108 138.128 138.061C138.136 138.045 138.14 138.025 138.144 138.005C138.148 137.986 138.152 137.966 138.159 137.95C138.189 137.768 138.232 137.58 138.275 137.389C138.299 137.281 138.324 137.173 138.346 137.064C138.377 136.985 138.393 136.906 138.408 136.827C138.439 136.701 138.47 136.559 138.501 136.416L138.501 136.416C138.595 135.973 138.703 135.53 138.812 135.103C138.828 135.071 138.843 135.04 138.843 135.008L138.844 135.007C138.968 134.532 139.092 134.058 139.216 133.6C139.239 133.52 139.261 133.439 139.284 133.358C139.386 132.991 139.49 132.618 139.605 132.256C139.644 132.121 139.687 131.987 139.729 131.852C139.772 131.718 139.815 131.583 139.854 131.449C139.892 131.338 139.927 131.227 139.962 131.117C139.997 131.006 140.032 130.895 140.071 130.785C140.093 130.718 140.115 130.651 140.136 130.584C140.224 130.314 140.314 130.038 140.413 129.772C140.444 129.693 140.471 129.614 140.499 129.535C140.526 129.456 140.553 129.377 140.584 129.298C140.631 129.139 140.693 128.981 140.755 128.823C140.926 128.333 141.112 127.859 141.299 127.385L141.299 127.384C141.307 127.376 141.311 127.364 141.315 127.352C141.318 127.34 141.322 127.328 141.33 127.32C141.517 126.846 141.703 126.371 141.905 125.913C142.045 125.58 142.185 125.248 142.34 124.916C142.385 124.818 142.43 124.719 142.474 124.619C142.617 124.302 142.762 123.979 142.916 123.666L142.962 123.572L143.009 123.477C143.18 123.081 143.366 122.686 143.568 122.306C143.584 122.282 143.596 122.259 143.607 122.235C143.619 122.211 143.63 122.187 143.646 122.164C143.738 121.988 143.828 121.813 143.918 121.638C144.054 121.372 144.189 121.109 144.33 120.851C144.345 120.788 144.377 120.74 144.408 120.693L144.967 119.696C145.294 119.111 145.635 118.526 145.977 117.956C146.179 117.624 146.382 117.292 146.599 116.96C146.622 116.92 146.65 116.877 146.677 116.833C146.704 116.79 146.731 116.746 146.755 116.707C146.916 116.44 147.098 116.164 147.276 115.894C147.32 115.827 147.364 115.76 147.407 115.694C147.454 115.631 147.485 115.584 147.516 115.536C147.568 115.458 147.619 115.381 147.67 115.305C147.879 114.991 148.084 114.683 148.309 114.366C148.472 114.121 148.644 113.885 148.817 113.645C148.891 113.544 148.965 113.441 149.039 113.337C149.133 113.195 149.226 113.069 149.335 112.942C149.459 112.776 149.587 112.61 149.716 112.444C149.844 112.278 149.972 112.111 150.096 111.945C150.118 111.917 150.14 111.889 150.161 111.86C150.355 111.607 150.539 111.365 150.749 111.123L150.765 111.107C150.92 110.901 151.091 110.696 151.262 110.49C151.293 110.474 151.309 110.459 151.324 110.427C151.479 110.253 151.619 110.08 151.758 109.906L151.759 109.905C151.759 109.889 151.775 109.873 151.79 109.857L151.791 109.857C151.946 109.683 152.101 109.509 152.241 109.336C152.292 109.263 152.349 109.197 152.405 109.134C152.434 109.101 152.463 109.068 152.49 109.035C152.521 108.988 152.552 108.956 152.583 108.924C152.684 108.813 152.781 108.703 152.878 108.592C152.976 108.481 153.073 108.371 153.174 108.26C153.531 107.864 153.904 107.453 154.293 107.058L154.293 107.058C154.386 106.947 154.479 106.836 154.588 106.741C154.976 106.33 155.38 105.935 155.784 105.54L155.785 105.539C156.08 105.239 156.376 104.954 156.686 104.669C156.826 104.543 156.962 104.416 157.098 104.29C157.234 104.163 157.37 104.037 157.51 103.91L157.557 103.863L157.557 103.862C157.946 103.514 158.334 103.166 158.738 102.819C158.754 102.811 158.765 102.799 158.777 102.787C158.789 102.775 158.8 102.763 158.816 102.755C159.08 102.518 159.344 102.297 159.608 102.075L159.608 102.075C159.888 101.838 160.183 101.601 160.479 101.363L160.572 101.288C160.854 101.057 161.15 100.816 161.458 100.588C161.753 100.351 162.064 100.114 162.375 99.8922C162.392 99.8809 162.408 99.8675 162.426 99.8535C162.457 99.8286 162.491 99.8018 162.53 99.7815C162.562 99.7657 162.577 99.7499 162.593 99.7341C162.746 99.6339 162.891 99.526 163.04 99.4157C163.102 99.3692 163.165 99.3222 163.23 99.2753C163.261 99.2753 163.276 99.2595 163.292 99.2437C163.362 99.1951 163.433 99.1455 163.504 99.0955C163.734 98.9342 163.972 98.768 164.209 98.611C164.322 98.5303 164.436 98.458 164.555 98.3818C164.599 98.3535 164.645 98.3246 164.691 98.2946C164.818 98.2003 164.946 98.1148 165.08 98.025C165.125 97.9943 165.172 97.9631 165.219 97.9308C165.309 97.8854 165.39 97.8319 165.474 97.776C165.508 97.7541 165.542 97.7317 165.577 97.7094L166.463 97.14C166.758 96.9501 167.053 96.7603 167.364 96.5863C167.83 96.2858 168.312 96.017 168.794 95.7481L168.794 95.748C169.121 95.5582 169.462 95.3683 169.789 95.1943C169.804 95.1943 169.804 95.1785 169.82 95.1785C169.859 95.1627 169.894 95.1429 169.929 95.1232C169.964 95.1034 169.999 95.0836 170.038 95.0678L170.042 95.0656C170.336 94.9082 170.63 94.7507 170.939 94.5933C170.939 94.5933 170.955 94.5774 170.97 94.5774C171.017 94.5616 171.063 94.53 171.126 94.4984C171.172 94.4825 171.203 94.4667 171.25 94.4351C171.368 94.378 171.487 94.3184 171.606 94.2583C171.784 94.1684 171.965 94.0775 172.151 93.9922C172.346 93.9052 172.536 93.8142 172.726 93.7233C172.917 93.6323 173.107 93.5414 173.302 93.4544C173.473 93.3595 173.659 93.2804 173.846 93.2013C173.889 93.1746 173.943 93.1529 173.998 93.1306C174.041 93.1133 174.084 93.0955 174.125 93.0748L174.126 93.0745C174.67 92.8373 175.213 92.6001 175.773 92.3788C175.882 92.3392 175.99 92.2957 176.099 92.2522C176.208 92.2087 176.317 92.1652 176.426 92.1257C176.472 92.094 176.503 92.0782 176.55 92.0624C176.62 92.0387 176.69 92.011 176.76 91.9833C176.83 91.9556 176.9 91.928 176.97 91.9042C177.28 91.7777 177.576 91.667 177.887 91.5563V123.002C177.607 123.208 177.327 123.429 177.047 123.666C176.856 123.818 176.671 123.977 176.484 124.139C176.398 124.213 176.312 124.288 176.224 124.362C176.208 124.394 176.192 124.41 176.161 124.426L176.078 124.5C175.845 124.71 175.622 124.91 175.4 125.122L175.229 125.296C174.965 125.533 174.716 125.786 174.467 126.039C174.188 126.308 173.924 126.592 173.659 126.877L173.659 126.877L173.643 126.893C173.395 127.162 173.131 127.463 172.882 127.747C172.462 128.238 172.043 128.744 171.654 129.25C171.631 129.282 171.607 129.309 171.584 129.337C171.561 129.365 171.537 129.393 171.514 129.424L171.514 129.424C171.436 129.535 171.359 129.646 171.281 129.741V129.756C171.11 129.978 170.955 130.199 170.799 130.421C170.758 130.463 170.73 130.505 170.702 130.547C170.689 130.568 170.675 130.589 170.659 130.61C170.533 130.788 170.413 130.972 170.291 131.159C170.218 131.271 170.144 131.384 170.069 131.496C170.046 131.531 170.022 131.567 169.998 131.604C169.923 131.716 169.844 131.836 169.773 131.955C169.665 132.113 169.571 132.271 169.478 132.43L169.477 132.431C169.322 132.684 169.167 132.936 169.027 133.189C168.975 133.281 168.922 133.374 168.869 133.467C168.73 133.708 168.591 133.95 168.468 134.201C168.328 134.438 168.204 134.691 168.079 134.944L168.079 134.945C167.862 135.372 167.66 135.783 167.473 136.21C167.473 136.216 167.47 136.223 167.467 136.229C167.463 136.239 167.457 136.248 167.457 136.257C167.419 136.344 167.38 136.435 167.341 136.526C167.302 136.617 167.263 136.708 167.224 136.795C167.201 136.819 167.186 136.853 167.173 136.881C167.169 136.89 167.166 136.899 167.162 136.906C167.162 136.938 167.147 136.969 167.131 137.001C167.053 137.175 166.976 137.365 166.913 137.539C166.82 137.776 166.727 138.013 166.634 138.266C166.307 139.089 166.028 139.927 165.779 140.781C165.732 140.955 165.67 141.145 165.623 141.319C165.533 141.636 165.453 141.963 165.375 142.283C165.359 142.347 165.344 142.411 165.328 142.474C165.313 142.538 165.298 142.602 165.283 142.666C165.205 142.994 165.129 143.313 165.064 143.644C165.023 143.795 164.995 143.958 164.968 144.112C164.963 144.136 164.959 144.159 164.955 144.182C164.915 144.333 164.886 144.496 164.859 144.651C164.854 144.674 164.85 144.697 164.846 144.72V144.736C164.815 144.926 164.784 145.115 164.753 145.321C164.739 145.502 164.714 145.671 164.686 145.849C164.683 145.873 164.679 145.898 164.675 145.922C164.644 146.096 164.613 146.286 164.598 146.46L164.504 147.219C164.473 147.44 164.458 147.678 164.442 147.915L164.442 147.915L164.442 147.915C164.427 148.01 164.411 148.105 164.411 148.216L164.407 148.258C164.393 148.416 164.38 148.561 164.38 148.706C164.364 148.864 164.349 149.023 164.349 149.181C164.333 149.339 164.333 149.497 164.333 149.655C164.302 150.082 164.302 150.493 164.302 150.92V150.921C164.302 168.763 177.358 183.49 194.284 185.736C195.761 185.941 197.268 186.036 198.807 186.036H320.833L320.631 170.361Z" fill="#264FDA"/>
</svg>
