<svg width="60" height="60" viewBox="0 0 60 60" fill="none" xmlns="http://www.w3.org/2000/svg">
<g clip-path="url(#clip0_54886_2554)">
<path d="M4.6875 43.125H6.5625V45H4.6875V43.125Z" fill="#02B5FF"/>
<path d="M8.4375 43.125H10.3125V45H8.4375V43.125Z" fill="#02B5FF"/>
<path d="M28.125 23.4375V20.625H26.25V23.4375H12.1875C11.9389 23.4375 11.7004 23.5363 11.5246 23.7121C11.3488 23.8879 11.25 24.1264 11.25 24.375V28.125H13.125V25.3125H26.25V28.125H28.125V25.3125H41.25V28.125H43.125V24.375C43.125 24.1264 43.0262 23.8879 42.8504 23.7121C42.6746 23.5363 42.4361 23.4375 42.1875 23.4375H28.125Z" fill="#02B5FF"/>
<path d="M31.875 14.0625C31.875 13.1354 31.6001 12.2291 31.085 11.4583C30.5699 10.6874 29.8379 10.0866 28.9813 9.73182C28.1248 9.37703 27.1823 9.2842 26.273 9.46507C25.3637 9.64594 24.5285 10.0924 23.8729 10.7479C23.2174 11.4035 22.7709 12.2387 22.5901 13.148C22.4092 14.0573 22.502 14.9998 22.8568 15.8563C23.2116 16.7129 23.8124 17.4449 24.5833 17.96C25.3541 18.4751 26.2604 18.75 27.1875 18.75C28.4302 18.7485 29.6217 18.2542 30.5004 17.3754C31.3792 16.4967 31.8735 15.3052 31.875 14.0625ZM24.375 14.0625C24.375 13.5062 24.54 12.9625 24.849 12.5C25.158 12.0374 25.5973 11.677 26.1112 11.4641C26.6251 11.2512 27.1906 11.1955 27.7362 11.304C28.2818 11.4126 28.7829 11.6804 29.1762 12.0738C29.5696 12.4671 29.8374 12.9682 29.946 13.5138C30.0545 14.0594 29.9988 14.6249 29.7859 15.1388C29.573 15.6527 29.2126 16.092 28.75 16.401C28.2875 16.7101 27.7438 16.875 27.1875 16.875C26.4416 16.875 25.7262 16.5787 25.1988 16.0512C24.6713 15.5238 24.375 14.8084 24.375 14.0625Z" fill="#02B5FF"/>
<path d="M8.4375 33.75C8.4375 34.4917 8.65743 35.2167 9.06949 35.8334C9.48154 36.4501 10.0672 36.9307 10.7524 37.2145C11.4377 37.4984 12.1917 37.5726 12.9191 37.4279C13.6465 37.2833 14.3147 36.9261 14.8392 36.4016C15.3636 35.8772 15.7208 35.209 15.8654 34.4816C16.0101 33.7542 15.9359 33.0002 15.652 32.3149C15.3682 31.6297 14.8876 31.044 14.2709 30.632C13.6542 30.2199 12.9292 30 12.1875 30C11.1929 30 10.2391 30.3951 9.53585 31.0984C8.83259 31.8016 8.4375 32.7554 8.4375 33.75ZM14.0625 33.75C14.0625 34.1208 13.9525 34.4834 13.7465 34.7917C13.5405 35.1 13.2476 35.3404 12.905 35.4823C12.5624 35.6242 12.1854 35.6613 11.8217 35.589C11.458 35.5166 11.1239 35.338 10.8617 35.0758C10.5995 34.8136 10.4209 34.4795 10.3485 34.1158C10.2762 33.7521 10.3133 33.3751 10.4552 33.0325C10.5971 32.6899 10.8375 32.397 11.1458 32.191C11.4541 31.985 11.8167 31.875 12.1875 31.875C12.6848 31.875 13.1617 32.0725 13.5133 32.4242C13.865 32.7758 14.0625 33.2527 14.0625 33.75Z" fill="#02B5FF"/>
<path d="M23.4375 33.75C23.4375 34.4917 23.6574 35.2167 24.0695 35.8334C24.4815 36.4501 25.0672 36.9307 25.7524 37.2145C26.4377 37.4984 27.1917 37.5726 27.9191 37.4279C28.6465 37.2833 29.3147 36.9261 29.8391 36.4016C30.3636 35.8772 30.7208 35.209 30.8654 34.4816C31.0101 33.7542 30.9359 33.0002 30.652 32.3149C30.3682 31.6297 29.8876 31.044 29.2709 30.632C28.6542 30.2199 27.9292 30 27.1875 30C26.1929 30 25.2391 30.3951 24.5359 31.0984C23.8326 31.8016 23.4375 32.7554 23.4375 33.75ZM29.0625 33.75C29.0625 34.1208 28.9525 34.4834 28.7465 34.7917C28.5405 35.1 28.2476 35.3404 27.905 35.4823C27.5624 35.6242 27.1854 35.6613 26.8217 35.589C26.458 35.5166 26.1239 35.338 25.8617 35.0758C25.5995 34.8136 25.4209 34.4795 25.3485 34.1158C25.2762 33.7521 25.3133 33.3751 25.4552 33.0325C25.5971 32.6899 25.8375 32.397 26.1458 32.191C26.4541 31.985 26.8167 31.875 27.1875 31.875C27.6848 31.875 28.1617 32.0725 28.5133 32.4242C28.865 32.7758 29.0625 33.2527 29.0625 33.75Z" fill="#02B5FF"/>
<path d="M38.4375 33.75C38.4375 34.4917 38.6574 35.2167 39.0695 35.8334C39.4815 36.4501 40.0672 36.9307 40.7524 37.2145C41.4377 37.4984 42.1917 37.5726 42.9191 37.4279C43.6465 37.2833 44.3147 36.9261 44.8391 36.4016C45.3636 35.8772 45.7208 35.209 45.8654 34.4816C46.0101 33.7542 45.9359 33.0002 45.652 32.3149C45.3682 31.6297 44.8876 31.044 44.2709 30.632C43.6542 30.2199 42.9292 30 42.1875 30C41.1929 30 40.2391 30.3951 39.5359 31.0984C38.8326 31.8016 38.4375 32.7554 38.4375 33.75ZM44.0625 33.75C44.0625 34.1208 43.9525 34.4834 43.7465 34.7917C43.5405 35.1 43.2476 35.3404 42.905 35.4823C42.5624 35.6242 42.1854 35.6613 41.8217 35.589C41.458 35.5166 41.1239 35.338 40.8617 35.0758C40.5994 34.8136 40.4209 34.4795 40.3485 34.1158C40.2762 33.7521 40.3133 33.3751 40.4552 33.0325C40.5971 32.6899 40.8375 32.397 41.1458 32.191C41.4541 31.985 41.8167 31.875 42.1875 31.875C42.6848 31.875 43.1617 32.0725 43.5133 32.4242C43.865 32.7758 44.0625 33.2527 44.0625 33.75Z" fill="#02B5FF"/>
<path d="M45 43.125H49.6875V45H45V43.125Z" fill="#02B5FF"/>
<path d="M51.5625 40.3125H2.8125V7.5C2.8125 7.25136 2.91127 7.0129 3.08709 6.83709C3.2629 6.66127 3.50136 6.5625 3.75 6.5625H42.1875V4.6875H3.75C3.00408 4.6875 2.28871 4.98382 1.76126 5.51126C1.23382 6.03871 0.9375 6.75408 0.9375 7.5V45C0.9375 45.7459 1.23382 46.4613 1.76126 46.9887C2.28871 47.5162 3.00408 47.8125 3.75 47.8125H23.4375V51.5625C23.4375 51.8111 23.3387 52.0496 23.1629 52.2254C22.9871 52.4012 22.7486 52.5 22.5 52.5H13.125C12.3791 52.5 11.6637 52.7963 11.1363 53.3238C10.6088 53.8512 10.3125 54.5666 10.3125 55.3125V56.25C10.3125 56.9959 10.6088 57.7113 11.1363 58.2387C11.6637 58.7662 12.3791 59.0625 13.125 59.0625H41.25C41.9959 59.0625 42.7113 58.7662 43.2387 58.2387C43.7662 57.7113 44.0625 56.9959 44.0625 56.25V55.3125C44.0625 54.5666 43.7662 53.8512 43.2387 53.3238C42.7113 52.7963 41.9959 52.5 41.25 52.5H31.875C31.6264 52.5 31.3879 52.4012 31.2121 52.2254C31.0363 52.0496 30.9375 51.8111 30.9375 51.5625V47.8125H50.625C51.3709 47.8125 52.0863 47.5162 52.6137 46.9887C53.1412 46.4613 53.4375 45.7459 53.4375 45V17.8125H51.5625V40.3125ZM31.875 54.375H41.25C41.4986 54.375 41.7371 54.4738 41.9129 54.6496C42.0887 54.8254 42.1875 55.0639 42.1875 55.3125V56.25C42.1875 56.4986 42.0887 56.7371 41.9129 56.9129C41.7371 57.0887 41.4986 57.1875 41.25 57.1875H13.125C12.8764 57.1875 12.6379 57.0887 12.4621 56.9129C12.2863 56.7371 12.1875 56.4986 12.1875 56.25V55.3125C12.1875 55.0639 12.2863 54.8254 12.4621 54.6496C12.6379 54.4738 12.8764 54.375 13.125 54.375H22.5C23.2459 54.375 23.9613 54.0787 24.4887 53.5512C25.0162 53.0238 25.3125 52.3084 25.3125 51.5625V47.8125H29.0625V51.5625C29.0625 52.3084 29.3588 53.0238 29.8863 53.5512C30.4137 54.0787 31.1291 54.375 31.875 54.375ZM51.5625 45C51.5625 45.2486 51.4637 45.4871 51.2879 45.6629C51.1121 45.8387 50.8736 45.9375 50.625 45.9375H3.75C3.50136 45.9375 3.2629 45.8387 3.08709 45.6629C2.91127 45.4871 2.8125 45.2486 2.8125 45V42.1875H51.5625V45Z" fill="#02B5FF"/>
<path d="M58.2496 9.16219L58.0471 9.05063C58.0896 8.64298 58.0896 8.23202 58.0471 7.82438L58.2496 7.71282C58.4349 7.61061 58.5978 7.47221 58.7285 7.30585C58.8593 7.13949 58.9553 6.94856 59.0109 6.74438C59.0653 6.54371 59.0783 6.33404 59.0489 6.1282C59.0196 5.92235 58.9486 5.72466 58.8402 5.54719L57.7827 3.79594C57.5629 3.44481 57.2172 3.19099 56.8163 3.08642C56.4155 2.98185 55.9898 3.03445 55.6265 3.23344L55.3837 3.36844C55.0186 3.11189 54.6281 2.89355 54.2184 2.71688V2.505C54.2139 2.08528 54.0431 1.68449 53.7434 1.3906C53.4437 1.09671 53.0396 0.933753 52.6199 0.937502H50.5068C50.0879 0.935 49.685 1.09851 49.3864 1.39226C49.0877 1.68602 48.9175 2.0861 48.9131 2.505V2.71313C48.5037 2.89021 48.1133 3.1082 47.7477 3.36375L47.504 3.22969C47.1406 3.0307 46.715 2.9781 46.3141 3.08267C45.9133 3.18724 45.5676 3.44106 45.3477 3.79219L44.2874 5.54625C44.1787 5.72375 44.1075 5.92158 44.078 6.12761C44.0485 6.33363 44.0614 6.54351 44.1159 6.74438C44.1714 6.94856 44.2674 7.13949 44.3982 7.30585C44.529 7.47221 44.6918 7.61061 44.8771 7.71282L45.0796 7.82438C45.0371 8.23202 45.0371 8.64298 45.0796 9.05063L44.8771 9.16219C44.6918 9.2644 44.529 9.40279 44.3982 9.56915C44.2674 9.73551 44.1714 9.92645 44.1159 10.1306C44.0614 10.3313 44.0485 10.541 44.0778 10.7468C44.1071 10.9527 44.1781 11.1503 44.2865 11.3278L45.344 13.0791C45.5637 13.4304 45.9094 13.6843 46.3103 13.7889C46.7112 13.8935 47.1369 13.8408 47.5002 13.6416L47.7431 13.5066C48.1079 13.7647 48.4984 13.9847 48.9084 14.1628V14.3709C48.9131 14.7905 49.084 15.1911 49.3837 15.4847C49.6833 15.7784 50.0872 15.9413 50.5068 15.9375H52.6199C53.0388 15.94 53.4417 15.7765 53.7404 15.4827C54.039 15.189 54.2092 14.7889 54.2137 14.37V14.1619C54.623 13.9848 55.0134 13.7668 55.379 13.5113L55.6227 13.6453C55.986 13.8445 56.4118 13.8973 56.8127 13.7927C57.2136 13.6881 57.5593 13.4341 57.779 13.0828L58.8356 11.3325C58.9442 11.155 59.0155 10.9572 59.045 10.7512C59.0745 10.5451 59.0616 10.3352 59.0071 10.1344C58.9524 9.92984 58.8572 9.73837 58.7271 9.57136C58.597 9.40435 58.4346 9.26521 58.2496 9.16219ZM56.204 8.4375C56.2038 8.63388 56.1897 8.82999 56.1618 9.02438C56.1211 9.33588 56.1756 9.65242 56.3181 9.93236C56.4607 10.2123 56.6847 10.4426 56.9606 10.5928L57.0609 10.6472L56.3109 11.8838L56.143 11.79C55.8682 11.6417 55.5569 11.5747 55.2454 11.597C54.9339 11.6192 54.6352 11.7298 54.3843 11.9156C54.0661 12.1486 53.7196 12.3402 53.3531 12.4856C53.0563 12.5987 52.8005 12.7986 52.6189 13.0591C52.4373 13.3196 52.3384 13.6287 52.3349 13.9463V14.0625H50.7843V13.9472C50.781 13.6297 50.6821 13.3206 50.5005 13.0602C50.3189 12.7998 50.063 12.6002 49.7662 12.4875C49.3998 12.3408 49.0534 12.1487 48.7349 11.9156C48.4839 11.7303 48.1854 11.6202 47.8741 11.5981C47.5629 11.576 47.2518 11.6429 46.9771 11.7909L46.8102 11.8847L46.0602 10.6481L46.1596 10.5938C46.4378 10.4453 46.6642 10.2158 46.8089 9.93567C46.9535 9.65555 47.0096 9.33805 46.9696 9.02531C46.9134 8.63577 46.9134 8.24017 46.9696 7.85063C47.0101 7.53847 46.955 7.22138 46.8116 6.94119C46.6681 6.661 46.4431 6.4309 46.1662 6.28125L46.0659 6.22688L46.8159 4.99031L46.9837 5.08406C47.2584 5.2326 47.5698 5.29968 47.8813 5.27743C48.1929 5.25518 48.4916 5.14452 48.7424 4.95844C49.0606 4.72545 49.4071 4.53391 49.7737 4.38844C50.0704 4.27533 50.3262 4.07551 50.5078 3.815C50.6894 3.55449 50.7883 3.24535 50.7918 2.92781V2.8125H52.3499V2.92781C52.3526 3.2444 52.4504 3.55288 52.6306 3.81318C52.8108 4.07348 53.0652 4.27358 53.3606 4.3875C53.7269 4.53417 54.0734 4.7263 54.3918 4.95938C54.6428 5.1447 54.9414 5.25482 55.2526 5.2769C55.5638 5.29898 55.8749 5.2321 56.1496 5.08406L56.3165 4.99031L57.0665 6.22688L56.9671 6.28125C56.691 6.43112 56.4669 6.66112 56.3241 6.94094C56.1813 7.22076 56.1267 7.53727 56.1674 7.84875C56.1934 8.0439 56.2056 8.24064 56.204 8.4375Z" fill="#02B5FF"/>
<path d="M51.5625 4.92188C50.8672 4.92188 50.1875 5.12806 49.6093 5.51436C49.0312 5.90067 48.5806 6.44973 48.3145 7.09213C48.0484 7.73452 47.9788 8.4414 48.1144 9.12336C48.2501 9.80533 48.5849 10.4318 49.0766 10.9234C49.5682 11.4151 50.1947 11.7499 50.8766 11.8856C51.5586 12.0212 52.2655 11.9516 52.9079 11.6855C53.5503 11.4194 54.0993 10.9688 54.4856 10.3907C54.8719 9.81253 55.0781 9.13282 55.0781 8.4375C55.0771 7.5054 54.7064 6.61177 54.0473 5.95267C53.3882 5.29358 52.4946 4.92287 51.5625 4.92188ZM51.5625 10.0781C51.238 10.0781 50.9208 9.9819 50.651 9.80163C50.3812 9.62136 50.1709 9.36512 50.0468 9.06534C49.9226 8.76555 49.8901 8.43568 49.9534 8.11743C50.0167 7.79918 50.173 7.50685 50.4024 7.2774C50.6318 7.04796 50.9242 6.8917 51.2424 6.8284C51.5607 6.7651 51.8906 6.79759 52.1903 6.92176C52.4901 7.04593 52.7464 7.25622 52.9266 7.52602C53.1069 7.79582 53.2031 8.11301 53.2031 8.4375C53.2026 8.87247 53.0296 9.28948 52.722 9.59705C52.4145 9.90462 51.9975 10.0776 51.5625 10.0781Z" fill="#02B5FF"/>
</g>
<defs>
<clipPath id="clip0_54886_2554">
<rect width="60" height="60" fill="white"/>
</clipPath>
</defs>
</svg>
