<svg width="60" height="60" viewBox="0 0 60 60" fill="none" xmlns="http://www.w3.org/2000/svg">
<g clip-path="url(#clip0_54886_2545)">
<path d="M32.0026 47.0895C32.4887 47.0895 32.8825 46.6956 32.8825 46.2097C32.8825 45.7236 32.4886 45.3297 32.0026 45.3297H27.997C27.5111 45.3297 27.1172 45.7236 27.1172 46.2097C27.1172 46.6957 27.5111 47.0895 27.997 47.0895H32.0026Z" fill="#02B5FF"/>
<path d="M56.1492 8.37442H48.7711L50.0032 7.1425C50.5802 6.56535 50.5802 5.62664 50.0032 5.04948L47.9914 3.03771C47.4142 2.46068 46.4757 2.46068 45.8984 3.03771L44.6511 4.28511C43.865 3.83773 43.0286 3.49083 42.1594 3.25167V1.48914C42.1594 0.67318 41.4955 0.00915527 40.6794 0.00915527H37.8343C37.0183 0.00915527 36.3544 0.673063 36.3544 1.48914V3.25155C35.4852 3.49071 34.6489 3.83762 33.8626 4.28511L32.6153 3.03771C32.038 2.46068 31.0996 2.46068 30.5223 3.03771L28.5106 5.04948C27.9336 5.62664 27.9336 6.56535 28.5106 7.1425L29.7428 8.37442H3.85097C1.72747 8.37442 0 10.102 0 12.2255V47.0146C0 49.1381 1.72747 50.8656 3.85097 50.8656H12.011C12.4969 50.8656 12.8908 50.4717 12.8908 49.9856C12.8908 49.4995 12.4969 49.1057 12.011 49.1057H3.85097C2.69795 49.1057 1.75983 48.1676 1.75983 47.0146V43.3137H4.54841H58.2402V47.0146C58.2402 48.1676 57.3022 49.1057 56.1492 49.1057H16.1944C15.7085 49.1057 15.3145 49.4996 15.3145 49.9856C15.3145 50.4717 15.7085 50.8656 16.1944 50.8656H23.4171C23.3517 52.8742 23.1514 56.3485 22.7003 58.231H19.6509C19.1649 58.231 18.771 58.625 18.771 59.111C18.771 59.5971 19.1649 59.9909 19.6509 59.9909H40.3493C40.8353 59.9909 41.2291 59.597 41.2291 59.111C41.2291 58.625 40.8352 58.231 40.3493 58.231H37.2999C36.8491 56.349 36.6487 52.8744 36.5832 50.8656H56.1493C58.2726 50.8656 60.0001 49.1381 60.0001 47.0146V12.2255C60 10.102 58.2725 8.37442 56.1492 8.37442ZM24.5007 58.231C24.9661 55.9523 25.1261 52.4758 25.1773 50.8656H34.8227C34.8739 52.4758 35.0339 55.9523 35.4993 58.231H24.5007ZM31.1555 7.29842L29.953 6.09605L31.569 4.48019L32.7715 5.68268C33.2507 6.1617 33.9934 6.25315 34.5778 5.90507C35.3328 5.45547 36.1453 5.11842 36.9929 4.90306C37.6532 4.73494 38.1144 4.14466 38.1144 3.46738V1.7691H40.3997V3.46738C40.3997 4.14466 40.8608 4.73506 41.5213 4.90306C42.3689 5.11854 43.1814 5.45582 43.9359 5.90484C44.5205 6.25326 45.2633 6.16194 45.7427 5.68256L46.9451 4.48019L48.5609 6.09605L47.3583 7.29866C46.8795 7.77768 46.7881 8.52049 47.136 9.10515C47.5854 9.85956 47.9225 10.6721 48.1379 11.5197C48.3058 12.1803 48.8962 12.6416 49.5736 12.6416H51.272V14.9269H49.5736C48.8961 14.9269 48.3057 15.3882 48.1381 16.0483C47.9225 16.8961 47.5854 17.7085 47.1358 18.4633C46.788 19.0478 46.8795 19.7907 47.3584 20.2698L48.5609 21.4721L46.9451 23.088L45.7427 21.8855C45.2633 21.4064 44.5204 21.315 43.9362 21.663C43.1816 22.1125 42.369 22.4497 41.5213 22.6651C40.8609 22.833 40.3997 23.4233 40.3997 24.1007V25.799H38.1144V24.1007C38.1144 23.4232 37.6531 22.8328 36.9927 22.6651C36.1449 22.4495 35.3325 22.1125 34.5777 21.6629C33.9933 21.3152 33.2506 21.4066 32.7712 21.8855L31.569 23.088L29.953 21.4721L31.1555 20.2698C31.6346 19.7905 31.7261 19.0476 31.378 18.4632C30.9285 17.7084 30.5915 16.896 30.376 16.0485C30.2082 15.3881 29.6178 14.9269 28.9403 14.9269H27.242V12.6416H28.9403C29.6178 12.6416 30.2082 12.1803 30.376 11.5199C30.5915 10.6722 30.9285 9.8598 31.3779 9.10515C31.726 8.52073 31.6346 7.77792 31.1555 7.29842ZM3.66843 14.5895V41.5539H1.75983V12.2255C1.75983 11.0725 2.69784 10.1344 3.85097 10.1344H28.9608C28.8735 10.3806 28.794 10.6296 28.7246 10.8817H26.9622C26.1461 10.8817 25.4823 11.5457 25.4823 12.3616V12.4104H5.84762C4.64607 12.4103 3.66843 13.3878 3.66843 14.5895ZM54.5719 41.5537H5.42826V14.5895C5.42826 14.3583 5.61643 14.1701 5.84762 14.1701H25.4822V15.2066C25.4822 16.0225 26.1461 16.6866 26.9621 16.6866H28.7245C28.9638 17.5559 29.3105 18.3921 29.758 19.1783L28.5108 20.4256C27.9337 21.0027 27.9337 21.9414 28.5108 22.5186L30.5224 24.5304C31.0997 25.1074 32.0382 25.1074 32.6154 24.5304L33.8627 23.2831C34.6485 23.7305 35.4849 24.0774 36.3545 24.3168V26.0792C36.3545 26.8951 37.0185 27.559 37.8344 27.559H40.6795C41.4955 27.559 42.1595 26.8952 42.1595 26.0792V24.3166C43.0289 24.0774 43.8653 23.7305 44.6512 23.2831L45.8985 24.5304C46.4758 25.1074 47.4142 25.1074 47.9915 24.5304L50.0033 22.5186C50.5803 21.9416 50.5803 21.0027 50.0033 20.4256L48.7559 19.1783C49.2033 18.3925 49.5502 17.5562 49.7894 16.6866H51.552C52.3679 16.6866 53.032 16.0227 53.032 15.2066V14.1701H54.1526C54.3838 14.1701 54.572 14.3583 54.572 14.5895V41.5537H54.5719ZM58.2402 41.5537H56.3317V14.5895C56.3317 13.3878 55.3542 12.4103 54.1525 12.4103H53.0318V12.3615C53.0318 11.5455 52.3679 10.8816 51.5519 10.8816H49.7894C49.72 10.6295 49.6406 10.3804 49.5532 10.1342H56.1492C57.3022 10.1342 58.2402 11.0724 58.2402 12.2254V41.5537Z" fill="#02B5FF"/>
<path d="M39.2565 20.6047C43.0174 20.6047 46.0771 17.545 46.0771 13.784C46.0771 10.023 43.0174 6.96326 39.2565 6.96326C38.6201 6.96326 37.99 7.05095 37.3834 7.22376C36.9161 7.35694 36.6451 7.84393 36.7784 8.31124C36.9119 8.77854 37.3985 9.04924 37.8659 8.91617C38.3154 8.78792 38.7833 8.72297 39.2563 8.72297C42.0469 8.72297 44.3172 10.9934 44.3172 13.7839C44.3172 16.5745 42.0469 18.8448 39.2563 18.8448C36.4657 18.8448 34.1954 16.5745 34.1954 13.7839C34.1954 12.7696 34.4941 11.7914 35.0593 10.9548C35.3313 10.5522 35.2254 10.0052 34.8227 9.73308C34.4201 9.46109 33.873 9.56695 33.601 9.96966C32.8385 11.0982 32.4355 12.4171 32.4355 13.7838C32.4355 17.5451 35.4953 20.6047 39.2565 20.6047Z" fill="#02B5FF"/>
<path d="M42.8046 13.7841C42.8046 11.8277 41.2131 10.2363 39.2568 10.2363C37.3005 10.2363 35.709 11.8277 35.709 13.7841C35.709 15.7404 37.3005 17.3319 39.2568 17.3319C41.2131 17.3319 42.8046 15.7404 42.8046 13.7841ZM37.4687 13.7841C37.4687 12.7982 38.2708 11.9961 39.2567 11.9961C40.2425 11.9961 41.0446 12.7982 41.0446 13.7841C41.0446 14.7699 40.2425 15.572 39.2567 15.572C38.2708 15.572 37.4687 14.77 37.4687 13.7841Z" fill="#02B5FF"/>
<path d="M27.3741 26.2766H26.1798C26.0092 25.699 25.7777 25.1405 25.4885 24.6102L26.3336 23.7651C26.5867 23.5121 26.7261 23.1757 26.7261 22.8179C26.7261 22.4602 26.5868 22.124 26.3337 21.8708L24.7931 20.3302C24.2709 19.8079 23.4212 19.8078 22.8989 20.3302L22.0538 21.1753C21.5234 20.8862 20.965 20.6547 20.3873 20.4841V19.2898C20.3873 18.5512 19.7864 17.9505 19.0478 17.9505H16.869C16.1305 17.9505 15.5296 18.5513 15.5296 19.2898V20.4841C14.9518 20.6546 14.3936 20.8862 13.8631 21.1753L13.0179 20.3302C12.4957 19.8079 11.646 19.808 11.1237 20.3302L9.5829 21.871C9.06096 22.3933 9.06096 23.243 9.58313 23.7651L10.4283 24.6102C10.1392 25.1405 9.90764 25.6987 9.73695 26.2766H8.54255C7.80396 26.2766 7.20312 26.8776 7.20312 27.616V29.7949C7.20312 30.5334 7.80396 31.1342 8.54255 31.1342H9.73683C9.90753 31.7121 10.1392 32.2708 10.4282 32.8007L9.58278 33.6459C9.06085 34.1682 9.06085 35.018 9.58302 35.54L11.1235 37.0805C11.3765 37.3336 11.713 37.4729 12.0708 37.4729C12.4287 37.4729 12.765 37.3335 13.0179 37.0806L13.8631 36.2355C14.3936 36.5247 14.952 36.7563 15.5296 36.9268V38.1211C15.5296 38.8597 16.1304 39.4604 16.869 39.4604H19.0478C19.7863 39.4604 20.3873 38.8595 20.3873 38.1211V36.9268C20.965 36.7562 21.5233 36.5248 22.0538 36.2355L22.8987 37.0804C23.1517 37.3335 23.4881 37.4729 23.846 37.4729C24.2039 37.4729 24.5402 37.3335 24.7931 37.0806L26.3336 35.54C26.5867 35.287 26.7261 34.9507 26.7261 34.5929C26.7261 34.2352 26.5868 33.8989 26.3337 33.6457L25.4885 32.8007C25.7777 32.2703 26.0093 31.712 26.1798 31.1342H27.3741C28.1125 31.1342 28.7135 30.5333 28.7135 29.7949V27.616C28.7135 26.8774 28.1126 26.2766 27.3741 26.2766ZM26.9536 29.3743H25.8591C25.2461 29.3743 24.7119 29.7913 24.5599 30.3887C24.3998 31.0186 24.1492 31.6223 23.8151 32.1834C23.5005 32.712 23.5833 33.3843 24.017 33.818L24.792 34.593L23.846 35.5391L23.071 34.7641C22.6374 34.3304 21.9651 34.2475 21.4364 34.5623C20.8753 34.8964 20.2715 35.1469 19.6415 35.3069C19.0444 35.4588 18.6274 35.9931 18.6274 36.6062V37.7007H17.2894V36.6062C17.2894 35.993 16.8724 35.4588 16.2751 35.3069C15.6453 35.1469 15.0415 34.8964 14.4806 34.5624C13.9517 34.2474 13.2795 34.3304 12.8459 34.764L12.0708 35.5391L11.1247 34.593L11.8998 33.8179C12.3333 33.3844 12.4163 32.7123 12.1015 32.1832C11.7675 31.6226 11.5169 31.0188 11.3568 30.3888C11.2051 29.7916 10.6708 29.3743 10.0576 29.3743H8.96295V28.0363H10.0575C10.6707 28.0363 11.205 27.6193 11.3566 27.0221C11.5168 26.3921 11.7674 25.7883 12.1015 25.2272C12.4161 24.6986 12.3333 24.0265 11.8996 23.5927L11.1244 22.8177L12.0705 21.8716L12.8456 22.6466C13.2792 23.0804 13.9515 23.1634 14.4802 22.8485C15.0413 22.5144 15.6451 22.2638 16.275 22.1037C16.8722 21.9519 17.2892 21.4176 17.2892 20.8046V19.7101H18.6272V20.8046C18.6272 21.4176 19.0442 21.9519 19.6413 22.1037C20.2712 22.2638 20.8751 22.5144 21.4359 22.8484C21.9649 23.1635 22.6371 23.0803 23.0706 22.6467L23.8456 21.8716L24.7917 22.8177L24.0165 23.5928C23.583 24.0266 23.5 24.6988 23.8149 25.2273C24.149 25.7884 24.3995 26.3923 24.5597 27.0222C24.7115 27.6193 25.2458 28.0363 25.8589 28.0363H26.9534V29.3743H26.9536Z" fill="#02B5FF"/>
<path d="M17.9601 24.0499C15.3931 24.0499 13.3047 26.1384 13.3047 28.7054C13.3047 31.2724 15.3931 33.3608 17.9601 33.3608C20.5271 33.3608 22.6156 31.2724 22.6156 28.7054C22.6156 26.1384 20.5272 24.0499 17.9601 24.0499ZM17.9601 31.601C16.3635 31.601 15.0645 30.3021 15.0645 28.7054C15.0645 27.1086 16.3635 25.8098 17.9601 25.8098C19.5568 25.8098 20.8557 27.1086 20.8557 28.7054C20.8557 30.3021 19.5569 31.601 17.9601 31.601Z" fill="#02B5FF"/>
</g>
<defs>
<clipPath id="clip0_54886_2545">
<rect width="60" height="60" fill="white"/>
</clipPath>
</defs>
</svg>
