<svg width="60" height="60" viewBox="0 0 60 60" fill="none" xmlns="http://www.w3.org/2000/svg">
<path d="M11.273 30.9375C11.4431 34.5051 12.6365 37.9483 14.7106 40.8559L16.2385 39.7691C14.3906 37.1786 13.3193 34.1151 13.1501 30.9375H14.9995V29.0625H13.1501C13.3191 25.885 14.3903 22.8215 16.2381 20.2309L14.7102 19.1441C12.6362 22.0518 11.443 25.495 11.273 29.0625H9.25592C9.02774 28.1788 8.48508 27.4086 7.72966 26.8963C6.97425 26.3841 6.05793 26.1649 5.15248 26.2799C4.24703 26.3949 3.41461 26.8362 2.81124 27.521C2.20788 28.2059 1.875 29.0873 1.875 30C1.875 30.9127 2.20788 31.7941 2.81124 32.479C3.41461 33.1638 4.24703 33.6051 5.15248 33.7201C6.05793 33.8351 6.97425 33.616 7.72966 33.1037C8.48508 32.5914 9.02774 31.8212 9.25592 30.9375H11.273ZM5.62452 31.875C5.25368 31.875 4.89116 31.765 4.58282 31.559C4.27448 31.353 4.03416 31.0601 3.89224 30.7175C3.75033 30.3749 3.7132 29.9979 3.78554 29.6342C3.85789 29.2705 4.03647 28.9364 4.29869 28.6742C4.56091 28.412 4.89501 28.2334 5.25872 28.161C5.62244 28.0887 5.99944 28.1258 6.34205 28.2677C6.68466 28.4096 6.97749 28.65 7.18352 28.9583C7.38955 29.2666 7.49952 29.6292 7.49952 30C7.49893 30.4971 7.30119 30.9737 6.94969 31.3252C6.59819 31.6767 6.12162 31.8744 5.62452 31.875Z" fill="#02B5FF"/>
<path d="M54.3738 26.25C53.5426 26.2511 52.7353 26.5277 52.0782 27.0366C51.4211 27.5456 50.9513 28.258 50.7424 29.0625H48.7253C48.5552 25.4949 47.3618 22.0518 45.2877 19.1441L43.7598 20.2309C45.6077 22.8214 46.679 25.8849 46.8482 29.0625H44.9988V30.9375H46.8482C46.6792 34.115 45.608 37.1785 43.7602 39.7691L45.2881 40.8559C47.3621 37.9482 48.5553 34.505 48.7253 30.9375H50.7419C50.9172 31.6166 51.2795 32.2329 51.7875 32.7164C52.2955 33.1999 52.929 33.5312 53.6159 33.6728C54.3028 33.8144 55.0156 33.7605 55.6734 33.5172C56.3312 33.274 56.9076 32.8512 57.3372 32.2968C57.7667 31.7424 58.0322 31.0786 58.1034 30.3809C58.1747 29.6832 58.0488 28.9795 57.7402 28.3497C57.4316 27.72 56.9525 27.1894 56.3574 26.8182C55.7624 26.447 55.0751 26.2502 54.3738 26.25ZM54.3738 31.875C54.0029 31.875 53.6404 31.765 53.3321 31.559C53.0238 31.353 52.7834 31.0601 52.6415 30.7175C52.4996 30.3749 52.4625 29.9979 52.5348 29.6342C52.6072 29.2705 52.7857 28.9364 53.048 28.6742C53.3102 28.412 53.6443 28.2334 54.008 28.161C54.3717 28.0887 54.7487 28.1258 55.0913 28.2677C55.4339 28.4096 55.7268 28.65 55.9328 28.9583C56.1388 29.2666 56.2488 29.6292 56.2488 30C56.2482 30.4971 56.0505 30.9737 55.699 31.3252C55.3475 31.6767 54.8709 31.8744 54.3738 31.875Z" fill="#02B5FF"/>
<path d="M12.7633 16.5126C13.4332 16.5132 14.0909 16.3345 14.6683 15.995L18.7296 20.0563L20.0554 18.7305L15.9941 14.6692C16.4152 13.9526 16.5868 13.1166 16.482 12.2921C16.3773 11.4676 16.002 10.7011 15.4151 10.1126C14.9791 9.67615 14.4423 9.35396 13.8521 9.1746C13.2619 8.99523 12.6365 8.96424 12.0315 9.08436C11.4264 9.20448 10.8604 9.472 10.3834 9.86322C9.9065 10.2544 9.53344 10.7573 9.29732 11.3272C9.0612 11.897 8.96931 12.5164 9.02979 13.1303C9.09027 13.7441 9.30126 14.3336 9.64405 14.8465C9.98685 15.3593 10.4509 15.7797 10.995 16.0703C11.5391 16.3609 12.1465 16.5128 12.7633 16.5126ZM11.4376 11.4384C11.6998 11.1761 12.0339 10.9976 12.3976 10.9252C12.7613 10.8529 13.1383 10.89 13.4809 11.0319C13.8235 11.1739 14.1164 11.4142 14.3224 11.7225C14.5284 12.0309 14.6384 12.3934 14.6384 12.7642C14.6384 13.135 14.5284 13.4976 14.3224 13.8059C14.1164 14.1142 13.8235 14.3546 13.4809 14.4965C13.1383 14.6384 12.7613 14.6755 12.3976 14.6032C12.0339 14.5309 11.6998 14.3523 11.4376 14.0901C11.2628 13.9164 11.1241 13.7098 11.0294 13.4823C10.9347 13.2547 10.886 13.0107 10.886 12.7643C10.886 12.5178 10.9347 12.2738 11.0294 12.0463C11.1241 11.8188 11.2628 11.6121 11.4376 11.4384Z" fill="#02B5FF"/>
<path d="M49.8871 44.5841C49.2986 43.9972 48.5321 43.6219 47.7076 43.5171C46.883 43.4124 46.047 43.584 45.3305 44.0051L41.2692 39.9437L39.9434 41.2696L44.0047 45.3308C43.6486 45.935 43.469 46.6269 43.4864 47.328C43.5038 48.0292 43.7174 48.7113 44.103 49.2971C44.4887 49.8829 45.0309 50.3488 45.668 50.6419C46.3051 50.935 47.0117 51.0436 47.7074 50.9553C48.4032 50.867 49.0602 50.5853 49.6039 50.1423C50.1476 49.6993 50.5562 49.1127 50.7833 48.4492C51.0103 47.7856 51.0468 47.0717 50.8884 46.3885C50.7301 45.7053 50.3833 45.0801 49.8875 44.5841H49.8871ZM48.5612 48.5616C48.299 48.8235 47.9651 49.0018 47.6016 49.074C47.2381 49.1462 46.8613 49.109 46.519 48.9671C46.1766 48.8252 45.884 48.5849 45.6781 48.2768C45.4723 47.9686 45.3624 47.6063 45.3624 47.2357C45.3624 46.8651 45.4723 46.5028 45.6781 46.1947C45.884 45.8865 46.1766 45.6463 46.519 45.5044C46.8613 45.3625 47.2381 45.3252 47.6016 45.3974C47.9651 45.4696 48.299 45.6479 48.5612 45.9099C48.9123 46.2618 49.1095 46.7386 49.1095 47.2357C49.1095 47.7328 48.9123 48.2096 48.5612 48.5616Z" fill="#02B5FF"/>
<path d="M20.0559 41.2696L18.73 39.9437L14.6688 44.0051C14.0648 43.6494 13.3731 43.4701 12.6724 43.4877C11.9716 43.5053 11.2898 43.719 10.7044 44.1046C10.119 44.4901 9.65341 45.0321 9.36052 45.669C9.06762 46.3058 8.95915 47.012 9.04742 47.7074C9.13569 48.4028 9.41716 49.0595 9.85988 49.603C10.3026 50.1465 10.8888 50.555 11.552 50.782C12.2152 51.0091 12.9287 51.0457 13.6117 50.8877C14.2946 50.7296 14.9195 50.3832 15.4155 49.8879C16.0025 49.2994 16.3777 48.5329 16.4825 47.7084C16.5873 46.8839 16.4157 46.0479 15.9945 45.3313L20.0559 41.2696ZM14.0898 48.5616C13.8276 48.8236 13.4936 49.0019 13.1301 49.0741C12.7665 49.1463 12.3898 49.1091 12.0474 48.9672C11.705 48.8253 11.4123 48.5851 11.2064 48.2769C11.0006 47.9687 10.8907 47.6064 10.8907 47.2357C10.8907 46.8651 11.0006 46.5028 11.2064 46.1946C11.4123 45.8864 11.705 45.6461 12.0474 45.5042C12.3898 45.3623 12.7665 45.3251 13.1301 45.3973C13.4936 45.4695 13.8276 45.6479 14.0898 45.9099C14.4408 46.2618 14.638 46.7386 14.638 47.2357C14.638 47.7328 14.4408 48.2096 14.0898 48.5616Z" fill="#02B5FF"/>
<path d="M39.9434 18.7304L41.2692 20.0563L45.3305 15.9949C46.0471 16.4158 46.883 16.5873 47.7075 16.4826C48.532 16.3778 49.2985 16.0027 49.8871 15.4159C50.3829 14.9199 50.7296 14.2947 50.888 13.6115C51.0463 12.9283 51.0099 12.2144 50.7828 11.5508C50.5557 10.8873 50.1472 10.3007 49.6035 9.85769C49.0598 9.4147 48.4027 9.13306 47.707 9.04474C47.0112 8.95643 46.3047 9.06499 45.6675 9.3581C45.0304 9.6512 44.4882 10.1171 44.1026 10.7029C43.7169 11.2887 43.5033 11.9709 43.4859 12.672C43.4685 13.3731 43.6481 14.065 44.0043 14.6692L39.9434 18.7304ZM45.9095 11.4384C46.1717 11.1762 46.5058 10.9977 46.8695 10.9253C47.2332 10.853 47.6102 10.8901 47.9528 11.032C48.2954 11.1739 48.5883 11.4143 48.7943 11.7226C49.0003 12.0309 49.1103 12.3935 49.1103 12.7643C49.1103 13.1351 49.0003 13.4976 48.7943 13.806C48.5883 14.1143 48.2954 14.3546 47.9528 14.4966C47.6102 14.6385 47.2332 14.6756 46.8695 14.6033C46.5058 14.5309 46.1717 14.3524 45.9095 14.0902C45.7347 13.9164 45.596 13.7098 45.5013 13.4823C45.4067 13.2548 45.3579 13.0107 45.3579 12.7643C45.3579 12.5178 45.4067 12.2738 45.5013 12.0463C45.596 11.8187 45.7347 11.6122 45.9095 11.4384Z" fill="#02B5FF"/>
<path d="M40.8563 45.2894L39.7695 43.7615C37.179 45.6092 34.1154 46.6804 30.9379 46.8495V45H29.0629V46.8495C25.8854 46.6804 22.8219 45.6092 20.2313 43.7615L19.1445 45.2894C22.0522 47.3633 25.4954 48.5566 29.0629 48.7266V50.7432C28.1792 50.9713 27.409 51.514 26.8967 52.2694C26.3845 53.0248 26.1653 53.9411 26.2803 54.8466C26.3953 55.752 26.8366 56.5845 27.5215 57.1878C28.2063 57.7912 29.0877 58.1241 30.0004 58.1241C30.9132 58.1241 31.7945 57.7912 32.4794 57.1878C33.1642 56.5845 33.6055 55.752 33.7205 54.8466C33.8355 53.9411 33.6164 53.0248 33.1041 52.2694C32.5919 51.514 31.8217 50.9713 30.9379 50.7432V48.7266C34.5054 48.5566 37.9486 47.3633 40.8563 45.2894ZM31.8754 54.375C31.8754 54.7459 31.7655 55.1084 31.5594 55.4167C31.3534 55.7251 31.0606 55.9654 30.718 56.1073C30.3753 56.2492 29.9983 56.2864 29.6346 56.214C29.2709 56.1417 28.9368 55.9631 28.6746 55.7009C28.4124 55.4386 28.2338 55.1045 28.1615 54.7408C28.0891 54.3771 28.1262 54.0001 28.2682 53.6575C28.4101 53.3149 28.6504 53.0221 28.9587 52.816C29.2671 52.61 29.6296 52.5 30.0004 52.5C30.4975 52.5006 30.9741 52.6984 31.3256 53.0499C31.6771 53.4014 31.8748 53.8779 31.8754 54.375Z" fill="#02B5FF"/>
<path d="M19.1445 14.7107L20.2313 16.2386C22.8219 14.3908 25.8854 13.3196 29.0629 13.1506V15H30.9379V13.1506C34.1154 13.3196 37.179 14.3908 39.7695 16.2386L40.8563 14.7107C37.9486 12.6367 34.5054 11.4435 30.9379 11.2734V9.25641C31.8217 9.02823 32.5919 8.48557 33.1041 7.73015C33.6164 6.97473 33.8355 6.05842 33.7205 5.15297C33.6055 4.24752 33.1642 3.4151 32.4794 2.81173C31.7945 2.20837 30.9132 1.87549 30.0004 1.87549C29.0877 1.87549 28.2063 2.20837 27.5215 2.81173C26.8366 3.4151 26.3953 4.24752 26.2803 5.15297C26.1653 6.05842 26.3845 6.97473 26.8967 7.73015C27.409 8.48557 28.1792 9.02823 29.0629 9.25641V11.2734C25.4954 11.4435 22.0522 12.6367 19.1445 14.7107ZM28.1254 5.625C28.1254 5.25416 28.2354 4.89165 28.4414 4.58331C28.6475 4.27497 28.9403 4.03464 29.2829 3.89273C29.6255 3.75082 30.0025 3.71368 30.3662 3.78603C30.7299 3.85838 31.064 4.03696 31.3263 4.29918C31.5885 4.5614 31.7671 4.8955 31.8394 5.25921C31.9117 5.62292 31.8746 5.99992 31.7327 6.34254C31.5908 6.68515 31.3505 6.97798 31.0421 7.18401C30.7338 7.39004 30.3713 7.5 30.0004 7.5C29.5033 7.49941 29.0268 7.30168 28.6753 6.95018C28.3238 6.59868 28.126 6.1221 28.1254 5.625Z" fill="#02B5FF"/>
<path d="M42.1875 33.75C42.4361 33.75 42.6746 33.6512 42.8504 33.4754C43.0262 33.2996 43.125 33.0611 43.125 32.8125V27.1875C43.125 26.9389 43.0262 26.7004 42.8504 26.5246C42.6746 26.3488 42.4361 26.25 42.1875 26.25H39.6094C39.5577 26.1179 39.5034 25.9869 39.4464 25.8571L41.2698 24.0337C41.4456 23.8579 41.5443 23.6195 41.5443 23.3709C41.5443 23.1223 41.4456 22.8838 41.2698 22.708L37.2923 18.7304C37.2053 18.6434 37.1019 18.5743 36.9882 18.5272C36.8744 18.4801 36.7525 18.4558 36.6294 18.4558C36.5063 18.4558 36.3844 18.4801 36.2706 18.5272C36.1569 18.5743 36.0535 18.6434 35.9665 18.7304L34.1432 20.5539C34.0133 20.4968 33.8823 20.4425 33.7502 20.3909V17.8125C33.7502 17.5639 33.6515 17.3254 33.4756 17.1496C33.2998 16.9738 33.0614 16.875 32.8127 16.875H27.1875C26.9389 16.875 26.7004 16.9738 26.5246 17.1496C26.3488 17.3254 26.25 17.5639 26.25 17.8125V20.3906C26.1179 20.4423 25.9869 20.4966 25.8571 20.5536L24.0337 18.7302C23.8579 18.5544 23.6195 18.4556 23.3709 18.4556C23.1223 18.4556 22.8838 18.5544 22.708 18.7302L18.7304 22.7078C18.5546 22.8836 18.4559 23.122 18.4559 23.3706C18.4559 23.6193 18.5546 23.8577 18.7304 24.0335L20.5539 25.8568C20.4969 25.9867 20.4426 26.1177 20.391 26.2498H17.8125C17.5639 26.2498 17.3254 26.3485 17.1496 26.5244C16.9738 26.7002 16.875 26.9386 16.875 27.1873V32.8123C16.875 33.0609 16.9738 33.2994 17.1496 33.4752C17.3254 33.651 17.5639 33.7498 17.8125 33.7498H20.3906C20.4422 33.8817 20.4965 34.0127 20.5535 34.1427L18.7301 35.966C18.5543 36.1418 18.4555 36.3803 18.4555 36.6289C18.4555 36.8775 18.5543 37.1159 18.7301 37.2918L22.7077 41.2693C22.8835 41.4451 23.1219 41.5439 23.3705 41.5439C23.6191 41.5439 23.8576 41.4451 24.0334 41.2693L25.8567 39.4459C25.9866 39.5029 26.1175 39.5573 26.2496 39.6089V42.187C26.2496 42.4357 26.3484 42.6741 26.5242 42.8499C26.7001 43.0258 26.9385 43.1245 27.1871 43.1245H32.8121C33.0608 43.1245 33.2992 43.0258 33.4751 42.8499C33.6509 42.6741 33.7496 42.4357 33.7496 42.187V39.6094C33.8818 39.5577 34.0127 39.5034 34.1426 39.4464L35.9659 41.2698C36.053 41.3569 36.1563 41.4259 36.2701 41.473C36.3838 41.5202 36.5057 41.5444 36.6288 41.5444C36.7519 41.5444 36.8739 41.5202 36.9876 41.473C37.1014 41.4259 37.2047 41.3569 37.2918 41.2698L41.2692 37.2922C41.445 37.1164 41.5438 36.878 41.5438 36.6294C41.5438 36.3807 41.445 36.1423 41.2692 35.9665L39.4458 34.1432C39.5028 34.0133 39.5571 33.8823 39.6088 33.7502L42.1875 33.75ZM37.6511 34.9993L39.2813 36.6291L36.6292 39.2813L34.9993 37.6515C34.8582 37.5103 34.6756 37.4179 34.4783 37.3877C34.2809 37.3574 34.0791 37.391 33.9021 37.4835C33.4629 37.713 33.0043 37.9032 32.5316 38.0518C32.3413 38.1117 32.175 38.2307 32.057 38.3915C31.939 38.5524 31.8753 38.7467 31.8754 38.9462V41.25H28.125V38.9457C28.125 38.7462 28.0614 38.5519 27.9434 38.3911C27.8253 38.2302 27.6591 38.1112 27.4687 38.0514C26.9958 37.9028 26.537 37.7126 26.0977 37.483C25.9207 37.3906 25.7189 37.357 25.5216 37.3872C25.3242 37.4175 25.1417 37.5099 25.0005 37.6511L23.3709 39.2813L20.7188 36.6291L22.3485 34.9993C22.4896 34.8582 22.5821 34.6757 22.6123 34.4783C22.6425 34.281 22.609 34.0792 22.5165 33.9022C22.2869 33.4629 22.0967 33.0041 21.9482 32.5311C21.8883 32.3408 21.7693 32.1746 21.6085 32.0565C21.4476 31.9385 21.2533 31.8749 21.0538 31.8749H18.75V28.125H21.0543C21.2538 28.125 21.4481 28.0614 21.6089 27.9434C21.7698 27.8253 21.8888 27.6591 21.9486 27.4687C22.0972 26.9958 22.2874 26.537 22.517 26.0977C22.6094 25.9207 22.643 25.7189 22.6128 25.5216C22.5825 25.3242 22.4901 25.1417 22.3489 25.0005L20.7188 23.3709L23.3709 20.7188L25.0007 22.3485C25.1418 22.4896 25.3243 22.5821 25.5217 22.6123C25.719 22.6425 25.9208 22.609 26.0978 22.5165C26.5371 22.287 26.996 22.0968 27.4689 21.9482C27.6592 21.8883 27.8254 21.7693 27.9435 21.6085C28.0615 21.4476 28.1251 21.2533 28.1251 21.0538V18.75H31.8751V21.0543C31.8751 21.2538 31.9387 21.4481 32.0568 21.6089C32.1748 21.7698 32.3411 21.8888 32.5314 21.9486C33.0041 22.0973 33.4627 22.2875 33.9019 22.517C34.0788 22.6095 34.2807 22.643 34.478 22.6128C34.6754 22.5826 34.8579 22.4901 34.9991 22.3489L36.6292 20.7188L39.2813 23.3709L37.6515 25.0007C37.5104 25.1418 37.4179 25.3243 37.3877 25.5217C37.3575 25.719 37.391 25.9208 37.4835 26.0978C37.713 26.5371 37.9032 26.996 38.0518 27.4689C38.1117 27.6592 38.2307 27.8254 38.3915 27.9435C38.5524 28.0615 38.7467 28.1251 38.9462 28.1251H41.25V31.8751H38.9457C38.7462 31.8751 38.5519 31.9387 38.3911 32.0568C38.2302 32.1748 38.1112 32.3411 38.0514 32.5314C37.9028 33.0043 37.7126 33.4631 37.483 33.9025C37.3906 34.0794 37.3571 34.2811 37.3873 34.4784C37.4175 34.6757 37.5099 34.8582 37.6511 34.9993Z" fill="#02B5FF"/>
<path d="M30 23.4375C28.7021 23.4375 27.4333 23.8224 26.3541 24.5435C25.2749 25.2646 24.4337 26.2895 23.937 27.4886C23.4403 28.6878 23.3104 30.0073 23.5636 31.2803C23.8168 32.5533 24.4418 33.7226 25.3596 34.6404C26.2774 35.5582 27.4467 36.1832 28.7197 36.4364C29.9927 36.6896 31.3122 36.5597 32.5114 36.063C33.7105 35.5663 34.7354 34.7251 35.4565 33.6459C36.1776 32.5667 36.5625 31.2979 36.5625 30C36.5605 28.2601 35.8685 26.5921 34.6382 25.3618C33.4079 24.1315 31.7399 23.4395 30 23.4375ZM30 34.6875C29.0729 34.6875 28.1666 34.4126 27.3958 33.8975C26.6249 33.3824 26.0241 32.6504 25.6693 31.7938C25.3145 30.9373 25.2217 29.9948 25.4026 29.0855C25.5834 28.1762 26.0299 27.341 26.6854 26.6854C27.341 26.0299 28.1762 25.5834 29.0855 25.4026C29.9948 25.2217 30.9373 25.3145 31.7938 25.6693C32.6504 26.0241 33.3824 26.6249 33.8975 27.3958C34.4126 28.1666 34.6875 29.0729 34.6875 30C34.6861 31.2428 34.1918 32.4342 33.313 33.313C32.4343 34.1918 31.2428 34.6861 30 34.6875Z" fill="#02B5FF"/>
<path d="M29.0614 30.5493L27.8493 29.3371L26.5234 30.663L28.3984 32.538C28.4855 32.625 28.5888 32.6941 28.7026 32.7412C28.8163 32.7883 28.9382 32.8126 29.0614 32.8126C29.1845 32.8126 29.3064 32.7883 29.4201 32.7412C29.5339 32.6941 29.6372 32.625 29.7243 32.538L33.4743 28.788L32.1484 27.4621L29.0614 30.5493Z" fill="#02B5FF"/>
</svg>
