<svg width="60" height="60" viewBox="0 0 60 60" fill="none" xmlns="http://www.w3.org/2000/svg">
<g clip-path="url(#clip0_54886_2543)">
<path d="M56.3753 36.905C56.2974 36.9102 56.2205 36.9251 56.1463 36.9493L41.0654 41.8745C40.9945 41.1889 40.7598 40.5304 40.3812 39.9545C40.2802 39.8011 40.1364 39.6808 39.9676 39.6084L24.8036 33.1097C24.1734 32.8321 23.4921 32.6898 22.8035 32.6918C22.1149 32.6938 21.4344 32.8402 20.8059 33.1214L14.3311 35.9422V35.3951C14.3305 34.9019 14.1344 34.4292 13.7857 34.0805C13.437 33.7318 12.9642 33.5356 12.4711 33.5351H1.86012C1.36695 33.5356 0.894151 33.7318 0.545432 34.0805C0.196714 34.4292 0.000558298 34.902 0 35.3952L0 53.2031C0.000558298 53.6963 0.196714 54.1691 0.545432 54.5178C0.894151 54.8665 1.36695 55.0627 1.86012 55.0632H12.4712C12.9644 55.0627 13.4371 54.8665 13.7858 54.5178C14.1345 54.1691 14.3307 53.6963 14.3312 53.2031V51.6389L20.6821 49.9528C20.7898 49.9203 20.9035 49.9121 21.0148 49.9287C21.1261 49.9454 21.2324 49.9865 21.3259 50.0491L29.4844 55.1258C30.2178 55.5941 31.0619 55.8603 31.9313 55.8974C32.8007 55.9344 33.6644 55.741 34.435 55.3368L58.6167 43.0121C58.6811 42.9793 58.7414 42.9392 58.7966 42.8926C59.3432 42.4304 59.73 41.8074 59.9018 41.1125C60.0736 40.4175 60.0217 39.6861 59.7534 39.0224C59.4851 38.3587 59.0141 37.7967 58.4077 37.4163C57.8012 37.036 57.0901 36.8568 56.3759 36.9043L56.3753 36.905ZM12.4562 53.1884H1.875V35.4102H12.4562V53.1884ZM57.6562 41.3971L33.5828 53.6666C33.1001 53.9243 32.5571 54.048 32.0104 54.0247C31.4637 54.0013 30.9332 53.8319 30.4743 53.5339L22.3166 48.457C22.0057 48.2593 21.6568 48.1289 21.2924 48.0744C20.928 48.0199 20.5562 48.0425 20.201 48.1406L14.3312 49.6992V37.9875L21.555 34.8405C21.9483 34.659 22.376 34.5643 22.8092 34.563C23.2424 34.5617 23.6707 34.6538 24.065 34.833L38.9467 41.2109C39.1432 41.5927 39.2355 42.0196 39.214 42.4486C39.1926 42.8775 39.0583 43.2931 38.8247 43.6534C38.591 44.0138 38.2664 44.306 37.8836 44.5006C37.5008 44.6952 37.0733 44.7853 36.6445 44.7616L29.1729 41.5595C28.945 41.4654 28.6893 41.4648 28.461 41.5579C28.2327 41.651 28.0503 41.8302 27.9532 42.0568C27.8562 42.2834 27.8522 42.5391 27.9423 42.7686C28.0324 42.9981 28.2093 43.1828 28.4346 43.2829L36.0459 46.5449C36.1314 46.5815 36.2218 46.6052 36.3142 46.6152C37.1274 46.7012 37.9484 46.5552 38.6821 46.1941C39.4158 45.833 40.0324 45.2716 40.4604 44.5748C40.5839 44.3726 40.6903 44.1604 40.7787 43.9405L56.6034 38.7725C56.9075 38.7731 57.2044 38.8645 57.4561 39.035C57.7078 39.2056 57.9027 39.4474 58.016 39.7296C58.1292 40.0118 58.1554 40.3213 58.0914 40.6185C58.0274 40.9157 57.876 41.187 57.6566 41.3975L57.6562 41.3971ZM7.875 38.2178V38.1152C7.875 37.8666 7.97377 37.6281 8.14959 37.4523C8.3254 37.2765 8.56386 37.1777 8.8125 37.1777C9.06114 37.1777 9.2996 37.2765 9.47541 37.4523C9.65123 37.6281 9.75 37.8666 9.75 38.1152V38.2178C9.75 38.4664 9.65123 38.7049 9.47541 38.8807C9.2996 39.0565 9.06114 39.1553 8.8125 39.1553C8.56386 39.1553 8.3254 39.0565 8.14959 38.8807C7.97377 38.7049 7.875 38.4664 7.875 38.2178ZM56.3539 23.072C56.5682 23.0311 56.7615 22.9168 56.9006 22.7487C57.0396 22.5806 57.1157 22.3693 57.1157 22.1511V17.7737C57.1156 17.5556 57.0396 17.3443 56.9005 17.1763C56.7615 17.0082 56.5682 16.8939 56.3539 16.853L53.8656 16.3775C53.5893 15.4027 53.1999 14.4635 52.7054 13.5791L54.1289 11.4823C54.2515 11.3018 54.3073 11.0843 54.2867 10.8672C54.2662 10.65 54.1705 10.4468 54.0163 10.2926L50.9215 7.19731C50.7672 7.04309 50.564 6.94748 50.3469 6.92694C50.1297 6.90641 49.9122 6.96224 49.7318 7.08481L47.6348 8.50899C46.7504 8.01455 45.8112 7.62519 44.8364 7.34883L44.3611 4.86047C44.3202 4.6462 44.2059 4.4529 44.0378 4.31387C43.8697 4.17483 43.6584 4.09876 43.4402 4.09875H39.0629C38.8448 4.09876 38.6335 4.17483 38.4654 4.31387C38.2973 4.4529 38.183 4.6462 38.1421 4.86047L37.6668 7.34872C36.6919 7.62505 35.7527 8.01441 34.8683 8.50887L32.7714 7.08481C32.591 6.96227 32.3735 6.90646 32.1563 6.92699C31.9392 6.94753 31.736 7.04312 31.5818 7.19731L28.4864 10.2926C28.3322 10.4468 28.2365 10.65 28.216 10.8672C28.1954 11.0843 28.2512 11.3018 28.3738 11.4823L29.7981 13.5791C29.3037 14.4635 28.9143 15.4027 28.6379 16.3775L26.1497 16.853C25.9354 16.8939 25.7422 17.0082 25.6031 17.1763C25.4641 17.3443 25.388 17.5556 25.388 17.7737V22.1511C25.388 22.3693 25.464 22.5806 25.6031 22.7487C25.7421 22.9168 25.9354 23.0311 26.1497 23.072L28.6379 23.5473C28.9144 24.5221 29.3037 25.4613 29.7981 26.3457L28.3738 28.4426C28.2512 28.623 28.1954 28.8405 28.216 29.0577C28.2365 29.2748 28.3322 29.478 28.4864 29.6323L31.582 32.7275C31.7363 32.8818 31.9394 32.9774 32.1566 32.9979C32.3737 33.0185 32.5912 32.9627 32.7716 32.8402L34.8683 31.416C35.9301 32.0096 37.0699 32.4514 38.2543 32.7285V35.7258C38.2543 35.9744 38.3531 36.2129 38.5289 36.3887C38.7047 36.5645 38.9432 36.6633 39.1918 36.6633H43.7227C43.9713 36.6633 44.2098 36.5645 44.3856 36.3887C44.5614 36.2129 44.6602 35.9744 44.6602 35.7258V32.625C45.6978 32.3465 46.6968 31.9404 47.6346 31.4162L49.7316 32.8404C49.912 32.963 50.1295 33.0188 50.3467 32.9982C50.5638 32.9777 50.767 32.882 50.9213 32.7278L54.0164 29.6325C54.1706 29.4783 54.2663 29.2751 54.2868 29.0579C54.3074 28.8408 54.2516 28.6233 54.129 28.4428L52.7047 26.346C53.1992 25.4616 53.5886 24.5224 53.8649 23.5475L56.3539 23.072ZM42.7852 26.4466V34.7883H40.1291V26.5839C40.1291 26.3823 40.0641 26.1861 39.9438 26.0244C39.8234 25.8627 39.6542 25.7441 39.4611 25.6861C38.2917 25.3336 37.2523 24.6439 36.4731 23.7034C35.6938 22.7629 35.2094 21.6134 35.0806 20.3988C34.9517 19.1842 35.1841 17.9587 35.7486 16.8756C36.3131 15.7925 37.1847 14.9 38.2541 14.31V18.9332C38.2592 19.7793 38.5989 20.5891 39.1991 21.1856C39.7993 21.7822 40.6111 22.117 41.4572 22.117C42.3034 22.117 43.1152 21.7822 43.7154 21.1856C44.3155 20.5891 44.6553 19.7793 44.6604 18.9332V14.5572C45.6202 15.1882 46.386 16.0732 46.8727 17.1136C47.3593 18.1541 47.5478 19.3092 47.417 20.4503C47.2862 21.5915 46.8413 22.674 46.1318 23.5774C45.4224 24.4807 44.4762 25.1695 43.3985 25.567C43.2186 25.6333 43.0633 25.7532 42.9537 25.9105C42.844 26.0678 42.7852 26.2549 42.7852 26.4466ZM52.1936 22.5247C51.916 23.714 51.4449 24.8496 50.799 25.8861C50.7032 26.0402 50.6541 26.2188 50.6577 26.4002C50.6614 26.5816 50.7176 26.758 50.8195 26.9081L52.1419 28.8548L50.1445 30.8535L48.1972 29.5313C48.0472 29.4293 47.8707 29.3731 47.6893 29.3694C47.508 29.3658 47.3294 29.4148 47.1754 29.5106C46.3884 30.0002 45.5436 30.3899 44.6604 30.6708V27.0703C46.1074 26.3967 47.3227 25.3098 48.1529 23.9466C48.9831 22.5834 49.3911 21.0049 49.3255 19.4101C49.2599 17.8153 48.7237 16.2756 47.7843 14.9852C46.845 13.6947 45.5446 12.7113 44.0471 12.1588C43.9054 12.1066 43.7532 12.0893 43.6034 12.1086C43.4536 12.1278 43.3107 12.183 43.1868 12.2694C43.0629 12.3557 42.9617 12.4708 42.8918 12.6047C42.8219 12.7386 42.7854 12.8874 42.7854 13.0384V18.9329C42.7821 19.283 42.6407 19.6176 42.392 19.864C42.1433 20.1104 41.8073 20.2487 41.4572 20.2487C41.1071 20.2487 40.7712 20.1104 40.5225 19.864C40.2738 19.6176 40.1324 19.283 40.1291 18.9329V12.9016C40.1291 12.7555 40.0949 12.6114 40.0293 12.4808C39.9636 12.3502 39.8684 12.2368 39.7511 12.1496C39.6338 12.0623 39.4978 12.0037 39.3539 11.9784C39.2099 11.9531 39.062 11.9619 38.9221 12.0039C37.2793 12.5035 35.8364 13.5094 34.7995 14.878C33.7429 16.2797 33.1714 17.9874 33.1714 19.7427C33.1714 21.498 33.7429 23.2057 34.7995 24.6074C35.6913 25.7837 36.8853 26.6962 38.2546 27.2477V30.7937C37.2226 30.5087 36.2371 30.0766 35.3283 29.5107C35.1742 29.4149 34.9957 29.3658 34.8142 29.3695C34.6328 29.3731 34.4564 29.4293 34.3063 29.5313L32.3598 30.8535L30.3609 28.8548L31.6833 26.9081C31.7852 26.7581 31.8414 26.5816 31.8451 26.4002C31.8488 26.2189 31.7997 26.0403 31.7039 25.8863C31.0583 24.8497 30.5874 23.7141 30.31 22.5248C30.2688 22.3482 30.1772 22.1873 30.0464 22.0616C29.9155 21.936 29.751 21.851 29.5729 21.8169L27.2631 21.3757V18.5491L29.5729 18.1079C29.751 18.0739 29.9155 17.9889 30.0464 17.8632C30.1772 17.7376 30.2688 17.5767 30.31 17.4C30.5872 16.2109 31.0579 15.0755 31.7033 14.0391C31.7991 13.885 31.8482 13.7065 31.8446 13.5251C31.8409 13.3437 31.7847 13.1673 31.6828 13.0172L30.3605 11.0701L32.3593 9.07137L34.3059 10.3936C34.456 10.4956 34.6324 10.5518 34.8138 10.5555C34.9952 10.5592 35.1737 10.5101 35.3278 10.4143C36.3643 9.76852 37.4999 9.2974 38.6891 9.01981C38.8658 8.97861 39.0267 8.88704 39.1523 8.7562C39.278 8.62537 39.363 8.46088 39.397 8.2827L39.8382 5.97305H42.6649L43.106 8.2827C43.14 8.46087 43.225 8.62534 43.3507 8.75618C43.4763 8.88701 43.6372 8.97859 43.8138 9.01981C45.0031 9.29726 46.1387 9.76817 47.1752 10.4138C47.3293 10.5096 47.5078 10.5586 47.6892 10.5549C47.8706 10.5513 48.047 10.4951 48.1971 10.3931L50.1445 9.07137L52.1426 11.0701L50.8202 13.0168C50.7183 13.1669 50.6622 13.3433 50.6585 13.5247C50.6549 13.706 50.7039 13.8846 50.7997 14.0386C51.4456 15.0751 51.9167 16.2107 52.1943 17.4C52.2355 17.5767 52.327 17.7376 52.4579 17.8632C52.5887 17.9889 52.7532 18.0739 52.9314 18.1079L55.241 18.5491V21.3758L52.9314 21.8169C52.7531 21.8509 52.5885 21.9358 52.4576 22.0614C52.3267 22.1871 52.235 22.348 52.1938 22.5247H52.1936Z" fill="#02B5FF"/>
</g>
<defs>
<clipPath id="clip0_54886_2543">
<rect width="60" height="60" fill="white"/>
</clipPath>
</defs>
</svg>
