<svg width="60" height="60" viewBox="0 0 60 60" fill="none" xmlns="http://www.w3.org/2000/svg">
<path d="M55.999 0.999954H4.00102C1.79496 0.999954 0 2.79503 0 5.00097V37.9999C0 38.5519 0.448008 38.9999 0.999961 38.9999H58.9999C59.5519 38.9999 59.9999 38.5519 59.9999 37.9999V5.00097C60 2.79503 58.205 0.999954 55.999 0.999954ZM58 37H2.00004V5.00097C2.00004 3.89695 2.89805 2.99999 4.00102 2.99999H55.999C57.102 2.99999 58 3.89695 58 5.00097V37Z" fill="#02B5FF"/>
<path d="M59 37H0.999961C0.448008 37 0 37.448 0 37.9999V42.9989C0 45.205 1.79496 46.9999 4.00102 46.9999H55.999C58.205 46.9999 60 45.205 60 42.9989V37.9999C60 37.448 59.552 37 59 37ZM58 42.999C58 44.1031 57.102 45 55.999 45H4.00102C2.89805 45 2.00004 44.1031 2.00004 42.999V39H58.0001L58 42.999Z" fill="#02B5FF"/>
<path d="M33 41H27C26.448 41 26 41.448 26 42C26 42.5519 26.448 43 27 43H33C33.5519 43 33.9999 42.5519 33.9999 42C33.9999 41.448 33.5519 41 33 41Z" fill="#02B5FF"/>
<path d="M54.9999 5.00005H4.99996C4.44801 5.00005 4 5.44805 4 6.00001V38C4 38.552 4.44801 39 4.99996 39H55C55.552 39 56 38.552 56 38V6.00001C56 5.44805 55.552 5.00005 54.9999 5.00005ZM53.9999 37H5.99992V6.99997H53.9999V37Z" fill="#02B5FF"/>
<path d="M42.9999 53H17C15.346 53 14 54.346 14 56C14 57.654 15.346 59 17 59H43C44.654 59 46 57.654 46 56C46 54.346 44.6539 53 42.9999 53ZM42.9999 57H17C16.448 57 16 56.551 16 56C16 55.449 16.448 55.0001 17 55.0001H43C43.552 55.0001 44 55.449 44 56C44 56.551 43.552 57 42.9999 57Z" fill="#02B5FF"/>
<path d="M40.9999 53C37.6819 53 35.9999 50.645 35.9999 46.0001C35.9999 45.4481 35.5519 45.0001 34.9999 45.0001H25C24.448 45.0001 24 45.4481 24 46.0001C24 50.645 22.318 53 19 53C18.448 53 18 53.448 18 54C18 54.552 18.448 55 19 55H40.9999C41.5519 55 41.9999 54.552 41.9999 54C41.9999 53.448 41.5519 53 40.9999 53ZM23.8709 53C25.1019 51.6361 25.8268 49.605 25.9729 47H34.0279C34.1728 49.605 34.8979 51.6361 36.1298 53H23.8709Z" fill="#02B5FF"/>
<path d="M47.7832 30.464L45.3693 28.05L46.7123 26.707C46.9613 26.458 47.0612 26.096 46.9752 25.755C46.8892 25.414 46.6302 25.144 46.2932 25.042L36.2932 22.042C35.9403 21.936 35.5593 22.033 35.2993 22.2931C35.0383 22.5531 34.9423 22.935 35.0482 23.287L38.0482 33.287C38.1493 33.625 38.4202 33.884 38.7612 33.97C39.1012 34.054 39.4642 33.9559 39.7132 33.707L41.1272 32.292L43.5412 34.707C43.7282 34.8949 43.9832 34.9999 44.2482 34.9999C44.5131 34.9999 44.7681 34.8949 44.9552 34.707L47.7831 31.8779C48.1742 31.487 48.1742 30.855 47.7832 30.464ZM44.2482 32.586L42.0502 30.387C41.7952 30.132 41.4612 30.0049 41.1272 30.0049C40.7922 30.0049 40.4582 30.1329 40.2043 30.3859L39.4823 31.1079L37.4972 24.4909L44.1142 26.4759L43.3402 27.25C43.1271 27.464 43.0102 27.748 43.0102 28.05C43.0102 28.3531 43.1282 28.639 43.3422 28.851L45.6621 31.1709L44.2482 32.586Z" fill="#02B5FF"/>
<path d="M41.9999 9H14C13.448 9 13 9.44801 13 9.99996V15C13 15.552 13.448 16 14 16H41.9999C42.5519 16 42.9999 15.552 42.9999 15V9.99996C42.9999 9.44801 42.5519 9 41.9999 9ZM41 14H14.9999V11H41V14Z" fill="#02B5FF"/>
<path d="M26 20H18C17.448 20 17 20.4481 17 21V25C17 25.5519 17.448 25.9999 18 25.9999H26C26.552 25.9999 27 25.5519 27 25V21C27 20.4481 26.552 20 26 20ZM24.9999 24H18.9999V22H24.9999V24Z" fill="#02B5FF"/>
<path d="M41.9999 9H14C13.448 9 13 9.44801 13 9.99996V28.9999C13 29.5519 13.448 29.9999 14 29.9999H37.806C38.123 29.9999 38.42 29.8509 38.608 29.5969C38.7971 29.3429 38.8551 29.0149 38.764 28.7119L37.498 24.4909L41.713 25.7559C42.0161 25.847 42.3441 25.789 42.597 25.6C42.8509 25.412 43 25.114 43 24.7979V9.99996C42.9999 9.44801 42.5519 9 41.9999 9ZM41 23.454L36.2929 22.042C35.9399 21.936 35.5589 22.033 35.2989 22.293C35.0379 22.554 34.942 22.935 35.0479 23.2881L36.4619 28.0001H14.9999V11H41V23.454Z" fill="#02B5FF"/>
</svg>
