<svg width="60" height="60" viewBox="0 0 60 60" fill="none" xmlns="http://www.w3.org/2000/svg">
<path d="M49.834 14.5535H47.1976C46.6502 12.6071 45.203 10.9941 43.2731 10.2606C42.5245 6.05168 38.8675 2.94961 34.5272 2.94961C33.6913 2.94961 32.8691 3.0648 32.0749 3.29262C30.3079 1.76977 28.0741 0.9375 25.7244 0.9375C20.38 0.9375 16.027 5.26406 15.9841 10.5986C14.4067 11.4374 13.2674 12.8712 12.7992 14.5535H10.166C7.66207 14.5535 5.625 16.5906 5.625 19.0945V43.8853C5.625 46.3893 7.66207 48.4263 10.166 48.4263H21.6964V52.2765H17.1488C14.9373 52.2765 13.1381 53.7986 13.1381 55.6693V58.125C13.1381 58.6427 13.5579 59.0625 14.0756 59.0625H45.9241C46.4419 59.0625 46.8616 58.6427 46.8616 58.125V55.6696C46.8616 53.7988 45.0625 52.2768 42.851 52.2768H38.3033V48.4266H49.8339C52.3378 48.4266 54.3749 46.3895 54.3749 43.8855V19.0946C54.375 16.5906 52.3379 14.5535 49.834 14.5535ZM17.868 22.6301C17.9992 24.5428 18.5794 26.3991 19.566 28.0433C19.7418 28.3363 20.0522 28.4986 20.3707 28.4986C20.5348 28.4986 20.7012 28.4555 20.8521 28.3649C21.296 28.0985 21.44 27.5225 21.1736 27.0786C20.2189 25.4875 19.7142 23.6605 19.7142 21.7952C19.7142 16.1237 24.3284 11.5096 29.9999 11.5096C31.7396 11.5096 33.4375 11.952 34.9419 12.7762C34.6833 12.9513 34.5172 13.2509 34.5293 13.586C34.5475 14.092 34.9634 14.4899 35.4656 14.4899C35.477 14.4899 35.4884 14.4898 35.4998 14.4893L37.569 14.415C37.8571 14.4047 38.1243 14.2624 38.2938 14.0292C38.4632 13.7961 38.516 13.498 38.437 13.2209L37.8689 11.2297C37.7269 10.7317 37.2077 10.443 36.71 10.5854C36.3782 10.6801 36.1403 10.9426 36.06 11.2543C34.2284 10.2012 32.141 9.63445 30 9.63445C23.6588 9.63445 18.4365 14.5136 17.8879 20.7146C15.9183 20.2045 14.4381 18.385 14.4381 16.2871C14.4381 14.4253 15.5582 12.7637 17.2915 12.0539C17.6618 11.9023 17.895 11.5323 17.8723 11.1328C17.8634 10.9766 17.8588 10.8237 17.8588 10.6782C17.8588 6.34113 21.3873 2.81262 25.7244 2.81262C27.7761 2.81262 29.718 3.59836 31.1927 5.02512C31.4494 5.27344 31.8248 5.3543 32.1611 5.23383C32.9182 4.9623 33.7143 4.82461 34.5272 4.82461C38.1146 4.82461 41.1107 7.5102 41.4961 11.0714C41.5376 11.455 41.8098 11.7739 42.1821 11.8752C44.1721 12.4165 45.562 14.2307 45.562 16.287C45.562 18.3852 44.0814 20.205 42.1114 20.7148C41.9536 18.941 41.4103 17.2191 40.5142 15.6811C40.2536 15.2337 39.6797 15.0823 39.2323 15.343C38.785 15.6036 38.6336 16.1776 38.8942 16.6249C39.8047 18.1875 40.2859 19.9753 40.2859 21.7951C40.2859 27.4666 35.6718 32.0808 30.0002 32.0808C28.2647 32.0808 26.5648 31.6373 25.0595 30.8133C25.3174 30.6381 25.4829 30.3389 25.4709 30.0043C25.4523 29.487 25.0215 29.0804 24.5004 29.1011L22.4312 29.1754C22.1432 29.1857 21.876 29.3279 21.7064 29.5611C21.5371 29.7942 21.4842 30.0923 21.5632 30.3695L22.1313 32.3605C22.2489 32.7725 22.6243 33.041 23.0324 33.041C23.1176 33.041 23.2042 33.0293 23.2901 33.0048C23.6214 32.9102 23.859 32.6486 23.9396 32.3375C25.7723 33.3904 27.8641 33.9558 30.0001 33.9558C36.4248 33.9558 41.7011 28.9475 42.1316 22.6302C43.4584 22.392 44.6789 21.7417 45.6332 20.7495C46.0164 20.3511 46.3414 19.9113 46.607 19.442H49.4866V40.4815H10.5134V19.442H13.393C13.6586 19.9114 13.9837 20.3511 14.3668 20.7495C15.3211 21.7416 16.5414 22.3918 17.868 22.6301ZM44.9868 55.6696V57.1875H15.0131V55.6696C15.0131 54.8468 15.9912 54.1518 17.1488 54.1518H42.8511C44.0087 54.1518 44.9868 54.8468 44.9868 55.6696ZM36.4284 52.2768H23.5714V48.4266H36.4286V52.2768H36.4284ZM52.5 43.8854C52.5 45.3554 51.304 46.5514 49.834 46.5514H10.166C8.69602 46.5514 7.5 45.3554 7.5 43.8854V19.0946C7.5 17.6245 8.69602 16.4286 10.166 16.4286H12.5665C12.5749 16.8143 12.6166 17.1949 12.6921 17.567H10.0757C9.28312 17.567 8.63836 18.2118 8.63836 19.0043V41.419C8.63836 41.9367 9.05812 42.3565 9.57586 42.3565H50.424C50.9418 42.3565 51.3615 41.9367 51.3615 41.419V19.0042C51.3615 18.2116 50.7168 17.5669 49.9242 17.5669H47.3078C47.3832 17.1948 47.425 16.8141 47.4334 16.4285H49.8339C51.3039 16.4285 52.4999 17.6245 52.4999 19.0945V43.8854H52.5ZM22.1787 23.683L22.9774 23.9905C23.1087 24.4107 23.2774 24.8179 23.4823 25.2081L23.1345 25.9909C22.9771 26.3454 23.0541 26.7601 23.3284 27.0345L24.761 28.467C25.0352 28.7412 25.4501 28.8184 25.8043 28.6608L26.5876 28.313C26.9777 28.5177 27.3846 28.6864 27.8046 28.8176L28.1122 29.6168C28.2514 29.9787 28.5993 30.2175 28.9871 30.2175H31.013C31.4009 30.2175 31.7486 29.9787 31.8879 29.6168L32.1954 28.8179C32.6156 28.6867 33.0229 28.5179 33.4131 28.3131L34.1959 28.6608C34.5504 28.8183 34.9652 28.7411 35.2393 28.467L36.6718 27.0345C36.9461 26.7602 37.023 26.3455 36.8657 25.991L36.5177 25.2077C36.7225 24.8175 36.8913 24.4106 37.0225 23.9907L37.8216 23.6831C38.1834 23.5439 38.4223 23.1961 38.4223 22.8082V20.7823C38.4223 20.3944 38.1834 20.0467 37.8216 19.9073L37.0227 19.5998C36.8916 19.1796 36.7227 18.7726 36.518 18.3824L36.8657 17.5996C37.023 17.2452 36.9461 16.8304 36.6718 16.5561L35.2393 15.1236C34.9651 14.8494 34.5504 14.7723 34.1959 14.9297L33.4125 15.2776C33.0224 15.0729 32.6155 14.9041 32.1955 14.773L31.8879 13.9738C31.7487 13.6119 31.4009 13.3731 31.013 13.3731H28.9871C28.5993 13.3731 28.2516 13.6119 28.1122 13.9738L27.8046 14.773C27.3846 14.9043 26.9776 15.0729 26.5875 15.2776L25.8042 14.9297C25.4497 14.7722 25.0349 14.8493 24.7608 15.1236L23.3283 16.5561C23.0541 16.8304 22.9771 17.2451 23.1345 17.5995L23.4823 18.3826C23.2775 18.7729 23.1087 19.1798 22.9775 19.5998L22.1786 19.9075C21.8167 20.0468 21.5779 20.3945 21.5779 20.7824V22.8083C21.5779 23.196 21.8167 23.5437 22.1787 23.683ZM23.4529 21.4259L24.0923 21.1796C24.3809 21.0686 24.596 20.8225 24.6675 20.5218C24.8018 19.958 25.0243 19.421 25.3293 18.9258C25.4913 18.6626 25.5131 18.3363 25.3877 18.0538L25.1093 17.4266L25.6315 16.9044L26.2587 17.183C26.541 17.3082 26.8673 17.2866 27.1307 17.1244C27.6258 16.8195 28.1629 16.5969 28.7266 16.4627C29.0273 16.3911 29.2734 16.176 29.3844 15.8875L29.6307 15.2479H30.3691L30.6155 15.8875C30.7264 16.1759 30.9725 16.3911 31.2732 16.4627C31.837 16.5969 32.374 16.8196 32.8692 17.1245C33.1327 17.2867 33.4589 17.3082 33.7412 17.183L34.3684 16.9044L34.8906 17.4266L34.6123 18.0533C34.4869 18.3359 34.5087 18.6621 34.6707 18.9254C34.9757 19.4204 35.1983 19.9576 35.3326 20.5219C35.4041 20.8226 35.6194 21.0687 35.9078 21.1796L36.547 21.4257V22.1643L35.9074 22.4105C35.6189 22.5214 35.4038 22.7677 35.3323 23.0684C35.1981 23.632 34.9754 24.169 34.6705 24.6643C34.5084 24.9277 34.4866 25.2539 34.612 25.5363L34.8906 26.1635L34.3685 26.6857L33.7417 26.4074C33.4594 26.2819 33.133 26.3037 32.8696 26.4659C32.3745 26.7708 31.8374 26.9934 31.2732 27.1276C30.9725 27.1992 30.7263 27.4144 30.6154 27.7029L30.3691 28.3423H29.6307L29.3844 27.7027C29.2734 27.4143 29.0273 27.199 28.7266 27.1274C28.1627 26.9932 27.6258 26.7705 27.1307 26.4657C26.8672 26.3036 26.541 26.2818 26.2587 26.4073L25.6315 26.6857L25.1093 26.1635L25.3877 25.5368C25.5132 25.2541 25.4913 24.9278 25.3291 24.6646C25.0242 24.1697 24.8017 23.6326 24.6675 23.0684C24.5959 22.7677 24.3807 22.5214 24.0921 22.4104L23.4529 22.1643V21.4259ZM30 26.2657C32.465 26.2657 34.4706 24.2602 34.4706 21.7951C34.4706 19.3301 32.465 17.3246 30 17.3246C27.535 17.3246 25.5295 19.3301 25.5295 21.7951C25.5295 24.2602 27.535 26.2657 30 26.2657ZM30 19.1996C31.4312 19.1996 32.5956 20.364 32.5956 21.7951C32.5956 23.2262 31.4311 24.3907 30 24.3907C28.5689 24.3907 27.4045 23.2263 27.4045 21.7951C27.4045 20.3639 28.5688 19.1996 30 19.1996ZM42.5648 27.4561L44.0367 25.5714C44.2144 25.3439 44.487 25.2109 44.7756 25.2109C45.0642 25.2109 45.3368 25.3439 45.5145 25.5714L46.9863 27.4561C47.3051 27.8641 47.2327 28.4534 46.8245 28.772C46.6532 28.9058 46.45 28.9706 46.2482 28.9706C46.0591 28.9706 45.8721 28.9124 45.7132 28.8019V33.775C45.7132 34.2927 45.2934 34.7125 44.7757 34.7125C44.258 34.7125 43.8382 34.2927 43.8382 33.775V28.8038C43.5097 29.0317 43.0586 29.0311 42.7269 28.772C42.3185 28.4534 42.2461 27.8643 42.5648 27.4561ZM14.2869 31.1195V26.1484C14.2869 25.6307 14.7067 25.2109 15.2244 25.2109C15.7421 25.2109 16.1619 25.6307 16.1619 26.1484V31.1197C16.4904 30.8918 16.9417 30.8923 17.2733 31.1514C17.6814 31.4701 17.7539 32.0592 17.4352 32.4673L15.9632 34.352C15.7855 34.5795 15.5129 34.7125 15.2243 34.7125C14.9355 34.7125 14.6631 34.5795 14.4853 34.352L13.0136 32.4673C12.6949 32.0592 12.7673 31.47 13.1755 31.1514C13.5075 30.8924 13.9586 30.8918 14.2869 31.1195Z" fill="#00B5FF"/>
</svg>
