<svg width="61" height="61" viewBox="0 0 61 61" fill="none" xmlns="http://www.w3.org/2000/svg">
<path d="M7.76953 50.4385V60.0002" stroke="#00B5FF" stroke-width="2" stroke-miterlimit="10" stroke-linecap="round" stroke-linejoin="round"/>
<path d="M33.4647 16.5888V7.17141C33.4647 3.87093 30.7891 1.19531 27.4886 1.19531H21.5126C19.6315 1.19531 17.8603 2.08097 16.7317 3.58575H13.146C9.84554 3.58575 7.16992 6.26137 7.16992 9.56185V16.5888" stroke="#00B5FF" stroke-width="2" stroke-miterlimit="10" stroke-linecap="round" stroke-linejoin="round"/>
<path d="M23.3077 12.5498C21.4143 14.8218 18.6096 16.1355 15.6522 16.1355H11.3555V23.3068C11.3555 28.2575 15.3689 32.2709 20.3196 32.2709C25.2703 32.2709 29.2838 28.2575 29.2838 23.3068V18.5259C29.2838 15.2254 26.6081 12.5498 23.3077 12.5498Z" stroke="#00B5FF" stroke-width="2" stroke-miterlimit="10" stroke-linecap="round" stroke-linejoin="round"/>
<path d="M29.2838 21.5142H31.973C33.4582 21.5142 34.6623 20.3102 34.6623 18.825C34.6623 17.3398 33.4582 16.1357 31.973 16.1357H28.7852" stroke="#00B5FF" stroke-width="2" stroke-miterlimit="10" stroke-linecap="round" stroke-linejoin="round"/>
<path d="M11.355 16.1357H8.66581C7.18063 16.1357 5.97656 17.3398 5.97656 18.825C5.97656 20.3102 7.18063 21.5142 8.66581 21.5142H11.355" stroke="#00B5FF" stroke-width="2" stroke-miterlimit="10" stroke-linecap="round" stroke-linejoin="round"/>
<path d="M25.0992 43.8645L28.6849 37.0995L24.5016 34.3027L20.3184 41.474L25.0992 43.8645Z" stroke="#00B5FF" stroke-width="2" stroke-miterlimit="10" stroke-linecap="round" stroke-linejoin="round"/>
<path d="M15.5388 43.8645L11.9531 37.0995L16.1364 34.3027L20.3197 41.474L15.5388 43.8645Z" stroke="#00B5FF" stroke-width="2" stroke-miterlimit="10" stroke-linecap="round" stroke-linejoin="round"/>
<path d="M16.1367 31.2349V34.3028" stroke="#00B5FF" stroke-width="2" stroke-miterlimit="10" stroke-linecap="round" stroke-linejoin="round"/>
<path d="M24.5039 34.3028V31.2349" stroke="#00B5FF" stroke-width="2" stroke-miterlimit="10" stroke-linecap="round" stroke-linejoin="round"/>
<path d="M15.5391 59.9997L18.5271 47.4499L17.202 43.0327" stroke="#00B5FF" stroke-width="2" stroke-miterlimit="10" stroke-linecap="round" stroke-linejoin="round"/>
<path d="M23.9652 55.2279L22.1133 47.4499L23.4384 43.0327" stroke="#00B5FF" stroke-width="2" stroke-miterlimit="10" stroke-linecap="round" stroke-linejoin="round"/>
<path d="M22.113 47.4497H18.5273" stroke="#00B5FF" stroke-width="2" stroke-miterlimit="10" stroke-linecap="round" stroke-linejoin="round"/>
<path d="M57.6095 55.2192H33.7051V60.0001H55.219C56.5393 60.0001 57.6095 58.9299 57.6095 57.6097V55.2192Z" stroke="#00B5FF" stroke-width="2" stroke-miterlimit="10" stroke-linecap="round" stroke-linejoin="round"/>
<path d="M33.7041 55.2192H24.1424C22.8222 55.2192 21.752 56.2894 21.752 57.6097V60.0001H33.7041" stroke="#00B5FF" stroke-width="2" stroke-miterlimit="10" stroke-linecap="round" stroke-linejoin="round"/>
<path d="M54.0238 38.4858H59.9999L57.6095 55.2189H33.7051L36.0955 38.4858H43.2668" stroke="#00B5FF" stroke-width="2" stroke-miterlimit="10" stroke-linecap="round" stroke-linejoin="round"/>
<path d="M28.6855 37.0996L33.9448 38.3619C34.6829 38.539 35.3704 38.8279 35.993 39.2061" stroke="#00B5FF" stroke-width="2" stroke-miterlimit="10" stroke-linecap="round" stroke-linejoin="round"/>
<path d="M11.9523 37.0996L6.69308 38.3618C3.46862 39.1357 1.19531 42.0192 1.19531 45.3351V60H21.7531" stroke="#00B5FF" stroke-width="2" stroke-miterlimit="10" stroke-linecap="round" stroke-linejoin="round"/>
<path d="M46.8533 49.2428C48.1735 49.2428 49.2438 48.1726 49.2438 46.8524C49.2438 45.5321 48.1735 44.4619 46.8533 44.4619C45.5331 44.4619 44.4629 45.5321 44.4629 46.8524C44.4629 48.1726 45.5331 49.2428 46.8533 49.2428Z" stroke="#00B5FF" stroke-width="2" stroke-miterlimit="10" stroke-linecap="round" stroke-linejoin="round"/>
<path d="M44.4625 23.4618V27.7292C44.4625 28.7193 45.2652 29.5221 46.2553 29.5221H52.2314C53.2216 29.5221 54.0243 28.7193 54.0243 27.7292V23.4618C56.8823 21.8085 58.8051 18.7186 58.8051 15.1794C58.8051 9.89859 54.5242 5.61768 49.2434 5.61768C43.9626 5.61768 39.6816 9.89859 39.6816 15.1794C39.6816 18.7186 41.6045 21.8086 44.4625 23.4618Z" stroke="#00B5FF" stroke-width="2" stroke-miterlimit="10" stroke-linecap="round" stroke-linejoin="round"/>
<path d="M51.0367 23.4615L52.8295 13.9839L49.2439 16.3743L45.6582 13.9839L47.451 23.4615" stroke="#00B5FF" stroke-width="2" stroke-miterlimit="10" stroke-linecap="round" stroke-linejoin="round"/>
<path d="M44.4629 23.4614H54.0246" stroke="#00B5FF" stroke-width="2" stroke-miterlimit="10" stroke-linecap="round" stroke-linejoin="round"/>
</svg>
