<svg width="62" height="58" viewBox="0 0 62 58" fill="none" xmlns="http://www.w3.org/2000/svg">
<path d="M17.8294 43.0537H5.14648V56.122H17.8294V43.0537Z" stroke="#00B5FF" stroke-width="2" stroke-miterlimit="10" stroke-linecap="round" stroke-linejoin="round"/>
<path d="M56.8528 29.9854H44.1699V56.1219H56.8528V29.9854Z" stroke="#00B5FF" stroke-width="2" stroke-miterlimit="10" stroke-linecap="round" stroke-linejoin="round"/>
<path d="M37.3411 36.3721H24.6582V56.122H37.3411V36.3721Z" stroke="#00B5FF" stroke-width="2" stroke-miterlimit="10" stroke-linecap="round" stroke-linejoin="round"/>
<path d="M1 56.1221H61" stroke="#00B5FF" stroke-width="2" stroke-miterlimit="10" stroke-linecap="round" stroke-linejoin="round"/>
<path d="M11.4883 36.0169L50.5127 20.1533" stroke="#00B5FF" stroke-width="2" stroke-miterlimit="10" stroke-linecap="round" stroke-linejoin="round"/>
<path d="M48.3993 23.5735L51.9756 19.5544L46.6094 19.1704" stroke="#00B5FF" stroke-width="2" stroke-miterlimit="10" stroke-linecap="round" stroke-linejoin="round"/>
<path d="M24.4524 6.98584H1V24.9193H24.4524V6.98584Z" stroke="#00B5FF" stroke-width="2" stroke-miterlimit="10" stroke-linecap="round" stroke-linejoin="round"/>
<path d="M17.9845 6.98573V1H7.46875V6.98573" stroke="#00B5FF" stroke-width="2" stroke-miterlimit="10" stroke-linecap="round" stroke-linejoin="round"/>
<path d="M1 10.9888C1 13.3157 2.88634 15.2022 5.21341 15.2022H20.239C22.566 15.2022 24.4524 13.3158 24.4524 10.9888" stroke="#00B5FF" stroke-width="2" stroke-miterlimit="10" stroke-linecap="round" stroke-linejoin="round"/>
<path d="M7.4668 15.2021V17.5617" stroke="#00B5FF" stroke-width="2" stroke-miterlimit="10" stroke-linecap="round" stroke-linejoin="round"/>
<path d="M17.9824 15.2021V17.5617" stroke="#00B5FF" stroke-width="2" stroke-miterlimit="10" stroke-linecap="round" stroke-linejoin="round"/>
</svg>
