<svg width="60" height="60" viewBox="0 0 60 60" fill="none" xmlns="http://www.w3.org/2000/svg">
<g clip-path="url(#clip0_55480_37944)">
<path d="M46.9978 8.00062C43.1319 8.00062 39.998 11.1346 39.998 15.0004C39.998 18.8662 43.132 22.0001 46.9978 22.0001C50.8636 22.0001 53.9976 18.8662 53.9976 15.0004C53.9931 11.1363 50.8618 8.00507 46.9978 8.00062ZM46.9978 20.0003C44.2365 20.0003 41.9979 17.7617 41.9979 15.0004C41.9979 12.239 44.2365 10.0005 46.9978 10.0005C49.7591 10.0005 51.9977 12.239 51.9977 15.0004C51.9943 17.7604 49.7577 19.997 46.9978 20.0003Z" fill="#00B5FF"/>
<path d="M48.9978 14.0004H47.9979V13.0005C47.9979 12.4482 47.5501 12.0006 46.998 12.0006C46.4458 12.0006 45.998 12.4483 45.998 13.0005V14.0004H44.998C44.4457 14.0004 43.998 14.4482 43.998 15.0004C43.998 15.5527 44.4458 16.0003 44.998 16.0003H45.9979V17.0002C45.9979 17.5525 46.4456 18.0002 46.9978 18.0002C47.5501 18.0002 47.9978 17.5524 47.9978 17.0002V16.0003H48.9977C49.55 16.0003 49.9976 15.5525 49.9976 15.0004C49.9979 14.4481 49.5501 14.0004 48.9978 14.0004Z" fill="#00B5FF"/>
<path d="M55.9984 4.00077H52.9985V3.00084C52.9985 1.34409 51.6553 0.000930786 49.9986 0.000930786H43.9988C42.342 0.000930786 40.9988 1.34409 40.9988 3.00084V4.00077H37.9989C35.7899 4.00077 33.9991 5.79158 33.9991 8.00062V17.4793C31.2885 16.0516 28.1566 15.6406 25.1694 16.3203C25.739 14.2838 26.0185 12.1771 25.9994 10.0625V4.58271C26.0095 3.50731 25.164 2.618 24.0894 2.57382C20.0896 2.41481 18.1096 1.19187 17.2816 0.473886C16.5425 -0.156565 15.4548 -0.156565 14.7156 0.473886C13.8896 1.18883 11.9057 2.41188 7.91578 2.57382C6.8391 2.61542 5.99033 3.50532 5.99982 4.58271V10.0626C5.99982 17.6684 9.13872 23.2412 14.8315 25.7532C15.0078 25.8312 15.1919 25.8906 15.3805 25.9301C14.5289 29.3412 15.1142 32.9523 16.9994 35.9198C15.6812 35.3169 14.2491 35.0032 12.7995 34.9998H10.8156C10.3934 33.8055 9.26645 33.0051 7.99969 32.9998H2.99991C1.34316 32.9998 0 34.343 0 35.9998V56.9991C0 58.6559 1.34316 59.9991 2.99991 59.9991H7.9998C8.84822 59.9964 9.6555 59.6327 10.2197 58.9991H35.299C36.7664 58.9999 38.2056 58.5965 39.4589 57.8331L58.1984 46.4255C59.0847 45.8904 59.7087 45.011 59.9209 43.9977C60.1331 42.9844 59.9146 41.9285 59.3174 41.0827C59.2969 41.0477 59.2738 41.0143 59.2484 40.9828C58.2806 39.6982 56.6021 39.1726 55.0745 39.6758L36.5571 45.8437C36.2518 45.9473 35.9316 45.9999 35.6091 45.9997H34.7991C35.3557 44.6754 35.2723 43.1686 34.5731 41.9138C34.3104 41.4767 33.9925 41.0754 33.627 40.7198C39.1503 38.0882 42.0745 31.9468 40.6358 26.0002H55.9984C58.2074 26.0002 59.9982 24.2094 59.9982 22.0004V8.00062C59.9982 5.79158 58.2074 4.00077 55.9984 4.00077ZM42.9987 3.00073C42.9987 2.44844 43.4465 2.00079 43.9986 2.00079H49.9985C50.5507 2.00079 50.9984 2.44855 50.9984 3.00073V4.00066H42.9986V3.00073H42.9987ZM15.6435 23.9251C9.32574 21.1382 7.9998 14.8484 7.9998 10.0626L7.98984 4.5717C12.5897 4.38877 14.9996 2.87171 15.9756 1.98978C16.9995 2.87581 19.4054 4.38865 23.9993 4.58271V10.0626C24.0356 12.4638 23.6229 14.8507 22.7823 17.1004C19.7224 18.4486 17.2952 20.9177 15.9995 24.0002C15.8769 24.0008 15.7555 23.9753 15.6435 23.9251ZM7.9998 57.9992H2.99991C2.44762 57.9992 1.99998 57.5514 1.99998 56.9993V35.9999C1.99998 35.4476 2.44774 34.9999 2.99991 34.9999H7.9998C8.55209 34.9999 8.99974 35.4477 8.99974 35.9999V56.9993C8.99974 57.5514 8.55209 57.9992 7.9998 57.9992ZM26.7202 45.9995C24.7459 46.0006 22.816 46.5848 21.1723 47.6784L20.4414 48.1684C19.9825 48.4766 19.8602 49.0984 20.1683 49.5574C20.4765 50.0163 21.0983 50.1385 21.5573 49.8304L22.2813 49.3425C23.5963 48.4674 25.1406 48.0002 26.7201 47.9995H35.6088C36.1486 48.0001 36.6847 47.912 37.1957 47.7386L55.6982 41.5698C56.384 41.3439 57.1384 41.5619 57.5981 42.1188C57.6131 42.1437 57.6301 42.1668 57.6471 42.1907C57.9425 42.5823 58.0577 43.081 57.964 43.5626C57.8704 44.0441 57.5768 44.4633 57.1562 44.7157L38.4187 56.1253C37.4787 56.6976 36.3992 57 35.2988 56.9993H10.9997V36.9998H12.7997C14.6444 37.002 16.4338 37.6299 17.8755 38.7808C19.672 40.2139 21.9011 40.9961 24.1993 40.9997H29.4302C30.8339 41.0034 32.134 41.7396 32.8591 42.9416C33.3641 43.9349 33.2391 45.1319 32.5401 45.9995H26.7202ZM31.5661 39.3997C30.8853 39.1371 30.162 39.0015 29.4322 38.9998H24.1993C23.8985 38.9978 23.5981 38.9788 23.2994 38.9428C18.542 36.6943 16.0434 31.3915 17.3382 26.2914C18.633 21.1913 23.3584 17.7224 28.6121 18.0154C33.8658 18.3084 38.1763 22.2813 38.896 27.4937C39.6156 32.7062 36.5429 37.6983 31.5651 39.4038L31.5661 39.3997ZM57.9983 22.0002C57.9983 23.1048 57.1029 24.0002 55.9983 24.0002H39.9988C39.1335 21.9454 37.7565 20.1463 35.9989 18.7744V8.00062C35.9989 6.89604 36.8943 6.00064 37.9989 6.00064H55.9984C57.103 6.00064 57.9984 6.89604 57.9984 8.00062L57.9983 22.0002Z" fill="#00B5FF"/>
<path d="M20.5992 7.20061C20.1574 6.86921 19.5306 6.95874 19.1992 7.40064L13.8913 14.4784L12.7064 13.2935C12.3141 12.9145 11.6903 12.9199 11.3046 13.3057C10.9189 13.6914 10.9135 14.3151 11.2924 14.7074L13.2924 16.7074C13.4799 16.8949 13.7342 17.0004 13.9994 17.0004H14.0704C14.36 16.9791 14.626 16.8333 14.7994 16.6004L20.7992 8.6006C20.9584 8.38838 21.0267 8.12179 20.9892 7.85918C20.9516 7.59669 20.8113 7.35974 20.5992 7.20061Z" fill="#00B5FF"/>
<path d="M27.9998 24.0001C29.1044 24.0001 29.9998 24.8955 29.9998 26.0001C29.9998 26.5524 30.4476 27 30.9998 27C31.5519 27 31.9997 26.5523 31.9997 26.0001C31.9929 24.1817 30.7603 22.5968 28.9998 22.1422V22.0001C28.9998 21.4478 28.552 21.0002 27.9998 21.0002C27.4476 21.0002 26.9999 21.448 26.9999 22.0001V22.1422C25.0517 22.6436 23.781 24.5164 24.0349 26.512C24.2889 28.5075 25.9881 30.0024 27.9998 29.9999C29.1044 29.9999 29.9998 30.8953 29.9998 31.9999C29.9998 33.1045 29.1044 33.9999 27.9998 33.9999C26.8953 33.9999 25.9999 33.1045 25.9999 31.9999C25.9999 31.4476 25.5521 31 24.9999 31C24.4478 31 24 31.4477 24 31.9999C24.0068 33.8183 25.2392 35.4032 26.9999 35.8578V35.9999C26.9999 36.5522 27.4477 36.9998 27.9998 36.9998C28.5521 36.9998 28.9998 36.5522 28.9998 35.9999V35.8578C30.948 35.3564 32.2187 33.4836 31.9648 31.4881C31.7108 29.4924 30.0115 27.9976 27.9998 28.0001C26.8953 28.0001 25.9999 27.1047 25.9999 26.0001C26 24.8955 26.8954 24.0001 27.9998 24.0001Z" fill="#00B5FF"/>
</g>
<defs>
<clipPath id="clip0_55480_37944">
<rect width="60" height="60" fill="white"/>
</clipPath>
</defs>
</svg>
