<svg width="60" height="61" viewBox="0 0 60 61" fill="none" xmlns="http://www.w3.org/2000/svg">
<path d="M15.7683 42.8642L13.825 44.8075C13.4467 44.6255 13.0286 44.5162 12.5815 44.5162C12.1344 44.5162 11.7163 44.6255 11.3379 44.8075L8.42698 41.8965L7.05859 43.2649L9.96956 46.1758C9.78763 46.5542 9.67827 46.9723 9.67827 47.4194C9.67827 49.02 10.9809 50.3226 12.5815 50.3226C14.1821 50.3226 15.4847 49.02 15.4847 47.4194C15.4847 46.9723 15.3754 46.5542 15.1934 46.1758L17.1367 44.2326L15.7683 42.8642ZM12.5815 48.3871C12.0483 48.3871 11.6138 47.9526 11.6138 47.4194C11.6138 46.8862 12.0483 46.4516 12.5815 46.4516C13.1147 46.4516 13.5492 46.8862 13.5492 47.4194C13.5492 47.9526 13.1147 48.3871 12.5815 48.3871Z" fill="#00B5FF"/>
<path d="M58.0645 19.3548H53.851C49.6452 9.93194 40.3626 3.87097 30 3.87097C27.5148 3.87097 25.0742 4.23774 22.7139 4.92194L19.4216 1.62968L17.6226 3.43645C17.2965 3.76355 16.7768 3.84484 16.2581 3.62806C15.781 3.42968 15.4839 3.01935 15.4839 2.55387V0H9.67742V2.55387C9.67742 3.01839 9.38032 3.42968 8.86258 3.64548C8.38452 3.84484 7.8629 3.76355 7.53968 3.43645L5.74065 1.62968L1.62968 5.74065L3.43645 7.53871C3.76452 7.86484 3.84581 8.38452 3.62806 8.90323C3.42968 9.38032 3.01935 9.67742 2.55387 9.67742H0V15.4839H2.55387C3.01839 15.4839 3.42968 15.781 3.64548 16.2987C3.84581 16.7768 3.76452 17.2965 3.43645 17.6216L1.62968 19.4206L4.92194 22.7129C4.23774 25.0732 3.87097 27.5148 3.87097 30C3.87097 32.5335 4.24935 35.0274 4.96258 37.4313C1.9529 39.7316 0 43.3471 0 47.4194C0 54.3561 5.64387 60 12.5806 60C16.6529 60 20.2684 58.0471 22.5687 55.0374C24.9735 55.7506 27.4665 56.129 30 56.129C37.2097 56.129 44.1697 53.1058 49.0935 47.8365L47.6797 46.5155C43.1206 51.3948 36.6755 54.1936 30 54.1936C27.8477 54.1936 25.7284 53.8955 23.6748 53.341C24.2797 52.2116 24.7103 50.9777 24.9474 49.6771C26.5926 50.0981 28.2852 50.3226 30 50.3226C37.0423 50.3226 43.6132 46.6248 47.3013 40.6452H50.3226V52.2581H45.6106L51.2903 60.7771L56.97 52.2581H52.2581V40.6452H58.0645C59.1319 40.6452 60 39.7771 60 38.7097V21.2903C60 20.2229 59.1319 19.3548 58.0645 19.3548ZM51.2903 57.2874L49.2281 54.1936H53.3535L51.2903 57.2874ZM51.7219 19.3548H47.3023C43.6132 13.3752 37.0423 9.67742 30 9.67742C28.3597 9.67742 26.7387 9.87968 25.1613 10.2648V9.67742H22.6074C22.1429 9.67742 21.7316 9.38032 21.5158 8.86258C21.3155 8.38452 21.3968 7.86484 21.7248 7.53968L22.1497 7.11677C24.6706 6.25258 27.3097 5.80645 30 5.80645C39.3039 5.80645 47.67 11.0806 51.7219 19.3548ZM5.41645 15.5177C4.92097 14.3216 3.79742 13.5484 2.55387 13.5484H1.93548V11.6129H2.55387C3.79742 11.6129 4.92097 10.8397 5.43 9.61161C5.9371 8.40387 5.69129 7.05194 4.8029 6.16645L4.37032 5.73774L5.73774 4.37032L6.16742 4.80194C7.0529 5.69032 8.40484 5.93613 9.64355 5.41548C10.8397 4.92097 11.6129 3.79742 11.6129 2.55387V1.93548H13.5484V2.55387C13.5484 3.79742 14.3216 4.92097 15.5497 5.43C16.7594 5.93806 18.1094 5.69129 18.9948 4.8029L19.4245 4.37129L20.7919 5.73871L20.3603 6.16839C19.4719 7.0529 19.2261 8.40484 19.7468 9.64452C20.2403 10.8397 21.3639 11.6129 22.6074 11.6129H23.2258V13.5484H22.6074C21.4123 13.5484 20.341 14.2461 19.8116 15.3677L19.7313 15.5497C19.2242 16.7574 19.47 18.1094 20.3584 18.9948L20.79 19.4245L19.4226 20.7919L18.9929 20.3603C18.1074 19.4729 16.7565 19.2271 15.5168 19.7458C14.3216 20.2403 13.5484 21.3639 13.5484 22.6074V23.2258H11.6129V22.6074C11.6129 21.3639 10.8397 20.2403 9.61161 19.7313C8.4029 19.2242 7.05194 19.47 6.16645 20.3584L5.73677 20.79L4.36935 19.4226L4.80097 18.9929C5.69032 18.1094 5.9371 16.7574 5.41645 15.5177ZM35.6932 25.1613H35.8065C36.3397 25.1613 36.7742 25.5958 36.7742 26.129C36.7742 26.6623 36.3397 27.0968 35.8065 27.0968H35.4513L35.6932 25.1613ZM36.5671 22.7216L36.3794 23.2839C36.2352 23.2548 36.0842 23.2452 35.9332 23.2384L35.9352 23.2258H35.8065H34.8387H32.0545C30.15 23.2258 28.4981 21.9358 28.0355 20.0874L26.1581 20.5568C26.3226 21.2139 26.5935 21.8197 26.9429 22.3655C26.3719 22.6819 25.7835 22.9655 25.1623 23.1726L25.0045 23.2258H24.1935C23.9971 23.2258 23.8055 23.2461 23.6206 23.2839L23.4329 22.7206C23.2955 22.3103 23.2258 21.8816 23.2258 21.4471C23.2258 19.2261 25.0326 17.4194 27.2535 17.4194H32.7465C34.9674 17.4194 36.7742 19.2261 36.7742 21.4471C36.7742 21.8816 36.7045 22.3103 36.5671 22.7216ZM38.7097 46.1729C37.1206 47.0294 35.4106 47.6623 33.6242 48.0242L31.9819 39.8139L32.2006 39.3765L34.2939 41.4697L35.91 36.6223C37.6423 38.1774 38.7097 40.4255 38.7097 42.8516V46.1729ZM26.9584 34.9423L28.4806 35.9574L26.551 37.8871L25.7419 35.46C26.13 35.2558 26.5374 35.0855 26.9584 34.9423ZM29.6303 38.7097L29.2423 37.9326L30 37.1748L30.7577 37.9326L30.3697 38.7097H29.6303ZM33.4481 37.8861L31.5184 35.9565L33.0474 34.9374C33.4674 35.0816 33.87 35.2577 34.2552 35.4629L33.4481 37.8861ZM31.7516 33.4761L30 34.6432L28.2484 33.4752L28.4468 32.88C28.529 32.8858 28.6084 32.9032 28.6916 32.9032H31.3074C31.3906 32.9032 31.47 32.8858 31.5523 32.88L31.7516 33.4761ZM31.3084 30.9677H28.6926C27.719 30.9677 26.8926 30.239 26.7716 29.2723L26.2181 24.8439C26.9361 24.5739 27.6281 24.2439 28.2832 23.8481C29.3284 24.6755 30.6435 25.1613 32.0545 25.1613H33.7423L33.2284 29.2723C33.1074 30.239 32.2819 30.9677 31.3084 30.9677ZM24.1935 25.1613H24.3068L24.5487 27.0968H24.1935C23.6603 27.0968 23.2258 26.6623 23.2258 26.129C23.2258 25.5958 23.6603 25.1613 24.1935 25.1613ZM21.5961 23.3332L21.929 24.3339C21.5361 24.8294 21.2903 25.4477 21.2903 26.129C21.2903 27.7297 22.5929 29.0323 24.1935 29.0323H24.7906L24.8506 29.5123C24.9977 30.6861 25.6684 31.679 26.6061 32.2819L26.3352 33.0948C23.9071 33.9194 21.9194 35.5926 20.6816 37.8077C18.4906 35.9594 15.6658 34.8387 12.5806 34.8387C12.4771 34.8387 12.3774 34.8513 12.2748 34.8542C11.8442 33.2787 11.6129 31.651 11.6129 30C11.6129 28.3548 11.8423 26.7319 12.27 25.1613H15.4839V22.6074C15.4839 22.1429 15.781 21.7306 16.2987 21.5158C16.7758 21.3145 17.2965 21.3968 17.6216 21.7248L19.4206 23.5316L21.3058 21.6465C21.3252 22.2203 21.4142 22.7884 21.5961 23.3332ZM23.1765 48.3871C22.9761 50.5965 22.1013 52.6123 20.7561 54.2265L19.4235 52.8939L18.0552 54.2623L19.3877 55.5948C17.7745 56.941 15.7577 57.8148 13.5484 58.0152V56.129H11.6129V58.0152C9.40355 57.8148 7.38774 56.94 5.77355 55.5948L7.10613 54.2623L5.73774 52.8939L4.40516 54.2265C3.05903 52.6123 2.18516 50.5965 1.98484 48.3871H3.87097V46.4516H1.98484C2.18516 44.2423 3.06 42.2265 4.40516 40.6123L5.73774 41.9448L7.10613 40.5765L5.77355 39.2439C7.38677 37.8977 9.40355 37.0239 11.6129 36.8235V38.7097H13.5484V36.8235C15.7577 37.0239 17.7735 37.8987 19.3877 39.2439L18.0552 40.5765L19.4235 41.9448L20.7561 40.6123C22.1023 42.2255 22.9761 44.2423 23.1765 46.4516H21.2903V48.3871H23.1765ZM5.80645 30C5.80645 27.3077 6.25258 24.6687 7.11774 22.1477L7.53871 21.7248C7.86484 21.3977 8.38452 21.3155 8.90323 21.5332C9.38129 21.7316 9.67742 22.1429 9.67742 22.6074V25.1613H10.2648C9.87968 26.7387 9.67742 28.3597 9.67742 30C9.67742 31.7148 9.90194 33.4074 10.3229 35.0526C9.02226 35.2897 7.78839 35.7203 6.65903 36.3252C6.10452 34.2716 5.80645 32.1532 5.80645 30ZM22.1226 39.2419C22.6065 38.2277 23.2684 37.3316 24.0852 36.6029L25.7071 41.4677L27.8003 39.3745L28.019 39.8119L26.3787 48.0155C25.9645 47.9323 25.5542 47.8355 25.1468 47.7242C25.1487 47.6226 25.1613 47.5229 25.1613 47.4194C25.1613 44.2974 24.0116 41.4435 22.1226 39.2419ZM28.2948 48.3L29.8258 40.6452H30.1752L31.7052 48.2971C31.14 48.3503 30.5729 48.3871 30 48.3871C29.4281 48.3871 28.86 48.3523 28.2948 48.3ZM40.6452 44.97V42.8516C40.6452 38.4474 37.8 34.5077 33.6648 33.0958L33.3939 32.2819C34.3316 31.679 35.0023 30.6861 35.1494 29.5123L35.2094 29.0323H35.8065C37.4071 29.0323 38.7097 27.7297 38.7097 26.129C38.7097 25.4477 38.4639 24.8294 38.07 24.3339L38.4029 23.3342C38.6061 22.7255 38.7087 22.0906 38.7087 21.4471C38.7097 18.1587 36.0348 15.4839 32.7465 15.4839H27.2535C25.1748 15.4839 23.3439 16.5542 22.2755 18.1713L21.7239 17.6226C21.3977 17.2974 21.3145 16.7787 21.5139 16.3016L21.5603 16.1952C21.7684 15.7568 22.169 15.4839 22.6074 15.4839H25.1613V12.27C26.7319 11.8423 28.3548 11.6129 30 11.6129C35.9632 11.6129 41.5529 14.5452 44.9816 19.3548H44.5161C43.4487 19.3548 42.5806 20.2229 42.5806 21.2903V38.7097C42.5806 39.7771 43.4487 40.6452 44.5161 40.6452H44.9816C43.7768 42.3348 42.3068 43.7903 40.6452 44.97ZM44.5161 38.7097V21.2903H58.0645L58.0655 38.7097H44.5161Z" fill="#00B5FF"/>
<path d="M46.4512 23.2256H56.1286V25.1611H46.4512V23.2256Z" fill="#00B5FF"/>
<path d="M46.4512 27.0967H56.1286V29.0322H46.4512V27.0967Z" fill="#00B5FF"/>
<path d="M46.4512 30.9678H56.1286V32.9033H46.4512V30.9678Z" fill="#00B5FF"/>
<path d="M46.4512 34.8389H56.1286V36.7744H46.4512V34.8389Z" fill="#00B5FF"/>
<path d="M12.581 15.4837C14.1816 15.4837 15.4842 14.1811 15.4842 12.5805C15.4842 10.9798 14.1816 9.67725 12.581 9.67725C10.9803 9.67725 9.67773 10.9798 9.67773 12.5805C9.67773 14.1811 10.9803 15.4837 12.581 15.4837ZM12.581 11.6127C13.1142 11.6127 13.5487 12.0472 13.5487 12.5805C13.5487 13.1137 13.1142 13.5482 12.581 13.5482C12.0477 13.5482 11.6132 13.1137 11.6132 12.5805C11.6132 12.0472 12.0477 11.6127 12.581 11.6127Z" fill="#00B5FF"/>
<path d="M12.5808 19.355C16.3163 19.355 19.355 16.3163 19.355 12.5808C19.355 8.84535 16.3163 5.80664 12.5808 5.80664C8.84535 5.80664 5.80664 8.84535 5.80664 12.5808C5.80664 16.3163 8.84535 19.355 12.5808 19.355ZM12.5808 7.74212C15.2489 7.74212 17.4195 9.91277 17.4195 12.5808C17.4195 15.2489 15.2489 17.4195 12.5808 17.4195C9.91277 17.4195 7.74212 15.2489 7.74212 12.5808C7.74212 9.91277 9.91277 7.74212 12.5808 7.74212Z" fill="#00B5FF"/>
</svg>
