<svg width="60" height="60" viewBox="0 0 60 60" fill="none" xmlns="http://www.w3.org/2000/svg">
<g clip-path="url(#clip0_55573_38641)">
<path d="M30 14C26.6862 14 24 16.6862 24 20C24.0032 23.3124 26.6876 25.9967 30 26C33.3137 26 36 23.3137 36 20C36 16.6862 33.3137 14 30 14ZM30 24C27.7909 24 26 22.2091 26 20C26 17.7909 27.7909 16 30 16C32.2091 16 34 17.7909 34 20C34 22.2091 32.2092 24 30 24Z" fill="#02B5FF"/>
<path d="M40.7212 28.6504C40.391 28.3198 40.043 28.0075 39.6787 27.715L39.6887 27.686C42.9849 17.5142 39.2977 6.37996 30.5817 0.186093C30.2341 -0.0620311 29.7673 -0.0620311 29.4197 0.186093C20.7037 6.37996 17.0165 17.5142 20.3127 27.686L20.3227 27.715C14.8237 32.1293 13.9442 40.1655 18.3583 45.6645C18.6508 46.0289 18.9631 46.3769 19.2937 46.707C19.4812 46.8945 19.7355 47 20.0007 47C20.1081 46.9999 20.2147 46.9826 20.3167 46.949C20.6761 46.8294 20.937 46.517 20.9907 46.142L21.7457 40.858C21.8163 40.3659 22.2376 40.0004 22.7347 40H25.7807L25.0207 43.8C24.9102 44.3411 25.2593 44.8694 25.8005 44.9798C25.8663 44.9933 25.9335 45 26.0007 45H34.0007C34.5529 45.0001 35.0008 44.5525 35.0009 44.0003C35.0009 43.933 34.9942 43.8659 34.9807 43.8L34.2207 40H37.2667C37.7641 40.0005 38.1856 40.3665 38.2557 40.859L39.0107 46.142C39.0644 46.517 39.3253 46.8294 39.6847 46.949C39.7867 46.9826 39.8933 46.9999 40.0007 47C40.2659 47 40.5202 46.8945 40.7077 46.707C45.6977 41.7246 45.7037 33.6404 40.7212 28.6504ZM30.0007 2.24321C32.4041 4.07671 34.4146 6.37458 35.9127 9.0002H24.0887C25.5868 6.37458 27.5973 4.07671 30.0007 2.24321ZM22.7347 38.0001C21.2442 38.0065 19.9823 39.1015 19.7657 40.5761L19.3327 43.6091C17.9967 41.592 17.3805 39.183 17.5837 36.7721H17.5827C17.8028 34.0934 19.0153 31.5934 20.9827 29.7622L23.6287 38.0001H22.7347ZM27.2207 43.0001L27.8207 40.0001H32.1807L32.7807 43.0001H27.2207ZM25.7297 38.0001L22.4377 27.7582L22.2177 27.0732C20.5128 21.7923 20.8208 16.0676 23.0827 11.0002H36.9187C39.1805 16.0676 39.4887 21.7923 37.7837 27.0732L37.5637 27.7582L34.2717 38.0001H25.7297ZM40.6687 43.6091L40.2357 40.5761C40.019 39.1015 38.7572 38.0065 37.2667 38.0001H36.3727L39.0207 29.7622C40.9869 31.5939 42.1984 34.0938 42.4177 36.7721C42.621 39.183 42.0048 41.592 40.6687 43.6091Z" fill="#02B5FF"/>
<path d="M25.9999 46.9201V50.18C23.5716 49.4388 20.9325 50.084 19.12 51.862C17.6005 50.0539 15.3617 49.007 13 49C12.2718 49 11.5474 49.101 10.847 49.3C10.0395 44.4957 5.87174 40.9827 0.999998 41.0001H0V43.0001H0.999998C5.08786 42.9874 8.51973 46.0756 8.93698 50.142C7.96511 50.708 7.12311 51.4723 6.46599 52.385C4.66362 50.8452 2.37062 49.9993 0 50V52C4.41624 52.005 7.99498 55.5838 7.99998 60H9.99998C10.0011 57.7849 9.26198 55.6329 7.89998 53.886C8.49361 52.9024 9.35611 52.1092 10.386 51.6C10.396 51.6 10.407 51.6 10.417 51.59C11.2225 51.2012 12.1055 50.9995 13 51C14.9381 51.009 16.753 51.9517 17.875 53.532C17.3067 54.6002 17.0065 55.7903 17 57H19C18.9991 55.9777 19.288 54.976 19.833 54.111H19.827C19.841 54.092 19.86 54.078 19.874 54.058C21.2253 52.072 23.8012 51.3329 25.9999 52.3V54.92H27.9999V46.9201H25.9999Z" fill="#02B5FF"/>
<path d="M58.9999 43.0001H59.9999V41.0001H58.9999C54.1282 40.9827 49.9605 44.4957 49.153 49.3C48.4526 49.101 47.7281 49 47 49C44.6387 49.0063 42.4 50.052 40.88 51.859C39.0675 50.081 36.4284 49.4358 34 50.177V46.9171H32V54.917H34V52.3C36.1986 51.3327 38.7744 52.0714 40.126 54.057C40.14 54.077 40.159 54.091 40.173 54.11H40.167C40.7122 54.9753 41.001 55.9773 41 57H43C42.9935 55.7903 42.6932 54.6002 42.125 53.532C43.247 51.9517 45.0618 51.009 47 51C47.8946 51.0002 48.7776 51.2025 49.583 51.592C49.593 51.597 49.604 51.598 49.614 51.602C50.6453 52.1099 51.5097 52.9024 52.105 53.886C50.7411 55.6323 50.0002 57.7843 50 60H52C52.005 55.5838 55.5837 52.005 59.9999 52V50C57.6293 49.9995 55.3365 50.8453 53.534 52.385C52.8768 51.4723 52.0348 50.708 51.063 50.142C51.4803 46.0754 54.9121 42.9874 58.9999 43.0001Z" fill="#02B5FF"/>
<path d="M27 29H25V31H27V29Z" fill="#02B5FF"/>
<path d="M31 29H29V31H31V29Z" fill="#02B5FF"/>
<path d="M35 29H33V31H35V29Z" fill="#02B5FF"/>
<path d="M13 53H11V55H13V53Z" fill="#02B5FF"/>
<path d="M2 37H0V39H2V37Z" fill="#02B5FF"/>
<path d="M58 46H56V48H58V46Z" fill="#02B5FF"/>
<path d="M50 42H48V44H50V42Z" fill="#02B5FF"/>
<path d="M39 58H37V60H39V58Z" fill="#02B5FF"/>
<path d="M60 35H58V37H60V35Z" fill="#02B5FF"/>
</g>
<defs>
<clipPath id="clip0_55573_38641">
<rect width="60" height="60" fill="white"/>
</clipPath>
</defs>
</svg>
