<svg xmlns="http://www.w3.org/2000/svg" version="1.1" xmlns:xlink="http://www.w3.org/1999/xlink" width="512" height="512" x="0" y="0" viewBox="0 0 512 512" style="enable-background:new 0 0 512 512" xml:space="preserve" class=""><g><path d="M388.6 65.45h-26.21V39.98c0-3.31-2.69-6-6-6H44.72c-3.31 0-6 2.69-6 6v31.54C25.2 74.3 15 86.3 15 100.64s10.2 26.33 23.72 29.12v10.7C25.2 143.23 15 155.23 15 169.56c0 14.34 10.2 26.33 23.72 29.12v10.7C25.2 212.16 15 224.15 15 238.49s10.2 26.33 23.72 29.12v10.69C25.2 281.08 15 293.08 15 307.42s10.2 26.33 23.72 29.12v10.69C25.2 350.01 15 362.01 15 376.34s10.2 26.33 23.72 29.12v35.09c0 3.31 2.69 6 6 6h26.21v25.47c0 3.31 2.69 6 6 6H388.6c3.31 0 6-2.69 6-6V71.45c0-3.31-2.68-6-6-6zM27 100.64c0-7.67 4.9-14.19 11.72-16.66v33.31C31.9 114.83 27 108.3 27 100.64zm0 68.92c0-7.66 4.9-14.19 11.72-16.66v33.31C31.9 183.75 27 177.23 27 169.56zm0 68.93c0-7.67 4.9-14.19 11.72-16.66v33.31C31.9 252.68 27 246.16 27 238.49zm0 68.93c0-7.67 4.9-14.19 11.72-16.66v33.31C31.9 321.61 27 315.08 27 307.42zm0 68.92c0-7.67 4.9-14.19 11.72-16.66V393C31.9 390.53 27 384.01 27 376.34zm23.72-16.69c4.25 1.52 7.81 4.63 9.9 8.85a6.003 6.003 0 0 0 10.76-5.32c-4.14-8.38-11.77-14.15-20.66-15.96v-56.49c5.15 1.83 9.25 5.98 10.94 11.45a6.003 6.003 0 0 0 7.5 3.97 6.003 6.003 0 0 0 3.97-7.5c-3.26-10.58-11.9-18.2-22.41-20.33v-56.48c5.98 2.18 10.56 7.49 11.53 14.03.48 3.28 3.54 5.54 6.81 5.06 3.28-.48 5.54-3.54 5.06-6.81-1.84-12.43-11.45-22.22-23.4-24.72v-56.49c6.82 2.47 11.72 8.99 11.72 16.66 0 3.31 2.69 6 6 6s6-2.69 6-6c0-14.33-10.2-26.33-23.72-29.11V83.98c6.82 2.47 11.72 8.99 11.72 16.66 0 .88-.06 1.76-.19 2.62-.48 3.28 1.78 6.33 5.06 6.81a5.99 5.99 0 0 0 6.81-5.06c.21-1.44.32-2.91.32-4.38 0-14.34-10.2-26.33-23.72-29.12V45.98h299.66v388.57H50.72zM382.6 466.02H82.94v-19.47h273.45c3.31 0 6-2.69 6-6V77.45h20.21zM100.89 141.43v-40.46c0-7.85 6.39-14.24 14.24-14.24h26.97c3.31 0 6 2.69 6 6s-2.69 6-6 6h-26.97c-1.21 0-2.24 1.03-2.24 2.24v40.46c0 1.21 1.03 2.24 2.24 2.24h40.96c1.21 0 2.24-1.03 2.24-2.24v-15.98c0-3.31 2.69-6 6-6s6 2.69 6 6v15.98c0 7.85-6.39 14.24-14.24 14.24h-40.96c-7.85.01-14.24-6.38-14.24-14.24zm73.19-54.16c2.4 2.28 2.5 6.08.21 8.48l-34.21 35.96a5.975 5.975 0 0 1-4.35 1.86c-1.45 0-2.91-.53-4.06-1.59l-9.49-8.74c-2.44-2.25-2.59-6.04-.35-8.48s6.04-2.59 8.48-.35l5.15 4.74 30.14-31.68a6 6 0 0 1 8.48-.2zm-73.19 134.58v-40.46c0-7.85 6.39-14.24 14.24-14.24h26.97c3.31 0 6 2.69 6 6s-2.69 6-6 6h-26.97c-1.21 0-2.24 1.03-2.24 2.24v40.46c0 1.21 1.03 2.24 2.24 2.24h40.96c1.21 0 2.24-1.03 2.24-2.24v-15.98c0-3.31 2.69-6 6-6s6 2.69 6 6v15.98c0 7.85-6.39 14.24-14.24 14.24h-40.96c-7.85 0-14.24-6.39-14.24-14.24zm73.19-54.17c2.4 2.28 2.5 6.08.21 8.48l-34.21 35.96a5.975 5.975 0 0 1-4.35 1.86c-1.45 0-2.91-.53-4.06-1.59l-9.49-8.74c-2.44-2.25-2.59-6.04-.35-8.48s6.04-2.59 8.48-.35l5.15 4.74 30.14-31.68c2.28-2.39 6.08-2.48 8.48-.2zm-73.19 133.58V260.8c0-7.85 6.39-14.24 14.24-14.24h26.97c3.31 0 6 2.69 6 6s-2.69 6-6 6h-26.97c-1.21 0-2.24 1.03-2.24 2.24v40.46c0 1.21 1.03 2.24 2.24 2.24h40.96c1.21 0 2.24-1.03 2.24-2.24v-15.98c0-3.31 2.69-6 6-6s6 2.69 6 6v15.98c0 7.85-6.39 14.24-14.24 14.24h-40.96c-7.85 0-14.24-6.38-14.24-14.24zm73.19-54.16c2.4 2.28 2.5 6.08.21 8.48l-34.21 35.96a5.975 5.975 0 0 1-4.35 1.86c-1.45 0-2.91-.53-4.06-1.59l-9.49-8.74c-2.44-2.25-2.59-6.04-.35-8.48s6.04-2.6 8.48-.35l5.15 4.74 30.14-31.68a6 6 0 0 1 8.48-.2zm20.09-138.75c0-3.31 2.69-6 6-6h41.18c3.31 0 6 2.69 6 6s-2.69 6-6 6h-41.18c-3.32 0-6-2.69-6-6zm0 80.41c0-3.31 2.69-6 6-6h41.18c3.31 0 6 2.69 6 6s-2.69 6-6 6h-41.18c-3.32 0-6-2.68-6-6zm0 79.42c0-3.31 2.69-6 6-6h41.18c3.31 0 6 2.69 6 6s-2.69 6-6 6h-41.18c-3.32 0-6-2.69-6-6zm106.05-136.36c0 3.31-2.69 6-6 6h-94.05c-3.31 0-6-2.69-6-6s2.69-6 6-6h94.05c3.32 0 6 2.69 6 6zm0 80.42c0 3.31-2.69 6-6 6h-94.05c-3.31 0-6-2.69-6-6s2.69-6 6-6h94.05c3.32 0 6 2.68 6 6zm0 79.41c0 3.31-2.69 6-6 6h-94.05c-3.31 0-6-2.69-6-6s2.69-6 6-6h94.05c3.32 0 6 2.69 6 6zM170.33 364.7v15.98c0 7.85-6.39 14.24-14.24 14.24h-40.96c-7.85 0-14.24-6.39-14.24-14.24v-40.46c0-7.85 6.39-14.24 14.24-14.24h26.97c3.31 0 6 2.69 6 6s-2.69 6-6 6h-26.97c-1.21 0-2.24 1.03-2.24 2.24v40.46c0 1.21 1.03 2.24 2.24 2.24h40.96c1.21 0 2.24-1.03 2.24-2.24V364.7c0-3.31 2.69-6 6-6s6 2.68 6 6zm3.75-38.19c2.4 2.28 2.5 6.08.21 8.48l-34.21 35.96a5.975 5.975 0 0 1-4.35 1.86c-1.45 0-2.91-.53-4.06-1.59l-9.49-8.74c-2.44-2.25-2.59-6.04-.35-8.48s6.04-2.59 8.48-.35l5.15 4.74 30.14-31.68c2.28-2.39 6.08-2.48 8.48-.2zm20.09 21.08c0-3.31 2.69-6 6-6h41.18c3.31 0 6 2.69 6 6s-2.69 6-6 6h-41.18c-3.32 0-6-2.68-6-6zm106.05 23.48c0 3.31-2.69 6-6 6h-94.05c-3.31 0-6-2.69-6-6s2.69-6 6-6h94.05c3.32 0 6 2.68 6 6zM469.03 91.04v-1.03c0-14.05-11.43-25.48-25.48-25.48s-25.48 11.43-25.48 25.48v312.16c0 .96.23 1.86.63 2.67l19.28 48.98c.9 2.29 3.12 3.8 5.58 3.8s4.68-1.51 5.58-3.8l19.46-49.45c.27-.68.42-1.42.42-2.2V103.34c9.21 2.62 15.97 11.1 15.97 21.13v57.68c0 3.31 2.69 6 6 6s6-2.69 6-6v-57.68c.01-16.68-12.08-30.59-27.96-33.43zm-38.96 122.59h26.96v182.54h-26.96zm26.96-12h-26.96V102.5h26.96zm-13.48-125.1c7.43 0 13.48 6.05 13.48 13.48v.49h-26.96v-.49c0-7.44 6.05-13.48 13.48-13.48zm.01 358.7-10.65-27.07h21.31z" fill="#02b5ff" opacity="1" data-original="#000000" class=""></path></g></svg>