<svg width="60" height="60" viewBox="0 0 60 60" fill="none" xmlns="http://www.w3.org/2000/svg">
<g clip-path="url(#clip0_55573_38613)">
<path d="M54.159 21.4078C55.1902 20.2828 55.8195 18.7863 55.8195 17.1445C55.8195 13.6605 52.9824 10.8258 49.4937 10.8258C46.0051 10.8258 43.168 13.6605 43.168 17.1445C43.168 20.141 45.2668 22.6547 48.0723 23.3004C48.043 23.3297 48.0148 23.3578 47.9855 23.3871L41.6375 29.7305H34.2125C32.5051 29.7305 31.1164 31.118 31.1164 32.8242C31.1164 33.2566 31.2055 33.668 31.3672 34.043H28.6297C28.7902 33.6691 28.8805 33.2566 28.8805 32.8242C28.8805 31.1191 27.4918 29.7305 25.7844 29.7305H18.3594L12.0113 23.3871C11.9832 23.359 11.9539 23.3297 11.9258 23.3016C14.7336 22.6559 16.8336 20.1422 16.8336 17.1457C16.8336 13.6617 13.9941 10.827 10.5043 10.827C7.0168 10.827 4.17852 13.6617 4.17852 17.1457C4.17852 18.7875 4.80898 20.284 5.83906 21.409C4.2582 22.0324 3.13672 23.5734 3.13672 25.3711V42.5449C3.13672 44.4516 4.68945 46.0031 6.59844 46.0031H15.0266V56.543C15.0266 58.4496 16.5793 60.0012 18.4883 60.0012C20.3973 60.0012 21.95 58.4496 21.95 56.543V42.5438C21.95 41.973 21.8105 41.4352 21.5645 40.9605H29.0633V55.2656H27.4836C26.1758 55.2656 25.1129 56.3273 25.1129 57.6316V59.0625C25.1129 59.5805 25.5324 60 26.0504 60H33.9535C34.4715 60 34.891 59.5805 34.891 59.0625V57.6305C34.891 56.3262 33.827 55.2645 32.5203 55.2645H30.9383V40.9594H38.4324C38.1863 41.434 38.0469 41.973 38.0469 42.5426V56.5406C38.0469 58.4473 39.5996 59.9988 41.5086 59.9988C43.4176 59.9988 44.9703 58.4473 44.9703 56.5406V46.0008H53.3984C55.3074 46.0008 56.8602 44.4492 56.8602 42.5426V25.3699C56.8613 23.5711 55.7398 22.0312 54.159 21.4078ZM33.0148 57.6305V58.125H26.9867V57.6305C26.9867 57.3598 27.2094 57.1395 27.4824 57.1395H32.518C32.7922 57.1395 33.0148 57.3598 33.0148 57.6305ZM45.0441 17.1445C45.0441 14.6941 47.041 12.7008 49.4949 12.7008C51.9488 12.7008 53.9457 14.6941 53.9457 17.1445C53.9457 19.5949 51.9488 21.5883 49.4949 21.5883C47.041 21.5883 45.0441 19.5949 45.0441 17.1445ZM32.9938 32.823C32.9938 32.1516 33.541 31.6043 34.2148 31.6043H42.0277C42.2762 31.6043 42.5141 31.5059 42.6898 31.3301L49.3133 24.7125C50.2016 23.8242 51.0406 22.9852 52.598 22.9852C53.9152 22.9852 54.9863 24.0551 54.9863 25.3699V39.0855H48.7191V31.4062L50.9352 29.1926C51.302 28.827 51.302 28.2328 50.9363 27.8672C50.5707 27.5004 49.9766 27.5004 49.6109 27.866L43.8676 33.6023C43.5687 33.9035 43.2289 34.043 42.8 34.043H34.216C33.541 34.0418 32.9938 33.4957 32.9938 32.823ZM43.7363 39.0844V35.7891C44.2824 35.6355 44.777 35.3437 45.1941 34.9254L46.8441 33.2777V39.0844H43.7363ZM13.1574 39.0844V33.2777L14.8051 34.923C15.2234 35.3438 15.718 35.6355 16.2652 35.7891V39.0844H13.1574ZM18.1402 35.9168H41.8625V39.0844H18.1402V35.9168ZM10.5066 12.7008C12.9629 12.7008 14.9609 14.6941 14.9609 17.1445C14.9609 19.5949 12.9629 21.5883 10.5066 21.5883C8.05273 21.5883 6.05586 19.5949 6.05586 17.1445C6.05586 14.6941 8.05273 12.7008 10.5066 12.7008ZM7.40352 22.9852C8.95977 22.9852 9.79883 23.8242 10.6871 24.7125L17.3105 31.3312C17.4863 31.507 17.7242 31.6055 17.9727 31.6055H25.7855C26.4594 31.6055 27.0066 32.1516 27.0066 32.8242C27.0066 33.4957 26.4594 34.043 25.7855 34.043H17.2016C16.7715 34.043 16.4328 33.9023 16.1316 33.6L10.3906 27.866C10.025 27.5004 9.43086 27.5004 9.06523 27.8672C8.69961 28.234 8.69961 28.827 9.06641 29.1926L11.2824 31.4062V39.0855H5.01523V25.3699C5.01523 24.0551 6.08633 22.9852 7.40352 22.9852ZM20.0797 42.5438V56.5418C20.0797 57.4148 19.3672 58.125 18.493 58.125C17.6188 58.125 16.9062 57.4148 16.9062 56.5418V45.0645C16.9062 44.5465 16.4867 44.127 15.9687 44.127H6.60195C5.72656 44.127 5.01523 43.4168 5.01523 42.5438V40.9605H18.493C19.3684 40.9594 20.0797 41.6695 20.0797 42.5438ZM54.9863 42.5438C54.9863 43.4168 54.2738 44.127 53.3996 44.127H44.034C43.516 44.127 43.0965 44.5465 43.0965 45.0645V56.5418C43.0965 57.4148 42.384 58.125 41.5098 58.125C40.6355 58.125 39.923 57.4148 39.923 56.5418V42.5438C39.923 41.6707 40.6355 40.9605 41.5098 40.9605H54.9875V42.5438H54.9863ZM20.1055 16.9828H20.7207V19.3043C20.7207 19.6652 20.9281 19.9934 21.2527 20.1492C21.3816 20.2113 21.5199 20.2418 21.6582 20.2418C21.868 20.2418 22.0754 20.1715 22.2453 20.0355L26.0492 16.9828H30.7449C32.1734 16.9828 33.3359 15.8215 33.3359 14.3941V13.6441H33.9512L37.7551 16.6969C37.925 16.8328 38.1324 16.9031 38.3422 16.9031C38.4805 16.9031 38.6188 16.8727 38.7477 16.8105C39.0723 16.6547 39.2797 16.3254 39.2797 15.9656V13.6441H39.8984C41.3246 13.6441 42.4859 12.484 42.4859 11.059V2.58867C42.4859 1.16133 41.3258 0 39.8984 0H29.2555C27.827 0 26.6645 1.16133 26.6645 2.58867V3.33867H20.1055C18.677 3.33867 17.5145 4.5 17.5145 5.92734V14.3941C17.5156 15.8215 18.677 16.9828 20.1055 16.9828ZM28.5406 2.58867C28.5406 2.20195 28.8687 1.875 29.2566 1.875H39.8996C40.2852 1.875 40.6121 2.20195 40.6121 2.58867V11.059C40.6121 11.4504 40.2922 11.7691 39.8996 11.7691H38.3434C37.8254 11.7691 37.4059 12.1887 37.4059 12.7066V14.0109L34.8687 11.9754C34.7023 11.8418 34.4949 11.7691 34.2816 11.7691H33.3371V5.92734C33.3371 4.5 32.1746 3.33867 30.7461 3.33867H28.5406V2.58867ZM19.3906 5.92734C19.3906 5.53359 19.7117 5.21367 20.1066 5.21367H30.7461C31.141 5.21367 31.4621 5.53359 31.4621 5.92734V14.3941C31.4621 14.7809 31.134 15.1078 30.7461 15.1078H25.7199C25.5066 15.1078 25.2992 15.1805 25.1328 15.3141L22.5957 17.3496V16.0453C22.5957 15.5273 22.1762 15.1078 21.6582 15.1078H20.1055C19.7105 15.1078 19.3895 14.7879 19.3895 14.3941V5.92734H19.3906ZM20.9973 11.673C20.9973 11.1551 21.4168 10.7355 21.9348 10.7355H28.9156C29.4336 10.7355 29.8531 11.1551 29.8531 11.673C29.8531 12.191 29.4336 12.6105 28.9156 12.6105H21.9348C21.418 12.6105 20.9973 12.191 20.9973 11.673ZM23.3762 8.64727C23.3762 8.1293 23.7957 7.70977 24.3137 7.70977H28.9168C29.4348 7.70977 29.8543 8.1293 29.8543 8.64727C29.8543 9.16523 29.4348 9.58477 28.9168 9.58477H24.3137C23.7957 9.58477 23.3762 9.16523 23.3762 8.64727ZM20.9984 8.64727C20.9984 8.1293 21.418 7.70977 21.9359 7.70977H21.9371C22.4551 7.70977 22.8746 8.1293 22.8746 8.64727C22.8746 9.16523 22.4551 9.58477 21.9371 9.58477C21.4191 9.58477 20.9984 9.16523 20.9984 8.64727Z" fill="#02B5FF"/>
</g>
<defs>
<clipPath id="clip0_55573_38613">
<rect width="60" height="60" fill="white"/>
</clipPath>
</defs>
</svg>
