<?xml version="1.0" encoding="UTF-8"?>
<svg id="Layer_1" data-name="Layer 1" xmlns="http://www.w3.org/2000/svg" version="1.1" viewBox="0 0 512 512">
  <defs>
    <style>
      .cls-1 {
        fill: #02b5ff;
        stroke-width: 0px;
      }
    </style>
  </defs>
  <g id="_18_Console" data-name=" 18 Console">
    <g>
      <path class="cls-1" d="M454.1,9.7H57.9C29.3,9.7,6.1,32.9,6.1,61.5v389.1c0,28.6,23.3,51.8,51.8,51.8h396.3c28.5,0,51.8-23.2,51.8-51.8V61.5c0-28.5-23.3-51.8-51.8-51.8h0ZM493,450.5c0,21.4-17.4,38.9-38.9,38.9H57.9c-21.4,0-38.8-17.4-38.8-38.9V61.5c0-21.4,17.4-38.8,38.8-38.8h396.3c21.4,0,38.9,17.5,38.9,38.8v389.1h0Z"/>
      <path class="cls-1" d="M135,295.8c-3.6,0-6.5,2.9-6.5,6.5v111.9c0,7.1-5.7,12.8-12.8,12.8s-12.8-5.7-12.8-12.8v-112c0-3.6-2.9-6.5-6.5-6.5s-6.5,2.9-6.5,6.5v112c0,14.2,11.5,25.7,25.7,25.7s25.7-11.5,25.7-25.7v-111.9c0-3.6-2.9-6.5-6.5-6.5h.2Z"/>
      <path class="cls-1" d="M96.5,161.3c3.6,0,6.5-2.9,6.5-6.5v-57c0-7.1,5.7-12.8,12.8-12.8s12.8,5.6,12.8,12.8v57c0,3.6,2.9,6.5,6.5,6.5s6.5-2.9,6.5-6.5v-57c0-14.1-11.5-25.7-25.7-25.7s-25.7,11.5-25.7,25.7v57c0,3.6,2.9,6.5,6.5,6.5h-.2Z"/>
      <path class="cls-1" d="M275.3,395.2c-3.6,0-6.5,2.9-6.5,6.5v12.5c0,7.1-5.7,12.8-12.8,12.8s-12.8-5.7-12.8-12.8v-12.6c0-3.6-2.9-6.5-6.5-6.5s-6.5,2.9-6.5,6.5v12.6c0,14.2,11.5,25.7,25.7,25.7s25.7-11.5,25.7-25.7v-12.5c0-3.6-2.9-6.5-6.5-6.5h.2Z"/>
      <path class="cls-1" d="M236.7,260.7c3.6,0,6.5-2.9,6.5-6.5V97.8c0-7.1,5.7-12.8,12.8-12.8s12.8,5.8,12.8,12.8v156.4c0,3.6,2.9,6.5,6.5,6.5s6.5-2.9,6.5-6.5V97.8c0-14.2-11.5-25.7-25.7-25.7s-25.7,11.5-25.7,25.7v156.4c0,3.6,2.9,6.5,6.5,6.5h-.2Z"/>
      <path class="cls-1" d="M377,111.1c3.6,0,6.5-2.9,6.5-6.5v-6.8c0-7.1,5.7-12.8,12.8-12.8s12.8,5.6,12.8,12.8v6.7c0,3.6,2.9,6.5,6.5,6.5s6.5-2.9,6.5-6.5v-6.7c0-14.2-11.5-25.7-25.7-25.7s-25.7,11.5-25.7,25.7v6.8c0,3.6,2.9,6.5,6.5,6.5h-.2Z"/>
      <path class="cls-1" d="M415.5,245.5c-3.6,0-6.5,2.9-6.5,6.5v162.2c0,7.1-5.7,12.8-12.8,12.8s-12.8-5.7-12.8-12.8v-162.2c0-3.6-2.9-6.5-6.5-6.5s-6.5,2.9-6.5,6.5v162.2c0,14.2,11.5,25.7,25.7,25.7s25.7-11.5,25.7-25.7v-162.2c0-3.6-2.9-6.5-6.5-6.5h.2Z"/>
      <path class="cls-1" d="M172.6,228.6c0,31.3-25.5,56.7-56.7,56.7s-56.8-25.4-56.8-56.7,25.4-56.8,56.8-56.8,56.7,25.4,56.7,56.8h0Z"/>
      <path class="cls-1" d="M312.8,328c0,31.2-25.5,56.7-56.7,56.7s-56.8-25.4-56.8-56.7,25.5-56.8,56.8-56.8,56.7,25.5,56.7,56.8Z"/>
      <path class="cls-1" d="M452.9,178.3c0,31.2-25.4,56.7-56.7,56.7s-56.8-25.4-56.8-56.7,25.5-56.8,56.8-56.8,56.7,25.5,56.7,56.8h0Z"/>
    </g>
  </g>
</svg>