<svg width="60" height="60" viewBox="0 0 60 60" fill="none" xmlns="http://www.w3.org/2000/svg">
<path d="M57.0117 3.51562H2.98828C1.34051 3.51562 0 4.8559 0 6.50332V42.5869C0 44.2343 1.34051 45.5746 2.98828 45.5746H10.1768C11.3388 45.5386 11.338 43.8524 10.1768 43.8168H2.98828C2.30977 43.8168 1.75781 43.265 1.75781 42.5869V36.8637H58.2422V42.5868C58.2422 43.2649 57.6902 43.8166 57.0117 43.8166H14.3955C13.2335 43.8526 13.2343 45.5388 14.3955 45.5745H21.3867V51.2118H19.0427C17.589 51.2118 16.4062 52.3945 16.4062 53.8482V55.1268C16.4062 55.8752 17.0152 56.4843 17.7637 56.4843H42.2362C42.9848 56.4843 43.5938 55.8752 43.5938 55.1268V53.8482C43.5938 52.3945 42.411 51.2118 40.9573 51.2118H38.6133V45.5745H57.0117C58.6595 45.5745 60 44.2342 60 42.5868V6.50332C60 4.8559 58.6595 3.51562 57.0117 3.51562ZM41.8359 53.8484V54.7266H18.1641V53.8484C18.1641 53.3639 18.5582 52.9697 19.0427 52.9697H40.9573C41.4418 52.9697 41.8359 53.3639 41.8359 53.8484ZM36.8555 51.2119H23.1445V45.5746H36.8555V51.2119ZM56.4844 35.1059V16.8988C56.4484 15.7368 54.7622 15.7376 54.7266 16.8988V35.1059H5.27344V8.78801H54.7266V12.7357C54.7625 13.8977 56.4488 13.8969 56.4844 12.7357V8.37773C56.4844 7.63477 55.8798 7.0302 55.1367 7.0302H4.86328C4.1202 7.0302 3.51562 7.63477 3.51562 8.37773V35.1059H1.75781V6.50332C1.75781 5.82516 2.30977 5.27344 2.98828 5.27344H57.0117C57.6902 5.27344 58.2422 5.82516 58.2422 6.50332V35.1059H56.4844Z" fill="#00B5FF"/>
<path d="M22.6879 14.128C22.3446 13.7848 21.7882 13.7848 21.4449 14.128C21.1017 14.4713 21.1017 15.0278 21.4449 15.3709L22.0998 16.0258C22.4431 16.369 22.9994 16.369 23.3428 16.0258C23.686 15.6825 23.686 15.126 23.3428 14.7829L22.6879 14.128Z" fill="#00B5FF"/>
<path d="M26.0195 14.9173C26.505 14.9173 26.8984 14.5238 26.8984 14.0384V13.1124C26.8625 11.9504 25.1762 11.9512 25.1406 13.1124V14.0384C25.1406 14.5238 25.5341 14.9173 26.0195 14.9173Z" fill="#00B5FF"/>
<path d="M29.3164 16.2832C29.5413 16.2832 29.7663 16.1975 29.9379 16.0258L30.5928 15.3709C30.936 15.0277 30.936 14.4712 30.5928 14.128C30.2494 13.7848 29.693 13.7848 29.3498 14.128L28.6949 14.7829C28.3517 15.1261 28.3517 15.6826 28.6949 16.0258C28.8665 16.1973 29.0915 16.2832 29.3164 16.2832Z" fill="#00B5FF"/>
<path d="M22.0998 21.3775L21.4449 22.0324C21.1017 22.3756 21.1017 22.9322 21.4449 23.2753C21.7883 23.6185 22.3446 23.6185 22.6879 23.2753L23.3428 22.6204C23.686 22.2772 23.686 21.7207 23.3428 21.3775C22.9995 21.0343 22.443 21.0343 22.0998 21.3775Z" fill="#00B5FF"/>
<path d="M22.2347 18.7017C22.2347 18.2163 21.8413 17.8228 21.3558 17.8228H20.4298C19.2678 17.8587 19.2686 19.5449 20.4298 19.5806H21.3558C21.8413 19.5806 22.2347 19.1871 22.2347 18.7017Z" fill="#00B5FF"/>
<path d="M29.775 18.7278C29.7748 18.7275 29.7746 18.7274 29.7744 18.7272L28.1503 17.1031C27.1687 16.0803 25.403 16.0802 24.4215 17.1031C23.3986 18.0845 23.3986 19.8506 24.4214 20.832L26.046 22.4567L34.4184 30.829C34.92 31.352 35.8228 31.3519 36.3244 30.8291L38.1474 29.0061C38.6702 28.5045 38.6702 27.6017 38.1474 27.1002L29.775 18.7278ZM25.4069 18.9675C25.4069 18.7328 25.4983 18.5122 25.6644 18.3461C25.9916 18.0051 26.5801 18.0052 26.9073 18.3461L27.9104 19.3491L26.6674 20.5921L25.6643 19.5889C25.4983 19.4231 25.4069 19.2023 25.4069 18.9675ZM35.3714 29.2961L27.9104 21.8352L29.1534 20.5922L36.6143 28.0531L35.3714 29.2961Z" fill="#00B5FF"/>
</svg>
