<?xml version="1.0" encoding="UTF-8"?>
<svg id="Layer_1" data-name="Layer 1" xmlns="http://www.w3.org/2000/svg" version="1.1" viewBox="0 0 512 512">
  <defs>
    <style>
      .cls-1 {
        fill: #02b5ff;
        stroke-width: 0px;
      }
    </style>
  </defs>
  <g id="Page-1">
    <g id="_035---Creative-Thinking" data-name=" 035---Creative-Thinking">
      <path id="Shape" class="cls-1" d="M345.3,156.6l-45.9-2.8c-1.4,9.1-2.5,17.9-3.4,26.5,1.1.2,2.3.3,3.4.4,15.1,2.6,30.5,3.3,45.8,2.2.3-9,.4-17.8.1-26.4h0Z"/>
      <path id="Shape-2" class="cls-1" d="M297,198.9l-2.7-.3c-1.2,15.4-1.6,30.8-1.2,46.2,13-4.6,26.7-7,40.5-7s4.5.2,6.7.3c1.7-12.7,3.1-25,3.9-36.8-4,.3-8,.6-11.8.6-11.9-.2-23.8-1.2-35.6-3h.2Z"/>
      <path id="Shape-3" class="cls-1" d="M142.7.2c-1.2.3-2.1,1.4-2.2,2.7l-1.5,41.2c4.6,1.3,9.4,1.5,14.1.7,4.6-1.3,8.8-3.7,12.3-6.9L145.9,1.7c-.6-1.1-1.9-1.7-3.1-1.4h0Z"/>
      <path id="Shape-4" class="cls-1" d="M186.5,187.2c4.9-1.1,9.8,1.9,11,6.8l26.1,111.4c3.8-7.5,8.4-14.7,13.7-21.3l-40.7-174.5c-4.3,5.2-9.7,9.4-15.9,12.1l6.5,27.6c.8,3.2-.2,6.6-2.6,8.9-2.4,2.3-5.8,3.1-9,2.1s-5.5-3.6-6.2-6.8l-6.5-27.6c-.6,0-1.2,0-1.8,0-6.2,0-12.3-1.3-17.9-3.9l40.1,171.2c6.8,1,13.5,2.7,19.9,5l-23.5-100.3c-1.1-4.9,1.9-9.8,6.8-11v.2Z"/>
      <path id="Shape-5" class="cls-1" d="M367.8,79c-4-24.7-15.5-47.6-33-65.5-2.9,19.3-15.5,39.9-39.8,66.7-7.4,7.3-11.5,17.3-11.4,27.7.1,10.4,4.5,20.3,12.1,27.4,17.6,1.1,35.5,2.2,53.6,3.3,13.8-16.6,20.4-38,18.5-59.6h0ZM335.4,125.3c-3.5,0-6.6-2-8.2-5.1-1.5-3.1-1.2-6.8.9-9.6,8-11,11.3-24.7,9.1-38.1-.9-3.2,0-6.6,2.3-9s5.8-3.3,9-2.4,5.7,3.4,6.4,6.7c3.7,18.9-.7,38.4-12.2,53.8-1.7,2.3-4.4,3.6-7.3,3.6h0Z"/>
      <path id="Shape-6" class="cls-1" d="M484,123.4l-38.3,23.9c-1.7,17.1-5.8,33.8-12.2,49.7,3.6,9.9,11.2,17.7,20.9,21.8,9.7,4,20.6,3.8,30.2-.6,6.7-15.8,15.6-30.5,26.5-43.8l-10.2-44-13.5,32.8c-1.9,4.7-7.3,6.9-11.9,4.9s-6.9-7.3-4.9-11.9l13.6-32.8h-.2Z"/>
      <path id="Shape-7" class="cls-1" d="M446.2,310.5l29.2-70.4c-1.8.2-3.7.3-5.5.3-7.7,0-15.3-1.7-22.4-4.7-8.9-3.5-16.7-9.2-22.8-16.6l-17.7,42.9c17,12.6,30.5,29.3,39.3,48.5h-.1Z"/>
      <path id="Shape-8" class="cls-1" d="M457.1,402.3c-4.1,0-8.2.5-12.2,1.3-3.2.7-6.5-.3-8.7-2.7-2.2-2.4-3-5.8-2-8.9,3.1-10,4.6-20.4,4.6-30.8,0-50.8-36.3-94.4-86.3-103.4-50-9.1-99.3,18.9-117.2,66.4-1,2.7-3.2,4.7-6,5.6-2.8.8-5.7.3-8-1.4-26.1-19.6-60.9-22.9-90.2-8.6-29.3,14.3-48.1,43.8-48.8,76.4,0,2.9-1.4,5.5-3.8,7.2-2.3,1.7-5.3,2.2-8,1.4-5.1-1.5-10.3-2.3-15.6-2.3-30.3-.2-54.9,24.3-54.9,54.6s24.6,54.9,54.9,54.9h402.3c30.3,0,54.9-24.6,54.9-54.9s-24.6-54.9-54.9-54.9h0ZM149.2,356.1c-12.1,4.1-20.5,15.2-21.2,27.9,0,5-4.1,9.1-9.1,9.1s-9.1-4.1-9.1-9.1c0-33.6,32.3-44.8,33.7-45.2,4.8-1.6,10,1,11.6,5.8s-1,10-5.8,11.6h-.1ZM265.4,317.8c6.1-25.3,28.6-43.1,54.6-43.5,5,0,9.2,4.1,9.2,9.1s-4.1,9.2-9.1,9.2c-17.6.4-32.7,12.6-36.9,29.7-1,4.1-4.7,6.9-8.9,6.9s-1.5,0-2.2-.3c-4.9-1.2-7.9-6.2-6.6-11.1h-.1ZM360.4,441.1c-2.2,1-4.7,1.1-7,.2s-4.1-2.6-5.1-4.8c-4.5-9.7-14.2-15.9-24.9-15.9s-12.2,2.1-17,6c-.3.2-.6.3-1,.5-.3.2-.6.4-.9.6-.2,0-.5.1-.7.2-1.7.7-3.5.8-5.2.3-.6-.1-1.1-.3-1.6-.5-.5-.3-1-.6-1.5-.9s-1-.7-1.4-1.2c-.2-.2-.4-.3-.6-.5-.2-.3-.3-.6-.5-.9s-.4-.6-.6-.9c-6-12.9-18.9-21.1-33.1-21-20.2,0-36.6,16.4-36.6,36.6s1,10.1,3,14.7c1,2.2,1,4.7,0,7-.9,2.2-2.7,4-4.9,5-1.1.5-2.4.7-3.6.7-3.7,0-7-2.2-8.4-5.6-3-6.9-4.5-14.4-4.5-21.9,0-23.8,15.3-44.9,37.9-52.2,22.7-7.3,47.4.9,61.3,20.2,6.1-3,12.8-4.6,19.6-4.6,17.9,0,34.1,10.4,41.5,26.7,1,2.2,1.1,4.7.2,7-.8,2.3-2.6,4.1-4.8,5.1h.4Z"/>
      <path id="Shape-9" class="cls-1" d="M167.8,107.1c11.5-3.2,20.1-12.7,21.9-24.5l-15.4-28.4c-5,3.9-10.8,6.8-17,8.4-3,.7-6.2,1-9.3,1s-6.5-.3-9.6-.9l-1.2,32.2c6.9,9.7,18.8,14.5,30.5,12.2h.1Z"/>
      <path id="Shape-10" class="cls-1" d="M49.7,213.8l33.8-14-7-16.9L.5,214.3l66.3,159.8c7.6-31.9,29.4-58.5,59.2-72.1l-7.4-17.9-33.8,14c-1.1.5-2.3.7-3.5.7-4.4,0-8.1-3.1-9-7.3s1.4-8.6,5.5-10.3l33.8-14-7-16.9-16.9,7c-1.1.5-2.3.7-3.5.7-4.4,0-8.1-3.1-9-7.4-.9-4.3,1.4-8.6,5.5-10.2l16.9-7-7-16.9-33.8,14c-1.1.5-2.3.7-3.5.7-4.4,0-8.1-3.1-9-7.4s1.4-8.6,5.5-10.2h0v.2Z"/>
    </g>
  </g>
</svg>