<?xml version="1.0" encoding="UTF-8"?>
<svg id="Layer_1" data-name="Layer 1" xmlns="http://www.w3.org/2000/svg" version="1.1" viewBox="0 0 512 512">
  <defs>
    <style>
      .cls-1 {
        fill: #02b5ff;
        fill-rule: evenodd;
        stroke-width: 0px;
      }
    </style>
  </defs>
  <path class="cls-1" d="M81.6,243.3c1.7,21.4,7.2,42.5,16.6,62.2l-32.6,18.8c-12.6-25.6-19.8-53.1-21.6-81h37.6ZM267.6,94.6c27.5,0,49.9,22.3,49.9,49.9s-22.3,49.9-49.9,49.9-49.9-22.3-49.9-49.9,22.3-49.9,49.9-49.9ZM180.1,292.4h175c5.8,0,10-5.3,8.8-11-9.8-44.1-49.2-77.1-96.3-77.1s-86.4,33-96.3,77.1c-1.3,5.7,3,11,8.8,11h0ZM253.1,382.3c8.5,1,15.5-1.5,17.9-10.4,2.1-8-2.9-15.4-10.4-18.1-24.2-4.4-47.7-12.9-66.2-19.6-26.5-9.6-33.4-11.8-59.5,3.3l-47,27.2,39,69,3.1-1.8c1.9-1.1,4.1-1.3,6-.8l106,28.4c15.4,4.1,24.7,2.5,37.7-5.5l145.5-89.6c4.5-2.8,6.8-9.3,6.1-15.6-.5-5.2-3.1-9.9-7.8-12.3-7.6-3.8-20.7-2.7-41.1,9.2l-80.5,46.9c-6.5,3.8-13.1,6.2-20,7.3-20,3.4-50-6.1-67.9-11.2-5.7-1.6-11.6-3.3-17.3-4.8-4.3-1.1-6.8-5.5-5.7-9.8s5.5-6.8,9.8-5.7c17.4,4.7,34.6,10.3,52.2,13.9h0ZM63.7,354.4l63.6,112.4c3.1,5.4,1.1,12.4-4.3,15.5l-21.6,12.2c-5.4,3.1-12.4,1.1-15.5-4.3l-63.6-112.4c-3.1-5.4-1.1-12.4,4.3-15.5l21.6-12.2c5.4-3.1,12.4-1.1,15.5,4.3ZM49.1,371.2c-4.2.6-7.1,4.5-6.5,8.8.6,4.2,4.5,7.1,8.8,6.5s7.1-4.5,6.5-8.8c-.6-4.2-4.5-7.1-8.8-6.5h0ZM44,215.7c1.9-28.9,9.5-56.3,21.7-81l32.7,18.9c-9,19-14.8,40-16.7,62.1h-37.7,0ZM79.6,110.8c15.7-23.4,35.8-43.6,59.2-59.3l18.7,32.4c-17.8,12.3-33.1,27.8-45.3,45.7l-32.6-18.8ZM162.7,37.7c24.7-12.2,52-19.8,81-21.7v37.6c-22.3,1.7-43.3,7.5-62.3,16.5,0,0-18.7-32.4-18.7-32.4ZM271.3,16v37.6c91,7,162.7,83.1,162.7,175.9s-.5,14.8-1.4,21.9h-12.3c-3.6,0-5.6,4.1-3.4,7l33.3,42.3c1.7,2.2,5.1,2.2,6.8,0l33.3-42.3c2.2-2.8.2-7-3.4-7h-16.6c.7-7.2,1.1-14.5,1.1-21.9,0-113.5-88.4-206.4-200.2-213.5h0Z"/>
</svg>