<svg xmlns="http://www.w3.org/2000/svg" version="1.1" xmlns:xlink="http://www.w3.org/1999/xlink" width="512" height="512" x="0" y="0" viewBox="0 0 64 64" style="enable-background:new 0 0 512 512" xml:space="preserve" fill-rule="evenodd" class=""><g><path d="M36 53h-1.846C30.204 53 27 49.812 27 45.889s3.204-7.111 7.154-7.111c.09 0 .18.001.27.005a8.947 8.947 0 0 1-.039-.839c0-4.934 4.03-8.944 9-8.944 4.853 0 8.812 3.825 8.993 8.602.28-.031.565-.046.853-.046 4.29 0 7.769 3.462 7.769 7.722S57.521 53 53.231 53H52v7a1 1 0 0 1-1 1H37a1 1 0 0 1-1-1zm16-2h1.231C56.413 51 59 48.438 59 45.278s-2.587-5.722-5.769-5.722c-.561 0-1.104.079-1.617.227a1 1 0 0 1-1.272-1.07 6.98 6.98 0 0 0 .043-.769c0-3.834-3.139-6.944-7-6.944-3.862 0-7 3.11-7 6.944 0 .608.078 1.198.226 1.76a.998.998 0 0 1-1.207 1.225 5.199 5.199 0 0 0-1.25-.151c-2.843 0-5.154 2.288-5.154 5.111S31.311 51 34.154 51H36v-7a1 1 0 0 1 1-1h6a1 1 0 0 1 0 2h-5v6h12v-6h-3a1 1 0 0 1 0-2h4a1 1 0 0 1 1 1zm-14 2v6h12v-6zm4 4a1 1 0 0 1 0-2h4a1 1 0 0 1 0 2zm0-8a1 1 0 0 1 0-2h4a1 1 0 0 1 0 2zM12 32h-1.846C6.204 32 3 28.812 3 24.889s3.204-7.111 7.154-7.111c.09 0 .18.001.27.005a8.947 8.947 0 0 1-.039-.839c0-4.934 4.03-8.944 9-8.944 4.895 0 8.88 3.892 8.997 8.726a1.001 1.001 0 0 1-.178 1.92 6.09 6.09 0 0 0-.59.137 1 1 0 0 1-1.272-1.07 6.98 6.98 0 0 0 .043-.769c0-3.834-3.139-6.944-7-6.944-3.862 0-7 3.11-7 6.944 0 .608.078 1.198.226 1.76a.998.998 0 0 1-1.207 1.225 5.199 5.199 0 0 0-1.25-.151C7.311 19.778 5 22.066 5 24.889S7.311 30 10.154 30H12v-7a1 1 0 0 1 1-1h14a1 1 0 0 1 1 1v7h1.231C32.412 30 35 27.438 35 24.278c0-2.327-1.403-4.329-3.412-5.224a1 1 0 0 1 .814-1.827C35.112 18.434 37 21.139 37 24.278 37 28.538 33.521 32 29.231 32H28v7a1 1 0 0 1-1 1H13a1 1 0 0 1-1-1zm14-2v-6H14v6zm-12 2v6h12v-6zm4 4a1 1 0 0 1 0-2h4a1 1 0 0 1 0 2zm0-8a1 1 0 0 1 0-2h4a1 1 0 0 1 0 2zm42.539-2.016-6.58 4.208a.998.998 0 0 1-1.464-.464l-2.953-7.231a1 1 0 0 1 1.228-1.331l1.546.49a11.97 11.97 0 0 0-.393-3.755c-1.028-3.819-3.918-7.053-7.965-8.336-4.056-1.287-8.293-.301-11.335 2.242a1 1 0 0 1-1.378-.092l-2.706-2.95a1 1 0 0 1 .088-1.436c4.572-3.904 10.997-5.433 17.144-3.484 6.952 2.204 11.63 8.247 12.438 15.051a17.83 17.83 0 0 1-.051 4.613l2.144.68a.998.998 0 0 1 .237 1.795zm-2.876-.534-.936-.297a1 1 0 0 1-.68-1.142c.316-1.64.366-3.283.176-4.879-.718-6.049-4.876-11.421-11.056-13.38-5.111-1.621-10.438-.536-14.431 2.45l1.359 1.482a13.984 13.984 0 0 1 12.467-2.026c4.721 1.497 8.093 5.269 9.292 9.724a13.93 13.93 0 0 1 .316 5.751 1.004 1.004 0 0 1-1.291.8l-.678-.215 1.691 4.143z" fill="#02b5ff" opacity="1" data-original="#000000"></path></g></svg>