<?xml version="1.0" encoding="UTF-8"?>
<svg id="Layer_1" data-name="Layer 1" xmlns="http://www.w3.org/2000/svg" version="1.1" viewBox="0 0 510 510">
  <defs>
    <style>
      .cls-1 {
        fill: #02b5ff;
        fill-rule: evenodd;
        stroke-width: 0px;
      }
    </style>
  </defs>
  <g id="Artboard261">
    <path class="cls-1" d="M465.4,326.8h16.3c7.3,0,13.2,6,13.2,13.2v141c0,7.3-5.9,13.2-13.2,13.2h-177.3c-7.3,0-13.2-5.9-13.2-13.2v-141c0-7.3,6-13.2,13.2-13.2h16.2v-30.4c0-39.8,32.6-72.4,72.4-72.4s72.4,32.6,72.4,72.4v30.4h0ZM353.7,326.8h78.5v-30.4c0-21.6-17.7-39.3-39.3-39.3s-39.3,17.7-39.3,39.3v30.4h0ZM393,360.2c-14.2,0-25.8,11.6-25.8,25.8s4.9,17.4,12.3,22v39.3c0,7.5,6.1,13.5,13.5,13.5s13.5-6.1,13.5-13.5v-39.3c7.4-4.5,12.2-12.7,12.2-22,0-14.2-11.5-25.8-25.8-25.8h0ZM275.1,412.8h-110.1c.4-2.6.7-5.3.7-8s-.2-5.4-.7-8h110.1v16ZM385,208.3v-56.4c2.6.4,5.3.7,8,.7s5.4-.2,8-.7v56.4c-2.6-.2-5.3-.4-8-.4s-5.4.1-8,.4h0ZM344.8,111.7h-75.8c-.9-5.4-2.1-10.8-3.7-16h79.5c-.4,2.6-.7,5.3-.7,8s.2,5.4.7,8ZM108.8,356.6v-88.9c5.2,1,10.6,1.7,16,2.1v86.7c-2.6-.4-5.3-.7-8-.7s-5.4.2-8,.7h0ZM15.1,126.2c1.7-26.3,11.9-50.3,27.9-69.3.3.3.7.6,1.1.8,8,5.1,17,9.3,26.8,12.7-8.1,17-13.1,35.9-14.1,55.7H15.1ZM54.3,45.3c16.8-15.2,37.9-25.8,61.3-29.5-14.7,11.1-27.3,24.9-37,40.6-8.8-2.9-17-6.6-24.3-11.1ZM154.2,15.8c23.4,3.8,44.5,14.3,61.3,29.5-7.3,4.4-15.5,8.1-24.3,11.1-9.7-15.7-22.3-29.5-37-40.6ZM226.7,57c16,19,26.2,42.9,27.9,69.2h-41.6c-1-19.8-6-38.7-14.1-55.7,9.7-3.4,18.7-7.6,26.8-12.7.4-.2.7-.5,1.1-.8h-.1ZM254.6,142.2c-1.7,26.3-11.9,50.3-27.9,69.3-.3-.3-.7-.6-1-.8-8-5.1-17.1-9.3-26.8-12.7,8.2-17.2,13.1-36.1,14.1-55.7h41.6ZM215.4,223.2c-16.8,15.2-37.8,25.7-61.2,29.5,14.9-11.3,27.4-25,36.9-40.6,8.8,2.9,16.9,6.6,24.2,11.1h0ZM115.5,252.7c-23.3-3.8-44.4-14.3-61.2-29.5,7.3-4.4,15.5-8.1,24.2-11.1,9.6,15.5,22,29.3,36.9,40.6h0ZM43.1,211.5c-16-19-26.2-43-27.9-69.3h41.7c1.1,19.6,5.9,38.5,14.1,55.7-9.7,3.4-18.8,7.6-26.8,12.7-.4.2-.7.5-1.1.8h0ZM86.5,75.1c12.9,3.2,26.6,5,40.4,5.5v45.6h-54.1c1.1-18.3,5.9-35.6,13.7-51.1ZM126.9,27.3v37.6c-10.9-.4-21.8-1.8-32.1-4.1,8.7-13,19.5-24.3,32.1-33.5ZM175,60.8c-10.3,2.3-21.2,3.6-32.1,4.1V27.3c12.6,9.2,23.5,20.6,32.1,33.5ZM197,126.2h-54.1v-45.6c13.8-.5,27.5-2.3,40.4-5.5,7.8,15.6,12.6,32.8,13.7,51.1h0ZM183.3,193.4c-12.9-3.1-26.6-5-40.4-5.5v-45.7h54.1c-1.1,18.1-5.8,35.4-13.7,51.2ZM142.9,241.2v-37.6c10.9.4,21.8,1.8,32.1,4.1-8.5,12.8-19.4,24.2-32.1,33.5h0ZM94.8,207.7c10.3-2.3,21.2-3.6,32.1-4.1v37.6c-12.8-9.3-23.6-20.7-32.1-33.5h0ZM72.8,142.2h54v45.7c-13.8.5-27.5,2.3-40.4,5.5-7.8-15.7-12.6-33.1-13.7-51.2h0ZM116.8,371.9c18.1,0,32.8,14.7,32.8,32.8s-14.7,32.8-32.8,32.8-32.8-14.7-32.8-32.8,14.7-32.8,32.8-32.8ZM393,70.9c18.1,0,32.8,14.7,32.8,32.8s-14.7,32.8-32.8,32.8-32.8-14.7-32.8-32.8,14.7-32.8,32.8-32.8h0Z"/>
  </g>
</svg>