<?xml version="1.0" encoding="UTF-8"?>
<svg id="Layer_1" data-name="Layer 1" xmlns="http://www.w3.org/2000/svg" version="1.1" viewBox="0 0 512 512">
  <defs>
    <style>
      .cls-1 {
        fill: #02b5ff;
        stroke-width: 0px;
      }
    </style>
  </defs>
  <path class="cls-1" d="M173.5,410.9c6.7-8.5,5.4-20.9-3-27.6-4-3.3-8.4-4.8-12.9-4.8s-1.6,0-2.3.2c-5.3.6-9.9,3.3-13.1,7.4l-26,33.6c-2.9,3.7-4.4,7.9-4.4,12.3s2.7,11.6,7.4,15.4c8.4,6.7,20.8,5.4,27.6-3l26.8-33.4ZM104.8,408.8l26.1-33.7c2.9-3.9,4.6-8.5,4.6-13.3s-3-12.9-8.3-17.1c-3.7-2.9-8.3-4.5-13-4.5s-1.9,0-2.8.2c-5.7.7-10.8,3.6-14.3,8.1l-26.1,33.7c-7.2,9.4-5.6,22.9,3.7,30.1,4.6,3.6,10.2,5.1,15.8,4.4,5.7-.6,10.8-3.5,14.3-8ZM55.1,305.7l23.4-31.7,8.5-11.5.2-.2,50.7-68.8.2-.2,1.2-1.6c1-1.5.7-3.5-.7-4.6l-36.8-29c-.8-.6-1.6-.7-2.1-.7h-.5c-.5,0-1.6.3-2.3,1.3L8.5,278.8c-1.2,1.6-.9,3.6.6,4.9l36.5,28.8c.8.6,1.7.9,2.7.7.6,0,1.6-.4,2.3-1.4l4.4-6s0,0,0,0ZM209.5,445.8l.3-.5c0,0,.2-.2.2-.2,0-.2.2-.4.3-.5,1.9-2.8,2.9-6.1,2.9-9.5,0-9.3-7.4-16.8-16.7-16.9,0,0-.1,0-.2,0-5,0-9.9,2.2-13.2,6.3l-19.8,24.5c-2.9,3.6-4.2,8.2-3.6,12.9.6,4.6,2.9,8.5,6.7,11.3l1.4,1.2c3.1,2.3,7.6,3.4,12.1,2.8s8.4-3,11.1-6.6l18.4-24.7ZM256,148.9c37.9,0,68.7-30.8,68.7-68.7s-30.8-68.7-68.7-68.7-68.7,30.8-68.7,68.7,30.9,68.7,68.7,68.7ZM221.8,78.6c3-3,7.9-3,10.9,0,0,0,0,0,0,0l11.1,11.1,35.4-35.4c3-3,7.9-3,10.9,0s3,7.9,0,10.9l-40.8,40.8c-1.5,1.5-3.4,2.2-5.5,2.2s-4-.9-5.5-2.2l-16.6-16.6c-3-3-2.9-7.9,0-10.9h0ZM396,242.3l-16.9-41.7-10,5.6c-7,4-15.4,5.6-23.7,4.4l-87.5-13c-10.8-1.5-21.7,2-29.6,9.5l-8.3,8h0c0,0-32.1,30.9-32.1,30.9-2.1,2-2.6,4.3-2.6,6,0,2.6,1.2,6,4.7,7.6,15.8,7.6,34.4,7.2,50-.9l8.5-4.4c5.4-2.9,11.4-4.3,17.4-4.3s16.7,2.8,23.4,8.3l4.2,3.3,78.1,62.6c3.8,2.9,7.8,5.4,11.8,7.1,1.3.5,2.9,1.2,4.3,1.7,1,.4,2.1.8,3.2,1,1.5.5,2.6.7,3.6.9,1.7.3,3.3.6,4.8.7,1.9.2,3.2.3,4.5.3,3.3,0,6.2,0,8.8-.4l19.9-2.8-36.5-90.4ZM443.1,160c-.3-.9-1-1.6-1.9-1.9-.9-.4-1.9-.3-2.7,0l-47.6,21.1c-1.8.8-2.6,2.8-1.9,4.5l3.3,8.2,7,17.1,50.7,125.1c1.2,2,3,2.5,4.5,1.8l47.6-21c1.7-.8,2.5-2.7,1.8-4.5l-60.8-150.4Z"/>
  <path class="cls-1" d="M398,350.9c-1.6,0-3.7-.5-5.8-.9-1.6-.2-3.4-.6-5.3-1.2-1.2-.3-2.8-.9-4.3-1.3-1.7-.6-3.5-1.3-5.3-2.1-5.3-2.3-10.3-5.4-15.2-9.2l-82.4-65.9c-6.8-5.5-16.2-6.4-24-2.4l-8.5,4.4c-19.9,10.4-43.5,10.9-63.8,1.2-8.4-3.9-13.7-12.3-13.7-21.6,0-6.5,2.6-12.6,7.3-17.1l18.1-17.3h-32c-5.8,0-11.4-2.1-15.7-5.9l-2.2-2.1-45.8,62.3c-.2.2-.4.5-.6.8l-4.1,5.6-12.7,17.3-9.9,13.3,4.7,3.6c6.7,4.9,10.9,13,10.9,21.7v2.2c13-13.7,34.3-15.3,49.2-3.6,9.1,7.1,14.2,17.8,14.2,29.2s-.2,1.2-.2,1.9c.9-.2,1.7-.5,2.6-.5,9.5-1.1,18.8,1.6,26.2,7.6,9.6,7.7,14.5,19.7,13.3,31.9,7.8-.9,16,1.2,22.8,6.3,8.2,6.1,13,15.6,13,26s0,.5,0,.8c8-1.3,16.2.4,23.1,4.7,9.5,6.1,15.1,16.5,15.1,27.8s-1.9,12.7-5.3,18l.2.2c7.1,5.4,17.8,4.7,24.1-1.6,3.8-3.8,5.7-8.9,5.4-14.3-.3-5.3-2.9-10.2-7.2-13.4l-46.2-36c-3.3-2.6-4-7.5-1.3-10.9s7.5-4,10.9-1.3l52.8,41.1c6.6,5,15.9,4.4,21.8-1.5,3.5-3.5,5.2-8.2,4.8-13.1s-2.9-9.3-6.9-12.1,0,0,0,0l-53.4-38.2c-3.4-2.6-4-7.5-1.4-10.9,2.5-3.2,7-4,10.4-1.7l55.9,40c8.5,6.1,20.4,4.6,27.2-3.4,3.6-4.3,5.3-9.9,4.6-15.4s-3.6-10.6-8.1-13.9l-26.8-19.9-31.9-23.7c-3.4-2.6-4.2-7.4-1.6-10.9.6-.9,1.4-1.5,2.2-1.9h0c2.6-1.6,6-1.6,8.6.3l64.9,47.9c7.1,5.2,17.5,4.4,23.9-1.9,4.9-4.9,6.5-12.2,4.4-18.7-.3-.2-.6-.2-.9-.2h0Z"/>
  <path class="cls-1" d="M245,483.5l3.6-5.7c1.9-2.8,2.8-6.1,2.8-9.6,0-6.1-3-11.6-8-14.8-5.7-3.6-13-3.6-18.9-.2-.6.3-.9.6-1.2.9,0,0-.2.2-.3.2,0,0,0,0-.2.2-.3.2-.7.7-1,1-2.2,2.7-7.7,9.9-12.6,16.3-2.8,4-3.9,8.7-3,13.4.9,4.8,3.6,8.8,7.8,11.5l1.1.7c3.8,2.5,8.5,3.4,13,2.4,4.7-1,8.6-3.7,11.2-7.7l5.7-8.7q0,0,0,0h0Z"/>
</svg>