<?xml version="1.0" encoding="UTF-8"?>
<svg id="Layer_1" data-name="Layer 1" xmlns="http://www.w3.org/2000/svg" version="1.1" viewBox="0 0 512 512">
  <defs>
    <style>
      .cls-1 {
        fill: #02b5ff;
        stroke-width: 0px;
      }
    </style>
  </defs>
  <path class="cls-1" d="M225.7,93.4c0-4.4,3.6-8,8-8h125.1c4.4,0,8,3.6,8,8s-3.6,8-8,8h-125.1c-4.4,0-8-3.6-8-8ZM159.8,110.5c1.6,1.6,3.6,2.3,5.7,2.3s4.1-.8,5.7-2.3l24.5-24.5c3.2-3.1,3.2-8.2.1-11.3-3.1-3.2-8.2-3.2-11.3-.1,0,0,0,0-.1.1l-18.9,18.9-6.6-6.6c-3.1-3.2-8.2-3.2-11.3-.1s-3.2,8.2-.1,11.3c0,0,0,0,.1.1l12.3,12.3ZM233.7,186.7h125.1c4.4,0,8-3.6,8-8s-3.6-8-8-8h-125.1c-4.4,0-8,3.6-8,8s3.6,8,8,8ZM159.8,196.6c1.6,1.6,3.6,2.3,5.7,2.3s4.1-.8,5.7-2.3l24.5-24.5c3.2-3.1,3.2-8.2.1-11.3s-8.2-3.2-11.3-.1c0,0,0,0-.1.1l-18.9,18.9-6.6-6.6c-3.1-3.2-8.2-3.2-11.3-.1s-3.2,8.2-.1,11.3c0,0,0,0,.1.1l12.3,12.3ZM477.1,338.6l-35.4,20.4c-3.6,2.1-7.7,3.2-11.9,3.2-2.1,0-4.2-.3-6.2-.8-6.2-1.7-11.3-5.6-14.5-11.1l-1-1.7-17.9,9.1c5.4,8.5,4.6,18.9-.1,27-2.4,4.1-5.7,7.6-9.8,10,2.3,3.8,3.6,8.2,3.6,12.9,0,9.7-5.5,19.1-13.9,24-4.7,2.7-9.9,3.7-15.1,3.1-.3,4.4-1.6,8.6-3.8,12.4-4.6,8-13.2,13.7-23,13.5-.1,4.7-1.5,9.4-3.8,13.4-4.5,7.8-12.8,13.5-22.3,13.5s-9-1.2-13.6-3.9l-21.1-12.3-4.1,5.8c-5.1,7.3-12.7,11.4-21,11.4s-1.5,0-2.3-.1c-9.5-.9-18.2-6.9-22.4-15.4-8.9,4.6-19.3,2.9-26.9-2.5-4.9-3.5-8.8-8.5-10.6-14.4-7.3,1.6-15-.3-21.1-4.6-7.5-5.3-12.5-14.2-11.5-23.9-4.7-.5-9.3-2.3-13.1-5-10.7-7.5-16.4-22.6-6.5-36.6l.7-1-26.5-33.1c-3.2,4.6-7.9,7.8-13.4,9.3-2,.5-4.1.8-6.2.8-4.1,0-8.2-1.1-11.9-3.2l-35.4-20.4c-11.4-6.6-15.3-21.2-8.7-32.6l62.1-107.5c1.8-3.2,4.4-5.9,7.5-8V31.4c0-4.4,3.6-8,8-8h304.5c4.4,0,8,3.6,8,8v159c3.1,2,5.6,4.8,7.5,7.9l62.1,107.5c6.6,11.4,2.7,26-8.7,32.6h0ZM111.8,39.4v147.2c3.2.4,6.3,1.4,9.1,3l35.4,20.4c5.5,3.2,9.5,8.3,11.1,14.5,1,3.8,1.1,7.7.2,11.6l44.4,15.8c18.7-16.7,32.5-22.7,61-16.4,26.7,5.9,49.1,5.9,71.3,0-.8-3.7-.7-7.5.3-11.1,1.7-6.2,5.6-11.3,11.1-14.5l35.4-20.4c2.8-1.6,5.9-2.7,9.1-3V39.4H111.8ZM89.1,342.2l62.1-107.5c1-1.8,1.3-3.9.8-6s-1.8-3.7-3.7-4.8l-35.4-20.4c-3.8-2.2-8.6-.9-10.8,2.9l-62.1,107.5c-2.2,3.8-.9,8.6,2.9,10.8l35.4,20.4c1.8,1,4,1.3,6,.8,2-.5,3.7-1.8,4.8-3.7ZM157.7,407.3l18.4-26.1h0c5.6-8-1.2-13.4-2.6-14.3-1.4-1-8.8-5.6-14.4,2.4l-18.4,26.1c-5.6,8,1.2,13.4,2.6,14.4,1.4,1,8.8,5.6,14.4-2.4h0ZM183.9,434l25.7-36.5,3.9-5.6c5.6-8-1.2-13.4-2.6-14.4-1.4-1-8.8-5.6-14.4,2.4l-7.3,10.4h0s0,0,0,0l-18.4,26.1-5.4,7.7c-5.6,8,1.2,13.4,2.6,14.4,1.4,1,8.8,5.6,14.4-2.4l1.6-2.2ZM219.8,446.9h0s9.2-13.1,9.2-13.1l10.6-15.1c5.6-8-1.2-13.4-2.6-14.4-1.4-1-8.8-5.6-14.4,2.4h0s-25.7,36.5-25.7,36.5h0c-5.6,8,1.2,13.4,2.6,14.4s8.8,5.6,14.4-2.4l5.8-8.3ZM256.5,440.5c-1.4-1-8.8-5.6-14.4,2.4h0s-9.2,13.1-9.2,13.1c-2.3,3.3-2.8,6.6-1.3,9.8,1.7,3.6,5.6,6.4,9.6,6.7,3.5.3,6.4-1.2,8.7-4.6l9.2-13.1c5.6-8-1.2-13.4-2.6-14.4ZM372.6,362.6l-98.9-57.3c-8.9-5.1-17.7-1.4-31.3,5-.7.3-1.3.6-2,.9-1,2-2,4.1-3,6.4-5.1,11-11,23.4-21,28.9-11.9,6.4-22.4,7.4-29.8,2.7-3.4-2.1-9-7.4-8.4-19l2.1-44.6c0-2,1-4,2.4-5.4,4.2-4,7.9-7.7,11.5-11.3,1.7-1.6,3.2-3.2,4.8-4.7l-38.5-13.7-50,86.7,27.4,34.3,8.1-11.5c9.9-14.1,26-13.8,36.7-6.3,3.5,2.5,6.4,5.7,8.5,9.4,9.3-6,20.7-4.5,28.9,1.3,6.9,4.9,11.7,12.8,11.6,21.6,5.2.3,10.3,2.1,14.6,5.1,9.5,6.7,15,19.2,9.3,31.8,3.6.8,7.1,2.3,10.2,4.5,9.1,6.4,14.6,18.3,9.9,30.3l20.7,12c8.4,4.9,13.2-2.3,14.1-3.8.9-1.5,4.8-9.2-3.6-14.1h0s0,0,0,0h0l-26.6-15.5c-3.8-2.2-5.2-7.1-3-10.9,2.2-3.8,7.1-5.2,10.9-3,0,0,0,0,.1,0l26.6,15.5h0s0,0,0,0h0s8.3,4.9,8.3,4.9c8.4,4.9,13.2-2.3,14.1-3.8.9-1.5,4.8-9.2-3.6-14.1h0s0,0,0,0h0s-32.6-19-32.6-19c-3.8-2.2-5.2-7.1-3-10.9,2.2-3.8,7.1-5.2,10.9-3,0,0,0,0,.1,0l32.7,19h0s0,0,0,0l10.5,6.1c3.5,2,6.8,2.2,9.8.5,3.5-2,5.9-6.1,5.9-10.1,0-3.5-1.8-6.3-5.3-8.3l-8.4-4.9h0s0,0,0,0h0s-32.3-18.8-32.3-18.8c-3.8-2.2-5.2-7.1-3-10.9,2.2-3.8,7.1-5.2,10.9-3,0,0,0,0,.1,0l32.3,18.8c8.4,4.9,13.2-2.3,14.1-3.8.9-1.5,4.8-9.2-3.6-14.1h0ZM400.1,334.7l-48.7-84.4c-33.6,9.5-62.6,5.2-81.9.9-28.2-6.2-35.1.6-64.1,29.2-3.1,3.1-6.2,6.1-9.3,9.2l-2,41.4c-.1,2.7.4,4.3,1,4.7,1.4.9,6.3.7,13.7-3.3,5.4-2.9,10.1-12.8,14.1-21.6,1.5-3.2,3-6.4,4.6-9.4.8-1.5,2.1-2.8,3.7-3.5,1.4-.7,2.9-1.4,4.3-2,13.8-6.6,29.5-14,46.2-4.4l95.2,55.1,23.2-11.8ZM472,313.9l-62.1-107.5c-2.2-3.8-7-5.1-10.8-2.9l-35.4,20.4c-1.8,1-3.1,2.7-3.7,4.8-.5,2-.3,4.2.8,6l62.1,107.5c1,1.8,2.7,3.1,4.8,3.7,2,.6,4.2.3,6-.8l35.4-20.4c3.8-2.2,5.1-7,2.9-10.8h0Z"/>
</svg>