<?xml version="1.0" encoding="utf-8"?>
<!-- Generator: Adobe Illustrator 27.0.0, SVG Export Plug-In . SVG Version: 6.00 Build 0)  -->
<svg version="1.1" xmlns="http://www.w3.org/2000/svg" xmlns:xlink="http://www.w3.org/1999/xlink" x="0px" y="0px"
	 viewBox="0 0 500 500" style="enable-background:new 0 0 500 500;" xml:space="preserve">
<style type="text/css">
	.st0{fill:#E0E0E0;}
	.st1{fill:#FAFAFA;}
	.st2{fill:#EBEBEB;}
	.st3{fill:#F5F5F5;}
	.st4{fill:#FFFFFF;}
	.st5{fill:none;stroke:#FBFBFB;stroke-width:0.25;stroke-miterlimit:10;}
	.st6{display:none;}
	.st7{display:inline;}
	.st8{fill:#263238;}
	.st9{fill:#FF725E;}
	.st10{fill:#002A45;}
	.st11{opacity:0.3;}
	.st12{fill:#00B5FF;}
	.st13{fill-rule:evenodd;clip-rule:evenodd;fill:#00B5FF;}
	.st14{fill-rule:evenodd;clip-rule:evenodd;fill:#FFFFFF;}
	.st15{fill:#455A64;}
	.st16{opacity:0.6;}
	.st17{fill:#E09F69;}
	.st18{fill:#724A44;}
	.st19{fill:#492C08;}
	.st20{fill:#A36434;}
	.st21{fill:#D13020;}
	.st22{fill:#7C5125;}
	.st23{fill:#16677A;}
</style>
<g id="Background_Complete">
	<g>
		<g>
			<g>
				<g>
					<g>
						<g>
							<g>
								<g>
									<g>
										<g>
											<g>
												<rect x="403.4" y="156.6" class="st0" width="77.6" height="80.8"/>
											</g>
										</g>
									</g>
								</g>
							</g>
						</g>
					</g>
				</g>
			</g>
		</g>
		<g>
			<g>
				<g>
					<g>
						<g>
							<g>
								<g>
									<g>
										<g>
											<g>
												<rect x="398.1" y="156.6" class="st1" width="77.6" height="80.8"/>
											</g>
										</g>
									</g>
								</g>
							</g>
						</g>
					</g>
				</g>
			</g>
			<g>
				<g>
					<g>
						<g>
							<g>
								<g>
									<g>
										<g>
											<g>
												<path class="st0" d="M475.7,237.5h-77.6v-80.9h77.6V237.5z M398.1,237.5h77.5v-80.8h-77.5V237.5z"/>
											</g>
										</g>
									</g>
								</g>
							</g>
						</g>
					</g>
				</g>
			</g>
		</g>
		<g>
			<g>
				<g>
					<g>
						<g>
							<g>
								<g>
									<g>
										<g>
											<g>
												<rect x="408.5" y="167.5" class="st1" width="56.7" height="59.1"/>
											</g>
										</g>
									</g>
								</g>
							</g>
						</g>
					</g>
				</g>
			</g>
		</g>
		<g>
			<g>
				<g>
					<g>
						<g>
							<g>
								<g>
									<g>
										<g>
											<g>
												<g>
													<path class="st0" d="M408.5,227c0,0.1-0.5,0.7-1.4,1.6c-0.9,1-2.2,2.2-3.6,3.7c-1.4,1.4-2.7,2.7-3.7,3.5
														c-1,0.9-1.6,1.4-1.6,1.4c0,0,0.5-0.7,1.4-1.6c0.9-1,2.2-2.3,3.6-3.7c1.4-1.4,2.7-2.7,3.7-3.6
														C407.9,227.5,408.5,226.9,408.5,227z"/>
												</g>
											</g>
										</g>
									</g>
								</g>
							</g>
						</g>
					</g>
				</g>
			</g>
		</g>
		<g>
			<g>
				<g>
					<g>
						<g>
							<g>
								<g>
									<g>
										<g>
											<g>
												<g>
													<path class="st0" d="M465.3,226.9c0.1,0,0.7,0.5,1.6,1.4c1,0.9,2.2,2.2,3.7,3.6c1.4,1.4,2.7,2.7,3.5,3.7
														c0.9,1,1.4,1.6,1.4,1.6c0,0-0.7-0.5-1.6-1.4c-1-0.9-2.3-2.2-3.7-3.6c-1.4-1.4-2.7-2.7-3.6-3.7
														C465.7,227.5,465.2,226.9,465.3,226.9z"/>
												</g>
											</g>
										</g>
									</g>
								</g>
							</g>
						</g>
					</g>
				</g>
			</g>
		</g>
		<g>
			<g>
				<g>
					<g>
						<g>
							<g>
								<g>
									<g>
										<g>
											<g>
												<g>
													<path class="st0" d="M465.1,167.7c0-0.1,0.5-0.7,1.4-1.6c0.9-1,2.2-2.2,3.6-3.7c1.4-1.4,2.7-2.7,3.7-3.5
														c1-0.9,1.6-1.4,1.6-1.4c0,0-0.5,0.7-1.4,1.6c-0.9,1-2.2,2.3-3.6,3.7c-1.4,1.4-2.7,2.7-3.7,3.6
														C465.8,167.2,465.1,167.7,465.1,167.7z"/>
												</g>
											</g>
										</g>
									</g>
								</g>
							</g>
						</g>
					</g>
				</g>
			</g>
		</g>
		<g>
			<g>
				<g>
					<g>
						<g>
							<g>
								<g>
									<g>
										<g>
											<g>
												<g>
													<path class="st0" d="M408.4,167.8c-0.1,0-0.7-0.5-1.6-1.4c-1-0.9-2.2-2.2-3.7-3.6c-1.4-1.4-2.7-2.7-3.5-3.7
														c-0.9-1-1.4-1.6-1.4-1.6c0,0,0.7,0.5,1.6,1.4c1,0.9,2.3,2.2,3.7,3.6c1.4,1.4,2.7,2.7,3.6,3.7
														C407.9,167.1,408.4,167.8,408.4,167.8z"/>
												</g>
											</g>
										</g>
									</g>
								</g>
							</g>
						</g>
					</g>
				</g>
			</g>
		</g>
		<g>
			<g>
				<g>
					<g>
						<g>
							<g>
								<g>
									<g>
										<g>
											<g>
												<g>
													<path class="st0" d="M465.1,226.6c0,0,0-0.1,0-0.3c0-0.2,0-0.5,0-0.8c0-0.7,0-1.8,0-3.2c0-2.8,0-6.9-0.1-12
														c0-10.4-0.1-25.1-0.1-42.8l0.2,0.2c-16.5,0-35.9,0-56.5,0h0l0.3-0.3c0,21.7,0,42,0,59.1l-0.2-0.2
														c16.9,0,31.1,0.1,40.9,0.1c4.9,0,8.8,0,11.5,0.1c1.3,0,2.3,0,3,0c0.3,0,0.6,0,0.8,0C465,226.6,465.1,226.6,465.1,226.6
														c0,0-0.1,0-0.2,0c-0.2,0-0.4,0-0.8,0c-0.7,0-1.7,0-3,0c-2.7,0-6.5,0-11.5,0.1c-9.9,0-24.1,0.1-41.1,0.1l-0.2,0l0-0.2
														c0-17.1,0-37.4,0-59.1l0-0.3h0.3h0c20.7,0,40,0,56.5,0h0.2l0,0.2c0,17.7-0.1,32.5-0.1,42.9c0,5.2,0,9.2-0.1,12
														c0,1.4,0,2.4,0,3.1c0,0.3,0,0.6,0,0.8C465.1,226.5,465.1,226.6,465.1,226.6z"/>
												</g>
											</g>
										</g>
									</g>
								</g>
							</g>
						</g>
					</g>
				</g>
			</g>
		</g>
		<g>
			<g>
				<g>
					<g>
						<g>
							<g>
								<g>
									<g>
										<g>
											<g>
												<rect x="427.4" y="187.6" class="st2" width="18.9" height="18.9"/>
											</g>
										</g>
									</g>
								</g>
							</g>
						</g>
					</g>
				</g>
			</g>
		</g>
	</g>
	<g>
		
			<rect x="152.6" y="41.7" transform="matrix(0.9996 -2.789168e-02 2.789168e-02 0.9996 -6.3273 7.9374)" class="st0" width="257.6" height="378.2"/>
	</g>
	<g>
		
			<rect x="122.6" y="42.3" transform="matrix(0.9985 5.481667e-02 -5.481667e-02 0.9985 13.0623 -13.4331)" class="st3" width="257.6" height="378.2"/>
	</g>
	<g>
		
			<rect x="162.2" y="62.4" transform="matrix(0.9964 8.485055e-02 -8.485055e-02 0.9964 22.3901 -23.7816)" class="st2" width="257.6" height="378.2"/>
	</g>
	<g>
		<g>
			<g>
				<g>
					<path class="st0" d="M42.1,373.6c-3.9-2.4-8.3-4-12.9-4.4c-2.1-0.2-4.4-0.2-6.1,1.1c-0.4,0.3-0.7,0.7-0.6,1.1
						c0.1,0.3,0.3,0.6,0.6,0.8C28.3,376.1,36.3,376.6,42.1,373.6"/>
				</g>
			</g>
			<g>
				<g>
					<path class="st0" d="M41.8,373.2c-2.9-2.3-5.9-4.6-8.3-7.3c-2.5-2.8-4.5-6-5.2-9.7c-0.2-1.1-0.3-2.4,0.4-3.2
						C35.3,358.2,40.5,364.9,41.8,373.2"/>
				</g>
			</g>
			<g>
				<g>
					<path class="st0" d="M42.1,373.5c-0.5-3.6-0.7-7.4,0.2-11c0.8-3.6,2.8-7,5.8-9c1.1,2.7,0.7,5.8-0.2,8.6
						c-1.3,4.3-3.2,8.5-5.8,12.2"/>
				</g>
			</g>
			<g>
				<g>
					<path class="st0" d="M48.6,385.2c-4,0.5-7.4,2.6-10.4,5.2c-3,2.7-5.1,6.3-5.9,10.2c3.9-0.2,7.2-3,9.6-6
						C44.2,391.5,45.9,388.1,48.6,385.2"/>
				</g>
			</g>
			<g>
				<g>
					<path class="st0" d="M50,387.1c-3.2-7.8-2-17.3,2.9-24.2C55.2,370.9,54.4,380,50,387.1"/>
				</g>
			</g>
			<g>
				<g>
					<path class="st0" d="M58.6,397.3c-3.6-0.2-7.2,0.6-10.4,2.4c-3.1,1.8-5.7,4.5-7.3,7.7c-0.2,0.4-0.4,1-0.1,1.4
						c0.3,0.3,0.7,0.4,1.2,0.3c3.5-0.2,6.6-2.3,9.1-4.7C53.7,402.1,55.9,399.4,58.6,397.3"/>
				</g>
			</g>
			<g>
				<g>
					<path class="st0" d="M58.3,396.8c-1.9-5.9-2-12.4-0.3-18.4c0.6-2.4,1.7-4.9,3.9-6c0.2-0.1,0.4-0.2,0.6-0.1
						c0.2,0.1,0.3,0.3,0.4,0.4c0.8,1.6,1,3.5,0.9,5.3c-0.1,1.8-0.5,3.6-0.8,5.3c-0.7,3.3-1.1,6.8-2.8,9.6c-0.4,0.7-0.8,1.4-1.1,2.1
						c-0.3,0.7-0.3,1-0.7,1.5"/>
				</g>
			</g>
			<g>
				<g>
					<path class="st0" d="M81.1,400.2c-1.7-6.4,0.1-14.2,4.2-19.5c0.3-0.4,0.7-0.8,1.2-0.8c0.7,0.1,0.9,1.1,0.9,1.8
						C87.1,388.3,84.9,394.8,81.1,400.2"/>
				</g>
			</g>
			<g>
				<g>
					<path class="st0" d="M83.2,401.6c7.8,2,16.8,0.1,23.2-4.7c-3.8-1.9-8.4-2.5-12.6-1.5C89.6,396.3,85.8,398.1,83.2,401.6"/>
				</g>
			</g>
			<g>
				<g>
					<path class="st0" d="M84.9,397.3c4.4-7.1,12.8-11.8,21.1-12.2c-1,3.4-3.8,6-6.9,7.6c-3.1,1.6-6.7,2.3-10.1,3
						C87.6,395.9,85.8,396.2,84.9,397.3"/>
				</g>
			</g>
			<g>
				<g>
					<path class="st0" d="M81.6,376.5c1.2-4.1,2.4-8.1,2.7-12.4c0.3-4.2-0.3-8.6-2.5-12.2c-4.1,7.9-4.5,17.1-0.4,25"/>
				</g>
			</g>
			<g>
				<g>
					<path class="st0" d="M95.3,369.6c4.8-8.7,14.5-15.6,24.4-16.6C115.9,362.5,105.5,369.8,95.3,369.6"/>
				</g>
			</g>
			<g>
				<g>
					<path class="st0" d="M92.3,371.3c7.1,1.1,13.2,5.6,19.8,8.4c1.4,0.6,3,1.1,4.5,0.9c1.5-0.2,3-1.2,3.4-2.7
						c0.3-1.2-0.3-2.6-1.2-3.5c-0.9-0.9-2.1-1.5-3.3-2c-7.2-3-15-3.1-22.7-1.3"/>
				</g>
			</g>
			<g>
				<g>
					<path class="st0" d="M88.2,376.3c1.6,0.5,2.2,1.3,3.4,2.4c4.3,3.7,9.5,6.4,15,7.7c0.6,0.1,1.3,0.2,1.6-0.3
						c0.2-0.5-0.1-1-0.4-1.4c-2.3-2.9-5.6-4.9-9.1-6.2c-3.5-1.3-6.5-2.9-10.6-2.5"/>
				</g>
			</g>
			<g>
				<g>
					<path class="st0" d="M83.5,346.1c5.8,5.4,13.9,8.2,21.8,7.4c0.4,0,0.8-0.1,1-0.4c0.5-0.6-0.1-1.5-0.8-2
						C99.2,346.2,91.4,344.1,83.5,346.1"/>
				</g>
			</g>
			<g>
				<g>
					<path class="st0" d="M89,344.1c7.7-5.7,18.2-7.5,27.2-4.5c-3.4,3.4-8.2,5.2-13,5.7C98.5,345.8,93.7,345.3,89,344.1"/>
				</g>
			</g>
			<g>
				<g>
					<path class="st0" d="M86.9,330.2c-0.6-6.4-0.2-11.5-0.7-17.9c0-0.5-0.1-1.1-0.6-1.3c-0.7-0.3-1.2,0.6-1.4,1.2
						c-1.9,5.9-0.9,12.7,2.7,17.8"/>
				</g>
			</g>
			<g>
				<g>
					<path class="st0" d="M86.4,330.9c4.3-2.7,7.6-6.2,10.6-10.3c2.1-2.9,3.9-6.3,3.4-9.8c-2.9-0.1-5.7,1.6-7.7,3.8
						c-1.9,2.2-3.1,5-3.9,7.9C88,325.3,87.4,328.2,86.4,330.9"/>
				</g>
			</g>
			<g>
				<g>
					<path class="st0" d="M96.8,328.1c9.5-3.5,18.4-8.8,26.1-15.4c-3.1-1.3-6.7-0.5-9.8,0.8c-7.1,2.9-12.9,7.7-16.4,14.6"/>
				</g>
			</g>
			<g>
				<g>
					<path class="st0" d="M89.3,334.5c4.8,0.5,9.7,0.9,14.5,0.1c4.7-0.8,9.1-2.6,13.5-4.5c0.4-0.2,0.8-0.3,0.9-0.7
						c0.2-0.4,0-0.9-0.3-1.2c-0.3-0.3-0.7-0.4-1.2-0.5c-4.8-1.3-9.9-0.7-14.6,0.9C97.5,330.1,93.6,332,89.3,334.5"/>
				</g>
			</g>
			<g>
				<g>
					<path class="st0" d="M61.8,346.3c-3.3-6.6-3.1-14.4-0.2-21.2c2,3,2.2,6.9,1.9,10.6c-0.4,3.6-1.5,7.4-1.5,11"/>
				</g>
			</g>
			<g>
				<g>
					<path class="st0" d="M48.7,339.7c-8.2-0.2-16.4,3.3-22,9.4c4.1,0.6,8.3-0.4,12-2.2c3.7-1.8,7-4.4,10.3-6.9"/>
				</g>
			</g>
			<g>
				<g>
					<path class="st0" d="M39.8,336.8c-4-0.3-7.9-0.8-11.7,0.4c-3.9,1.2-7.4,3.9-9,7.6c3.8,0.4,7.6-0.5,11-2.1
						C33.6,341.1,36.7,338.9,39.8,336.8"/>
				</g>
			</g>
			<g>
				<g>
					<path class="st0" d="M52.9,336.9c-3.6-2.4-7.3-4.8-11.5-5.8c-4.2-1-9.1-0.3-12,2.9c3.4,2,7.5,2.2,11.5,2.2c4,0,8.8,0,12.5,1.3"
						/>
				</g>
			</g>
			<g>
				<g>
					<path class="st0" d="M52.9,337.1c-6.2-6.1-8.5-17-6-25.3C51.7,319.2,53.9,328.3,52.9,337.1"/>
				</g>
			</g>
			<g>
				<g>
					<path class="st0" d="M69.9,319.9c1.2-2.7,2-5.6,3-8.3c1-2.8,2.3-5.5,4.3-7.7c2-2.2,4.7-3.8,7.7-4c-1.8,8.3-7.4,15.8-14.9,20"/>
				</g>
			</g>
			<g>
				<g>
					<path class="st0" d="M66.8,323.5c-1.9-2.7-4.2-6.3-6.8-8.2c-2.6-2-6-3.2-9.2-2.4C54.1,318.6,60.2,322.7,66.8,323.5"/>
				</g>
			</g>
			<g>
				<g>
					<path class="st0" d="M67.5,320.1c-1.3-3.2-2.5-6.5-3-9.9c-0.5-3.4-0.2-7.1,1.5-10c3.4,6.4,4.5,13.3,1.7,20"/>
				</g>
			</g>
			<g>
				<g>
					<path class="st0" d="M69.9,300.2c1.9-6.4,7.7-11,14-13.2c0.8-0.3,1.6-0.5,2.5-0.4c0.8,0.1,1.6,0.7,1.8,1.5
						c0.2,1.1-0.7,2.1-1.5,2.8C81.8,295.1,76.1,298.3,69.9,300.2"/>
				</g>
			</g>
			<g>
				<g>
					<path class="st0" d="M70,295c0.2-4.1,0.5-8.3,1.8-12.1c1.3-3.9,3.9-7.5,7.6-9.2c0.6,4.1-1.2,8.3-3.4,11.8
						c-2.2,3.6-4.9,6.9-6.2,10.9"/>
				</g>
			</g>
			<g>
				<g>
					<path class="st0" d="M69.9,297.8c-1.6-4.6-1.8-10.5-4.5-14.6c-1.9-2.8-5-4.7-6.7-7.7c-1.1,2.8-0.8,6,0.4,8.8
						c1.2,2.8,3.1,5.2,5.1,7.3C66.2,293.9,68,295.5,69.9,297.8"/>
				</g>
			</g>
			<g>
				<g>
					<g>
						<path class="st0" d="M69.9,434.2c-0.1,0-0.2-30.9-0.2-69c0-38.1,0.1-69,0.2-69c0.1,0,0.2,30.9,0.2,69
							C70.2,403.3,70.1,434.2,69.9,434.2z"/>
					</g>
				</g>
			</g>
			<g>
				<g>
					<g>
						<path class="st0" d="M96.9,341.7c0,0-0.4,0.2-1.2,0.4c-0.8,0.3-1.9,0.6-3.2,1.1c-2.7,0.9-6.4,2.2-10.4,3.9
							c-4,1.7-7.7,3.1-9.9,4.9c-1.1,0.9-1.7,1.9-2,2.6c-0.3,0.7-0.4,1.2-0.4,1.2c0,0,0-0.1,0-0.3c0-0.2,0.1-0.5,0.2-0.9
							c0.3-0.8,0.9-1.8,1.9-2.8c1.1-1,2.6-1.9,4.3-2.7c1.7-0.8,3.6-1.6,5.6-2.5c4-1.7,7.8-2.9,10.5-3.8c1.4-0.4,2.5-0.7,3.2-0.9
							C96.5,341.7,96.9,341.6,96.9,341.7z"/>
					</g>
				</g>
			</g>
			<g>
				<g>
					<g>
						<path class="st0" d="M105.8,319.9c0,0-0.1,0.1-0.3,0.3c-0.3,0.2-0.6,0.6-1,0.9c-0.9,0.8-2.2,2-3.7,3.4
							c-3.2,2.8-7.5,6.7-12.3,11c-4.8,4.3-9,8.4-11.8,11.5c-1.4,1.5-2.6,2.8-3.4,3.7c-0.4,0.4-0.7,0.8-0.9,1
							c-0.2,0.2-0.3,0.3-0.3,0.3c0,0,0.1-0.1,0.3-0.4c0.2-0.2,0.5-0.6,0.8-1.1c0.7-0.9,1.8-2.2,3.3-3.8c2.8-3.1,7-7.3,11.8-11.6
							c4.8-4.3,9.2-8.1,12.4-10.9c1.6-1.3,2.9-2.4,3.8-3.3c0.4-0.4,0.8-0.6,1-0.9C105.7,320,105.8,319.9,105.8,319.9z"/>
					</g>
				</g>
			</g>
			<g>
				<g>
					<g>
						<path class="st0" d="M83.3,339.9c-0.1-0.1,0.9-2.4,1.9-5.3c1-2.9,1.5-5.4,1.6-5.4c0.1,0-0.2,2.6-1.2,5.5
							c-0.5,1.5-1.1,2.8-1.5,3.7C83.6,339.4,83.3,339.9,83.3,339.9z"/>
					</g>
				</g>
			</g>
			<g>
				<g>
					<g>
						<path class="st0" d="M70,358.6c0,0-0.3-0.3-0.7-0.9c-0.5-0.6-1.1-1.5-1.9-2.4c-1.6-2.1-3.8-4.9-6.3-8
							c-2.5-3.1-4.7-5.9-6.4-7.9c-0.8-1-1.4-1.8-1.9-2.4c-0.5-0.6-0.7-0.9-0.7-0.9c0,0,0.3,0.3,0.8,0.8c0.5,0.5,1.2,1.3,2,2.3
							c1.7,2,4,4.7,6.5,7.9c2.5,3.1,4.6,6,6.2,8.1c0.8,1.1,1.4,1.9,1.8,2.5C69.8,358.2,70,358.6,70,358.6z"/>
					</g>
				</g>
			</g>
			<g>
				<g>
					<g>
						<path class="st0" d="M64,351c-0.1,0.1-1.7-1.8-2.5-4.6c-0.6-2-0.6-3.8-0.6-4.7l0.2,0c-0.1,0.4-0.2,0.5-0.2,0.5
							c0,0,0-0.2,0-0.6l0.2,0c0.1,0.8,0.2,2.6,0.8,4.6C62.8,349,64.2,350.9,64,351z"/>
					</g>
				</g>
			</g>
			<g>
				<g>
					<g>
						<path class="st0" d="M56.4,341.4c-0.1,0.1-0.6-0.6-1.7-1c-1.2-0.4-2.9-0.5-4.8-0.4c-1.9,0.1-3.6,0.5-4.8,0.8
							c-1.2,0.3-2,0.5-2,0.5c0-0.1,0.7-0.4,1.9-0.8c1.2-0.4,2.9-0.8,4.9-0.9c1.9-0.2,3.8,0,5,0.5C56,340.6,56.4,341.4,56.4,341.4z"
							/>
					</g>
				</g>
			</g>
			<g>
				<g>
					<g>
						<path class="st0" d="M54.6,339.1c0,0.1-1-0.4-2.7-1c-1.6-0.6-4-1.2-6.6-1.4c-2.6-0.2-5,0-6.8,0.3c-1.7,0.3-2.7,0.6-2.8,0.6
							c0,0,0.2-0.1,0.7-0.3c0.5-0.2,1.1-0.4,2-0.6c1.7-0.4,4.2-0.7,6.8-0.5c2.7,0.2,5.1,0.9,6.7,1.5c0.8,0.3,1.5,0.6,1.9,0.9
							C54.4,338.9,54.6,339,54.6,339.1z"/>
					</g>
				</g>
			</g>
			<g>
				<g>
					<g>
						<path class="st0" d="M69.9,329.2c-0.1,0-1-3-1.9-6.7c-0.9-3.7-1.6-6.8-1.5-6.8c0.1,0,1,3,1.9,6.7
							C69.4,326.1,70,329.2,69.9,329.2z"/>
					</g>
				</g>
			</g>
			<g>
				<g>
					<g>
						<path class="st0" d="M70,329.2c-0.1,0-0.7-2-2.1-4c-1.4-2.1-3.2-3.2-3.2-3.3c0,0,0.5,0.1,1.2,0.6c0.7,0.5,1.6,1.3,2.3,2.4
							C69.8,327.1,70.1,329.2,70,329.2z"/>
					</g>
				</g>
			</g>
			<g>
				<g>
					<g>
						<path class="st0" d="M69.9,417.8c0,0-0.1-0.7-0.5-2.1c-0.3-1.3-1-3.2-2.1-5.4c-2.1-4.4-6-9.9-11-15.4c-2.4-2.8-4.8-5.4-6.8-8
							c-2-2.5-3.7-4.9-4.9-7c-1.2-2.1-2-3.9-2.5-5.2c-0.2-0.6-0.4-1.1-0.5-1.5c-0.1-0.3-0.1-0.5-0.1-0.5c0,0,0.3,0.7,0.8,2
							c0.5,1.3,1.3,3,2.6,5.1c1.2,2.1,2.9,4.5,4.9,6.9c2,2.5,4.4,5.1,6.8,7.9c4.9,5.6,8.8,11.2,10.9,15.6c1,2.2,1.7,4.1,1.9,5.4
							c0.1,0.7,0.2,1.2,0.3,1.6C69.9,417.6,70,417.8,69.9,417.8z"/>
					</g>
				</g>
			</g>
			<g>
				<g>
					<g>
						<path class="st0" d="M94.3,390.2c0,0-0.5,0.3-1.3,0.7c-0.8,0.5-2,1.2-3.3,2.2c-1.3,1-2.8,2.4-4.4,4c-1.5,1.6-3.1,3.5-4.7,5.5
							c-3.2,4-6.2,7.6-8,10.4c-0.9,1.4-1.6,2.6-2,3.4c-0.4,0.8-0.7,1.3-0.7,1.3c0,0,0-0.1,0.1-0.4c0.1-0.2,0.2-0.6,0.4-1
							c0.4-0.9,1-2.1,1.9-3.5c1.7-2.9,4.7-6.5,7.9-10.6c1.6-2,3.2-3.9,4.8-5.5c1.6-1.6,3.1-2.9,4.5-3.9c1.4-1,2.6-1.7,3.4-2.1
							c0.4-0.2,0.8-0.3,1-0.4C94.2,390.2,94.3,390.2,94.3,390.2z"/>
					</g>
				</g>
			</g>
			<g>
				<g>
					<g>
						<path class="st0" d="M94.8,399.1c0,0.1-1,0.2-2.7,0.4c-1.7,0.2-4,0.5-6.4,1.3c-2.4,0.8-4.4,2-5.7,3c-1.3,1-1.9,1.9-2,1.8
							c0,0,0.1-0.2,0.4-0.6c0.3-0.4,0.8-0.9,1.4-1.4c1.3-1.1,3.3-2.4,5.8-3.2c2.5-0.8,4.8-1,6.5-1.2
							C93.8,399.1,94.8,399.1,94.8,399.1z"/>
					</g>
				</g>
			</g>
			<g>
				<g>
					<g>
						<path class="st0" d="M78.7,404.7c-0.1-0.1,1.1-1.9,2-4.4c0.9-2.5,1.1-4.7,1.3-4.7c0.1,0,0.1,0.6,0,1.5
							c-0.1,0.9-0.3,2.1-0.8,3.4c-0.5,1.3-1.1,2.4-1.6,3.1C79.1,404.2,78.8,404.7,78.7,404.7z"/>
					</g>
				</g>
			</g>
			<g>
				<g>
					<g>
						<path class="st0" d="M102.2,366.2c0,0-0.1,0.1-0.4,0.2c-0.3,0.2-0.8,0.3-1.3,0.6c-0.6,0.2-1.2,0.5-2,0.9
							c-0.8,0.4-1.7,0.8-2.6,1.4c-0.5,0.3-1,0.5-1.5,0.8c-0.5,0.3-1,0.6-1.6,1c-1.1,0.7-2.2,1.5-3.3,2.3c-2.3,1.7-4.7,3.8-7,6.1
							c-2.3,2.4-4.2,4.8-5.9,7.2c-0.8,1.2-1.6,2.3-2.2,3.4c-0.3,0.5-0.7,1.1-0.9,1.6c-0.3,0.5-0.5,1-0.8,1.5
							c-0.5,0.9-0.9,1.9-1.3,2.6c-0.4,0.8-0.7,1.5-0.9,2c-0.2,0.5-0.4,0.9-0.5,1.3c-0.1,0.3-0.2,0.4-0.2,0.4s0-0.2,0.1-0.5
							c0.1-0.3,0.3-0.8,0.5-1.3c0.2-0.6,0.5-1.3,0.8-2.1c0.3-0.8,0.7-1.7,1.2-2.7c0.2-0.5,0.5-1,0.8-1.5c0.3-0.5,0.6-1.1,0.9-1.6
							c0.6-1.1,1.4-2.3,2.2-3.5c1.6-2.4,3.6-4.9,5.9-7.3c2.3-2.4,4.7-4.4,7-6.1c1.2-0.8,2.3-1.6,3.4-2.3c0.5-0.3,1.1-0.7,1.6-1
							c0.5-0.3,1-0.6,1.5-0.8c0.9-0.5,1.8-0.9,2.6-1.3c0.8-0.4,1.5-0.7,2-0.9c0.5-0.2,1-0.4,1.3-0.5
							C102.1,366.2,102.2,366.2,102.2,366.2z"/>
					</g>
				</g>
			</g>
			<g>
				<g>
					<g>
						<path class="st0" d="M82.9,379.1c0,0,0.2-0.8,1.1-1.6c0.9-0.8,2.4-1.6,4.3-1.6c1.8,0,3.4,0.5,4.5,0.9c1.1,0.4,1.7,0.8,1.7,0.8
							c0,0.1-0.7-0.2-1.8-0.5c-1.1-0.3-2.6-0.8-4.4-0.7c-1.7,0.1-3.2,0.7-4.1,1.4C83.3,378.5,83,379.2,82.9,379.1z"/>
					</g>
				</g>
			</g>
			<g>
				<g>
					<g>
						<path class="st0" d="M80,382.1c-0.1-0.1,1-1.7,1.2-4c0.3-2.3-0.4-4.1-0.3-4.1c0,0,0.3,0.4,0.5,1.2c0.2,0.7,0.4,1.8,0.2,3
							c-0.1,1.2-0.5,2.2-0.9,2.9C80.4,381.8,80.1,382.1,80,382.1z"/>
					</g>
				</g>
			</g>
		</g>
		<g>
			<g>
				<path class="st0" d="M48.6,422.2c0.7,11.8,4.2,23.8,9.7,36h23.8c5.2-12,8.5-24,9.1-36H48.6z"/>
			</g>
		</g>
		<g>
			<g>
				<g>
					<path class="st1" d="M87.4,441.3c0,0.1-7.8,0.2-17.5,0.2c-9.7,0-17.5-0.1-17.5-0.2c0-0.1,7.8-0.2,17.5-0.2
						C79.5,441.1,87.4,441.2,87.4,441.3z"/>
				</g>
			</g>
		</g>
		<g>
			<g>
				<g>
					<path class="st1" d="M86.8,445.6c0,0.1-7.3,0.2-16.4,0.2c-9.1,0-16.4-0.1-16.4-0.2c0-0.1,7.3-0.2,16.4-0.2
						C79.5,445.4,86.8,445.5,86.8,445.6z"/>
				</g>
			</g>
		</g>
		<g>
			<g>
				<g>
					<path class="st1" d="M58.7,429.9c0.1,0,0.2,2.5,0.2,5.5c0,3-0.1,5.5-0.2,5.5c-0.1,0-0.2-2.5-0.2-5.5
						C58.5,432.4,58.6,429.9,58.7,429.9z"/>
				</g>
			</g>
		</g>
		<g>
			<g>
				<g>
					<path class="st1" d="M71.4,429.9c0.1,0,0.2,2.5,0.2,5.7c0,3.1-0.1,5.7-0.2,5.7c-0.1,0-0.2-2.5-0.2-5.7
						C71.2,432.5,71.3,429.9,71.4,429.9z"/>
				</g>
			</g>
		</g>
		<g>
			<g>
				<g>
					<path class="st1" d="M83.4,429.9c0.1,0,0.2,2.6,0.2,5.8c0,3.2-0.1,5.8-0.2,5.8s-0.2-2.6-0.2-5.8
						C83.2,432.4,83.3,429.9,83.4,429.9z"/>
				</g>
			</g>
		</g>
		<g>
			<g>
				<g>
					<path class="st1" d="M90.5,429.9c0,0.1-9.2,0.2-20.5,0.2c-11.3,0-20.5-0.1-20.5-0.2c0-0.1,9.2-0.2,20.5-0.2
						C81.3,429.7,90.5,429.8,90.5,429.9z"/>
				</g>
			</g>
		</g>
	</g>
	<g>
		<g>
			<g>
				<rect x="28.5" y="71.8" class="st0" width="95.4" height="138.3"/>
			</g>
		</g>
		<g>
			<g>
				<rect x="23.7" y="71.8" class="st3" width="95.4" height="138.3"/>
			</g>
		</g>
		<g>
			<g>
				<g>
					<rect x="35.6" y="86.8" class="st4" width="71.7" height="108.3"/>
				</g>
			</g>
			<g>
				<g>
					<g>
						<path class="st0" d="M107.3,195.2c0,0,0-0.2,0-0.5c0-0.4,0-0.9,0-1.5c0-1.4,0-3.4,0-5.9c0-5.2,0-12.8-0.1-22.3
							c0-19.1-0.1-46.2-0.1-78l0.2,0.2c-21.9,0-46.2,0-71.7,0h0l0.3-0.3c0,40.9,0,78.6-0.1,108.3l-0.2-0.2c21.8,0,39.7,0.1,52.2,0.1
							c6.2,0,11.1,0,14.4,0.1c1.7,0,2.9,0,3.8,0C106.8,195.1,107.3,195.2,107.3,195.2s-0.4,0-1.3,0c-0.9,0-2.1,0-3.7,0
							c-3.3,0-8.2,0-14.4,0.1c-12.5,0-30.4,0.1-52.3,0.1l-0.2,0l0-0.2c0-29.8,0-67.5-0.1-108.3l0-0.3h0.3h0c25.5,0,49.8,0,71.7,0
							l0.2,0l0,0.2c0,31.9-0.1,59-0.1,78.2c0,9.5,0,17.1-0.1,22.3c0,2.6,0,4.5,0,5.9c0,0.7,0,1.2,0,1.5
							C107.3,195,107.3,195.2,107.3,195.2z"/>
					</g>
				</g>
			</g>
		</g>
		<g>
			<g>
				<g>
					<path class="st5" d="M104,87.5"/>
				</g>
			</g>
		</g>
		<g>
			<g>
				<g>
					<path class="st0" d="M119.4,71.8c0.1,0-0.6,1-1.7,2.5c-1.1,1.5-2.7,3.5-4.5,5.7c-1.8,2.2-3.5,4.1-4.7,5.5
						c-1.2,1.4-2,2.2-2.1,2.1c-0.1,0,0.7-0.9,1.8-2.4c1.3-1.6,2.9-3.5,4.6-5.6c1.7-2.1,3.3-4,4.6-5.6
						C118.6,72.6,119.4,71.8,119.4,71.8z"/>
				</g>
			</g>
		</g>
		<g>
			<g>
				<g>
					<path class="st4" d="M107.7,194.8c3.6,5.7,7.8,10.9,12.5,15.6"/>
				</g>
			</g>
			<g>
				<g>
					<g>
						<path class="st0" d="M120.2,210.4c0,0-0.9-0.7-2.2-2c-1.3-1.3-3-3.2-4.7-5.3c-1.7-2.2-3.2-4.2-4.2-5.8c-1-1.5-1.5-2.5-1.5-2.6
							c0.1,0,0.7,0.9,1.8,2.4c1.1,1.5,2.5,3.5,4.3,5.7c1.7,2.2,3.4,4,4.6,5.4C119.5,209.6,120.2,210.4,120.2,210.4z"/>
					</g>
				</g>
			</g>
		</g>
		<g>
			<g>
				<g>
					<path class="st4" d="M23.7,210c4.2-5.1,8.3-10.3,12.5-15.4"/>
				</g>
			</g>
			<g>
				<g>
					<g>
						<path class="st0" d="M36.2,194.6c0.1,0.1-2.6,3.6-6,7.9c-3.5,4.3-6.3,7.6-6.5,7.5c-0.1-0.1,2.6-3.6,6-7.9
							C33.2,197.9,36.1,194.5,36.2,194.6z"/>
					</g>
				</g>
			</g>
		</g>
		<g>
			<g>
				<g>
					<path class="st0" d="M23.7,71.8c0.1-0.1,2.8,3.2,6.1,7.3c3.2,4.1,5.8,7.5,5.7,7.6c-0.1,0.1-2.8-3.2-6.1-7.3
						C26.1,75.3,23.6,71.9,23.7,71.8z"/>
				</g>
			</g>
		</g>
		<g>
			<g>
				<rect x="60.9" y="108.8" class="st0" width="24" height="68.2"/>
			</g>
		</g>
	</g>
</g>
<g id="Background_Simple" class="st6">
	<g class="st7">
		<path class="st2" d="M53.7,111.6l1.5-4.2c12.4-35.7,43.1-62.2,80.2-67.7c4.8-0.7,9.6-1.1,14.4-1.1c34.8,0,69.1,19,88,48.7
			c11.1,17.4,17.7,38.9,34.3,51c21.6,15.9,51.3,10.2,77.2,3.8c25.9-6.4,55.6-12,77.2,4c13.5,10,20.7,26.8,23.3,43.4
			c7,44.2-15.1,89.7-49.6,117.3c-34.5,27.7-79.7,39.1-123.9,39.6c-61.9,0.7-125.3-20.1-170-63.6S38.2,172.1,53.7,111.6z"/>
	</g>
</g>
<g id="Floor_1_">
	<g>
		<g>
			<path class="st8" d="M473.2,458.4c0,0.1-99.9,0.3-223.2,0.3c-123.3,0-223.2-0.1-223.2-0.3c0-0.1,99.9-0.3,223.2-0.3
				C373.3,458.1,473.2,458.2,473.2,458.4z"/>
		</g>
	</g>
</g>
<g id="Manual">
	<g>
		<g>
			<g>
				<path class="st9" d="M402.6,457.7H118.4V64.6h284.2c5.9,0,10.8,4.8,10.8,10.8v371.6C413.4,452.9,408.6,457.7,402.6,457.7z"/>
			</g>
			<g>
				<path class="st10" d="M402.6,457.7H118.4V64.6h284.2c5.9,0,10.8,4.8,10.8,10.8v371.6C413.4,452.9,408.6,457.7,402.6,457.7z"/>
			</g>
		</g>
		<g>
			<rect x="247.5" y="76.7" class="st0" width="157.7" height="380.9"/>
		</g>
		<g>
			<path class="st10" d="M381.3,457.7H117.2V61.5h264.2c5.9,0,10.8,4.8,10.8,10.8v374.7C392.1,452.9,387.3,457.7,381.3,457.7z"/>
		</g>
		<g>
			<g>
				<path class="st8" d="M145.4,458.4c-0.1,0-0.3-88.9-0.3-198.5c0-109.6,0.1-198.5,0.3-198.5c0.1,0,0.3,88.8,0.3,198.5
					C145.7,369.5,145.6,458.4,145.4,458.4z"/>
			</g>
		</g>
		<g>
			<g>
				<path class="st8" d="M152.9,458.4c-0.1,0-0.3-88.9-0.3-198.5c0-109.6,0.1-198.5,0.3-198.5s0.3,88.8,0.3,198.5
					C153.1,369.5,153,458.4,152.9,458.4z"/>
			</g>
		</g>
		<g class="st11">
			<rect x="145.4" y="61.5" width="7.4" height="396.9"/>
		</g>
		<g>
			<polygon class="st12" points="309,106.8 309,61.5 352.7,61.5 352.7,107.7 331.3,129.1 			"/>
		</g>
		<g>
			<g>
				<path class="st8" d="M396,76.7c0.1,0,0.3,84.4,0.3,188.4c0,104.1-0.1,188.4-0.3,188.4c-0.1,0-0.3-84.3-0.3-188.4
					C395.8,161.1,395.9,76.7,396,76.7z"/>
			</g>
		</g>
		<g>
			<g>
				<path class="st8" d="M400.5,76.7c0.1,0,0.3,84.4,0.3,188.4c0,104.1-0.1,188.4-0.3,188.4s-0.3-84.3-0.3-188.4
					C400.2,161.1,400.4,76.7,400.5,76.7z"/>
			</g>
		</g>
		<g>
			<polygon class="st12" points="396,131.6 407,131.6 417,139.1 408,148.1 396,148.1 			"/>
		</g>
		<g>
			<rect x="400.5" y="164" class="st12" width="20.7" height="13.8"/>
		</g>
		<g>
			<g>
				<path class="st4" d="M358.8,413.9c0,0.1-37.5,0.3-83.8,0.3c-46.3,0-83.8-0.1-83.8-0.3c0-0.1,37.5-0.3,83.8-0.3
					C321.3,413.6,358.8,413.7,358.8,413.9z"/>
			</g>
		</g>
		<g>
			<g>
				<path class="st4" d="M330.8,421.8c0,0.1-24.7,0.3-55.1,0.3c-30.5,0-55.1-0.1-55.1-0.3c0-0.1,24.7-0.3,55.1-0.3
					C306.2,421.6,330.8,421.7,330.8,421.8z"/>
			</g>
		</g>
		<g>
			<rect x="268.4" y="429.5" class="st12" width="13.2" height="13.2"/>
		</g>
	</g>
	<g>
		<path class="st13" d="M251.3,187.5h-5.2l-4.3,6.1h12.5l8.2-12l-8.1-11.3H242l4.4,6h4.8l3.9,5.4L251.3,187.5z"/>
		<path class="st14" d="M289.5,193.9h7.5l-16.5-23.8l-7.7-0.1l-16.5,23.8h7.5l12.8-18.2L289.5,193.9z"/>
		<path class="st13" d="M280.3,193.9h-7.5l16.5-23.8l7.7,0.1L280.3,193.9z"/>
		<path class="st14" d="M240.1,191.5l3.4-4.9l3.5-5l-3.3-4.4l-3.7-5L240.1,191.5z"/>
		<g>
			<path class="st4" d="M241.1,199.6h1v0.4h-1.5v-3.1h0.5V199.6z"/>
			<path class="st4" d="M243,197.3v0.9h1v0.4h-1v1h1.2v0.4h-1.7v-3.2h1.7v0.4H243z"/>
			<path class="st4" d="M246.6,199.4h-1.3l-0.2,0.6h-0.5l1.1-3.2h0.6l1.1,3.2h-0.5L246.6,199.4z M246.5,199l-0.5-1.5l-0.5,1.5H246.5
				z"/>
			<path class="st4" d="M248.8,196.9c0.3,0,0.6,0.1,0.8,0.2c0.2,0.1,0.4,0.3,0.6,0.6c0.1,0.2,0.2,0.5,0.2,0.8c0,0.3-0.1,0.6-0.2,0.8
				c-0.1,0.2-0.3,0.4-0.6,0.5c-0.2,0.1-0.5,0.2-0.8,0.2h-1v-3.1H248.8z M248.8,199.6c0.4,0,0.6-0.1,0.8-0.3c0.2-0.2,0.3-0.5,0.3-0.8
				c0-0.4-0.1-0.7-0.3-0.9c-0.2-0.2-0.5-0.3-0.8-0.3h-0.5v2.3H248.8z"/>
			<path class="st4" d="M251.4,197.3v0.9h1v0.4h-1v1h1.2v0.4h-1.7v-3.2h1.7v0.4H251.4z"/>
			<path class="st4" d="M254.8,200l-0.7-1.3h-0.4v1.3h-0.5v-3.1h1c0.2,0,0.4,0,0.6,0.1c0.2,0.1,0.3,0.2,0.4,0.3
				c0.1,0.1,0.1,0.3,0.1,0.5c0,0.2-0.1,0.4-0.2,0.6c-0.1,0.2-0.3,0.3-0.5,0.3l0.8,1.3H254.8z M253.7,198.3h0.6c0.2,0,0.3,0,0.4-0.1
				c0.1-0.1,0.1-0.2,0.1-0.4c0-0.2,0-0.3-0.1-0.4c-0.1-0.1-0.2-0.1-0.4-0.1h-0.6V198.3z"/>
			<path class="st4" d="M257,200.1c-0.2,0-0.4,0-0.6-0.1c-0.2-0.1-0.3-0.2-0.4-0.3c-0.1-0.1-0.1-0.3-0.1-0.5h0.5
				c0,0.1,0.1,0.2,0.2,0.3c0.1,0.1,0.2,0.1,0.4,0.1c0.2,0,0.3,0,0.4-0.1c0.1-0.1,0.1-0.2,0.1-0.3c0-0.1,0-0.2-0.1-0.3
				c-0.1-0.1-0.1-0.1-0.2-0.2c-0.1,0-0.2-0.1-0.4-0.1c-0.2-0.1-0.4-0.1-0.5-0.2c-0.1-0.1-0.2-0.1-0.3-0.3c-0.1-0.1-0.1-0.3-0.1-0.5
				c0-0.2,0-0.3,0.1-0.5c0.1-0.1,0.2-0.2,0.4-0.3c0.2-0.1,0.3-0.1,0.5-0.1c0.3,0,0.5,0.1,0.7,0.2c0.2,0.2,0.3,0.4,0.3,0.6h-0.6
				c0-0.1-0.1-0.2-0.2-0.3c-0.1-0.1-0.2-0.1-0.4-0.1c-0.1,0-0.3,0-0.3,0.1c-0.1,0.1-0.1,0.2-0.1,0.3c0,0.1,0,0.2,0.1,0.2
				c0.1,0.1,0.1,0.1,0.2,0.1c0.1,0,0.2,0.1,0.4,0.1c0.2,0.1,0.4,0.1,0.5,0.2c0.1,0.1,0.2,0.1,0.3,0.3c0.1,0.1,0.1,0.3,0.1,0.5
				c0,0.2,0,0.3-0.1,0.5c-0.1,0.1-0.2,0.3-0.4,0.3C257.4,200,257.2,200.1,257,200.1z"/>
			<path class="st4" d="M260.3,196.9v3.1h-0.5v-3.1H260.3z"/>
			<path class="st4" d="M263.4,200h-0.5l-1.5-2.4v2.4h-0.5v-3.2h0.5l1.5,2.3v-2.3h0.5V200z"/>
			<path class="st4" d="M266.2,196.9c0.3,0,0.6,0.1,0.8,0.2c0.2,0.1,0.4,0.3,0.6,0.6c0.1,0.2,0.2,0.5,0.2,0.8c0,0.3-0.1,0.6-0.2,0.8
				c-0.1,0.2-0.3,0.4-0.6,0.5c-0.2,0.1-0.5,0.2-0.8,0.2h-1v-3.1H266.2z M266.2,199.6c0.4,0,0.6-0.1,0.8-0.3c0.2-0.2,0.3-0.5,0.3-0.8
				c0-0.4-0.1-0.7-0.3-0.9c-0.2-0.2-0.5-0.3-0.8-0.3h-0.5v2.3H266.2z"/>
			<path class="st4" d="M270.5,196.9l-1,2v1.1H269v-1.1l-1-2h0.6l0.7,1.5l0.7-1.5H270.5z"/>
			<path class="st4" d="M273.4,200h-0.5l-1.5-2.4v2.4h-0.5v-3.2h0.5l1.5,2.3v-2.3h0.5V200z"/>
			<path class="st4" d="M275.9,199.4h-1.3l-0.2,0.6h-0.5l1.1-3.2h0.6l1.1,3.2h-0.5L275.9,199.4z M275.8,199l-0.5-1.5l-0.5,1.5H275.8
				z"/>
			<path class="st4" d="M280.3,196.9v3.1h-0.5v-2.2l-0.9,2.2h-0.3l-0.9-2.2v2.2h-0.5v-3.1h0.5l1.1,2.5l1.1-2.5H280.3z"/>
			<path class="st4" d="M281.5,196.9v3.1H281v-3.1H281.5z"/>
			<path class="st4" d="M282,198.4c0-0.3,0.1-0.6,0.2-0.8c0.1-0.2,0.3-0.4,0.6-0.6c0.2-0.1,0.5-0.2,0.8-0.2c0.3,0,0.6,0.1,0.9,0.2
				c0.3,0.2,0.4,0.4,0.6,0.7h-0.6c-0.1-0.2-0.2-0.3-0.3-0.4c-0.1-0.1-0.3-0.1-0.5-0.1c-0.2,0-0.4,0-0.5,0.1
				c-0.2,0.1-0.3,0.2-0.4,0.4c-0.1,0.2-0.1,0.4-0.1,0.6c0,0.2,0,0.4,0.1,0.6c0.1,0.2,0.2,0.3,0.4,0.4c0.2,0.1,0.3,0.1,0.5,0.1
				c0.2,0,0.3,0,0.5-0.1c0.1-0.1,0.2-0.2,0.3-0.4h0.6c-0.1,0.3-0.3,0.5-0.6,0.7c-0.3,0.2-0.5,0.2-0.9,0.2c-0.3,0-0.5-0.1-0.8-0.2
				c-0.2-0.1-0.4-0.3-0.6-0.6C282,199,282,198.7,282,198.4z"/>
			<path class="st4" d="M286.5,200.1c-0.2,0-0.4,0-0.6-0.1c-0.2-0.1-0.3-0.2-0.4-0.3c-0.1-0.1-0.1-0.3-0.1-0.5h0.5
				c0,0.1,0.1,0.2,0.2,0.3c0.1,0.1,0.2,0.1,0.4,0.1c0.2,0,0.3,0,0.4-0.1c0.1-0.1,0.1-0.2,0.1-0.3c0-0.1,0-0.2-0.1-0.3
				c-0.1-0.1-0.1-0.1-0.2-0.2c-0.1,0-0.2-0.1-0.4-0.1c-0.2-0.1-0.4-0.1-0.5-0.2c-0.1-0.1-0.2-0.1-0.3-0.3c-0.1-0.1-0.1-0.3-0.1-0.5
				c0-0.2,0-0.3,0.1-0.5c0.1-0.1,0.2-0.2,0.4-0.3c0.2-0.1,0.3-0.1,0.5-0.1c0.3,0,0.5,0.1,0.7,0.2c0.2,0.2,0.3,0.4,0.3,0.6H287
				c0-0.1-0.1-0.2-0.2-0.3c-0.1-0.1-0.2-0.1-0.4-0.1c-0.1,0-0.3,0-0.3,0.1c-0.1,0.1-0.1,0.2-0.1,0.3c0,0.1,0,0.2,0.1,0.2
				c0.1,0.1,0.1,0.1,0.2,0.1c0.1,0,0.2,0.1,0.4,0.1c0.2,0.1,0.4,0.1,0.5,0.2c0.1,0.1,0.2,0.1,0.3,0.3c0.1,0.1,0.1,0.3,0.1,0.5
				c0,0.2,0,0.3-0.1,0.5c-0.1,0.1-0.2,0.3-0.4,0.3C286.9,200,286.7,200.1,286.5,200.1z"/>
			<path class="st4" d="M289.2,197.5c0-0.3,0.1-0.5,0.3-0.7c0.2-0.2,0.4-0.2,0.7-0.2c0.2,0,0.4,0,0.5,0.1s0.3,0.2,0.3,0.3
				c0.1,0.1,0.1,0.3,0.1,0.4c0,0.2,0,0.3-0.1,0.5s-0.2,0.2-0.3,0.3v0c0.2,0.1,0.3,0.2,0.4,0.3c0.1,0.1,0.1,0.3,0.1,0.5
				c0,0.2,0,0.3-0.1,0.5c-0.1,0.1-0.2,0.2-0.3,0.3c-0.2,0.1-0.3,0.1-0.6,0.1c-0.3,0-0.6-0.1-0.8-0.2c-0.2-0.2-0.3-0.4-0.3-0.7h0.5
				c0,0.2,0.1,0.3,0.2,0.4c0.1,0.1,0.3,0.1,0.4,0.1c0.2,0,0.3,0,0.4-0.1c0.1-0.1,0.1-0.2,0.1-0.4c0-0.2-0.1-0.4-0.2-0.4
				c-0.1-0.1-0.3-0.1-0.6-0.1h-0.1v-0.4h0.1c0.2,0,0.4,0,0.5-0.1c0.1-0.1,0.2-0.2,0.2-0.4c0-0.1,0-0.3-0.1-0.3
				c-0.1-0.1-0.2-0.1-0.4-0.1c-0.2,0-0.3,0-0.4,0.1c-0.1,0.1-0.1,0.2-0.2,0.3H289.2z"/>
			<path class="st4" d="M293.5,197.5c0-0.1-0.1-0.2-0.2-0.3c-0.1-0.1-0.2-0.1-0.4-0.1c-0.2,0-0.4,0.1-0.5,0.3
				c-0.1,0.2-0.2,0.5-0.2,0.9c0.1-0.1,0.2-0.2,0.3-0.3c0.1-0.1,0.3-0.1,0.5-0.1c0.2,0,0.4,0,0.5,0.1c0.1,0.1,0.3,0.2,0.3,0.4
				c0.1,0.2,0.1,0.4,0.1,0.6c0,0.2,0,0.4-0.1,0.6c-0.1,0.2-0.2,0.3-0.4,0.4c-0.2,0.1-0.3,0.1-0.6,0.1c-0.3,0-0.5-0.1-0.7-0.2
				c-0.2-0.1-0.3-0.3-0.4-0.6c-0.1-0.3-0.1-0.6-0.1-0.9c0-1.1,0.4-1.7,1.1-1.7c0.3,0,0.5,0.1,0.7,0.2c0.2,0.2,0.3,0.4,0.3,0.6H293.5
				z M293,198.3c-0.2,0-0.3,0.1-0.5,0.2c-0.1,0.1-0.2,0.3-0.2,0.5s0.1,0.4,0.2,0.5c0.1,0.1,0.3,0.2,0.5,0.2c0.2,0,0.3-0.1,0.4-0.2
				c0.1-0.1,0.2-0.3,0.2-0.5c0-0.2-0.1-0.4-0.2-0.5C293.4,198.3,293.2,198.3,293,198.3z"/>
			<path class="st4" d="M296.7,197.2h-1.5v0.9c0.1-0.1,0.2-0.2,0.3-0.2c0.1-0.1,0.3-0.1,0.4-0.1c0.2,0,0.4,0.1,0.6,0.2
				c0.2,0.1,0.3,0.2,0.3,0.4c0.1,0.2,0.1,0.3,0.1,0.5c0,0.2,0,0.4-0.1,0.6c-0.1,0.2-0.2,0.3-0.4,0.4c-0.2,0.1-0.4,0.1-0.6,0.1
				c-0.3,0-0.6-0.1-0.8-0.2c-0.2-0.2-0.3-0.4-0.3-0.6h0.5c0,0.1,0.1,0.3,0.2,0.3c0.1,0.1,0.2,0.1,0.4,0.1c0.2,0,0.4-0.1,0.5-0.2
				c0.1-0.1,0.2-0.3,0.2-0.5c0-0.2-0.1-0.4-0.2-0.5c-0.1-0.1-0.3-0.2-0.5-0.2c-0.1,0-0.3,0-0.4,0.1c-0.1,0.1-0.2,0.2-0.2,0.3h-0.5
				v-1.9h1.9V197.2z"/>
		</g>
	</g>
	<g>
		<g>
			<g>
				<g>
					<path class="st12" d="M188.2,239.2v10c0,1.1-0.2,2-0.7,2.9c-0.5,0.9-1.2,1.5-2.1,2c-0.9,0.5-2.1,0.8-3.6,0.8
						c-2,0-3.6-0.5-4.7-1.6c-1.1-1-1.6-2.4-1.6-4.1v-10h3.3v9.5c0,1.3,0.3,2.2,0.8,2.7c0.5,0.5,1.3,0.8,2.3,0.8
						c0.7,0,1.3-0.1,1.8-0.4c0.4-0.2,0.8-0.6,1-1.1s0.3-1.2,0.3-2v-9.4H188.2z"/>
					<path class="st12" d="M205.7,254.6h-4.2l-6.7-11.7h-0.1c0,0.5,0.1,1,0.1,1.5c0,0.5,0,1,0.1,1.5c0,0.5,0,1,0.1,1.5v7.3h-2.9
						v-15.5h4.1l6.7,11.6h0.1c0-0.5,0-1-0.1-1.4c0-0.5,0-0.9-0.1-1.4c0-0.5,0-0.9,0-1.4v-7.3h3V254.6z"/>
					<path class="st12" d="M222.4,246.7c0,1.7-0.3,3.2-1,4.4s-1.6,2-2.9,2.6c-1.3,0.6-2.8,0.9-4.6,0.9h-4.4v-15.5h4.9
						c1.6,0,3,0.3,4.2,0.9c1.2,0.6,2.1,1.4,2.8,2.5C222.1,243.7,222.4,245.1,222.4,246.7z M219,246.8c0-1.1-0.2-2.1-0.5-2.8
						s-0.8-1.3-1.5-1.6s-1.5-0.5-2.4-0.5h-1.7v10.1h1.4c1.6,0,2.8-0.4,3.6-1.3C218.6,249.8,219,248.5,219,246.8z"/>
					<path class="st12" d="M234.5,254.6h-8.9v-15.5h8.9v2.7h-5.6v3.4h5.2v2.7h-5.2v4h5.6V254.6z"/>
					<path class="st12" d="M242.2,239.2c1.4,0,2.6,0.2,3.5,0.5s1.6,0.8,2,1.5s0.7,1.5,0.7,2.6c0,0.7-0.1,1.3-0.4,1.9
						c-0.3,0.5-0.6,1-1.1,1.3c-0.4,0.4-0.9,0.7-1.4,0.9l4.5,6.7h-3.6l-3.7-5.9H241v5.9h-3.3v-15.5H242.2z M242,241.8h-1v4.2h1.1
						c1.1,0,1.9-0.2,2.3-0.5c0.5-0.4,0.7-0.9,0.7-1.6c0-0.7-0.3-1.3-0.8-1.6C243.8,242,243.1,241.8,242,241.8z"/>
					<path class="st12" d="M261.2,250.3c0,0.9-0.2,1.7-0.7,2.4s-1.1,1.2-1.9,1.6c-0.9,0.4-1.9,0.5-3.1,0.5c-0.5,0-1.1,0-1.6-0.1
						c-0.5-0.1-1-0.2-1.5-0.3c-0.5-0.1-0.9-0.3-1.3-0.5v-3c0.7,0.3,1.5,0.6,2.3,0.9c0.8,0.3,1.6,0.4,2.3,0.4c0.5,0,1-0.1,1.3-0.2
						c0.3-0.1,0.6-0.3,0.7-0.6c0.1-0.2,0.2-0.5,0.2-0.8c0-0.4-0.1-0.7-0.4-1s-0.6-0.5-1.1-0.8c-0.5-0.2-1-0.5-1.5-0.8
						c-0.4-0.2-0.8-0.4-1.2-0.6s-0.8-0.5-1.2-0.9c-0.4-0.4-0.7-0.8-0.9-1.3c-0.2-0.5-0.4-1.1-0.4-1.8c0-0.9,0.2-1.7,0.6-2.4
						c0.4-0.7,1-1.2,1.8-1.5c0.8-0.3,1.7-0.5,2.8-0.5c0.8,0,1.6,0.1,2.3,0.3c0.7,0.2,1.5,0.5,2.3,0.8l-1.1,2.5
						c-0.7-0.3-1.4-0.5-1.9-0.7s-1.1-0.2-1.7-0.2c-0.4,0-0.8,0.1-1,0.2s-0.5,0.3-0.7,0.6c-0.1,0.2-0.2,0.5-0.2,0.8
						c0,0.4,0.1,0.7,0.3,0.9c0.2,0.3,0.5,0.5,1,0.7c0.4,0.2,1,0.5,1.6,0.8c0.8,0.4,1.5,0.8,2,1.2c0.6,0.4,1,0.9,1.3,1.4
						C261,248.8,261.2,249.5,261.2,250.3z"/>
					<path class="st12" d="M269.9,254.6h-3.3v-12.7h-4.2v-2.7h11.7v2.7h-4.2V254.6z"/>
					<path class="st12" d="M286,254.6l-1.1-3.7h-5.6l-1.1,3.7h-3.5l5.5-15.5h4l5.5,15.5H286z M284.1,248.2l-1.1-3.6
						c-0.1-0.2-0.2-0.5-0.3-0.9c-0.1-0.4-0.2-0.8-0.3-1.2c-0.1-0.4-0.2-0.7-0.3-1c-0.1,0.3-0.2,0.6-0.3,1.1
						c-0.1,0.4-0.2,0.8-0.4,1.2c-0.1,0.4-0.2,0.7-0.2,0.8l-1.1,3.6H284.1z"/>
					<path class="st12" d="M305.2,254.6H301l-6.7-11.7h-0.1c0,0.5,0.1,1,0.1,1.5c0,0.5,0,1,0.1,1.5c0,0.5,0,1,0.1,1.5v7.3h-2.9
						v-15.5h4.1l6.7,11.6h0.1c0-0.5,0-1-0.1-1.4c0-0.5,0-0.9-0.1-1.4c0-0.5,0-0.9,0-1.4v-7.3h3V254.6z"/>
					<path class="st12" d="M321.9,246.7c0,1.7-0.3,3.2-1,4.4s-1.6,2-2.9,2.6c-1.3,0.6-2.8,0.9-4.6,0.9h-4.4v-15.5h4.9
						c1.6,0,3,0.3,4.2,0.9c1.2,0.6,2.1,1.4,2.8,2.5C321.6,243.7,321.9,245.1,321.9,246.7z M318.5,246.8c0-1.1-0.2-2.1-0.5-2.8
						s-0.8-1.3-1.5-1.6s-1.5-0.5-2.4-0.5h-1.7v10.1h1.4c1.6,0,2.8-0.4,3.6-1.3C318.1,249.8,318.5,248.5,318.5,246.8z"/>
					<path class="st12" d="M325.1,254.6v-15.5h3.3v15.5H325.1z"/>
					<path class="st12" d="M346,254.6h-4.2l-6.7-11.7H335c0,0.5,0.1,1,0.1,1.5c0,0.5,0,1,0.1,1.5c0,0.5,0,1,0.1,1.5v7.3h-2.9v-15.5
						h4.1l6.7,11.6h0.1c0-0.5,0-1-0.1-1.4c0-0.5,0-0.9-0.1-1.4c0-0.5,0-0.9,0-1.4v-7.3h3V254.6z"/>
					<path class="st12" d="M355.7,245.9h6.1v8c-0.8,0.3-1.7,0.5-2.5,0.6c-0.9,0.2-1.9,0.2-3,0.2c-1.5,0-2.8-0.3-3.9-0.9
						c-1.1-0.6-1.9-1.5-2.4-2.7c-0.6-1.2-0.8-2.6-0.8-4.4c0-1.6,0.3-3,0.9-4.2c0.6-1.2,1.5-2.1,2.7-2.8c1.2-0.6,2.7-1,4.4-1
						c0.8,0,1.6,0.1,2.4,0.3s1.5,0.4,2.2,0.7l-1.1,2.6c-0.5-0.2-1-0.4-1.6-0.6c-0.6-0.2-1.2-0.2-1.9-0.2c-1,0-1.8,0.2-2.5,0.7
						c-0.7,0.4-1.2,1-1.6,1.8c-0.4,0.8-0.6,1.7-0.6,2.8c0,1,0.1,1.9,0.4,2.7c0.3,0.8,0.7,1.4,1.3,1.8c0.6,0.4,1.4,0.7,2.3,0.7
						c0.5,0,0.9,0,1.2-0.1c0.3,0,0.6-0.1,0.9-0.1v-3.2h-2.9V245.9z"/>
					<path class="st12" d="M218,265.2v10c0,1.1-0.2,2-0.7,2.9c-0.5,0.9-1.2,1.5-2.1,2c-0.9,0.5-2.1,0.8-3.6,0.8
						c-2,0-3.6-0.5-4.7-1.6c-1.1-1-1.6-2.4-1.6-4.1v-10h3.3v9.5c0,1.3,0.3,2.2,0.8,2.7c0.5,0.5,1.3,0.8,2.3,0.8
						c0.7,0,1.3-0.1,1.8-0.4c0.4-0.2,0.8-0.6,1-1.1s0.3-1.2,0.3-2v-9.4H218z"/>
					<path class="st12" d="M231,276.3c0,0.9-0.2,1.7-0.7,2.4s-1.1,1.2-1.9,1.6c-0.9,0.4-1.9,0.5-3.1,0.5c-0.5,0-1.1,0-1.6-0.1
						c-0.5-0.1-1-0.2-1.5-0.3c-0.5-0.1-0.9-0.3-1.3-0.5v-3c0.7,0.3,1.5,0.6,2.3,0.9c0.8,0.3,1.6,0.4,2.3,0.4c0.5,0,1-0.1,1.3-0.2
						c0.3-0.1,0.6-0.3,0.7-0.6c0.1-0.2,0.2-0.5,0.2-0.8c0-0.4-0.1-0.7-0.4-1s-0.6-0.5-1.1-0.8c-0.5-0.2-1-0.5-1.5-0.8
						c-0.4-0.2-0.8-0.4-1.2-0.6s-0.8-0.5-1.2-0.9c-0.4-0.4-0.7-0.8-0.9-1.3c-0.2-0.5-0.4-1.1-0.4-1.8c0-0.9,0.2-1.7,0.6-2.4
						c0.4-0.7,1-1.2,1.8-1.5c0.8-0.3,1.7-0.5,2.8-0.5c0.8,0,1.6,0.1,2.3,0.3c0.7,0.2,1.5,0.5,2.3,0.8l-1.1,2.5
						c-0.7-0.3-1.4-0.5-1.9-0.7c-0.6-0.2-1.1-0.2-1.7-0.2c-0.4,0-0.8,0.1-1,0.2s-0.5,0.3-0.7,0.6c-0.1,0.2-0.2,0.5-0.2,0.8
						c0,0.4,0.1,0.7,0.3,0.9c0.2,0.3,0.5,0.5,1,0.7c0.4,0.2,1,0.5,1.6,0.8c0.8,0.4,1.5,0.8,2,1.2c0.6,0.4,1,0.9,1.3,1.4
						C230.8,274.8,231,275.5,231,276.3z"/>
					<path class="st12" d="M242.7,280.6h-8.9v-15.5h8.9v2.7H237v3.4h5.2v2.7H237v4h5.6V280.6z"/>
					<path class="st12" d="M250.4,265.2c1.4,0,2.6,0.2,3.5,0.5c0.9,0.3,1.6,0.8,2,1.5c0.4,0.7,0.7,1.5,0.7,2.6
						c0,0.7-0.1,1.3-0.4,1.9c-0.3,0.5-0.6,1-1.1,1.3s-0.9,0.7-1.4,0.9l4.5,6.7h-3.6l-3.7-5.9h-1.7v5.9h-3.3v-15.5H250.4z
						 M250.2,267.8h-1v4.2h1.1c1.1,0,1.9-0.2,2.3-0.5s0.7-0.9,0.7-1.6c0-0.7-0.3-1.3-0.8-1.6S251.2,267.8,250.2,267.8z"/>
					<path class="st12" d="M279.5,280.6h-4.2l-6.7-11.7h-0.1c0,0.5,0.1,1,0.1,1.5c0,0.5,0,1,0.1,1.5c0,0.5,0,1,0.1,1.5v7.3h-2.9
						v-15.5h4.1l6.7,11.6h0.1c0-0.5,0-1-0.1-1.4c0-0.5,0-0.9-0.1-1.4s0-0.9,0-1.4v-7.3h3V280.6z"/>
					<path class="st12" d="M292.3,280.6h-8.9v-15.5h8.9v2.7h-5.6v3.4h5.2v2.7h-5.2v4h5.6V280.6z"/>
					<path class="st12" d="M304.5,280.6h-8.9v-15.5h8.9v2.7h-5.6v3.4h5.2v2.7h-5.2v4h5.6V280.6z"/>
					<path class="st12" d="M320.5,272.7c0,1.7-0.3,3.2-1,4.4s-1.6,2-2.9,2.6c-1.3,0.6-2.8,0.9-4.6,0.9h-4.4v-15.5h4.9
						c1.6,0,3,0.3,4.2,0.9c1.2,0.6,2.1,1.4,2.8,2.5C320.2,269.7,320.5,271.1,320.5,272.7z M317.1,272.8c0-1.1-0.2-2.1-0.5-2.8
						s-0.8-1.3-1.5-1.6c-0.7-0.4-1.5-0.5-2.4-0.5H311v10.1h1.4c1.6,0,2.8-0.4,3.6-1.3C316.7,275.8,317.1,274.5,317.1,272.8z"/>
					<path class="st12" d="M332.9,276.3c0,0.9-0.2,1.7-0.7,2.4s-1.1,1.2-1.9,1.6c-0.9,0.4-1.9,0.5-3.1,0.5c-0.5,0-1.1,0-1.6-0.1
						c-0.5-0.1-1-0.2-1.5-0.3c-0.5-0.1-0.9-0.3-1.3-0.5v-3c0.7,0.3,1.5,0.6,2.3,0.9c0.8,0.3,1.6,0.4,2.3,0.4c0.5,0,1-0.1,1.3-0.2
						c0.3-0.1,0.6-0.3,0.7-0.6c0.1-0.2,0.2-0.5,0.2-0.8c0-0.4-0.1-0.7-0.4-1s-0.6-0.5-1.1-0.8c-0.5-0.2-1-0.5-1.5-0.8
						c-0.4-0.2-0.8-0.4-1.2-0.6s-0.8-0.5-1.2-0.9c-0.4-0.4-0.7-0.8-0.9-1.3c-0.2-0.5-0.4-1.1-0.4-1.8c0-0.9,0.2-1.7,0.6-2.4
						c0.4-0.7,1-1.2,1.8-1.5c0.8-0.3,1.7-0.5,2.8-0.5c0.8,0,1.6,0.1,2.3,0.3c0.7,0.2,1.5,0.5,2.3,0.8l-1.1,2.5
						c-0.7-0.3-1.4-0.5-1.9-0.7c-0.6-0.2-1.1-0.2-1.7-0.2c-0.4,0-0.8,0.1-1,0.2s-0.5,0.3-0.7,0.6c-0.1,0.2-0.2,0.5-0.2,0.8
						c0,0.4,0.1,0.7,0.3,0.9c0.2,0.3,0.5,0.5,1,0.7c0.4,0.2,1,0.5,1.6,0.8c0.8,0.4,1.5,0.8,2,1.2c0.6,0.4,1,0.9,1.3,1.4
						C332.7,274.8,332.9,275.5,332.9,276.3z"/>
				</g>
			</g>
		</g>
		<g>
			<g>
				<path class="st4" d="M181.9,229.1h-6.7v-12h6.7v1.2h-5.3v3.9h5v1.2h-5v4.4h5.3V229.1z"/>
				<path class="st4" d="M189.8,229.1l-4-10.6h-0.1c0,0.2,0,0.5,0.1,0.8c0,0.3,0,0.7,0,1.1c0,0.4,0,0.8,0,1.2v7.6h-1.3v-12h2.1
					l3.8,10h0.1l3.9-10h2v12h-1.4v-7.7c0-0.4,0-0.7,0-1.1c0-0.4,0-0.7,0-1c0-0.3,0-0.6,0-0.8H195l-4.1,10.6H189.8z"/>
				<path class="st4" d="M202.7,217.1c1.5,0,2.7,0.3,3.4,0.9c0.7,0.6,1.1,1.5,1.1,2.6c0,0.5-0.1,1-0.2,1.4s-0.4,0.9-0.8,1.2
					c-0.4,0.3-0.9,0.6-1.5,0.8c-0.6,0.2-1.3,0.3-2.2,0.3H201v4.7h-1.4v-12H202.7z M202.6,218.3H201v4.9h1.3c0.8,0,1.4-0.1,1.9-0.2
					c0.5-0.2,0.9-0.4,1.2-0.8c0.3-0.4,0.4-0.9,0.4-1.5c0-0.8-0.3-1.4-0.8-1.8C204.5,218.5,203.7,218.3,202.6,218.3z"/>
				<path class="st4" d="M217.2,229.1l-1.5-3.8h-4.8l-1.5,3.8h-1.4l4.7-12h1.3l4.7,12H217.2z M215.3,224.1l-1.4-3.8
					c0-0.1-0.1-0.3-0.2-0.5c-0.1-0.2-0.1-0.5-0.2-0.7c-0.1-0.2-0.1-0.4-0.2-0.6c-0.1,0.2-0.1,0.4-0.2,0.7c-0.1,0.2-0.1,0.4-0.2,0.6
					c-0.1,0.2-0.1,0.3-0.2,0.5l-1.4,3.8H215.3z"/>
				<path class="st4" d="M224,229.1h-1.4v-10.7h-3.8v-1.2h8.9v1.2H224V229.1z"/>
				<path class="st4" d="M238.6,229.1h-1.4v-5.6h-6.3v5.6h-1.4v-12h1.4v5.1h6.3v-5.1h1.4V229.1z"/>
				<path class="st4" d="M248.6,229.1h-6.7v-12h6.7v1.2h-5.3v3.9h5v1.2h-5v4.4h5.3V229.1z"/>
				<path class="st4" d="M254.9,229.1h-1.4v-10.7h-3.8v-1.2h8.9v1.2h-3.8V229.1z"/>
				<path class="st4" d="M260.5,229.1v-12h1.4v12H260.5z"/>
				<path class="st4" d="M270.3,218.2c-0.7,0-1.3,0.1-1.8,0.3c-0.5,0.2-1,0.6-1.3,1c-0.4,0.4-0.7,0.9-0.8,1.6s-0.3,1.3-0.3,2
					c0,1,0.2,1.9,0.5,2.6c0.3,0.7,0.8,1.3,1.4,1.7c0.6,0.4,1.4,0.6,2.3,0.6c0.5,0,1,0,1.5-0.1c0.5-0.1,0.9-0.2,1.4-0.3v1.2
					c-0.4,0.2-0.9,0.3-1.4,0.4s-1.1,0.1-1.7,0.1c-1.2,0-2.2-0.3-3.1-0.8c-0.8-0.5-1.4-1.2-1.8-2.1c-0.4-0.9-0.6-2-0.6-3.3
					c0-0.9,0.1-1.7,0.4-2.5s0.6-1.4,1.1-1.9c0.5-0.5,1.1-1,1.8-1.3c0.7-0.3,1.5-0.4,2.5-0.4c0.6,0,1.2,0.1,1.8,0.2s1.1,0.3,1.5,0.5
					l-0.6,1.2c-0.4-0.2-0.8-0.3-1.3-0.5S270.8,218.2,270.3,218.2z"/>
				<path class="st4" d="M286.7,229.1h-6.7v-12h6.7v1.2h-5.3v3.9h5v1.2h-5v4.4h5.3V229.1z"/>
				<path class="st4" d="M292.6,217.1c1,0,1.8,0.1,2.4,0.4s1.1,0.6,1.4,1.1c0.3,0.5,0.5,1.1,0.5,1.9c0,0.6-0.1,1.2-0.3,1.6
					c-0.2,0.4-0.5,0.8-0.9,1s-0.8,0.5-1.2,0.6l3.3,5.4h-1.6l-2.9-5h-2.5v5h-1.4v-12H292.6z M292.6,218.3h-1.8v4.6h1.9
					c1,0,1.7-0.2,2.2-0.6c0.5-0.4,0.7-1,0.7-1.8c0-0.8-0.2-1.4-0.7-1.7C294.3,218.5,293.6,218.3,292.6,218.3z"/>
				<path class="st4" d="M302.9,217.1c1.5,0,2.7,0.3,3.4,0.9c0.7,0.6,1.1,1.5,1.1,2.6c0,0.5-0.1,1-0.2,1.4s-0.4,0.9-0.8,1.2
					c-0.4,0.3-0.9,0.6-1.5,0.8c-0.6,0.2-1.3,0.3-2.2,0.3h-1.5v4.7h-1.4v-12H302.9z M302.8,218.3h-1.6v4.9h1.3c0.8,0,1.4-0.1,1.9-0.2
					c0.5-0.2,0.9-0.4,1.2-0.8c0.3-0.4,0.4-0.9,0.4-1.5c0-0.8-0.3-1.4-0.8-1.8C304.6,218.5,303.8,218.3,302.8,218.3z"/>
				<path class="st4" d="M319.3,222.8h4.2v5.8c-0.6,0.2-1.3,0.4-1.9,0.5c-0.7,0.1-1.4,0.2-2.2,0.2c-1.2,0-2.3-0.2-3.1-0.7
					s-1.5-1.2-1.9-2.1c-0.4-0.9-0.7-2-0.7-3.3c0-1.2,0.2-2.3,0.7-3.2c0.5-0.9,1.2-1.6,2.1-2.1s2-0.8,3.3-0.8c0.7,0,1.3,0.1,1.9,0.2
					c0.6,0.1,1.2,0.3,1.7,0.5l-0.5,1.2c-0.4-0.2-0.9-0.4-1.5-0.5c-0.5-0.1-1.1-0.2-1.7-0.2c-1,0-1.8,0.2-2.5,0.6
					c-0.7,0.4-1.2,1-1.6,1.7c-0.4,0.7-0.6,1.6-0.6,2.6c0,1,0.2,1.9,0.5,2.6c0.3,0.7,0.8,1.3,1.5,1.7s1.6,0.6,2.6,0.6
					c0.5,0,1,0,1.4-0.1c0.4-0.1,0.7-0.1,1.1-0.2v-3.7h-2.8V222.8z"/>
				<path class="st4" d="M335.5,217.1v7.7c0,0.8-0.2,1.6-0.5,2.3c-0.3,0.7-0.9,1.2-1.5,1.6c-0.7,0.4-1.6,0.6-2.6,0.6
					c-1.5,0-2.6-0.4-3.4-1.2c-0.8-0.8-1.2-1.9-1.2-3.2v-7.7h1.4v7.8c0,1,0.3,1.8,0.8,2.4c0.5,0.6,1.3,0.8,2.4,0.8
					c0.7,0,1.3-0.1,1.8-0.4c0.5-0.3,0.8-0.6,1-1.1c0.2-0.5,0.3-1,0.3-1.7v-7.8H335.5z"/>
				<path class="st4" d="M338.6,229.1v-12h1.4v12H338.6z"/>
				<path class="st4" d="M352.8,223c0,1.3-0.2,2.5-0.7,3.4s-1.2,1.6-2.1,2c-0.9,0.5-2.1,0.7-3.4,0.7h-3.3v-12h3.6
					c1.2,0,2.3,0.2,3.1,0.7c0.9,0.4,1.6,1.1,2,2S352.8,221.7,352.8,223z M351.4,223.1c0-1.1-0.2-2-0.5-2.7c-0.4-0.7-0.9-1.2-1.6-1.6
					c-0.7-0.3-1.5-0.5-2.5-0.5h-2v9.6h1.7c1.6,0,2.9-0.4,3.7-1.2C350.9,225.9,351.4,224.7,351.4,223.1z"/>
				<path class="st4" d="M362.2,229.1h-6.7v-12h6.7v1.2h-5.3v3.9h5v1.2h-5v4.4h5.3V229.1z"/>
			</g>
		</g>
	</g>
</g>
<g id="Character">
	<g>
		<g>
			<g>
				<g>
					<g>
						<g>
							<g>
								<g>
									<g>
										<g>
											<g>
												<g>
													<g>
														<g>
															<g>
																<g>
																	<path class="st15" d="M129.9,440.1l-2.8,20.2c0,0,19.6,9.6,19.5,13.4l-39.4-4l3-31.7L129.9,440.1z"/>
																</g>
															</g>
														</g>
													</g>
												</g>
											</g>
										</g>
									</g>
								</g>
							</g>
						</g>
					</g>
					<g>
						<g>
							<g>
								<g>
									<g>
										<g>
											<g>
												<g>
													<g>
														<g>
															<g>
																<g>
																	<g>
																		<path class="st0" d="M115.1,457.4c-0.8,0.1-1.4,0.9-1.3,1.7c0.1,0.8,0.9,1.4,1.7,1.3c0.8-0.1,1.6-1.1,1.4-1.8
																			c-0.2-0.8-1.2-1.5-1.9-1.2"/>
																	</g>
																</g>
															</g>
														</g>
													</g>
												</g>
											</g>
										</g>
									</g>
								</g>
							</g>
						</g>
					</g>
					<g class="st16">
						<g>
							<g>
								<g>
									<g>
										<g>
											<g>
												<g>
													<g>
														<g>
															<g>
																<g>
																	<path class="st4" d="M107.2,469.8l0.4-3.2l37.6,5c0,0,1.7,0.9,1.4,2.2L107.2,469.8z"/>
																</g>
															</g>
														</g>
													</g>
												</g>
											</g>
										</g>
									</g>
								</g>
							</g>
						</g>
					</g>
					<g>
						<g>
							<g>
								<g>
									<g>
										<g>
											<g>
												<g>
													<g>
														<g>
															<g>
																<g>
																	<g>
																		<path class="st8" d="M127.8,460.2c0,0.2-1,0.2-2,0.7c-1,0.5-1.6,1.3-1.8,1.2c-0.2-0.1,0.2-1.2,1.5-1.8
																			C126.7,459.7,127.8,460,127.8,460.2z"/>
																	</g>
																</g>
															</g>
														</g>
													</g>
												</g>
											</g>
										</g>
									</g>
								</g>
							</g>
						</g>
					</g>
					<g>
						<g>
							<g>
								<g>
									<g>
										<g>
											<g>
												<g>
													<g>
														<g>
															<g>
																<g>
																	<g>
																		<path class="st8" d="M131.7,462.3c0,0.2-0.8,0.4-1.6,1.2c-0.8,0.7-1,1.6-1.2,1.6c-0.2,0-0.2-1.1,0.7-2
																			C130.6,462.1,131.7,462.1,131.7,462.3z"/>
																	</g>
																</g>
															</g>
														</g>
													</g>
												</g>
											</g>
										</g>
									</g>
								</g>
							</g>
						</g>
					</g>
					<g>
						<g>
							<g>
								<g>
									<g>
										<g>
											<g>
												<g>
													<g>
														<g>
															<g>
																<g>
																	<g>
																		<path class="st8" d="M133.6,467.5c-0.2,0-0.3-1,0.3-2c0.6-1,1.5-1.3,1.6-1.2c0.1,0.2-0.5,0.7-1,1.5
																			C133.9,466.7,133.8,467.5,133.6,467.5z"/>
																	</g>
																</g>
															</g>
														</g>
													</g>
												</g>
											</g>
										</g>
									</g>
								</g>
							</g>
						</g>
					</g>
					<g>
						<g>
							<g>
								<g>
									<g>
										<g>
											<g>
												<g>
													<g>
														<g>
															<g>
																<g>
																	<g>
																		<path class="st8" d="M127.9,455.5c-0.1,0.2-1-0.2-2-0.2c-1.1-0.1-2,0.2-2.1,0c-0.1-0.2,0.8-0.8,2.1-0.7
																			C127.2,454.7,128,455.4,127.9,455.5z"/>
																	</g>
																</g>
															</g>
														</g>
													</g>
												</g>
											</g>
										</g>
									</g>
								</g>
							</g>
						</g>
					</g>
				</g>
			</g>
		</g>
		<g>
			<g>
				<path class="st8" d="M76.4,303.5c0,0-7.2,51.3-3.6,59.7c2.8,6.5,7.8,9.3,14.2,10.9c9.2,2.4,23.9,4.1,23.9,4.1l5-29.6l-11.2-2.4
					l10.3-36.8l-18.3-12.5L76.4,303.5z"/>
			</g>
			<g>
				<path class="st8" d="M114.9,309.3l-9.1,141.8l25,1.3l11.2-70.3c0,0,11.9-58,12.7-65.1c0.8-7.1,0-22.1,0-22.1L114.9,309.3z"/>
			</g>
			<g>
				<g>
					<path class="st15" d="M114.2,320.4c0,0,0,0.1,0,0.3c0,0.2,0,0.5,0,0.8c0,0.8-0.1,1.8-0.1,3.1c-0.1,2.7-0.3,6.7-0.6,11.5
						c-0.6,9.7-1.5,23.1-2.5,38c-0.4,7.4-0.9,14.5-1.3,20.9c-0.5,6.4-1.1,12.2-1.6,17c-0.5,4.8-0.8,8.8-1.1,11.5
						c-0.1,1.3-0.2,2.4-0.2,3.1c0,0.3-0.1,0.6-0.1,0.8c0,0.2,0,0.3,0,0.3c0,0,0-0.1,0-0.3c0-0.2,0-0.5,0-0.8c0-0.7,0.1-1.8,0.1-3.1
						c0.2-2.7,0.4-6.7,0.9-11.5c0.4-4.9,1-10.6,1.5-17c0.4-6.4,0.7-13.5,1.2-20.9c1-14.8,2-28.2,2.7-38c0.3-4.8,0.6-8.7,0.8-11.5
						c0.1-1.3,0.2-2.4,0.2-3.1c0-0.3,0.1-0.6,0.1-0.8C114.2,320.5,114.2,320.4,114.2,320.4z"/>
				</g>
			</g>
			<g>
				<g>
					<path class="st15" d="M108.4,332.7c0,0,0,0.4-0.2,1.1c-0.1,0.7-0.4,1.7-0.7,3c-0.6,2.5-1.5,6-2.8,9.7c-1.3,3.7-2.6,7.1-3.7,9.4
						c-0.5,1.2-1,2.1-1.3,2.8c-0.3,0.6-0.5,1-0.6,1c0,0,0.1-0.4,0.4-1.1c0.3-0.8,0.7-1.7,1.2-2.8c1-2.4,2.3-5.7,3.5-9.4
						c1.3-3.7,2.3-7.1,3-9.6c0.3-1.2,0.6-2.1,0.8-2.9C108.2,333.1,108.4,332.7,108.4,332.7z"/>
				</g>
			</g>
		</g>
		<g>
			<g>
				<g>
					<path class="st9" d="M99.5,178.5l-6,4.8c0,0-19.1,3.4-20.7,6.4L79,228l4.8,32.9c0,0-7.2,19.4-7.4,27.6c-0.2,8.2,0,15,0,15h3.6
						c8.3,0,16.3,3.2,22.4,9l0,0l6.6-6l1.3,11.4c0,0,25.9,1.6,32.4-3.4s15.5-15.6,15.5-15.6s1.5-26.5-6.3-39.9
						c-7.9-13.4-9.8-16.2-9.8-16.2s2.8-23.1,2.8-23.9c0-0.8,2.4-32.3,2.4-32.3l-19.8-5l-5.7-4.4L99.5,178.5z"/>
				</g>
				<g class="st11">
					<g>
						<path d="M83.1,262.7c2.5,2.3,5.8,3.3,9.2,2.8c2.2-0.3,4.3-1.3,6.6-1.2c3.3,0,6.1,2.1,8.9,3.7c6.1,3.4,13.4,4.8,20.3,3.8
							c8-1.1,15.3-5.2,22.1-9.6c0.5-0.3,1-0.7,1.3-1.1c0.8-1,0.6-2.6-0.2-3.6c-0.8-1-2-1.6-3.3-1.8c-2.3-0.4-4.6,0.1-6.9,0.5
							c-4.9,0.8-9.9,0.8-14.7-0.1c-6.2-1.1-12-3.6-18.2-4.4c-6.9-0.9-14.1,0.2-20.4,3.3c-1.4,0.7-2.7,1.4-3.7,2.6
							C83.2,258.8,82.8,261.3,83.1,262.7"/>
					</g>
				</g>
				<g>
					<g>
						<path class="st8" d="M104.7,199.3c0,0,0,0.1,0,0.3c0,0.2,0,0.5,0.1,0.9c0.1,0.8,0.1,2,0.2,3.5c0.2,3,0.4,7.4,0.7,12.7
							c0.5,10.8,1.3,25.6,2.1,41.9c0.2,4.1,0.4,8.1,0.6,11.9c0.2,3.9,0.4,7.6,0.4,11.1c0,1.8-0.1,3.5-0.2,5.2
							c-0.1,1.7-0.3,3.3-0.3,4.9c0,3.1,0.3,6.1,0.2,8.8c0.1,2.7,0.4,5.1,0.6,7.2c0.2,2.1,0.5,3.9,0.6,5.4c0.2,1.5,0.3,2.6,0.4,3.4
							c0,0.4,0.1,0.7,0.1,0.9c0,0.2,0,0.3,0,0.3c0,0,0-0.1-0.1-0.3c0-0.2-0.1-0.5-0.1-0.9c-0.1-0.8-0.3-2-0.5-3.4
							c-0.2-1.5-0.4-3.3-0.7-5.4c-0.3-2.1-0.6-4.5-0.7-7.2c0-2.7-0.2-5.6-0.3-8.8c0-1.6,0.2-3.2,0.3-4.9c0.1-1.7,0.1-3.4,0.1-5.2
							c0-3.5-0.2-7.3-0.4-11.1c-0.2-3.9-0.4-7.9-0.6-11.9c-0.8-16.4-1.4-31.2-1.9-41.9c-0.2-5.3-0.4-9.7-0.5-12.7
							c0-1.5-0.1-2.6-0.1-3.5c0-0.4,0-0.7,0-0.9C104.7,199.4,104.7,199.3,104.7,199.3z"/>
					</g>
				</g>
				<g>
					<path class="st9" d="M80.2,196.9L79.6,237l3,7l-2.5,19.1l-10.1-5.7c-5-2.8-8-8.3-7.3-14c0,0,0-0.1,0-0.1
						c0.9-7.8,2.5-20.2,3.8-28.1c2-12.2,3.4-21.8,6.4-25.5L80.2,196.9z"/>
				</g>
				<g>
					<path class="st9" d="M147.2,186.5c0,0,5.8-1.2,8.8,12.8c3,14,5.4,38.3,5.4,38.3s2.4,0.7,1.2,3c0,0-0.4,13.2-2,14.7l-16.7-9.8
						l-1.9-2.8L147.2,186.5z"/>
				</g>
				<g>
					<polygon class="st17" points="80.1,262.7 102.5,260.2 104.2,249.3 82.3,247.6 					"/>
				</g>
				<g>
					<g>
						<path class="st8" d="M108.5,194.5c0,0-0.2,0.4-0.7,1.1c-0.6,0.8-1.3,1.8-2.2,3c-1,1.3-2.1,2.8-3.3,4.4
							c-0.1,0.1-0.3,0.3-0.5,0.3c-0.2,0-0.4-0.1-0.5-0.2c-0.3-0.2-0.4-0.4-0.6-0.6c-0.4-0.4-0.8-0.8-1.2-1.2
							c-0.8-0.8-1.5-1.8-2.1-2.8c-2.6-4.1-3.4-8.6-3.3-11.8c0-1.6,0.3-2.8,0.4-3.7c0.2-0.9,0.4-1.3,0.4-1.3c0.1,0-0.5,1.9-0.5,5
							c0,3.1,0.8,7.5,3.3,11.5c0.6,1,1.3,1.9,2.1,2.8c0.4,0.4,0.7,0.8,1.1,1.2c0.2,0.2,0.4,0.4,0.6,0.5c0.2,0.1,0.2,0.1,0.4,0
							c1.2-1.7,2.4-3.1,3.4-4.3c0.9-1.2,1.7-2.1,2.3-2.9C108.2,194.8,108.5,194.4,108.5,194.5z"/>
					</g>
				</g>
				<g>
					<g>
						<path class="st8" d="M127.4,181.5c0,0,0,0.1,0.1,0.4c0,0.3,0,0.7,0,1.2c0,1-0.1,2.5-0.6,4.2c-0.5,1.8-1.3,3.7-2.3,5.9
							c-1,2.2-2.2,4.5-3.7,6.8c-0.7,1.2-1.5,2.3-2.2,3.4c-0.2,0.3-0.4,0.5-0.5,0.8c-0.2,0.3-0.3,0.5-0.6,0.8
							c-0.2,0.1-0.4,0.2-0.6,0.2c-0.2,0-0.4-0.2-0.5-0.3c-0.3-0.2-0.4-0.5-0.6-0.7c-1.4-1.9-2.7-3.6-3.8-5.1c-1-1.4-1.9-2.6-2.5-3.4
							c-0.6-0.8-0.9-1.3-0.9-1.3c0,0,0.4,0.4,1,1.2c0.7,0.9,1.6,2,2.7,3.3c1.1,1.4,2.4,3.1,3.9,5c0.3,0.5,0.8,1,1.1,0.7
							c0.2-0.1,0.3-0.5,0.5-0.7c0.2-0.3,0.3-0.5,0.5-0.8c0.7-1.1,1.4-2.2,2.2-3.4c1.4-2.3,2.7-4.6,3.7-6.8c1-2.2,1.9-4.1,2.4-5.8
							C127.5,183.8,127.3,181.5,127.4,181.5z"/>
					</g>
				</g>
				<g>
					<g>
						<path class="st8" d="M96.1,197.1c0,0.1-1.1,0.3-2.7,1c-1.6,0.7-3.7,2.1-5.3,4.4l-0.2,0.2l-0.2-0.2c-0.5-0.4-1.1-0.8-1.7-1.1
							c-2.9-1.6-6-1.8-8.1-1.6c-2.2,0.3-3.4,0.8-3.4,0.8c0,0,0.3-0.2,0.9-0.4c0.6-0.2,1.4-0.5,2.5-0.7c2.2-0.4,5.4-0.2,8.4,1.5
							c0.7,0.3,1.2,0.8,1.8,1.2l-0.4,0.1c1.7-2.4,3.9-3.8,5.6-4.4c0.8-0.3,1.5-0.5,2-0.6C95.8,197,96.1,197,96.1,197.1z"/>
					</g>
				</g>
				<g>
					<g>
						<path class="st8" d="M146.5,199.5c0,0.1-1.3-0.9-3.7-1c-1.2,0-2.6,0.2-4.1,0.8c-1.5,0.6-3,1.5-4.6,2.5
							c-0.2,0.1-0.3,0.2-0.5,0.3l-0.2,0.1l-0.1-0.2c-2.2-2.8-5.4-4-7.7-4.2c-2.3-0.3-3.7,0.2-3.7,0.1c0,0,0.3-0.2,1-0.3
							c0.6-0.1,1.6-0.3,2.8-0.2c1.2,0.1,2.6,0.4,4,1.1c1.4,0.7,2.9,1.7,4,3.2l-0.3-0.1c0.2-0.1,0.3-0.2,0.5-0.3
							c1.6-1,3.1-1.9,4.7-2.5c1.5-0.6,3-0.8,4.3-0.7c1.2,0.1,2.2,0.4,2.8,0.8C146.3,199.2,146.5,199.5,146.5,199.5z"/>
					</g>
				</g>
				<g>
					<g>
						<path class="st8" d="M141.1,286.6c0,0-0.1,0.1-0.4,0.3c-0.3,0.2-0.7,0.5-1.2,0.8c-0.3,0.2-0.5,0.4-0.9,0.6
							c-0.3,0.2-0.7,0.4-1.1,0.6c-0.8,0.4-1.6,1-2.7,1.5c-0.5,0.2-1,0.5-1.6,0.8c-0.6,0.3-1.2,0.5-1.8,0.7c-1.2,0.5-2.6,0.9-4,1.4
							c-2.9,0.8-6.1,1.4-9.6,1.6c-3.4,0.2-6.7,0-9.7-0.5c-1.5-0.3-2.9-0.5-4.1-0.9c-0.6-0.2-1.3-0.3-1.9-0.5
							c-0.6-0.2-1.1-0.4-1.7-0.6c-1.1-0.3-2-0.8-2.8-1.1c-0.4-0.2-0.8-0.3-1.1-0.5c-0.3-0.2-0.6-0.3-0.9-0.5
							c-0.5-0.3-0.9-0.5-1.3-0.7c-0.3-0.2-0.4-0.3-0.4-0.3c0,0,0.2,0,0.5,0.2c0.4,0.2,0.8,0.4,1.3,0.6c0.3,0.1,0.6,0.3,0.9,0.5
							c0.3,0.2,0.7,0.3,1.1,0.5c0.8,0.3,1.7,0.7,2.8,1.1c0.5,0.2,1.1,0.4,1.7,0.5c0.6,0.2,1.2,0.3,1.8,0.5c1.3,0.4,2.7,0.6,4.1,0.8
							c2.9,0.4,6.2,0.6,9.6,0.4c3.4-0.2,6.6-0.8,9.5-1.6c1.4-0.4,2.8-0.8,4-1.3c0.6-0.2,1.2-0.4,1.8-0.7c0.6-0.3,1.1-0.5,1.6-0.7
							c1-0.4,1.9-1,2.7-1.4c0.4-0.2,0.8-0.4,1.1-0.6c0.3-0.2,0.6-0.4,0.9-0.6c0.5-0.3,0.9-0.6,1.2-0.8
							C140.9,286.7,141.1,286.6,141.1,286.6z"/>
					</g>
				</g>
				<g>
					<g>
						<path class="st8" d="M135,272.5c0,0-0.4,0.4-1.2,1.2c-0.4,0.4-0.9,0.8-1.5,1.3c-0.6,0.5-1.2,1-2,1.6c-0.8,0.6-1.6,1.1-2.6,1.7
							c-0.9,0.6-2,1.2-3.1,1.8c-2.2,1.1-4.8,2.2-7.5,3.1c-2.8,0.8-5.5,1.4-7.9,1.7c-1.2,0.1-2.4,0.3-3.5,0.3
							c-1.1,0.1-2.1,0.1-3.1,0.1c-0.9,0-1.8-0.1-2.5-0.1c-0.7,0-1.4-0.1-1.9-0.2c-1-0.2-1.6-0.2-1.6-0.3c0,0,0.6,0,1.6,0.1
							c0.5,0.1,1.2,0.1,1.9,0.1c0.7,0,1.6,0.1,2.5,0.1c0.9,0,2,0,3.1-0.1c1.1,0,2.3-0.2,3.5-0.4c2.4-0.4,5.1-0.9,7.8-1.8
							c2.7-0.9,5.2-1.9,7.4-3c1.1-0.6,2.1-1.1,3.1-1.7c1-0.5,1.8-1.1,2.6-1.6c0.8-0.5,1.4-1,2-1.5c0.6-0.4,1.1-0.8,1.5-1.2
							C134.5,272.8,135,272.5,135,272.5z"/>
					</g>
				</g>
				<g>
					<g>
						<path class="st8" d="M75.2,200.4c0,0,0.1,0.5,0.2,1.3c0.1,1,0.3,2.2,0.5,3.6c0.4,3.2,1,7.4,1.6,12c0.7,4.6,1.3,8.8,1.7,12
							c0.2,1.5,0.4,2.7,0.5,3.6c0.1,0.9,0.2,1.3,0.1,1.3c0,0-0.1-0.5-0.3-1.3c-0.2-0.9-0.4-2.1-0.7-3.6c-0.5-3.1-1.2-7.3-1.9-12
							c-0.6-4.7-1.1-9-1.4-12.1c-0.2-1.5-0.3-2.8-0.3-3.7C75.2,200.9,75.2,200.4,75.2,200.4z"/>
					</g>
				</g>
				<g>
					<g>
						<path class="st8" d="M147.2,192.3c0,0,0,0.2,0,0.5c0,0.4,0,0.9-0.1,1.5c-0.1,1.3-0.2,3.1-0.4,5.3c-0.4,4.5-1,10.7-1.8,17.6
							c-0.8,6.8-1.7,13-2.4,17.5c-0.3,2.2-0.6,4-0.9,5.3c-0.1,0.6-0.2,1-0.3,1.4c-0.1,0.3-0.1,0.5-0.1,0.5c0,0,0-0.2,0-0.5
							c0-0.4,0.1-0.9,0.2-1.4c0.2-1.3,0.4-3.1,0.7-5.3c0.6-4.5,1.4-10.7,2.2-17.5c0.8-6.8,1.5-13,2-17.5c0.2-2.2,0.4-4,0.6-5.3
							c0.1-0.6,0.1-1.1,0.2-1.4C147.1,192.5,147.2,192.3,147.2,192.3z"/>
					</g>
				</g>
				<g>
					<g>
						<g>
							<polygon class="st12" points="150.8,224.5 122.1,241.7 114.7,239.6 80.8,233.1 73.8,255.4 100.5,257.9 112.3,263.5 118,261 
								142.8,244 							"/>
						</g>
						<g>
							<g>
								<path class="st8" d="M112.3,263.4c-0.1,0,0.5-1.2,1.3-3.2c0.9-2,2.1-4.6,3.4-7.6c1.3-3,2.4-5.7,3.2-7.7
									c0.8-2,1.3-3.2,1.4-3.2c0,0-0.1,0.3-0.2,0.9c-0.2,0.6-0.5,1.4-0.8,2.4c-0.7,2-1.8,4.8-3.1,7.8c-1.3,3-2.6,5.7-3.5,7.6
									c-0.5,1-0.9,1.7-1.2,2.2C112.5,263.2,112.3,263.4,112.3,263.4z"/>
							</g>
						</g>
						<g>
							<g>
								<path class="st8" d="M111.5,247.1c-0.1-0.1,0.4-1.7,1.2-3.7c0.8-2,1.5-3.6,1.7-3.5c0.1,0.1-0.4,1.7-1.2,3.7
									C112.3,245.6,111.6,247.2,111.5,247.1z"/>
							</g>
						</g>
						<g>
							<path class="st4" d="M118.2,240.6c0,0,0.9-3.4,3.5-4.7c2.6-1.3,24.1-12.5,24.1-12.5l2.5,2.6l-26.1,15.7L118.2,240.6z"/>
						</g>
						<g>
							<path class="st4" d="M83.8,233.7l4.3-2.2c0,0,12.3-1.3,19.4,0c7.1,1.3,10.8,5.3,10.6,9.1L83.8,233.7z"/>
						</g>
					</g>
					<g>
						<g>
							<path class="st17" d="M134.3,242.9c0,0-3.2,1.1-4.9,4.9c-1.7,3.8-2.8,5.7-4.9,7c-2.1,1.3-3.2,2.3-5.7,1.1
								c-2.5-1.1-6.5-4.9-8.3-5.2c-1.1-0.2-1.5,1.6-1.5,1.6s-4.9-3.3-6.6-2.7c-1.7,0.6-0.2,1.9,0.9,3.3c1.1,1.3,1.9,2.7,1.9,2.7
								c0.4-0.2-3.4-3.7-5.8-3c-1.5,0.5-1.1,1.8-1.1,1.8l2.9,2.1c0,0-1.5,2.7-0.2,3.3c1.3,0.6,10.8,7.2,12.9,7.2
								c2.1,0,11.6,1.7,15.5,0.8c4-0.9,8.4-2.3,8.4-2.3s15.6-5.1,20.4-11.1l-14.2-8.7c0,0-9.5,12.3-10,11s-1.1-4.2-0.6-7
								C133.9,246.6,135.9,241.9,134.3,242.9z"/>
						</g>
						<g>
							<g>
								<path class="st18" d="M121.1,261.4c0,0.1-0.9-0.1-2.2-0.6c-1.3-0.5-2.9-1.7-4.7-2.9c-1.8-1.1-3.3-2.5-4.3-3.5
									c-0.9-1.1-1.2-2-1.1-2c0.1,0,0.4,0.8,1.4,1.8c1,0.9,2.5,2.2,4.3,3.3c1.8,1.2,3.3,2.4,4.6,3
									C120.3,261,121.2,261.3,121.1,261.4z"/>
							</g>
						</g>
						<g>
							<g>
								<path class="st18" d="M117.9,265.4c0,0.1-0.8-0.4-2-1.2c-1.2-0.8-2.8-1.9-4.6-3.3c-1.7-1.3-3.3-2.6-4.3-3.6
									c-1.1-1-1.7-1.6-1.6-1.7c0-0.1,0.8,0.5,1.9,1.4c1.3,1,2.8,2.2,4.4,3.5c1.7,1.3,3.2,2.4,4.5,3.4
									C117.2,264.8,117.9,265.3,117.9,265.4z"/>
							</g>
						</g>
						<g>
							<g>
								<path class="st18" d="M110,264.1c-0.1,0.1-1.8-2-4.3-4.1c-2.5-2.1-4.8-3.5-4.7-3.6c0.1-0.1,2.5,1.1,5.1,3.2
									C108.6,261.8,110.1,264,110,264.1z"/>
							</g>
						</g>
					</g>
				</g>
			</g>
			<g>
				<g>
					<path class="st8" d="M112.9,208.4c0,0-0.1-0.3-0.2-0.7c-0.1-0.4-0.4-1-1-1.4c-0.6-0.4-1.6-0.7-2.5-0.3
						c-0.9,0.3-1.7,1.3-1.7,2.4c0,1.1,0.8,2.1,1.7,2.4c0.9,0.4,1.9,0.1,2.5-0.3c0.6-0.4,0.9-1,1-1.4
						C112.8,208.6,112.8,208.4,112.9,208.4c0,0,0.1,0.3,0,0.7c-0.1,0.5-0.3,1.1-1,1.7c-0.6,0.5-1.8,0.9-2.9,0.5
						c-1.1-0.4-2.1-1.5-2-2.9c0-1.4,0.9-2.5,2-2.9c1.1-0.4,2.2-0.1,2.9,0.5c0.7,0.5,0.9,1.2,1,1.7
						C113,208.1,112.9,208.4,112.9,208.4z"/>
				</g>
			</g>
			<g>
				<g>
					<path class="st8" d="M113.9,227.5c0,0-0.1-0.3-0.2-0.7c-0.1-0.4-0.4-1-1-1.4c-0.6-0.4-1.6-0.7-2.5-0.3
						c-0.9,0.3-1.7,1.3-1.7,2.4c0,1.1,0.8,2.1,1.7,2.4c0.9,0.4,1.9,0.1,2.5-0.3c0.6-0.4,0.9-1,1-1.4
						C113.8,227.7,113.8,227.5,113.9,227.5c0,0,0.1,0.3,0,0.7c-0.1,0.5-0.3,1.1-1,1.7c-0.6,0.5-1.8,0.9-2.9,0.5
						c-1.1-0.4-2.1-1.5-2-2.9c0-1.4,0.9-2.5,2-2.9c1.1-0.4,2.2-0.1,2.9,0.5c0.7,0.5,0.9,1.2,1,1.7
						C114,227.2,113.9,227.5,113.9,227.5z"/>
				</g>
			</g>
			<g>
				<g>
					<path class="st8" d="M115.8,272.7c0,0-0.1-0.3-0.2-0.7c-0.1-0.4-0.4-1-1-1.4c-0.6-0.4-1.6-0.7-2.5-0.3
						c-0.9,0.3-1.7,1.3-1.7,2.4c0,1.1,0.8,2.1,1.7,2.4c0.9,0.4,1.9,0.1,2.5-0.3c0.6-0.4,0.9-1,1-1.4
						C115.7,272.9,115.7,272.7,115.8,272.7c0,0,0.1,0.3,0,0.7c-0.1,0.5-0.3,1.1-1,1.7c-0.6,0.5-1.8,0.9-2.9,0.5
						c-1.1-0.4-2.1-1.5-2-2.9c0-1.4,0.9-2.5,2-2.9c1.1-0.4,2.2-0.1,2.9,0.5c0.7,0.5,0.9,1.2,1,1.7
						C115.8,272.4,115.8,272.7,115.8,272.7z"/>
				</g>
			</g>
			<g>
				<g>
					<path class="st8" d="M115.3,290.5c0,0-0.1-0.3-0.2-0.7c-0.1-0.4-0.4-1-1-1.4c-0.6-0.4-1.6-0.7-2.5-0.3
						c-0.9,0.3-1.7,1.3-1.7,2.4c0,1.1,0.8,2.1,1.7,2.4c0.9,0.4,1.9,0.1,2.5-0.3c0.6-0.4,0.9-1,1-1.4
						C115.3,290.7,115.3,290.5,115.3,290.5c0,0,0.1,0.3,0,0.7c-0.1,0.5-0.3,1.1-1,1.7c-0.6,0.5-1.8,0.9-2.9,0.5
						c-1.1-0.4-2.1-1.5-2-2.9c0-1.4,0.9-2.5,2-2.9c1.1-0.4,2.2-0.1,2.9,0.5c0.7,0.5,0.9,1.2,1,1.7
						C115.4,290.2,115.4,290.5,115.3,290.5z"/>
				</g>
			</g>
		</g>
		<g>
			<g>
				<g>
					<g>
						<path class="st19" d="M90.1,129.6c1-3.6,3.5-6.8,6.8-8.6c3.6-2,8-2.3,12.1-1.5c4.1,0.8,7.8,2.7,11.4,4.7c2,1.2,4,2.4,5.5,4.3
							c2.6,3.3,3,7.8,3.3,12.1c0.2,3.4,0.4,7-1.1,10.1c-1.3,2.9-4,5-7.1,5.7"/>
					</g>
				</g>
			</g>
			<g>
				<g>
					<g>
						<path class="st19" d="M127.2,146.7c4-4.6,6-10.8,5.5-16.8c-0.2-2-0.7-4.2-2.3-5.5c-0.8-0.7-1.8-1.1-2.6-1.7
							c-1.5-1.2-2.2-3.1-3.6-4.4c-1.4-1.3-3.6-1.8-5.4-1.3c-1.9,0.5-3.4,2.1-4,3.9c-0.7,2.6,0.4,5.3,1.4,7.7c1.7,3.8,3.4,7.6,5,11.3
							c0.6,1.4,1.3,2.9,2.3,4c1,1.2,2.5,2,4.1,1.9"/>
					</g>
				</g>
			</g>
			<g>
				<g>
					<g>
						<path class="st19" d="M91.8,127c-3,3.2-4.8,7.5-5.1,11.8c-0.3,4.4,0.9,8.8,3.4,12.4c2.1-9.3,5-18.4,8.7-27.2"/>
					</g>
				</g>
			</g>
			<g>
				<g>
					<g>
						<g>
							<g>
								<g>
									<path class="st17" d="M88.2,139.7c0.4-6.7,4.9-15,11.6-14.3l15.5,4c5,1.3,8.3,5.5,8.7,10.6c0,0.3,0-0.1,0,0.1l-1,38.1
										l-14.5,16.3l0,0l-9.9-15.3c0-3.3,0-5.9,0-5.9c0,0-8.6-1.4-10.4-12.7C87.4,155,87.7,147.1,88.2,139.7z"/>
								</g>
							</g>
						</g>
					</g>
				</g>
			</g>
			<g>
				<g>
					<g>
						<g>
							<path class="st18" d="M103.6,136.1c0,0.1-1.4,0.5-3.3,0.7c-1.8,0.2-3.3,0.1-3.3,0c0-0.1,1.5-0.1,3.3-0.3
								C102.1,136.4,103.6,136.1,103.6,136.1z"/>
						</g>
					</g>
				</g>
			</g>
			<g>
				<g>
					<g>
						<g>
							<path class="st18" d="M101.1,135.7c0,0.1-0.9,0.3-2,0.4c-1.1,0.1-2.1-0.1-2.1-0.2c0-0.1,0.9-0.1,2-0.1
								C100.2,135.8,101.1,135.7,101.1,135.7z"/>
						</g>
					</g>
				</g>
			</g>
			<g>
				<g>
					<g>
						<g>
							<path class="st18" d="M105.8,158c-0.1,0-0.2-0.4-0.6-0.7c-0.4-0.3-0.9-0.2-0.9-0.3c0,0,0.1-0.1,0.3-0.1c0.2,0,0.5,0,0.8,0.2
								c0.3,0.2,0.4,0.4,0.5,0.6C105.8,157.9,105.8,158,105.8,158z"/>
						</g>
					</g>
				</g>
			</g>
			<g>
				<g>
					<g>
						<g>
							<g>
								<g>
									<g>
										<g>
											<g>
												<g>
													<g>
														<g>
															<g>
																<g>
																	<path class="st8" d="M92.3,148.4c0,0.8,0.6,1.4,1.4,1.5c0.8,0,1.5-0.5,1.5-1.3c0-0.8-0.6-1.4-1.4-1.5
																		C93,147.1,92.3,147.6,92.3,148.4z"/>
																</g>
															</g>
														</g>
													</g>
												</g>
											</g>
										</g>
									</g>
								</g>
							</g>
						</g>
					</g>
				</g>
			</g>
			<g>
				<g>
					<g>
						<g>
							<g>
								<g>
									<g>
										<g>
											<g>
												<g>
													<g>
														<g>
															<g>
																<g>
																	<g>
																		<path class="st8" d="M90.1,144.4c0.2,0.2,1.3-0.6,2.8-0.6c1.5,0,2.7,0.8,2.9,0.6c0.1-0.1-0.1-0.4-0.6-0.8
																			c-0.5-0.4-1.3-0.7-2.3-0.7c-1,0-1.8,0.4-2.2,0.7C90.2,144,90.1,144.3,90.1,144.4z"/>
																	</g>
																</g>
															</g>
														</g>
													</g>
												</g>
											</g>
										</g>
									</g>
								</g>
							</g>
						</g>
					</g>
				</g>
			</g>
			<g>
				<g>
					<g>
						<g>
							<g>
								<g>
									<g>
										<g>
											<g>
												<g>
													<g>
														<g>
															<g>
																<g>
																	<path class="st8" d="M106.8,148.4c0,0.8,0.6,1.4,1.4,1.5c0.8,0,1.5-0.5,1.5-1.3c0-0.8-0.6-1.4-1.4-1.5
																		C107.5,147.1,106.8,147.6,106.8,148.4z"/>
																</g>
															</g>
														</g>
													</g>
												</g>
											</g>
										</g>
									</g>
								</g>
							</g>
						</g>
					</g>
				</g>
			</g>
			<g>
				<g>
					<g>
						<g>
							<g>
								<g>
									<g>
										<g>
											<g>
												<g>
													<g>
														<g>
															<g>
																<g>
																	<g>
																		<path class="st8" d="M105.4,144.8c0.2,0.2,1.3-0.6,2.8-0.6c1.5,0,2.7,0.8,2.9,0.6c0.1-0.1-0.1-0.4-0.6-0.8
																			c-0.5-0.4-1.3-0.7-2.3-0.7c-1,0-1.8,0.4-2.2,0.7C105.5,144.3,105.3,144.7,105.4,144.8z"/>
																	</g>
																</g>
															</g>
														</g>
													</g>
												</g>
											</g>
										</g>
									</g>
								</g>
							</g>
						</g>
					</g>
				</g>
			</g>
			<g>
				<g>
					<g>
						<g>
							<g>
								<g>
									<g>
										<g>
											<g>
												<g>
													<g>
														<g>
															<g>
																<g>
																	<g>
																		<path class="st8" d="M99.7,156.2c0-0.1-1-0.3-2.5-0.5c-0.4,0-0.8-0.1-0.8-0.4c-0.1-0.3,0.1-0.7,0.3-1.2
																			c0.4-1,0.8-2,1.2-3c1.6-4.3,2.8-7.8,2.6-7.9c-0.2-0.1-1.6,3.4-3.3,7.7c-0.4,1.1-0.8,2.1-1.1,3
																			c-0.2,0.4-0.4,1-0.2,1.6c0.1,0.3,0.4,0.5,0.7,0.6c0.3,0.1,0.5,0.1,0.7,0.1C98.8,156.3,99.7,156.3,99.7,156.2z"/>
																	</g>
																</g>
															</g>
														</g>
													</g>
												</g>
											</g>
										</g>
									</g>
								</g>
							</g>
						</g>
					</g>
				</g>
			</g>
			<g>
				<g>
					<g>
						<path class="st20" d="M113.5,169.3c0,0-3.7,7.7-14.9,6.6l0-2.6C98.6,173.3,106,173.8,113.5,169.3z"/>
					</g>
				</g>
			</g>
			<g>
				<g>
					<g>
						<g>
							<g>
								<g>
									<g>
										<g>
											<g>
												<g>
													<g>
														<g>
															<g>
																<g>
																	<path class="st21" d="M100.4,160c0.6-0.7,1.5-1.1,2.5-1c0.7,0.1,1.4,0.4,1.8,0.9c0.4,0.5,0.5,1.3,0.1,1.8
																		c-0.4,0.6-1.3,0.7-2,0.5c-0.7-0.2-1.4-0.7-2-1.2c-0.2-0.1-0.3-0.3-0.4-0.5C100.2,160.4,100.2,160.2,100.4,160"/>
																</g>
															</g>
														</g>
													</g>
												</g>
											</g>
										</g>
									</g>
								</g>
							</g>
						</g>
					</g>
				</g>
			</g>
			<g>
				<g>
					<g>
						<g>
							<g>
								<g>
									<g>
										<g>
											<g>
												<g>
													<g>
														<g>
															<g>
																<g>
																	<g>
																		<path class="st8" d="M104.3,157.3c-0.3,0-0.3,1.7-1.7,2.9c-1.4,1.2-3.2,1-3.2,1.2c0,0.1,0.4,0.3,1.2,0.4
																			c0.7,0,1.8-0.2,2.7-0.9c0.9-0.7,1.3-1.7,1.3-2.4C104.6,157.7,104.4,157.3,104.3,157.3z"/>
																	</g>
																</g>
															</g>
														</g>
													</g>
												</g>
											</g>
										</g>
									</g>
								</g>
							</g>
						</g>
					</g>
				</g>
			</g>
			<g>
				<g>
					<g>
						<g>
							<g>
								<g>
									<g>
										<g>
											<g>
												<g>
													<g>
														<path class="st8" d="M105,140.2c0.2,0.4,1.7,0.2,3.5,0.4c1.8,0.2,3.3,0.7,3.5,0.3c0.1-0.2-0.1-0.6-0.7-1
															c-0.6-0.4-1.5-0.8-2.6-0.9c-1.1-0.1-2.1,0-2.8,0.3C105.3,139.7,104.9,140,105,140.2z"/>
													</g>
												</g>
											</g>
										</g>
									</g>
								</g>
							</g>
						</g>
					</g>
				</g>
			</g>
			<g>
				<g>
					<g>
						<g>
							<g>
								<g>
									<g>
										<g>
											<g>
												<g>
													<g>
														<path class="st8" d="M90.7,139.9c0.3,0.4,1.3,0,2.6,0c1.3-0.1,2.4,0.2,2.6-0.1c0.1-0.2-0.1-0.5-0.5-0.9
															c-0.5-0.3-1.3-0.6-2.1-0.6c-0.9,0-1.6,0.3-2.1,0.7C90.8,139.4,90.6,139.8,90.7,139.9z"/>
													</g>
												</g>
											</g>
										</g>
									</g>
								</g>
							</g>
						</g>
					</g>
				</g>
			</g>
			<g>
				<g>
					<g>
						<path class="st19" d="M91.2,129.4c0.7-1.7,2.5-2.7,4.4-2.8s3.6,0.6,5.2,1.5c6.7,3.9,10.5,11.6,17.1,15.6c1.6,1,3.4,1.7,4.8,3
							s2.3,3.4,1.5,5.1c0.9-1.2,1.8-2.5,2.3-3.9c0.5-1.4,0.6-3.1-0.2-4.4c-0.6-1-1.6-1.7-1.9-2.9c-0.2-1,0.1-2,0.1-3
							c0-1-0.5-2-1-2.9c-2.6-4.6-6.2-8.7-10.7-11.3c-3-1.7-6.4-2.7-9.9-2.6c-3.4,0.1-6.9,1.4-9.4,3.7
							C92,126.1,90.5,127.5,91.2,129.4"/>
					</g>
				</g>
			</g>
			<g>
				<g>
					<g>
						<g>
							<path class="st22" d="M124.1,151.9c0,0,0.1-0.2,0.4-0.5c0.2-0.3,0.5-0.8,0.7-1.5c0.4-1.3,0.5-3.5-0.6-5.9
								c-0.5-1.2-1.2-2.4-2-3.7c-0.7-1.3-1.4-2.8-2.1-4.4c-0.7-1.6-1.4-3.2-2.4-4.8c-1-1.6-2.2-3-3.7-4.3c-3-2.6-6.5-4-9.9-4.5
								c-3.3-0.5-6.5,0-8.8,1.2c-2.3,1.2-3.6,2.9-4.2,4.2c-0.3,0.6-0.5,1.2-0.6,1.5c-0.1,0.4-0.1,0.6-0.1,0.6c0,0,0-0.1,0-0.1
								c0-0.1,0-0.2,0.1-0.4c0.1-0.4,0.2-0.9,0.5-1.6c0.6-1.3,1.9-3.1,4.2-4.3c2.3-1.2,5.5-1.8,8.9-1.3c3.4,0.5,7,2,10,4.6
								c1.5,1.3,2.8,2.8,3.8,4.3c1,1.6,1.7,3.2,2.4,4.8c0.7,1.6,1.3,3.1,2,4.4c0.7,1.3,1.4,2.6,1.9,3.7c1.1,2.4,1,4.6,0.5,6
								c-0.2,0.7-0.5,1.2-0.8,1.5C124.2,151.7,124.1,151.9,124.1,151.9z"/>
						</g>
					</g>
				</g>
			</g>
			<g>
				<g>
					<g>
						<g>
							<path class="st22" d="M129.3,146c0,0,0-0.1,0-0.3c0-0.2,0-0.5,0-0.9c0-0.8,0.1-1.9,0-3.4c0-1.4-0.2-3.1-0.5-4.9
								c-0.4-1.8-1.1-3.8-2.4-5.5c-1.3-1.7-2.9-3.1-4.3-4.3c-1.4-1.2-2.7-2.3-3.9-3.1c-1.2-0.8-2.1-1.4-2.8-1.8
								c-0.3-0.2-0.6-0.3-0.8-0.5c-0.2-0.1-0.3-0.2-0.3-0.2c0,0,0.1,0,0.3,0.1c0.2,0.1,0.5,0.2,0.8,0.4c0.7,0.4,1.7,1,2.9,1.8
								c1.2,0.8,2.5,1.9,4,3.1c1.4,1.2,3,2.6,4.4,4.3c1.4,1.7,2.1,3.8,2.4,5.6c0.4,1.9,0.5,3.6,0.5,5c0,1.4,0,2.6-0.1,3.4
								c0,0.4-0.1,0.7-0.1,0.9C129.3,145.9,129.3,146,129.3,146z"/>
						</g>
					</g>
				</g>
			</g>
			<g>
				<g>
					<g>
						<g>
							<path class="st22" d="M124.3,118.8c0,0,0.2,0.5,0.3,1.3c0.1,0.8,0.2,1.9,0.1,3.2c-0.1,1.2-0.3,2.3-0.5,3.1
								c-0.2,0.8-0.4,1.2-0.5,1.2c-0.1,0,0.6-1.9,0.7-4.4C124.7,120.8,124.2,118.8,124.3,118.8z"/>
						</g>
					</g>
				</g>
			</g>
			<g>
				<g>
					<g>
						<g>
							<path class="st22" d="M132.2,127.2c0,0-0.1,0.4-0.4,0.9c-0.3,0.5-0.9,1.2-1.6,1.8c-0.8,0.6-1.6,0.9-2.2,1
								c-0.6,0.1-1,0.1-1,0.1c0,0,0.4-0.1,1-0.3c0.6-0.2,1.4-0.5,2.1-1.1c0.7-0.5,1.3-1.2,1.6-1.7
								C132,127.5,132.2,127.1,132.2,127.2z"/>
						</g>
					</g>
				</g>
			</g>
			<g>
				<g>
					<g>
						<g>
							<path class="st22" d="M132.8,134.7c0,0.1-1,0.4-2.2,0.4c-1.3,0-2.2-0.5-2.2-0.5c0-0.1,1,0.2,2.2,0.3
								C131.8,134.9,132.8,134.6,132.8,134.7z"/>
						</g>
					</g>
				</g>
			</g>
			<g>
				<g>
					<g>
						<g>
							<path class="st19" d="M127.9,154.3c-0.3-0.1-0.1-0.9-0.1-2.1c0-0.6,0-1.3-0.2-2c-0.1-0.2-0.1-0.3-0.2-0.5
								c0-0.1-0.1-0.1-0.1-0.2c0-0.1-0.1-0.2-0.2-0.3c-0.3-0.4-0.6-0.8-0.9-1.1c-0.3-0.3-0.7-0.6-1-0.7c-0.1,0-0.2,0-0.1,0
								c-0.1,0-0.3,0.1-0.4,0.1c-0.1,0-0.3,0.1-0.4,0.1c-0.6,0.1-1.1,0.3-1.6,0.6c-0.3,0.1-0.5,0.3-0.8,0.5l-0.2,0.1l-0.3,0.2
								c-0.2,0.1-0.5,0.2-0.7,0.3c-1,0.4-2,0.6-3.2,0.5c-0.6,0-1.2-0.2-1.9-0.5l-0.2-0.1l-0.2-0.1c-0.1-0.1-0.3-0.2-0.4-0.2
								c-0.2-0.2-0.5-0.4-0.7-0.6c-0.9-0.8-1.5-1.7-1.9-2.6c-0.5-0.9-0.8-1.8-1.1-2.6c-1.2-3.1-3-5.7-4.8-7.9
								c-1.9-2.2-3.8-3.9-5.6-5.2c-1.8-1.3-3.3-2.1-4.4-2.5c-1.1-0.4-1.9-0.5-1.9-0.8c0-0.3,0.7-0.7,2.1-0.8c1.5,0,3.5,0.5,5.7,1.6
								c2.2,1.1,4.7,2.8,6.9,5.2c2.3,2.3,4.4,5.4,5.8,8.9c0.3,0.8,0.6,1.6,1,2.3c0.3,0.7,0.7,1.2,1,1.5c0.1,0.1,0.2,0.2,0.3,0.2
								c0,0,0.1,0.1,0.1,0.1l0.1,0l0,0c0.1,0,0.2,0.1,0.5,0.1c0.4,0.1,1,0,1.5-0.2c0.1,0,0.2-0.1,0.3-0.1l0.1-0.1l0.3-0.2
								c0.4-0.2,0.8-0.4,1.2-0.5c0.8-0.3,1.7-0.5,2.4-0.7c0.2,0,0.4,0,0.6-0.1l0.3,0l0.3,0c0.7,0,1.3,0.2,1.8,0.4
								c0.9,0.5,1.4,1.1,1.8,1.7c0.4,0.6,0.7,1.1,1,1.6c0.1,0.1,0.1,0.3,0.2,0.4c0.1,0.2,0.1,0.3,0.2,0.5c0.1,0.3,0.1,0.6,0.2,0.9
								c0.1,1.2-0.2,2.1-0.5,2.7C128.8,154,128.1,154.5,127.9,154.3z"/>
						</g>
					</g>
				</g>
			</g>
			<g>
				<g>
					<g>
						<g>
							<g>
								<g>
									<g>
										<g>
											<g>
												<g>
													<g>
														<g>
															<g>
																<g>
																	<g>
																		<g>
																			<g>
																				<path class="st17" d="M122.5,148.1c0.1-0.3,6-2.4,6.1,3.8c0.1,6.1-6,4.9-6,4.7
																					C122.5,156.4,122.5,148.1,122.5,148.1z"/>
																			</g>
																		</g>
																	</g>
																</g>
															</g>
														</g>
													</g>
												</g>
											</g>
										</g>
									</g>
								</g>
							</g>
						</g>
					</g>
				</g>
				<g>
					<g>
						<g>
							<g>
								<g>
									<g>
										<g>
											<g>
												<g>
													<g>
														<g>
															<g>
																<g>
																	<g>
																		<g>
																			<g>
																				<g>
																					<path class="st18" d="M124.3,154.3c0,0,0.1,0.1,0.3,0.2c0.2,0.1,0.5,0.1,0.8,0c0.6-0.2,1.2-1.3,1.2-2.4
																						c0-0.6-0.1-1.1-0.3-1.5c-0.2-0.4-0.5-0.7-0.8-0.8c-0.3-0.1-0.5,0.1-0.6,0.3c-0.1,0.2,0,0.3-0.1,0.3
																						c0,0-0.1-0.1-0.1-0.4c0-0.1,0.1-0.3,0.2-0.4c0.1-0.1,0.4-0.2,0.6-0.2c0.5,0,0.9,0.5,1.1,0.9
																						c0.2,0.5,0.4,1.1,0.4,1.7c0,1.2-0.6,2.4-1.5,2.6c-0.4,0.1-0.8,0-1-0.2C124.3,154.4,124.3,154.3,124.3,154.3z"
																						/>
																				</g>
																			</g>
																		</g>
																	</g>
																</g>
															</g>
														</g>
													</g>
												</g>
											</g>
										</g>
									</g>
								</g>
							</g>
						</g>
					</g>
				</g>
			</g>
			<g>
				<g>
					<g>
						<g>
							<path class="st22" d="M127.1,148c0,0-0.1-0.2-0.3-0.4c-0.2-0.3-0.5-0.6-1.1-0.8c-0.6-0.2-1.3-0.3-2.1-0.2
								c-0.8,0.1-1.7,0.5-2.7,1c-1,0.4-2.1,1-3.4,0.9c-1.3-0.1-2.6-0.8-3.6-1.9c-1-1.1-1.6-2.5-2.1-4c-0.5-1.5-1-3-1.6-4.6
								c-1.2-3.1-2.8-5.8-4.8-7.9c-2-2.1-4.3-3.3-6.4-3.8c-1-0.3-2-0.4-2.9-0.4c-0.9,0-1.6,0.1-2.2,0.3c-1.2,0.3-1.8,0.6-1.8,0.6
								c0,0,0,0,0.1-0.1c0.1,0,0.2-0.1,0.3-0.2c0.3-0.1,0.7-0.3,1.3-0.5c0.6-0.2,1.3-0.3,2.2-0.3c0.9,0,1.9,0.1,2.9,0.3
								c2.1,0.5,4.5,1.7,6.5,3.8c2,2.1,3.6,4.9,4.8,7.9c0.6,1.5,1.1,3.1,1.6,4.6c0.5,1.5,1.1,2.8,2.1,3.9c0.9,1,2.2,1.8,3.4,1.9
								c1.2,0.1,2.4-0.4,3.3-0.8c1-0.4,1.9-0.9,2.8-1c0.9-0.1,1.6,0,2.2,0.2c0.6,0.2,0.9,0.6,1.1,0.9c0.1,0.1,0.1,0.2,0.2,0.3
								C127.1,148,127.1,148,127.1,148z"/>
						</g>
					</g>
				</g>
			</g>
			<g>
				<g>
					<g>
						<g>
							<path class="st22" d="M124.9,145c0,0-0.1-0.1-0.4-0.2c-0.2-0.1-0.6-0.3-1-0.6c-0.8-0.6-2-1.6-3.3-3c-1.3-1.4-2.6-3.2-4-5.2
								c-1.4-2-3-4.2-5-6.2c-1-1-2.1-1.9-3.2-2.5c-1.1-0.7-2.3-1.2-3.5-1.6c-2.3-0.8-4.6-0.9-6.4-0.8c-1.9,0.1-3.3,0.5-4.3,0.8
								c-0.5,0.2-0.9,0.3-1.1,0.4c-0.3,0.1-0.4,0.1-0.4,0.1c0,0,0.1-0.1,0.4-0.2c0.2-0.1,0.6-0.3,1.1-0.5c1-0.4,2.4-0.8,4.3-0.9
								c1.9-0.2,4.1,0,6.5,0.7c1.2,0.4,2.4,0.9,3.5,1.6c1.2,0.7,2.2,1.6,3.3,2.6c2,2,3.6,4.3,5,6.3c1.4,2,2.7,3.8,3.9,5.2
								c1.2,1.4,2.4,2.4,3.2,3c0.4,0.3,0.8,0.5,1,0.7C124.8,144.9,124.9,145,124.9,145z"/>
						</g>
					</g>
				</g>
			</g>
			<g>
				<g>
					<g>
						<g>
							<path class="st4" d="M125,155.3c0.6-0.1,1.2,0.3,1.4,0.9c0.1,0.6-0.2,1.2-0.8,1.4c-0.6,0.2-1.3-0.1-1.5-0.7
								c-0.2-0.6,0.1-1.3,0.6-1.5"/>
						</g>
					</g>
				</g>
				<g>
					<g>
						<g>
							<g>
								<path class="st8" d="M124.7,155.4c0,0-0.4,0.2-0.5,0.8c-0.1,0.3,0,0.7,0.2,1c0.3,0.3,0.7,0.5,1.1,0.3
									c0.4-0.1,0.7-0.5,0.7-0.9c0.1-0.4-0.1-0.7-0.4-0.9c-0.5-0.4-0.9-0.3-0.9-0.3c0,0,0.1-0.1,0.3-0.1c0.2,0,0.5,0.1,0.8,0.3
									c0.3,0.2,0.5,0.6,0.5,1.1c0,0.5-0.4,1-0.9,1.2c-0.5,0.2-1.1-0.1-1.4-0.4c-0.3-0.4-0.3-0.8-0.2-1.2c0.1-0.3,0.3-0.5,0.5-0.7
									C124.6,155.4,124.7,155.4,124.7,155.4z"/>
							</g>
						</g>
					</g>
				</g>
			</g>
		</g>
	</g>
</g>
<g id="Plant">
	<g>
		<g>
			<path class="st23" d="M450.7,393.6c0.9-3.1,2.8-6,5.7-7.3c3.1-1.3,6.6-0.6,9.7,0.6c3.1,1.1,6.2,2.7,9.5,2.9
				c3.3,0.2,7.1-1.4,8.1-4.5c0.9-3-0.9-6.2-3.1-8.3c-4.7-4.6-11.9-6.5-18.2-5c-6.4,1.5-11.9,6.5-14,12.7"/>
		</g>
		<g>
			<path class="st12" d="M424.4,406.9c-4.9-4.6-4.6-12.7-2.2-19c2.4-6.3,7.7-11.1,13.7-14.3c11.5-6.1,25.9-6.6,37.7-1.2
				c-5.8,0.2-11.5,3.5-14.5,8.5c-2.7,4.4-3.3,9.8-5.5,14.5c-2.5,5.2-7,9.4-12.3,11.5C435.9,409.1,429.7,409.1,424.4,406.9"/>
		</g>
		<g>
			<path class="st12" d="M422.1,379.1c-5.4-6.4-6.1-16.6-5.3-24.9c0.8-8.3,2.7-16.7,1.4-24.9c-0.8-4.9-2.7-9.5-3.3-14.5
				c-0.6-4.9,0.3-10.5,4.1-13.6c4.4-3.6,11.2-2.8,15.8,0.6c4.5,3.4,7.2,8.8,9.1,14.1c4.2,11.8,5.8,24.8,2.3,36.8
				c-3.5,12-11.6,22.7-23.6,26.3"/>
		</g>
		<g>
			<g>
				<path class="st8" d="M419.5,431.3c0,0,0-0.3,0-0.7c0-0.5,0-1.2,0-2.1c0.1-1.8,0.2-4.5,0.6-7.7c0.4-3.2,1-7.1,2.1-11.3
					c1-4.2,2.7-8.7,5.2-13.1c2.4-4.4,5.4-8.2,8.4-11.3c3-3.1,6.1-5.5,8.8-7.3c1.3-0.9,2.7-1.6,3.8-2.3c1.2-0.6,2.2-1.1,3-1.5
					c0.8-0.3,1.5-0.6,1.9-0.8c0.4-0.2,0.7-0.3,0.7-0.2s-0.2,0.1-0.6,0.3c-0.5,0.2-1.1,0.5-1.9,0.9c-0.8,0.4-1.8,0.9-2.9,1.6
					c-1.1,0.7-2.4,1.4-3.7,2.3c-2.7,1.8-5.7,4.3-8.7,7.4c-3,3.1-5.9,6.9-8.3,11.2c-5,8.7-6.3,17.8-7.3,24.2
					c-0.5,3.2-0.7,5.9-0.8,7.7c-0.1,0.9-0.1,1.6-0.1,2.1C419.5,431.1,419.5,431.3,419.5,431.3z"/>
			</g>
		</g>
		<g>
			<g>
				<path class="st23" d="M372.9,354c-10,6-10,11.5-8.3,16.7c1.7,5.2,7.8,8.8,12.9,6.8c2.9-1.1,5-3.6,6.7-6.1c1.8-2.5,3.4-5.2,5.9-7
					c2.5-1.8,6.1-2.5,8.6-0.7"/>
			</g>
			<g>
				<g>
					<path class="st12" d="M365.4,360.6c2.6-3.6,9.1-4.7,13.1-2.9s7.1,5.4,9.7,8.9c2.7,3.6,5.3,7.3,9,9.8c3.7,2.5,8.9,3.4,12.6,0.9
						c2.4-1.6,3.8-4.5,4.3-7.4c0.4-2.9,0-5.8-0.6-8.7c-0.9-4.2-2.3-8.6-5.7-11.2c-3.7-3-8.9-3.1-13.7-2.9c-5.5,0.2-11,0.6-16.2,2.5
						C372.9,351.4,367.6,355.5,365.4,360.6"/>
				</g>
			</g>
			<g>
				<g>
					<path class="st8" d="M411.2,423.4c0,0,0-0.3-0.1-0.9c0-0.6-0.1-1.4-0.1-2.5c-0.1-2.2-0.2-5.3-0.3-9.1
						c-0.1-3.8-0.3-8.4-0.6-13.5c-0.3-5.1-0.7-10.7-1.4-16.5c-0.4-2.9-0.9-5.7-1.7-8.4c-0.8-2.6-1.9-5.1-3.1-7.3
						c-2.3-4.5-5.3-8.1-8.1-10.7c-2.8-2.6-5.5-4.2-7.5-5.1c-1-0.5-1.7-0.8-2.3-1c-0.5-0.2-0.8-0.3-0.8-0.3c0,0,0.3,0.1,0.8,0.2
						c0.5,0.2,1.3,0.4,2.3,0.9c2,0.9,4.7,2.4,7.6,5c2.9,2.6,5.9,6.2,8.2,10.7c1.2,2.3,2.3,4.7,3.1,7.4c0.8,2.7,1.3,5.5,1.7,8.4
						c0.8,5.8,1.1,11.4,1.4,16.5c0.3,5.1,0.4,9.7,0.5,13.5c0.1,3.8,0.1,7,0.1,9.1c0,1,0,1.9,0,2.5
						C411.2,423.1,411.2,423.4,411.2,423.4z"/>
				</g>
			</g>
		</g>
		<g>
			<g>
				<path class="st8" d="M414.8,427.9c0,0-0.6-1.5-1.1-4.3c-0.5-2.8-0.9-7-0.5-12.1c0.4-5.1,1.7-11.1,3.8-17.5
					c2-6.4,4.8-13.3,7.2-20.7c1.2-3.7,2.2-7.3,2.9-10.9c0.7-3.6,1.1-7.1,1.4-10.4c0.6-6.7,0.5-12.8,0.3-17.8
					c-0.2-5.1-0.4-9.2-0.6-12c-0.1-1.4-0.1-2.5-0.2-3.3c0-0.4,0-0.6,0-0.9c0-0.2,0-0.3,0-0.3c0,0,0,0.1,0,0.3c0,0.2,0.1,0.5,0.1,0.8
					c0.1,0.8,0.2,1.9,0.3,3.3c0.2,2.8,0.5,6.9,0.8,12c0.2,5.1,0.3,11.2-0.2,17.9c-0.3,3.4-0.7,6.9-1.4,10.5c-0.7,3.6-1.7,7.3-2.9,11
					c-2.4,7.4-5.2,14.3-7.2,20.7c-2.1,6.4-3.4,12.3-3.9,17.4c-0.5,5.1-0.2,9.2,0.3,12c0.2,1.4,0.5,2.5,0.7,3.2
					c0.1,0.3,0.1,0.6,0.2,0.8C414.8,427.8,414.8,427.9,414.8,427.9z"/>
			</g>
		</g>
		<g>
			<polygon class="st8" points="439.5,432.4 392.6,432.4 391.6,423.4 439.5,423.4 			"/>
		</g>
		<g>
			<polygon class="st8" points="397.7,431.3 403.5,458.4 429,458.4 434.5,431.3 			"/>
		</g>
		<g>
			<g>
				<path class="st15" d="M439.5,432.4c0,0.1-10.3,0.2-23,0.2c-12.7,0-23-0.2-23-0.3c0-0.1,10.3-0.2,23-0.2
					C429.2,432.1,439.5,432.2,439.5,432.4z"/>
			</g>
		</g>
		<g>
			<g>
				<path class="st15" d="M431.5,445.7c-0.1,0.1-1.4-1.3-4.1-2.3c-1.4-0.5-3.1-1-5-1c-1.9-0.1-4,0.4-6.2,1.1c-2.1,0.7-4.1,1.6-6.1,2
					c-2,0.4-3.8,0.4-5.3,0.2c-1.5-0.2-2.6-0.7-3.4-1.1c-0.4-0.2-0.6-0.4-0.8-0.5c-0.2-0.1-0.3-0.2-0.3-0.2c0-0.1,1.5,1.1,4.5,1.5
					c1.4,0.2,3.2,0.2,5.1-0.3c1.9-0.5,3.9-1.3,6-2.1c2.1-0.7,4.3-1.2,6.3-1.1c2,0.1,3.8,0.5,5.1,1.1c1.4,0.6,2.4,1.3,3.1,1.8
					c0.3,0.3,0.6,0.5,0.7,0.6C431.4,445.6,431.5,445.7,431.5,445.7z"/>
			</g>
		</g>
		<g>
			<g>
				<path class="st4" d="M431.1,447.5c-0.1,0.1-1.3-1.2-4-2.3c-1.3-0.5-3-1-4.8-1c-1.9,0-3.9,0.4-6,1.1c-2.1,0.7-4,1.5-5.9,2
					c-1.9,0.5-3.6,0.7-5.1,0.6c-1.5-0.1-2.6-0.5-3.3-0.9c-0.4-0.2-0.6-0.4-0.8-0.5c-0.2-0.1-0.3-0.2-0.2-0.2c0,0,0.4,0.2,1.1,0.5
					c0.7,0.3,1.8,0.7,3.2,0.7c1.4,0.1,3.1-0.1,4.9-0.7c1.8-0.5,3.7-1.3,5.8-2c2.1-0.7,4.2-1.1,6.1-1.1c1.9,0.1,3.6,0.5,5,1.1
					c1.3,0.6,2.3,1.3,2.9,1.8c0.3,0.3,0.5,0.5,0.7,0.6C431.1,447.4,431.1,447.5,431.1,447.5z"/>
			</g>
		</g>
		<g>
			<g>
				<path class="st4" d="M431.9,443.9c-0.1,0.1-1.4-1.3-4.2-2.5c-1.4-0.6-3.1-1.1-5.1-1.2c-2-0.1-4.2,0.4-6.4,1.1
					c-2.2,0.7-4.3,1.6-6.3,2.1c-2,0.4-3.9,0.3-5.4,0c-1.5-0.3-2.7-0.7-3.5-1.1c-0.4-0.2-0.7-0.4-0.8-0.5c-0.2-0.1-0.3-0.2-0.3-0.2
					c0,0,0.4,0.2,1.2,0.6c0.8,0.3,2,0.7,3.5,0.9c1.5,0.2,3.3,0.3,5.3-0.1c1.9-0.4,4-1.3,6.2-2.1c2.2-0.8,4.5-1.3,6.6-1.1
					c2.1,0.1,3.9,0.7,5.3,1.4c1.4,0.6,2.4,1.4,3.1,1.9c0.3,0.3,0.6,0.5,0.7,0.7C431.9,443.8,431.9,443.9,431.9,443.9z"/>
			</g>
		</g>
	</g>
</g>
</svg>
