<svg xmlns="http://www.w3.org/2000/svg" version="1.1" xmlns:xlink="http://www.w3.org/1999/xlink" width="512" height="512" x="0" y="0" viewBox="0 0 496 496" style="enable-background:new 0 0 512 512" xml:space="preserve" class=""><g><path d="M154.672 294.383C158.16 299.648 160 305.734 160 312c0 17.648-14.352 32-32 32-6.266 0-12.352-1.84-17.617-5.328l-8.832 13.344C109.44 357.238 118.586 360 128 360c26.473 0 48-21.527 48-48 0-9.414-2.762-18.559-7.984-26.457zM128 280c6.266 0 12.36 1.84 17.61 5.32l8.84-13.336C146.565 266.762 137.425 264 128 264c-26.473 0-48 21.527-48 48 0 9.414 2.762 18.559 7.984 26.457l13.344-8.832C97.84 324.352 96 318.265 96 312c0-17.648 14.352-32 32-32zM288 336v48h32v-16h-16v-32zm0 0" fill="#02b5ff" opacity="1" data-original="#000000" class=""></path><path d="M296 288c-20.246 0-40.023 7.055-55.688 19.871l10.145 12.387c10.727-8.785 23.84-14.211 37.543-15.754V320h16v-15.527c33.32 3.703 59.824 30.214 63.527 63.527H352v16h15.496c-1.543 13.71-6.969 26.816-15.754 37.55l12.38 10.137C376.936 416.023 384 396.247 384 376c0-48.52-39.48-88-88-88zM304 447.496V432h-16v15.527c-33.32-3.703-59.824-30.215-63.527-63.527H240v-16h-15.496c1.543-13.71 6.969-26.816 15.754-37.55l-12.38-10.138C215.064 335.978 208 355.755 208 376c0 48.52 39.48 88 88 88 20.246 0 40.023-7.055 55.688-19.871l-10.145-12.387c-10.727 8.785-23.832 14.211-37.543 15.754zm0 0" fill="#02b5ff" opacity="1" data-original="#000000" class=""></path><path d="M448 368h-16V144h-48v150.688a120.64 120.64 0 0 0-16-14.465V184h-48v74.414c-5.207-1.062-10.574-1.652-16-2.016V224h-48v39a119.393 119.393 0 0 0-22.855 10.969c-1.61-4.457-3.383-8.832-5.528-13.008l12.649-17.715-43.512-43.527-17.723 12.656a111.401 111.401 0 0 0-16.672-6.879L158.785 184H97.223l-3.575 21.496a111.401 111.401 0 0 0-16.671 6.879l-17.72-12.656-43.515 43.527 12.649 17.715a109.953 109.953 0 0 0-6.887 16.672L0 281.223v61.554l21.496 3.582a110.76 110.76 0 0 0 6.887 16.672l-12.649 17.711 43.512 43.531 17.723-12.656a111.401 111.401 0 0 0 16.672 6.88L97.215 440h61.562l3.575-21.496a111.401 111.401 0 0 0 16.671-6.879l3.2 2.285C198.153 461.535 243.09 496 296 496c63.473 0 115.45-49.559 119.594-112H496V80h-48zm-48-208h16v208h-.406c-1.242-18.695-6.739-36.215-15.594-51.61zm-64 40h16v69.953c-5.113-2.715-10.48-4.984-16-6.945zm-64 40h16v16.406c-5.426.364-10.793.953-16 2.02zm-96.36 155.266a95.19 95.19 0 0 1-22.449 9.27l-4.953 1.343L145.215 424h-34.438l-3.023-18.121-4.953-1.344c-7.906-2.144-15.457-5.262-22.45-9.27l-4.456-2.554-14.918 10.664-24.36-24.352 10.664-14.933-2.554-4.457a95.055 95.055 0 0 1-9.27-22.442l-1.336-4.953L16 329.223v-34.446l18.121-3.015 1.344-4.953c2.16-7.93 5.27-15.48 9.27-22.442l2.554-4.457-10.664-14.933 24.36-24.352 14.917 10.664 4.457-2.555a95.19 95.19 0 0 1 22.45-9.27l4.953-1.343L110.785 200h34.438l3.023 18.121 4.953 1.344c7.906 2.144 15.457 5.262 22.45 9.27l4.456 2.554 14.918-10.664 24.36 24.352-10.664 14.933 2.554 4.457c3.454 6.016 6.11 12.535 8.2 19.29-4.68 3.886-8.977 8.198-13.016 12.734C199.168 259.727 166.77 232 128 232c-44.113 0-80 35.887-80 80s35.887 80 80 80c17.473 0 34.281-5.91 48.008-16.215 0 .07-.008.145-.008.215 0 6.2.617 12.238 1.527 18.184zm16.16-78.555c-6.023 10.555-10.534 22.059-13.144 34.289-12.082 15.656-30.87 25-50.656 25-35.29 0-64-28.71-64-64s28.71-64 64-64 64 28.71 64 64c0 1.594-.09 3.152-.2 4.71zM296 480c-57.344 0-104-46.656-104-104s46.656-104 104-104 104 46.656 104 104-46.656 104-104 104zM464 96h16v272h-16zm0 0" fill="#02b5ff" opacity="1" data-original="#000000" class=""></path><path d="M448 0v16h17.191l-56.597 45.281L384 36.688l-37.719 37.718C343.152 72.902 339.695 72 336 72c-13.23 0-24 10.77-24 24 0 4.137 1.152 7.977 3 11.375l-41.816 46.465A23.875 23.875 0 0 0 264 152c-.152 0-.29.04-.441.047l-32.168-85.79C236.609 61.856 240 55.353 240 48c0-13.23-10.77-24-24-24s-24 10.77-24 24c0 1.727.2 3.406.55 5.04L126.97 93.39C122.855 90.07 117.688 88 112 88c-10.414 0-19.215 6.71-22.527 16H46.527C43.215 94.71 34.414 88 24 88 10.77 88 0 98.77 0 112s10.77 24 24 24c10.414 0 19.215-6.71 22.527-16H89.48c3.313 9.29 12.114 16 22.528 16 13.23 0 24-10.77 24-24 0-1.727-.2-3.406-.551-5.04l65.582-40.35C205.145 69.93 210.313 72 216 72c.152 0 .29-.04.441-.047l32.168 85.781C243.391 162.144 240 168.648 240 176c0 13.23 10.77 24 24 24s24-10.77 24-24c0-4.137-1.145-7.977-3-11.375l41.816-46.465A23.875 23.875 0 0 0 336 120c13.23 0 24-10.77 24-24 0-3.695-.902-7.152-2.406-10.281L384 59.313l23.406 23.406L480 24.649V48h16V0zM24 120c-4.414 0-8-3.594-8-8s3.586-8 8-8 8 3.594 8 8-3.586 8-8 8zm88 0c-4.414 0-8-3.594-8-8s3.586-8 8-8 8 3.594 8 8-3.586 8-8 8zm96-72c0-4.406 3.586-8 8-8s8 3.594 8 8-3.586 8-8 8-8-3.594-8-8zm56 136c-4.414 0-8-3.594-8-8s3.586-8 8-8 8 3.594 8 8-3.586 8-8 8zm72-80c-4.414 0-8-3.594-8-8s3.586-8 8-8 8 3.594 8 8-3.586 8-8 8zm0 0" fill="#02b5ff" opacity="1" data-original="#000000" class=""></path></g></svg>