<svg xmlns="http://www.w3.org/2000/svg" version="1.1" xmlns:xlink="http://www.w3.org/1999/xlink" width="512" height="512" x="0" y="0" viewBox="0 0 500 500" style="enable-background:new 0 0 512 512" xml:space="preserve" class=""><g><path fill-rule="evenodd" d="M271.382 245.326c-12.487 12.5-32.739 12.504-45.248.001-12.516-12.509-12.517-32.75-.001-45.26 12.49-12.484 32.769-12.485 45.248-.001 12.476 12.476 12.489 32.783.001 45.26zm-54.953-54.951c-17.86 17.85-17.865 46.796.002 64.649 17.861 17.848 46.788 17.854 64.655-.002 17.824-17.825 17.823-46.825-.002-64.649-17.824-17.823-46.831-17.822-64.655.002zm204.28 199.292v-1.756c0-13.735-7.498-25.754-18.616-32.189 13.064-15.668 1.907-39.669-18.582-39.668-20.471 0-31.635 23.999-18.568 39.669-11.119 6.435-18.609 18.455-18.609 32.189v1.756c-7.509-8.646-12.06-19.903-12.061-32.217-.001-27.147 22.091-49.24 49.238-49.24 27.158-.001 49.251 22.091 49.252 49.238 0 12.314-4.551 23.571-12.054 32.218zM373.04 340.25c0 5.776 4.696 10.471 10.472 10.471 5.787 0 10.483-4.696 10.483-10.472s-4.696-10.489-10.483-10.489c-5.776 0-10.472 4.714-10.472 10.49zm-13 60.473c14.583 7.961 32.38 7.957 46.958-.001v-12.811c0-12.938-10.53-23.479-23.485-23.478-12.938 0-23.473 10.541-23.473 23.479zm-61.643-119.576 8.808-8.82-6.123-12.02a6.86 6.86 0 0 1 .208-6.602 60.507 60.507 0 0 0 6.538-15.791 6.863 6.863 0 0 1 4.522-4.817l12.834-4.171v-12.464l-12.834-4.17a6.886 6.886 0 0 1-4.523-4.817 60.465 60.465 0 0 0-6.539-15.797 6.87 6.87 0 0 1-.208-6.608l6.117-12.031-8.803-8.796-12.019 6.122a6.827 6.827 0 0 1-6.602-.214 61.115 61.115 0 0 0-15.791-6.532 6.825 6.825 0 0 1-4.817-4.517l-4.17-12.834h-12.464l-4.181 12.834a6.872 6.872 0 0 1-4.817 4.528 60.494 60.494 0 0 0-15.791 6.533 6.858 6.858 0 0 1-6.602.202l-12.02-6.122-8.802 8.797 6.117 12.042a6.848 6.848 0 0 1-.214 6.596 60.823 60.823 0 0 0-6.532 15.797 6.86 6.86 0 0 1-4.522 4.817l-12.834 4.171v12.464l12.834 4.17a6.866 6.866 0 0 1 4.523 4.817 60.616 60.616 0 0 0 6.533 15.791 6.88 6.88 0 0 1 .214 6.613l-6.122 12.008 8.809 8.819 12.019-6.123a6.843 6.843 0 0 1 6.602.208 60.713 60.713 0 0 0 15.791 6.538 6.817 6.817 0 0 1 4.817 4.511l4.182 12.846h12.464l4.17-12.846a6.808 6.808 0 0 1 4.817-4.511 60.922 60.922 0 0 0 15.791-6.538 6.842 6.842 0 0 1 6.602-.208zm-76.465-173.782.001 45.618a73.66 73.66 0 0 0-7.826 3.506l-13.198-6.723a6.854 6.854 0 0 0-7.959 1.259l-2.634 2.634-.001-46.294zm85.262-39.492.002 85.783-2.634-2.634a6.871 6.871 0 0 0-7.959-1.259l-13.198 6.723a74.408 74.408 0 0 0-7.82-3.506l-.002-85.107zm-9.186 345.403c0 12.308-4.551 23.571-12.059 32.218v-1.756c0-13.747-7.492-25.76-18.611-32.2 13.073-15.683 1.887-39.663-18.57-39.662-20.501 0-31.636 24.009-18.586 39.663-11.113 6.44-18.609 18.454-18.609 32.201v1.756c-7.503-8.646-12.055-19.909-12.055-32.217-.001-27.158 22.091-49.246 49.249-49.246 27.146-.002 49.24 22.085 49.241 49.243zm-59.724-17.205c0 5.776 4.696 10.477 10.483 10.477 5.776 0 10.472-4.702 10.471-10.477 0-5.782-4.696-10.483-10.472-10.483-5.786-.001-10.482 4.701-10.482 10.483zm-12.999 60.474a49.12 49.12 0 0 0 46.958-.001v-12.805c0-12.95-10.536-23.479-23.474-23.478-12.955 0-23.484 10.53-23.484 23.479zm-71.617-66.479v-1.75c0-13.752-7.503-25.76-18.616-32.206 13.029-15.585 1.958-39.657-18.576-39.657-20.491 0-31.635 24.011-18.574 39.658-11.113 6.446-18.615 18.454-18.615 32.206v1.75c-7.497-8.646-12.049-19.903-12.049-32.217-.001-27.158 22.091-49.24 49.238-49.241 27.158-.001 49.24 22.08 49.24 49.238 0 12.315-4.551 23.573-12.048 32.219zm-47.67-49.417c0 5.776 4.702 10.471 10.478 10.471s10.472-4.696 10.472-10.472c0-5.788-4.696-10.489-10.472-10.489-5.776.001-10.478 4.703-10.478 10.49zm-13.005 60.474a49.174 49.174 0 0 0 46.964-.001v-12.805c0-12.955-10.536-23.484-23.48-23.484s-23.484 10.53-23.484 23.485zm290.518-106.624c-14.89 0-28.579 5.211-39.368 13.886l-26.801-26.799 3.084-3.079a6.855 6.855 0 0 0 1.259-7.965l-6.729-13.203a73.441 73.441 0 0 0 5.1-12.332l14.105-4.581a6.846 6.846 0 0 0 4.736-6.515l-.001-22.434a6.845 6.845 0 0 0-4.736-6.515l-13.256-4.308-.001-24.276.78-1.536c1.236-2.42.895-5.308-.78-7.393L320.9 61.017c0-3.783-3.067-6.856-6.85-6.856l-45.318.001a6.85 6.85 0 0 0-6.856 6.856l.002 71.829a6.593 6.593 0 0 0-1.906-.289l-22.428.001c-.658 0-1.3.104-1.9.289l-.001-32.345c0-3.783-3.073-6.85-6.856-6.85l-45.329.001c-3.783 0-6.856 3.067-6.856 6.85l.002 66.948a6.835 6.835 0 0 0-.774 7.393l.774 1.536.001 24.276-13.25 4.309a6.846 6.846 0 0 0-4.736 6.515l.001 22.434a6.845 6.845 0 0 0 4.736 6.515l14.105 4.58a73.801 73.801 0 0 0 5.095 12.337l-6.723 13.198a6.856 6.856 0 0 0 1.259 7.965l4.517 4.511-25.76 25.761c-10.795-8.681-24.484-13.885-39.374-13.884-34.719.001-62.95 28.24-62.949 62.953.001 34.707 28.234 62.95 62.953 62.95 34.713-.001 62.951-28.245 62.95-62.953 0-14.89-5.216-28.585-13.886-39.374l25.754-25.761 1.658 1.652a6.855 6.855 0 0 0 7.959 1.265l13.198-6.729a74.823 74.823 0 0 0 12.331 5.1l4.581 14.093a6.882 6.882 0 0 0 6.527 4.748h4.361l.001 37.861c-31.501 3.426-56.106 30.18-56.105 62.577.001 34.701 28.246 62.945 62.964 62.944 34.701-.001 62.951-28.245 62.95-62.947-.001-32.397-24.601-59.15-56.097-62.575l-.001-37.861h4.355c2.963 0 5.597-1.923 6.521-4.748L271.08 294a74.66 74.66 0 0 0 12.331-5.1l13.198 6.729a6.855 6.855 0 0 0 7.959-1.265l3.079-3.079 26.801 26.794c-8.675 10.79-13.884 24.484-13.884 39.375.001 34.713 28.251 62.95 62.953 62.949 34.719-.001 62.962-28.24 62.961-62.953-.004-34.715-28.249-62.952-62.967-62.951zM136.664 164.53l.001 54.495-31.611.001-.001-54.495zm-38.466 68.203a6.85 6.85 0 0 1-6.85-6.85l-.002-68.207a6.848 6.848 0 0 1 6.85-6.856l45.318-.001a6.856 6.856 0 0 1 6.856 6.856l.002 68.207a6.851 6.851 0 0 1-6.856 6.85zM360.845 37.467l31.605-.001.004 181.553-31.605.001zm-6.851 195.26c-3.783 0-6.856-3.067-6.856-6.85l-.005-195.224a6.858 6.858 0 0 1 6.856-6.874l45.318-.001a6.849 6.849 0 0 1 6.856 6.873l.005 195.224a6.848 6.848 0 0 1-6.856 6.85z" clip-rule="evenodd" fill="#02b5ff" opacity="1" data-original="#000000" class=""></path></g></svg>