<svg width="60" height="60" viewBox="0 0 60 60" fill="none" xmlns="http://www.w3.org/2000/svg">
<g clip-path="url(#clip0_55615_39031)">
<path d="M31.1719 47.5781C31.1719 48.2254 30.6473 48.75 30 48.75C29.3527 48.75 28.8281 48.2254 28.8281 47.5781C28.8281 46.9308 29.3527 46.4062 30 46.4062C30.6473 46.4062 31.1719 46.9308 31.1719 47.5781Z" fill="#00B5FF"/>
<path d="M56.1328 37.0312C56.1328 33.154 52.9788 30 49.1016 30C45.2243 30 42.0703 33.154 42.0703 37.0312C42.0703 40.9085 45.2243 44.0625 49.1016 44.0625C52.9788 44.0625 56.1328 40.9085 56.1328 37.0312ZM49.1016 41.7188C46.517 41.7188 44.4141 39.6158 44.4141 37.0312C44.4141 34.4467 46.517 32.3438 49.1016 32.3438C51.6861 32.3438 53.7891 34.4467 53.7891 37.0312C53.7891 39.6158 51.6861 41.7188 49.1016 41.7188Z" fill="#00B5FF"/>
<path d="M49.1016 44.0625C46.1485 44.0625 43.2037 45.2884 41.1978 47.276C38.5574 43.8062 34.4861 41.7188 30 41.7188C25.7039 41.7188 21.541 43.6789 18.8026 47.276C16.7963 45.2888 13.8519 44.0625 10.8984 44.0625C4.991 44.0625 0 48.8924 0 54.6094V56.9531C0 57.6004 0.524597 58.125 1.17188 58.125H58.8281C59.4754 58.125 60 57.6004 60 56.9531V54.6094C60 48.8924 55.009 44.0625 49.1016 44.0625ZM2.34375 54.6094C2.34375 50.1627 6.26129 46.4062 10.8984 46.4062C13.4358 46.4062 15.9521 47.5305 17.5099 49.3176C16.4799 51.3071 15.9375 53.5245 15.9375 55.7812H2.34375V54.6094ZM30 44.0625C36.5208 44.0625 41.7188 49.3533 41.7188 55.7812H18.2812C18.2812 49.2677 23.5854 44.0625 30 44.0625ZM57.6562 55.7812H44.0625C44.0625 53.5245 43.5201 51.3071 42.4901 49.3176C44.0479 47.5305 46.5642 46.4062 49.1016 46.4062C53.7387 46.4062 57.6562 50.1627 57.6562 54.6094V55.7812Z" fill="#00B5FF"/>
<path d="M17.9297 37.0312C17.9297 33.154 14.7757 30 10.8984 30C7.02118 30 3.86719 33.154 3.86719 37.0312C3.86719 40.9085 7.02118 44.0625 10.8984 44.0625C14.7757 44.0625 17.9297 40.9085 17.9297 37.0312ZM10.8984 41.7188C8.3139 41.7188 6.21094 39.6158 6.21094 37.0312C6.21094 34.4467 8.3139 32.3438 10.8984 32.3438C13.483 32.3438 15.5859 34.4467 15.5859 37.0312C15.5859 39.6158 13.483 41.7188 10.8984 41.7188Z" fill="#00B5FF"/>
<path d="M39.375 32.3438C39.375 27.1742 35.1695 22.9688 30 22.9688C24.8305 22.9688 20.625 27.1742 20.625 32.3438C20.625 37.5133 24.8305 41.7188 30 41.7188C35.1695 41.7188 39.375 37.5133 39.375 32.3438ZM30 39.375C26.1227 39.375 22.9688 36.221 22.9688 32.3438C22.9688 28.4665 26.1227 25.3125 30 25.3125C33.8773 25.3125 37.0312 28.4665 37.0312 32.3438C37.0312 36.221 33.8773 39.375 30 39.375Z" fill="#00B5FF"/>
<path d="M39.2742 8.69064C39.1364 8.2663 38.7697 7.95731 38.328 7.89322L33.2733 7.15942L31.0102 2.53235C30.8138 2.12997 30.4054 1.875 29.9578 1.875C29.5101 1.875 29.1017 2.12997 28.9049 2.53189L26.6422 7.15942L21.5875 7.89276C21.1458 7.95685 20.7791 8.2663 20.6413 8.69064C20.5036 9.11499 20.6185 9.58054 20.938 9.89182L24.5983 13.4592L23.7345 18.4969C23.6589 18.9363 23.8397 19.3808 24.2009 19.6426C24.5598 19.9036 25.0377 19.9406 25.435 19.7319L29.9578 17.3538L34.4823 19.7319C34.8769 19.9397 35.3552 19.9049 35.7164 19.6426C36.0771 19.3803 36.258 18.9363 36.1824 18.4964L35.3177 13.4592L38.9775 9.89182C39.2971 9.58054 39.4119 9.11499 39.2742 8.69064ZM33.2399 12.2108C32.9639 12.48 32.8375 12.8682 32.903 13.2481L33.4702 16.5527L30.503 14.9927C30.1615 14.8132 29.7536 14.8132 29.4121 14.9927L26.4458 16.5527L27.0125 13.2481C27.0775 12.8677 26.9512 12.48 26.6751 12.2108L24.2746 9.87122L27.5911 9.38965C27.9747 9.33426 28.3057 9.09256 28.4755 8.74466L29.9578 5.71426L31.4395 8.74466C31.6098 9.09302 31.9408 9.33426 32.3239 9.38965L35.6409 9.87122L33.2399 12.2108Z" fill="#00B5FF"/>
<path d="M56.7902 17.4738C56.6524 17.0494 56.2858 16.7404 55.844 16.6763L52.4195 16.1787L50.8883 13.0751C50.691 12.675 50.284 12.4219 49.8377 12.4219C49.8377 12.4219 49.8377 12.4219 49.8373 12.4219C49.3914 12.4219 48.984 12.675 48.7867 13.0751L47.2546 16.1787L43.8296 16.6763C43.3883 16.7404 43.0216 17.0494 42.8838 17.4738C42.7456 17.8981 42.8605 18.3636 43.18 18.6749L45.6579 21.0915L45.0728 24.5018C44.9978 24.9413 45.1781 25.3853 45.5393 25.6476C45.9 25.9099 46.3784 25.9447 46.773 25.7373L49.8373 24.1274L52.9006 25.7373C53.2952 25.9447 53.774 25.9099 54.1347 25.6476C54.4955 25.3857 54.6758 24.9413 54.6007 24.5018L54.0157 21.0915L56.4941 18.6749C56.8136 18.3636 56.928 17.8981 56.7902 17.4738ZM51.9388 19.8436C51.6624 20.1128 51.5365 20.5005 51.6019 20.8804L51.8894 22.5577L50.3829 21.7662C50.0414 21.5868 49.6335 21.5868 49.2925 21.7662L47.7846 22.5581L48.0726 20.8804C48.1376 20.5005 48.0117 20.1128 47.7357 19.8436L46.5162 18.6543L48.2012 18.4099C48.583 18.3545 48.913 18.1146 49.0838 17.769L49.8373 16.2424L50.5903 17.7686C50.761 18.1146 51.0911 18.3545 51.4728 18.4099L53.1579 18.6543L51.9388 19.8436Z" fill="#00B5FF"/>
<path d="M16.9465 17.4738C16.8087 17.0494 16.442 16.7404 16.0003 16.6763L12.5757 16.1787L11.0445 13.0751C10.8472 12.675 10.4403 12.4219 9.99396 12.4219C9.54764 12.4219 9.14023 12.675 8.94294 13.0751L7.4108 16.1787L3.98581 16.6763C3.54453 16.7404 3.17786 17.0494 3.04007 17.4738C2.90183 17.8981 3.01673 18.3636 3.33625 18.6749L5.81412 21.0915L5.22956 24.5018C5.15403 24.9413 5.33484 25.3853 5.69556 25.6476C6.05628 25.9099 6.53464 25.9447 6.92969 25.7373L9.9935 24.1274L13.0569 25.7373C13.4542 25.946 13.9321 25.9085 14.291 25.6476C14.6517 25.3857 14.8325 24.9413 14.757 24.5018L14.172 21.0915L16.6503 18.6749C16.9698 18.3636 17.0843 17.8981 16.9465 17.4738ZM12.0946 19.8436C11.8186 20.1128 11.6927 20.5005 11.7577 20.8804L12.0457 22.5577L10.5387 21.7662C10.1977 21.5868 9.7898 21.5868 9.44876 21.7662L7.94043 22.5581L8.22837 20.8804C8.29383 20.5005 8.16748 20.1128 7.89145 19.8436L6.67197 18.6543L8.35746 18.4099C8.73877 18.3545 9.06882 18.1146 9.23957 17.769L9.99305 16.2424L10.7461 17.7686C10.9168 18.1146 11.2469 18.3545 11.6286 18.4099L13.3137 18.6543L12.0946 19.8436Z" fill="#00B5FF"/>
<path d="M35.1358 47.9408C34.5948 47.5851 33.8683 47.7357 33.5131 48.2768C33.1574 48.8174 33.308 49.5439 33.8491 49.8996C34.9326 50.6114 35.7987 51.6038 36.3535 52.7693C36.6309 53.3529 37.3294 53.6024 37.9149 53.3236C38.4995 53.0458 38.7476 52.3463 38.4697 51.7622C37.7309 50.2095 36.5778 48.8879 35.1358 47.9408Z" fill="#00B5FF"/>
</g>
<defs>
<clipPath id="clip0_55615_39031">
<rect width="60" height="60" fill="white"/>
</clipPath>
</defs>
</svg>
