<?xml version="1.0" encoding="UTF-8"?>
<svg xmlns="http://www.w3.org/2000/svg" viewBox="0 0 64 64" width="512" height="512"><path d="M58.09961,25.2002H56.71a25.44468,25.44468,0,0,0-2.43164-5.86231l.98535-.98535a3.91712,3.91712,0,0,0,0-5.51465L51.16211,8.73633a3.994,3.994,0,0,0-5.51465,0l-.98535.98535A25.44468,25.44468,0,0,0,38.7998,7.29V5.90039A3.90435,3.90435,0,0,0,34.90039,2H29.09961A3.90435,3.90435,0,0,0,25.2002,5.90039V7.29a25.44468,25.44468,0,0,0-5.86231,2.43164l-.98535-.98535a3.994,3.994,0,0,0-5.51465,0L8.73633,12.83789a3.91712,3.91712,0,0,0,0,5.51465l.98531.98535A25.44468,25.44468,0,0,0,7.29,25.2002H5.90039A3.90435,3.90435,0,0,0,2,29.09961v5.80078A3.90435,3.90435,0,0,0,5.90039,38.7998H7.29a25.44468,25.44468,0,0,0,2.43164,5.86231l-.98535.98535a3.91712,3.91712,0,0,0,0,5.51465l4.10152,4.10156a3.994,3.994,0,0,0,5.51465,0l.98535-.98535A25.44468,25.44468,0,0,0,25.2002,56.71v1.38965A3.90435,3.90435,0,0,0,29.09961,62h5.80078a3.90435,3.90435,0,0,0,3.89941-3.90039V56.71a25.44468,25.44468,0,0,0,5.86231-2.43164l.98535.98535a3.994,3.994,0,0,0,5.51465,0l4.10156-4.10156a3.91712,3.91712,0,0,0,0-5.51465l-.98531-.98535A25.44468,25.44468,0,0,0,56.71,38.7998h1.38965A3.90435,3.90435,0,0,0,62,34.90039V29.09961A3.90435,3.90435,0,0,0,58.09961,25.2002ZM60,34.90039a1.90236,1.90236,0,0,1-1.90039,1.89941H55.93555a.99974.99974,0,0,0-.97168.76465,23.46089,23.46089,0,0,1-2.794,6.73535,1.00015,1.00015,0,0,0,.14649,1.22852l1.5332,1.5332a1.908,1.908,0,0,1,0,2.68652l-4.10154,4.10157a1.94314,1.94314,0,0,1-2.68653,0l-1.5332-1.5332a.99913.99913,0,0,0-1.22852-.14649,23.46089,23.46089,0,0,1-6.73535,2.794.99974.99974,0,0,0-.76465.97168v2.16406A1.90236,1.90236,0,0,1,34.90039,60H29.09961a1.90236,1.90236,0,0,1-1.89941-1.90039V55.93555a.99974.99974,0,0,0-.76465-.97168,23.46089,23.46089,0,0,1-6.73535-2.794,1.00017,1.00017,0,0,0-1.22852.14649l-1.5332,1.5332a1.94314,1.94314,0,0,1-2.68653,0l-4.10156-4.10156a1.90785,1.90785,0,0,1,0-2.68653l1.53318-1.5332a1.00015,1.00015,0,0,0,.14649-1.22852,23.46089,23.46089,0,0,1-2.794-6.73535.99974.99974,0,0,0-.97168-.76465H5.90039A1.90236,1.90236,0,0,1,4,34.90039V29.09961A1.90236,1.90236,0,0,1,5.90039,27.2002H8.06445a.99974.99974,0,0,0,.97168-.76465,23.46089,23.46089,0,0,1,2.794-6.73535,1.00015,1.00015,0,0,0-.14649-1.22852l-1.5332-1.5332a1.908,1.908,0,0,1,0-2.68652L14.252,10.15039a1.94218,1.94218,0,0,1,2.68653,0l1.5332,1.5332a1.00029,1.00029,0,0,0,1.22852.14649,23.46089,23.46089,0,0,1,6.73535-2.794.99974.99974,0,0,0,.76465-.97168V5.90039A1.90236,1.90236,0,0,1,29.09961,4h5.80078A1.90236,1.90236,0,0,1,36.7998,5.90039V8.06445a.99974.99974,0,0,0,.76465.97168,23.46089,23.46089,0,0,1,6.73535,2.794,1.00045,1.00045,0,0,0,1.22852-.14649l1.5332-1.5332a1.94218,1.94218,0,0,1,2.68653,0L53.84961,14.252a1.908,1.908,0,0,1,0,2.68653l-1.53318,1.5332a1.00015,1.00015,0,0,0-.14649,1.22852,23.46089,23.46089,0,0,1,2.794,6.73535.99974.99974,0,0,0,.97168.76465h2.16406A1.90236,1.90236,0,0,1,60,29.09961Z"/><path d="M32,12A20.02229,20.02229,0,0,0,12,32c1.09819,26.5328,38.90585,26.52508,40-.00015A20.02232,20.02232,0,0,0,32,12Zm0,38A18.02094,18.02094,0,0,1,14,32c.98936-23.87935,35.01428-23.87239,36,.00014A18.021,18.021,0,0,1,32,50Z"/><path d="M32,16A16.01833,16.01833,0,0,0,16,32a1.0001,1.0001,0,0,0,2,0,13.89838,13.89838,0,0,1,1.8512-6.92916.99237.99237,0,0,0,.39,1.29541l.86621.5a1.00016,1.00016,0,0,0,1-1.73242l-.86621-.5a.99165.99165,0,0,0-1.3045.29639,14.08248,14.08248,0,0,1,4.993-4.99317.9907.9907,0,0,0-.2959,1.3042l.5.86621a1.00016,1.00016,0,1,0,1.73242-1l-.5-.86621a.99339.99339,0,0,0-1.29523-.39014,14.02952,14.02952,0,0,1,13.85816.00007.99276.99276,0,0,0-1.29535.39007l-.5.86621a1.00016,1.00016,0,0,0,1.73242,1l.5-.86621a.9907.9907,0,0,0-.2959-1.3042,14.08319,14.08319,0,0,1,4.99335,4.99372.99221.99221,0,0,0-1.30487-.29694l-.86621.5a1.00016,1.00016,0,1,0,1,1.73242l.86621-.5a.99237.99237,0,0,0,.39-1.29541A13.89841,13.89841,0,0,1,46,32a1.0001,1.0001,0,0,0,2,0A16.01832,16.01832,0,0,0,32,16Z"/><path d="M34.45551,31.67139l-1.46918-8.83545a.99986.99986,0,0,0-1.97266,0l-1.46918,8.83545a4.98747,4.98747,0,1,0,4.911,0ZM32,29.09668l.322,1.93585a1.90307,1.90307,0,0,0-.644,0ZM32,39a3.00019,3.00019,0,0,1,.00009-6A3.00019,3.00019,0,0,1,32,39Z"/><path d="M31,19v1a1.0001,1.0001,0,0,0,2,0V19A1.0001,1.0001,0,0,0,31,19Z"/><path d="M45,31H44a1.0001,1.0001,0,0,0,0,2h1A1.0001,1.0001,0,0,0,45,31Z"/><path d="M19,33h1a1.0001,1.0001,0,0,0,0-2H19A1.0001,1.0001,0,0,0,19,33Z"/><path d="M36,45H28a1.0001,1.0001,0,0,0,0,2h8A1.0001,1.0001,0,0,0,36,45Z"/></svg>
