<?xml version="1.0" encoding="UTF-8"?>
<svg id="Capa_1" data-name="Capa 1" xmlns="http://www.w3.org/2000/svg" version="1.1" viewBox="0 0 512 512">
  <defs>
    <style>
      .cls-1 {
        fill: #02b5ff;
        stroke-width: 0px;
      }
    </style>
  </defs>
  <path class="cls-1" d="M187.1,329.5c-.9-2.1-2.5-3.7-4.6-4.6-1-.4-2.1-.7-3.3-.7h-102.4c-4.7,0-8.5,3.8-8.5,8.5s3.8,8.5,8.5,8.5h81.8L2.5,497.4c-3.3,3.3-3.3,8.7,0,12.1,1.7,1.7,3.8,2.5,6,2.5s4.4-.8,6-2.5l156.1-156.1v90.3c0,4.7,3.8,8.5,8.5,8.5s8.5-3.8,8.5-8.5v-110.9c0-1.1-.2-2.2-.7-3.3h.2Z"/>
  <path class="cls-1" d="M509.5,2.5c-3.3-3.3-8.7-3.3-12.1,0l-156.1,156.1v-90.3c0-4.7-3.8-8.5-8.5-8.5s-8.5,3.8-8.5,8.5v110.9c0,1.1.2,2.2.7,3.3.9,2.1,2.5,3.7,4.6,4.6,1,.4,2.1.7,3.3.7h102.4c4.7,0,8.5-3.8,8.5-8.5s-3.8-8.5-8.5-8.5h-81.8L509.5,14.6c3.3-3.3,3.3-8.7,0-12.1Z"/>
  <path class="cls-1" d="M256,187.7c-37.6,0-68.3,30.6-68.3,68.3s30.6,68.3,68.3,68.3,68.3-30.6,68.3-68.3-30.6-68.3-68.3-68.3h0Z"/>
  <path class="cls-1" d="M179.2,68.3c-4.7,0-8.5,3.8-8.5,8.5v81.8L14.6,2.5C11.2-.8,5.8-.8,2.5,2.5-.8,5.8-.8,11.2,2.5,14.6l156.1,156.1h-90.3c-4.7,0-8.5,3.8-8.5,8.5s3.8,8.5,8.5,8.5h110.9c1.1,0,2.2-.2,3.3-.7,2.1-.9,3.7-2.5,4.6-4.6.4-1,.7-2.1.7-3.3v-102.4c0-4.7-3.8-8.5-8.5-8.5h-.1Z"/>
  <path class="cls-1" d="M509.5,497.4l-156.1-156.1h90.3c4.7,0,8.5-3.8,8.5-8.5s-3.8-8.5-8.5-8.5h-110.9c-1.1,0-2.2.2-3.3.7-2.1.9-3.7,2.5-4.6,4.6-.4,1-.7,2.1-.7,3.3v102.4c0,4.7,3.8,8.5,8.5,8.5s8.5-3.8,8.5-8.5v-81.8l156.1,156.1c1.7,1.7,3.8,2.5,6,2.5s4.4-.8,6-2.5c3.3-3.3,3.3-8.7,0-12.1h.2Z"/>
</svg>