<?xml version="1.0" encoding="UTF-8"?>
<svg id="Layer_1" data-name="Layer 1" xmlns="http://www.w3.org/2000/svg" version="1.1" viewBox="0 0 512 512">
  <defs>
    <style>
      .cls-1 {
        fill: #02b5ff;
        stroke-width: 0px;
      }
    </style>
  </defs>
  <path class="cls-1" d="M145.1,170.7c-47.1,0-85.3,38.2-85.3,85.3s38.2,85.3,85.3,85.3,85.3-38.2,85.3-85.3c0-47.1-38.2-85.3-85.3-85.3ZM145.1,324.3c-37.7,0-68.3-30.6-68.3-68.3s30.6-68.3,68.3-68.3,68.3,30.6,68.3,68.3c0,37.7-30.6,68.2-68.3,68.3Z"/>
  <path class="cls-1" d="M145.1,204.8c-28.3,0-51.2,22.9-51.2,51.2s22.9,51.2,51.2,51.2,51.2-22.9,51.2-51.2c0-28.3-22.9-51.2-51.2-51.2ZM145.1,290.1c-18.9,0-34.1-15.3-34.1-34.1s15.3-34.1,34.1-34.1,34.1,15.3,34.1,34.1-15.3,34.1-34.1,34.1Z"/>
  <path class="cls-1" d="M486.4,0h-102.4c-14.1,0-25.6,11.5-25.6,25.6v42.7h-17.1c-14.1,0-25.6,11.5-25.6,25.6v153.6h-26c0-1.3,0-2.6-.2-3.9-.6-6.2-4.6-11.5-10.4-13.7l-18-7.2c-2.5-8.7-6-17.2-10.4-25.1l7.7-17.9c2.5-5.7,1.6-12.3-2.4-17.1-5.3-6.4-11.2-12.3-17.6-17.6-4.8-3.9-11.3-4.9-17-2.4l-17.9,7.7c-7.9-4.4-16.4-7.9-25.1-10.4l-7.2-18.1c-2.3-5.8-7.6-9.8-13.7-10.3-8.3-.7-16.6-.7-24.9,0-6.2.6-11.5,4.6-13.7,10.4l-7.2,18c-8.7,2.5-17.2,6-25.1,10.4l-17.9-7.7c-5.7-2.5-12.3-1.6-17.1,2.4-6.4,5.3-12.3,11.2-17.6,17.6-3.9,4.8-4.9,11.3-2.4,17l7.7,17.9c-4.4,7.9-7.9,16.4-10.4,25.1l-18.1,7.2c-5.7,2.3-9.7,7.6-10.3,13.8-.4,4.1-.5,8.3-.5,12.5s.2,8.3.5,12.4c.6,6.2,4.6,11.5,10.4,13.7l18,7.2c2.5,8.7,6,17.2,10.4,25.1l-7.7,17.9c-2.5,5.7-1.6,12.3,2.4,17.1,5.3,6.4,11.2,12.3,17.6,17.6,4.8,3.9,11.3,4.9,17,2.4l17.9-7.7c7.9,4.4,16.4,7.9,25.1,10.4l7.2,18.1c2.3,5.8,7.6,9.8,13.7,10.3,4.1.4,8.3.5,12.5.5s8.3-.2,12.4-.5c6.2-.6,11.5-4.6,13.7-10.4l7.2-18c8.7-2.5,17.2-6,25.1-10.4l17.9,7.7c5.7,2.5,12.3,1.6,17.1-2.4,6.4-5.3,12.3-11.2,17.6-17.6,3.9-4.8,4.9-11.3,2.4-17l-7.7-17.9c4.4-7.9,7.9-16.4,10.4-25.1l18-7.2c5.8-2.3,9.8-7.6,10.3-13.7.1-1.3,0-2.6.2-3.9h25.9v153.6c0,14.1,11.5,25.6,25.6,25.6h17.1v42.7c0,14.1,11.5,25.6,25.6,25.6h102.4c14.1,0,25.6-11.5,25.6-25.6v-102.4c0-14.1-11.5-25.6-25.6-25.6h-102.4c-14.1,0-25.6,11.5-25.6,25.6v42.7h-17.1c-4.7,0-8.5-3.8-8.5-8.5v-153.6h25.6v42.7c0,14.1,11.5,25.6,25.6,25.6h102.4c14.1,0,25.6-11.5,25.6-25.6v-102.4c0-14.1-11.5-25.6-25.6-25.6h-102.4c-14.1,0-25.6,11.5-25.6,25.6v42.7h-25.6V93.9c0-4.7,3.8-8.5,8.5-8.5h17.1v42.7c0,14.1,11.5,25.6,25.6,25.6h102.4c14.1,0,25.6-11.5,25.6-25.6V25.6c0-14.1-11.5-25.6-25.6-25.6ZM272.6,266.4l-21.8,8.7c-2.6,1-4.5,3.2-5.1,5.9-2.5,10-6.5,19.6-11.8,28.5-1.4,2.4-1.6,5.2-.5,7.8l9.5,21.2c-2.3,2.8-4.8,5.5-7.4,8s-5.3,5.1-7.4,7.2l-21.8-9.4c-2.5-1.1-5.4-.9-7.8.5-8.8,5.3-18.4,9.3-28.5,11.8-2.7.7-4.9,2.6-5.9,5.1l-8.2,21.7c-7.2.7-15.2.3-21.2.3l-8.8-22c-1-2.6-3.2-4.5-5.9-5.1-10-2.5-19.6-6.5-28.5-11.8-2.4-1.4-5.2-1.6-7.8-.5l-21.2,9.6c-2.8-2.3-5.5-4.8-8-7.4s-5.1-5.3-7.2-7.4l9.4-21.8c1.1-2.5.9-5.4-.5-7.8-5.3-8.9-9.3-18.5-11.8-28.5-.7-2.7-2.6-4.9-5.1-5.9l-21.7-8.2c-.3-3.6-.5-7.2-.5-10.9s.2-7.3.2-10.3l22-8.8c2.6-1,4.5-3.2,5.1-5.9,2.5-10,6.5-19.6,11.8-28.5,1.4-2.4,1.6-5.2.5-7.8l-9.6-21.2c2.3-2.8,4.8-5.5,7.4-8s5.3-5.1,7.4-7.2l21.8,9.4c2.5,1.1,5.4.9,7.8-.5,8.9-5.3,18.5-9.3,28.5-11.8,2.7-.7,4.9-2.6,5.9-5.1l8.2-21.7c7.2-.7,15.2-.3,21.2-.3l8.8,22c1,2.6,3.2,4.5,5.9,5.1,10,2.5,19.6,6.5,28.5,11.8,2.4,1.4,5.2,1.6,7.8.5l21.2-9.5c2.8,2.3,5.5,4.8,8,7.4s5.1,5.3,7.2,7.4l-9.4,21.8c-1.1,2.5-.9,5.4.5,7.8,5.3,8.8,9.3,18.4,11.8,28.5.7,2.7,2.6,4.9,5.1,5.9l21.7,8.2c.3,3.6.5,7.2.5,10.9,0,3.5-.1,7-.4,10.4h0ZM375.5,384c0-4.7,3.8-8.5,8.5-8.5h102.4c4.7,0,8.5,3.8,8.5,8.5v102.4c0,4.7-3.8,8.5-8.5,8.5h-102.4c-4.7,0-8.5-3.8-8.5-8.5v-102.4ZM375.5,204.8c0-4.7,3.8-8.5,8.5-8.5h102.4c4.7,0,8.5,3.8,8.5,8.5v102.4c0,4.7-3.8,8.5-8.5,8.5h-102.4c-4.7,0-8.5-3.8-8.5-8.5v-102.4ZM494.9,128c0,4.7-3.8,8.5-8.5,8.5h-102.4c-4.7,0-8.5-3.8-8.5-8.5V25.6c0-4.7,3.8-8.5,8.5-8.5h102.4c4.7,0,8.5,3.8,8.5,8.5v102.4Z"/>
  <path class="cls-1" d="M453.7,46.5l-28.4,42.5-9.7-9.7c-3.4-3.3-8.8-3.2-12.1.2-3.2,3.3-3.2,8.5,0,11.9l17.1,17.1c1.6,1.6,3.8,2.5,6,2.5.3,0,.6,0,.9,0,2.5-.3,4.8-1.6,6.3-3.8l34.1-51.2c2.6-3.9,1.6-9.2-2.4-11.8-3.9-2.6-9.2-1.6-11.8,2.4h0ZM420.6,287.6c1.6,1.6,3.8,2.5,6,2.5.3,0,.6,0,.9,0,2.5-.3,4.8-1.6,6.3-3.8l34.1-51.2c2.6-3.9,1.6-9.2-2.4-11.8s-9.2-1.6-11.8,2.4l-28.4,42.5-9.7-9.7c-3.4-3.3-8.8-3.2-12.1.2-3.2,3.3-3.2,8.5,0,11.9l17.1,17.1Z"/>
</svg>