<?xml version="1.0" encoding="UTF-8"?>
<svg id="Layer_1" data-name="Layer 1" xmlns="http://www.w3.org/2000/svg" version="1.1" viewBox="0 0 512 512">
  <defs>
    <style>
      .cls-1 {
        fill: #02b5ff;
        stroke-width: 0px;
      }
    </style>
  </defs>
  <path class="cls-1" d="M352,456h-16v-28.7l-29.7-29.7c-1.5-1.5-2.3-3.5-2.3-5.7v-64c0-13.3,10.7-24,24-24h8v-72c0-13.3,10.7-24,24-24s24,10.7,24,24v104h-16v-104c0-4.4-3.6-8-8-8s-8,3.6-8,8v80c0,4.4-3.6,8-8,8h-16c-4.4,0-8,3.6-8,8v60.7l29.7,29.7c1.5,1.5,2.3,3.5,2.3,5.7v32Z"/>
  <path class="cls-1" d="M384,336h-16v-48c0-13.3,10.7-24,24-24s24,10.7,24,24v16h-16v-16c0-4.4-3.6-8-8-8s-8,3.6-8,8v48Z"/>
  <path class="cls-1" d="M416,336h-16v-40c0-13.3,10.7-24,24-24s24,10.7,24,24v16h-16v-16c0-4.4-3.6-8-8-8s-8,3.6-8,8v40Z"/>
  <path class="cls-1" d="M464,456h-16v-32c0-1.6.5-3.1,1.3-4.4l14.7-22v-93.6c0-4.4-3.6-8-8-8s-8,3.6-8,8v32h-16v-32c0-13.3,10.7-24,24-24s24,10.7,24,24v96c0,1.6-.5,3.1-1.3,4.4l-14.7,22v29.6ZM336,312h16v64h-16v-64Z"/>
  <path class="cls-1" d="M472,512h-144c-4.4,0-8-3.6-8-8v-48c0-4.4,3.6-8,8-8h144c4.4,0,8,3.6,8,8v48c0,4.4-3.6,8-8,8ZM336,496h128v-32h-128v32Z"/>
  <path class="cls-1" d="M304,512H72c-13.3,0-24-10.7-24-24V72c0-2.1.8-4.2,2.3-5.7L114.3,2.3C115.8.8,117.9,0,120,0h288c13.3,0,24,10.7,24,24v24h-16v-24c0-4.4-3.6-8-8-8H123.3l-59.3,59.3v412.7c0,4.4,3.6,8,8,8h232v16Z"/>
  <path class="cls-1" d="M120,80H56v-16h56V8h16v64c0,4.4-3.6,8-8,8ZM240,192c-26.5,0-48-21.5-48-48v-16c0-4.4,3.6-8,8-8,8.3.5,15.5-5.8,16-14,0-.6,0-1.3,0-2,0-4.4,3.6-8,8-8s8,3.6,8,8c0,0,2.5,16,48,16s8,3.6,8,8v16c0,26.5-21.5,48-48,48ZM208,135v9c0,17.7,14.3,32,32,32s32-14.3,32-32v-8.2c-23.9-1-37.6-6.7-45.5-13-4.5,6.2-11.1,10.5-18.5,12.2Z"/>
  <path class="cls-1" d="M288,128h-16v-16c0-17.7-14.3-32-32-32s-32,14.3-32,32v16h-16v-16c0-26.5,21.5-48,48-48s48,21.5,48,48v16ZM240,216c-13.3,0-24-10.7-24-24v-11.3h16v11.3c0,4.4,3.6,8,8,8,2.1,0,4.1-.8,5.6-2.3,1.6-1.5,2.5-3.5,2.4-5.7v-11.3h16v11.3c0,13.2-10.8,23.9-24,24Z"/>
  <path class="cls-1" d="M240,320c-27.7,0-54.7-9-76.8-25.8-2-1.5-3.2-3.9-3.2-6.4v-71.8c0-3.2,1.9-6.1,4.8-7.4l56-24,6.3,14.7-51.2,21.9v62.5c38.4,27,89.6,27,128,0v-62.5l-51.2-21.9,6.3-14.7,56,24c2.9,1.3,4.8,4.2,4.8,7.4v71.8c0,2.5-1.2,4.9-3.2,6.4-22.1,16.8-49.1,25.8-76.8,25.8Z"/>
  <path class="cls-1" d="M232,208h16v104h-16v-104ZM120,336h16v16h-16v-16ZM152,336h136v16h-136v-16ZM104,368h184v16H104v-16ZM104,400h184v16H104v-16ZM408,232c-4.4,0-8-3.6-8-8v-24h-72c-13.3,0-24-10.7-24-24v-96c0-13.3,10.7-24,24-24h144c13.3,0,24,10.7,24,24v96c0,13.3-10.7,24-24,24h-28.7l-29.7,29.7c-1.5,1.5-3.5,2.3-5.7,2.3ZM328,72c-4.4,0-8,3.6-8,8v96c0,4.4,3.6,8,8,8h80c4.4,0,8,3.6,8,8v12.7l18.3-18.3c1.5-1.5,3.5-2.3,5.7-2.3h32c4.4,0,8-3.6,8-8v-96c0-4.4-3.6-8-8-8h-144Z"/>
  <path class="cls-1" d="M384,160c-2.1,0-4.2-.8-5.7-2.3l-16-16,11.3-11.3,10.3,10.3,42.3-42.3,11.3,11.3-48,48c-1.5,1.5-3.5,2.3-5.7,2.3Z"/>
</svg>