<svg width="60" height="60" viewBox="0 0 60 60" fill="none" xmlns="http://www.w3.org/2000/svg">
<g clip-path="url(#clip0_55572_38555)">
<path fill-rule="evenodd" clip-rule="evenodd" d="M47.5576 46.6078C44.6402 46.6078 42.25 44.2528 42.25 41.2651C42.25 38.3125 44.6402 35.9224 47.5576 35.9224C50.475 35.9224 52.9354 38.3125 52.9354 41.2651C52.9354 44.2528 50.5453 46.6078 47.5576 46.6078ZM47.5576 37.6798C45.5892 37.6798 43.9723 39.2616 43.9723 41.3002C43.9723 43.374 45.5892 44.9558 47.5576 44.9558C49.5611 44.9558 51.2131 43.374 51.2131 41.3002C51.2131 39.2616 49.5611 37.6798 47.5576 37.6798Z" fill="#00B5FF"/>
<path fill-rule="evenodd" clip-rule="evenodd" d="M49.6671 53.6378H45.4843C44.9922 53.6378 44.6056 53.2511 44.6056 52.759V50.7204C44.008 50.5095 43.4808 50.2634 42.9536 50.0174L41.5476 51.4585C41.1961 51.7748 40.6688 51.7748 40.3174 51.4585L37.3297 48.5411C37.1891 48.3654 37.0836 48.1193 37.0836 47.9436C37.0836 47.7327 37.1891 47.4866 37.3297 47.346L38.7708 45.94C38.4544 45.4128 38.2787 44.8153 38.0678 44.288H36.0291C35.537 44.288 35.1504 43.9014 35.1504 43.4093V39.2265C35.1504 38.7344 35.537 38.3478 36.0291 38.3478H38.1381C38.2787 37.8205 38.5247 37.223 38.8059 36.6958L37.3297 35.2195C37.1891 35.0789 37.0836 34.8328 37.0836 34.6571C37.0836 34.4462 37.1891 34.2001 37.3297 34.0596L40.3174 31.1422C40.6688 30.7907 41.1961 30.7907 41.5476 31.1422L42.9887 32.513C43.5159 32.1966 44.0783 31.9506 44.6407 31.81V29.8065C44.6407 29.3495 45.0274 28.9629 45.5195 28.9629H49.7022C50.1943 28.9629 50.581 29.3495 50.581 29.8065V31.8803C51.1785 32.056 51.7058 32.3021 52.233 32.5481L53.6741 31.1422C53.9905 30.7907 54.5177 30.7907 54.8692 31.1422L57.7866 34.0596C57.9272 34.2001 58.0326 34.4462 58.0326 34.6571C58.0326 34.8328 57.9272 35.0789 57.7866 35.2195L56.3806 36.6255C56.6618 37.1878 56.9079 37.7502 57.1188 38.3126H59.1223C59.6144 38.3126 60.001 38.6993 60.001 39.1914V43.3741C60.001 43.8662 59.6144 44.2529 59.1223 44.2529H57.1188C56.9079 44.8153 56.6618 45.4128 56.4509 45.9049L57.8569 47.3109C57.9975 47.4515 58.1029 47.6975 58.1029 47.9084C58.1029 48.0842 57.9975 48.3302 57.8569 48.4708L54.9395 51.3882C54.588 51.7397 54.0608 51.7397 53.7093 51.3882L52.3033 49.9822C51.8112 50.2634 51.2137 50.4743 50.6513 50.6501V52.7239C50.5458 53.2511 50.1592 53.6378 49.6671 53.6378ZM46.363 51.9506H48.8235V50.1228C48.8235 49.7362 49.0695 49.3847 49.4562 49.3144C50.4404 49.0683 51.2137 48.7168 51.9166 48.2951C52.233 48.049 52.6899 48.0842 52.9711 48.3654L54.3068 49.6307L56.0291 47.9084L54.7286 46.6079C54.4474 46.3267 54.3771 45.9049 54.6231 45.5534C55.1152 44.8153 55.4667 44.0068 55.6425 43.1632C55.7479 42.7766 56.0994 42.4954 56.4861 42.4954H58.2787V39.9998H56.4861C56.0994 39.9998 55.7479 39.7186 55.6425 39.332C55.4667 38.4884 55.1152 37.7151 54.6231 36.9418C54.4474 36.5903 54.4826 36.1685 54.7286 35.8522L56.0291 34.5516L54.3068 32.7942L52.9711 34.0596C52.6899 34.3407 52.233 34.411 51.9518 34.2001C51.2137 33.7784 50.4052 33.4269 49.5265 33.1808C49.1398 33.0754 48.8938 32.759 48.8938 32.3724V30.5446H46.3982V32.3724C46.3982 32.759 46.1521 33.0754 45.7655 33.1808C44.8868 33.3917 44.1135 33.7081 43.3402 34.2001C42.9887 34.411 42.5669 34.3407 42.3209 34.0596L40.9852 32.759L39.2277 34.4813L40.4931 35.7819C40.8094 36.0631 40.8446 36.4497 40.6688 36.8012C40.1768 37.6096 39.8253 38.4532 39.6847 39.2265C39.5792 39.6132 39.2277 39.8944 38.8411 39.8944H37.0133V42.39H38.8411C39.2277 42.39 39.5792 42.6712 39.6847 43.0578C39.8604 43.9014 40.2119 44.7098 40.6688 45.448C40.8446 45.7994 40.8094 46.2212 40.4931 46.4673L39.2277 47.7327L40.9852 49.4901L42.3209 48.1896C42.6021 47.9084 43.0239 47.8381 43.3402 48.049C44.1135 48.5411 44.8868 48.8574 45.7655 49.0683C46.1521 49.1738 46.3982 49.4901 46.3982 49.8768V51.9506H46.363Z" fill="#00B5FF"/>
<path fill-rule="evenodd" clip-rule="evenodd" d="M23.3053 44.4989C22.8132 44.4989 22.4266 44.0771 22.4266 43.6201C22.4266 37.0472 24.0435 34.9031 25.4494 33.005C26.5391 31.5639 27.3475 30.4391 27.3475 27.5217C27.3475 22.2845 23.0593 17.9962 17.822 17.9962C12.5496 17.9962 8.26138 22.2845 8.26138 27.5217C8.26138 30.4391 9.10496 31.5639 10.1594 33.005C11.5654 34.9031 13.1823 37.0472 13.1823 43.6201C13.1823 44.0771 12.7956 44.4989 12.3036 44.4989C11.8115 44.4989 11.4248 44.0771 11.4248 43.6201C11.4248 37.6096 10.054 35.7818 8.75347 34.0244C7.69899 32.5481 6.50391 31.0367 6.50391 27.5217C6.50391 21.3354 11.5303 16.2739 17.7517 16.2739C24.0083 16.2739 28.9995 21.3003 28.9995 27.5217C28.9995 31.0367 27.9099 32.5481 26.7851 34.0244C25.4494 35.7818 24.1137 37.6096 24.1137 43.6201C24.184 44.0771 23.7974 44.4989 23.3053 44.4989Z" fill="#00B5FF"/>
<path fill-rule="evenodd" clip-rule="evenodd" d="M11.2479 29.982C10.7558 29.982 10.3691 29.5953 10.3691 29.1032C10.3691 24.1823 14.341 20.1753 19.2619 20.1753C19.754 20.1753 20.1407 20.5619 20.1407 21.054C20.1407 21.5461 19.754 21.9328 19.2619 21.9328C15.2901 21.9328 12.0563 25.1314 12.0563 29.1384C12.0563 29.5953 11.6697 29.982 11.2479 29.982Z" fill="#00B5FF"/>
<path fill-rule="evenodd" clip-rule="evenodd" d="M26.1525 16.8364C26.0119 16.8364 25.8362 16.7661 25.6956 16.731C25.3089 16.4849 25.1683 15.9928 25.3792 15.571L26.8203 13.0051C27.0664 12.6185 27.5585 12.4779 27.9803 12.6888C28.3669 12.9348 28.5427 13.4269 28.3318 13.8487L26.8555 16.3795C26.7149 16.6607 26.4337 16.8364 26.1525 16.8364Z" fill="#00B5FF"/>
<path fill-rule="evenodd" clip-rule="evenodd" d="M32.2674 22.9522C31.9862 22.9522 31.705 22.8116 31.5644 22.5304C31.3184 22.1438 31.459 21.5814 31.8808 21.3353L34.4115 19.8942C34.7982 19.6482 35.3606 19.7888 35.6066 20.2457C35.8175 20.6324 35.6769 21.1596 35.2551 21.4056L32.7244 22.8468C32.5838 22.9171 32.408 22.9522 32.2674 22.9522Z" fill="#00B5FF"/>
<path fill-rule="evenodd" clip-rule="evenodd" d="M9.49174 16.8366C9.21054 16.8366 8.8942 16.6608 8.7536 16.3796L7.31248 13.8489C7.06643 13.4622 7.20703 12.935 7.62882 12.6889C8.01546 12.4429 8.57785 12.5835 8.78875 13.0053L10.265 15.5712C10.5111 15.9578 10.3705 16.4851 9.91353 16.7311C9.77293 16.8366 9.63234 16.8366 9.49174 16.8366Z" fill="#00B5FF"/>
<path fill-rule="evenodd" clip-rule="evenodd" d="M3.41009 22.9523C3.2695 22.9523 3.09375 22.9171 2.95315 22.8468L0.422397 21.4057C0.0357534 21.1596 -0.104844 20.6675 0.0709028 20.2457C0.316948 19.824 0.80904 19.6834 1.26598 19.8943L3.79674 21.3354C4.18338 21.5814 4.32398 22.0735 4.11308 22.5305C3.97248 22.7765 3.69129 22.9523 3.41009 22.9523Z" fill="#00B5FF"/>
<path fill-rule="evenodd" clip-rule="evenodd" d="M25.026 47.5567C24.5339 47.5567 24.1473 47.17 24.1473 46.678C24.1473 46.1859 24.5339 45.7992 25.026 45.7992C25.3775 45.7992 25.6587 45.518 25.6587 45.1314C25.6587 44.7096 25.3775 44.4987 25.026 44.4987H10.6148C10.2281 44.4987 9.98209 44.7799 9.98209 45.1314C9.98209 45.518 10.2633 45.7992 10.6148 45.7992C11.1069 45.7992 11.4935 46.1859 11.4935 46.678C11.4935 47.17 11.1069 47.5567 10.6148 47.5567C9.2791 47.5567 8.25977 46.4671 8.25977 45.1665C8.25977 43.866 9.3494 42.8115 10.6148 42.8115H25.026C26.3265 42.8115 27.3459 43.9012 27.3459 45.1665C27.4162 46.4671 26.3265 47.5567 25.026 47.5567Z" fill="#00B5FF"/>
<path fill-rule="evenodd" clip-rule="evenodd" d="M25.026 50.6148H10.6148C9.2791 50.6148 8.25977 49.5603 8.25977 48.2246C8.25977 46.9241 9.3494 45.9048 10.6148 45.9048H25.026C26.3265 45.9048 27.3459 46.9593 27.3459 48.2246C27.4162 49.49 26.3265 50.6148 25.026 50.6148ZM10.6148 47.5568C10.2281 47.5568 9.98209 47.838 9.98209 48.1895C9.98209 48.5761 10.2633 48.8573 10.6148 48.8573H25.026C25.3775 48.8573 25.6587 48.5761 25.6587 48.1895C25.6587 47.8029 25.3775 47.5568 25.026 47.5568H10.6148Z" fill="#00B5FF"/>
<path fill-rule="evenodd" clip-rule="evenodd" d="M18.9461 53.6377H16.7317C14.5875 53.6377 12.8301 51.8803 12.8301 49.7362C12.8301 49.2441 13.2519 48.8574 13.7088 48.8574C14.2009 48.8574 14.5875 49.2441 14.5875 49.7362C14.5875 50.9664 15.5717 51.9506 16.802 51.9506H18.9812C20.2114 51.9506 21.1605 50.9664 21.1605 49.7362C21.1605 49.2441 21.5471 48.8574 22.0392 48.8574C22.5313 48.8574 22.918 49.2441 22.918 49.7362C22.8125 51.8803 21.0902 53.6377 18.9461 53.6377Z" fill="#00B5FF"/>
<path fill-rule="evenodd" clip-rule="evenodd" d="M17.8221 44.4989C17.33 44.4989 16.9434 44.0771 16.9434 43.6202V34.9383C16.9434 34.6571 17.084 34.3408 17.3652 34.2002L20.7746 32.2669C21.1613 32.0209 21.7237 32.1615 21.9697 32.5481C22.1806 32.9348 22.04 33.462 21.6534 33.7081L18.7008 35.4304V43.6553C18.7008 44.0771 18.3142 44.4989 17.8221 44.4989Z" fill="#00B5FF"/>
<path fill-rule="evenodd" clip-rule="evenodd" d="M17.8217 35.7819C17.6811 35.7819 17.5054 35.7116 17.3648 35.6764L14.0256 33.7081C13.639 33.462 13.4632 32.9348 13.7093 32.5481C13.9553 32.1615 14.5177 32.0209 14.9043 32.2669L18.2435 34.2002C18.6302 34.4462 18.7708 34.9734 18.5599 35.3601C18.3841 35.6061 18.1029 35.7819 17.8217 35.7819Z" fill="#00B5FF"/>
<path fill-rule="evenodd" clip-rule="evenodd" d="M47.5585 24.4989C47.0664 24.4989 46.6797 24.1123 46.6797 23.6553V10.65C46.6797 9.20892 45.5198 8.04899 44.1138 8.04899H21.2667C19.8256 8.04899 18.6305 9.20892 18.6305 10.65V17.223C18.6305 17.6799 18.2439 18.1017 17.7518 18.1017C17.2948 18.1017 16.873 17.6799 16.873 17.223V10.65C16.873 8.25988 18.8414 6.36182 21.2316 6.36182H44.0787C46.4337 6.36182 48.3669 8.25988 48.3669 10.65V23.6905C48.4372 24.1123 48.0506 24.4989 47.5585 24.4989Z" fill="#00B5FF"/>
<path fill-rule="evenodd" clip-rule="evenodd" d="M47.5576 24.4989C47.3819 24.4989 47.1358 24.4286 46.9952 24.288L42.8124 20.07C42.461 19.7537 42.461 19.1913 42.8124 18.8749C43.1288 18.5235 43.6912 18.5235 44.0075 18.8749L47.5576 22.425L51.1077 18.8749C51.4592 18.5235 51.9864 18.5235 52.3379 18.8749C52.6894 19.1913 52.6894 19.7537 52.3379 20.07L48.1552 24.288C48.0146 24.4286 47.8037 24.4989 47.5576 24.4989Z" fill="#00B5FF"/>
</g>
<defs>
<clipPath id="clip0_55572_38555">
<rect width="60" height="60" fill="white"/>
</clipPath>
</defs>
</svg>
