<svg xmlns="http://www.w3.org/2000/svg" version="1.1" xmlns:xlink="http://www.w3.org/1999/xlink" width="512" height="512" x="0" y="0" viewBox="0 0 512 512" style="enable-background:new 0 0 512 512" xml:space="preserve"><g><path d="m482.41 162.981-25.724-9.902a160.117 160.117 0 0 0-16.258-39.218l11.196-25.207a7.999 7.999 0 0 0-1.655-8.904l-34.188-34.187a8 8 0 0 0-8.903-1.654l-25.217 11.2a160.131 160.131 0 0 0-39.204-16.255l-9.904-25.731a7.998 7.998 0 0 0-7.466-5.126h-48.348a8 8 0 0 0-7.466 5.126l-9.905 25.731a160.115 160.115 0 0 0-39.205 16.255l-25.217-11.2a8 8 0 0 0-8.904 1.655l-34.187 34.188a8 8 0 0 0-1.654 8.904l11.197 25.213a160.11 160.11 0 0 0-16.255 39.209l-25.729 9.904a8 8 0 0 0-5.126 7.466v48.347a8 8 0 0 0 5.126 7.466l25.725 9.902a160.057 160.057 0 0 0 16.257 39.218l-11.195 25.207a8 8 0 0 0 1.654 8.904l3.218 3.219a196.485 196.485 0 0 0-3.195 1.812L90.897 349.83l-5.476-9.676h.001c-2.649-4.68-6.974-8.052-12.178-9.495-5.202-1.441-10.647-.778-15.328 1.871L34.7 345.669c-9.684 5.482-13.103 17.82-7.622 27.504l68.25 120.593c2.648 4.68 6.974 8.052 12.178 9.495 1.8.499 3.628.746 5.443.746 3.434 0 6.822-.884 9.884-2.616l23.215-13.139c9.685-5.481 13.104-17.819 7.623-27.504l-6.715-11.866 13.231-7.639 105.708 28.324c5.904 1.583 11.778 2.369 17.557 2.369 11.686 0 22.976-3.217 33.295-9.571l150.152-92.457c13.978-8.606 18.424-30.273 9.329-45.459-2.648-4.421-10.23-14.073-26.141-15.094a7.997 7.997 0 0 0 1.538-8.768l-11.199-25.217a160.103 160.103 0 0 0 16.253-39.205l25.731-9.904a8 8 0 0 0 5.126-7.466v-48.348a8 8 0 0 0-5.126-7.466zM138.167 474.324l-23.215 13.139c-1.298.732-2.544.549-3.173.376-.629-.174-1.793-.66-2.526-1.956L41.003 365.29c-1.117-1.973-.394-4.583 1.579-5.7l23.215-13.138a4.058 4.058 0 0 1 2.021-.533c.473 0 .873.079 1.151.156.629.174 1.794.66 2.527 1.956l68.25 120.593c1.118 1.974.394 4.584-1.579 5.7zm324.334-141.656c4.585 7.656 2.571 19.573-3.991 23.613l-150.152 92.457c-11.745 7.231-24.638 9.041-38.321 5.372l-108.909-29.182a8.014 8.014 0 0 0-6.07.799l-15.982 9.227-40.296-71.201 61.117-35.386c13.667-7.913 28.436-14.546 43.85-9.546 5.02 1.628 10.812 3.722 17.52 6.147 19.251 6.959 43.172 15.608 68.018 20.156 8.286 2.92 12.92 10.919 10.809 18.8-2.782 10.38-11.472 11.665-18.397 10.871-12.145-2.5-23.701-5.797-35.925-9.288-5.812-1.66-11.822-3.376-18.003-5.033a8 8 0 0 0-4.141 15.455c6.054 1.622 12 3.32 17.75 4.962 12.643 3.611 37.72 9.702 37.773 9.71l10.29 1.673c15.546 2.487 29.34.062 42.174-7.411l82.74-48.191c23.464-13.667 41.463-15.162 48.146-4.004zm-124.83 30.151 4.783-12.425a160.105 160.105 0 0 0 39.219-16.257l2.975 1.321zm133.865-149.518-24.475 9.42a7.996 7.996 0 0 0-4.908 5.614 144.27 144.27 0 0 1-17.535 42.296 8.002 8.002 0 0 0-.499 7.441l10.653 23.987-13.04 13.04c-4.762 1.978-9.895 4.521-15.432 7.746l-4.6 2.679-17.325-7.695a7.999 7.999 0 0 0-7.442.499 144.19 144.19 0 0 1-42.308 17.538 7.998 7.998 0 0 0-5.614 4.909l-9.418 24.467h-3.438c2.567-15.225-6.826-30.448-22.403-35.498a8.017 8.017 0 0 0-1.047-.263c-23.725-4.279-47.165-12.753-66.001-19.562-6.557-2.371-12.75-4.61-18.022-6.319-13.713-4.449-26.556-2.537-38.238 1.85l-3.391-3.391 10.649-23.977a8.001 8.001 0 0 0-.5-7.442 144.204 144.204 0 0 1-17.538-42.308 7.996 7.996 0 0 0-4.908-5.614l-24.468-9.418v-37.36l24.472-9.42a7.996 7.996 0 0 0 4.908-5.614 144.212 144.212 0 0 1 17.536-42.299 8.001 8.001 0 0 0 .5-7.442l-10.651-23.984 26.418-26.419 23.987 10.653a8 8 0 0 0 7.441-.5 144.245 144.245 0 0 1 42.297-17.536 8 8 0 0 0 5.613-4.909l9.421-24.475h37.362l9.421 24.474a8 8 0 0 0 5.613 4.909 144.228 144.228 0 0 1 42.296 17.536 8.002 8.002 0 0 0 7.441.5L408.35 60.76l26.42 26.419-10.65 23.977a8 8 0 0 0 .5 7.442 144.258 144.258 0 0 1 17.539 42.308 7.996 7.996 0 0 0 4.908 5.614l24.467 9.418v37.363zM300.912 67.636c-70.019 0-126.983 56.965-126.983 126.985 0 70.019 56.965 126.982 126.983 126.982 70.02 0 126.984-56.964 126.984-126.982 0-70.02-56.965-126.985-126.984-126.985zm0 237.968c-61.196 0-110.983-49.787-110.983-110.982 0-61.198 49.787-110.985 110.983-110.985 61.197 0 110.984 49.788 110.984 110.985 0 61.195-49.787 110.982-110.984 110.982zM72.209 369.17a8.289 8.289 0 1 1-16.403 2.397 8.289 8.289 0 0 1 16.403-2.397zM334.897 161.5c3.23-3.203 5.236-7.638 5.236-12.536 0-6.376-3.407-11.957-8.485-15.063l4.767-4.767c3.378-3.378 5.239-7.881 5.239-12.678 0-4.798-1.86-9.301-5.24-12.681-5.047-5.045-12.635-6.524-19.12-4.047-2.841-6.342-9.248-10.658-16.383-10.658-7.132.001-13.54 4.317-16.381 10.659-6.493-2.476-14.076-.998-19.121 4.047-3.38 3.379-5.24 7.882-5.24 12.679s1.86 9.3 5.24 12.68l4.766 4.766c-5.078 3.106-8.485 8.687-8.485 15.063 0 4.898 2.006 9.334 5.236 12.537-14.03 15.668-23.806 28.596-30.398 40.171-11.997 21.064-12.216 44.385-.602 63.983 12.668 21.376 37 34.516 63.743 34.516.413 0 .827-.003 1.242-.009.416.006.827.009 1.242.009 26.741-.001 51.076-13.141 63.743-34.516 11.614-19.598 11.395-42.919-.603-63.983-6.59-11.576-16.366-24.504-30.396-40.172zm-55.542-10.872a1.686 1.686 0 0 1-1.664-1.665c0-.902.762-1.664 1.664-1.664h43.114c.902 0 1.664.762 1.664 1.665 0 .902-.762 1.664-1.664 1.664zm-2.632-35.538c.627-.627 1.668-.736 2.418-.254a13.116 13.116 0 0 0 12.098 1.087 13.117 13.117 0 0 0 7.784-9.322c.162-.742.88-1.53 1.89-1.53.886 0 1.698.657 1.889 1.532a13.121 13.121 0 0 0 7.787 9.322 13.125 13.125 0 0 0 12.099-1.09 1.97 1.97 0 0 1 2.415.256c.48.481.553 1.062.553 1.365s-.072.884-.554 1.366L311.623 131.3h-21.42l-13.479-13.479c-.482-.482-.554-1.062-.554-1.366s.071-.883.553-1.365zm75.41 142.407c-9.962 16.811-29.576 27.02-51.086 26.664a12.15 12.15 0 0 0-.27 0c-21.533.368-41.124-9.854-51.087-26.664-8.729-14.729-8.466-31.743.74-47.908 6.768-11.881 17.443-25.593 33.454-42.962h34.055c16.01 17.369 26.686 31.081 33.454 42.961 9.206 16.166 9.469 33.18.74 47.909zm-26.781-20.825c.652 5.365-.808 10.288-4.221 14.234-2.947 3.408-7.342 5.92-12.403 7.21v.368a8 8 0 0 1-16 0v-.512c-8.259-2.387-14.505-8.423-16.538-16.577a8.001 8.001 0 0 1 15.525-3.871c1.014 4.068 5.384 5.528 9.02 5.568l.154.001c.11 0 .221-.001.33-.004 3.265-.078 6.549-1.192 7.811-2.651.306-.354.57-.761.439-1.839-.144-1.179-.479-3.938-9.99-5.5-18.263-2.998-21.48-13.578-21.772-19.618-.459-9.451 5.497-17.446 15.021-20.51v-.667a8 8 0 0 1 16 0v.559c6.541 2.094 11.96 6.854 14.771 13.548a7.999 7.999 0 0 1-4.279 10.473c-4.068 1.71-8.764-.204-10.473-4.279-2.109-5.021-7.41-5.285-10.213-4.65-1.178.267-5.009 1.399-4.847 4.75.104 2.16 2.926 3.709 8.385 4.605 14.172 2.329 22.004 8.843 23.28 19.362z" fill="#02b5ff" opacity="1" data-original="#000000"></path></g></svg>