<svg width="60" height="60" viewBox="0 0 60 60" fill="none" xmlns="http://www.w3.org/2000/svg">
<g clip-path="url(#clip0_55573_38683)">
<path d="M59.0625 18.5475V11.4525L56.4431 10.8084C56.3278 10.4972 56.1975 10.1859 56.0531 9.87563L57.4519 7.56469L52.4344 2.54719L50.1244 3.94688C49.8141 3.8025 49.5028 3.67219 49.1916 3.55687L48.5475 0.9375H41.4525L40.8084 3.55687C40.4972 3.67219 40.1859 3.8025 39.8756 3.94688L37.5647 2.54812L32.5472 7.56562L33.9459 9.87656C33.8016 10.1869 33.6712 10.4981 33.5559 10.8094L30.9375 11.4525V17.8125H5.625C3.04031 17.8125 0.9375 19.9153 0.9375 22.5V45C0.9375 47.5847 3.04031 49.6875 5.625 49.6875H13.125V53.4375H9.375C8.34094 53.4375 7.5 54.2784 7.5 55.3125V57.1875C7.5 58.2216 8.34094 59.0625 9.375 59.0625H29.0625H30.975H59.0625V55.3125C59.0625 48.4912 54.4809 42.7284 48.2353 40.9153C50.2406 39.5672 51.5625 37.2797 51.5625 34.6875C51.5625 32.2416 50.3803 30.0722 48.5634 28.7025L48.6591 28.6097L49.1916 26.4431C49.5028 26.3278 49.8141 26.1975 50.1244 26.0531L52.4353 27.4519L57.4528 22.4344L56.0541 20.1234C56.1984 19.8131 56.3288 19.5019 56.4441 19.1906L59.0625 18.5475ZM5.625 19.6875H37.5C39.0506 19.6875 40.3125 20.9494 40.3125 22.5V28.2019C39.6066 28.6116 38.9738 29.1337 38.4375 29.7431V23.4375C38.4375 22.4034 37.5966 21.5625 36.5625 21.5625H6.5625C5.52844 21.5625 4.6875 22.4034 4.6875 23.4375V42.1875H2.8125V22.5C2.8125 20.9494 4.07437 19.6875 5.625 19.6875ZM38.4375 15C38.4375 11.3822 41.3822 8.4375 45 8.4375C48.6178 8.4375 51.5625 11.3822 51.5625 15C51.5625 18.6178 48.6178 21.5625 45 21.5625C43.8863 21.5625 42.8025 21.2691 41.8369 20.7347C41.3606 19.5694 40.4306 18.6394 39.2644 18.1631C38.7309 17.1956 38.4375 16.1128 38.4375 15ZM48.6244 51.5334L45.3937 57.1875H45.2963L49.1747 43.2244C49.575 43.3941 49.965 43.5853 50.3447 43.7925L49.7503 47.3616L47.61 49.5019L48.6244 51.5334ZM42.7313 57.1875L39.5006 51.5334L40.5159 49.5028L38.3756 47.3625L37.7812 43.7934C38.16 43.5863 38.55 43.395 38.9513 43.2253L42.8287 57.1875H42.7313ZM32.8125 42.1875H30.9375V27.1875H32.8125V42.1875ZM38.4375 41.4169V39.6319C38.865 40.1184 39.3497 40.5534 39.8897 40.9153C39.3947 41.0588 38.91 41.2247 38.4375 41.4169ZM36.5625 42.1875H34.6875V25.3125H29.0625V42.1875H27.1875V29.0625H21.5625V42.1875H19.6875V32.8125H14.0625V42.1875H6.5625V23.4375H36.5625V42.1875ZM25.3125 42.1875H23.4375V30.9375H25.3125V42.1875ZM17.8125 42.1875H15.9375V34.6875H17.8125V42.1875ZM2.8125 45V44.0625H34.1747C32.955 45.1359 31.9125 46.3997 31.0922 47.8125H5.625C4.07437 47.8125 2.8125 46.5506 2.8125 45ZM15 49.6875H30.1669C29.6859 50.8706 29.3569 52.1278 29.1928 53.4375H15V49.6875ZM9.375 57.1875V55.3125H29.0625V57.1875H9.375ZM30.9375 57.1875V55.3125C30.9375 51.0844 32.955 47.3278 36.0694 44.9259L36.6253 48.2625L38.235 49.8722L37.3753 51.5916L40.5722 57.1875H35.625V49.6875H33.75V57.1875H30.975H30.9375ZM57.1875 55.3125V57.1875H54.375V49.6875H52.5V57.1875H47.5528L50.7506 51.5916L49.8909 49.8722L51.5006 48.2625L52.0566 44.9259C55.17 47.3278 57.1875 51.0844 57.1875 55.3125ZM47.3925 42.6319L44.0625 54.6206L40.7325 42.6319C41.7984 42.3516 42.9103 42.1875 44.0625 42.1875C45.2147 42.1875 46.3266 42.3516 47.3925 42.6319ZM49.6875 34.6875C49.6875 37.7897 47.1647 40.3125 44.0625 40.3125C40.9603 40.3125 38.4375 37.7897 38.4375 34.6875C38.4375 31.5853 40.9603 29.0625 44.0625 29.0625C47.1647 29.0625 49.6875 31.5853 49.6875 34.6875ZM55.0866 22.1494L52.1494 25.0866L50.205 23.91L49.7381 24.1528C49.2009 24.4322 48.6562 24.66 48.1209 24.8297L47.6184 24.9881L46.9669 27.6412L46.8675 27.7378C46.0003 27.3853 45.0544 27.1875 44.0625 27.1875C43.4138 27.1875 42.7884 27.2784 42.1875 27.4341V22.935C43.0875 23.2538 44.0334 23.4375 45 23.4375C49.6528 23.4375 53.4375 19.6528 53.4375 15C53.4375 10.3472 49.6528 6.5625 45 6.5625C40.3472 6.5625 36.5625 10.3472 36.5625 15C36.5625 15.9666 36.7462 16.9125 37.065 17.8125H32.8125V12.9225L35.0128 12.3816L35.1712 11.8791C35.3409 11.3447 35.5687 10.8 35.8481 10.2619L36.0909 9.795L34.9144 7.85062L37.8516 4.91344L39.7959 6.09L40.2628 5.84719C40.8 5.56781 41.3447 5.34 41.88 5.17031L42.3825 5.01188L42.9225 2.8125H47.0775L47.6184 5.01281L48.1209 5.17125C48.6553 5.34094 49.2 5.56875 49.7381 5.84812L50.205 6.09094L52.1494 4.91438L55.0866 7.85156L53.91 9.79594L54.1528 10.2628C54.4322 10.8 54.66 11.3447 54.8297 11.88L54.9881 12.3825L57.1875 12.9225V17.0775L54.9872 17.6184L54.8288 18.12C54.6591 18.6553 54.4313 19.2 54.1519 19.7381L53.9091 20.205L55.0866 22.1494Z" fill="#02B5FF"/>
<path d="M45 19.6875C47.5847 19.6875 49.6875 17.5847 49.6875 15C49.6875 12.4153 47.5847 10.3125 45 10.3125C42.4153 10.3125 40.3125 12.4153 40.3125 15C40.3125 17.5847 42.4153 19.6875 45 19.6875ZM45 12.1875C46.5506 12.1875 47.8125 13.4494 47.8125 15C47.8125 16.5506 46.5506 17.8125 45 17.8125C43.4494 17.8125 42.1875 16.5506 42.1875 15C42.1875 13.4494 43.4494 12.1875 45 12.1875Z" fill="#02B5FF"/>
<path d="M8.4375 25.3125H10.3125V27.1875H8.4375V25.3125Z" fill="#02B5FF"/>
<path d="M12.1875 25.3125H14.0625V27.1875H12.1875V25.3125Z" fill="#02B5FF"/>
<path d="M15.9375 25.3125H17.8125V27.1875H15.9375V25.3125Z" fill="#02B5FF"/>
<path d="M8.4375 29.0625H17.8125V30.9375H8.4375V29.0625Z" fill="#02B5FF"/>
</g>
<defs>
<clipPath id="clip0_55573_38683">
<rect width="60" height="60" fill="white"/>
</clipPath>
</defs>
</svg>
