<?xml version="1.0" encoding="UTF-8"?>
<svg id="svg8" xmlns="http://www.w3.org/2000/svg" xmlns:svg="http://www.w3.org/2000/svg" version="1.1" viewBox="0 0 512 512">
  <defs>
    <style>
      .cls-1 {
        fill: #02b5ff;
        stroke-width: 0px;
      }
    </style>
  </defs>
  <g id="layer1-0">
    <path id="path852" class="cls-1" d="M224.3,16c-4,0-8,2.7-8,8v16c0,10.7,16,10.7,16,0v-16c0-5.3-4-8-8-8ZM124.3,60.5c-6,.4-11,8.2-5.3,13.8l11.3,11.3c7.6,7.6,18.9-3.8,11.3-11.3l-11.3-11.3c-1.9-1.9-4-2.6-6-2.5ZM324.3,60.5c-2,0-4.1.6-6,2.5l-11.3,11.3c-7.6,7.6,3.8,18.9,11.3,11.3l11.3-11.3c5.7-5.7.7-13.5-5.3-13.8ZM224.3,80.1c-43.6,0-72.1,36.3-72.1,71.8s10,37,21.7,48.7c5.8,5.9,12.2,11.7,17.4,19.2,3.9,5.7,7.1,12.5,8.4,20.6h16.6v-29.2l-21.5-21c-5.3-5-1.8-13.8,5.4-13.8s4.3.8,5.8,2.4l18.3,17.9,18.3-17.9c1.5-1.5,3.6-2.4,5.8-2.4,7.2,0,10.7,8.9,5.4,13.8l-21.5,21v29.3h16.7c1.3-8,4.3-14.7,8.4-20.6,5.2-7.5,11.5-13.3,17.4-19.2,11.7-11.7,21.7-23.7,21.7-48.7s-28.5-71.8-72.1-71.8h0ZM224.3,96.2c10.9-.2,10.9,16.3,0,16-11.5,0-22.4,4.9-30,13.5-7,8.7-19.8-2.6-12-10.6,10.6-12,25.9-18.9,42-18.9ZM176.2,144c4.4,0,8,3.6,8,8s-3.6,8-8,8-8-3.6-8-8,3.6-8,8-8ZM96.1,160.3c-10.7,0-10.7,16,0,16h16c10.7,0,10.7-16,0-16h-16ZM336.5,160.3c-10.7,0-10.7,16,0,16h16c10.7,0,10.7-16,0-16h-16ZM424.7,168.2c-4.4,0-8,3.6-8,8v312.6c0,4.5,3.6,8,8,8h64c4.4,0,8-3.6,8-8V176.2c0-4.5-3.6-8-8-8h-64ZM146.2,191.8c-.5.4-.8.8-1.3,1.3-43.9,43.9-43.6,115,0,158.7,43.6,43.7,114.9,43.9,158.8,0,43.9-43.9,43.7-114.9,0-158.7-.4-.4-.8-.8-1.3-1.2-2.9,4.9-6.2,9.2-9.6,13.1,37.2,37.7,36.9,98.2-.4,135.5s-98.3,37.6-136.1,0c-37.4-37.3-37.5-98.1-.4-135.6-3.4-3.8-6.7-8.1-9.6-13h-.1ZM167,216.4c-30.7,31.4-30.3,81.7.6,112.7,31.1,31.3,82.1,31.4,113.4,0,31.2-31.1,31.2-81.3.6-112.7-4.3,4.3-8.3,8.4-11.1,12.5-2.5,3.6-4.3,7.1-5.2,11.5,9.6,1,9.4,16-.9,16v24c0,10.4-6.7,19.3-16.1,22.6v9.5c0,13.2-10.6,24-24,24s-24-10.9-24-24v-9.5c-9.4-3.3-16.1-12.2-16.1-22.6v-24c-10.3,0-10.8-14.9-.8-15.9-1-4.4-2.8-8-5.3-11.6-2.8-4.1-6.8-8.2-11.1-12.5h0ZM200.3,256.4v24c0,4.3,3.4,8,8,8h32.1c4.4,0,8-3.4,8-8v-24h-48.1,0ZM352.3,264.4c.2,2.7.3,5.3.3,8,0,38.9-17.7,75.7-48.1,100v116.3c0,4.5,3.6,8,8,8h64c4.4,0,8-3.6,8-8v-216.3c0-4.5-3.6-8-8-8h-24.3.1ZM216.3,304.5v8c0,4.3,3.4,8,8,8s8-3.4,8-8v-8h-16ZM124.2,352.4l-100,80c-11.5,9.3-10.4,28.3.8,39.5,11.2,11.2,30.1,12.1,39.4.8l80.1-100.1c-7.5-5.9-14.3-12.7-20.2-20.1h-.1ZM272.4,391.2c-15.3,6.2-31.6,9.4-48.1,9.4s-21.6-1.5-32.1-4.2v92.4c0,4.5,3.6,8,8,8h64c4.4,0,8-3.6,8-8v-97.6h.2Z" vector-effect="none"/>
  </g>
</svg>