<svg xmlns="http://www.w3.org/2000/svg" version="1.1" xmlns:xlink="http://www.w3.org/1999/xlink" width="512" height="512" x="0" y="0" viewBox="0 0 512 512" style="enable-background:new 0 0 512 512" xml:space="preserve" class=""><g><path d="m507 224.348-42.824-24.724a8 8 0 0 0-8 0l-42.823 24.724a7.998 7.998 0 0 0-4 6.928V248h-67.44v-11.258l53.298-18.061a8 8 0 0 0 5.433-7.577v-38.468l38.824-22.415a7.998 7.998 0 0 0 4-6.928V93.844a7.998 7.998 0 0 0-4-6.928l-42.823-24.724a8.003 8.003 0 0 0-8 0L345.82 86.915a7.998 7.998 0 0 0-4 6.928v49.449a7.998 7.998 0 0 0 4 6.928l38.823 22.414v32.733l-42.73 14.48v-8.832a7.998 7.998 0 0 0-4-6.928L264 161.415V115.89l38.823-22.415a7.998 7.998 0 0 0 4-6.928V37.099a7.998 7.998 0 0 0-4-6.928L260 5.447a8 8 0 0 0-8 0l-42.823 24.724a7.998 7.998 0 0 0-4 6.928v49.449a7.998 7.998 0 0 0 4 6.928L248 115.891v45.525l-73.913 42.673a7.998 7.998 0 0 0-4 6.928v8.832l-42.73-14.48v-32.733l38.823-22.415a7.998 7.998 0 0 0 4-6.928V93.844a7.998 7.998 0 0 0-4-6.928l-42.823-24.724a8.003 8.003 0 0 0-8 0L72.533 86.915a7.998 7.998 0 0 0-4 6.928v49.449a7.998 7.998 0 0 0 4 6.928l38.824 22.415v38.469a8.002 8.002 0 0 0 5.433 7.577l53.298 18.061V248h-67.44v-16.724a7.998 7.998 0 0 0-4-6.928l-42.823-24.724a8 8 0 0 0-8 0L5 224.348a7.998 7.998 0 0 0-4 6.928v49.448a7.998 7.998 0 0 0 4 6.928l42.824 24.725c1.237.715 2.619 1.071 4 1.071s2.763-.356 4-1.071l42.823-24.725a7.998 7.998 0 0 0 4-6.928V264h67.44v11.257l-53.298 18.061a8.002 8.002 0 0 0-5.433 7.577v38.469l-38.824 22.415a7.997 7.997 0 0 0-4 6.928v49.448a7.998 7.998 0 0 0 4 6.928l42.824 24.725c1.237.715 2.619 1.072 4 1.072s2.763-.357 4-1.072l42.823-24.725a7.997 7.997 0 0 0 4-6.928v-49.448a7.998 7.998 0 0 0-4-6.928l-38.823-22.415v-32.732l42.73-14.481v8.832c0 2.858 1.524 5.5 4 6.928L248 350.584v45.525l-38.824 22.415a7.997 7.997 0 0 0-4 6.928V474.9a7.998 7.998 0 0 0 4 6.928L252 506.553c1.237.715 2.619 1.072 4 1.072s2.763-.357 4-1.072l42.823-24.725a7.997 7.997 0 0 0 4-6.928v-49.448a7.998 7.998 0 0 0-4-6.928L264 396.109v-45.525l73.912-42.673a7.998 7.998 0 0 0 4-6.928v-8.832l42.73 14.48v32.734l-38.823 22.415a7.997 7.997 0 0 0-4 6.928v49.448a7.998 7.998 0 0 0 4 6.928l42.824 24.725c1.237.715 2.619 1.072 4 1.072s2.763-.357 4-1.072l42.823-24.725a7.997 7.997 0 0 0 4-6.928v-49.448a7.998 7.998 0 0 0-4-6.928l-38.824-22.416v-38.468a8 8 0 0 0-5.433-7.577l-53.298-18.061V264h67.44v16.724a7.998 7.998 0 0 0 4 6.928l42.823 24.725a7.985 7.985 0 0 0 4 1.071 7.988 7.988 0 0 0 4-1.071L507 287.652a7.998 7.998 0 0 0 4-6.928v-49.448a7.998 7.998 0 0 0-4-6.928zM400.644 154.16v-30.973l26.823-15.487v30.974zm-8-75.803 26.824 15.487-26.824 15.487-26.824-15.487zM357.82 107.7l26.824 15.487v30.973l-26.824-15.487zm-230.463 46.46v-30.973L154.18 107.7v30.974zm-8-75.803 26.824 15.487-26.824 15.487-26.824-15.487zM84.533 107.7l26.824 15.487v30.973l-26.824-15.487zM51.824 215.789l26.824 15.487-26.824 15.487L25 231.276zM17 245.132l26.824 15.487v30.973L17 276.105zm69.647 30.973-26.823 15.487v-30.973l26.823-15.486zm59.534 92.602-26.824 15.487-26.824-15.487 25.739-14.861c.355.048.716.082 1.085.082s.73-.034 1.085-.082zm-61.648 13.856 26.824 15.487v30.974l-26.824-15.487zm42.824 46.46V398.05l26.823-15.487v30.973zm265.286-75.094c.37 0 .73-.034 1.086-.082l25.738 14.861-26.824 15.487-26.824-15.487 25.738-14.861c.357.048.717.082 1.086.082zm-34.823 28.634 26.824 15.487v30.974l-26.824-15.487zm42.824 46.46V398.05l26.823-15.487v30.973zM256 440.939l-26.825-15.487L256 409.965l26.824 15.488zm0-194.176-61.913-35.746L256 175.271l61.913 35.745zm8-149.347V66.442l26.823-15.486V81.93zm-8-75.804 26.824 15.487L256 52.585l-26.824-15.487zm-34.824 60.317V50.955L248 66.442v30.974zm-35.089 214.435v-71.491L248 260.619v71.491zm35.089 142.944L248 454.795v30.974l-26.824-15.487zM264 485.769v-30.973l26.823-15.487v30.973zm61.913-189.405L264 332.11v-71.491l61.912-35.745v71.49zm134.263-80.575L487 231.276l-26.824 15.487-26.824-15.487zm-34.823 29.343 26.823 15.486v30.973l-26.823-15.487zm42.823 46.46v-30.973L495 245.132v30.973z" fill="#02b5ff" opacity="1" data-original="#000000" class=""></path></g></svg>