<svg xmlns="http://www.w3.org/2000/svg" version="1.1" xmlns:xlink="http://www.w3.org/1999/xlink" width="512" height="512" x="0" y="0" viewBox="0 0 512 512" style="enable-background:new 0 0 512 512" xml:space="preserve"><g><path d="M461.61 285H50.39c-7.38 0-13.38 6.01-13.38 13.41v15.56c0 12.06 7.69 22.65 19.13 26.34l41.68 13.55c1.04 2.7 2.15 5.37 3.3 7.97l-19.9 39.02c-5.54 10.89-3.54 23.51 5.1 32.16L116 462.69c8.64 8.64 21.27 10.64 32.16 5.1l39.02-19.9c2.6 1.16 5.27 2.26 7.97 3.3l13.54 41.67c3.7 11.45 14.29 19.14 26.34 19.14h41.95c12.21 0 22.54-7.5 26.34-19.13l13.52-41.67c2.68-1.03 5.35-2.14 7.98-3.31l39.05 19.9c10.86 5.53 23.48 3.54 32.16-5.1l29.63-29.66c8.66-8.62 10.67-21.25 5.11-32.17l-19.87-39.02c1.16-2.61 2.26-5.27 3.3-7.98l41.64-13.54c11.45-3.7 19.14-14.28 19.14-26.34v-15.56c.01-7.41-5.99-13.42-13.37-13.42zm-120.83 15.99c-4.04 43.22-40.51 77.16-84.77 77.16s-80.72-33.94-84.77-77.16zM459 313.97c0 5.18-3.17 9.55-8.08 11.14l-45.33 14.74a7.985 7.985 0 0 0-5.05 4.9 157.75 157.75 0 0 1-5.74 13.86 8.01 8.01 0 0 0 .1 7.05l21.63 42.46c2.39 4.69 1.56 9.89-2.16 13.6l-29.63 29.66c-3.73 3.71-8.94 4.55-13.61 2.17l-42.49-21.66a8.01 8.01 0 0 0-7.05-.1 154.69 154.69 0 0 1-13.85 5.74 7.97 7.97 0 0 0-4.91 5.06l-14.71 45.34c-1.63 4.99-5.9 8.09-11.14 8.09h-41.95c-5.18 0-9.55-3.17-11.14-8.08l-14.74-45.35a7.985 7.985 0 0 0-4.9-5.05 157.75 157.75 0 0 1-13.86-5.74 7.987 7.987 0 0 0-7.05.1l-42.46 21.65c-4.67 2.38-9.89 1.55-13.6-2.16L97.63 421.7c-3.71-3.71-4.54-8.92-2.16-13.59l21.66-42.46a7.977 7.977 0 0 0 .1-7.05 157.75 157.75 0 0 1-5.74-13.86 8.033 8.033 0 0 0-5.05-4.9L61.07 325.1c-4.9-1.58-8.07-5.95-8.07-11.13v-12.98h102.19c4.09 52.05 47.75 93.15 100.82 93.15s96.74-41.1 100.82-93.15H459zM73.58 264.56h116.31c1.4 0 2.74-.25 4-.7 1.25.44 2.59.7 4 .7h116.28c1.4 0 2.74-.25 4-.7 1.25.44 2.59.7 4 .7h116.28c6.61 0 11.99-5.38 11.99-11.99V136.26c0-6.61-5.38-11.99-11.99-11.99h-50.14V11.99C388.28 5.38 382.9 0 376.29 0H260.01c-1.4 0-2.74.25-4 .7-1.25-.44-2.59-.7-4-.7H135.71c-6.6 0-11.96 5.38-11.96 11.99v112.28H73.58c-6.61 0-11.99 5.38-11.99 11.99v116.31c0 6.61 5.37 11.99 11.99 11.99zm128.29-124.3h28.77v41.95c0 4.42 3.58 7.99 7.99 7.99h34.72c4.42 0 7.99-3.58 7.99-7.99v-41.95h28.8v108.31H201.87zm50.15 0H265.37v33.96h-18.74v-33.96zm182.41 108.31H326.14V140.26h28.8v41.95c0 4.42 3.58 7.99 7.99 7.99h34.7c4.42 0 7.99-3.58 7.99-7.99v-41.95h28.8v108.31zm-44.79-74.35h-18.71v-33.96h18.71zm-17.35-49.95H264.02V15.99h28.8v41.95c0 4.41 3.58 7.99 7.99 7.99h34.7c4.42 0 7.99-3.58 7.99-7.99V15.99h28.8v108.28zM327.5 15.99v33.96h-18.7V15.99zm-124.27 0v33.96H184.5V15.99zm-63.49 0h28.77v41.95c0 4.41 3.58 7.99 7.99 7.99h34.72c4.42 0 7.99-3.58 7.99-7.99V15.99h28.8v108.28H139.74zm-4.03 124.27h5.39v33.96h-18.74v-33.96zm-58.14 0h28.8v41.95c0 4.42 3.58 7.99 7.99 7.99h34.72c4.41 0 7.99-3.58 7.99-7.99v-41.95h28.8v108.31H77.57z" fill="#02b5ff" opacity="1" data-original="#000000"></path></g></svg>