<svg width="48" height="48" viewBox="0 0 48 48" fill="none" xmlns="http://www.w3.org/2000/svg">
<rect width="48" height="48" rx="24" fill="#00639A"/>
<mask id="mask0_55218_3812" style="mask-type:alpha" maskUnits="userSpaceOnUse" x="12" y="12" width="24" height="24">
<rect x="12" y="12" width="24" height="24" fill="#D9D9D9"/>
</mask>
<g mask="url(#mask0_55218_3812)">
<path d="M24 24C24.55 24 25.0208 23.8042 25.4125 23.4125C25.8042 23.0208 26 22.55 26 22C26 21.45 25.8042 20.9792 25.4125 20.5875C25.0208 20.1958 24.55 20 24 20C23.45 20 22.9792 20.1958 22.5875 20.5875C22.1958 20.9792 22 21.45 22 22C22 22.55 22.1958 23.0208 22.5875 23.4125C22.9792 23.8042 23.45 24 24 24ZM24 34C21.3167 31.7167 19.3125 29.5958 17.9875 27.6375C16.6625 25.6792 16 23.8667 16 22.2C16 19.7 16.8042 17.7083 18.4125 16.225C20.0208 14.7417 21.8833 14 24 14C26.1167 14 27.9792 14.7417 29.5875 16.225C31.1958 17.7083 32 19.7 32 22.2C32 23.8667 31.3375 25.6792 30.0125 27.6375C28.6875 29.5958 26.6833 31.7167 24 34Z" fill="white"/>
</g>
</svg>
