<svg xmlns="http://www.w3.org/2000/svg" xmlns:xlink="http://www.w3.org/1999/xlink" xmlns:xodm="http://www.corel.com/coreldraw/odm/2003" xml:space="preserve" width="162.56mm" height="25.4mm" style="shape-rendering:geometricPrecision; text-rendering:geometricPrecision; image-rendering:optimizeQuality; fill-rule:evenodd; clip-rule:evenodd" viewBox="0 0 16256 2540">
 <defs>
  <style type="text/css">
   <![CDATA[
    .fil0 {fill:white}
    .fil1 {fill:white;fill-rule:nonzero}
   ]]>
  </style>
 </defs>
 <g id="Layer_x0020_1">
  <metadata id="CorelCorpID_0Corel-Layer"></metadata>
  <g id="_105553196834304">
   <g>
    <polygon class="fil0" points="751.61,2503.66 1883.26,2503.66 2194.81,2022.05 1063.16,2022.05 "></polygon>
    <polygon class="fil0" points="5507.99,2053.49 5768.37,2504.48 5217.52,2504.48 4476.08,1312.04 5248.1,35.53 5836.67,35.53 5049.36,1312.04 "></polygon>
    <polygon class="fil1" points="2227.97,1052.67 3123.12,2504.48 3734.63,2504.48 4476.08,1312.04 3704.05,35.53 3115.48,35.53 3902.79,1312.04 3444.16,2053.49 2213.51,119.61 1242.75,1686.59 1816.04,1686.59 "></polygon>
   </g>
   <g>
    <path class="fil0" d="M5809.48 802.62c0,-8.92 2.9,-16.07 8.69,-21.41 5.8,-5.36 13.16,-8.04 22.09,-8.04l703.91 0c8.04,0 15.4,2.45 21.86,7.37 6.47,4.91 10.04,12.26 10.93,22.08l0 117.09c0,8.92 -2.68,16.73 -8.25,23.43 -5.57,6.69 -13.82,10.03 -24.54,10.03l-254.26 0 0 782.87c0,8.04 -2.68,15.17 -8.25,21.42 -5.57,6.24 -13.39,9.36 -23.2,9.36l-131.81 0c-8.04,0 -15.17,-2.89 -21.64,-8.69 -6.47,-5.8 -9.82,-13.16 -9.82,-22.09l0 -782.87 -254.93 0c-8.93,0 -16.29,-2.9 -22.09,-8.47 -5.79,-5.59 -8.69,-13.84 -8.69,-24.99l0 -117.09zm5037.83 467.04c0,45.06 8.25,87.21 24.53,126.47 16.28,39.26 38.59,73.37 66.92,102.38 28.32,28.99 61.77,51.96 100.36,68.91 38.58,16.95 80.3,25.43 125.35,25.43 44.61,0 86.32,-8.48 124.9,-25.43 38.59,-16.95 72.04,-39.92 100.59,-68.91 28.56,-29.01 51.09,-63.12 67.36,-102.38 16.28,-39.26 24.32,-81.41 24.32,-126.47 0,-44.6 -8.04,-86.54 -24.32,-125.79 -16.27,-39.26 -38.8,-73.61 -67.36,-102.82 -28.55,-29.22 -62,-52.19 -100.59,-69.15 -38.58,-16.95 -80.29,-25.42 -124.9,-25.42 -45.05,0 -86.77,8.47 -125.35,25.42 -38.59,16.96 -72.04,39.93 -100.36,69.15 -28.33,29.21 -50.64,63.56 -66.92,102.82 -16.28,39.25 -24.53,81.19 -24.53,125.79zm-193.38 1.35c0,-46.85 6.02,-92.12 18.06,-135.84 12.05,-43.72 29.22,-84.53 51.53,-122.45 22.3,-37.92 49.07,-72.49 80.07,-103.71 31,-31.23 65.35,-57.99 103.27,-80.08 37.91,-22.07 78.73,-39.26 122.23,-51.52 43.48,-12.27 88.76,-18.29 136.05,-18.29 46.84,0 92.12,6.02 135.61,18.29 43.49,12.26 84.08,29.45 122.01,51.52 37.91,22.09 72.48,48.85 103.71,80.08 31.22,31.22 57.99,65.79 80.07,103.71 22.08,37.92 39.25,78.73 51.52,122.45 12.26,43.72 18.29,89.22 18.29,136.5 0,47.29 -6.03,92.56 -18.29,135.83 -12.27,43.27 -29.44,83.87 -51.52,121.78 -22.08,37.92 -48.85,72.27 -80.07,103.27 -31.23,31.01 -65.8,57.55 -103.71,79.63 -37.93,22.07 -78.52,39.25 -122.01,51.29 -43.49,12.05 -88.99,18.07 -136.28,18.07 -47.28,0 -92.57,-6.02 -136.05,-18.07 -43.5,-12.04 -84.32,-29.22 -122.23,-51.52 -37.92,-22.3 -72.27,-49.07 -103.27,-80.07 -31,-31 -57.54,-65.34 -79.63,-103.04 -22.08,-37.7 -39.25,-78.29 -51.3,-121.78 -12.04,-43.5 -18.06,-88.77 -18.06,-136.05zm-1037.82 -467.73c0,-8.47 2.68,-15.61 7.81,-21.41 5.13,-5.8 12.27,-8.7 21.64,-8.7l153.89 0c6.25,0 12.27,1.34 17.85,4.24 5.57,2.9 10.48,7.58 14.94,13.83 76.28,108.84 151.89,216.79 226.84,324.08 74.93,107.28 150.54,215.46 226.82,324.3l0 -641.02c1.35,-8.03 4.69,-14.27 10.04,-18.74 5.36,-4.45 11.82,-6.69 19.41,-6.69l129.14 0c8.92,0 16.73,2.68 23.19,8.04 6.47,5.34 9.6,12.49 9.6,21.41l0 936.77c0,18.29 -10.49,27.43 -31.45,27.43l-145.2 0c-9.82,0 -18.97,-6.01 -27.43,-18.06 -78.52,-113.76 -156.58,-227.51 -234.42,-341.03 -77.84,-113.53 -155.91,-227.28 -233.97,-341.48l0 671.13c0,9.82 -2.23,17.17 -6.92,22.08 -4.68,4.91 -12.71,7.36 -23.86,7.36l-128.47 0c-10.27,0 -17.63,-2.68 -22.31,-7.8 -4.69,-5.13 -7.14,-12.05 -7.14,-20.97l0 -934.77zm-1053.2 -0.66c0,-7.59 2.68,-14.51 7.81,-20.52 5.13,-6.03 12.04,-8.93 20.96,-8.93l133.83 0c7.58,0 14.73,2.9 21.41,8.7 6.69,5.8 10.03,12.72 10.03,20.75l0 346.6 448.32 0 0 -346.6c0,-8.03 2.68,-14.95 8.03,-20.75 5.35,-5.8 12.5,-8.7 21.41,-8.7l131.82 0c8.92,0 16.73,2.45 23.2,7.59 6.46,5.13 9.58,12.26 9.58,21.19l0 935.43c0,19.63 -10.48,29.44 -31.45,29.44l-133.15 0c-19.63,0 -29.44,-9.81 -29.44,-29.44l0 -404.82 -448.32 0 0 404.82c0,19.63 -10.92,29.44 -32.78,29.44l-132.49 0c-19.17,0 -28.77,-9.14 -28.77,-27.43l0 -936.77zm-200.73 42.82c5.36,3.13 9.81,6.91 13.38,11.38 3.57,4.45 5.35,9.81 5.35,16.05 0,4.91 -1.33,10.04 -4.01,15.4l-64.9 110.4c-7.58,10.26 -15.62,15.39 -24.09,15.39 -2.68,0 -5.81,-0.67 -9.37,-1.79 -3.57,-1.11 -7.14,-2.67 -10.7,-4.9 -28.11,-20.08 -58.22,-35.69 -90.33,-46.84 -32.13,-11.15 -66.25,-16.73 -102.38,-16.73 -45.5,0 -87.21,8.48 -125.13,25.65 -37.92,17.17 -70.7,40.59 -98.36,70.04 -27.65,29.44 -49.07,64 -64.46,103.71 -15.39,39.7 -23.19,82.3 -23.19,127.81 0,45.04 7.8,87.21 23.19,126.68 15.39,39.47 36.81,74.05 64.46,103.49 27.66,29.44 60.44,52.64 98.36,69.58 37.92,16.96 79.63,25.44 125.13,25.44 36.13,0 70.7,-5.59 103.49,-16.73 32.79,-11.16 62.89,-26.77 90.55,-46.84 3.57,-2.67 7.36,-4.46 11.16,-5.35 3.78,-0.9 6.9,-1.56 9.58,-2.01 7.59,0 15.4,4.9 23.43,14.71l66.24 111.75c2.68,5.35 4.01,10.27 4.01,14.72 0,6.25 -1.79,11.37 -5.57,15.4 -3.79,4.01 -8.26,7.8 -13.16,11.37 -41.94,28.1 -86.99,49.74 -135.39,65.12 -48.4,15.62 -99.47,23.2 -153.01,23.2 -47.28,0 -92.56,-6.02 -136.05,-18.07 -43.49,-12.04 -84.31,-29.22 -122.23,-51.52 -37.92,-22.3 -72.26,-49.07 -103.26,-80.07 -31.01,-31 -57.78,-65.34 -80.08,-103.04 -22.3,-37.7 -39.47,-78.29 -51.52,-121.78 -12.04,-43.5 -18.07,-88.77 -18.07,-136.05 0,-47.29 6.03,-92.8 18.07,-136.28 12.05,-43.5 29.22,-84.32 51.52,-122.46 22.3,-38.14 49.07,-72.71 80.08,-103.93 31,-31.23 65.34,-58 103.26,-80.07 37.92,-22.08 78.74,-39.26 122.23,-51.53 43.49,-12.26 88.77,-18.29 136.05,-18.29 53.08,0 103.5,7.36 151.23,22.31 47.73,14.94 92.56,36.57 134.49,64.68zm-1628.65 -40.14c0,-21.41 9.83,-32.13 29.45,-32.13l645.04 0c11.59,0 19.85,3.13 24.75,9.6 4.91,6.46 7.36,14.71 7.36,24.53l0 117.76c0,8.04 -2.68,15.17 -8.25,21.42 -5.57,6.24 -14.05,9.36 -25.21,9.36l-475.75 0 0 203.42 366.69 0c8.92,-0.9 16.05,0.89 21.41,5.58 5.35,4.68 8.03,12.71 8.03,23.86l0 121.11c0,8.03 -2.23,15.17 -6.69,21.41 -4.46,6.24 -11.6,9.37 -21.41,9.37l-368.03 0 0 243.56 493.15 0c12.49,0 20.74,2.68 24.75,8.03 4.03,5.35 6.03,13.6 6.03,24.76l0 121.78c0,18.74 -9.81,28.1 -29.44,28.1l-662.43 0c-8.04,0 -14.94,-2.23 -20.74,-6.69 -5.8,-4.46 -8.71,-11.6 -8.71,-21.41l0 -933.42z"></path>
    <path class="fil1" d="M12470.6 1039.5c-5.8,0 -11.15,-1.57 -16.07,-4.47 -4.9,-2.9 -10.48,-6.69 -16.72,-11.6l-1.34 -0.66c-8.48,-8.48 -19.4,-17.85 -32.78,-28.11 -13.39,-10.26 -28.33,-19.86 -44.83,-28.77 -16.51,-8.92 -34.13,-16.51 -53.09,-22.75 -18.95,-6.25 -38.36,-9.37 -57.99,-9.37 -24.98,0 -47.07,2.68 -66.25,8.25 -19.18,5.58 -35.23,13.16 -48.18,22.76 -12.93,9.58 -22.74,20.96 -29.43,33.9 -6.69,12.93 -10.04,26.75 -10.04,41.48 0,16.06 5.13,30.12 15.17,42.16 10.04,12.03 23.64,22.75 40.82,32.11 17.17,9.37 36.79,17.85 59.1,25.65 22.3,7.81 45.72,15.62 70.26,23.19 28.1,8.48 55.98,17.63 83.64,27.44 27.66,9.82 54.2,20.74 79.4,33.02 25.21,12.26 48.63,25.86 70.48,40.81 21.86,14.94 40.82,32.12 56.65,51.52 15.84,19.41 28.33,41.04 37.48,64.91 9.14,23.86 13.59,50.85 13.59,80.74 0,48.62 -9.81,92.56 -29.43,131.81 -19.63,39.26 -46.62,72.71 -81.19,100.6 -34.57,27.87 -75.17,49.28 -121.77,64.23 -46.62,15.17 -96.81,22.53 -150.34,22.53 -34.35,0 -68.47,-4.02 -102.37,-12.04 -33.91,-8.03 -66.47,-19.41 -97.69,-34.13 -31.24,-14.72 -60.67,-32.57 -88.56,-53.31 -27.87,-20.74 -52.86,-43.94 -74.72,-69.81l0 0.68 -1.33 -2.68c-9.81,-11.16 -14.72,-21.41 -14.72,-30.78 0,-4.91 1.34,-9.6 4.01,-14.05 2.68,-4.47 6.7,-9.37 12.04,-14.73l22.09 -22.08c6.69,-5.8 13.83,-12.26 21.41,-19.41 7.59,-7.13 15.17,-13.6 22.75,-19.4 7.58,-5.8 14.72,-10.7 21.19,-14.71 6.47,-4.03 11.6,-6.03 15.61,-6.03 6.25,0 12.05,2 17.4,6.03 5.35,4.01 9.81,7.8 13.38,11.37l2.68 2.68 -0.67 0c15.61,14.71 33.24,28.77 52.63,42.15 19.41,13.38 39.26,25.21 59.78,35.69 20.53,10.48 41.04,18.73 61.33,24.75 20.31,6.03 39.26,9.15 57.11,9.15 24.53,0 47.5,-3.12 68.92,-9.37 21.41,-6.24 39.93,-15.16 55.54,-26.55 15.61,-11.37 27.87,-24.98 36.79,-41.03 8.93,-16.06 13.39,-33.9 13.39,-53.53 0,-19.63 -5.8,-36.58 -17.4,-50.63 -11.6,-14.06 -26.77,-26.32 -45.5,-36.8 -18.73,-10.49 -39.7,-19.41 -63.12,-26.99 -23.42,-7.59 -47.06,-14.72 -70.71,-21.41 -54.41,-16.51 -101.92,-34.36 -142.74,-53.54 -40.82,-19.18 -74.95,-40.82 -102.16,-64.68 -27.2,-23.86 -47.51,-50.63 -61.11,-80.29 -13.6,-29.66 -20.51,-62.9 -20.51,-99.93 0,-41.48 8.47,-79.4 25.19,-113.52 16.73,-34.13 40.38,-63.34 71.16,-87.65 30.77,-24.32 67.8,-43.28 111.07,-56.89 43.28,-13.59 91.67,-20.29 145.2,-20.29 40.6,0 81.86,6.24 123.79,18.96 41.93,12.72 80.74,30.33 116.42,52.64 10.71,6.68 21.64,14.27 32.8,22.75 11.14,8.47 21.41,16.95 30.78,25.65 9.37,8.7 17.17,17.18 23.19,25.43 6.03,8.25 8.92,15.38 8.92,21.18 0,5.36 -1.33,10.71 -4.01,16.28 -2.68,5.58 -6.03,10.72 -10.04,15.17l-20.08 21.41 0 -0.67c-6.69,7.15 -13.6,14.51 -20.74,22.09 -7.13,7.57 -14.27,14.27 -21.41,20.29 -7.13,6.03 -13.61,11.16 -19.41,15.17 -5.8,4.01 -10.7,6.03 -14.71,6.03zm472.4 231.51c0,45.05 8.25,87.21 24.53,126.46 16.28,39.26 38.59,73.38 66.92,102.38 28.32,28.99 61.77,51.96 100.36,68.92 38.58,16.94 80.3,25.42 125.35,25.42 44.61,0 86.32,-8.48 124.9,-25.42 38.59,-16.96 72.05,-39.93 100.59,-68.92 28.56,-29 51.09,-63.12 67.36,-102.38 16.28,-39.25 24.32,-81.41 24.32,-126.46 0,-44.61 -8.04,-86.54 -24.32,-125.8 -16.27,-39.26 -38.8,-73.6 -67.36,-102.82 -28.54,-29.22 -62,-52.19 -100.59,-69.15 -38.58,-16.94 -80.29,-25.42 -124.9,-25.42 -45.05,0 -86.77,8.48 -125.35,25.42 -38.59,16.96 -72.04,39.93 -100.36,69.15 -28.33,29.22 -50.64,63.56 -66.92,102.82 -16.28,39.26 -24.53,81.19 -24.53,125.8zm-193.38 1.34c0,-46.85 6.02,-92.12 18.06,-135.83 12.05,-43.73 29.22,-84.53 51.53,-122.46 22.3,-37.91 49.07,-72.48 80.07,-103.71 31,-31.22 65.35,-57.99 103.27,-80.07 37.91,-22.08 78.73,-39.26 122.23,-51.52 43.48,-12.28 88.76,-18.29 136.05,-18.29 46.84,0 92.12,6.01 135.61,18.29 43.49,12.26 84.08,29.44 122.01,51.52 37.91,22.08 72.48,48.85 103.71,80.07 31.22,31.23 57.99,65.8 80.07,103.71 22.08,37.93 39.25,78.73 51.52,122.46 12.26,43.71 18.29,89.21 18.29,136.49 0,47.29 -6.03,92.57 -18.29,135.84 -12.27,43.26 -29.44,83.87 -51.52,121.78 -22.08,37.91 -48.85,72.27 -80.07,103.26 -31.23,31.01 -65.8,57.55 -103.71,79.64 -37.93,22.07 -78.52,39.24 -122.01,51.29 -43.49,12.04 -88.99,18.07 -136.28,18.07 -47.28,0 -92.57,-6.03 -136.05,-18.07 -43.5,-12.05 -84.32,-29.22 -122.23,-51.52 -37.92,-22.3 -72.27,-49.07 -103.27,-80.08 -31,-30.99 -57.54,-65.34 -79.63,-103.04 -22.08,-37.69 -39.25,-78.28 -51.3,-121.78 -12.04,-43.5 -18.06,-88.77 -18.06,-136.05zm1199.74 -467.05c0,-9.81 2.67,-17.4 7.81,-22.53 5.13,-5.13 11.82,-7.81 20.3,-8.25l635.66 0c20.52,0 30.78,10.71 30.78,32.12l0 116.43c0,8.02 -2.68,15.16 -8.03,21.63 -5.35,6.47 -12.93,9.81 -22.75,9.81l-469.05 0 0 267.66c11.59,0 26.98,0 46.16,0 19.18,0 40.15,0 62.9,0 22.75,0 46.4,0 70.93,0.21 24.53,0.23 48.18,0.45 70.93,0.45 22.75,0 43.71,0 62.67,0 18.96,0 34.35,0 46.39,0 8.03,0 14.95,2.23 20.74,6.91 5.8,4.69 8.71,12.49 8.71,23.2l0 113.75c0,8.04 -2.45,15.17 -7.59,21.63 -5.13,6.47 -12.26,9.82 -21.19,9.82l-360.65 0 0 341.93c0,18.73 -10.48,28.1 -31.45,28.1l-136.51 0c-17.84,-0.89 -26.76,-10.26 -26.76,-28.1l0 -934.77zm787.56 -1.34c0,-8.92 2.9,-16.06 8.69,-21.41 5.8,-5.35 13.16,-8.03 22.08,-8.03l703.92 0c8.04,0 15.4,2.45 21.86,7.36 6.47,4.91 10.04,12.26 10.93,22.08l0 117.09c0,8.93 -2.68,16.73 -8.25,23.43 -5.57,6.69 -13.82,10.03 -24.54,10.03l-254.26 0 0 782.88c0,8.03 -2.68,15.16 -8.25,21.41 -5.58,6.24 -13.39,9.37 -23.2,9.37l-131.82 0c-8.03,0 -15.16,-2.9 -21.63,-8.7 -6.47,-5.8 -9.82,-13.16 -9.82,-22.08l0 -782.88 -254.94 0c-8.92,0 -16.28,-2.9 -22.08,-8.47 -5.79,-5.58 -8.69,-13.83 -8.69,-24.99l0 -117.09z"></path>
   </g>
  </g>
 </g>
</svg>