<svg width="160" height="80" viewBox="0 0 160 80" fill="none" xmlns="http://www.w3.org/2000/svg">
<path fill-rule="evenodd" clip-rule="evenodd" d="M34.669 46.2465H20.8617L9.64697 62.2553H42.4412L64.0207 30.575L42.7811 0.916382H10.1569L21.7115 16.5884H34.2856L44.4806 30.7434L34.669 46.2465Z" fill="#00B5FF"/>
<path fill-rule="evenodd" clip-rule="evenodd" d="M135.014 63.0394H154.789L111.278 0.421592L91.0228 0.264893L47.5115 62.8825H67.2871L101.095 14.8801L135.014 63.0394Z" fill="#002A45"/>
<path fill-rule="evenodd" clip-rule="evenodd" d="M110.798 63.0395H91.0223L134.533 0.421631L154.789 0.578591L110.798 63.0395Z" fill="#00B5FF"/>
<path fill-rule="evenodd" clip-rule="evenodd" d="M5.21075 56.6878L14.2063 43.8468L23.5076 30.5693L14.9207 18.9254L5.21128 5.7561L5.21075 56.6878Z" fill="#002A45"/>
<path d="M7.63844 78.039H10.3404V79.1358H6.3277V70.8504H7.63844V78.039Z" fill="black"/>
<path d="M12.7473 71.9472V74.3791H15.5068V75.4878H12.7473V78.0271H15.8517V79.1358H11.4366V70.8385H15.8517V71.9472H12.7473Z" fill="black"/>
<path d="M22.2837 77.4429H18.9379L18.363 79.1358H16.9948L19.8577 70.8385H21.3754L24.2384 79.1358H22.8586L22.2837 77.4429ZM21.9158 76.3342L20.6166 72.4836L19.3058 76.3342H21.9158Z" fill="black"/>
<path d="M28.0932 70.8504C28.944 70.8504 29.6875 71.0213 30.3237 71.363C30.9676 71.6968 31.462 72.1816 31.807 72.8174C32.1596 73.4453 32.3359 74.1804 32.3359 75.0229C32.3359 75.8653 32.1596 76.5965 31.807 77.2164C31.462 77.8363 30.9676 78.3132 30.3237 78.647C29.6875 78.9729 28.944 79.1358 28.0932 79.1358H25.4832V70.8504H28.0932ZM28.0932 78.0271C29.0283 78.0271 29.745 77.7648 30.2433 77.2403C30.7415 76.7157 30.9906 75.9766 30.9906 75.0229C30.9906 74.0612 30.7415 73.3102 30.2433 72.7697C29.745 72.2293 29.0283 71.9591 28.0932 71.9591H26.7939V78.0271H28.0932Z" fill="black"/>
<path d="M34.9457 71.9472V74.3791H37.7051V75.4878H34.9457V78.0271H38.0501V79.1358H33.6349V70.8385H38.0501V71.9472H34.9457Z" fill="black"/>
<path d="M43.8152 79.1358L41.9756 75.8216H40.9753V79.1358H39.6645V70.8504H42.424C43.0372 70.8504 43.5546 70.9617 43.9762 71.1842C44.4054 71.4067 44.7235 71.7048 44.9305 72.0783C45.1451 72.4518 45.2524 72.8691 45.2524 73.33C45.2524 73.8705 45.0991 74.3632 44.7925 74.8083C44.4936 75.2454 44.0298 75.5435 43.4013 75.7024L45.3789 79.1358H43.8152ZM40.9753 74.7368H42.424C42.9146 74.7368 43.2825 74.6096 43.5278 74.3553C43.7807 74.101 43.9072 73.7592 43.9072 73.33C43.9072 72.9009 43.7846 72.5671 43.5393 72.3286C43.294 72.0823 42.9222 71.9591 42.424 71.9591H40.9753V74.7368Z" fill="black"/>
<path d="M49.5622 79.2192C49.0257 79.2192 48.5428 79.1239 48.1135 78.9331C47.6842 78.7344 47.347 78.4563 47.1017 78.0986C46.8564 77.741 46.7338 77.3237 46.7338 76.8469H48.1365C48.1672 77.2045 48.3013 77.4986 48.5389 77.7291C48.7842 77.9595 49.1253 78.0748 49.5622 78.0748C50.0145 78.0748 50.3671 77.9635 50.62 77.741C50.873 77.5105 50.9994 77.2164 50.9994 76.8588C50.9994 76.5806 50.919 76.3541 50.758 76.1793C50.6047 76.0044 50.4092 75.8693 50.1716 75.7739C49.9416 75.6786 49.6197 75.5752 49.2058 75.464C48.6846 75.3209 48.2591 75.1779 47.9295 75.0348C47.6076 74.8838 47.3317 74.6533 47.1017 74.3434C46.8717 74.0334 46.7568 73.6201 46.7568 73.1035C46.7568 72.6267 46.8717 72.2094 47.1017 71.8518C47.3317 71.4941 47.6536 71.2199 48.0675 71.0292C48.4814 70.8385 48.9605 70.7431 49.5047 70.7431C50.2789 70.7431 50.9113 70.9458 51.4019 71.3511C51.9001 71.7485 52.176 72.2969 52.2297 72.9962H50.781C50.758 72.6942 50.62 72.4359 50.3671 72.2213C50.1141 72.0068 49.7807 71.8995 49.3668 71.8995C48.9912 71.8995 48.6846 71.9988 48.4469 72.1975C48.2093 72.3962 48.0905 72.6823 48.0905 73.0558C48.0905 73.3102 48.1633 73.5208 48.309 73.6877C48.4623 73.8466 48.6539 73.9738 48.8839 74.0692C49.1138 74.1645 49.4281 74.2679 49.8267 74.3791C50.3556 74.5301 50.7848 74.6811 51.1144 74.8321C51.4517 74.9831 51.7353 75.2176 51.9653 75.5355C52.2029 75.8455 52.3217 76.2627 52.3217 76.7873C52.3217 77.2085 52.2105 77.6059 51.9883 77.9794C51.7736 78.3529 51.4555 78.655 51.0339 78.8854C50.62 79.108 50.1294 79.2192 49.5622 79.2192Z" fill="black"/>
<path d="M58.1658 70.8504V79.1358H56.855V70.8504H58.1658Z" fill="black"/>
<path d="M66.4519 79.1358H65.1412L61.1974 72.9486V79.1358H59.8867V70.8385H61.1974L65.1412 77.0138V70.8385H66.4519V79.1358Z" fill="black"/>
<path d="M73.7699 70.8504C74.6207 70.8504 75.3643 71.0213 76.0005 71.363C76.6443 71.6968 77.1387 72.1816 77.4837 72.8174C77.8363 73.4453 78.0126 74.1804 78.0126 75.0229C78.0126 75.8653 77.8363 76.5965 77.4837 77.2164C77.1387 77.8363 76.6443 78.3132 76.0005 78.647C75.3643 78.9729 74.6207 79.1358 73.7699 79.1358H71.1599V70.8504H73.7699ZM73.7699 78.0271C74.7051 78.0271 75.4217 77.7648 75.92 77.2403C76.4182 76.7157 76.6673 75.9766 76.6673 75.0229C76.6673 74.0612 76.4182 73.3102 75.92 72.7697C75.4217 72.2293 74.7051 71.9591 73.7699 71.9591H72.4706V78.0271H73.7699Z" fill="black"/>
<path d="M85.233 70.8504L82.5885 76.1316V79.1358H81.2778V76.1316L78.6218 70.8504H80.082L81.9331 74.9156L83.7843 70.8504H85.233Z" fill="black"/>
<path d="M92.8384 79.1358H91.5277L87.5839 72.9486V79.1358H86.2732V70.8385H87.5839L91.5277 77.0138V70.8385H92.8384V79.1358Z" fill="black"/>
<path d="M99.3772 77.4429H96.0314L95.4565 79.1358H94.0883L96.9512 70.8385H98.4689L101.332 79.1358H99.9521L99.3772 77.4429ZM99.0093 76.3342L97.7101 72.4836L96.3993 76.3342H99.0093Z" fill="black"/>
<path d="M110.993 70.8504V79.1358H109.682V73.4612L107.245 79.1358H106.336L103.887 73.4612V79.1358H102.577V70.8504H103.991L106.796 77.3476L109.59 70.8504H110.993Z" fill="black"/>
<path d="M114.027 70.8504V79.1358H112.716V70.8504H114.027Z" fill="black"/>
<path d="M115.311 74.9752C115.311 74.1645 115.491 73.4373 115.851 72.7936C116.219 72.1498 116.713 71.6491 117.334 71.2915C117.963 70.9259 118.649 70.7431 119.392 70.7431C120.243 70.7431 120.998 70.9616 121.657 71.3988C122.324 71.8279 122.807 72.4399 123.106 73.2347H121.531C121.324 72.7976 121.036 72.4717 120.669 72.2571C120.301 72.0425 119.875 71.9352 119.392 71.9352C118.863 71.9352 118.392 72.0584 117.978 72.3048C117.564 72.5512 117.238 72.9048 117.001 73.3658C116.771 73.8268 116.656 74.3632 116.656 74.9752C116.656 75.5872 116.771 76.1236 117.001 76.5846C117.238 77.0456 117.564 77.4032 117.978 77.6575C118.392 77.9039 118.863 78.0271 119.392 78.0271C119.875 78.0271 120.301 77.9198 120.669 77.7052C121.036 77.4906 121.324 77.1648 121.531 76.7277H123.106C122.807 77.5224 122.324 78.1344 121.657 78.5636C120.998 78.9927 120.243 79.2073 119.392 79.2073C118.641 79.2073 117.955 79.0285 117.334 78.6708C116.713 78.3053 116.219 77.8006 115.851 77.1568C115.491 76.5131 115.311 75.7859 115.311 74.9752Z" fill="black"/>
<path d="M127.273 79.2192C126.737 79.2192 126.254 79.1239 125.825 78.9331C125.395 78.7344 125.058 78.4563 124.813 78.0986C124.567 77.741 124.445 77.3237 124.445 76.8469H125.848C125.878 77.2045 126.012 77.4986 126.25 77.7291C126.495 77.9595 126.836 78.0748 127.273 78.0748C127.726 78.0748 128.078 77.9635 128.331 77.741C128.584 77.5105 128.71 77.2164 128.71 76.8588C128.71 76.5806 128.63 76.3541 128.469 76.1793C128.316 76.0044 128.12 75.8693 127.883 75.7739C127.653 75.6786 127.331 75.5752 126.917 75.464C126.396 75.3209 125.97 75.1779 125.641 75.0348C125.319 74.8838 125.043 74.6533 124.813 74.3434C124.583 74.0334 124.468 73.6201 124.468 73.1035C124.468 72.6267 124.583 72.2094 124.813 71.8518C125.043 71.4941 125.365 71.2199 125.779 71.0292C126.192 70.8385 126.672 70.7431 127.216 70.7431C127.99 70.7431 128.622 70.9458 129.113 71.3511C129.611 71.7485 129.887 72.2969 129.941 72.9962H128.492C128.469 72.6942 128.331 72.4359 128.078 72.2213C127.825 72.0068 127.492 71.8995 127.078 71.8995C126.702 71.8995 126.396 71.9988 126.158 72.1975C125.92 72.3962 125.802 72.6823 125.802 73.0558C125.802 73.3102 125.874 73.5208 126.02 73.6877C126.173 73.8466 126.365 73.9738 126.595 74.0692C126.825 74.1645 127.139 74.2679 127.538 74.3791C128.067 74.5301 128.496 74.6811 128.825 74.8321C129.163 74.9831 129.446 75.2176 129.676 75.5355C129.914 75.8455 130.033 76.2627 130.033 76.7873C130.033 77.2085 129.922 77.6059 129.699 77.9794C129.485 78.3529 129.167 78.655 128.745 78.8854C128.331 79.108 127.84 79.2192 127.273 79.2192Z" fill="black"/>
<path d="M134.371 72.5909C134.417 71.8518 134.689 71.2756 135.187 70.8623C135.693 70.449 136.337 70.2424 137.119 70.2424C137.655 70.2424 138.119 70.3417 138.51 70.5404C138.901 70.7391 139.196 71.0093 139.395 71.3511C139.594 71.6928 139.694 72.0783 139.694 72.5075C139.694 73.0002 139.568 73.4214 139.315 73.7711C139.062 74.1208 138.759 74.3553 138.406 74.4745V74.5222C138.859 74.6652 139.211 74.9275 139.464 75.309C139.717 75.6825 139.844 76.1634 139.844 76.7515C139.844 77.2204 139.74 77.6377 139.533 78.0032C139.326 78.3688 139.02 78.6589 138.613 78.8735C138.207 79.0801 137.72 79.1835 137.153 79.1835C136.325 79.1835 135.643 78.9649 135.106 78.5278C134.578 78.0827 134.294 77.4469 134.256 76.6204H135.52C135.551 77.0416 135.708 77.3873 135.992 77.6575C136.275 77.9198 136.659 78.0509 137.142 78.0509C137.609 78.0509 137.969 77.9198 138.222 77.6575C138.475 77.3873 138.602 77.0416 138.602 76.6204C138.602 76.064 138.429 75.6706 138.084 75.4401C137.747 75.2017 137.226 75.0825 136.521 75.0825H136.222V73.9619H136.532C137.153 73.9539 137.625 73.8466 137.946 73.64C138.276 73.4334 138.441 73.1075 138.441 72.6624C138.441 72.281 138.322 71.9789 138.084 71.7564C137.847 71.5259 137.51 71.4107 137.073 71.4107C136.643 71.4107 136.31 71.5259 136.072 71.7564C135.835 71.9789 135.693 72.2571 135.647 72.5909H134.371Z" fill="black"/>
<path d="M145.728 72.4598C145.643 72.0942 145.49 71.82 145.268 71.6372C145.045 71.4544 144.735 71.363 144.336 71.363C143.731 71.363 143.279 71.6054 142.98 72.0902C142.681 72.5671 142.524 73.3618 142.508 74.4745C142.707 74.1248 142.999 73.8546 143.382 73.6638C143.765 73.4731 144.179 73.3777 144.624 73.3777C145.13 73.3777 145.574 73.493 145.958 73.7234C146.348 73.946 146.651 74.2718 146.866 74.701C147.088 75.1302 147.199 75.6428 147.199 76.2389C147.199 76.7952 147.092 77.2919 146.877 77.7291C146.67 78.1662 146.36 78.5119 145.946 78.7662C145.532 79.0126 145.034 79.1358 144.451 79.1358C143.662 79.1358 143.041 78.957 142.589 78.5993C142.144 78.2337 141.83 77.7211 141.646 77.0615C141.47 76.4018 141.381 75.5792 141.381 74.5937C141.381 71.6849 142.37 70.2305 144.348 70.2305C145.114 70.2305 145.716 70.4451 146.153 70.8742C146.598 71.3034 146.858 71.8319 146.935 72.4598H145.728ZM144.336 74.5222C143.869 74.5222 143.47 74.6692 143.141 74.9633C142.819 75.2494 142.658 75.6666 142.658 76.215C142.658 76.7634 142.807 77.2005 143.106 77.5264C143.413 77.8443 143.838 78.0032 144.382 78.0032C144.865 78.0032 145.245 77.8483 145.521 77.5383C145.804 77.2284 145.946 76.8151 145.946 76.2985C145.946 75.758 145.808 75.3289 145.532 75.011C145.264 74.6851 144.865 74.5222 144.336 74.5222Z" fill="black"/>
<path d="M154.001 71.6134H150.15V73.9857C150.311 73.7632 150.548 73.5764 150.863 73.4254C151.184 73.2744 151.526 73.1989 151.886 73.1989C152.53 73.1989 153.051 73.342 153.45 73.6281C153.856 73.9142 154.143 74.2758 154.312 74.7129C154.488 75.15 154.576 75.611 154.576 76.0958C154.576 76.6839 154.465 77.2085 154.243 77.6694C154.028 78.1225 153.702 78.4801 153.266 78.7424C152.836 79.0046 152.307 79.1358 151.679 79.1358C150.843 79.1358 150.173 78.9212 149.667 78.492C149.161 78.0629 148.858 77.4946 148.758 76.7873H150.035C150.119 77.1608 150.307 77.4588 150.598 77.6814C150.889 77.896 151.253 78.0032 151.69 78.0032C152.235 78.0032 152.641 77.8324 152.909 77.4906C153.185 77.1489 153.323 76.6959 153.323 76.1316C153.323 75.5594 153.185 75.1222 152.909 74.8202C152.633 74.5103 152.227 74.3553 151.69 74.3553C151.315 74.3553 150.997 74.4546 150.736 74.6533C150.483 74.8441 150.299 75.1063 150.184 75.4401H148.942V70.4212H154.001V71.6134Z" fill="black"/>
</svg>
