<svg width="1950" height="975" viewBox="0 0 1950 975" fill="none" xmlns="http://www.w3.org/2000/svg">
<path fill-rule="evenodd" clip-rule="evenodd" d="M422.528 563.629H254.252L117.572 758.737H517.252L780.252 372.633L521.395 11.1685H123.787L264.609 202.171H417.856L542.107 374.685L422.528 563.629Z" fill="#00B5FF"/>
<path fill-rule="evenodd" clip-rule="evenodd" d="M1645.48 768.293H1886.49L1356.2 5.13804L1109.34 3.22827L579.046 766.38H820.062L1232.1 181.351L1645.48 768.293Z" fill="white"/>
<path fill-rule="evenodd" clip-rule="evenodd" d="M1350.35 768.294H1109.33L1639.62 5.13867L1886.49 7.05162L1350.35 768.294Z" fill="#00B5FF"/>
<path fill-rule="evenodd" clip-rule="evenodd" d="M63.506 690.883L173.139 534.383L286.499 372.563L181.846 230.653L63.5125 70.1526L63.506 690.883Z" fill="white"/>
<path d="M93.0935 951.1H126.024V964.468H77.1188V863.489H93.0935V951.1Z" fill="white"/>
<path d="M155.358 876.856V906.495H188.989V920.008H155.358V950.955H193.193V964.468H139.384V863.344H193.193V876.856H155.358Z" fill="white"/>
<path d="M271.583 943.835H230.806L223.799 964.468H207.124L242.016 863.344H260.513L295.406 964.468H278.589L271.583 943.835ZM267.099 930.323L251.265 883.394L235.289 930.323H267.099Z" fill="white"/>
<path d="M342.386 863.489C352.755 863.489 361.816 865.572 369.57 869.737C377.418 873.805 383.443 879.713 387.648 887.462C391.945 895.115 394.094 904.074 394.094 914.342C394.094 924.608 391.945 933.52 387.648 941.075C383.443 948.63 377.418 954.442 369.57 958.51C361.816 962.482 352.755 964.468 342.386 964.468H310.577V863.489H342.386ZM342.386 950.955C353.782 950.955 362.517 947.759 368.59 941.366C374.662 934.973 377.698 925.965 377.698 914.342C377.698 902.621 374.662 893.468 368.59 886.881C362.517 880.295 353.782 877.001 342.386 877.001H326.551V950.955H342.386Z" fill="white"/>
<path d="M425.901 876.856V906.495H459.531V920.008H425.901V950.955H463.736V964.468H409.925V863.344H463.736V876.856H425.901Z" fill="white"/>
<path d="M533.998 964.468L511.578 924.076H499.386V964.468H483.411V863.489H517.043C524.516 863.489 530.822 864.846 535.96 867.557C541.191 870.269 545.068 873.902 547.59 878.454C550.206 883.006 551.514 888.092 551.514 893.709C551.514 900.297 549.645 906.301 545.909 911.726C542.266 917.053 536.613 920.686 528.953 922.623L553.055 964.468H533.998ZM499.386 910.855H517.043C523.022 910.855 527.506 909.304 530.495 906.205C533.577 903.106 535.119 898.94 535.119 893.709C535.119 888.48 533.625 884.411 530.635 881.505C527.646 878.503 523.114 877.001 517.043 877.001H499.386V910.855Z" fill="white"/>
<path d="M604.039 965.484C597.501 965.484 591.615 964.323 586.383 961.997C581.151 959.576 577.042 956.186 574.052 951.827C571.062 947.469 569.568 942.383 569.568 936.572H586.664C587.038 940.93 588.672 944.514 591.568 947.324C594.557 950.132 598.715 951.537 604.039 951.537C609.552 951.537 613.849 950.18 616.931 947.468C620.015 944.659 621.555 941.075 621.555 936.717C621.555 933.326 620.575 930.566 618.613 928.435C616.745 926.304 614.362 924.657 611.466 923.495C608.663 922.333 604.74 921.073 599.696 919.718C593.344 917.974 588.158 916.231 584.141 914.487C580.218 912.646 576.855 909.837 574.052 906.06C571.249 902.282 569.849 897.245 569.849 890.949C569.849 885.138 571.249 880.052 574.052 875.694C576.855 871.334 580.778 867.993 585.823 865.668C590.867 863.344 596.706 862.182 603.339 862.182C612.774 862.182 620.481 864.652 626.461 869.592C632.532 874.435 635.895 881.119 636.549 889.641H618.893C618.613 885.961 616.931 882.813 613.849 880.197C610.766 877.583 606.702 876.275 601.658 876.275C597.08 876.275 593.344 877.485 590.447 879.907C587.551 882.329 586.103 885.816 586.103 890.368C586.103 893.468 586.99 896.035 588.766 898.069C590.634 900.005 592.969 901.556 595.773 902.718C598.574 903.88 602.405 905.14 607.263 906.495C613.709 908.336 618.94 910.176 622.957 912.016C627.068 913.857 630.524 916.715 633.327 920.589C636.223 924.367 637.671 929.452 637.671 935.845C637.671 940.979 636.315 945.822 633.607 950.374C630.991 954.926 627.114 958.608 621.976 961.416C616.931 964.129 610.952 965.484 604.039 965.484Z" fill="white"/>
<path d="M708.896 863.489V964.468H692.92V863.489H708.896Z" fill="white"/>
<path d="M809.883 964.468H793.908L745.843 889.061V964.468H729.869V863.344H745.843L793.908 938.606V863.344H809.883V964.468Z" fill="white"/>
<path d="M899.071 863.489C909.44 863.489 918.502 865.572 926.256 869.737C934.102 873.805 940.128 879.713 944.333 887.462C948.63 895.115 950.779 904.074 950.779 914.342C950.779 924.608 948.63 933.52 944.333 941.075C940.128 948.63 934.102 954.442 926.256 958.51C918.502 962.482 909.44 964.468 899.071 964.468H867.261V863.489H899.071ZM899.071 950.955C910.468 950.955 919.202 947.759 925.275 941.366C931.347 934.973 934.383 925.965 934.383 914.342C934.383 902.621 931.347 893.468 925.275 886.881C919.202 880.295 910.468 877.001 899.071 877.001H883.235V950.955H899.071Z" fill="white"/>
<path d="M1038.78 863.489L1006.55 927.854V964.468H990.573V927.854L958.203 863.489H975.999L998.56 913.034L1021.12 863.489H1038.78Z" fill="white"/>
<path d="M1131.47 964.468H1115.49L1067.43 889.061V964.468H1051.45V863.344H1067.43L1115.49 938.606V863.344H1131.47V964.468Z" fill="white"/>
<path d="M1211.16 943.835H1170.38L1163.38 964.468H1146.7L1181.59 863.344H1200.09L1234.98 964.468H1218.17L1211.16 943.835ZM1206.68 930.323L1190.84 883.394L1174.87 930.323H1206.68Z" fill="white"/>
<path d="M1352.73 863.489V964.468H1336.75V895.308L1307.05 964.468H1295.97L1266.12 895.308V964.468H1250.16V863.489H1267.39L1301.58 942.674L1335.63 863.489H1352.73Z" fill="white"/>
<path d="M1389.7 863.489V964.468H1373.73V863.489H1389.7Z" fill="white"/>
<path d="M1405.35 913.76C1405.35 903.88 1407.55 895.017 1411.93 887.172C1416.42 879.326 1422.44 873.223 1430.01 868.865C1437.67 864.409 1446.03 862.182 1455.09 862.182C1465.46 862.182 1474.66 864.845 1482.69 870.173C1490.82 875.403 1496.71 882.861 1500.35 892.548H1481.16C1478.64 887.221 1475.13 883.249 1470.65 880.634C1466.17 878.018 1460.98 876.71 1455.09 876.71C1448.64 876.71 1442.9 878.212 1437.86 881.215C1432.81 884.218 1428.84 888.527 1425.95 894.146C1423.15 899.764 1421.74 906.302 1421.74 913.76C1421.74 921.219 1423.15 927.756 1425.95 933.375C1428.84 938.993 1432.81 943.352 1437.86 946.451C1442.9 949.454 1448.64 950.955 1455.09 950.955C1460.98 950.955 1466.17 949.648 1470.65 947.032C1475.13 944.417 1478.64 940.446 1481.16 935.119H1500.35C1496.71 944.804 1490.82 952.263 1482.69 957.494C1474.66 962.724 1465.46 965.339 1455.09 965.339C1445.94 965.339 1437.58 963.16 1430.01 958.8C1422.44 954.346 1416.42 948.195 1411.93 940.349C1407.55 932.503 1405.35 923.641 1405.35 913.76Z" fill="white"/>
<path d="M1551.14 965.484C1544.61 965.484 1538.72 964.323 1533.49 961.997C1528.25 959.576 1524.14 956.186 1521.16 951.827C1518.16 947.469 1516.67 942.383 1516.67 936.572H1533.77C1534.14 940.93 1535.77 944.514 1538.67 947.324C1541.66 950.132 1545.81 951.537 1551.14 951.537C1556.66 951.537 1560.95 950.18 1564.03 947.468C1567.12 944.659 1568.65 941.075 1568.65 936.717C1568.65 933.326 1567.68 930.566 1565.72 928.435C1563.85 926.304 1561.46 924.657 1558.57 923.495C1555.77 922.333 1551.85 921.073 1546.8 919.718C1540.45 917.974 1535.26 916.231 1531.25 914.487C1527.33 912.646 1523.96 909.837 1521.16 906.06C1518.36 902.282 1516.95 897.245 1516.95 890.949C1516.95 885.138 1518.36 880.052 1521.16 875.694C1523.96 871.334 1527.89 867.993 1532.93 865.668C1537.97 863.344 1543.82 862.182 1550.45 862.182C1559.88 862.182 1567.58 864.652 1573.56 869.592C1579.63 874.435 1583 881.119 1583.66 889.641H1566C1565.72 885.961 1564.03 882.813 1560.95 880.197C1557.87 877.583 1553.81 876.275 1548.76 876.275C1544.18 876.275 1540.45 877.485 1537.55 879.907C1534.65 882.329 1533.21 885.816 1533.21 890.368C1533.21 893.468 1534.09 896.035 1535.87 898.069C1537.73 900.005 1540.07 901.556 1542.88 902.718C1545.68 903.88 1549.51 905.14 1554.37 906.495C1560.82 908.336 1566.04 910.176 1570.05 912.016C1574.17 913.857 1577.62 916.715 1580.43 920.589C1583.33 924.367 1584.78 929.452 1584.78 935.845C1584.78 940.979 1583.42 945.822 1580.71 950.374C1578.1 954.926 1574.22 958.608 1569.08 961.416C1564.03 964.129 1558.05 965.484 1551.14 965.484Z" fill="white"/>
<path d="M1637.65 884.702C1638.21 875.694 1641.52 868.671 1647.59 863.634C1653.76 858.597 1661.61 856.079 1671.14 856.079C1677.67 856.079 1683.33 857.29 1688.09 859.711C1692.86 862.133 1696.45 865.426 1698.88 869.592C1701.3 873.756 1702.52 878.454 1702.52 883.685C1702.52 889.69 1700.99 894.823 1697.9 899.085C1694.82 903.347 1691.13 906.205 1686.82 907.658V908.239C1692.34 909.982 1696.63 913.179 1699.72 917.828C1702.8 922.381 1704.35 928.242 1704.35 935.409C1704.35 941.124 1703.08 946.21 1700.56 950.664C1698.04 955.12 1694.31 958.655 1689.35 961.271C1684.4 963.789 1678.46 965.049 1671.55 965.049C1661.46 965.049 1653.15 962.385 1646.6 957.058C1640.17 951.633 1636.71 943.884 1636.24 933.811H1651.65C1652.03 938.945 1653.94 943.158 1657.4 946.451C1660.85 949.648 1665.53 951.245 1671.42 951.245C1677.11 951.245 1681.5 949.648 1684.58 946.451C1687.66 943.158 1689.21 938.945 1689.21 933.811C1689.21 927.03 1687.1 922.236 1682.9 919.426C1678.79 916.521 1672.44 915.068 1663.85 915.068H1660.21V901.411H1663.98C1671.55 901.313 1677.3 900.006 1681.22 897.488C1685.24 894.97 1687.25 890.998 1687.25 885.573C1687.25 880.925 1685.8 877.243 1682.9 874.531C1680.01 871.722 1675.9 870.318 1670.58 870.318C1665.34 870.318 1661.28 871.722 1658.38 874.531C1655.49 877.243 1653.76 880.633 1653.2 884.702H1637.65Z" fill="white"/>
<path d="M1776.06 883.104C1775.02 878.648 1773.16 875.306 1770.45 873.078C1767.74 870.85 1763.96 869.736 1759.1 869.736C1751.72 869.736 1746.21 872.691 1742.57 878.599C1738.92 884.411 1737.01 894.097 1736.82 907.658C1739.24 903.396 1742.8 900.103 1747.47 897.777C1752.14 895.453 1757.18 894.291 1762.6 894.291C1768.77 894.291 1774.18 895.696 1778.86 898.504C1783.62 901.217 1787.31 905.187 1789.93 910.418C1792.63 915.649 1793.99 921.896 1793.99 929.161C1793.99 935.941 1792.68 941.995 1790.06 947.323C1787.54 952.65 1783.76 956.864 1778.72 959.963C1773.67 962.966 1767.6 964.467 1760.5 964.467C1750.88 964.467 1743.31 962.288 1737.8 957.929C1732.38 953.473 1728.55 947.226 1726.31 939.187C1724.17 931.147 1723.08 921.121 1723.08 909.111C1723.08 873.66 1735.13 855.934 1759.24 855.934C1768.58 855.934 1775.91 858.55 1781.24 863.779C1786.66 869.01 1789.83 875.451 1790.77 883.104H1776.06ZM1759.1 908.239C1753.4 908.239 1748.54 910.031 1744.53 913.615C1740.61 917.102 1738.64 922.187 1738.64 928.87C1738.64 935.554 1740.46 940.881 1744.1 944.853C1747.85 948.727 1753.03 950.664 1759.66 950.664C1765.54 950.664 1770.17 948.776 1773.54 944.998C1776.99 941.221 1778.72 936.184 1778.72 929.888C1778.72 923.3 1777.04 918.071 1773.67 914.196C1770.41 910.225 1765.54 908.239 1759.1 908.239Z" fill="white"/>
<path d="M1876.89 872.788H1829.95V901.701C1831.92 898.989 1834.8 896.712 1838.64 894.872C1842.55 893.032 1846.72 892.111 1851.11 892.111C1858.96 892.111 1865.31 893.855 1870.17 897.342C1875.12 900.829 1878.62 905.236 1880.68 910.563C1882.82 915.89 1883.89 921.509 1883.89 927.417C1883.89 934.585 1882.54 940.979 1879.84 946.596C1877.22 952.118 1873.24 956.476 1867.93 959.673C1862.69 962.868 1856.24 964.467 1848.59 964.467C1838.4 964.467 1830.23 961.852 1824.07 956.621C1817.9 951.391 1814.21 944.465 1812.99 935.845H1828.55C1829.58 940.397 1831.87 944.029 1835.41 946.742C1838.96 949.357 1843.4 950.664 1848.72 950.664C1855.36 950.664 1860.31 948.582 1863.58 944.417C1866.94 940.252 1868.62 934.731 1868.62 927.854C1868.62 920.88 1866.94 915.552 1863.58 911.871C1860.21 908.094 1855.27 906.205 1848.72 906.205C1844.15 906.205 1840.28 907.415 1837.09 909.837C1834.01 912.162 1831.77 915.358 1830.37 919.426H1815.23V858.258H1876.89V872.788Z" fill="white"/>
</svg>
