<svg xmlns="http://www.w3.org/2000/svg" version="1.1" xmlns:xlink="http://www.w3.org/1999/xlink" width="512" height="512" x="0" y="0" viewBox="0 0 510 510" style="enable-background:new 0 0 512 512" xml:space="preserve" fill-rule="evenodd" class=""><g><path d="m145.785 454.383 4.534 8.011a.128.128 0 0 1 .011.02c4.771 8.485 1.744 19.313-6.692 24.078l-18.448 10.456-.024.013c-8.486 4.771-19.313 1.744-24.081-6.697l-54.247-95.853c-4.814-8.494-1.787-19.333 6.661-24.105l18.469-10.455.007-.004c8.444-4.769 19.276-1.773 24.084 6.67l.011.019 3.535 6.247 47.031-27.23c14.897-8.615 30.137-14.138 46.498-8.825 15.488 5.022 40.768 15.857 66.572 20.519.353.064.701.151 1.042.262 13.805 4.47 22.165 18.445 18.395 32.463a32.453 32.453 0 0 1-.916 2.878 35.366 35.366 0 0 0 4.889-2.375l65.777-38.31c24.506-14.276 40.874-12.489 50.122-6.284 8.145 5.464 11.948 14.78 11.704 23.939-.246 9.268-4.706 18.097-11.974 22.573L279.39 465.879c-12.911 7.968-27.051 9.843-41.702 5.935l-.009-.002-83.379-22.346zm-38.299-67.675 30.419 53.749 11.264-6.504a8 8 0 0 1 6.072-.8l86.573 23.202c10.246 2.733 20.144 1.48 29.173-4.092l.007-.005 119.361-73.489c2.942-1.811 4.27-5.623 4.37-9.374.3-11.315-11.113-18.939-37.778-3.404l-65.775 38.308c-10.852 6.323-22.223 8.082-34.618 6.109a.251.251 0 0 0-.027-.004l-8.153-1.327-.01-.002a7.05 7.05 0 0 1-.323-.059l-.012-.003c-14.872-3.053-28.666-7.543-43.972-11.656-4.264-1.146-6.795-5.539-5.649-9.803s5.538-6.795 9.802-5.649c14.869 3.996 28.274 8.38 42.707 11.367 6.478.695 11.281-1.891 12.774-7.451l.001-.004c1.502-5.584-2.026-10.962-7.431-12.934-26.394-4.864-52.218-15.798-68.064-20.936l-.003-.001c-11.881-3.858-22.73 1.202-33.547 7.458zm-25.332-12.276-.006-.009c-.465-.803-1.496-1.101-2.304-.645L61.382 384.23l-.007.004c-.801.452-1.073 1.483-.617 2.287l.002.005 54.25 95.858.003.006c.456.807 1.496 1.08 2.308.627l18.427-10.445.011-.005c.808-.457 1.081-1.497.626-2.309zm-5.65 9.358c4.186-.623 8.074 2.268 8.697 6.455.598 4.187-2.293 8.099-6.479 8.697-4.187.623-8.075-2.292-8.698-6.479-.598-4.187 2.293-8.075 6.48-8.673zm257.26-344.887a145.73 145.73 0 0 1 35.015 14.511l22.511-10.009a8 8 0 0 1 8.907 1.653l30.974 30.974a7.999 7.999 0 0 1 1.657 8.897l-9.973 22.514a145.456 145.456 0 0 1 14.519 35.069l22.958 8.836a8 8 0 0 1 5.126 7.466v43.814a8 8 0 0 1-5.126 7.466l-22.963 8.837c-3.297 12.253-8.195 24.01-14.518 35.014l9.977 22.524a7.998 7.998 0 0 1-1.657 8.897l-30.974 30.974a8 8 0 0 1-8.897 1.658l-22.508-9.971a145.317 145.317 0 0 1-35.03 14.513l-8.837 22.961a8 8 0 0 1-7.466 5.127h-43.814a8 8 0 0 1-7.466-5.127l-8.836-22.959c-12.288-3.298-24.052-8.197-35.059-14.521l-22.525 9.977a8 8 0 0 1-8.896-1.658l-30.974-30.974a8 8 0 0 1-1.653-8.907l10.006-22.504c-6.346-10.979-11.219-22.763-14.541-35.019l-22.973-8.842a8 8 0 0 1-5.127-7.466v-43.814a8 8 0 0 1 5.127-7.466l22.97-8.84a146.744 146.744 0 0 1 14.546-35.059l-10.008-22.51a8 8 0 0 1 1.653-8.907l30.974-30.974a8 8 0 0 1 8.907-1.653l22.51 10.009a145.718 145.718 0 0 1 35.022-14.512l8.879-23.012a8.001 8.001 0 0 1 7.464-5.12h43.814c3.311 0 6.28 2.04 7.467 5.131zm-13.449 9.607-8.353-21.74h-32.829l-8.393 21.751a8 8 0 0 1-5.614 4.903 129.798 129.798 0 0 0-38.113 15.794 8 8 0 0 1-7.447.499l-21.276-9.459-23.202 23.202 9.46 21.275a8 8 0 0 1-.499 7.447c-7.277 11.81-12.599 24.66-15.843 38.175a7.998 7.998 0 0 1-4.905 5.599l-21.7 8.352v32.827l21.7 8.351a8.002 8.002 0 0 1 4.904 5.594c3.243 13.47 8.562 26.359 15.837 38.125a8.002 8.002 0 0 1 .506 7.458l-9.46 21.275 23.208 23.208 21.28-9.426a8.005 8.005 0 0 1 7.42.493c11.808 7.235 24.655 12.602 38.169 15.804a8.002 8.002 0 0 1 5.622 4.911l8.351 21.7h32.827l8.352-21.7a8 8 0 0 1 5.616-4.91c13.463-3.199 26.344-8.516 38.103-15.787a8 8 0 0 1 7.447-.511l21.28 9.426 23.214-23.213-9.426-21.28a8.002 8.002 0 0 1 .493-7.42c7.236-11.809 12.603-24.657 15.805-38.13a8 8 0 0 1 4.91-5.617l21.699-8.351v-32.827l-21.699-8.352a7.998 7.998 0 0 1-4.911-5.622 129.58 129.58 0 0 0-15.793-38.152 7.998 7.998 0 0 1-.504-7.436l9.426-21.28-23.208-23.208-21.276 9.459a8 8 0 0 1-7.447-.499 129.776 129.776 0 0 0-38.113-15.794 8 8 0 0 1-5.618-4.914zm-24.794 17.033c63.622 0 115.209 51.525 115.209 115.147 0 63.621-51.588 115.21-115.209 115.21-63.623 0-115.148-51.587-115.148-115.21S231.897 65.543 295.521 65.543zm0 16c-54.783 0-99.148 44.364-99.148 99.147 0 54.784 44.364 99.21 99.148 99.21 54.785 0 99.209-44.424 99.209-99.21 0-54.784-44.425-99.147-99.209-99.147zm-12.823 174.335c0 4.415-3.585 8-8 8s-8-3.585-8-8v-37.05c-19.634-10.359-33.04-30.999-33.04-54.737 0-24.135 13.8-45.031 33.932-55.25a8.001 8.001 0 0 1 11.621 7.134v49.573l16.341 9.43 16.34-9.43v-49.573a8.001 8.001 0 0 1 11.621-7.134c20.132 10.219 33.933 31.115 33.933 55.25 0 23.741-13.378 44.381-33.04 54.74v37.035c0 4.415-3.585 8-8 8-4.416 0-8-3.585-8-8v-42.098a8 8 0 0 1 4.909-7.379c16.54-6.927 28.131-23.27 28.131-42.298 0-12.738-5.184-24.259-13.554-32.576v38.653a8 8 0 0 1-4.001 6.929l-24.341 14.046a8 8 0 0 1-7.997 0l-24.34-14.046a8 8 0 0 1-4.002-6.929l.001-38.654c-8.37 8.318-13.554 19.839-13.554 32.577 0 19.03 11.622 35.373 28.135 42.3a8 8 0 0 1 4.905 7.377z" fill="#02b5ff" opacity="1" data-original="#000000" class=""></path></g></svg>