<svg width="60" height="60" viewBox="0 0 60 60" fill="none" xmlns="http://www.w3.org/2000/svg">
<g clip-path="url(#clip0_55573_38617)">
<path d="M56.3753 36.9049C56.2974 36.9101 56.2205 36.925 56.1463 36.9492L41.0654 41.8744C40.9945 41.1888 40.7598 40.5303 40.3812 39.9544C40.2802 39.801 40.1364 39.6806 39.9676 39.6083L24.8036 33.1096C24.1734 32.832 23.4921 32.6896 22.8035 32.6917C22.1149 32.6937 21.4344 32.84 20.8059 33.1213L14.3311 35.9421V35.395C14.3305 34.9018 14.1344 34.4291 13.7857 34.0804C13.437 33.7317 12.9642 33.5355 12.4711 33.535H1.86012C1.36695 33.5355 0.894151 33.7317 0.545432 34.0804C0.196714 34.4291 0.000558298 34.9019 0 35.3951L0 53.203C0.000558298 53.6962 0.196714 54.169 0.545432 54.5177C0.894151 54.8664 1.36695 55.0626 1.86012 55.0631H12.4712C12.9644 55.0625 13.4371 54.8664 13.7858 54.5176C14.1345 54.1689 14.3307 53.6961 14.3312 53.203V51.6388L20.6821 49.9527C20.7898 49.9202 20.9035 49.912 21.0148 49.9286C21.1261 49.9453 21.2324 49.9864 21.3259 50.049L29.4844 55.1257C30.2178 55.594 31.0619 55.8602 31.9313 55.8972C32.8007 55.9343 33.6644 55.7409 34.435 55.3366L58.6167 43.012C58.6811 42.9792 58.7414 42.9391 58.7966 42.8925C59.3432 42.4303 59.73 41.8073 59.9018 41.1124C60.0736 40.4174 60.0217 39.686 59.7534 39.0223C59.4851 38.3586 59.0141 37.7965 58.4077 37.4162C57.8012 37.0359 57.0901 36.8567 56.3759 36.9042L56.3753 36.9049ZM12.4562 53.1882H1.875V35.4101H12.4562V53.1882ZM57.6562 41.397L33.5828 53.6665C33.1001 53.9242 32.5571 54.0479 32.0104 54.0245C31.4637 54.0012 30.9332 53.8318 30.4743 53.5338L22.3166 48.4569C22.0057 48.2592 21.6568 48.1288 21.2924 48.0743C20.928 48.0198 20.5562 48.0424 20.201 48.1405L14.3312 49.6991V37.9874L21.555 34.8404C21.9483 34.6589 22.376 34.5642 22.8092 34.5629C23.2424 34.5616 23.6707 34.6537 24.065 34.8329L38.9467 41.2107C39.1432 41.5926 39.2355 42.0195 39.214 42.4484C39.1926 42.8773 39.0583 43.293 38.8247 43.6533C38.591 44.0137 38.2664 44.3059 37.8836 44.5005C37.5008 44.6951 37.0733 44.7851 36.6445 44.7615L29.1729 41.5594C28.945 41.4653 28.6893 41.4647 28.461 41.5578C28.2327 41.6508 28.0503 41.8301 27.9532 42.0567C27.8562 42.2833 27.8522 42.539 27.9423 42.7685C28.0324 42.998 28.2093 43.1827 28.4346 43.2827L36.0459 46.5448C36.1314 46.5814 36.2218 46.6051 36.3142 46.6151C37.1274 46.701 37.9484 46.5551 38.6821 46.194C39.4158 45.8329 40.0324 45.2715 40.4604 44.5747C40.5839 44.3725 40.6903 44.1603 40.7787 43.9404L56.6034 38.7724C56.9075 38.773 57.2044 38.8644 57.4561 39.0349C57.7078 39.2054 57.9027 39.4473 58.016 39.7295C58.1292 40.0116 58.1554 40.3212 58.0914 40.6184C58.0274 40.9156 57.876 41.1869 57.6566 41.3974L57.6562 41.397ZM7.875 38.2177V38.1151C7.875 37.8665 7.97377 37.628 8.14959 37.4522C8.3254 37.2764 8.56386 37.1776 8.8125 37.1776C9.06114 37.1776 9.2996 37.2764 9.47541 37.4522C9.65123 37.628 9.75 37.8665 9.75 38.1151V38.2177C9.75 38.4663 9.65123 38.7048 9.47541 38.8806C9.2996 39.0564 9.06114 39.1552 8.8125 39.1552C8.56386 39.1552 8.3254 39.0564 8.14959 38.8806C7.97377 38.7048 7.875 38.4663 7.875 38.2177ZM56.3539 23.0719C56.5682 23.031 56.7615 22.9166 56.9006 22.7485C57.0396 22.5805 57.1157 22.3692 57.1157 22.151V17.7736C57.1156 17.5555 57.0395 17.3442 56.9005 17.1761C56.7615 17.0081 56.5682 16.8937 56.3539 16.8529L53.8656 16.3774C53.5893 15.4026 53.1999 14.4634 52.7054 13.579L54.1289 11.4821C54.2515 11.3017 54.3073 11.0842 54.2867 10.867C54.2662 10.6499 54.1705 10.4467 54.0163 10.2925L50.9215 7.19719C50.7672 7.04297 50.564 6.94736 50.3469 6.92682C50.1297 6.90629 49.9122 6.96211 49.7318 7.08469L47.6348 8.50887C46.7504 8.01443 45.8112 7.62507 44.8364 7.34871L44.3611 4.86035C44.3202 4.64608 44.2059 4.45278 44.0378 4.31374C43.8697 4.17471 43.6584 4.09864 43.4402 4.09863H39.0629C38.8448 4.09864 38.6335 4.17471 38.4654 4.31374C38.2973 4.45278 38.183 4.64608 38.1421 4.86035L37.6668 7.34859C36.6919 7.62493 35.7527 8.01429 34.8683 8.50875L32.7714 7.08469C32.591 6.96214 32.3735 6.90634 32.1563 6.92687C31.9392 6.9474 31.736 7.043 31.5818 7.19719L28.4864 10.2925C28.3322 10.4467 28.2365 10.6499 28.216 10.867C28.1954 11.0842 28.2512 11.3017 28.3738 11.4821L29.7981 13.579C29.3037 14.4634 28.9143 15.4026 28.6379 16.3774L26.1497 16.8529C25.9354 16.8937 25.7422 17.0081 25.6031 17.1761C25.4641 17.3442 25.388 17.5555 25.388 17.7736V22.151C25.388 22.3692 25.464 22.5805 25.6031 22.7485C25.7421 22.9166 25.9354 23.031 26.1497 23.0719L28.6379 23.5472C28.9144 24.522 29.3037 25.4612 29.7981 26.3456L28.3738 28.4425C28.2512 28.6229 28.1954 28.8404 28.216 29.0576C28.2365 29.2747 28.3322 29.4779 28.4864 29.6321L31.582 32.7274C31.7363 32.8816 31.9394 32.9772 32.1565 32.9978C32.3737 33.0184 32.5912 32.9626 32.7716 32.84L34.8683 31.4159C35.9301 32.0095 37.0699 32.4513 38.2543 32.7284V35.7257C38.2543 35.9743 38.3531 36.2128 38.5289 36.3886C38.7047 36.5644 38.9432 36.6632 39.1918 36.6632H43.7227C43.9713 36.6632 44.2098 36.5644 44.3856 36.3886C44.5614 36.2128 44.6602 35.9743 44.6602 35.7257V32.6249C45.6978 32.3463 46.6968 31.9403 47.6346 31.4161L49.7316 32.8403C49.912 32.9628 50.1295 33.0186 50.3467 32.9981C50.5638 32.9775 50.767 32.8819 50.9213 32.7277L54.0164 29.6324C54.1706 29.4781 54.2663 29.275 54.2868 29.0578C54.3074 28.8407 54.2516 28.6231 54.129 28.4427L52.7047 26.3459C53.1992 25.4615 53.5886 24.5223 53.8649 23.5474L56.3539 23.0719ZM42.7852 26.4465V34.7882H40.1291V26.5838C40.1291 26.3822 40.0641 26.186 39.9438 26.0243C39.8234 25.8626 39.6542 25.7439 39.4611 25.686C38.2917 25.3335 37.2523 24.6438 36.4731 23.7033C35.6938 22.7628 35.2095 21.6132 35.0806 20.3987C34.9517 19.1841 35.1841 17.9585 35.7486 16.8754C36.3131 15.7923 37.1847 14.8999 38.2541 14.3099V18.933C38.2592 19.7792 38.599 20.589 39.1991 21.1855C39.7993 21.782 40.6111 22.1169 41.4572 22.1169C42.3034 22.1169 43.1152 21.782 43.7154 21.1855C44.3155 20.589 44.6553 19.7792 44.6604 18.933V14.557C45.6202 15.1881 46.386 16.0731 46.8727 17.1135C47.3593 18.154 47.5478 19.3091 47.417 20.4502C47.2862 21.5914 46.8413 22.6739 46.1318 23.5772C45.4224 24.4806 44.4762 25.1694 43.3985 25.5669C43.2186 25.6332 43.0633 25.7531 42.9537 25.9104C42.844 26.0676 42.7852 26.2548 42.7852 26.4465ZM52.1936 22.5246C51.916 23.7139 51.4449 24.8495 50.799 25.886C50.7032 26.0401 50.6541 26.2186 50.6577 26.4001C50.6614 26.5815 50.7176 26.7579 50.8195 26.908L52.1419 28.8547L50.1445 30.8534L48.1972 29.5311C48.0472 29.4292 47.8707 29.373 47.6893 29.3693C47.508 29.3657 47.3294 29.4147 47.1754 29.5105C46.3884 30.0001 45.5436 30.3898 44.6604 30.6707V27.0702C46.1074 26.3966 47.3226 25.3097 48.1529 23.9465C48.9831 22.5833 49.3911 21.0048 49.3255 19.41C49.2599 17.8152 48.7237 16.2755 47.7843 14.9851C46.845 13.6946 45.5446 12.7112 44.0471 12.1587C43.9054 12.1064 43.7532 12.0892 43.6034 12.1085C43.4536 12.1277 43.3107 12.1829 43.1868 12.2692C43.0629 12.3556 42.9617 12.4707 42.8918 12.6045C42.8219 12.7384 42.7854 12.8872 42.7854 13.0383V18.9328C42.7821 19.2829 42.6407 19.6175 42.392 19.8639C42.1433 20.1103 41.8073 20.2485 41.4572 20.2485C41.1071 20.2485 40.7712 20.1103 40.5225 19.8639C40.2738 19.6175 40.1324 19.2829 40.1291 18.9328V12.9015C40.1291 12.7554 40.0949 12.6113 40.0293 12.4807C39.9636 12.3501 39.8684 12.2367 39.7511 12.1494C39.6338 12.0622 39.4978 12.0036 39.3539 11.9783C39.2099 11.953 39.0621 11.9617 38.9221 12.0038C37.2793 12.5033 35.8364 13.5093 34.7995 14.8779C33.7429 16.2796 33.1714 17.9872 33.1714 19.7426C33.1714 21.4979 33.7429 23.2055 34.7995 24.6073C35.6913 25.7836 36.8853 26.6961 38.2546 27.2476V30.7936C37.2226 30.5086 36.2371 30.0765 35.3283 29.5106C35.1742 29.4148 34.9957 29.3657 34.8142 29.3693C34.6328 29.373 34.4564 29.4292 34.3063 29.5311L32.3598 30.8534L30.3609 28.8547L31.6833 26.908C31.7852 26.7579 31.8414 26.5815 31.8451 26.4001C31.8488 26.2187 31.7997 26.0402 31.7039 25.8861C31.0583 24.8496 30.5874 23.714 30.31 22.5247C30.2688 22.3481 30.1772 22.1871 30.0464 22.0615C29.9155 21.9358 29.751 21.8508 29.5729 21.8168L27.2631 21.3756V18.549L29.5729 18.1078C29.751 18.0738 29.9155 17.9888 30.0464 17.8631C30.1772 17.7375 30.2688 17.5765 30.31 17.3999C30.5872 16.2108 31.0579 15.0754 31.7033 14.0389C31.7991 13.8849 31.8482 13.7064 31.8446 13.525C31.8409 13.3436 31.7847 13.1672 31.6828 13.0171L30.3605 11.07L32.3593 9.07125L34.3059 10.3935C34.456 10.4954 34.6324 10.5517 34.8138 10.5554C34.9952 10.559 35.1737 10.51 35.3278 10.4142C36.3643 9.7684 37.4999 9.29728 38.6891 9.01969C38.8658 8.97849 39.0267 8.88692 39.1523 8.75608C39.278 8.62524 39.363 8.46076 39.397 8.28258L39.8382 5.97293H42.6649L43.106 8.28258C43.14 8.46075 43.225 8.62522 43.3507 8.75605C43.4763 8.88689 43.6372 8.97847 43.8138 9.01969C45.0031 9.29713 46.1387 9.76805 47.1752 10.4136C47.3293 10.5094 47.5078 10.5585 47.6892 10.5548C47.8706 10.5512 48.047 10.495 48.1971 10.393L50.1445 9.07125L52.1426 11.07L50.8202 13.0167C50.7183 13.1668 50.6622 13.3432 50.6585 13.5246C50.6549 13.7059 50.7039 13.8844 50.7997 14.0385C51.4456 15.075 51.9167 16.2106 52.1943 17.3999C52.2355 17.5765 52.327 17.7375 52.4579 17.8631C52.5887 17.9888 52.7532 18.0738 52.9314 18.1078L55.241 18.549V21.3757L52.9314 21.8168C52.7531 21.8507 52.5885 21.9357 52.4576 22.0613C52.3267 22.187 52.235 22.3479 52.1938 22.5246H52.1936Z" fill="#02B5FF"/>
</g>
<defs>
<clipPath id="clip0_55573_38617">
<rect width="60" height="60" fill="white"/>
</clipPath>
</defs>
</svg>
