<?xml version="1.0" encoding="UTF-8"?>
<svg id="Layer_1" data-name="Layer 1" xmlns="http://www.w3.org/2000/svg" version="1.1" viewBox="0 0 512 512">
  <defs>
    <style>
      .cls-1 {
        fill: #02b5ff;
        stroke-width: 0px;
      }
    </style>
  </defs>
  <path class="cls-1" d="M96.3,346.4c0-3.9,3.1-7,7-7h169.2c3.9,0,7,3.1,7,7s-3.1,7-7,7H103.3c-3.9,0-7-3.1-7-7ZM103.3,301.5h123.6c3.9,0,7-3.1,7-7s-3.1-7-7-7h-123.6c-3.9,0-7,3.1-7,7s3.1,7,7,7h0ZM389.8,403.7v83.1c0,8.9-7.3,16.2-16.2,16.2h-111.6c-8.9,0-16.2-7.3-16.2-16.2v-50.7c-18.6,4.3-38,6.5-57.9,6.5s-16.5-.4-24.7-1.1l-86.5,60.3c-2.4,1.7-5.5,1.7-7.9,0-2.4-1.6-3.6-4.6-2.9-7.4l17.4-74.8c-46.7-22.9-74.3-59.7-74.3-99.2s12.6-52.8,36.6-74.2c22.9-20.5,54-35.2,90-42.7,3.8-.8,7.5,1.7,8.3,5.5.8,3.8-1.6,7.5-5.4,8.2-33.1,6.9-62.8,20.9-83.5,39.4-20.9,18.7-31.9,40.7-31.9,63.7,0,35.4,26.7,68.6,71.3,88.9,3,1.4,4.7,4.7,3.9,8l-14.5,62.5,73.6-51.4c1.4-1,3.1-1.4,4.7-1.2,8.6.9,17.2,1.3,25.8,1.3,20,0,39.4-2.3,57.9-6.9v-17.9c0-8.9,7.3-16.2,16.2-16.2h55c23.1-19.1,35.8-42.8,35.8-67.1s-14.4-51-40.4-70.7c-3.1-2.3-3.8-6.7-1.5-9.8,2.3-3.1,6.7-3.8,9.8-1.5,0,0,0,0,.1,0,29.7,22.4,46,51.5,46,81.9s-10.3,47.3-29.2,67.1h36c8.9,0,16.2,7.3,16.2,16.2h0ZM375.8,403.7c0-1.2-1-2.2-2.2-2.2h-111.6c-1.2,0-2.2,1-2.2,2.2v83.1c0,1.2,1,2.2,2.2,2.2h111.6c1.2,0,2.2-1,2.2-2.2v-83.1ZM344.8,445.3c0,2.5-1.3,4.8-3.5,6.1l-39.9,23.1c-3.3,1.9-7.6.8-9.6-2.6-.6-1.1-.9-2.3-.9-3.5v-46.1c0-3.9,3.1-7,7-7,1.2,0,2.4.3,3.5.9l39.9,23.1c2.2,1.3,3.5,3.6,3.5,6.1h0ZM323.8,445.3l-18.9-10.9v21.9l18.9-10.9ZM457.3,82.2c1.2,0,2.4-.3,3.5-.9l27-15.6c3.4-1.9,4.5-6.2,2.6-9.5-1.9-3.4-6.2-4.5-9.5-2.6,0,0,0,0,0,0l-27,15.6c-3.3,1.9-4.5,6.2-2.6,9.6,1.3,2.2,3.6,3.5,6.1,3.5ZM412.3,50.6c3.3,1.9,7.6.8,9.6-2.6h0s16.5-28.5,16.5-28.5c2-3.3.8-7.6-2.5-9.6-3.3-2-7.6-.8-9.6,2.5,0,0,0,0,0,0l-16.5,28.5c-1.9,3.3-.8,7.6,2.6,9.6h0ZM456.1,126.5c0,3.9,3.1,7,7,7h32.9c3.9,0,7-3.1,7-7s-3.1-7-7-7h-32.9c-3.9,0-7,3.1-7,7ZM159.5,203.3c3.7-13.9,12.6-25.5,25-32.6l36.6-21.1c1.6-.9,3.5-1.2,5.3-.7.7.2,1.4.5,2,.9,37.6-28.2,67.3-60.8,84.3-92.7l-.6-1.1c-7.9-13.7-3.2-31.4,10.5-39.3,13.7-7.9,31.4-3.2,39.3,10.5l28.6,49.5c15.2-7.8,34.1-2.4,42.7,12.5,8.6,14.9,3.9,34-10.5,43.2l28.6,49.5c3.8,6.6,4.8,14.4,2.8,21.8-2,7.4-6.7,13.6-13.4,17.5-4.3,2.5-9.3,3.8-14.3,3.8-2.5,0-5-.3-7.5-1-7.4-2-13.6-6.7-17.5-13.4l-.6-1.1c-35.8-1.2-78.5,8-121.3,26.2l50.5,68c5,6.8,4.2,16.2-2.1,21.8l-11.1,10.1c-3.4,3.1-8,4.6-12.5,4.2-4.5-.4-8.6-2.8-11.3-6.4l-52.9-70.8-1.8,1.1c-8.2,4.8-17.4,7.2-26.7,7.2-4.8,0-9.5-.6-14.1-1.9-13.9-3.7-25.5-12.6-32.6-25-7.1-12.4-9-26.8-5.3-40.7h0ZM318.7,312l-49.3-66.4-17.2,9.9,51.9,69.4c.3.5.9.8,1.5.8.4,0,1.1,0,1.8-.6l11.1-10.1c.9-.8,1-2.1.2-3.1ZM397.4,88.8l18.1,31.4c7.7-5.3,10.2-15.8,5.4-24.1-4.8-8.3-15.1-11.4-23.5-7.4ZM324.2,48.9l89.3,154.7c2,3.4,5.1,5.8,9,6.9,3.8,1,7.8.5,11.2-1.4,3.4-2,5.8-5.1,6.9-9,1-3.8.5-7.8-1.5-11.2l-89.3-154.7c-2.7-4.7-7.7-7.4-12.8-7.4s-5,.6-7.4,2c-3.4,2-5.8,5.1-6.9,9s-.5,7.8,1.4,11.2h0ZM236.1,161.4l35.9,62.2c42-18.1,84.1-27.9,120.6-28.2l-71.7-124.3c-18.5,31.4-48.1,63-84.8,90.3h0ZM176.9,237c5.3,9.1,13.8,15.7,24.1,18.4,10.3,2.8,21,1.4,30.1-3.9l30.6-17.6-39.7-68.8-30.6,17.6c-9.1,5.3-15.7,13.8-18.4,24.1s-1.4,21,3.9,30.1h0ZM47.4,89.9c0-23.4,19.1-42.5,42.5-42.5s42.5,19.1,42.5,42.5-19.1,42.5-42.5,42.5-42.5-19.1-42.5-42.5ZM61.4,89.9c0,15.7,12.8,28.5,28.5,28.5s28.5-12.8,28.5-28.5-12.8-28.5-28.5-28.5-28.5,12.8-28.5,28.5ZM9,97.3v-14.8c0-6.5,5.3-11.9,11.9-11.9s8.1-4.4,8.6-5.8c.6-1.4,2.1-6.1-2-10.2-2.2-2.2-3.5-5.2-3.5-8.4,0-3.2,1.2-6.1,3.5-8.4l10.5-10.5c4.6-4.6,12.1-4.6,16.8,0,4.1,4.1,8.8,2.6,10.2,2,1.4-.6,5.8-2.8,5.8-8.6s5.3-11.9,11.9-11.9h14.8c6.5,0,11.9,5.3,11.9,11.9s4.4,8.1,5.8,8.6c1.4.6,6.1,2.1,10.2-2,4.6-4.6,12.1-4.6,16.8,0l10.5,10.5c2.2,2.2,3.5,5.2,3.5,8.4s-1.2,6.1-3.5,8.4c-4.1,4.1-2.6,8.8-2,10.2.6,1.4,2.8,5.8,8.6,5.8s11.9,5.3,11.9,11.9v14.8c0,6.5-5.3,11.9-11.9,11.9s-8.1,4.4-8.6,5.8c-.6,1.4-2.1,6.1,2,10.2,4.6,4.6,4.6,12.1,0,16.8l-10.5,10.5c-2.2,2.2-5.2,3.5-8.4,3.5s-6.1-1.2-8.4-3.5c-4.1-4.1-8.8-2.6-10.2-2-1.4.6-5.8,2.8-5.8,8.6s-5.3,11.9-11.9,11.9h-14.8c-6.5,0-11.9-5.3-11.9-11.9s-4.4-8.1-5.8-8.6c-1.4-.6-6.1-2.1-10.2,2-2.2,2.2-5.2,3.5-8.4,3.5s-6.1-1.2-8.4-3.5l-10.5-10.5c-2.2-2.2-3.5-5.2-3.5-8.4,0-3.2,1.2-6.1,3.5-8.4,4.1-4.1,2.6-8.8,2-10.2-.6-1.4-2.8-5.8-8.6-5.8-6.5,0-11.9-5.3-11.9-11.9ZM23,95.3c8.7.8,16,6.1,19.4,14.3,3.4,8.2,2,17.2-3.6,23.9l7.6,7.6c6.7-5.6,15.6-7,23.9-3.6,8.2,3.4,13.6,10.7,14.3,19.4h10.7c.8-8.7,6.1-16,14.3-19.4,8.2-3.4,17.2-2,23.9,3.6l7.6-7.6c-5.6-6.7-7-15.6-3.6-23.9,3.4-8.2,10.7-13.6,19.4-14.3v-10.7c-8.7-.8-16-6.1-19.4-14.3s-2-17.2,3.6-23.9l-7.6-7.6c-6.7,5.6-15.6,7-23.9,3.6-8.2-3.4-13.6-10.7-14.3-19.4h-10.7c-.8,8.7-6.1,16-14.3,19.4-8.2,3.4-17.2,2-23.9-3.6l-7.6,7.6c5.6,6.7,7,15.6,3.6,23.9-3.4,8.2-10.7,13.6-19.4,14.3v10.7ZM502.5,281.4c-2.5,20.7-12.4,40.4-18.2,50.4s-17.8,28.4-34.5,40.9c-10.8,8.1-21.8,12.2-32.3,12.2s-14.6-2-21.5-6l-2.5-1.5c-4.1-2.4-7.1-6.3-8.3-10.9-1.2-4.6-.6-9.5,1.8-13.6l10.1-17.4c4.9-8.6,15.9-11.5,24.5-6.6l5.9,3.4c1.7,1,3.6.6,4.9-.8,5.5-6.3,10.6-13.4,15-21.2s8.1-15.7,10.8-23.6c.6-1.8,0-3.7-1.8-4.7l-5.9-3.4c-4.1-2.4-7.1-6.3-8.3-10.9-1.2-4.6-.6-9.5,1.8-13.6l10.1-17.4c4.9-8.6,15.9-11.5,24.5-6.6l2.5,1.5c16.8,9.7,24.3,26.9,21.5,49.7h0ZM473.9,243.8l-2.5-1.5c-1.9-1.1-4.3-.4-5.4,1.4l-10.1,17.4c-.5.9-.7,2-.4,3,.3,1,.9,1.9,1.8,2.4l5.9,3.4c7.5,4.3,10.8,13.1,8,21.3-3,8.8-7,17.5-11.9,26.1-4.9,8.6-10.5,16.4-16.6,23.4-5.7,6.5-14.9,8-22.4,3.7l-5.9-3.4c-1.9-1.1-4.3-.4-5.4,1.4l-10.1,17.4c-.5.9-.7,2-.4,3,.3,1,.9,1.9,1.8,2.4l2.5,1.5c11.9,6.9,24.5,5.2,38.5-5.3,15.3-11.4,26.6-29.5,30.8-36.7,4.2-7.2,14.1-26.1,16.4-45,2.1-17.3-2.7-29.1-14.6-35.9h0Z"/>
</svg>