<?xml version="1.0" encoding="UTF-8"?>
<svg id="uuid-f8d4d392-7c12-4bd9-baff-66fbf7814b91" xmlns="http://www.w3.org/2000/svg" version="1.1" viewBox="0 0 305.7 305.7">
  <defs>
    <style>
      .cls-1 {
        fill: #074793;
      }

      .cls-1, .cls-2, .cls-3, .cls-4, .cls-5, .cls-6 {
        stroke-width: 0px;
      }

      .cls-2 {
        fill: #6df;
      }

      .cls-3 {
        fill: #0294e4;
      }

      .cls-4 {
        fill: #cbf8ff;
      }

      .cls-5 {
        fill: #96bcc2;
      }

      .cls-6 {
        fill: #225086;
      }
    </style>
  </defs>
  <path class="cls-6" d="M67,236c6.4,4,17.1,8.4,28.3,8.4s19.8-3,27.7-8c0,0,0,0,0,0l29.8-18.6v67.3c-4.7,0-9.5-1.3-13.6-3.9,0,0-72.3-45.2-72.3-45.2Z"/>
  <path class="cls-2" d="M133.9,29.1L10,168.8c-9.6,10.8-7.1,27.1,5.3,34.9,0,0,45.9,28.7,51.7,32.3,6.4,4,17.1,8.4,28.3,8.4s19.8-3,27.7-8c0,0,0,0,0,0l29.8-18.6-72.1-45.1,72.1-81.4V20.7h0c-7,0-14,2.8-19,8.4h0Z"/>
  <polygon class="cls-4" points="80.8 172.7 81.6 173.2 152.9 217.8 152.9 217.8 152.9 217.8 152.9 91.3 152.9 91.3 80.8 172.7"/>
  <path class="cls-1" d="M290.4,203.7c12.4-7.7,14.9-24.1,5.3-34.9l-81.3-91.7c-6.6-3.1-13.9-4.8-21.7-4.8-15.3,0-28.9,6.6-38,17l-1.8,2h0l72.1,81.4h0l-72.1,45.1v67.3c4.7,0,9.5-1.3,13.6-3.9l123.9-77.5h0Z"/>
  <path class="cls-3" d="M152.9,20.7v70.6l1.8-2c9.1-10.4,22.8-17,38-17s15.1,1.8,21.7,4.8l-42.6-48.1c-4.9-5.6-11.9-8.4-18.9-8.4h0Z"/>
  <polygon class="cls-5" points="225 172.7 225 172.7 225 172.7 152.9 91.3 152.9 217.7 225 172.7"/>
</svg>