<svg width="60" height="60" viewBox="0 0 60 60" fill="none" xmlns="http://www.w3.org/2000/svg">
<path d="M41.6827 46.7449L33.3804 49.0035C33.2036 49.0515 33.0287 49.0874 32.8548 49.1109C32.9057 49.0367 32.9543 48.9595 33.0006 48.8792C33.8087 47.4794 33.3383 45.6673 31.9297 44.7538C31.8943 44.7308 31.8574 44.7102 31.8192 44.6923C29.876 43.7768 28.0468 42.5019 26.5771 41.4774C26.0617 41.1183 25.5749 40.7789 25.1541 40.5058C23.3836 39.3575 21.4511 39.6587 19.7939 40.1049L13.8929 41.6939L13.6979 40.9404C13.5623 40.416 13.2295 39.9755 12.7611 39.6995C12.2926 39.4236 11.7458 39.3463 11.2216 39.4821L8.90098 40.0826C8.37668 40.2183 7.93605 40.551 7.66019 41.0194C7.38434 41.4879 7.30711 42.0347 7.44281 42.559L10.5621 54.6135C10.6978 55.1379 11.0305 55.5785 11.499 55.8544C11.8166 56.0414 12.1702 56.1371 12.5283 56.1371C12.6984 56.1371 12.8698 56.1155 13.0385 56.0717L15.3591 55.4713C15.8835 55.3356 16.3241 55.0029 16.6 54.5345C16.8758 54.066 16.953 53.5192 16.8173 52.9949L16.5647 52.0186L17.5939 51.7428L26.0319 56.6144C26.9925 57.1692 28.0165 57.4495 29.0564 57.4495C29.6305 57.4495 30.2094 57.3641 30.7852 57.1923L45.9682 52.6594C47.4899 52.2051 48.4501 50.2994 47.9829 48.6612C47.7572 47.8711 46.6371 45.3975 41.6827 46.7449ZM14.9841 53.583C14.9687 53.6092 14.9398 53.643 14.889 53.656L12.5685 54.2565C12.5181 54.2698 12.4761 54.254 12.4501 54.2387C12.424 54.2233 12.3901 54.1944 12.377 54.1438L9.25781 42.0893C9.2448 42.0387 9.26027 41.9969 9.27574 41.9708C9.29109 41.9447 9.32004 41.9108 9.37066 41.8978L11.6913 41.2973C11.7046 41.2939 11.7173 41.2924 11.7293 41.2924C11.7628 41.2924 11.7905 41.3039 11.8098 41.3151C11.8359 41.3305 11.8698 41.3594 11.8828 41.4101L15.0022 53.4646C15.015 53.5152 14.9994 53.557 14.9841 53.583ZM45.4316 50.8626L30.2486 55.3956C29.1207 55.7324 28.0174 55.5961 26.9693 54.9908L18.1949 49.9249C17.9795 49.8005 17.7237 49.7667 17.4836 49.8312L16.0948 50.2032L14.3625 43.509L20.2813 41.9153C22.0884 41.4287 23.2044 41.4759 24.1335 42.0789C24.5282 42.3349 24.9807 42.6503 25.5048 43.0155C27.0165 44.0692 28.8942 45.3779 30.9552 46.3576C31.5005 46.7403 31.6826 47.4121 31.3768 47.9417C31.0519 48.5045 30.5236 48.6471 29.8069 48.367C28.8214 47.8724 27.9009 47.3214 26.9275 46.738C26.4606 46.458 25.9778 46.1687 25.478 45.8802C25.0296 45.6215 24.4562 45.7749 24.1973 46.2234C23.9385 46.6719 24.0921 47.2453 24.5406 47.5042C25.0269 47.7849 25.503 48.0703 25.9635 48.3463C26.9803 48.9558 29.0316 50.076 29.0382 50.079L29.893 50.4639C31.2323 51.0624 32.5339 51.1766 33.8726 50.8128L42.175 48.5543C44.3659 47.9585 45.9004 48.1963 46.1796 49.1756C46.3832 49.8894 45.9308 50.7137 45.4316 50.8626ZM11.6645 43.2067C11.6167 43.6152 11.2466 43.9076 10.8381 43.8598C10.4296 43.8119 10.1372 43.4419 10.185 43.0333C10.2328 42.6248 10.6029 42.3324 11.0114 42.3803C11.4199 42.4282 11.7123 42.798 11.6645 43.2067ZM34.9467 45.8618H36.6076C37.8302 45.8618 38.8248 44.8671 38.8248 43.6445V43.1071C39.5972 42.7601 40.1373 41.9851 40.1373 41.0849V40.5317C40.892 40.1777 41.417 39.4126 41.417 38.5254V37.277C41.6091 34.0679 42.4045 32.7078 43.1739 31.393C43.8701 30.2032 44.59 28.9728 44.59 26.6858C44.59 21.8264 40.6365 17.873 35.7771 17.873C30.9177 17.873 26.9643 21.8264 26.9643 26.6858C26.9643 28.9728 27.6841 30.2032 28.3804 31.393C29.1497 32.7077 29.945 34.0677 30.1372 37.276V38.5253C30.1372 39.4125 30.6623 40.1776 31.417 40.5316V41.0848C31.417 41.9849 31.9571 42.7598 32.7295 43.1068V43.6442C32.7295 44.867 33.7241 45.8618 34.9467 45.8618ZM33.292 40.7426H38.2623V41.0849C38.2623 41.2704 38.1056 41.4271 37.9201 41.4271H33.6343C33.4488 41.4271 33.292 41.2704 33.292 41.0849V40.7426ZM32.0122 38.183H39.542V38.5254C39.542 38.7109 39.3853 38.8676 39.1998 38.8676H32.3544C32.1689 38.8676 32.0122 38.7109 32.0122 38.5254V38.183ZM33.4796 27.6363H32.587C32.0948 27.6363 31.6944 27.2359 31.6944 26.7438C31.6944 26.2517 32.0948 25.8513 32.587 25.8513C33.0792 25.8513 33.4796 26.2517 33.4796 26.7438V27.6363ZM36.1997 36.308H35.3548V29.5113H36.1997V36.308ZM36.6076 43.9868H34.9467C34.7612 43.9868 34.6045 43.83 34.6045 43.6445V43.3021H36.9498V43.6445C36.9498 43.83 36.7931 43.9868 36.6076 43.9868ZM28.8393 26.6859C28.8393 22.8603 31.9516 19.7481 35.7771 19.7481C39.6026 19.7481 42.715 22.8605 42.715 26.6859C42.715 28.4647 42.2033 29.3392 41.5555 30.4461C40.8224 31.6991 39.925 33.233 39.6137 36.308H38.0746V29.5113H38.9672C40.4932 29.5113 41.7348 28.2698 41.7348 26.7438C41.7348 25.2178 40.4933 23.9763 38.9672 23.9763C37.4411 23.9763 36.1996 25.2178 36.1996 26.7438V27.6363H35.3546V26.7438C35.3546 25.2178 34.1132 23.9763 32.587 23.9763C31.0609 23.9763 29.8194 25.2178 29.8194 26.7438C29.8194 28.2698 31.0609 29.5113 32.587 29.5113H33.4796V36.308H31.9406C31.6294 33.233 30.732 31.6991 29.9987 30.4461C29.3509 29.339 28.8393 28.4646 28.8393 26.6859ZM38.0747 27.6363V26.7438C38.0747 26.2517 38.4751 25.8513 38.9673 25.8513C39.4595 25.8513 39.8599 26.2517 39.8599 26.7438C39.8599 27.2359 39.4595 27.6363 38.9673 27.6363H38.0747ZM34.8397 16.1484V14.2933C34.8397 13.7756 35.2595 13.3558 35.7772 13.3558C36.295 13.3558 36.7147 13.7756 36.7147 14.2933V16.1484C36.7147 16.6662 36.295 17.0859 35.7772 17.0859C35.2595 17.0859 34.8397 16.6662 34.8397 16.1484ZM28.4411 15.3215C28.8894 15.0627 29.4628 15.2163 29.7217 15.6647L30.6492 17.2712C30.9081 17.7196 30.7545 18.293 30.3061 18.5518C30.1584 18.6371 29.9973 18.6776 29.8382 18.6776C29.5141 18.6776 29.199 18.5094 29.0254 18.2087L28.0978 16.6022C27.8391 16.1538 27.9927 15.5804 28.4411 15.3215ZM40.9051 17.2712L41.8327 15.6647C42.0915 15.2162 42.6649 15.0626 43.1133 15.3215C43.5616 15.5804 43.7153 16.1538 43.4564 16.6022L42.5289 18.2087C42.3552 18.5094 42.0401 18.6776 41.7161 18.6776C41.557 18.6776 41.3958 18.637 41.2481 18.5518C40.7999 18.293 40.6463 17.7196 40.9051 17.2712ZM45.2534 22.5569C44.9945 22.1086 45.1481 21.5352 45.5965 21.2763L47.203 20.3488C47.6514 20.0899 48.2248 20.2435 48.4836 20.6919C48.7425 21.1403 48.5889 21.7137 48.1405 21.9725L46.534 22.9001C46.3863 22.9854 46.2252 23.0258 46.0661 23.0258C45.7421 23.0258 45.427 22.8578 45.2534 22.5569ZM9.20109 28.9242C9.97957 29.3584 10.8026 29.6996 11.658 29.9429L12.2767 31.5503C12.4159 31.9121 12.7637 32.151 13.1516 32.151H16.5094C16.8973 32.151 17.245 31.9121 17.3843 31.5503L18.0028 29.9434C18.859 29.7 19.6823 29.3587 20.4606 28.9246L22.0351 29.6239C22.3895 29.7814 22.8043 29.7043 23.0786 29.4301L25.4529 27.0556C25.7271 26.7813 25.8042 26.3666 25.6468 26.0122L24.9472 24.4371C25.3813 23.6586 25.7225 22.8356 25.9658 21.9801L27.5732 21.3615C27.935 21.2223 28.1739 20.8745 28.1739 20.4866V18.8076C28.1739 18.2899 27.7541 17.8701 27.2364 17.8701H21.1985C20.6808 17.8701 20.261 18.2899 20.261 18.8076C20.261 21.802 17.8249 24.2381 14.8305 24.2381C11.8362 24.2381 9.40008 21.802 9.40008 18.8076C9.40008 18.2899 8.98031 17.8701 8.46258 17.8701H2.42461C1.90688 17.8701 1.48711 18.2899 1.48711 18.8076V20.4866C1.48711 20.8745 1.72594 21.2222 2.08781 21.3615L3.69457 21.9799C3.93809 22.8362 4.27934 23.6594 4.7134 24.4378L4.01414 26.0123C3.85664 26.3667 3.93375 26.7814 4.20797 27.0558L6.58242 29.4302C6.85664 29.7044 7.2716 29.7813 7.62586 29.624L9.20109 28.9242ZM5.9891 26.1849L6.62227 24.7592C6.74777 24.4767 6.72586 24.1505 6.56367 23.8871C6.02402 23.0108 5.6298 22.0598 5.39203 21.0607C5.32043 20.76 5.10527 20.5138 4.81676 20.4028L3.36211 19.8429V19.7451H7.58484C8.04645 23.3321 11.1199 26.1131 14.8304 26.1131C18.5411 26.1131 21.6144 23.3322 22.0761 19.7451H26.2989V19.8429L24.8438 20.403C24.5554 20.514 24.3401 20.7602 24.2685 21.0609C24.0309 22.0591 23.6367 23.0097 23.097 23.8865C22.9349 24.1497 22.913 24.476 23.0384 24.7585L23.6719 26.1849L22.2079 27.649L20.7821 27.0158C20.4996 26.8902 20.1732 26.912 19.91 27.0744C19.0336 27.614 18.0827 28.0083 17.0835 28.246C16.7828 28.3175 16.5366 28.5327 16.4256 28.8212L15.8657 30.276H13.7953L13.2352 28.8207C13.1242 28.5322 12.878 28.3171 12.5773 28.2455C11.5791 28.008 10.6283 27.6138 9.75164 27.0739C9.48832 26.9119 9.16219 26.8902 8.87953 27.0155L7.45324 27.649L5.9891 26.1849ZM10.2708 7.91951V16.3677C10.2708 16.8854 10.6905 17.3052 11.2083 17.3052C11.726 17.3052 12.1458 16.8854 12.1458 16.3677V7.91951C13.2117 7.53455 13.9757 6.51291 13.9757 5.31584C13.9757 3.78982 12.7342 2.54834 11.2082 2.54834C9.68227 2.54834 8.44078 3.78982 8.44078 5.31584C8.44078 6.51291 9.20484 7.53455 10.2708 7.91951ZM11.2082 4.42334C11.7002 4.42334 12.1007 4.82377 12.1007 5.31584C12.1007 5.80791 11.7002 6.20822 11.2082 6.20822C10.7161 6.20822 10.3158 5.80791 10.3158 5.31584C10.3158 4.82377 10.7161 4.42334 11.2082 4.42334ZM20.5343 9.19615V16.3677C20.5343 16.8854 20.9541 17.3052 21.4718 17.3052C21.9895 17.3052 22.4093 16.8854 22.4093 16.3677V10.1337H23.3525C23.7375 11.1995 24.7591 11.9635 25.9562 11.9635C27.4821 11.9635 28.7236 10.7221 28.7236 9.19615C28.7236 7.67025 27.4821 6.42889 25.9562 6.42889C24.7593 6.42889 23.7376 7.19295 23.3525 8.25865H21.4718C20.9541 8.25865 20.5343 8.67842 20.5343 9.19615ZM25.9562 8.30377C26.4483 8.30377 26.8486 8.70408 26.8486 9.19604C26.8486 9.68811 26.4483 10.0884 25.9562 10.0884C25.4641 10.0884 25.0638 9.68811 25.0638 9.19604C25.0637 8.70408 25.464 8.30377 25.9562 8.30377ZM3.70488 11.9635C4.90195 11.9635 5.92359 11.1995 6.30855 10.1337H7.25168V16.3677C7.25168 16.8854 7.67144 17.3052 8.18918 17.3052C8.70691 17.3052 9.12668 16.8854 9.12668 16.3677V9.19615C9.12668 8.67842 8.70691 8.25865 8.18918 8.25865H6.30855C5.92359 7.19283 4.90195 6.42889 3.70488 6.42889C2.17898 6.42877 0.9375 7.67025 0.9375 9.19615C0.9375 10.7221 2.17898 11.9635 3.70488 11.9635ZM3.70488 8.30377C4.19684 8.30377 4.59703 8.70385 4.59727 9.19545V9.19604C4.59727 9.19604 4.59727 9.19639 4.59727 9.19662C4.59691 9.68846 4.19672 10.0884 3.70488 10.0884C3.21281 10.0884 2.8125 9.68811 2.8125 9.19604C2.8125 8.70408 3.21281 8.30377 3.70488 8.30377ZM17.5153 7.91951V16.4724C17.5153 16.9902 17.9351 17.4099 18.4528 17.4099C18.9705 17.4099 19.3903 16.9902 19.3903 16.4724V7.91951C20.4563 7.53455 21.2203 6.51291 21.2203 5.31584C21.2203 3.78982 19.9788 2.54834 18.4529 2.54834C16.9269 2.54834 15.6854 3.78982 15.6854 5.31584C15.6854 6.51291 16.4495 7.53455 17.5153 7.91951ZM18.4529 4.42334C18.945 4.42334 19.3453 4.82377 19.3453 5.31584C19.3453 5.80791 18.945 6.20822 18.4529 6.20822C17.9609 6.20822 17.5604 5.80791 17.5604 5.31584C17.5604 4.82377 17.9609 4.42334 18.4529 4.42334ZM58.4618 34.4081L57.6983 34.1142C57.5723 33.7131 57.4112 33.3245 57.2163 32.9515L57.5486 32.2032C57.7061 31.8489 57.6289 31.4341 57.3547 31.1598L55.9636 29.7688C55.6894 29.4946 55.2748 29.4178 54.9202 29.5749L54.1716 29.9074C53.7987 29.7126 53.4102 29.5516 53.0094 29.4255L52.7154 28.6617C52.5761 28.2998 52.2284 28.061 51.8405 28.061H49.8732C49.4855 28.061 49.1377 28.2997 48.9983 28.6617L48.7043 29.4255C48.3035 29.5516 47.915 29.7126 47.5421 29.9074L46.7936 29.5749C46.4392 29.4173 46.0245 29.4946 45.7501 29.7688L44.359 31.1598C44.0848 31.434 44.0077 31.8489 44.165 32.2032L44.4975 32.9518C44.3026 33.3247 44.1416 33.7132 44.0156 34.1141L43.2519 34.4081C42.89 34.5473 42.6512 34.8951 42.6512 35.283V37.2503C42.6512 37.6381 42.89 37.9858 43.2519 38.1252L44.0154 38.4191C44.1414 38.8201 44.3025 39.2088 44.4974 39.5818L44.165 40.3301C44.0077 40.6844 44.0846 41.0992 44.359 41.3734L45.7501 42.7645C46.0243 43.039 46.4392 43.1157 46.7936 42.9585L47.5421 42.6259C47.915 42.8207 48.3035 42.9817 48.7043 43.1078L48.9983 43.8716C49.1377 44.2335 49.4854 44.4723 49.8732 44.4723H51.8405C52.2284 44.4723 52.5761 44.2335 52.7154 43.8716L53.0093 43.108C53.4102 42.982 53.7989 42.8209 54.172 42.626L54.9202 42.9583C55.2745 43.116 55.6894 43.039 55.9636 42.7645L57.3547 41.3734C57.6289 41.0992 57.7061 40.6844 57.5486 40.3301L57.2161 39.5814C57.4109 39.2085 57.572 38.8199 57.698 38.4192L58.4618 38.1252C58.8238 37.986 59.0625 37.6381 59.0625 37.2503V35.283C59.0625 34.8953 58.8237 34.5474 58.4618 34.4081ZM57.1875 36.6065L56.5839 36.8389C56.2954 36.9499 56.0802 37.1961 56.0086 37.4968C55.8791 38.0413 55.6639 38.5601 55.3692 39.0388C55.2073 39.302 55.1854 39.6282 55.3109 39.9106L55.5737 40.5027L55.093 40.9835L54.5014 40.7208C54.2188 40.5953 53.8925 40.6168 53.6293 40.7792C53.1509 41.0739 52.632 41.289 52.0871 41.4185C51.7864 41.49 51.5402 41.7053 51.4291 41.9938L51.1969 42.5972H50.517L50.2846 41.9935C50.1736 41.7051 49.9275 41.4899 49.6268 41.4184C49.082 41.2887 48.5632 41.0736 48.0848 40.779C47.8214 40.6168 47.4953 40.5951 47.2127 40.7205L46.6208 40.9835L46.14 40.5027L46.4027 39.911C46.5282 39.6285 46.5063 39.3022 46.3441 39.0389C46.0496 38.5606 45.8345 38.0417 45.7048 37.4967C45.6332 37.196 45.418 36.9498 45.1295 36.8388L44.5261 36.6065V35.9266L45.1296 35.6944C45.418 35.5834 45.6332 35.3373 45.7048 35.0366C45.8345 34.4917 46.0496 33.9729 46.3441 33.4948C46.5062 33.2314 46.5281 32.9052 46.4027 32.6226L46.1398 32.0307L46.6206 31.5499L47.2125 31.8128C47.4952 31.9383 47.8213 31.9165 48.0845 31.7543C48.5629 31.4597 49.0816 31.2446 49.6264 31.1149C49.927 31.0434 50.1731 30.8281 50.2842 30.5397L50.5166 29.9361H51.1965L51.4289 30.5397C51.5399 30.8281 51.786 31.0434 52.0867 31.1149C52.6315 31.2446 53.1503 31.4597 53.6286 31.7543C53.892 31.9165 54.2181 31.9383 54.5006 31.8128L55.0927 31.5499L55.5735 32.0306L55.3107 32.6223C55.1852 32.9048 55.2071 33.2311 55.3693 33.4944C55.6638 33.9726 55.879 34.4915 56.0087 35.0366C56.0803 35.3373 56.2955 35.5835 56.584 35.6945L57.1874 35.9267V36.6065H57.1875ZM50.8569 31.8983C48.4481 31.8983 46.4885 33.858 46.4885 36.2667C46.4885 38.6754 48.4481 40.6349 50.8569 40.6349C53.2656 40.6349 55.2252 38.6753 55.2252 36.2667C55.2252 33.858 53.2656 31.8983 50.8569 31.8983ZM50.8569 38.76C49.4821 38.76 48.3635 37.6415 48.3635 36.2668C48.3635 34.892 49.4821 33.7734 50.8569 33.7734C52.2318 33.7734 53.3502 34.892 53.3502 36.2668C53.3502 37.6415 52.2316 38.76 50.8569 38.76Z" fill="#00B5FF"/>
</svg>
