<svg width="60" height="60" viewBox="0 0 60 60" fill="none" xmlns="http://www.w3.org/2000/svg">
<path fill-rule="evenodd" clip-rule="evenodd" d="M21.7699 24.7512C23.8891 24.7512 25.8079 25.6104 27.1963 26.9988C28.5847 28.3872 29.4439 30.306 29.4439 32.4252C29.4439 34.5444 28.5847 36.4632 27.1963 37.8516C25.8079 39.24 23.8891 40.0992 21.7699 40.0992C19.6507 40.0992 17.7319 39.24 16.3435 37.8516C14.9551 36.4632 14.0959 34.5444 14.0959 32.4252C14.0959 30.306 14.9551 28.3872 16.3435 26.9988C17.7319 25.6104 19.6507 24.7512 21.7699 24.7512ZM26.0083 28.1868C24.9235 27.102 23.4247 26.4312 21.7699 26.4312C20.1151 26.4312 18.6163 27.102 17.5315 28.1868C16.4467 29.2716 15.7759 30.7704 15.7759 32.4252C15.7759 34.0812 16.4467 35.5788 17.5315 36.6636C18.6163 37.7484 20.1151 38.4192 21.7699 38.4192C23.4259 38.4192 24.9235 37.7484 26.0083 36.6636C27.0931 35.5788 27.7639 34.08 27.7639 32.4252C27.7639 30.7704 27.0931 29.2716 26.0083 28.1868ZM37.4563 37.9908L33.9715 42.5316C33.8071 42.7476 33.5575 42.8604 33.3055 42.8616V42.864H18.3391C17.9143 42.864 18.4951 42.8616 18.2179 42.8604C16.9891 42.8508 11.0635 42.8052 8.99591 48.5724L5.51711 58.2756H9.58751L12.3547 49.8288C12.4975 49.3884 12.9715 49.1472 13.4107 49.2912C13.7839 49.4124 14.0131 49.77 13.9879 50.1444L13.9795 58.3212H28.0699V50.772C28.0699 49.6536 28.5259 48.6384 29.2615 47.9028C29.9971 47.1672 31.0123 46.7112 32.1307 46.7112H34.1695C35.5675 46.7112 36.1183 45.9888 36.8635 45.0084L37.0387 44.778L40.4683 40.308C40.9975 39.618 40.9447 38.8356 40.5847 38.2296C40.4419 37.9896 40.2523 37.7748 40.0303 37.6008C39.8119 37.4292 39.5707 37.302 39.3211 37.2336C38.7223 37.068 38.0275 37.2456 37.4563 37.9908ZM32.8939 41.1828H18.3391C17.8471 41.1828 18.4111 41.1864 18.2239 41.1852C16.7923 41.1744 9.88871 41.1216 7.42031 48.006L3.53951 58.8312C3.38351 59.2656 3.61031 59.7456 4.04471 59.9004C4.13831 59.934 4.23311 59.9496 4.32671 59.9496V59.9532H10.1935C10.5859 59.9532 10.9147 59.6844 11.0071 59.322L12.3079 55.35L12.3043 59.1588C12.3043 59.6208 12.6787 59.9952 13.1407 59.9952V59.9988H28.9087C29.3731 59.9988 29.7487 59.6232 29.7487 59.1588V50.7696C29.7487 50.1144 30.0163 49.5192 30.4471 49.0884C30.8791 48.6564 31.4731 48.39 32.1283 48.39H34.1671C36.3931 48.39 37.1575 47.3856 38.1931 46.0248L38.3683 45.7944L41.7979 41.3244C42.8071 40.0092 42.7075 38.5236 42.0259 37.3764C41.8951 37.1556 41.7427 36.948 41.5723 36.7572C41.8543 36.642 42.1171 36.4644 42.3607 36.2292C42.7519 35.8476 43.0819 35.3112 43.3303 34.6356L44.1283 32.4696H44.3551C45.4951 32.4696 46.1923 31.5744 46.4683 30.4284C46.5595 30.0504 46.6051 29.652 46.6051 29.2632C46.6051 28.8744 46.5595 28.476 46.4683 28.098C46.2811 27.324 45.9031 26.664 45.3259 26.3172C47.0815 23.8356 48.9283 21.1584 48.9283 17.94C48.9283 15.2424 47.8351 12.8004 46.0675 11.0328C44.2999 9.26524 41.8579 8.17204 39.1603 8.17204C36.4627 8.17204 34.0207 9.26524 32.2531 11.0328C30.4855 12.8004 29.3923 15.2424 29.3923 17.94C29.3923 21.1452 31.2259 23.8512 32.9695 26.3316C32.4055 26.682 32.0359 27.3336 31.8511 28.0968C31.7599 28.4748 31.7143 28.8732 31.7143 29.262C31.7143 29.6508 31.7599 30.0492 31.8511 30.4272C32.1283 31.5732 32.8243 32.4684 33.9643 32.4684H34.1911L34.9891 34.6344C35.2375 35.3088 35.5675 35.8464 35.9587 36.228C36.1111 36.3756 36.2719 36.5004 36.4387 36.6024C36.3307 36.7164 36.2251 36.84 36.1231 36.9732L32.8939 41.1828ZM40.3183 21.3072V26.0556H38.6791V21.3072H40.3183ZM38.6791 19.6272V18.3636C38.6791 17.5536 38.3479 16.8168 37.8151 16.284C37.2823 15.7512 36.5455 15.42 35.7355 15.42C34.9255 15.42 34.1887 15.7512 33.6559 16.284C33.1231 16.8168 32.7919 17.5536 32.7919 18.3636C32.7919 19.1736 33.1231 19.9104 33.6559 20.4432C34.1887 20.976 34.9255 21.3072 35.7355 21.3072H36.9991V26.0556H34.8247C34.6999 25.878 34.6075 25.7448 34.5139 25.6128C32.8675 23.2752 31.0723 20.724 31.0723 17.94C31.0723 15.7068 31.9783 13.6836 33.4411 12.2196C34.9051 10.7556 36.9271 9.85084 39.1615 9.85084C41.3947 9.85084 43.4179 10.7556 44.8819 12.2196C46.3459 13.6836 47.2507 15.7056 47.2507 17.94C47.2507 20.706 45.4891 23.196 43.8547 25.5072L43.4671 26.0556H41.9995V21.3072H43.0495C43.8595 21.3072 44.5963 20.976 45.1291 20.4432C45.6619 19.9104 45.9931 19.1736 45.9931 18.3636C45.9931 17.5536 45.6619 16.8168 45.1291 16.284C44.5963 15.7512 43.8595 15.42 43.0495 15.42C42.2395 15.42 41.5027 15.7512 40.9699 16.284C40.4371 16.8168 40.1059 17.5536 40.1059 18.3636V19.6272H38.6791ZM35.7355 17.0988C36.0823 17.0988 36.3979 17.2416 36.6271 17.4708C36.8563 17.7 36.9991 18.0156 36.9991 18.3624V19.626H35.7355C35.3887 19.626 35.0731 19.4832 34.8439 19.254C34.6147 19.0248 34.4719 18.7092 34.4719 18.3624C34.4719 18.0156 34.6147 17.7 34.8439 17.4708C35.0731 17.2416 35.3887 17.0988 35.7355 17.0988ZM43.0483 17.0988C43.3951 17.0988 43.7107 17.2416 43.9399 17.4708C44.1691 17.7 44.3119 18.0156 44.3119 18.3624C44.3119 18.7092 44.1691 19.0248 43.9399 19.254C43.7107 19.4832 43.3951 19.626 43.0483 19.626H41.7847V18.3624C41.7847 18.0156 41.9275 17.7 42.1567 17.4708C42.3859 17.2416 42.7015 17.0988 43.0483 17.0988ZM44.3575 27.7356C44.5711 27.7356 44.7415 28.0668 44.8435 28.4904C44.8999 28.7232 44.9275 28.9872 44.9275 29.262C44.9275 29.5368 44.8999 29.8008 44.8435 30.0336C44.7415 30.4572 44.5711 30.7884 44.3575 30.7884H43.5511H43.5451H34.7755H33.9643C33.7507 30.7884 33.5803 30.4572 33.4783 30.0336C33.4219 29.8008 33.3943 29.5368 33.3943 29.262C33.3943 28.9872 33.4219 28.7232 33.4783 28.4904C33.5803 28.0668 33.7507 27.7356 33.9643 27.7356H44.3575ZM42.3427 32.4684L41.7583 34.0572C41.5963 34.4964 41.4055 34.8228 41.1955 35.0268C41.0563 35.1624 40.9123 35.2332 40.7695 35.2332H37.5535C37.4119 35.2332 37.2679 35.1624 37.1275 35.0268C36.9175 34.8216 36.7255 34.4952 36.5647 34.0572L35.9803 32.4684H42.3427ZM38.5555 0.838841C38.5555 0.376841 38.9299 0.00244141 39.3919 0.00244141C39.8539 0.00244141 40.2283 0.376841 40.2283 0.838841V4.32964C40.2283 4.79164 39.8539 5.16604 39.3919 5.16604C38.9299 5.16604 38.5555 4.79164 38.5555 4.32964V0.838841ZM55.6723 16.2828C56.1343 16.2828 56.5087 16.6572 56.5087 17.1192C56.5087 17.5812 56.1343 17.9556 55.6723 17.9556H52.1815C51.7195 17.9556 51.3451 17.5812 51.3451 17.1192C51.3451 16.6572 51.7195 16.2828 52.1815 16.2828H55.6723ZM50.3095 5.01244C50.6371 4.68484 51.1699 4.68484 51.4975 5.01244C51.8251 5.34004 51.8251 5.87284 51.4975 6.20044L49.0291 8.66884C48.7015 8.99644 48.1687 8.99644 47.8411 8.66884C47.5135 8.34124 47.5135 7.80844 47.8411 7.48084L50.3095 5.01244ZM23.1115 17.9592C22.6471 17.9592 22.2715 17.5836 22.2715 17.1192C22.2715 16.6548 22.6471 16.2792 23.1115 16.2792H26.6023C27.0667 16.2792 27.4423 16.6548 27.4423 17.1192C27.4423 17.5836 27.0667 17.9592 26.6023 17.9592H23.1115ZM27.2851 6.20044C26.9575 5.87284 26.9575 5.34004 27.2851 5.01244C27.6127 4.68484 28.1455 4.68484 28.4731 5.01244L30.9415 7.48084C31.2691 7.80844 31.2691 8.34124 30.9415 8.66884C30.6139 8.99644 30.0811 8.99644 29.7535 8.66884L27.2851 6.20044Z" fill="#00B5FF"/>
</svg>
