<?xml version="1.0" encoding="utf-8"?>
<!-- Generator: Adobe Illustrator 27.0.0, SVG Export Plug-In . SVG Version: 6.00 Build 0)  -->
<svg version="1.1" id="Layer_1" xmlns="http://www.w3.org/2000/svg" xmlns:xlink="http://www.w3.org/1999/xlink" x="0px" y="0px"
	 viewBox="0 0 500 500" style="enable-background:new 0 0 500 500;" xml:space="preserve">
<style type="text/css">
	.st0{display:none;}
	.st1{display:inline;}
	.st2{fill:#EBEBEB;}
	.st3{fill:#F0F0F0;}
	.st4{fill:#FFFFFF;}
	.st5{fill:#F5F5F5;}
	.st6{fill:#ECECEC;}
	.st7{fill:#00639A;}
	.st8{fill:#1A2E35;}
	.st9{opacity:0.6;fill:#FFFFFF;}
	.st10{opacity:0.4;fill:#FFFFFF;enable-background:new    ;}
	.st11{opacity:0.1;enable-background:new    ;}
	.st12{opacity:0.8;fill:#FFFFFF;}
	.st13{opacity:0.2;enable-background:new    ;}
	.st14{fill:#00B5FF;}
	.st15{opacity:0.1;fill:#FFFFFF;}
	.st16{opacity:0.3;}
	.st17{opacity:0.2;}
	.st18{opacity:0.2;fill:#FFFFFF;}
	.st19{fill:none;stroke:#1A2E35;stroke-width:1.4192;stroke-miterlimit:10;}
	.st20{fill:#007CFF;}
	.st21{opacity:0.7;}
	.st22{opacity:0.4;fill:#FFFFFF;}
	.st23{fill:none;stroke:#FFFFFF;stroke-width:1.4192;stroke-miterlimit:10;}
	.st24{fill:none;stroke:#FFFFFF;stroke-width:1.4192;stroke-linecap:round;stroke-linejoin:round;stroke-miterlimit:10;}
	.st25{fill:#FCB373;}
	.st26{fill:#EC873E;}
	.st27{fill:#FD5652;}
	.st28{opacity:0.6;}
	.st29{fill:#CFF4FF;}
	.st30{opacity:0.3;fill:#FFFFFF;}
	.st31{fill:none;stroke:#FFFFFF;stroke-width:0.5909;stroke-miterlimit:10;}
	.st32{opacity:0.1;}
	.st33{fill:none;stroke:#FFFFFF;stroke-width:1.1818;stroke-miterlimit:10;}
	.st34{fill:none;stroke:#1A2E35;stroke-width:1.1818;stroke-miterlimit:10;}
	.st35{fill:none;stroke:#00B5FF;stroke-width:1.1818;stroke-miterlimit:10;}
	.st36{fill:#FFFFFF;stroke:#00B5FF;stroke-width:1.1818;stroke-miterlimit:10;}
	.st37{opacity:0.7;fill:#FFFFFF;}
	.st38{fill:none;stroke:#FFFFFF;stroke-width:0.6137;stroke-miterlimit:10;}
	.st39{fill:#0084AD;}
	.st40{opacity:0.2;fill:#0084AD;}
	.st41{fill:none;stroke:#1A2E35;stroke-width:0.8591;stroke-linecap:round;stroke-linejoin:round;stroke-miterlimit:10;}
	.st42{fill:none;stroke:#1A2E35;stroke-width:0.6137;stroke-linecap:round;stroke-linejoin:round;stroke-miterlimit:10;}
	.st43{opacity:0.3;enable-background:new    ;}
	.st44{fill:none;stroke:#007CFF;stroke-width:0.6137;stroke-linecap:round;stroke-linejoin:round;stroke-miterlimit:10;}
	.st45{fill:#ABEFFF;}
	.st46{fill:#9FE6ED;}
</style>
<g id="Background_Simple" class="st0">
	<g class="st1">
		<path class="st2" d="M53.7,111.6l1.5-4.2c12.4-35.7,43.1-62.2,80.2-67.7c4.8-0.7,9.6-1.1,14.4-1.1c34.8,0,69.1,19,88,48.7
			c11.1,17.4,17.7,38.9,34.3,51c21.6,15.9,51.3,10.2,77.2,3.8c25.9-6.4,55.6-12,77.2,4c13.5,10,20.7,26.8,23.3,43.4
			c7,44.2-15.1,89.7-49.6,117.3c-34.5,27.7-79.7,39.1-123.9,39.6c-61.9,0.7-125.3-20.1-170-63.6S38.2,172.1,53.7,111.6z"/>
	</g>
</g>
<g>
	<g>
		<g>
			<g>
				<g>
					
						<ellipse transform="matrix(0.8886 -0.4587 0.4587 0.8886 -83.7789 111.9375)" class="st3" cx="188.5" cy="228.4" rx="129.7" ry="161.3"/>
				</g>
				<g>
					
						<ellipse transform="matrix(0.8886 -0.4587 0.4587 0.8886 -80.6235 115.5697)" class="st4" cx="197.6" cy="223.7" rx="104.7" ry="130.2"/>
				</g>
				<g>
					<path class="st3" d="M279.9,181.2c26.4,51.2,14.5,109.9-26.7,131.1c-41.2,21.3-95.9-3-122.3-54.2
						c-26.4-51.2-14.5-109.8,26.7-131.1C198.8,105.8,253.5,130.1,279.9,181.2z"/>
				</g>
				<g>
					<path class="st4" d="M265.9,188.5c20.3,39.3,12.1,83.8-18.3,99.5c-30.4,15.7-71.4-3.5-91.7-42.7
						c-20.3-39.3-12.1-83.8,18.3-99.5C204.6,130,245.7,149.2,265.9,188.5z"/>
				</g>
				<g>
					<path class="st3" d="M255.9,196.3c14.5,28,9.4,59.4-11.3,70.1c-20.7,10.7-49.2-3.4-63.7-31.4c-14.5-28-9.4-59.4,11.3-70.1
						C213,154.3,241.5,168.3,255.9,196.3z"/>
				</g>
				<g>
					<path class="st4" d="M248.7,200.1c10.4,20.2,7.5,42.5-6.5,49.7c-14,7.2-33.9-3.3-44.3-23.5c-10.4-20.2-7.5-42.5,6.5-49.7
						S238.2,179.8,248.7,200.1z"/>
				</g>
			</g>
			<g>
				<polygon class="st3" points="411.3,80.6 373.6,100 370.8,137 402.6,156.2 440.3,136.7 407.9,117.9 				"/>
			</g>
			<g>
				<path class="st5" d="M230.1,217.1c-2.9,0.4-5.8-1-7.2-3.7c-1.8-3.4-0.4-7.7,3-9.5l184.5-95.2c3.4-1.8,7.7-0.4,9.5,3
					c1.8,3.4,0.4,7.7-3,9.5l-184.5,95.2C231.6,216.8,230.9,217,230.1,217.1z"/>
			</g>
		</g>
		<g>
			<path class="st6" d="M448,238.9v5.9l3,0.3c0.4,2,1.2,3.8,2.3,5.5l-2,2.4l4.2,4.2l2.4-2c1.6,1.1,3.5,1.9,5.5,2.3l0.3,3h5.9l0.3-3
				c2-0.4,3.8-1.2,5.5-2.3l2.4,2l4.2-4.2l-2-2.4c1.1-1.6,1.9-3.5,2.3-5.5l3-0.3v-5.9l-3-0.3c-0.4-2-1.2-3.8-2.3-5.5l2-2.4l-4.2-4.2
				l-2.4,2c-1.6-1.1-3.5-1.9-5.5-2.3l-0.3-3h-5.9l-0.3,3c-2,0.4-3.8,1.2-5.5,2.3l-2.4-2l-4.2,4.2l2,2.4c-1.1,1.6-1.9,3.5-2.3,5.5
				L448,238.9z M466.6,233.9c4.4,0,8,3.6,8,8c0,4.4-3.6,8-8,8c-4.4,0-8-3.6-8-8C458.6,237.5,462.2,233.9,466.6,233.9z"/>
			<path class="st6" d="M438,265.4l1.7,1.4l3-3l-1.4-1.7c0.8-1.2,1.3-2.5,1.6-3.9l2.2-0.2v-4.2l-2.2-0.2c-0.3-1.4-0.9-2.7-1.6-3.9
				l1.4-1.7l-3-3l-1.7,1.4c-1.2-0.8-2.5-1.3-3.9-1.6l-0.2-2.2l-4.2,0l-0.2,2.2c-1.4,0.3-2.7,0.9-3.9,1.6l-1.7-1.4l-3,3l1.4,1.7
				c-0.8,1.2-1.3,2.5-1.6,3.9l-2.2,0.2v4.2l2.2,0.2c0.3,1.4,0.9,2.7,1.6,3.9l-1.4,1.7l3,3l1.7-1.4c1.2,0.8,2.5,1.3,3.9,1.6l0.2,2.2
				h4.2l0.2-2.2C435.5,266.7,436.8,266.2,438,265.4z M426,255.9c0-3.2,2.6-5.8,5.8-5.8c3.2,0,5.8,2.6,5.8,5.8c0,3.2-2.6,5.8-5.8,5.8
				C428.6,261.6,426,259,426,255.9z"/>
			<path class="st6" d="M456.9,294.2c1.7-0.4,3.3-1,4.7-1.9l2,1.7l3.6-3.6l-1.7-2c0.9-1.4,1.6-3,1.9-4.7l2.6-0.2v-5.1l-2.6-0.2
				c-0.4-1.7-1-3.3-1.9-4.7l1.7-2l-3.6-3.6l-2,1.7c-1.4-0.9-3-1.6-4.7-1.9l-0.2-2.6h-5.1l-0.2,2.6c-1.7,0.4-3.3,1-4.7,1.9l-2-1.7
				l-3.6,3.6l1.7,2c-0.9,1.4-1.6,3-1.9,4.7l-2.6,0.2v5.1l2.6,0.2c0.4,1.7,1,3.3,1.9,4.7l-1.7,2l3.6,3.6l2-1.7c1.4,0.9,3,1.6,4.7,1.9
				l0.2,2.6h5.1L456.9,294.2z M447.2,280.9c0-3.8,3.1-6.8,6.8-6.8c3.8,0,6.8,3.1,6.8,6.8c0,3.8-3.1,6.8-6.8,6.8
				C450.3,287.7,447.2,284.7,447.2,280.9z"/>
		</g>
		<path class="st6" d="M36.6,72.4v5.9l3,0.3c0.4,2,1.2,3.8,2.3,5.5l-2,2.4l4.2,4.2l2.4-2c1.6,1.1,3.5,1.9,5.5,2.3l0.3,3h5.9l0.3-3
			c2-0.4,3.8-1.2,5.5-2.3l2.4,2l4.2-4.2l-2-2.4c1.1-1.6,1.9-3.5,2.3-5.5l3-0.3v-5.9l-3-0.3c-0.4-2-1.2-3.8-2.3-5.5l2-2.4l-4.2-4.2
			l-2.4,2c-1.6-1.1-3.5-1.9-5.5-2.3l-0.3-3h-5.9l-0.3,3c-2,0.4-3.8,1.2-5.5,2.3l-2.4-2l-4.2,4.2l2,2.4c-1.1,1.6-1.9,3.5-2.3,5.5
			L36.6,72.4z M55.2,67.3c4.4,0,8,3.6,8,8c0,4.4-3.6,8-8,8s-8-3.6-8-8C47.2,70.9,50.8,67.3,55.2,67.3z"/>
		<path class="st6" d="M71.6,370.7l1.7,1.4l3-3l-1.4-1.7c0.8-1.2,1.3-2.5,1.6-3.9l2.2-0.2v-4.2l-2.2-0.2c-0.3-1.4-0.9-2.7-1.6-3.9
			l1.4-1.7l-3-3l-1.7,1.4c-1.2-0.8-2.5-1.3-3.9-1.6l-0.2-2.2l-4.2,0L63,350c-1.4,0.3-2.7,0.9-3.9,1.6l-1.7-1.4l-3,3l1.4,1.7
			c-0.8,1.2-1.3,2.5-1.6,3.9l-2.2,0.2v4.2l2.2,0.2c0.3,1.4,0.9,2.7,1.6,3.9l-1.4,1.7l3,3l1.7-1.4c1.2,0.8,2.5,1.3,3.9,1.6l0.2,2.2
			h4.2l0.2-2.2C69.1,372.1,70.4,371.5,71.6,370.7z M59.6,361.2c0-3.2,2.6-5.8,5.8-5.8c3.2,0,5.8,2.6,5.8,5.8c0,3.2-2.6,5.8-5.8,5.8
			C62.1,366.9,59.6,364.4,59.6,361.2z"/>
		<path class="st6" d="M446.3,74.3l1.7,1.4l3-3l-1.4-1.7c0.8-1.2,1.3-2.5,1.6-3.9l2.2-0.2v-4.2l-2.2-0.2c-0.3-1.4-0.9-2.7-1.6-3.9
			l1.4-1.7l-3-3l-1.7,1.4c-1.2-0.8-2.5-1.3-3.9-1.6l-0.2-2.2l-4.2,0l-0.2,2.2c-1.4,0.3-2.7,0.9-3.9,1.6l-1.7-1.4l-3,3l1.4,1.7
			c-0.8,1.2-1.3,2.5-1.6,3.9l-2.2,0.2v4.2l2.2,0.2c0.3,1.4,0.9,2.7,1.6,3.9l-1.4,1.7l3,3l1.7-1.4c1.2,0.8,2.5,1.3,3.9,1.6l0.2,2.2
			h4.2l0.2-2.2C443.8,75.6,445.1,75.1,446.3,74.3z M434.3,64.7c0-3.2,2.6-5.8,5.8-5.8c3.2,0,5.8,2.6,5.8,5.8c0,3.2-2.6,5.8-5.8,5.8
			C436.9,70.5,434.3,67.9,434.3,64.7z"/>
		<path class="st6" d="M32,251.8l1.7,1.4l3-3l-1.4-1.7c0.8-1.2,1.3-2.5,1.6-3.9l2.2-0.2v-4.2l-2.2-0.2c-0.3-1.4-0.9-2.7-1.6-3.9
			l1.4-1.7l-3-3l-1.7,1.4c-1.2-0.8-2.5-1.3-3.9-1.6l-0.2-2.2l-4.2,0l-0.2,2.2c-1.4,0.3-2.7,0.9-3.9,1.6l-1.7-1.4l-3,3l1.4,1.7
			c-0.8,1.2-1.3,2.5-1.6,3.9l-2.2,0.2v4.2l2.2,0.2c0.3,1.4,0.9,2.7,1.6,3.9l-1.4,1.7l3,3l1.7-1.4c1.2,0.8,2.5,1.3,3.9,1.6l0.2,2.2
			h4.2l0.2-2.2C29.5,253.1,30.8,252.6,32,251.8z M20,242.3c0-3.2,2.6-5.8,5.8-5.8c3.2,0,5.8,2.6,5.8,5.8c0,3.2-2.6,5.8-5.8,5.8
			C22.5,248,20,245.4,20,242.3z"/>
		<path class="st6" d="M270.1,81.7l-2.2,0.2l0,4.2l2.2,0.2c0.3,1.4,0.8,2.7,1.6,3.9l-1.4,1.7l3,3l1.7-1.4c1.2,0.8,2.6,1.3,3.9,1.6
			l0.2,2.2l4.2,0l0.2-2.2c1.4-0.3,2.7-0.8,3.9-1.6l1.7,1.4l3-3l-1.4-1.7c0.8-1.2,1.3-2.6,1.6-3.9l2.2-0.2l0-4.2l-2.2-0.2
			c-0.3-1.4-0.8-2.7-1.6-3.9l1.4-1.7l-3-3l-1.7,1.4c-1.2-0.8-2.6-1.3-3.9-1.6l-0.2-2.2l-4.2,0l-0.2,2.2c-1.4,0.3-2.7,0.8-3.9,1.6
			l-1.7-1.4l-3,3l1.4,1.7C270.9,79,270.4,80.4,270.1,81.7z M285.4,80c2.2,2.2,2.2,5.9,0,8.1c-2.2,2.2-5.9,2.2-8.1,0
			c-2.2-2.2-2.2-5.9,0-8.1C279.5,77.8,283.1,77.8,285.4,80z"/>
		<path class="st6" d="M100.6,403c1.7-0.4,3.3-1,4.7-1.9l2,1.7l3.6-3.6l-1.7-2c0.9-1.4,1.6-3,1.9-4.7l2.6-0.2v-5.1l-2.6-0.2
			c-0.4-1.7-1-3.3-1.9-4.7l1.7-2l-3.6-3.6l-2,1.7c-1.4-0.9-3-1.6-4.7-1.9l-0.2-2.6h-5.1l-0.2,2.6c-1.7,0.4-3.3,1-4.7,1.9l-2-1.7
			l-3.6,3.6l1.7,2c-0.9,1.4-1.6,3-1.9,4.7l-2.6,0.2v5.1l2.6,0.2c0.4,1.7,1,3.3,1.9,4.7l-1.7,2l3.6,3.6l2-1.7c1.4,0.9,3,1.6,4.7,1.9
			l0.2,2.6h5.1L100.6,403z M90.9,389.7c0-3.8,3.1-6.8,6.8-6.8c3.8,0,6.8,3.1,6.8,6.8c0,3.8-3.1,6.8-6.8,6.8
			C94,396.5,90.9,393.5,90.9,389.7z"/>
		<path class="st6" d="M373.1,374.4c-1.3,1.9-2.1,4-2.5,6.2l-3.4,0.3l0,6.7l3.4,0.3c0.4,2.2,1.3,4.2,2.5,6.2l-2.2,2.7l4.7,4.7
			l2.7-2.2c1.9,1.3,4,2.1,6.2,2.5l0.3,3.4l6.7,0l0.3-3.4c2.2-0.4,4.2-1.3,6.2-2.5l2.7,2.2l4.7-4.7L403,394c1.3-1.9,2.1-4,2.5-6.2
			l3.4-0.3l0-6.7l-3.4-0.3c-0.4-2.2-1.3-4.2-2.5-6.2l2.2-2.7l-4.7-4.7l-2.7,2.2c-1.9-1.3-4-2.1-6.2-2.5l-0.3-3.4l-6.7,0l-0.3,3.4
			c-2.2,0.4-4.2,1.3-6.2,2.5l-2.7-2.2l-4.7,4.7L373.1,374.4z M394.5,377.9c3.5,3.5,3.5,9.2,0,12.7c-3.5,3.5-9.2,3.5-12.7,0
			c-3.5-3.5-3.5-9.2,0-12.7C385.2,374.4,390.9,374.4,394.5,377.9z"/>
		<path class="st6" d="M296.3,54.9c-1.3,1.9-2.1,4-2.5,6.2l-3.4,0.3l0,6.7l3.4,0.3c0.4,2.2,1.3,4.2,2.5,6.2l-2.2,2.7l4.7,4.7
			l2.7-2.2c1.9,1.3,4,2.1,6.2,2.5l0.3,3.4l6.7,0l0.3-3.4c2.2-0.4,4.2-1.3,6.2-2.5l2.7,2.2l4.7-4.7l-2.2-2.7c1.3-1.9,2.1-4,2.5-6.2
			l3.4-0.3l0-6.7l-3.4-0.3c-0.4-2.2-1.3-4.2-2.5-6.2l2.2-2.7l-4.7-4.7l-2.7,2.2c-1.9-1.3-4-2.1-6.2-2.5l-0.3-3.4l-6.7,0l-0.3,3.4
			c-2.2,0.4-4.2,1.3-6.2,2.5l-2.7-2.2l-4.7,4.7L296.3,54.9z M317.7,58.4c3.5,3.5,3.5,9.2,0,12.7c-3.5,3.5-9.2,3.5-12.7,0
			c-3.5-3.5-3.5-9.2,0-12.7C308.5,54.8,314.2,54.8,317.7,58.4z"/>
	</g>
	<ellipse id="_x3C_Path_x3E__359_" class="st5" cx="252.4" cy="442.3" rx="238" ry="13.9"/>
	<g>
		<g>
			<path class="st7" d="M59.9,70.6h39.9c7.6,0,13.7,6.1,13.7,13.7v16.6c0,7.6-6.1,13.7-13.7,13.7h-6.7l-1.6,9.9l-7.6-9.9h-24
				c-7.6,0-13.7-6.1-13.7-13.7V84.3C46.2,76.8,52.4,70.6,59.9,70.6z"/>
		</g>
		<g>
			<path class="st4" d="M95.4,91.7c0,1.5,1.2,2.8,2.8,2.8c1.5,0,2.8-1.2,2.8-2.8c0-1.5-1.2-2.8-2.8-2.8
				C96.7,88.9,95.4,90.1,95.4,91.7z"/>
			<path class="st4" d="M83.2,91.7c0,1.5,1.2,2.8,2.8,2.8s2.8-1.2,2.8-2.8c0-1.5-1.2-2.8-2.8-2.8S83.2,90.1,83.2,91.7z"/>
			<path class="st4" d="M71,91.7c0,1.5,1.2,2.8,2.8,2.8c1.5,0,2.8-1.2,2.8-2.8c0-1.5-1.2-2.8-2.8-2.8C72.3,88.9,71,90.1,71,91.7z"/>
			<path class="st4" d="M58.8,91.7c0,1.5,1.2,2.8,2.8,2.8c1.5,0,2.8-1.2,2.8-2.8c0-1.5-1.2-2.8-2.8-2.8C60,88.9,58.8,90.1,58.8,91.7
				z"/>
		</g>
	</g>
	<g>
		<g>
			<path class="st8" d="M277.1,438.4v4.6c0,0.6-0.5,1-1,1H145.4c-4.8,0-8.1-4.9-6.3-9.4l41.4-102.6l66.9,0.5l-2.3,13.3l-14.8,86.1
				c-0.5,2.8,1.7,5.3,4.5,5.3H276C276.6,437.4,277.1,437.8,277.1,438.4z"/>
			<path class="st9" d="M277.1,438.4v4.6c0,0.6-0.5,1-1,1H145.4c-4.8,0-8.1-4.9-6.3-9.4l25.7-63.6l15.7-39l66.9,0.5l-2.3,13.3
				l-6.4,37.5l-8.3,48.7c-0.5,2.8,1.7,5.3,4.5,5.3H276C276.6,437.4,277.1,437.8,277.1,438.4z"/>
			<path class="st10" d="M234.8,437.4h-85c-2.1,0-3.6-2.2-2.8-4.1l36.3-87.3h61.7l-14.8,86.1C229.8,434.8,232,437.4,234.8,437.4z"/>
			<polygon class="st11" points="247.4,332.6 245.1,345.9 238.7,383.4 164.7,371.2 180.5,332.2 			"/>
		</g>
		<g>
			<g>
				<path class="st8" d="M377.5,141.5h-6.6H74.3h-6.6c-4.4,0-7.9,3.5-7.9,7.9v209.7c0,4.4,3.5,7.9,7.9,7.9h6.6h296.7h6.6
					c4.4,0,7.9-3.5,7.9-7.9V149.4C385.4,145,381.9,141.5,377.5,141.5z"/>
				<path class="st12" d="M377.5,141.5h-6.6H74.3h-6.6c-4.4,0-7.9,3.5-7.9,7.9v209.7c0,4.4,3.5,7.9,7.9,7.9h6.6h296.7h6.6
					c4.4,0,7.9-3.5,7.9-7.9V149.4C385.4,145,381.9,141.5,377.5,141.5z"/>
				<path class="st13" d="M74.3,367h-6.6c-4.4,0-7.9-3.5-7.9-7.9V149.4c0-4.4,3.5-7.9,7.9-7.9h6.6c-4.4,0-7.9,3.5-7.9,7.9v209.7
					C66.3,363.5,69.9,367,74.3,367z"/>
			</g>
		</g>
		<g>
			<rect x="73.5" y="148.3" class="st14" width="304.8" height="202.2"/>
		</g>
		<g>
			<path class="st15" d="M346.5,149.2c-42.1,42.2-150.4,136.2-273,129.2V149.2H346.5z"/>
			<path class="st15" d="M378.3,226.8v124.6H194.8c7-25.2,21.1-59.6,48.4-84.3C292.3,222.9,349.2,223,378.3,226.8z"/>
		</g>
		<g>
			<polygon class="st16" points="282.2,237.5 266.9,222.2 251.6,237.5 256.4,237.5 256.4,322.7 277.4,322.7 277.4,237.5 			"/>
			<g>
				<rect x="305" y="227.4" class="st16" width="16" height="6.1"/>
				<polygon class="st16" points="305,225.8 321,225.8 321,202.9 324.6,202.9 313,191.3 301.4,202.9 305,202.9 				"/>
				<rect x="305" y="236" class="st16" width="16" height="4.4"/>
				<rect x="305" y="245.6" class="st16" width="16" height="2.3"/>
			</g>
			<g>
				<rect x="214.7" y="208.2" class="st16" width="16" height="6.1"/>
				<polygon class="st16" points="214.7,206.5 230.7,206.5 230.7,183.7 234.3,183.7 222.7,172.1 211.1,183.7 214.7,183.7 				"/>
				<rect x="214.7" y="216.7" class="st16" width="16" height="4.4"/>
				<rect x="214.7" y="226.3" class="st16" width="16" height="2.3"/>
			</g>
			<g>
				<rect x="329.3" y="328.8" class="st16" width="16" height="6.1"/>
				<polygon class="st16" points="329.3,327.1 345.3,327.1 345.3,304.3 349,304.3 337.3,292.7 325.7,304.3 329.3,304.3 				"/>
				<rect x="329.3" y="337.4" class="st16" width="16" height="4.4"/>
				<rect x="329.3" y="347" class="st16" width="16" height="2.3"/>
			</g>
			<g>
				
					<ellipse transform="matrix(0.5257 -0.8507 0.8507 0.5257 -136.1567 373.4985)" class="st7" cx="266.9" cy="308.9" rx="27.3" ry="27.3"/>
				<circle class="st17" cx="266.9" cy="308.9" r="23.8"/>
				<g>
					<path class="st14" d="M268.3,319.7v3.4h-2.5v-3.4c-3-0.2-5.9-1.2-7.4-2.5l1.4-3.1c1.5,1.2,3.8,2.1,6.1,2.3v-6.1
						c-3.4-0.8-7-1.9-7-6.1c0-3.1,2.2-5.8,7-6.3v-3.4h2.5v3.4c2.2,0.1,4.5,0.8,6.2,1.9l-1.2,3.1c-1.6-0.9-3.3-1.5-4.9-1.6v6.1
						c3.4,0.8,7,1.9,7,6.1C275.4,316.6,273.1,319.2,268.3,319.7z M265.8,306.7v-5.4c-2.2,0.3-3.1,1.4-3.1,2.8
						C262.8,305.5,264.1,306.2,265.8,306.7z M271.5,313.7c0-1.5-1.3-2.2-3.2-2.7v5.4C270.5,316.1,271.5,315.1,271.5,313.7z"/>
				</g>
			</g>
		</g>
		<g>
			<g>
				<path class="st8" d="M170.1,154.5c1.9,6.8,0,13.6-4.4,15.2c-4.3,1.6-9.4-2.5-11.3-9.3c-1.9-6.8,0-13.6,4.4-15.2
					C163.2,143.5,168.2,147.7,170.1,154.5z"/>
				<path class="st18" d="M170.1,154.5c1.9,6.8,0,13.6-4.4,15.2c-4.3,1.6-9.4-2.5-11.3-9.3c-1.9-6.8,0-13.6,4.4-15.2
					C163.2,143.5,168.2,147.7,170.1,154.5z"/>
				<path class="st19" d="M167.6,163.5c0,0,5.6,6.6,6.3,9.7c0.7,3.1-2.7,4.2-5.3,4.8"/>
			</g>
			<path class="st8" d="M211.2,350.5h-19.9c0.1-2.1,0.2-4.3,0.4-6.6c0.1-2.1,0.3-4.2,0.4-6.3c0-0.5,0.1-1.1,0.1-1.6
				c1.2-17.3,3.2-34.6,6.3-34.5c0.4,0,0.8,0.3,1.3,0.9c0.5,0.7,1,1.7,1.5,2.8C205.1,314.2,208.8,334.9,211.2,350.5z"/>
			<g>
				<path class="st20" d="M203.4,350.5H97.8c0-10.4,0-23.9-0.7-39.3c-0.5-12.5-1.4-26.2-3-40.6c-0.9-8.3-2-16.8-3.4-25.3
					c-0.8-4.9-1.7-9.9-2.7-14.9c-1.4-7-3-14-4.9-21c0,0,8-2.2,18.4-4.2c2.1-0.4,4.4-0.8,6.7-1.2c2-0.3,3.9-0.6,6-0.9c0,0,0,0,0.1,0
					c0,0,0,0,0,0c0.6-0.1,1.3-0.2,1.9-0.2c1.5-0.2,3-0.3,4.6-0.5c0,0,0,0,0,0c2.4-0.3,4.9-0.5,7.5-0.8c8.3-0.8,17.3-1.4,24.6-1.6
					c0.7,0,1.3,0,2,0c1.3,0,2.4,0,3.6,0c1.3,0,3.5,0.1,4.6,0.2h0c0.3,0,0.6,0,0.6,0l14.5,4.7l10.2,3.3c0,0,0.5,2.2,1.3,6.3v0
					c0.9,4.8,2.3,12.3,3.8,22c1.5,9.6,3.2,21.4,4.7,35c0,0,0,0,0,0c1.2,10.3,2.2,21.6,3.1,33.7c0.3,4.5,0.6,9.1,0.9,13.9
					c0.3,5.4,0.6,10.9,0.8,16.5c0,0.5,0,1.1,0.1,1.6c0.1,2,0.2,4.1,0.2,6.1C203.3,345.7,203.3,348.1,203.4,350.5z"/>
			</g>
			<g class="st21">
				<path class="st4" d="M203.4,350.5H97.8c0-10.4,0-23.9-0.7-39.3c-0.5-12.5-1.4-26.2-3-40.6c-0.9-8.3-2-16.8-3.4-25.3
					c-0.8-4.9-1.7-9.9-2.7-14.9c-1.4-7-3-14-4.9-21c0,0,8-2.2,18.4-4.2c2.1-0.4,4.4-0.8,6.7-1.2c2-0.3,3.9-0.6,6-0.9c0,0,0,0,0.1,0
					c0,0,0,0,0,0c0.6-0.1,1.3-0.2,1.9-0.2c1.5-0.2,3-0.3,4.6-0.5c0,0,0,0,0,0c2.4-0.3,4.9-0.5,7.5-0.8c8.3-0.8,17.3-1.4,24.6-1.6
					c0.7,0,1.3,0,2,0c1.3,0,2.4,0,3.6,0c1.3,0,3.5,0.1,4.6,0.2h0c0.3,0,0.6,0,0.6,0l14.5,4.7l10.2,3.3c0,0,0.5,2.2,1.3,6.3v0
					c0.9,4.8,2.3,12.3,3.8,22c1.5,9.6,3.2,21.4,4.7,35c0,0,0,0,0,0c1.2,10.3,2.2,21.6,3.1,33.7c0.3,4.5,0.6,9.1,0.9,13.9
					c0.3,5.4,0.6,10.9,0.8,16.5c0,0.5,0,1.1,0.1,1.6c0.1,2,0.2,4.1,0.2,6.1C203.3,345.7,203.3,348.1,203.4,350.5z"/>
			</g>
			<polygon class="st8" points="205.3,350.5 102.8,350.5 104.8,339.2 114.3,338.9 192.1,336 202.9,335.6 203.5,335.6 203.7,337.2 
				203.7,337.2 204.5,343.3 			"/>
			<polygon class="st22" points="205.3,350.5 102.8,350.5 104.8,339.2 114.3,338.9 192.1,336 202.9,335.6 203.5,335.6 203.7,337.2 
				203.7,337.2 204.5,343.3 			"/>
			<g>
				<polygon points="139.8,339.4 140,346.3 104.3,348.1 106.1,340.5 				"/>
				<polygon points="192.6,337.6 193.3,343.8 142.2,346.2 142.1,339.3 				"/>
				<polygon points="204.5,343.3 195.5,343.7 194.9,337.5 203.7,337.2 				"/>
				<path class="st23" d="M162.3,339.6l0.4,4.9c0,0.5,0.4,0.8,0.9,0.8l10-0.4c0.5,0,0.9-0.5,0.9-1l-0.3-4.8c0-0.5-0.4-0.8-0.9-0.8
					l-10,0.3C162.7,338.6,162.3,339,162.3,339.6z"/>
				<line class="st24" x1="170.7" y1="341.5" x2="172.7" y2="341.4"/>
			</g>
			<g>
				<path class="st25" d="M295.4,255.7l20.1-2.7l-12.3-18.8c0,0-17.8,3.5-15.6,12.6L295.4,255.7z"/>
				<polygon class="st25" points="331,240.4 315,227.8 303.1,234.2 315.4,253 				"/>
			</g>
			<path class="st8" d="M189.9,203.6c13.6,2.3,45.1,64.7,45.1,64.7l53-28.5l12.2,17.1c0,0-55.4,45.8-69.9,42.8
				c-14.5-3-42-40.5-42-40.5L189.9,203.6z"/>
			<path class="st18" d="M300.1,256.8c0,0-55.4,45.8-69.9,42.8c-5.3-1.1-12.4-6.9-19.3-13.8c-11.7-11.8-22.7-26.8-22.7-26.8
				l0.4-12.5l1.2-43c13.7,2.3,45.1,64.6,45.1,64.6l53-28.5L300.1,256.8z"/>
			<path class="st17" d="M211,285.9c-11.7-11.8-22.7-26.8-22.7-26.8l0.4-12.5l2.6-13.5C191.2,233.2,205.7,253.7,211,285.9z"/>
			<g>
				<path class="st25" d="M119.5,201.7c0,0,25.8,12.9,32.4,11.4c4.7-1,9.8-10.1,9.8-10.1c-3.8-1-6.6-2.5-8.5-4.3
					c-5.9-5.4-4.9-13.6-2.5-21.5l-25-23c0.8,5.5,1.6,12.8,1.6,20.1c0,0,0,0,0,0C127.2,185.3,125.4,196.4,119.5,201.7z"/>
				<path class="st17" d="M127.2,174.4C127.2,174.4,127.2,174.4,127.2,174.4c4.5,11.4,12.4,24,26,24.4c-5.9-5.4-4.9-13.6-2.5-21.5
					l-25-23C126.5,159.7,127.3,167,127.2,174.4z"/>
			</g>
			<g>
				<path class="st8" d="M119.4,275.6L119.4,275.6c0,0.1,0,0.1,0,0.1c0,1,0,2.1-0.1,3.1v0.1c-0.1,2.7-0.2,5.5-0.3,8.5v0.2
					c-0.1,1.7-0.2,3.5-0.3,5.3c0,0.1,0,0.2,0,0.2c-0.1,1.2-0.2,2.4-0.2,3.6c-0.4,6-0.9,12.3-1.6,19c-0.1,1.3-0.3,2.6-0.4,3.9
					c-0.2,1.6-0.4,3.3-0.5,5c-0.2,1.3-0.3,2.7-0.5,4c-0.4,3.3-0.8,6.8-1.3,10.2c-0.1,0.5-0.1,0.9-0.2,1.4c0,0.1,0,0.3-0.1,0.4
					c-0.3,2.3-0.6,4.6-1,7c-0.1,1-0.3,1.9-0.4,2.8H95.1c0-0.3,0-0.6,0-0.9c0.2-5.7,0.3-11.5,0.1-16.9c-0.1-2.2-0.2-4.4-0.3-6.5
					c0-0.6-0.1-1.1-0.1-1.7c-0.1-1.8-0.3-3.6-0.5-5.5c-0.8-8.3-2-18.1-3.4-28.4c0-0.1,0-0.1,0-0.2c-0.2-1.6-0.4-3.2-0.7-4.8
					c-0.1-0.5-0.2-1.1-0.2-1.6c-0.2-1.1-0.3-2.1-0.4-3.2c-0.2-1.2-0.3-2.4-0.5-3.6v0c-0.2-1.6-0.5-3.3-0.7-4.9
					c-0.2-1.2-0.4-2.4-0.5-3.6c-0.3-2.2-0.7-4.4-1-6.5c-0.6-3.8-1.1-7.5-1.7-11.1c-0.2-1.5-0.5-3-0.7-4.5c-0.2-1.5-0.5-2.9-0.7-4.3
					c-0.1-0.7-0.2-1.4-0.3-2.1c-0.3-1.7-0.5-3.4-0.8-5.1c-0.1-0.7-0.2-1.3-0.3-1.9c-0.2-1-0.3-2-0.5-3c-0.1-0.5-0.2-1-0.3-1.5
					c-0.1-0.3-0.1-0.6-0.1-0.9c-0.1-0.8-0.3-1.6-0.4-2.4c-0.2-1.1-0.4-2.2-0.5-3.2c-0.1-0.5-0.2-1-0.2-1.4c-0.1-0.3-0.1-0.6-0.1-0.9
					c-1.1-6.3-1.7-10.1-1.7-10.1s0,0,0,0c0,0,0,0,0,0s0,0,0,0c0,0,0,0,0.1,0c0.2-0.1,0.7-0.3,1.5-0.6c0.2-0.1,0.5-0.2,0.8-0.3
					c0.2-0.1,0.4-0.1,0.6-0.2c2.1-0.7,5.4-1.7,9.6-2.7c1.9-0.4,3.9-0.9,6.1-1.3c0.7-0.1,1.4-0.3,2.2-0.4c1-0.2,2-0.4,3-0.5
					c3.1-0.5,6.5-0.9,10.2-1.3c0.5-0.1,1-0.1,1.6-0.2h0c0,0,0.1,0.3,0.2,0.8c0.1,0.5,0.2,1.1,0.3,1.9c0,0,0,0,0,0c0,0.1,0,0.1,0,0.2
					c0,0,0,0.1,0,0.1c0.1,0.3,0.1,0.6,0.2,1c0.2,1.1,0.4,2.5,0.6,4c0,0.3,0.1,0.5,0.1,0.8c0.1,0.5,0.2,1.1,0.2,1.7
					c0.1,0.6,0.2,1.2,0.2,1.8c0.1,0.6,0.2,1.3,0.2,1.9c0.4,3.4,0.9,7.4,1.3,11.8c0.1,0.5,0.1,1.1,0.2,1.6c0.1,1.5,0.3,3,0.4,4.5
					c0,0.3,0,0.6,0.1,0.8c0.1,1.1,0.2,2.3,0.3,3.4c0,0.5,0.1,1,0.1,1.5c0,0.5,0.1,1,0.1,1.5c0,0.5,0.1,1,0.1,1.5
					c0,0.8,0.1,1.6,0.2,2.4c0,0.4,0,0.8,0.1,1.2c0,0.7,0.1,1.3,0.1,2c0,0.4,0,0.7,0.1,1.1C119.4,257.9,119.6,266.5,119.4,275.6z"/>
				<path class="st18" d="M119.4,275.6C119.4,275.6,119.4,275.6,119.4,275.6C119.4,275.7,119.4,275.7,119.4,275.6
					c0,1.1,0,2.2-0.1,3.2v0.1c-0.1,2.7-0.2,5.5-0.3,8.5v0.2c-0.1,1.7-0.2,3.5-0.3,5.3c0,0.1,0,0.2,0,0.2c-0.1,1.2-0.1,2.4-0.2,3.6
					c-0.4,6-0.9,12.3-1.6,19c-0.1,1.3-0.3,2.6-0.4,3.9c-0.2,1.6-0.4,3.3-0.5,5c-0.2,1.3-0.3,2.7-0.5,4c-0.4,3.3-0.8,6.8-1.3,10.2
					c-0.1,0.5-0.1,0.9-0.2,1.4h0c0,0.1,0,0.3-0.1,0.4c-0.3,2.3-0.6,4.6-1,7c-0.1,1-0.3,1.9-0.4,2.8H95.1c0,0.1,0,0.3,0,0.4
					c0-0.1,0-0.3,0-0.4c0-0.3,0-0.6,0-0.9c0.2-5.7,0.3-11.5,0.1-16.9c-0.1-2.2-0.2-4.4-0.3-6.5c0-0.6-0.1-1.1-0.1-1.7
					c-0.1-1.8-0.3-3.6-0.5-5.5c-0.8-8.3-2-18.1-3.4-28.4c0-0.1,0-0.1,0-0.2c-0.1-0.9-0.2-1.7-0.3-2.5c-0.1-0.8-0.2-1.5-0.3-2.2
					c-0.1-0.5-0.2-1.1-0.2-1.6c-0.1-1.1-0.3-2.1-0.4-3.2c-0.2-1.2-0.3-2.4-0.5-3.6v0c-0.2-1.6-0.5-3.3-0.7-4.9
					c-0.2-1.2-0.4-2.4-0.5-3.6c-0.3-2.2-0.7-4.4-1-6.5c-0.6-3.8-1.1-7.5-1.7-11.1c-0.1-0.7-0.2-1.3-0.3-2c-0.1-0.8-0.3-1.7-0.4-2.5
					c-0.2-1.5-0.5-2.9-0.7-4.3c-0.1-0.7-0.2-1.4-0.3-2.1c-0.3-1.7-0.5-3.4-0.8-5.1c-0.1-0.7-0.2-1.3-0.3-1.9c-0.2-1-0.3-2-0.5-3
					c-0.1-0.5-0.2-1-0.3-1.5c-0.1-0.3-0.1-0.6-0.1-0.9c-0.1-0.8-0.3-1.6-0.4-2.4c-0.2-1.1-0.4-2.2-0.5-3.2c-0.1-0.5-0.2-1-0.2-1.4
					c-0.1-0.3-0.1-0.6-0.1-0.9c-1-6.1-1.6-9.8-1.7-10.1c0,0,0,0,0,0s0,0,0,0c0,0,0,0,0.1,0c0.2-0.1,0.7-0.3,1.5-0.6
					c0.2-0.1,0.5-0.2,0.8-0.3c0.2-0.1,0.4-0.1,0.6-0.2c2.1-0.7,5.4-1.7,9.6-2.7c1.9-0.4,3.9-0.9,6.1-1.3c0.7-0.1,1.4-0.3,2.2-0.4
					c1-0.2,2-0.4,3-0.5c3.1-0.5,6.5-0.9,10.2-1.3c0.5-0.1,1.1-0.1,1.6-0.2c0,0,0,0,0,0c0,0,0,0,0,0.1v0c0,0.1,0.1,0.4,0.1,0.8
					c0.1,0.5,0.2,1.1,0.3,1.9c0,0.1,0,0.1,0,0.2c0,0,0,0.1,0,0.1c0,0.3,0.1,0.6,0.2,1c0.2,1.1,0.4,2.5,0.6,4c0,0.3,0.1,0.5,0.1,0.8
					c0.1,0.5,0.1,1.1,0.2,1.7c0.1,0.6,0.2,1.2,0.2,1.8c0.1,0.6,0.2,1.3,0.2,1.9c0.4,3.4,0.9,7.4,1.3,11.8c0.1,0.5,0.1,1.1,0.2,1.6
					c0.1,1.5,0.3,3,0.4,4.5c0,0.3,0,0.6,0.1,0.8c0.1,1.1,0.2,2.3,0.3,3.4c0,0.5,0.1,1,0.1,1.5c0,0.5,0.1,1,0.1,1.5
					c0,0.5,0.1,1,0.1,1.5c0,0.8,0.1,1.6,0.2,2.4c0,0.4,0,0.8,0.1,1.2c0,0.7,0.1,1.3,0.1,2c0,0.4,0,0.7,0.1,1.1
					c0.1,2.1,0.2,4.1,0.2,6.3C119.5,262.3,119.5,268.9,119.4,275.6z"/>
				<path class="st18" d="M114.1,202.2c0,0,6,33.1,5.3,73.3c0,0.1,0,0.1,0,0.1l-23.3-48.3l13.2-4.1l-15.1-5.1l8.1-14.4
					C105.9,203.2,109.8,202.6,114.1,202.2z"/>
			</g>
			<g>
				<path class="st8" d="M213.7,350.5H208c-1.7-9.5-3.6-20-5.9-31.3c-1.2-5.7-2.4-11.6-3.7-17.7c-1.6-7.2-3.2-14.6-5-22.2
					c-0.8-3.4-1.6-6.7-2.4-9.8c-0.9-3.6-1.8-7.1-2.7-10.4c-13.7-50.4-24-58.4-24.7-58.9l9.4,1.2l17,2.2v0
					c3.4,11.2,6.7,27.2,9.9,45.3c1.7,9.6,3.3,19.8,4.8,30.2v0C208.1,303.6,211.3,329.1,213.7,350.5z"/>
				<path class="st18" d="M213.7,350.5H208c-1.7-9.5-3.6-20-5.9-31.3c-1.2-5.7-2.4-11.6-3.7-17.7c-1.6-7.2-3.2-14.6-5-22.2
					c-0.8-3.4-1.6-6.7-2.4-9.8c-0.9-3.6-1.8-7.1-2.7-10.4c-13.7-50.4-24-58.4-24.7-58.9l9.4,1.2l17,2.2v0
					c3.4,11.2,6.7,27.2,9.9,45.3c1.7,9.6,3.3,19.8,4.8,30.2v0C208.1,303.6,211.3,329.1,213.7,350.5z"/>
				<path class="st18" d="M177.3,219.4l11.3,4.2c0,0,3.5,30,2.3,45.9c-15.1-59.7-26.7-68.8-27.4-69.3l9.4,1.2
					c4.2,2.6,10.7,7.3,15.1,13L177.3,219.4z"/>
			</g>
			<g>
				<path class="st8" d="M158.1,123.2c0,0,13.1,8.3,8.6,31.5C162.3,177.9,134.2,131.7,158.1,123.2z"/>
				<path class="st25" d="M118.5,152.9c3.3,18,1,21.2,11.3,29.3c15.4,12.2,38.3,12.2,39.3-6.5c1-16.9-0.9-47-19.5-51.9
					C131.3,119,115.2,135,118.5,152.9z"/>
				<path class="st8" d="M140.6,152.2c0.2,1.5,1,1.6,2,1.4c1-0.2,1.9-0.5,1.7-2c-0.2-1.5-1.3-2.6-2.3-2.5
					C141,149.2,140.4,150.6,140.6,152.2z"/>
				<path class="st8" d="M159.6,151.1c0.2,1.5,1,1.6,2,1.4c1-0.2,1.9-0.5,1.7-2c-0.2-1.5-1.3-2.6-2.3-2.5
					C160,148.2,159.4,149.6,159.6,151.1z"/>
				<path class="st26" d="M156.6,150.7c0,0,3.4,6.6,6.7,9.6c-1.9,2.2-5.6,1.7-5.6,1.7L156.6,150.7z"/>
				<path class="st8" d="M136.9,145.6c-0.2,0-0.3-0.1-0.4-0.2c-0.4-0.3-0.5-0.9-0.2-1.3c2.9-4.1,7.2-4,7.3-4c0.5,0,0.9,0.4,0.9,0.9
					c0,0.5-0.4,0.9-0.9,0.9l0,0c-0.1,0-3.4,0-5.8,3.3C137.6,145.5,137.2,145.6,136.9,145.6z"/>
				<path class="st8" d="M166.2,143c-0.3,0.1-0.6,0-0.8-0.2c-3.1-2.6-6.2-1.7-6.4-1.7c-0.5,0.1-1-0.1-1.1-0.6
					c-0.1-0.5,0.1-1,0.6-1.1c0.2,0,4.2-1.2,8.1,2c0.4,0.3,0.4,0.9,0.1,1.3C166.5,142.9,166.4,143,166.2,143z"/>
				<path class="st8" d="M121.8,165c8.4,4.5,6.2-4,5.6-4.9c-2.7-3.8-0.6-9.1,2-16.7c1.1-3.4,0.1-8.8,0.1-8.8s-10.3-1.7-16.3,0.1
					c-6.2,1.8-6.3,6.8-6.3,6.8C108.7,157.3,115,161.4,121.8,165z"/>
				<path class="st25" d="M111.7,166c2.3,4.1,6,6.8,9.4,7.8c5.1,1.5,7.2-3.5,5.4-8.8c-1.6-4.8-6.2-11.3-11.1-10.5
					C110.5,155.3,109,161.3,111.7,166z"/>
				<g>
					<path class="st8" d="M160.3,167.3c-1,2.8-1.7,8-1.7,8c-0.5,0-1,0-1.4,0c-6.6,0.1-9.6-2.1-11-4.5c-0.8-1.3-1-2.7-1.1-3.9
						c-0.1-1.3,0.2-2.3,0.2-2.3c3.5,2,9.6,2.5,12.9,2.5C159.4,167.4,160.3,167.3,160.3,167.3z"/>
					<path class="st4" d="M158,167.3l-0.6,2.4c-6.2,0-10.5-0.8-12.5-2.6c-0.1-1.3,0.2-2.3,0.2-2.3
						C148.6,166.8,154.7,167.3,158,167.3z"/>
					<path class="st27" d="M157.1,175.4c-6.6,0.1-9.6-2.1-11-4.5c2.2,0.1,4.9,0.4,7.3,1.4C155.2,173.1,156.3,174.2,157.1,175.4z"/>
				</g>
				<path class="st8" d="M107.2,143.9c0,0-7.8-9.9,4.5-20c12.3-10.1,32.5-11.9,44.1-8.2c11.6,3.7,3.5,13.5-8.5,18.1
					c-6.6,2.5-9.4,1.4-9.4,1.4s3.5,0.3,8.2-4.4c0,0-16.6,0.4-18.9,10.5C124.7,151.5,107.2,143.9,107.2,143.9z"/>
			</g>
			<path class="st17" d="M90.5,287.7c-0.7-5.2-1.4-10.4-2.2-15.6c-0.5-3.4-1-6.8-1.5-10.1c0.5-1.4,1.1-2.7,2-3.8
				C88.7,258.3,93.4,270.6,90.5,287.7z"/>
			<path class="st7" d="M143.7,216.4l8.9,7c0,0,6.8,43.2,6.6,80.6l7.8,8.4l5.8-9.9c0,0-10.4-60.8-16.2-79.1l5.2-10.2l-9.8-0.1
				L143.7,216.4z"/>
			<g>
				<g>
					<path class="st20" d="M151.9,213.1c0,0-4.4,6-9.6,12.1c-8.4-3.4-28.3-12.7-28.2-22.9c0.9-3,8.4-5.6,8.4-5.6
						S131.8,206.9,151.9,213.1z"/>
				</g>
				<g>
					<path class="st20" d="M151.9,213.1c0,0,6.7,4.4,11.4,10.3c5.6-4.4,1-22.9-1.3-24.8c-5-2.4-10.5-1.8-10.5-1.8
						S156.4,205,151.9,213.1z"/>
				</g>
				<g class="st28">
					<g>
						<path class="st4" d="M151.9,213.1c0,0-4.4,6-9.6,12.1c-8.4-3.4-28.3-12.7-28.2-22.9c0.9-3,8.4-5.6,8.4-5.6
							S131.8,206.9,151.9,213.1z"/>
					</g>
					<g>
						<path class="st4" d="M151.9,213.1c0,0,6.7,4.4,11.4,10.3c5.6-4.4,1-22.9-1.3-24.8c-5-2.4-10.5-1.8-10.5-1.8
							S156.4,205,151.9,213.1z"/>
					</g>
				</g>
			</g>
			<path class="st8" d="M91.2,264.6l-0.4,2.4L89,277.1v0l-5.9,33.4l0.9,40H73.5V215.3c1.6-3.1,3.2-5.2,4.9-5.6v0c0,0,0,0,0,0
				c0.3,0.3,5.9,6.7,9.6,20.7c1.2,4.2,2.1,9.2,2.7,14.9C91.4,250.9,91.6,257.3,91.2,264.6z"/>
			<path class="st18" d="M91.2,264.6l-0.4,2.4L89,277.1v0l-5.9,33.4l0.9,40H73.5V215.3c1.6-3.1,3.2-5.2,4.9-5.6v0c0,0,0,0,0,0
				c0.3,0.3,5.9,6.7,9.6,20.7c1.2,4.2,2.1,9.2,2.7,14.9C91.4,250.9,91.6,257.3,91.2,264.6z"/>
			<g>
				<path class="st8" d="M126.3,159.8c1.9,6.8,0,13.6-4.4,15.2c-4.3,1.6-9.4-2.5-11.3-9.3c-1.9-6.8,0-13.6,4.4-15.2
					C119.4,148.9,124.4,153.1,126.3,159.8z"/>
				<path class="st18" d="M126.3,159.8c1.9,6.8,0,13.6-4.4,15.2c-4.3,1.6-9.4-2.5-11.3-9.3c-1.9-6.8,0-13.6,4.4-15.2
					C119.4,148.9,124.4,153.1,126.3,159.8z"/>
				<path class="st8" d="M117.3,157c0,0-3.2-33.8,13.8-41.9c0,0-2.3-0.5-4.8,0.7c-2.4,1.1-17.1,7.2-14.7,40.9L117.3,157z"/>
				<path class="st22" d="M117.1,153c0.1,2.5,0.2,4,0.2,4l-5.6-0.3c-0.1-0.7-0.1-1.4-0.1-2.1c-1.7-31.8,12.4-37.7,14.8-38.8
					c2.4-1.1,4.8-0.7,4.8-0.7C117.7,121.5,116.9,143.8,117.1,153z"/>
				<path class="st8" d="M170.5,178.8l-3.2,0.7c-0.6,0.1-1.1-0.2-1.3-0.8l-0.1-0.3c-0.1-0.6,0.2-1.1,0.8-1.3l3.2-0.7
					c0.6-0.1,1.1,0.2,1.3,0.8l0.1,0.3C171.4,178.1,171,178.7,170.5,178.8z"/>
				<path class="st18" d="M170.5,178.8l-3.2,0.7c-0.6,0.1-1.1-0.2-1.3-0.8l-0.1-0.3c-0.1-0.6,0.2-1.1,0.8-1.3l3.2-0.7
					c0.6-0.1,1.1,0.2,1.3,0.8l0.1,0.3C171.4,178.1,171,178.7,170.5,178.8z"/>
				<path class="st17" d="M117.3,157l-5.6-0.3c-0.1-0.7-0.1-1.4-0.1-2.1c0,0,1.5-2.8,5.6-1.5C117.2,155.5,117.3,157,117.3,157z"/>
				<path class="st8" d="M122,161.9c1.4,5.1,0,10.2-3.3,11.4c-3.3,1.2-7.1-1.9-8.5-7c-1.4-5.1,0-10.2,3.3-11.4
					C116.8,153.6,120.6,156.8,122,161.9z"/>
				<path class="st22" d="M122,161.9c1.4,5.1,0,10.2-3.3,11.4c-3.3,1.2-7.1-1.9-8.5-7c-1.4-5.1,0-10.2,3.3-11.4
					C116.8,153.6,120.6,156.8,122,161.9z"/>
			</g>
		</g>
	</g>
	<g>
		<path class="st29" d="M408.1,226.9h-73.8c-1.7,0-3.1-1.4-3.1-3.1v-69c0-1.7,1.4-3.1,3.1-3.1h73.8c1.7,0,3.1,1.4,3.1,3.1v69
			C411.3,225.5,409.9,226.9,408.1,226.9z"/>
		<g>
			<circle class="st14" cx="371.2" cy="189.3" r="26"/>
			<path class="st30" d="M371.2,189.3h26c0,14.2-11.7,26-26,26c-14.2,0-26-11.7-26-26s11.7-26,26-26c3.3,0,6.5,0.6,9.6,1.8
				L371.2,189.3z"/>
			<path class="st30" d="M371.2,189.3l-0.7,26c-14-0.4-25.3-12-25.3-26c0-14.2,11.7-26,26-26c3.3,0,6.5,0.6,9.6,1.8L371.2,189.3z"/>
		</g>
		<circle class="st4" cx="371.2" cy="189.3" r="16.2"/>
		<rect x="339.1" y="160.2" class="st4" width="11.7" height="6.1"/>
		<rect x="391.4" y="213.5" class="st4" width="11.7" height="6.1"/>
		<rect x="390.1" y="158" class="st4" width="11.7" height="6.1"/>
		<line class="st31" x1="344.9" y1="163.3" x2="355" y2="174.4"/>
		<line class="st31" x1="396" y1="161.5" x2="389.1" y2="176.3"/>
		<line class="st31" x1="397.2" y1="216.6" x2="388.1" y2="203"/>
		<path class="st4" d="M355.8,174.4c0,0.4-0.4,0.8-0.8,0.8c-0.4,0-0.8-0.4-0.8-0.8c0-0.4,0.4-0.8,0.8-0.8
			C355.4,173.6,355.8,173.9,355.8,174.4z"/>
		<circle class="st4" cx="389.1" cy="176.3" r="0.8"/>
		<path class="st4" d="M388.9,203c0,0.4-0.4,0.8-0.8,0.8c-0.4,0-0.8-0.4-0.8-0.8c0-0.4,0.4-0.8,0.8-0.8
			C388.5,202.3,388.9,202.6,388.9,203z"/>
	</g>
	<g>
		<path class="st29" d="M397.8,340.1h-93.9c-1.7,0-3.1-1.4-3.1-3.1v-69c0-1.7,1.4-3.1,3.1-3.1h93.9c1.7,0,3.1,1.4,3.1,3.1v69
			C400.9,338.7,399.5,340.1,397.8,340.1z"/>
		<g>
			<path class="st32" d="M390.5,281.5v-0.3h-4.7v-4.4h-0.3v4.4h-7.8v-4.4h-0.3v4.4h-7.8v-4.4h-0.3v4.4h-7.8v-4.4h-0.3v4.4h-7.8v-4.4
				h-0.3v4.4h-7.8v-4.4h-0.3v4.4H337v-4.4h-0.3v4.4h-7.8v-4.4h-0.3v4.4h-7.8v-4.4h-0.3v4.4h-8.8v0.3h8.8v7.5h-8.8v0.3h8.8v7.5h-8.8
				v0.3h8.8v7.5h-8.8v0.3h8.8v7.5h-8.8v0.3h8.8v7.5h-8.8v0.3h8.8v8.3h0.3v-8.3h7.8v8.3h0.3v-8.3h7.8v8.3h0.3v-8.3h7.8v8.3h0.3v-8.3
				h7.8v8.3h0.3v-8.3h7.8v8.3h0.3v-8.3h7.8v8.3h0.3v-8.3h7.8v8.3h0.3v-8.3h7.8v8.3h0.3v-8.3h4.7V320h-4.7v-7.5h4.7v-0.3h-4.7v-7.5
				h4.7v-0.3h-4.7V297h4.7v-0.3h-4.7v-7.5h4.7v-0.3h-4.7v-7.5H390.5z M377.4,281.5v7.5h-7.8v-7.5H377.4z M345.1,297h7.8v7.5h-7.8
				V297z M344.8,304.5H337V297h7.8V304.5z M353.2,297h7.8v7.5h-7.8V297z M361.4,297h7.8v7.5h-7.8V297z M361.4,296.7v-7.5h7.8v7.5
				H361.4z M361.1,296.7h-7.8v-7.5h7.8V296.7z M352.9,296.7h-7.8v-7.5h7.8V296.7z M344.8,296.7H337v-7.5h7.8V296.7z M336.7,296.7
				h-7.8v-7.5h7.8V296.7z M336.7,297v7.5h-7.8V297H336.7z M336.7,304.8v7.5h-7.8v-7.5H336.7z M337,304.8h7.8v7.5H337V304.8z
				 M345.1,304.8h7.8v7.5h-7.8V304.8z M353.2,304.8h7.8v7.5h-7.8V304.8z M361.4,304.8h7.8v7.5h-7.8V304.8z M369.5,304.8h7.8v7.5
				h-7.8V304.8z M369.5,304.5V297h7.8v7.5H369.5z M369.5,296.7v-7.5h7.8v7.5H369.5z M369.2,281.5v7.5h-7.8v-7.5H369.2z M361.1,281.5
				v7.5h-7.8v-7.5H361.1z M352.9,281.5v7.5h-7.8v-7.5H352.9z M344.8,281.5v7.5H337v-7.5H344.8z M336.7,281.5v7.5h-7.8v-7.5H336.7z
				 M320.7,281.5h7.8v7.5h-7.8V281.5z M320.7,289.2h7.8v7.5h-7.8V289.2z M320.7,297h7.8v7.5h-7.8V297z M320.7,304.8h7.8v7.5h-7.8
				V304.8z M320.7,320v-7.5h7.8v7.5H320.7z M328.8,320v-7.5h7.8v7.5H328.8z M337,320v-7.5h7.8v7.5H337z M345.1,320v-7.5h7.8v7.5
				H345.1z M353.2,320v-7.5h7.8v7.5H353.2z M361.4,320v-7.5h7.8v7.5H361.4z M369.5,320v-7.5h7.8v7.5H369.5z M385.5,320h-7.8v-7.5
				h7.8V320z M385.5,312.2h-7.8v-7.5h7.8V312.2z M385.5,304.5h-7.8V297h7.8V304.5z M385.5,296.7h-7.8v-7.5h7.8V296.7z M385.5,288.9
				h-7.8v-7.5h7.8V288.9z"/>
			<path class="st4" d="M322.3,324.6c0,1.1-0.9,1.9-1.9,1.9c-1.1,0-1.9-0.9-1.9-1.9c0-1.1,0.9-1.9,1.9-1.9
				C321.4,322.7,322.3,323.6,322.3,324.6z"/>
			<polyline class="st33" points="312.1,327.9 320.4,324.6 328.5,320.3 336.7,317 344.8,312.2 361.1,316.3 369.2,312.2 385.8,304.8 
							"/>
			<polyline class="st34" points="390.2,327.9 311.2,327.9 311.2,276.3 			"/>
			<polyline class="st35" points="311.2,327.9 320.4,320 328.5,309.5 337,312.2 345.1,304.8 361.1,312.5 369.2,304.5 385.5,289.2 
							"/>
			<path class="st36" d="M322.3,320c0,1.1-0.9,1.9-1.9,1.9c-1.1,0-1.9-0.9-1.9-1.9c0-1.1,0.9-1.9,1.9-1.9
				C321.4,318.1,322.3,318.9,322.3,320z"/>
			<path class="st4" d="M330.4,320c0,1.1-0.9,1.9-1.9,1.9c-1.1,0-1.9-0.9-1.9-1.9c0-1.1,0.9-1.9,1.9-1.9
				C329.6,318.1,330.4,318.9,330.4,320z"/>
			<circle class="st4" cx="336.7" cy="317" r="1.9"/>
			<path class="st4" d="M346.7,312.5c0,1.1-0.9,1.9-1.9,1.9c-1.1,0-1.9-0.9-1.9-1.9s0.9-1.9,1.9-1.9
				C345.9,310.6,346.7,311.5,346.7,312.5z"/>
			<path class="st4" d="M363,316.3c0,1.1-0.9,1.9-1.9,1.9s-1.9-0.9-1.9-1.9c0-1.1,0.9-1.9,1.9-1.9S363,315.2,363,316.3z"/>
			<path class="st4" d="M371.1,312.5c0,1.1-0.9,1.9-1.9,1.9c-1.1,0-1.9-0.9-1.9-1.9s0.9-1.9,1.9-1.9
				C370.3,310.6,371.1,311.5,371.1,312.5z"/>
			<path class="st4" d="M387.4,304.8c0,1.1-0.9,1.9-1.9,1.9c-1.1,0-1.9-0.9-1.9-1.9c0-1.1,0.9-1.9,1.9-1.9
				C386.6,302.8,387.4,303.7,387.4,304.8z"/>
			<path class="st36" d="M330.4,309.5c0,1.1-0.9,1.9-1.9,1.9c-1.1,0-1.9-0.9-1.9-1.9s0.9-1.9,1.9-1.9
				C329.6,307.5,330.4,308.4,330.4,309.5z"/>
			<path class="st36" d="M338.9,312.2c0,1.1-0.9,1.9-1.9,1.9c-1.1,0-1.9-0.9-1.9-1.9c0-1.1,0.9-1.9,1.9-1.9
				C338,310.3,338.9,311.2,338.9,312.2z"/>
			<path class="st36" d="M347,304.8c0,1.1-0.9,1.9-1.9,1.9c-1.1,0-1.9-0.9-1.9-1.9c0-1.1,0.9-1.9,1.9-1.9
				C346.2,302.8,347,303.7,347,304.8z"/>
			<path class="st36" d="M363,312.5c0,1.1-0.9,1.9-1.9,1.9s-1.9-0.9-1.9-1.9s0.9-1.9,1.9-1.9S363,311.5,363,312.5z"/>
			<path class="st36" d="M371.1,304.5c0,1.1-0.9,1.9-1.9,1.9c-1.1,0-1.9-0.9-1.9-1.9c0-1.1,0.9-1.9,1.9-1.9
				C370.3,302.5,371.1,303.4,371.1,304.5z"/>
			<path class="st36" d="M387.4,289.2c0,1.1-0.9,1.9-1.9,1.9c-1.1,0-1.9-0.9-1.9-1.9c0-1.1,0.9-1.9,1.9-1.9
				C386.6,287.3,387.4,288.2,387.4,289.2z"/>
		</g>
	</g>
	<g>
		<path class="st29" d="M299.8,196.5h-93.9c-1.7,0-3.1-1.4-3.1-3.1v-69c0-1.7,1.4-3.1,3.1-3.1h93.9c1.7,0,3.1,1.4,3.1,3.1v69
			C302.9,195.1,301.5,196.5,299.8,196.5z"/>
		<g>
			<path class="st32" d="M292.5,137.9v-0.3h-4.7v-4.4h-0.3v4.4h-7.8v-4.4h-0.3v4.4h-7.8v-4.4h-0.3v4.4h-7.8v-4.4h-0.3v4.4h-7.8v-4.4
				h-0.3v4.4h-7.8v-4.4h-0.3v4.4H239v-4.4h-0.3v4.4h-7.8v-4.4h-0.3v4.4h-7.8v-4.4h-0.3v4.4h-8.8v0.3h8.8v7.5h-8.8v0.3h8.8v7.5h-8.8
				v0.3h8.8v7.5h-8.8v0.3h8.8v7.5h-8.8v0.3h8.8v7.5h-8.8v0.3h8.8v8.3h0.3v-8.3h7.8v8.3h0.3v-8.3h7.8v8.3h0.3v-8.3h7.8v8.3h0.3v-8.3
				h7.8v8.3h0.3v-8.3h7.8v8.3h0.3v-8.3h7.8v8.3h0.3v-8.3h7.8v8.3h0.3v-8.3h7.8v8.3h0.3v-8.3h4.7v-0.3h-4.7v-7.5h4.7v-0.3h-4.7v-7.5
				h4.7v-0.3h-4.7v-7.5h4.7v-0.3h-4.7v-7.5h4.7v-0.3h-4.7v-7.5H292.5z M279.4,137.9v7.5h-7.8v-7.5H279.4z M247.1,153.4h7.8v7.5h-7.8
				V153.4z M246.8,160.9H239v-7.5h7.8V160.9z M255.2,153.4h7.8v7.5h-7.8V153.4z M263.4,153.4h7.8v7.5h-7.8V153.4z M263.4,153.1v-7.5
				h7.8v7.5H263.4z M263.1,153.1h-7.8v-7.5h7.8V153.1z M254.9,153.1h-7.8v-7.5h7.8V153.1z M246.8,153.1H239v-7.5h7.8V153.1z
				 M238.7,153.1h-7.8v-7.5h7.8V153.1z M238.7,153.4v7.5h-7.8v-7.5H238.7z M238.7,161.2v7.5h-7.8v-7.5H238.7z M239,161.2h7.8v7.5
				H239V161.2z M247.1,161.2h7.8v7.5h-7.8V161.2z M255.2,161.2h7.8v7.5h-7.8V161.2z M263.4,161.2h7.8v7.5h-7.8V161.2z M271.5,161.2
				h7.8v7.5h-7.8V161.2z M271.5,160.9v-7.5h7.8v7.5H271.5z M271.5,153.1v-7.5h7.8v7.5H271.5z M271.2,137.9v7.5h-7.8v-7.5H271.2z
				 M263.1,137.9v7.5h-7.8v-7.5H263.1z M254.9,137.9v7.5h-7.8v-7.5H254.9z M246.8,137.9v7.5H239v-7.5H246.8z M238.7,137.9v7.5h-7.8
				v-7.5H238.7z M222.7,137.9h7.8v7.5h-7.8V137.9z M222.7,145.6h7.8v7.5h-7.8V145.6z M222.7,153.4h7.8v7.5h-7.8V153.4z M222.7,161.2
				h7.8v7.5h-7.8V161.2z M222.7,176.4v-7.5h7.8v7.5H222.7z M230.8,176.4v-7.5h7.8v7.5H230.8z M239,176.4v-7.5h7.8v7.5H239z
				 M247.1,176.4v-7.5h7.8v7.5H247.1z M255.2,176.4v-7.5h7.8v7.5H255.2z M263.4,176.4v-7.5h7.8v7.5H263.4z M271.5,176.4v-7.5h7.8
				v7.5H271.5z M287.5,176.4h-7.8v-7.5h7.8V176.4z M287.5,168.6h-7.8v-7.5h7.8V168.6z M287.5,160.9h-7.8v-7.5h7.8V160.9z
				 M287.5,153.1h-7.8v-7.5h7.8V153.1z M287.5,145.3h-7.8v-7.5h7.8V145.3z"/>
			<g>
				<rect x="218.6" y="179.6" class="st14" width="6.2" height="4.7"/>
				<rect x="230.7" y="171" class="st14" width="6.2" height="13.3"/>
				<rect x="242.7" y="161.4" class="st14" width="6.2" height="22.9"/>
				<rect x="254.8" y="165.6" class="st14" width="6.2" height="18.8"/>
				<rect x="266.9" y="158" class="st14" width="6.2" height="26.3"/>
				<rect x="278.9" y="139.7" class="st14" width="6.2" height="44.7"/>
			</g>
			<polyline class="st34" points="292.1,184.3 213.2,184.3 213.2,132.7 			"/>
		</g>
	</g>
	<g>
		<g>
			
				<ellipse transform="matrix(0.7071 -0.7071 0.7071 0.7071 60.9962 349.4052)" class="st7" cx="452.3" cy="101.1" rx="22" ry="22"/>
		</g>
		<g>
			<path class="st4" d="M455.5,96.4c0-1.9-1.6-3.1-4.1-3.1c-2.5,0-4.2,0.9-5.4,2.5l-3.2-2.1c1.9-2.5,4.8-4,9-4c4.9,0,8.1,2.2,8.1,6
				c0,5.4-5.7,5.9-5.7,9.8H450C450,100.6,455.5,99.7,455.5,96.4z M449.5,110.9c0-1.4,1.1-2.5,2.6-2.5c1.5,0,2.6,1.1,2.6,2.5
				c0,1.4-1.1,2.6-2.6,2.6C450.6,113.4,449.5,112.3,449.5,110.9z"/>
		</g>
		<g>
			<polygon class="st7" points="452.3,116.8 449.3,120.9 452.3,129.9 455.3,120.9 			"/>
		</g>
	</g>
	<g>
		<path class="st14" d="M432.5,209.5c0,0-1.5,1.8-3.7,4.3c-2,2.2-4.5,4.9-7.2,7.5c-4.7,4.6-9.7,8.6-11.7,7.4
			c-3.9-2.3-1.7-8.5-1.7-8.5s13.5-24.8,21.8-28.6c5.4-2.5,13.3-1.4,13.3-1.4C444.2,192.6,432.5,209.5,432.5,209.5z"/>
		<path class="st17" d="M428.8,213.8c-2,2.2-4.5,4.9-7.2,7.5c1.2-11.8,6.8-18.6,6.8-18.6C429.5,204.5,429.4,208.9,428.8,213.8z"/>
		<path class="st8" d="M472,200.2c4.3-4.8,1.7-13.4,3-30.7c1.3-17.3-9.5-19.6-9.5-19.6s-1.5-8.5-9.5-8.1c-8,0.4-23.8,4.2-23.9,22.7
			c-0.2,18.5-2.7,21.1-7,24.8c-4.3,3.7,4.6,11.3,2.9,14.8c0,0,16.6,7.2,39.8,5.7C467.8,209.8,466.9,205.9,472,200.2z"/>
		<g>
			<path class="st14" d="M474.1,426.5l-1,1.3l-1.9-0.8l-1.2,5.9l-8.1,11.2c0,0-3.1,0.5-0.7-5.9c0.1-0.3,0.2-0.6,0.3-1
				c0.7-3.8-0.9-11.1-0.9-11.1l4.4-6.1c0,0,0.5,0,1.2,0.1C468.2,420.5,471.9,421.3,474.1,426.5z"/>
			<path class="st17" d="M474.1,426.5l-1,1.3l-1.9-0.8l-1.2,5.9l-8.1,11.2c0,0-3.1,0.5-0.7-5.9c0.1-0.3,0.2-0.6,0.3-1
				c0.7-3.8-0.9-11.1-0.9-11.1l4.4-6.1c0,0,0.5,0,1.2,0.1C468.2,420.5,471.9,421.3,474.1,426.5z"/>
			<path class="st25" d="M466.4,420.2C466.4,420.2,466.4,420.2,466.4,420.2c-1.5,0.2-0.2,6.7-0.8,10.4c-0.5,3.3-2,6.4-4.1,6.7
				c0.7-3.8-1.9-12.5-1.9-12.5l3.6-4.9C463.3,419.8,465.6,420,466.4,420.2z"/>
			<path class="st17" d="M466.4,420.2C466.4,420.2,466.4,420.2,466.4,420.2c-1.5,0.2-0.2,6.7-0.8,10.4c-0.5,3.3-2,6.4-4.1,6.7
				c0.7-3.8-1.9-12.5-1.9-12.5l3.6-4.9C463.3,419.8,465.6,420,466.4,420.2z"/>
		</g>
		<g>
			<path class="st14" d="M461.8,443.7l-1.6,0l-0.5-2l-5.4,2.5h-13.8c0,0-2.2-2.2,4.4-4c0.3-0.1,0.6-0.2,0.9-0.4
				c3.5-1.6,8.5-7.2,8.5-7.2h7.6c0,0,0.3,0.4,0.6,1.1C463.2,435.3,464.7,438.8,461.8,443.7z"/>
			<path class="st25" d="M462.4,433.7C462.4,433.7,462.4,433.7,462.4,433.7c-1-1.1-5.5,3.8-8.9,5.5c-3,1.5-6.3,2.1-7.8,0.6
				c3.5-1.6,9-8.8,9-8.8h6.1C460.8,431,462,433,462.4,433.7z"/>
		</g>
		<path class="st8" d="M420.1,354.2c3.7,6.8,7.4,14.1,11,21.5c4.7,9.7,9.2,19.4,13,28.1c4,9.2,7.3,17.2,9.3,22.7
			c1.9,0.2,7.7-3.2,9.4-6.4c0,0-4.1-26.8-13.5-52.5c-3.8-10.3-8.4-20.4-13.9-28.5c22.6-64.2,17-88.3,17-88.3l-26.2-1.2
			c0,0-4,23.9-7.1,48.5c0,0,0,0,0,0c-1.6,12.9-3.1,25.9-3.6,35.7v0.1C415.1,340.9,416.7,348,420.1,354.2z"/>
		<path class="st17" d="M441.6,319.9c3.3-10.9,5.7-20.4,7.4-28.5c-1.7-6.3-4-11.8-7.3-15C441.7,276.4,437.1,294.1,441.6,319.9z"/>
		<path class="st17" d="M444,403.8c4,9.2,7.3,17.2,9.3,22.7c1.9,0.2,7.7-3.2,9.4-6.4c0,0-4.1-26.8-13.5-52.5
			C447.3,378.2,445.2,391.6,444,403.8z"/>
		<g>
			<path class="st8" d="M436.2,246.6c0,0,7.6,58.9,12,87.3c4.6,29.8,5.2,77.6,4,97.1c1.7,1,7.8,2.1,11,1.1c0,0,15.5-60.2,5.2-95.2
				c9.4-68.9-4.2-85.8-4.2-85.8L436.2,246.6z"/>
		</g>
		<path class="st37" d="M438.7,209.5c11.2-10.5,25.3-17.6,25.3-17.6c-0.8-0.1-1.7-0.2-2.5-0.3c-6.4-0.5-11.7-0.9-17.4-0.6
			c-1.4,0.1-2.9,0.2-4.4,0.3v0C436,199.7,438.7,209.5,438.7,209.5z"/>
		<g>
			<path class="st20" d="M464,246.6c0.8-8.9,4-25.3,9.5-42.5c1.8-5.6-1.2-11.9-1.2-11.9s-7.5-0.2-8.3-0.3c-0.8-0.1-1.7-0.2-2.5-0.3
				c-6.4-0.5-11.7-0.9-17.4-0.6c-1.4,0.1-2.9,0.2-4.4,0.3c-0.5,0-5.7,0.1-6.2,0.1c0,0-7.3,8.4-7.7,15.1c-0.2,3.8-0.8,6.6-0.6,15.7
				c0,6.1,0.5,14.2,0.9,22.9L464,246.6z"/>
			<path class="st12" d="M464,246.6c0.8-8.9,4-25.3,9.5-42.5c1.8-5.6-1.2-11.9-1.2-11.9s-7.5-0.2-8.3-0.3c-0.8-0.1-1.7-0.2-2.5-0.3
				c-6.4-0.5-11.7-0.9-17.4-0.6c-1.4,0.1-2.9,0.2-4.4,0.3c-0.5,0-5.7,0.1-6.2,0.1c0,0-7.3,8.4-7.7,15.1c-0.2,3.8-0.8,6.6-0.6,15.7
				c0,6.1,0.5,14.2,0.9,22.9L464,246.6z"/>
			<path class="st8" d="M464,246.6l-38.1-2.6c0,0-1.1,11.4-0.9,11.3c0.3-0.2,40.8,1.4,40.8,1.4L464,246.6z"/>
			<polygon points="463.7,247.3 426,245.2 426,248.8 464,250.8 			"/>
			<path class="st38" d="M443.2,249.2l0.2-2.1c0-0.4-0.3-0.7-0.7-0.8l-4.1-0.3c-0.4,0-0.8,0.3-0.8,0.7v2.2c0,0.4,0.3,0.7,0.7,0.7
				l4,0.2C442.8,249.9,443.1,249.6,443.2,249.2z"/>
		</g>
		<path class="st14" d="M460.9,272.8l13.2-2.4l-7.7-28.3c0,0,2-7,4.1-15.1c1-3.9,2.1-8.1,3.1-11.8c1.3-5.3,2.4-9.8,2.4-11.2
			c0.2-4.5-3.8-11.8-3.8-11.8l-9.5-1.5c0,0-8.7,9.6-9.2,27.9C453,236.9,460.9,272.8,460.9,272.8z"/>
		<path class="st14" d="M441.1,190.6c0,0-8.3,14.4-10.2,25c-1.9,10.6-7.1,55.9-7.1,55.9l-2.9-1.4l4-27c0,0-1.4-31.3-0.3-37.7
			c1.1-6.4,8.3-14.8,8.3-14.8H441.1z"/>
		<g>
			<path class="st39" d="M445.2,190l-0.6-0.5c0,0-8.1,1-15.4,10.2l2.9,2.8l-4.9,3.9l2.3,19c0,0,7.4-25.3,10.6-31.3
				C440.1,194,442.8,191.1,445.2,190z"/>
			<path class="st40" d="M445.2,190l-0.6-0.5c0,0-8.1,0.9-15.4,10.2l2.9,2.8l-4.9,3.9l2.3,19c0,0,7.4-25.3,10.6-31.3
				C440.1,194,442.8,191.1,445.2,190z"/>
			<path class="st39" d="M460.9,190.6c0,0-9.2,10.1-7.1,36.8l9-19.2l-3.3-5.2l7.6-7.1c0,0-4-7.6-6.8-6.8L460.9,190.6z"/>
			<path class="st40" d="M460.9,190.6c0,0-9.2,10.1-7.1,36.8l9-19.2l-3.3-5.2l7.6-7.1c0,0-4-7.6-6.8-6.8L460.9,190.6z"/>
		</g>
		<g>
			<path class="st25" d="M441.8,193.5l2.1,12.6l16.6-14.5c-3.5-3.9-1.3-14.1,0.4-19.7l-4.7,3.5l-7,5.2c0.2,1.2,0,2.8-0.3,4.3
				c-0.5,2.2-1.5,4.3-2.5,4.8L441.8,193.5z"/>
			<path class="st17" d="M448.9,185c2.8-0.6,6.4-3.5,7-6.4c0.2-1.2,0.3-2.4,0.3-3.2l-7,5.2C449.4,181.9,449.2,183.5,448.9,185z"/>
			<path class="st20" d="M459.7,188.4c0,0-7.1,5.5-15.5,17.1c0,0-0.7-11.6,2.1-15.7l-0.6-0.7c0,0-6.1,2.3-11,8.7l5.5-1.7l3.8,10.2
				l11.3-9.4l7.6,1.3C463,198.2,462.6,190.7,459.7,188.4z"/>
			<path class="st37" d="M459.7,188.4c0,0-7.1,5.5-15.5,17.1c0,0-0.7-11.6,2.1-15.7l-0.6-0.7c0,0-6.1,2.3-11,8.7l5.5-1.7l3.8,10.2
				l11.3-9.4l7.6,1.3C463,198.2,462.6,190.7,459.7,188.4z"/>
		</g>
		<path class="st17" d="M468.8,224.8c0.4,1,1,1.7,1.7,2.2c1-3.9,2.1-8.1,3.1-11.8c-2.4-2.9-4.5-5.4-4.5-5.4S466.3,218.5,468.8,224.8
			z"/>
		<path class="st14" d="M472.3,192.2c5.2,0.6,21.2,40.2,20.2,46.5c-1,6.3-35.3,3.4-35.3,3.4v-9.5l20-4l-6.9-13.6
			c0,0-2.1-6.3-1.5-12.2C469.4,196.9,472.3,192.2,472.3,192.2z"/>
		<g>
			<path class="st8" d="M442.3,250.1l26.3-3.2c1-0.1,1.7-1,1.6-2l-4.6-33.8c-0.2-1-1.1-1.7-2.1-1.6l-26.3,3.2c-1,0.1-1.7,1-1.6,2
				l4.6,33.8C440.3,249.5,441.2,250.2,442.3,250.1z"/>
			<path class="st9" d="M442.3,250.1l26.3-3.2c1-0.1,1.7-1,1.6-2l-4.6-33.8c-0.2-1-1.1-1.7-2.1-1.6l-26.3,3.2c-1,0.1-1.7,1-1.6,2
				l4.6,33.8C440.3,249.5,441.2,250.2,442.3,250.1z"/>
			<path class="st18" d="M443.4,250l25.2-3.1c1-0.1,1.7-1,1.6-2l-4.6-33.8c-0.2-1-1.1-1.7-2.1-1.6l-25.2,3.1c-1,0.1-1.7,1-1.6,2
				l4.6,33.8C441.4,249.4,442.3,250.1,443.4,250z"/>
			<path class="st8" d="M453.4,226.9c1.6-0.2,3,0.9,3.3,2.4c0.2,1.5-0.8,2.9-2.4,3.1c-1.6,0.2-3-0.9-3.3-2.4
				C452.6,229.8,453.7,228.4,453.4,226.9z"/>
			<path class="st16" d="M444.5,214.5l13.9-1.7c0.7-0.1,1.2-0.6,1.4-1.2l0.4-1.7l-18.3,2.2l0.9,1.6
				C443.1,214.3,443.8,214.6,444.5,214.5z"/>
		</g>
		<path class="st25" d="M442.5,231.4l7.8,2.2l1.6,5.2c-0.8,4.2-8.9,2.4-8.9,2.4l-1.7,1c-1.3,0.8-3.1,0.1-3.4-1.5l-0.9-4.9
			c-0.1-0.8,0.2-1.6,0.8-2.2l2.5-1.9C441.1,231.3,441.8,231.2,442.5,231.4z"/>
		<path class="st14" d="M488.2,222.3c2.7,7.5,4.6,14.1,4.3,16.4c-1,6.3-41.1,2.4-41.1,2.4l-1-7.4l26.9-5.1L488.2,222.3z"/>
		<g>
			<path class="st25" d="M449.5,151.2c-9,0.6-11.6,5.7-11.6,15c0,11.7,3.1,19.7,14.2,16.5C467.2,178.2,464.5,150.1,449.5,151.2z"/>
			<path class="st26" d="M443.7,165.2c0,0-1.1,2.4-2.4,3.9c0,0,0.9,1.2,2.4,0.9L443.7,165.2z"/>
			<g>
				<path class="st8" d="M449.2,164.1c0,0.7,0.5,1.3,1,1.3c0.5,0,0.9-0.6,0.8-1.4c0-0.7-0.5-1.3-1-1.3
					C449.5,162.8,449.1,163.4,449.2,164.1z"/>
				<path class="st8" d="M450.2,162.8l-1.6-0.6C448.6,162.2,449.4,163.5,450.2,162.8z"/>
			</g>
			<g>
				<path class="st8" d="M439.9,164.4c0,0.7,0.5,1.3,1,1.3c0.5,0,0.9-0.6,0.8-1.4c0-0.7-0.5-1.3-1-1.3
					C440.3,163,439.9,163.6,439.9,164.4z"/>
				<path class="st8" d="M441,163l-1.6-0.6C439.3,162.5,440.2,163.8,441,163z"/>
			</g>
			<path class="st41" d="M448.8,157.9c0,0,2.5-0.5,4,1.1"/>
			<path class="st41" d="M442.2,158c0,0-1.6-0.5-3.5,1"/>
			<path class="st8" d="M460.4,165.7c0,0-4.7-7.1-4.5-12.9c0,0-18.4-6.1-18,12.1c0,0-2.9-16,12.6-17.4c15.5-1.4,17,21.3,9.4,28.6
				C460,176.1,463.3,170.1,460.4,165.7z"/>
			<path class="st42" d="M450.1,171.3c0,0-1.3,3.4-5.1,2.6"/>
			<g>
				<g>
					<path class="st8" d="M462,164.1l-9,0c0-0.3-0.1-0.5-0.2-0.8c-0.7-2.1-3.1-3.4-5.4-2.9c-1.8,0.4-3,1.8-3.1,3.5
						c-0.4-0.3-0.7-0.4-1.1-0.4c-0.2,0-0.4,0.1-0.5,0.2c0-0.2-0.1-0.4-0.1-0.6c-0.7-2.1-3.1-3.4-5.4-2.9c-2.3,0.5-3.6,2.7-2.9,4.8
						c0.7,2.1,3.1,3.4,5.4,2.9c1.8-0.4,3-1.8,3.1-3.5c0,0,0.2-0.4,0.6-0.4c0.3,0,0.6,0.2,1,0.6c0,0.2,0.1,0.4,0.1,0.6
						c0.7,2.1,3.1,3.4,5.4,2.9c1.8-0.4,3-1.9,3.1-3.5l9,0c0,0,0,0,0.1,0c0.1,0,0.2-0.1,0.2-0.2C462.2,164.2,462.1,164.1,462,164.1z
						 M439.5,167.4c-2,0.5-4.1-0.7-4.7-2.5c-0.6-1.9,0.6-3.7,2.6-4.2c2-0.5,4.1,0.7,4.7,2.5C442.7,165,441.5,166.9,439.5,167.4z
						 M449.7,167.6c-2,0.5-4.1-0.7-4.7-2.5c-0.6-1.9,0.6-3.7,2.6-4.2c2-0.5,4.1,0.7,4.7,2.5C452.9,165.2,451.7,167.1,449.7,167.6z"
						/>
				</g>
				<g class="st43">
					<path class="st4" d="M462,164.1l-9,0c0-0.3-0.1-0.5-0.2-0.8c-0.7-2.1-3.1-3.4-5.4-2.9c-1.8,0.4-3,1.8-3.1,3.5
						c-0.4-0.3-0.7-0.4-1.1-0.4c-0.2,0-0.4,0.1-0.5,0.2c0-0.2-0.1-0.4-0.1-0.6c-0.7-2.1-3.1-3.4-5.4-2.9c-2.3,0.5-3.6,2.7-2.9,4.8
						c0.7,2.1,3.1,3.4,5.4,2.9c1.8-0.4,3-1.8,3.1-3.5c0,0,0.2-0.4,0.6-0.4c0.3,0,0.6,0.2,1,0.6c0,0.2,0.1,0.4,0.1,0.6
						c0.7,2.1,3.1,3.4,5.4,2.9c1.8-0.4,3-1.9,3.1-3.5l9,0c0,0,0,0,0.1,0c0.1,0,0.2-0.1,0.2-0.2C462.2,164.2,462.1,164.1,462,164.1z
						 M439.5,167.4c-2,0.5-4.1-0.7-4.7-2.5c-0.6-1.9,0.6-3.7,2.6-4.2c2-0.5,4.1,0.7,4.7,2.5C442.7,165,441.5,166.9,439.5,167.4z
						 M449.7,167.6c-2,0.5-4.1-0.7-4.7-2.5c-0.6-1.9,0.6-3.7,2.6-4.2c2-0.5,4.1,0.7,4.7,2.5C452.9,165.2,451.7,167.1,449.7,167.6z"
						/>
				</g>
			</g>
			<path class="st25" d="M459.1,167.7c0-1.5,1.3-4,4-3.9c2.8,0.1,4.5,5.8-2.3,7.6C459.8,171.7,459.1,170.7,459.1,167.7z"/>
		</g>
		<path class="st17" d="M414.9,224.4c0,0,20.2-26.6,18.5-32.9c-1.8-6.3-13.7,13.5-13.7,13.5L414.9,224.4z"/>
		<path class="st17" d="M444.6,182.9c-2.6-0.9-4.3-3-5.3-5.9l2.8-0.9L444.6,182.9z"/>
		<g>
			<path class="st25" d="M428.5,188l5.1-7.7l5.3,8.8c0,0-5,6.6-8.3,3.9L428.5,188z"/>
			<polygon class="st25" points="442,176.4 443.9,185.5 438.9,189.1 433.6,180.3 			"/>
		</g>
		<path class="st14" d="M415.4,224l-5.5,4.7c0,0-5.1,0.2-6.1-5.5c-1.7-9.4,24.2-36.4,24.2-36.4l5,6.8L415.4,224z"/>
	</g>
	<g>
		<path class="st44" d="M63.6,312.8c0,0-0.5,1.2-1.6,1.6"/>
		<path class="st44" d="M54.8,307.1c0,0,1.6,2.4,0.5,3.1"/>
		<line class="st44" x1="45.9" y1="306.7" x2="46.6" y2="309.9"/>
		<g>
			<path class="st20" d="M63.3,387.2c0,0,9.5-11.3,15.6-6c6.1,5.3,3,16.5-4,16.8c-7,0.4-11.6-3.5-11.6-3.5V387.2z"/>
			<path class="st45" d="M63.3,387.2c0,0,9.5-11.3,15.6-6c6.1,5.3,3,16.5-4,16.8c-7,0.4-11.6-3.5-11.6-3.5V387.2z"/>
			<path class="st20" d="M24.5,358.5c0,0-8-8.4-12.9-7C6.6,353,7.1,373,22.4,364.9L24.5,358.5z"/>
			<path class="st46" d="M24.5,358.5c0,0-8-8.4-12.9-7C6.6,353,7.1,373,22.4,364.9L24.5,358.5z"/>
			<path class="st20" d="M53,421c0,0,26.3-35.9,4.9-43.2s-25.1,28.9-19,39S53,421,53,421z"/>
			<path class="st20" d="M40.8,347.4c0,0-16.3-37.8,7.8-39c24.1-1.1,26.8,37.5-1,43.1L40.8,347.4z"/>
			<path class="st46" d="M53,421c0,0,26.3-35.9,4.9-43.2s-25.1,28.9-19,39S53,421,53,421z"/>
			<path class="st46" d="M40.8,347.4c0,0-16.3-37.8,7.8-39c24.1-1.1,26.8,37.5-1,43.1L40.8,347.4z"/>
			<path class="st20" d="M46.6,378.4c0,0,7.9-33.4-7.3-36.1C24.1,339.6,9,369.8,40.5,385C40.5,385,45.9,381.6,46.6,378.4z"/>
			<path class="st45" d="M46.6,378.4c0,0,7.9-33.4-7.3-36.1C24.1,339.6,9,369.8,40.5,385C40.5,385,45.9,381.6,46.6,378.4z"/>
		</g>
		<g>
			<polygon class="st8" points="71.9,415.9 27.8,415.9 31.5,444.1 68.2,444.1 			"/>
		</g>
		<g class="st17">
			<path d="M49,344.7c7-6.7,12.7-16.2,11-26.2c-0.2-1.4-0.6-2.8-1-4.1C64,325.3,57.7,337.8,49,344.7L49,344.7z"/>
		</g>
		<g class="st17">
			<path d="M54.8,312.2c-10,3.4-13.8,13.2-13.4,23c0,0,0.3,4.1,0.3,4.1c-0.4-2.7-0.7-5.5-0.6-8.3c0.2-2.2,0.4-4.1,1-6.2
				C43.8,318.9,48.6,313.7,54.8,312.2L54.8,312.2z"/>
		</g>
		<g class="st17">
			<path d="M36.3,344.7c-5.9,2.8-9.2,9.6-8.6,16c0.6,4.6,3.1,8.7,5.9,12.3c2.3,2.9,4.8,5.6,7.6,8.1c-2.9-2.3-5.6-4.9-8-7.8
				c-3.2-4-6.2-8.7-6.1-14C27,353.3,30.5,347,36.3,344.7L36.3,344.7z"/>
		</g>
		<g class="st17">
			<path d="M40.8,347.4c-0.8,4.9-2,10.5,0.4,15.1c2.9,4.5,2.4,10.3,1.5,15.3c0.1-1.3,0.2-2.6,0.2-3.9c0-3.5,0-7.2-1.8-10.3
				C38,358.8,39.4,352.6,40.8,347.4L40.8,347.4z"/>
		</g>
		<g class="st17">
			<path d="M51.5,381.2c-4.5,2.7-6.9,21.4-7.9,27c-0.2,1.3-0.4,2.7-0.5,4.1C43.2,405.9,45.9,384.1,51.5,381.2L51.5,381.2z"/>
		</g>
		<g class="st17">
			<path d="M59,382.3c3.9,8.8,2.3,20-4.6,26.8c0,0-1.3,1.4-1.3,1.4C60.2,402.9,62.4,392.2,59,382.3L59,382.3z"/>
		</g>
		<g class="st17">
			<path d="M18.3,362.6c-2.8,0.6-6.3-0.6-7.2-3.5C12.7,361.4,15.5,362.3,18.3,362.6L18.3,362.6z"/>
		</g>
		<g class="st17">
			<path d="M19.9,357.1c-2.2-1.5-5.1-3-7.7-1.4C14.4,353.1,18.2,354.8,19.9,357.1L19.9,357.1z"/>
		</g>
		<g class="st17">
			<path d="M67.6,388.9c1.9-3.1,6.8-7.3,10.2-3.9C74,382.6,70.3,386.4,67.6,388.9L67.6,388.9z"/>
		</g>
		<g class="st17">
			<path d="M67.6,394.5c4.1,0,10.8,0.8,12.5-4C79.3,395.9,71.7,395.5,67.6,394.5L67.6,394.5z"/>
		</g>
		<path class="st44" d="M40.5,304.8c0,0,0.8,3.6,3.4,6.4"/>
		<path class="st44" d="M39,318.8c0,0-3-1.4-5.4-0.6"/>
		<line class="st44" x1="36.8" y1="324.9" x2="33.5" y2="326.3"/>
		<line class="st44" x1="37.3" y1="332.8" x2="33.5" y2="333.3"/>
		<path class="st44" d="M51.3,310.2c0,0-0.1-3.4,0.2-4.5"/>
		<path class="st44" d="M59.8,308c0,0,0.2,3-0.9,3.8"/>
		<path class="st44" d="M67.6,315.6c0,0-3.6,1.5-4.7,1.5"/>
		<path class="st44" d="M70.2,327.6c0,0-3.5-0.8-4.9-0.8"/>
		<path class="st44" d="M66.3,339.4c0,0-0.8-0.2-2.7-1.2"/>
		<path class="st44" d="M60.5,348.1c0,0-0.1-2-2.7-2.6"/>
		<path class="st44" d="M54.1,352.4c0,0-1.8-1.4-2.5-2.7"/>
		<path class="st44" d="M55.3,317c0,0-1.3,1.6-2.5,1.8"/>
		<path class="st44" d="M50.4,323.5c0,0,2.8-0.8,3.7,0"/>
		<path class="st44" d="M52.8,329.6c0,0-2.8-1.2-4.1-2"/>
		<path class="st44" d="M45.9,335.2c0,0,3.6-0.5,3.8-1.9"/>
		<path class="st44" d="M47,342.1c0,0-1.5-1.9-1.8-2.8"/>
		<path class="st44" d="M43.2,315.6c0,0-0.4-1.9-2-2.2"/>
		<path class="st44" d="M40.1,321.9c-0.6-0.2-1.2,0.3-2.8-0.4"/>
		<path class="st44" d="M39.6,328.6c0,0-1.4,0.8-2.3,1"/>
		<line class="st44" x1="39.6" y1="337.6" x2="36.3" y2="338.7"/>
		<path class="st44" d="M53.4,344.7c0.8,1,1.9,2.7,1.9,2.7"/>
		<path class="st44" d="M57.9,339.4c1.1,0.1,2.7,0.7,2.7,0.7"/>
		<path class="st44" d="M62,331.5c0,0,1.7-0.2,2.2,0.6"/>
		<path class="st44" d="M62.9,322.3c0,0,1.4,0,2.1-0.4"/>
		<path class="st44" d="M32.6,341.6c0.3,0.6,0.5,1.2,0.7,1.8"/>
		<path class="st44" d="M25.7,344.3c0.8,1.3,1.8,2.4,2.9,3.5"/>
		<path class="st44" d="M22.8,349.8c0.8,0.6,1.6,1.3,2.5,1.9"/>
		<path class="st44" d="M20.9,367.5c1,0.3,2.1,0.1,2.9-0.4"/>
		<path class="st44" d="M23.6,373.5c0.7-0.5,1.3-1.1,1.9-1.7"/>
		<path class="st44" d="M27.8,378.3c0.5-0.7,0.9-1.5,1.3-2.2"/>
		<path class="st44" d="M30.7,380.8c0.7-0.7,1.3-1.5,1.9-2.4"/>
		<path class="st44" d="M37.5,385.1c-0.4-0.9-0.4-2.1,0-3"/>
		<path class="st44" d="M49.8,374.8c-1.3,0.4-2.6,0.5-4,0.3"/>
		<path class="st44" d="M49.1,369.9c-1,0.2-2.1,0.1-3.1-0.2"/>
		<path class="st44" d="M49.6,364.6c-0.8-0.3-1.5-0.6-2.3-0.9"/>
		<path class="st44" d="M49.6,359.1c-0.7,0-1.5,0-2.2,0"/>
		<path class="st44" d="M49.2,354.8c-0.7,0-1.4,0-2.1,0"/>
		<path class="st44" d="M45.9,347.6c-0.8,0.8-1.6,1.6-2.4,2.4"/>
		<path class="st44" d="M38.7,342.4c0,1,0,2-0.1,2.9"/>
		<path class="st44" d="M33.1,349.2c0.7,0.7,1.3,1.5,1.8,2.4"/>
		<path class="st44" d="M31.3,356c0.8,0.3,1.7,0.5,2.6,0.6"/>
		<path class="st44" d="M31.2,362.7c0,0.1,0.3,0.1,0.4,0c0.6-0.5,1.3-0.9,1.9-1.4"/>
		<path class="st44" d="M33.4,368.6c0.7-0.5,1.4-1,2.1-1.6"/>
		<path class="st44" d="M36.6,374.6c0.4-0.7,1-1.3,1.6-1.8"/>
		<path class="st44" d="M39.8,378.2c0.3-0.9,0.4-1.9,0.2-2.8"/>
		<path class="st44" d="M44.3,355.8c-0.7,0.5-1.3,1-2,1.6"/>
		<path class="st44" d="M44.8,362c-0.5,0-0.9,0-1.4,0"/>
		<path class="st44" d="M23.5,355.6c0.5,0.8,1.1,1.6,1.9,2.2"/>
		<path class="st44" d="M23,364.2c0.7-0.4,1.4-0.9,2-1.3"/>
		<path class="st44" d="M21.5,353.3c0,0.8,0,1.7-0.2,2.5"/>
		<path class="st44" d="M15.2,350.6c0.2,0.9,0.2,1.7,0.3,2.6"/>
		<path class="st44" d="M10.1,351.5c0.4,0.7,0.9,1.4,1.3,2.1"/>
		<path class="st44" d="M7.6,355.5c0.5,0.5,1.2,1,1.9,1.4"/>
		<path class="st44" d="M7.6,364.9c0.6-0.3,1.3-0.6,1.8-0.9c0.6-0.4,1.1-0.9,1.3-1.5"/>
		<path class="st44" d="M12.1,368.1c0.8-0.5,1.6-1.1,2.2-1.8c0.3-0.3,0.5-0.6,0.4-0.9"/>
		<path class="st44" d="M18,368.6c0.1-0.8,0.1-1.6,0-2.4"/>
		<path class="st44" d="M13.9,357.1c0.5,0.7,1.1,1.4,1.6,2.1"/>
		<path class="st44" d="M18.2,359.8c0.4-0.4,0.8-0.9,1.2-1.3"/>
		<path class="st44" d="M56.2,375.2c0.4,1.1,0.6,2.4,0.5,3.6"/>
		<path class="st44" d="M63.1,377.7c0,1.4-0.6,2.8-1.6,3.7"/>
		<path class="st44" d="M48.4,377.2c0.3,0.8,0.8,1.5,1.3,2.1"/>
		<path class="st44" d="M36.9,389.2c1.2,0.4,2.4,0.8,3.6,1.3"/>
		<path class="st44" d="M34.6,396.4c0.9,1.1,2.5,1.7,3.9,1.2"/>
		<path class="st44" d="M34.9,405.4c1-0.3,2-0.6,3-0.8"/>
		<path class="st44" d="M35.2,413.2c1-0.5,1.9-1,2.9-1.4"/>
		<path class="st44" d="M59.9,414.7c-1.6-0.4-3.1-1-4.5-1.8"/>
		<path class="st44" d="M61.4,410.9c-0.8-0.4-1.6-0.8-2.4-1.2"/>
		<path class="st44" d="M64.8,404.8c-1.3-0.2-2.6-0.5-4-0.7"/>
		<path class="st44" d="M66.6,399.9c-1.1-0.3-2.1-0.8-3.1-1.3"/>
		<path class="st44" d="M66.6,380c0.6,1,1.1,2.2,1.5,3.3"/>
		<path class="st44" d="M73.1,379.2c0.2,1,0.3,2,0.5,2.9"/>
		<path class="st44" d="M82.1,380.8c-0.8,1-1.6,2.1-2.3,3.3"/>
		<path class="st44" d="M83.9,387.6c-0.8,0.8-1.9,1.2-3,1.1"/>
		<path class="st44" d="M80.7,398.8c-1.5-0.6-2.8-1.7-3.7-3"/>
		<path class="st44" d="M71.5,400.1c0-1.1,0-2.2,0.1-3.3"/>
		<path class="st44" d="M71,389.2c0,0.7-0.2,1.3-0.3,2"/>
		<path class="st44" d="M76.8,387.5c0.1,1.1-0.4,2.1-1.1,2.8"/>
		<path class="st44" d="M65.7,389.7c-0.8-0.3-1.6-0.5-2.5-0.7"/>
		<path class="st44" d="M53.3,382.9c0.7,0.9,1.2,1.9,1.7,2.9"/>
		<path class="st44" d="M55.5,389.7c-0.9,0.9-2.2,1.4-3.5,1.4"/>
		<path class="st44" d="M50.2,396c0.7,0.6,1.5,1.1,2.3,1.5"/>
		<path class="st44" d="M53.1,404c-1.7,0.4-3.6,0.9-5.1,0"/>
		<path class="st44" d="M47.7,409.6c0.4-0.4,0.8-0.7,1.3-1"/>
		<path class="st44" d="M46.4,415c0.6-0.7,1.3-1.4,2.1-2"/>
		<path class="st44" d="M43.7,386.1c0.7,0.7,1.3,1.6,1.9,2.4"/>
		<path class="st44" d="M41.7,395.8c0.4,0.1,0.9,0.2,1.3,0.3"/>
		<path class="st44" d="M40.7,402.1c0.6,0.2,1.1,0.4,1.7,0.6"/>
		<path class="st44" d="M40.4,410.6c0.5-0.6,1-1.2,1.5-1.8"/>
	</g>
</g>
</svg>
