<svg width="60" height="60" viewBox="0 0 60 60" fill="none" xmlns="http://www.w3.org/2000/svg">
<g clip-path="url(#clip0_55572_38599)">
<path d="M30.0009 0.9375C25.3299 0.937047 20.7275 2.06248 16.5838 4.21846C12.4402 6.37443 8.87717 9.49742 6.19677 13.3228C3.51636 17.1483 1.7975 21.5634 1.18582 26.1942C0.574138 30.825 1.08765 35.535 2.68286 39.9252C4.27807 44.3154 6.90796 48.2564 10.3497 51.4143C13.7915 54.5723 17.9438 56.8541 22.4547 58.0665C26.9656 59.2789 31.7023 59.3861 36.2635 58.3791C40.8247 57.3721 45.076 55.2805 48.6571 52.2816L47.4524 50.8434C42.7083 54.8148 36.7515 57.0494 30.5658 57.1779C24.3802 57.3065 18.3357 55.3214 13.4306 51.5506C8.52558 47.7797 5.05338 42.4487 3.58749 36.4378C2.12161 30.427 2.74972 24.096 5.3681 18.4904C7.98647 12.8847 12.4385 8.33985 17.9889 5.60631C23.5392 2.87277 29.8559 2.11408 35.8957 3.45557C41.9356 4.79705 47.3372 8.15845 51.2085 12.9846C55.0798 17.8108 57.1892 23.813 57.1884 30C57.2036 35.2797 55.6618 40.4467 52.7559 44.8547L52.6471 42.0581L50.7721 42.1312L50.9952 47.85C51.0011 48.0006 51.0432 48.1475 51.1179 48.2783C51.1926 48.4092 51.2977 48.5201 51.4244 48.6017C51.551 48.6833 51.6955 48.7331 51.8455 48.747C51.9955 48.7609 52.1467 48.7385 52.2862 48.6816L57.5821 46.515L56.8715 44.7797L54.3759 45.8006C57.4496 41.1053 59.0793 35.6119 59.0634 30C59.0549 22.2947 55.9903 14.9075 50.5418 9.45903C45.0934 4.01058 37.7061 0.945937 30.0009 0.9375Z" fill="#00B5FF"/>
<path d="M11.7241 43.6555C11.7087 44.2572 11.8139 44.8559 12.0335 45.4163C12.2531 45.9767 12.5827 46.4875 13.0027 46.9186C13.4228 47.3496 13.9249 47.6923 14.4794 47.9263C15.034 48.1603 15.6297 48.2809 16.2316 48.2811H16.3441C16.955 48.2687 17.5568 48.1314 18.1126 47.8776C18.6683 47.6238 19.1663 47.259 19.5757 46.8055L28.3882 37.1061C29.8298 37.5619 31.3675 37.6218 32.8402 37.2798C34.313 36.9378 35.6668 36.2062 36.76 35.1618C37.8532 34.1173 38.6457 32.7983 39.0546 31.3427C39.4634 29.8871 39.4736 28.3483 39.0841 26.8874C39.0416 26.7284 38.958 26.5834 38.8417 26.4669C38.7253 26.3505 38.5804 26.2667 38.4214 26.2241C38.2625 26.1814 38.0951 26.1813 37.9361 26.2239C37.7771 26.2664 37.6321 26.3501 37.5157 26.4664L34.2579 29.7186L30.281 25.7417L33.5426 22.4802C33.6589 22.3638 33.7426 22.2188 33.7851 22.0598C33.8277 21.9008 33.8276 21.7334 33.785 21.5744C33.7423 21.4155 33.6585 21.2705 33.5421 21.1542C33.4256 21.0379 33.2806 20.9543 33.1216 20.9117C31.6607 20.5222 30.122 20.5324 28.6663 20.9413C27.2107 21.3502 25.8917 22.1427 24.8472 23.2359C23.8028 24.3291 23.0713 25.6829 22.7292 27.1557C22.3872 28.6284 22.4471 30.166 22.9029 31.6077L13.2035 40.4202C12.7489 40.8297 12.3831 41.3281 12.1286 41.8846C11.8742 42.441 11.7365 43.0438 11.7241 43.6555ZM14.4616 41.8124L24.6241 32.5733C24.7661 32.4442 24.8651 32.2747 24.9077 32.0876C24.9503 31.9005 24.9344 31.7049 24.8623 31.5271C24.4587 30.5368 24.3036 29.4628 24.4104 28.3989C24.5172 27.3349 24.8828 26.3132 25.4751 25.4229C26.0675 24.5327 26.8687 23.8009 27.8089 23.2914C28.749 22.7819 29.7995 22.5101 30.8688 22.4999L28.2916 25.0771C28.1159 25.2529 28.0171 25.4913 28.0171 25.7399C28.0171 25.9885 28.1159 26.2269 28.2916 26.4027L33.5951 31.7061C33.7709 31.8819 34.0093 31.9806 34.2579 31.9806C34.5065 31.9806 34.7449 31.8819 34.9207 31.7061L37.4998 29.1308C37.4894 30.1999 37.2176 31.2501 36.7082 32.1901C36.1988 33.13 35.4672 33.9311 34.5772 34.5234C33.6872 35.1157 32.6658 35.4813 31.6021 35.5883C30.5384 35.6954 29.4646 35.5405 28.4744 35.1374C28.2966 35.0652 28.101 35.0494 27.9139 35.092C27.7268 35.1345 27.5573 35.2335 27.4282 35.3755L18.1873 45.538C17.9482 45.8032 17.6573 46.0167 17.3326 46.1652C17.0078 46.3137 16.6561 46.3941 16.2991 46.4014C15.9422 46.4091 15.5874 46.3447 15.2559 46.2121C14.9244 46.0795 14.623 45.8815 14.3698 45.6299C14.1175 45.3772 13.9191 45.076 13.7867 44.7445C13.6542 44.4129 13.5905 44.058 13.5992 43.7011C13.608 43.3441 13.6891 42.9927 13.8377 42.6681C13.9862 42.3434 14.1991 42.0523 14.4635 41.8124H14.4616Z" fill="#00B5FF"/>
<path d="M30.9376 17.8126C32.5326 17.8029 34.1115 18.1324 35.5695 18.7794C37.0274 19.4264 38.3311 20.3761 39.3941 21.5653C40.4571 22.7546 41.255 24.1563 41.7349 25.6775C42.2149 27.1986 42.3658 28.8044 42.1778 30.3884C41.9898 31.9723 41.4671 33.4982 40.6444 34.8647C39.8218 36.2313 38.7179 37.4073 37.4061 38.3147C36.0942 39.2221 34.6044 39.8401 33.0355 40.1278C31.4666 40.4156 29.8545 40.3664 28.306 39.9835L26.8904 41.5407C29.7002 42.4562 32.7364 42.3987 35.5095 41.3775C38.2826 40.3564 40.631 38.431 42.176 35.912C43.7211 33.393 44.3728 30.427 44.026 27.4923C43.6793 24.5575 42.3543 21.8251 40.2647 19.7355C38.1751 17.6459 35.4427 16.3209 32.5079 15.9742C29.5732 15.6274 26.6072 16.2791 24.0882 17.8242C21.5691 19.3692 19.6438 21.7176 18.6227 24.4907C17.6015 27.2638 17.544 30.3 18.4595 33.1098L20.0167 31.6942C19.6063 30.0405 19.579 28.315 19.937 26.6493C20.2949 24.9835 21.0286 23.4215 22.0821 22.0824C23.1356 20.7434 24.481 19.6626 26.0157 18.9226C27.5504 18.1827 29.2338 17.803 30.9376 17.8126Z" fill="#00B5FF"/>
<path d="M17.0222 44.3036C17.1533 44.1725 17.2426 44.0055 17.2788 43.8236C17.315 43.6418 17.2965 43.4532 17.2255 43.2819C17.1546 43.1106 17.0344 42.9642 16.8803 42.8611C16.7261 42.7581 16.5448 42.7031 16.3594 42.7031C16.1739 42.7031 15.9927 42.7581 15.8385 42.8611C15.6843 42.9642 15.5642 43.1106 15.4932 43.2819C15.4223 43.4532 15.4037 43.6418 15.4399 43.8236C15.4761 44.0055 15.5654 44.1725 15.6966 44.3036C15.8724 44.4794 16.1108 44.5781 16.3594 44.5781C16.608 44.5781 16.8464 44.4794 17.0222 44.3036Z" fill="#00B5FF"/>
<path d="M47.1816 34.0866C47.2371 33.9288 47.3424 33.7934 47.4815 33.7005C47.6206 33.6077 47.7861 33.5626 47.9531 33.5719C48.6615 33.5711 49.3407 33.2894 49.8416 32.7885C50.3425 32.2876 50.6243 31.6084 50.625 30.9V27.225C50.6243 26.5166 50.3425 25.8374 49.8416 25.3365C49.3407 24.8356 48.6615 24.5539 47.9531 24.5531C47.7814 24.5551 47.6133 24.5039 47.4718 24.4065C47.3303 24.3092 47.2224 24.1705 47.1628 24.0094C46.8627 23.0283 46.4697 22.078 45.9891 21.1716C45.913 21.0149 45.8887 20.8382 45.9195 20.6669C45.9503 20.4955 46.0348 20.3384 46.1606 20.2181C46.6605 19.7178 46.9412 19.0395 46.9412 18.3323C46.9412 17.6251 46.6605 16.9469 46.1606 16.4466L43.5544 13.8403C43.0538 13.3406 42.3754 13.06 41.6681 13.06C40.9608 13.06 40.2825 13.3406 39.7819 13.8403C39.6623 13.967 39.5052 14.0519 39.3337 14.0826C39.1623 14.1133 38.9855 14.0882 38.8294 14.0109C37.928 13.5331 36.9831 13.1422 36.0075 12.8437C35.8424 12.7864 35.6994 12.6788 35.5985 12.5361C35.4976 12.3933 35.4439 12.2226 35.445 12.0478C35.4445 11.3396 35.1631 10.6605 34.6626 10.1594C34.1621 9.65833 33.4832 9.37624 32.775 9.375H29.1C28.7464 9.37647 28.3965 9.44782 28.0706 9.58496C27.7446 9.7221 27.449 9.92232 27.2007 10.1741C26.9524 10.4259 26.7563 10.7243 26.6237 11.0521C26.4911 11.38 26.4247 11.7308 26.4281 12.0844C26.4314 12.2468 26.3824 12.406 26.2884 12.5385C26.1944 12.6709 26.0603 12.7697 25.9059 12.8203C24.9178 13.1273 23.9606 13.5259 23.0466 14.0109C22.8899 14.0865 22.7133 14.1106 22.542 14.0798C22.3708 14.049 22.2137 13.9649 22.0931 13.8394C21.5848 13.355 20.9095 13.0848 20.2073 13.0848C19.5052 13.0848 18.8299 13.355 18.3216 13.8394L15.7153 16.4456C15.2156 16.9462 14.935 17.6246 14.935 18.3319C14.935 19.0392 15.2156 19.7175 15.7153 20.2181C15.8772 20.3775 15.9704 20.5938 15.975 20.8209C15.9753 20.9431 15.9447 21.0635 15.8859 21.1706C15.4081 22.072 15.0172 23.0169 14.7187 23.9925C14.6614 24.1576 14.5538 24.3006 14.4111 24.4015C14.2683 24.5024 14.0976 24.5561 13.9228 24.555C13.2146 24.5555 12.5355 24.8369 12.0344 25.3374C11.5333 25.8379 11.2512 26.5168 11.25 27.225V30.9C11.2507 31.6084 11.5325 32.2876 12.0334 32.7885C12.5343 33.2894 13.2135 33.5711 13.9219 33.5719C14.0936 33.5699 14.2617 33.6211 14.4032 33.7185C14.5447 33.8158 14.6526 33.9545 14.7122 34.1156C14.902 34.7226 15.1287 35.3175 15.3909 35.8969L16.8619 34.5591C16.7316 34.2253 16.6041 33.8906 16.5019 33.5512C16.3189 33.0117 15.9718 32.5429 15.5092 32.2104C15.0466 31.8779 14.4916 31.6984 13.9219 31.6969C13.7106 31.6966 13.5081 31.6126 13.3587 31.4632C13.2093 31.3138 13.1252 31.1113 13.125 30.9V27.225C13.1252 27.0137 13.2093 26.8112 13.3587 26.6618C13.5081 26.5124 13.7106 26.4284 13.9219 26.4281C14.4948 26.4257 15.0525 26.2435 15.5163 25.907C15.9801 25.5706 16.3265 25.097 16.5066 24.5531C16.7704 23.6889 17.1157 22.8517 17.5378 22.0528C17.7404 21.6742 17.8463 21.2513 17.8462 20.8219C17.8409 20.0978 17.5506 19.405 17.0381 18.8934C16.9641 18.8197 16.9053 18.732 16.8653 18.6355C16.8252 18.5389 16.8045 18.4355 16.8045 18.3309C16.8045 18.2264 16.8252 18.1229 16.8653 18.0264C16.9053 17.9299 16.9641 17.8422 17.0381 17.7684L19.6434 15.1631C19.7172 15.0891 19.8049 15.0303 19.9014 14.9903C19.9979 14.9502 20.1014 14.9295 20.2059 14.9295C20.3105 14.9295 20.4139 14.9502 20.5105 14.9903C20.607 15.0303 20.6947 15.0891 20.7684 15.1631C21.171 15.5748 21.6954 15.846 22.2641 15.9365C22.8328 16.027 23.4154 15.932 23.9259 15.6656C24.7347 15.235 25.5822 14.8816 26.4572 14.61C26.9988 14.4368 27.4705 14.0942 27.8028 13.6328C28.1351 13.1714 28.3105 12.6155 28.3031 12.0469C28.3034 11.8356 28.3874 11.6331 28.5368 11.4837C28.6862 11.3343 28.8887 11.2502 29.1 11.25H32.775C32.9863 11.2502 33.1888 11.3343 33.3382 11.4837C33.4876 11.6331 33.5716 11.8356 33.5719 12.0469C33.5743 12.6198 33.7565 13.1775 34.093 13.6413C34.4294 14.1051 34.903 14.4515 35.4469 14.6316C36.3111 14.8954 37.1483 15.2407 37.9472 15.6628C38.4602 15.9193 39.0405 16.009 39.607 15.9194C40.1735 15.8298 40.6978 15.5654 41.1066 15.1631C41.1803 15.089 41.2679 15.0301 41.3645 14.99C41.461 14.9498 41.5645 14.9291 41.6691 14.9291C41.7736 14.9291 41.8771 14.9498 41.9737 14.99C42.0702 15.0301 42.1579 15.089 42.2316 15.1631L44.8369 17.7684C44.9109 17.8422 44.9697 17.9299 45.0097 18.0264C45.0498 18.1229 45.0705 18.2264 45.0705 18.3309C45.0705 18.4355 45.0498 18.5389 45.0097 18.6355C44.9697 18.732 44.9109 18.8197 44.8369 18.8934C44.4253 19.2953 44.154 19.8189 44.0632 20.3869C43.9724 20.9549 44.0668 21.537 44.3325 22.0472C44.7601 22.8531 45.1092 23.6982 45.375 24.5709C45.5574 25.1107 45.904 25.5799 46.3663 25.9129C46.8286 26.2459 47.3834 26.4261 47.9531 26.4281C48.1644 26.4284 48.3669 26.5124 48.5163 26.6618C48.6657 26.8112 48.7498 27.0137 48.75 27.225V30.9C48.7488 31.0075 48.7261 31.1137 48.6833 31.2123C48.6405 31.3109 48.5784 31.3999 48.5007 31.4742C48.4229 31.5484 48.3311 31.6064 48.2306 31.6446C48.1302 31.6829 48.0231 31.7006 47.9156 31.6969C47.3535 31.6949 46.8054 31.8723 46.351 32.2033C45.8966 32.5343 45.5596 33.0015 45.3891 33.5372C45.1173 34.4121 44.7638 35.2596 44.3334 36.0684C44.1309 36.4471 44.0249 36.8699 44.025 37.2994C44.0303 38.0234 44.3207 38.7163 44.8331 39.2278C44.9072 39.3016 44.9659 39.3892 45.006 39.4858C45.0461 39.5823 45.0667 39.6858 45.0667 39.7903C45.0667 39.8948 45.0461 39.9983 45.006 40.0948C44.9659 40.1914 44.9072 40.279 44.8331 40.3528L42.2278 42.9581C42.154 43.0322 42.0664 43.0909 41.9698 43.131C41.8733 43.1711 41.7698 43.1917 41.6653 43.1917C41.5608 43.1917 41.4573 43.1711 41.3608 43.131C41.2642 43.0909 41.1766 43.0322 41.1028 42.9581C40.7009 42.5467 40.1773 42.2755 39.6093 42.1847C39.0414 42.0938 38.4593 42.1882 37.9491 42.4538C37.1445 42.8824 36.3006 43.2328 35.4291 43.5C34.8893 43.6824 34.4201 44.029 34.0871 44.4913C33.7541 44.9536 33.5739 45.5084 33.5719 46.0781C33.5716 46.2894 33.4876 46.4919 33.3382 46.6413C33.1888 46.7907 32.9863 46.8748 32.775 46.875H29.1C28.8887 46.8748 28.6862 46.7907 28.5368 46.6413C28.3874 46.4919 28.3034 46.2894 28.3031 46.0781C28.3007 45.5052 28.1185 44.9475 27.782 44.4837C27.4456 44.0199 26.972 43.6735 26.4281 43.4934C26.0981 43.3931 25.7672 43.2666 25.4381 43.1381L24.1003 44.6091C24.6751 44.8694 25.2652 45.0941 25.8675 45.2822C26.0326 45.3395 26.1756 45.4471 26.2765 45.5899C26.3774 45.7326 26.4311 45.9033 26.43 46.0781C26.4307 46.7862 26.7122 47.4651 27.2127 47.9659C27.7132 48.4668 28.3919 48.7488 29.1 48.75H32.775C33.4834 48.7493 34.1626 48.4675 34.6635 47.9666C35.1644 47.4657 35.4461 46.7865 35.4469 46.0781C35.4449 45.9064 35.4961 45.7383 35.5935 45.5968C35.6908 45.4553 35.8295 45.3474 35.9906 45.2878C36.9717 44.9877 37.922 44.5947 38.8284 44.1141C38.9852 44.0386 39.1617 44.0146 39.333 44.0454C39.5042 44.0762 39.6613 44.1603 39.7819 44.2856C40.2901 44.7702 40.9654 45.0405 41.6677 45.0405C42.3699 45.0405 43.0452 44.7702 43.5534 44.2856L46.1597 41.6794C46.6594 41.1788 46.94 40.5004 46.94 39.7931C46.94 39.0858 46.6594 38.4075 46.1597 37.9069C45.9978 37.7475 45.9046 37.5312 45.9 37.3041C45.8995 37.1833 45.9295 37.0643 45.9872 36.9581C46.4741 36.0404 46.874 35.079 47.1816 34.0866Z" fill="#00B5FF"/>
</g>
<defs>
<clipPath id="clip0_55572_38599">
<rect width="60" height="60" fill="white"/>
</clipPath>
</defs>
</svg>
