<?xml version="1.0" encoding="utf-8"?>
<!-- Generator: Adobe Illustrator 27.0.0, SVG Export Plug-In . SVG Version: 6.00 Build 0)  -->
<svg version="1.1" id="Layer_1" xmlns="http://www.w3.org/2000/svg" xmlns:xlink="http://www.w3.org/1999/xlink" x="0px" y="0px"
	 viewBox="0 0 1042.1 696.2" style="enable-background:new 0 0 1042.1 696.2;" xml:space="preserve">
<style type="text/css">
	.st0{opacity:0.5;}
	.st1{opacity:0.6;}
	.st2{fill:#AEDEFF;}
	.st3{fill:#FFFFFF;}
	.st4{fill:#00507C;}
	.st5{fill:#BBDEFB;}
	.st6{fill:#002A45;}
	.st7{fill:#E5E5E5;}
	.st8{fill:#0A3F56;}
	.st9{opacity:0.8;}
	.st10{fill:#99DFFF;}
	.st11{fill:#FEDCDB;}
	.st12{opacity:0.7;}
	.st13{fill:#EFB1B1;}
	.st14{fill:#5EB9F7;}
	.st15{fill:#8AD8FF;}
	.st16{fill:#FECAC9;}
	.st17{fill:#55D7FF;}
	.st18{fill:#02B5FF;}
	.st19{fill:#F8CD9E;}
	.st20{fill:#524660;}
	.st21{fill:#615370;}
	.st22{fill:#FB9D7E;}
	.st23{fill:#99D6FF;}
	.st24{fill:none;}
	.st25{fill:#0097C6;}
	.st26{fill:#40A3DB;}
	.st27{fill:#2E2F4D;}
	.st28{fill:#F6A49D;}
	.st29{fill:#D47C74;}
	.st30{fill:#E96362;}
	.st31{fill:#4F1D30;}
	.st32{fill:#00B5FF;}
	.st33{fill:#FFEFE7;}
	.st34{fill:#0096C4;}
	.st35{fill:#2C7193;}
	.st36{fill:#1E5A72;}
	.st37{fill:#003B5B;}
	.st38{opacity:0.3;}
	.st39{fill:#F77C7C;}
	.st40{fill:#2886AF;}
</style>
<g>
	<g>
		<g>
			<g class="st0">
				<g class="st1">
					<g>
						<path class="st2" d="M981.5,433.5c0,68.4-18.3,132.9-50.9,189.8c-5.6,9.8-11.6,19.4-18,28.7c-3.6,5.3-7.4,10.5-11.3,15.6
							H132.2c-3.9-5.1-7.7-10.3-11.3-15.6C77.2,588.5,52,513.7,52,433.5C52,203.3,260.1,16.6,516.7,16.6
							C773.4,16.6,981.5,203.3,981.5,433.5z"/>
					</g>
				</g>
			</g>
			<g>
				<path class="st3" d="M966.1,413.4c0,5.3-2,10.1-5.3,13.7H665.6l-2.7-1.8c-2.7-1.8-5.1-4.1-6.8-6.9c-1.1-1.9-1.9-3.8-2.4-5.7
					c-3.1-12.4,5.5-25.1,18.2-25.8c5.6-0.3,10.7,1.7,14.4,5.2c0-0.6-0.1-1.2-0.1-1.7c0-17.1,13.7-31,30.7-31
					c14.9,0,27.3,10.7,30.1,24.9c0.4,2,0.6,4,0.6,6.1c0,1-0.1,2-0.1,2.9h0.1c5.7,0,10.9,2.4,14.6,6.4l0,0c0.2-3.4,1.1-6.6,2.8-9.3
					c3.5-5.9,9.8-9.9,17.1-9.9c8.5,0,15.7,5.4,18.6,12.9c3.6-4,8.8-6.5,14.6-6.5c4.8,0,9.2,1.7,12.7,4.6c1.7-14.1,13.6-25.1,28-25.1
					c4.7,0,9.1,1.2,13.1,3.2c7-15.9,23.5-26.7,42.2-25c23.9,2.1,41.3,24.6,37.8,48.6c0,0.1,0,0.2,0,0.3c7.6,1,13.8,6.4,16.2,13.5
					C965.8,409,966.1,411.2,966.1,413.4z"/>
			</g>
			<g>
				<path class="st3" d="M750.9,206.7c0,1.3,0.2,2.5,0.6,3.6h1.1v0l10.8,0h0.2l8.4,0c0,0,0,0,0,0c0.1,0.1,0.2,0.1,0.2,0.2
					c0-0.1,0.1-0.1,0.1-0.2c0,0,0,0,0,0l21.3,0h3.2l9.6,0l5.2,0h0l11.6,0l16.5,0h0c0,0,0,0,0.1,0c0.4,0,2.8,0,2.9,0h0.1l27.4,0l6,0
					h0c0,0,0,0,0,0c0.1,0,0.7,0,1.4,0c1.7,0,4.5-0.1,4.7-0.1c0,0,3.8-2.8,3.7-8.1c-0.1-4.7-4.2-8-8.7-8c-0.9,0-1.8,0.2-2.6,0.4
					c0.1-0.6,0.2-1.2,0.2-1.9c0-6.2-5-11.3-11.2-11.3c-2.7,0-5.2,1-7.1,2.6c-3-5.4-8.8-9.1-15.4-9.1c-8.4,0-15.4,6-17.2,13.9
					c-0.2,0.8-0.3,1.7-0.4,2.6l0,0c-0.1-0.1-0.2-0.2-0.4-0.2c-1.7-1.1-3.7-1.7-5.9-1.7c-5.1,0-9.4,3.4-10.7,8.1
					c-1.4-1.1-3.2-1.8-5.1-1.8c-0.1,0-0.1,0-0.2,0c-1,0-1.9,0.2-2.8,0.6c-0.5-3.5-2-6.6-4.4-9.1c-2.9-3.1-7-5-11.6-5
					c-8.3,0-15.2,6.4-16,14.6c-1.5-0.7-3.1-1.2-4.9-1.2C755.9,195.6,750.9,200.6,750.9,206.7z"/>
			</g>
			<g>
				<path class="st3" d="M381.1,82.6c0,2.1,0.3,4,1,5.9h1.8v0.1l17.7,0h0.4l13.7,0c0,0,0,0,0.1,0.1c0.1,0.1,0.2,0.2,0.4,0.3
					c0-0.1,0.1-0.2,0.1-0.3c0,0,0,0,0-0.1l35,0h5.3l15.8,0l8.6,0h0l18.9,0l27.1,0h0.1c0,0,0,0,0.1,0c0.7,0,4.5,0,4.8,0h0.1l44.9,0
					l9.8,0h0c0,0,0,0,0.1,0c0.2,0,1.1,0,2.3,0c2.8,0,7.3-0.2,7.8-0.2c0,0,6.3-4.5,6.1-13.3c-0.2-7.6-6.9-13.1-14.2-13.1
					c-1.5,0-2.9,0.3-4.3,0.7c0.2-1,0.3-2,0.3-3.1c0-10.2-8.2-18.5-18.3-18.5c-4.4,0-8.5,1.6-11.7,4.2c-5-8.9-14.4-14.9-25.2-14.9
					c-13.8,0-25.3,9.8-28.2,22.8c-0.3,1.4-0.5,2.8-0.6,4.2l0,0c-0.2-0.1-0.4-0.3-0.6-0.4c-2.8-1.8-6.1-2.8-9.6-2.8
					c-8.3,0-15.4,5.6-17.6,13.3c-2.3-1.9-5.2-3-8.4-3c-0.1,0-0.2,0-0.3,0c-1.6,0-3.1,0.4-4.5,0.9c-0.8-5.7-3.4-10.9-7.1-14.8
					c-4.8-5-11.5-8.1-19-8.1c-13.7,0-24.9,10.5-26.2,24c-2.4-1.2-5.1-1.9-8-1.9C389.2,64.4,381.1,72.5,381.1,82.6z"/>
			</g>
			<g class="st1">
				<path class="st3" d="M846,335.7c0,1.7,0.7,3.3,1.7,4.5h96.6l0.9-0.6c0.9-0.6,1.7-1.4,2.2-2.3c0.4-0.6,0.6-1.2,0.8-1.9
					c1-4.1-1.8-8.2-6-8.4c-1.8-0.1-3.5,0.6-4.7,1.7c0-0.2,0-0.4,0-0.6c0-5.6-4.5-10.2-10.1-10.2c-4.9,0-8.9,3.5-9.9,8.1
					c-0.1,0.6-0.2,1.3-0.2,2c0,0.3,0,0.6,0,1h0c-1.9,0-3.6,0.8-4.8,2.1l0,0c0-1.1-0.4-2.2-0.9-3.1c-1.1-1.9-3.2-3.2-5.6-3.2
					c-2.8,0-5.1,1.8-6.1,4.2c-1.2-1.3-2.9-2.1-4.8-2.1c-1.6,0-3,0.6-4.1,1.5c-0.5-4.6-4.4-8.2-9.2-8.2c-1.5,0-3,0.4-4.3,1.1
					c-2.3-5.2-7.7-8.7-13.8-8.2c-7.8,0.7-13.5,8.1-12.4,15.9c0,0,0,0.1,0,0.1c-2.5,0.3-4.5,2.1-5.3,4.4
					C846.2,334.3,846,335,846,335.7z"/>
			</g>
			<g>
				<path class="st3" d="M127.3,267c0,4.2,1.6,8,4.2,10.9h233.9l2.2-1.4c2.2-1.4,4.1-3.3,5.4-5.5c0.9-1.5,1.5-3,1.9-4.5
					c2.4-9.8-4.4-19.9-14.4-20.4c-4.4-0.2-8.4,1.4-11.4,4.1c0-0.5,0.1-0.9,0.1-1.4c0-13.6-10.9-24.6-24.3-24.6
					c-11.8,0-21.6,8.5-23.9,19.7c-0.3,1.6-0.5,3.2-0.5,4.8c0,0.8,0,1.6,0.1,2.3h-0.1c-4.6,0-8.6,1.9-11.5,5l0,0
					c-0.1-2.7-0.9-5.2-2.2-7.4c-2.7-4.7-7.8-7.8-13.6-7.8c-6.7,0-12.4,4.2-14.7,10.2c-2.9-3.2-7-5.1-11.6-5.1c-3.8,0-7.3,1.4-10,3.6
					c-1.3-11.2-10.7-19.9-22.2-19.9c-3.7,0-7.2,0.9-10.3,2.6c-5.6-12.6-18.6-21.1-33.4-19.8c-18.9,1.7-32.7,19.5-30,38.5
					c0,0.1,0,0.2,0,0.2c-6,0.8-11,5-12.8,10.7C127.6,263.5,127.3,265.2,127.3,267z"/>
			</g>
			<g class="st0">
				<path class="st3" d="M89,321.2c0,2.6,1,4.9,2.6,6.7h143.2l1.3-0.9c1.3-0.9,2.5-2,3.3-3.4c0.5-0.9,0.9-1.8,1.2-2.8
					c1.5-6-2.7-12.2-8.8-12.5c-2.7-0.1-5.2,0.8-7,2.5c0-0.3,0-0.6,0-0.8c0-8.3-6.7-15-14.9-15c-7.2,0-13.2,5.2-14.6,12.1
					c-0.2,1-0.3,2-0.3,3c0,0.5,0,0.9,0.1,1.4H195c-2.8,0-5.3,1.2-7.1,3.1l0,0c-0.1-1.6-0.6-3.2-1.3-4.5c-1.7-2.9-4.8-4.8-8.3-4.8
					c-4.1,0-7.6,2.6-9,6.3c-1.8-1.9-4.3-3.1-7.1-3.1c-2.3,0-4.5,0.8-6.1,2.2c-0.8-6.9-6.6-12.2-13.6-12.2c-2.3,0-4.4,0.6-6.3,1.6
					c-3.4-7.7-11.4-12.9-20.5-12.1c-11.6,1-20,11.9-18.3,23.6c0,0.1,0,0.1,0,0.2c-3.7,0.5-6.7,3.1-7.9,6.6
					C89.1,319.1,89,320.1,89,321.2z"/>
			</g>
		</g>
		<g>
			<polygon class="st4" points="538.7,542.9 538.7,629.9 534.4,629.2 516.7,626.3 499.1,629.2 494.7,629.9 494.7,542.9 			"/>
		</g>
		<g>
			<g>
				<path class="st4" d="M516.7,577.7v49.5l-17.7,2.9l-4.3,0.7l-178.9,29.1c-18.3,3-36.9,4.5-55.5,4.5h-13c-5.1,0-7.8-5.5-4.3-8.9
					c5-4.9,12-10.7,19.6-14.2c15.3-7,46.7-15,63.4-18.9l168.8-39.5h0L516.7,577.7z"/>
			</g>
			<g>
				<path class="st4" d="M786.2,664.4h-13c-18.6,0-37.2-1.5-55.5-4.5l-178.9-29.1l-4.3-0.7l-17.7-2.9v-49.5l22,5.1h0l168.8,39.5
					c16.7,3.9,48.1,11.8,63.4,18.9c7.6,3.5,14.6,9.3,19.6,14.2C794,658.9,791.3,664.4,786.2,664.4z"/>
			</g>
		</g>
		<g>
			<rect x="392.4" y="75.1" class="st3" width="248.6" height="6.9"/>
		</g>
		<g>
			<path class="st4" d="M194.2,558.2c-12.3,0-22.3-10-22.3-22.3V118.5c0-12.3,10-22.3,22.3-22.3h645.1c12.3,0,22.3,10,22.3,22.3
				v417.4c0,12.3-10,22.3-22.3,22.3H194.2z"/>
		</g>
		<g>
			<path class="st3" d="M830.6,534.5H202.8c-4,0-7.2-3.2-7.2-7.2V127.2c0-4,3.2-7.2,7.2-7.2h627.8c4,0,7.2,3.2,7.2,7.2v400.1
				C837.8,531.2,834.6,534.5,830.6,534.5z"/>
		</g>
		<g>
			<path class="st3" d="M830.6,534.4H202.9c-4,0-7.2-3.2-7.2-7.2v-400c0-4,3.2-7.2,7.2-7.2h627.6c4,0,7.2,3.2,7.2,7.2v400
				C837.8,531.2,834.5,534.4,830.6,534.4z"/>
			<path class="st5" d="M830.6,536.3H202.9c-5,0-9.1-4.1-9.1-9.1v-400c0-5,4.1-9.1,9.1-9.1h627.6c5,0,9.1,4.1,9.1,9.1v400
				C839.6,532.2,835.6,536.3,830.6,536.3z M202.9,121.9c-2.9,0-5.3,2.4-5.3,5.3v400c0,2.9,2.4,5.3,5.3,5.3h627.6
				c2.9,0,5.3-2.4,5.3-5.3v-400c0-2.9-2.4-5.3-5.3-5.3H202.9z"/>
		</g>
		<g>
			<path class="st3" d="M811.1,140.6H222.4c-3.7,0-6.6,3-6.6,6.6v360c0,3.7,3,6.6,6.6,6.6h588.7c3.7,0,6.6-3,6.6-6.6v-360
				C817.7,143.6,814.7,140.6,811.1,140.6z"/>
		</g>
		<g>
			<path class="st5" d="M816.2,517.1H217.3c-3.7,0-6.7-3-6.7-6.7V144.1c0-3.7,3-6.7,6.7-6.7h598.8c3.7,0,6.7,3,6.7,6.7v366.2
				C822.9,514,819.9,517.1,816.2,517.1z"/>
		</g>
		<g>
			<path class="st3" d="M803,66.9v422.5c0,2.1-1.6,3.8-3.7,3.8H234.1c-2,0-3.7-1.7-3.7-3.8V66.9c0-2.1,1.6-3.8,3.7-3.8h565.2
				C801.4,63,803,64.7,803,66.9z"/>
			<path class="st3" d="M799.3,495.1H234.1c-3.1,0-5.5-2.5-5.5-5.7V66.9c0-3.1,2.5-5.7,5.5-5.7h565.2c3.1,0,5.5,2.5,5.5,5.7v422.5
				C804.9,492.5,802.4,495.1,799.3,495.1z M234.1,64.9c-1,0-1.8,0.9-1.8,1.9v422.5c0,1.1,0.8,1.9,1.8,1.9h565.2c1,0,1.8-0.9,1.8-1.9
				V66.9c0-1.1-0.8-1.9-1.8-1.9H234.1z"/>
		</g>
		<g>
			<path class="st6" d="M805,65V94H228.5V65c0-2.2,1.7-3.9,3.7-3.9h569.1C803.3,61.1,805,62.8,805,65z"/>
		</g>
		<g>
			<g>
				<rect x="263.5" y="137" class="st7" width="130.4" height="113.7"/>
			</g>
			<g>
				<rect x="448.5" y="137" class="st7" width="130.4" height="113.7"/>
			</g>
			<g>
				<rect x="263.5" y="290.7" class="st7" width="130.4" height="113.7"/>
			</g>
			<g>
				<rect x="448.5" y="290.7" class="st7" width="130.4" height="113.7"/>
			</g>
			<g>
				<rect x="633.4" y="137" class="st7" width="130.4" height="113.7"/>
			</g>
			<g>
				<rect x="630.1" y="287.6" class="st7" width="130.4" height="113.7"/>
			</g>
			<g>
				<polygon class="st8" points="558.7,310.5 574,356.5 583,341.8 596.8,355.8 603.9,349 589.8,334.8 604.3,325.7 				"/>
			</g>
		</g>
		<g>
			<g>
				<path class="st3" d="M79.1,575.6v88.6h-5.7v-88.6c0-1.6,1.3-2.8,2.8-2.8S79.1,574.1,79.1,575.6z"/>
			</g>
			<g>
				<path class="st3" d="M101.3,607.6L79.1,625l-5.7,4.4v-7.2l5.7-4.4l18.8-14.6c1.3-1,3-0.7,4,0.5
					C102.8,604.9,102.5,606.7,101.3,607.6z"/>
			</g>
			<g>
				<path class="st3" d="M79.1,596v7.2l-5.7-4.4l-10.9-8.5c-1.2-1-1.5-2.8-0.5-4c1-1.2,2.7-1.5,4-0.5l7.4,5.8L79.1,596z"/>
			</g>
			<g>
				<path class="st3" d="M79.1,640.6v7.2l-5.7-4.4l-23.6-18.3c-1.3-1-1.5-2.7-0.5-4c1-1.3,2.8-1.5,4-0.5l20.1,15.6L79.1,640.6z"/>
			</g>
		</g>
		<g>
			<path class="st5" d="M1032,673.4c0,2.5-1,4.8-2.5,6.5c-1.6,1.6-3.7,2.7-6.1,2.7H16.7c-4.8,0-8.7-4.1-8.7-9.1c0-2.5,1-4.8,2.5-6.5
				c1.6-1.6,3.7-2.7,6.1-2.7h1006.7C1028.1,664.3,1032,668.3,1032,673.4z"/>
		</g>
		<g>
			<rect x="377.7" y="72.9" class="st3" width="278.1" height="9.4"/>
		</g>
		<g>
			<g>
				
					<ellipse transform="matrix(0.2281 -0.9736 0.9736 0.2281 124.7764 312.5197)" class="st3" cx="259.5" cy="77.6" rx="6.8" ry="6.8"/>
			</g>
			<g>
				
					<ellipse transform="matrix(0.2281 -0.9736 0.9736 0.2281 141.1518 333.1748)" class="st3" cx="280.7" cy="77.6" rx="6.8" ry="6.8"/>
			</g>
			<g>
				
					<ellipse transform="matrix(0.7071 -0.7071 0.7071 0.7071 33.581 236.2049)" class="st3" cx="301.9" cy="77.6" rx="6.8" ry="6.8"/>
			</g>
		</g>
		<g>
			<g class="st9">
				<g>
					<path class="st10" d="M83,456c0-0.1,0.1-0.3,0.1-0.5c0-0.2,0-0.4,0-0.6c0-2.6-2.1-4.8-4.8-4.8c-0.4,0-0.7,0-1.1,0.1
						c-0.3,0.1-0.6,0.2-0.9,0.3c-1.7,0.8-2.8,2.4-2.8,4.3c0,2.6,2.1,4.8,4.8,4.8C80.6,459.7,82.5,458.1,83,456z"/>
				</g>
				<g>
					<g>
						<path class="st10" d="M87,451.6c0.2,0,0.4-0.2,0.4-0.4s-0.2-0.4-0.4-0.4H87v-0.5H87c0.2,0,0.4-0.2,0.4-0.4s-0.2-0.4-0.4-0.4
							H87v-1.9c0-0.8-0.6-1.4-1.4-1.4h-0.8v-16H87c0.1,0,0.2-0.1,0.2-0.2s-0.1-0.2-0.2-0.2h-2.2v0h-0.5h-0.7v0h0v0.4v1.2
							c0,0,0,0,0,0v14.8h-5.2c-0.2,0-0.3,0-0.5,0l0,0c-0.2-0.2-0.5-0.4-0.8-0.4l-3.1,0.1c-0.3,0-0.6,0.2-0.8,0.4l-1.1,1.4
							c-0.2,0.2-0.3,0.6-0.2,0.9l0.1,0.4l0,0c-1.4,1.5-2.2,3.5-2.2,5.8c0,4.5,3.5,8.3,8,8.6h0c0.1,0.2,0.2,0.3,0.4,0.3
							c0.2,0,2.7,0.1,3.9,0.1c0.9,0,1.9-0.2,2.7-0.7c0.6-0.4,1.3-0.9,1.8-1.7c1.1-1.8,1-4.3,0.9-5.1c0-0.2-0.1-0.4-0.3-0.5
							c0,0-0.1,0-0.1-0.1l0,0c0-0.2,0-0.3,0-0.5v0H87c0.2,0,0.4-0.2,0.4-0.4l0,0c0-0.2-0.2-0.4-0.4-0.4H87v-0.5H87
							c0.2,0,0.4-0.2,0.4-0.4c0-0.2-0.2-0.4-0.4-0.4H87v-0.5H87c0.2,0,0.4-0.2,0.4-0.4s-0.2-0.4-0.4-0.4H87L87,451.6L87,451.6z
							 M83.5,447.3c0.1-0.1,0.3-0.2,0.5-0.2c0.1,0,0.2,0,0.2,0c0,0,0,0,0.1,0c0.2,0,0.3,0,0.5,0.1c0.5,0.2,0.8,0.7,0.8,1.2
							c0,0.1,0,0.1,0,0.2c0,0.4-0.3,0.8-0.6,1c-0.2,0.1-0.4,0.2-0.7,0.2c-0.7,0-1.3-0.6-1.3-1.3c0-0.2,0-0.4,0.1-0.6
							C83.2,447.6,83.3,447.4,83.5,447.3z M72.4,454.9c0-2.6,1.6-4.8,4-5.6c0.2-0.1,0.4-0.1,0.6-0.2c0.4-0.1,0.9-0.2,1.4-0.2
							c3.3,0,5.9,2.7,5.9,5.9c0,0.2,0,0.5,0,0.7c0,0.1,0,0.2,0,0.3c-0.5,2.8-2.9,4.9-5.9,4.9C75.1,460.9,72.4,458.2,72.4,454.9z"/>
					</g>
				</g>
			</g>
			<g class="st9">
				<g>
					<path class="st10" d="M144.3,156.3c0-0.4,0.1-0.8,0.2-1.2l0.6-1.2l0,0l0,0c0.2,0.1,0.5,0,0.7-0.2l0,0c0.1-0.2,0-0.5-0.2-0.7
						l-0.8-0.5l0.4-0.7l5.9-10.8l1.5-1.7l0,0l0,0l0.7-2.1l0,0l0,0l0,0v0l0,0l0,0l-1-0.5l0,0l-1.5,1.7l-0.7,2.2l-6.3,11.5l-0.8-0.5
						c-0.2-0.1-0.5,0-0.7,0.2c-0.1,0.2,0,0.5,0.2,0.7l0,0l-0.4,0.8c-0.4,0.5-0.9,1-1.3,1.3c-1.1,0.8-1.9,1.9-2.6,3.1l-5.6,10.2
						c-0.7,1.3-0.3,3,1,3.8c1.3,0.8,3.1,0.3,3.8-1l5.7-10.4C143.8,159,144.2,157.7,144.3,156.3z M140,158l-5.5,10.1
						c-0.1,0.2-0.4,0.3-0.6,0.2c-0.2-0.1-0.3-0.4-0.2-0.6l5.5-10.1c0.1-0.2,0.4-0.3,0.6-0.2C140.1,157.5,140.2,157.8,140,158
						C140,158,140,158,140,158z M141.4,158.7l-5.5,10.1c-0.1,0.2-0.4,0.3-0.6,0.2c-0.2-0.1-0.3-0.4-0.2-0.6l5.5-10.1
						c0.1-0.2,0.4-0.3,0.6-0.2C141.4,158.2,141.5,158.5,141.4,158.7C141.4,158.7,141.4,158.7,141.4,158.7z M142.7,159.4l-5.5,10.1
						c-0.1,0.2-0.4,0.3-0.6,0.2c-0.2-0.1-0.3-0.4-0.2-0.6l5.5-10.1c0.1-0.2,0.4-0.3,0.6-0.2C142.7,159,142.8,159.2,142.7,159.4
						C142.7,159.4,142.7,159.4,142.7,159.4z"/>
				</g>
			</g>
			<g class="st9">
				<g>
					<polygon class="st10" points="947.4,528 970.1,528.6 970.2,525.9 947.5,525.2 949.2,521.5 936.8,526.3 948.9,531.8 					"/>
				</g>
				<g>
					<polygon class="st10" points="949.3,541.4 970.9,534.2 970,531.6 948.4,538.8 948.8,534.7 938.8,543.5 952,544.5 					"/>
				</g>
				<g>
					<polygon class="st10" points="955.4,554.5 973.8,541.1 972.1,538.9 953.7,552.2 952.8,548.2 945.9,559.6 958.9,556.6 					"/>
				</g>
				<g>
					<polygon class="st10" points="978.3,546.3 976.2,544.5 961.4,561.8 959.6,558.1 955.5,570.7 967.4,564.8 963.5,563.6 					"/>
				</g>
			</g>
			<g class="st9">
				<g>
					<path class="st10" d="M961.7,449.5c-3.5,0-6.4,2.9-6.4,6.4c0,3.5,2.9,6.4,6.4,6.4c3.5,0,6.4-2.9,6.4-6.4
						C968.2,452.4,965.3,449.5,961.7,449.5z"/>
				</g>
				<g>
					<path class="st10" d="M974.1,461.1c0,0-4.2-2.4-3.9-3.6c0.3-1.1,5.2-1.6,5.2-1.6s-5.2-0.7-5.4-2c-0.1-0.9,3.7-2.9,3.9-3
						c-0.2,0-4.7,1.2-5.1,0.2c-0.4-0.8,2.3-4.4,2.3-4.4s-3.6,2.4-4.6,1.9c-0.7-0.4,0.4-4.8,0.5-5c-0.1,0.2-2.5,4.2-3.6,3.9
						c-1.2-0.4-1.8-4.9-1.8-4.9s-0.3,4.5-1.6,4.7c-1.4,0.3-3.6-4-3.6-4s1.3,4.7,0.7,5.4c-0.6,0.7-4.9-2.2-4.9-2.2s3.2,3.9,2.5,4.6
						c-0.7,0.7-5.2-0.3-5.4-0.4c0.2,0.1,4.2,2.2,4.1,3.1c-0.2,1.5-5.2,2.1-5.2,2.1s5,0.5,5.2,1.6c0.2,1.1-3.6,3.3-3.7,3.4
						c0.2-0.1,4.7-1.3,5.2-0.1c0.4,1-2.4,4.5-2.4,4.5s4-2.6,4.7-2.3c0.7,0.4-0.5,5-0.5,5.2c0.1-0.2,2.5-4.5,3.6-4.1
						c1,0.3,1.7,5.2,1.7,5.2s0.5-5.2,1.7-5.2c1.1,0,3.4,3.9,3.5,4c-0.1-0.2-1.3-4.6-0.3-5.3c0.8-0.7,4.3,2.3,4.5,2.4
						c-0.2-0.2-3.1-3.7-2.3-4.8C969.4,459.8,974.1,461.1,974.1,461.1z M961.7,463.2c-4,0-7.2-3.2-7.2-7.2c0-4,3.2-7.2,7.2-7.2
						s7.2,3.2,7.2,7.2C969,459.9,965.7,463.2,961.7,463.2z"/>
				</g>
			</g>
			<g class="st9">
				<g>
					<path class="st10" d="M920.7,135.4h-36.2c-1.7,0-3.1,1.4-3.1,3.1v10.8c0,1.7,1.4,3.1,3.1,3.1h36.2c1.7,0,3.1-1.4,3.1-3.1v-10.8
						C923.8,136.8,922.4,135.4,920.7,135.4z M884.5,137h36.2c0.8,0,1.5,0.7,1.5,1.5v5.4l-1.6,0l-2.2-1.7h-31.7l-2.1,1.7l-1.6,0v-5.4
						C883,137.7,883.7,137,884.5,137z M920.7,150.8h-4l-1.5-0.7h-25.1l-1.5,0.7h-4.1c-0.8,0-1.5-0.7-1.5-1.5v-3.8l2.2,0l2.1-1.7
						h30.6l2.2,1.7l2.2,0v3.8C922.2,150.1,921.5,150.8,920.7,150.8z"/>
				</g>
				<g>
					<rect x="896.8" y="148.2" class="st10" width="11.5" height="1.1"/>
				</g>
				<g>
					<path class="st10" d="M896.1,154.2c-0.8-0.5-0.7-1.1-0.7-1.2l-0.8-0.2l-0.7-0.2c-0.2,0.6-0.1,1.9,1.4,2.9
						c0.5,0.3,0.9,0.9,1,1.4c0,0.3,0,0.6-0.1,0.7c-0.1,0.1-0.2,0.3-0.4,0.4c-0.8,0.8-1.9,2.1-1.8,3.6l1.5-0.1
						c-0.1-0.8,0.8-1.7,1.4-2.4c0.2-0.2,0.3-0.3,0.4-0.5c0.4-0.5,0.6-1.2,0.5-1.9C897.6,155.7,897,154.8,896.1,154.2z"/>
				</g>
				<g>
					<path class="st10" d="M909.7,154.2c-0.8-0.5-0.7-1.1-0.7-1.2l-0.8-0.2l-0.7-0.2c-0.2,0.6-0.1,1.9,1.4,2.9
						c0.5,0.3,0.9,0.9,1,1.4c0,0.3,0,0.6-0.1,0.7c-0.1,0.1-0.2,0.3-0.4,0.4c-0.8,0.8-1.9,2.1-1.8,3.6l1.5-0.1
						c-0.1-0.8,0.8-1.7,1.4-2.4c0.2-0.2,0.3-0.3,0.4-0.5c0.4-0.5,0.6-1.2,0.5-1.9C911.2,155.7,910.6,154.8,909.7,154.2z"/>
				</g>
				<g>
					<path class="st10" d="M902.9,157.8c-0.8-0.5-0.7-1.1-0.7-1.2l-0.8-0.2l-0.7-0.2c-0.2,0.6-0.1,1.9,1.4,2.9
						c0.5,0.3,0.9,0.9,1,1.4c0,0.3,0,0.6-0.1,0.7c-0.1,0.1-0.2,0.3-0.4,0.4c-0.8,0.8-1.9,2.1-1.8,3.6l1.5-0.1
						c-0.1-0.8,0.8-1.7,1.4-2.4c0.2-0.2,0.3-0.3,0.4-0.5c0.4-0.5,0.6-1.2,0.5-1.9C904.4,159.2,903.8,158.3,902.9,157.8z"/>
				</g>
			</g>
		</g>
		<g>
			<g>
				<path class="st11" d="M700.8,430.4c0.1,5.8,38.5,62.5,56.3,81.4c2.2,2.3,4.1,4.1,5.5,5.1c5.2,3.6,12.6,9,19.7,14.3
					c4.6,3.4,9.1,6.8,12.8,9.5c5.1,3.8,8.6,6.5,8.6,6.5l-2.4,32.3l-6.3,84.9h123l-7.5-143.3l-1.7-19.1c0,0,15-16.4,18.2-34.5
					c3.2-18.1,3.2-18.1,3.2-18.1s0.6-4.8,1.5-11.9c2.1-17.4,5.5-48.5,3.9-55.3c-1.1-4.8-18.2-17.7-35.9-29.5
					c-17.6-11.7-35.8-22.2-39.5-22.2c-7.3,0-28.4,20.4-28.4,20.4s0.7-7.5-3.1-11.2c-3.7-3.7-25.5-28.3-31.7-28.9
					s-23.8,11.6-25.2,14.3c-1.3,2.7,1.2,7.3,1.4,7.5c-0.3-0.3-11.7-9.9-17.7-10.9c-6.1-1-22.5,4.8-26.6,10.6
					c-4.1,5.8-9.4,15.3-8.4,18.7c1,3.4,6.7,12.6,6.7,12.6s-6.8-0.7-9-0.6c-2.2,0.2-15.9,11.1-15.9,20c0,8.9,13.3,31.7,13.3,31.7
					s-4.1-1.4-5.8-0.7C708.4,414.4,700.6,424,700.8,430.4z"/>
			</g>
			<g class="st12">
				<path class="st13" d="M757,511.3c2.2,2.3,4.1,4.1,5.5,5.1c5.2,3.6,12.6,9,19.7,14.3c0.6-12.9,3.9-34.6,17.4-49.7
					c20.4-22.8,38.8-37.4,38.8-37.4l27.9-47.3l-9.9-12.3l-36.4,15.3L757,511.3z"/>
			</g>
			<g>
				<g>
					
						<rect x="786" y="266.2" transform="matrix(-0.8216 -0.57 0.57 -0.8216 1231.2283 1219.8923)" class="st14" width="41" height="302.3"/>
				</g>
				<g>
					<path class="st15" d="M757.7,487.7L757.7,487.7c2.9,2,7,1.3,9-1.6L856.9,356c2-2.9,1.3-7-1.6-9v0c-2.9-2-7-1.3-9,1.6L756,478.7
						C754,481.6,754.7,485.6,757.7,487.7z"/>
				</g>
				<g>
					<polygon class="st14" points="935.2,196.6 925.9,190.2 909.4,203.8 920.5,206.7 					"/>
				</g>
				<g>
					<path class="st14" d="M869.8,225c-21.3,30.7-13.7,72.7,17,94c30.6,21.3,65.6,8.7,86.9-21.9c15.1-21.8,13.7-50.7,1.7-72.5
						l-25.2,55.6l0,0.5l-27.4,12.9L898,276.4l2.5-30.1l0.5-0.2l34.3-49.4C910.6,193,884.9,203.2,869.8,225z"/>
				</g>
				<g>
					<path class="st15" d="M860.6,218.5c-21.3,30.7-13.7,72.7,17,94c30.6,21.3,72.7,13.7,94-17c15.1-21.8,15.6-49.4,3.6-71.2
						L941,273.7l0,0.5l-27.4,12.9l-24.8-17.2l2.5-30.1l0.5-0.2l34.3-49.4C901.4,186.6,875.7,196.7,860.6,218.5z"/>
				</g>
				<g>
					<path class="st14" d="M680.8,538.5c-10.5,15.2-6.8,36,8.4,46.6c15.2,10.5,36,6.8,46.6-8.4c10.5-15.2,6.8-36-8.4-46.6
						C712.2,519.5,691.4,523.3,680.8,538.5z M693.3,547.1l16.6-7.8l15.1,10.5l-1.5,18.3l-16.6,7.8l-15.1-10.5L693.3,547.1z"/>
				</g>
			</g>
			<g>
				<g>
					<path class="st11" d="M805.4,398.4c6.4,2.3,47.7-7.9,47.7-7.9s-0.9,7.7,3.6,10.4c0,0-17.9,4.3-22.9,22.9
						c-5,18.6-5.9,39.3-5.9,39.3s0,0,0,0c0.7-0.2,91.4-34.2,86.9-71c-2.6-21.1-9.5-33.3-15-39.9c-17.6-11.7-35.8-22.2-39.4-22.2
						c-7.3,0-28.4,20.4-28.4,20.4s-32.5,33.6-33.6,37.2C797.3,391.1,799.1,396.1,805.4,398.4z"/>
				</g>
				<g>
					<path class="st16" d="M853.1,390.4c0,0-0.9,7.7,3.6,10.4c0,0-17.9,4.3-22.9,22.9c-5,18.6-5.9,39.3-5.9,39.3s0,0,0,0
						c0.5-0.8,33.9-50.4,51.3-56c0,0-15.4-7.7-17.7-26.6c0,0-41.1,17.5-56.1,17.9C811.8,400.6,853.1,390.4,853.1,390.4z"/>
				</g>
			</g>
			<g>
				<path class="st16" d="M803.7,546.7l-2.4,32.3c17.5-14.2,24.9,16.7,24.9,16.7c26.9-90.2,47-21.4,47-21.4
					c4.9-48.9,26-54.4,37.4-53.7l-1.7-19.1c0,0,15-16.4,18.2-34.5c3.2-18.1,3.2-18.1,3.2-18.1s0.6-4.8,1.5-11.9
					c-25.4,38.5-78.3,44.1-78.3,44.1c-6.8,27.2-39.8,38.8-54.1,53.1c-1.7,1.7-3.1,3.8-4.2,6.1C800.2,544,803.7,546.7,803.7,546.7z"
					/>
			</g>
			<g>
				<g>
					<path class="st11" d="M765.1,402.7c0,0,8.2,8.7,17.8,12.5c3.5,1.4,7.2,2.1,10.8,1.6c13.4-2,9.1-19.3,9.1-19.3l2.5-12.7
						l-6.6-7.5L765.1,402.7z"/>
				</g>
				<g>
					<path class="st11" d="M733.1,466l0.2,0.1c1.8,0.8,17.1,7.3,24.1-0.8c7.5-8.6-4.3-23.6-4.3-23.6s13.8,3.2,21.6-6.4
						c7.7-9.5-1.1-26.3-1.1-26.3l-33.4,24.1L733.1,466z"/>
				</g>
				<g>
					<path class="st16" d="M782.9,415.2c3.5,1.4,7.2,2.1,10.8,1.6c13.4-2,9.1-19.3,9.1-19.3s-1,16.1-19.4,17.5L782.9,415.2z"/>
				</g>
				<g>
					<path class="st16" d="M753,441.7c0,0,13.8,3.2,21.6-6.4c7.7-9.5-1.1-26.3-1.1-26.3S776.2,438.5,753,441.7z"/>
				</g>
			</g>
			<g>
				<path class="st16" d="M733.1,466l0.2,0.1c1.8,0.8,17.1,7.3,24.1-0.8c7.5-8.6-4.3-23.6-4.3-23.6S756,468.5,733.1,466z"/>
			</g>
			<g>
				<g>
					<path class="st13" d="M825.7,361.5c0,0,0.3,0,0.7,0.1c0.5,0.1,1.1,0.3,1.9,0.8c0.3,0.2,0.8,0.5,1.1,0.8
						c0.4,0.3,0.8,0.7,1.1,1.1c0.3,0.4,0.7,0.8,1,1.3c0.3,0.5,0.6,1,0.8,1.5c0.2,0.5,0.5,1,0.6,1.6c0.2,0.5,0.3,1,0.4,1.6
						c0.1,0.5,0.2,1,0.2,1.5c0,0.5,0,0.9,0,1.3c0,0.4,0,0.8-0.1,1.1c0,0.3-0.1,0.6-0.1,0.9c-0.1,0.5-0.1,0.7-0.1,0.7
						s-0.1-0.3-0.2-0.7c-0.1-0.5-0.2-1.1-0.4-1.9c-0.1-0.4-0.2-0.8-0.3-1.2c-0.1-0.4-0.3-0.9-0.4-1.3c-0.1-0.5-0.3-0.9-0.5-1.4
						c-0.1-0.5-0.4-0.9-0.6-1.4c-0.2-0.5-0.5-0.9-0.7-1.3c-0.3-0.4-0.5-0.8-0.8-1.2c-0.3-0.4-0.5-0.8-0.8-1.1
						c-0.3-0.3-0.6-0.6-0.8-0.9c-0.3-0.2-0.5-0.5-0.8-0.7c-0.2-0.2-0.5-0.4-0.7-0.5C825.9,361.6,825.7,361.5,825.7,361.5z"/>
				</g>
				<g>
					<path class="st13" d="M830.5,384.6c0,0-1,1-2.7,2.2c-0.8,0.6-1.9,1.3-3,1.9c-0.6,0.3-1.2,0.6-1.8,0.9c-0.6,0.3-1.3,0.6-1.9,0.8
						c-0.6,0.3-1.3,0.5-2,0.7c-0.7,0.2-1.3,0.4-1.9,0.5c-0.6,0.1-1.3,0.3-1.9,0.3c-0.6,0.1-1.2,0.1-1.7,0.2c-0.5,0-1,0-1.4,0
						c-0.4,0-0.8-0.1-1.1-0.1c-0.6-0.1-0.9-0.2-0.9-0.2s0.3-0.1,0.9-0.2c0.3-0.1,0.7-0.1,1.1-0.2c0.4-0.1,0.9-0.2,1.3-0.3
						c0.5-0.1,1-0.3,1.6-0.4c0.5-0.2,1.1-0.3,1.7-0.5c0.6-0.2,1.2-0.4,1.8-0.6c0.6-0.2,1.2-0.5,1.9-0.7c0.6-0.3,1.3-0.5,1.9-0.8
						c0.6-0.3,1.2-0.5,1.8-0.8c1.2-0.5,2.2-1,3.2-1.4C829.2,385.2,830.5,384.6,830.5,384.6z"/>
				</g>
				<g>
					<g>
						<path class="st13" d="M853.1,390.4c0,0,0.3-0.2,0.7-0.7c0.4-0.4,1-1.1,1.7-1.9c0.7-0.8,1.4-1.7,2.2-2.8
							c0.4-0.5,0.7-1.1,1.1-1.6c0.4-0.5,0.7-1.1,1.1-1.7c0.4-0.6,0.7-1.2,1-1.8c0.3-0.6,0.6-1.2,0.9-1.8c0.3-0.6,0.5-1.1,0.8-1.7
							c0.3-0.5,0.4-1.1,0.7-1.5c0.2-0.5,0.4-0.9,0.6-1.3c0.1-0.4,0.3-0.7,0.4-1c0.2-0.6,0.4-0.9,0.4-0.9s0,0.4-0.1,1
							c0,0.3-0.1,0.7-0.1,1.1c0,0.4-0.2,0.9-0.3,1.4c-0.1,0.5-0.2,1.1-0.4,1.7c-0.2,0.6-0.4,1.2-0.6,1.8c-0.3,0.6-0.5,1.3-0.8,1.9
							c-0.3,0.6-0.7,1.3-1,1.9c-0.4,0.6-0.8,1.2-1.2,1.8c-0.4,0.6-0.9,1.1-1.3,1.6c-0.4,0.5-0.9,1-1.3,1.4c-0.4,0.4-0.9,0.8-1.3,1.1
							c-0.4,0.3-0.8,0.6-1.2,0.9c-0.4,0.3-0.7,0.4-1,0.6C853.4,390.3,853.1,390.4,853.1,390.4z"/>
					</g>
					<g>
						<path class="st13" d="M884.6,405.8c0,0-0.4,0.2-1.2,0.4c-0.4,0.1-0.9,0.2-1.4,0.4c-0.5,0.1-1.2,0.2-1.9,0.3
							c-0.7,0.1-1.4,0.2-2.2,0.2c-0.8,0-1.6,0.1-2.5,0.1c-0.9,0-1.8,0-2.7-0.1c-0.5,0-0.9-0.1-1.4-0.1l-1.4-0.2
							c-0.9-0.1-1.8-0.4-2.7-0.6c-0.9-0.2-1.7-0.5-2.6-0.8c-0.8-0.2-1.6-0.6-2.3-0.9c-0.4-0.2-0.7-0.3-1-0.5
							c-0.3-0.2-0.6-0.4-0.9-0.5c-0.6-0.3-1.2-0.6-1.6-1c-0.5-0.3-0.9-0.6-1.2-0.8c-0.6-0.5-1-0.8-1-0.8s0.4,0.2,1.2,0.5
							c0.4,0.2,0.8,0.4,1.3,0.6c0.5,0.2,1.1,0.4,1.7,0.7c0.6,0.2,1.3,0.5,2,0.7c0.7,0.2,1.5,0.5,2.3,0.7c0.8,0.2,1.6,0.5,2.5,0.6
							c0.9,0.2,1.7,0.4,2.6,0.5l1.3,0.2c0.4,0.1,0.9,0.1,1.3,0.2c0.9,0.1,1.7,0.2,2.6,0.3c0.8,0,1.6,0.1,2.4,0.1c0.8,0,1.5,0,2.2,0
							C882.8,406,884.6,405.8,884.6,405.8z"/>
					</g>
				</g>
				<g>
					<path class="st13" d="M871.5,573.2c0,0,0.1,0.9,0.2,2.4c0.1,1.5,0.3,3.7,0.4,6.3c0.1,2.6,0.3,5.6,0.4,8.9
						c0.1,1.6,0.1,3.3,0.2,5c0,1.7,0.1,3.4,0.1,5.2c0,1.7,0,3.5,0.1,5.2c0,1.7,0,3.4,0,5c0,3.3,0,6.3-0.1,8.9c0,2.6-0.1,4.8-0.2,6.3
						c-0.1,1.5-0.1,2.4-0.1,2.4s-0.1-0.9-0.2-2.4c-0.1-1.5-0.3-3.7-0.4-6.3c-0.1-2.6-0.3-5.6-0.4-8.9c0-1.6-0.1-3.3-0.2-5
						c0-1.7-0.1-3.4-0.1-5.2c0-1.7,0-3.5-0.1-5.2c0-1.7,0-3.4,0-5c0-3.3,0-6.3,0.1-8.9c0-2.6,0.1-4.8,0.2-6.3
						C871.4,574.1,871.5,573.2,871.5,573.2z"/>
				</g>
				<g>
					<path class="st13" d="M855.8,574.2c0,0,0.2,1.7,0.2,4.1c0,1.2,0,2.7,0,4.2c0,0.8,0,1.6-0.1,2.4c0,0.8-0.1,1.6-0.1,2.4
						c-0.1,0.8-0.1,1.6-0.2,2.4c0,0.8-0.1,1.6-0.2,2.4c-0.1,1.5-0.3,3-0.5,4.2c-0.3,2.4-0.7,4.1-0.7,4.1s-0.2-1.7-0.2-4.1
						c0-1.2,0-2.7,0-4.2c0-0.8,0-1.6,0.1-2.4c0-0.8,0.1-1.6,0.1-2.4c0.1-0.8,0.1-1.6,0.2-2.4c0-0.8,0.1-1.6,0.2-2.4
						c0.1-1.5,0.3-3,0.5-4.2C855.5,575.9,855.8,574.2,855.8,574.2z"/>
				</g>
				<g>
					<path class="st13" d="M799.5,375.9c0,0-1.8-2.3-4.2-5.9c-1.2-1.8-2.7-3.9-4.2-6.2c-0.7-1.1-1.5-2.3-2.3-3.5
						c-0.8-1.2-1.5-2.4-2.3-3.7c-0.8-1.2-1.5-2.5-2.3-3.7c-0.8-1.2-1.5-2.4-2.2-3.6c-1.4-2.4-2.7-4.6-3.7-6.5
						c-1.1-1.9-1.9-3.5-2.5-4.7c-0.3-0.6-0.5-1-0.6-1.3c-0.1-0.3-0.2-0.5-0.2-0.5s1.7,2.4,4.1,6c1.2,1.8,2.6,3.9,4.1,6.2
						c0.7,1.2,1.5,2.3,2.3,3.5c0.8,1.2,1.5,2.4,2.3,3.7c0.8,1.2,1.5,2.5,2.3,3.7c0.8,1.2,1.5,2.4,2.2,3.6c1.4,2.4,2.7,4.6,3.8,6.5
						C798.2,373.3,799.5,375.9,799.5,375.9z"/>
				</g>
				<g>
					<path class="st13" d="M796.1,385c0,0-0.3-0.6-0.9-1.5c-0.6-1-1.5-2.4-2.6-4c-0.6-0.8-1.2-1.7-1.9-2.5c-0.7-0.9-1.5-1.7-2.4-2.4
						c-0.4-0.3-0.9-0.6-1.3-0.6c-0.2,0-0.3,0-0.7,0.1c-0.3,0.1-0.6,0.2-0.9,0.3c-1.1,0.4-2.3,1-3.4,1.6c-1.1,0.6-2.3,1.3-3.3,1.9
						c-1.1,0.7-2.1,1.4-3.1,2.1c-1,0.7-1.9,1.4-2.8,2.1c-0.4,0.3-0.8,0.7-1.2,1.1c-0.4,0.4-0.8,0.7-1.1,1c-0.3,0.3-0.7,0.7-1,1
						c-0.3,0.3-0.6,0.6-0.8,0.9c-0.1,0.1-0.3,0.3-0.4,0.4c-0.1,0.1-0.2,0.3-0.3,0.4c-0.2,0.3-0.4,0.5-0.6,0.8
						c-0.3,0.5-0.5,0.9-0.7,1.1c-0.2,0.3-0.2,0.4-0.2,0.4s0.1-0.2,0.2-0.4c0.1-0.3,0.2-0.7,0.5-1.3c0.3-0.5,0.5-1.2,1-1.8
						c0.2-0.3,0.5-0.7,0.7-1.1c0.3-0.4,0.6-0.7,0.9-1.1c0.7-0.8,1.4-1.6,2.2-2.3c0.8-0.8,1.7-1.6,2.7-2.4c1-0.8,2-1.5,3.1-2.3
						c1.1-0.7,2.2-1.4,3.4-2.1c1.2-0.6,2.4-1.2,3.7-1.7c0.3-0.1,0.7-0.2,1-0.3c0.2-0.1,0.8-0.2,1.2-0.1c0.9,0.1,1.5,0.6,2,1
						c1,0.9,1.8,1.9,2.4,2.8c0.7,0.9,1.2,1.9,1.7,2.7c1,1.7,1.6,3.2,2.1,4.3C795.9,384.3,796.1,385,796.1,385z"/>
				</g>
				<g>
					<path class="st13" d="M824.7,346.2c0,0-0.9,1.6-2.5,3.7c-0.4,0.5-0.8,1.1-1.4,1.7c-0.5,0.6-1,1.2-1.6,1.8
						c-0.6,0.6-1.2,1.2-1.8,1.8c-0.6,0.6-1.3,1.2-2,1.8c-0.7,0.6-1.4,1.1-2.1,1.6c-0.7,0.5-1.4,1-2.1,1.4c-0.7,0.4-1.4,0.9-2.1,1.2
						c-0.7,0.3-1.3,0.7-2,0.9c-0.6,0.2-1.2,0.5-1.7,0.6c-0.5,0.2-1,0.3-1.4,0.4c-0.8,0.2-1.2,0.3-1.2,0.3s0.4-0.2,1.1-0.6
						c0.3-0.2,0.8-0.4,1.2-0.6c0.5-0.3,1-0.6,1.5-0.9c0.6-0.3,1.1-0.7,1.8-1.1c0.6-0.4,1.2-0.9,1.9-1.3c0.7-0.5,1.3-1,2-1.5
						c0.7-0.5,1.3-1.1,2-1.6c0.7-0.6,1.3-1.1,2-1.7c0.6-0.6,1.3-1.1,1.9-1.7c0.6-0.6,1.2-1.1,1.7-1.6c0.5-0.5,1.1-1,1.5-1.5
						C823.5,347.4,824.7,346.2,824.7,346.2z"/>
				</g>
				<g>
					<path class="st13" d="M760.5,409.3c0,0-0.3-0.4-0.8-1c-0.5-0.6-1.3-1.5-2.4-2.3c-0.5-0.4-1.2-0.6-1.7-0.4c0,0-0.1,0.1-0.1,0.1
						l-0.2,0.1c-0.2,0.1-0.3,0.2-0.5,0.3c-0.3,0.2-0.6,0.5-0.9,0.8c-0.6,0.6-1.2,1.2-1.9,1.9c-0.6,0.6-1.3,1.3-1.9,2
						c-0.6,0.7-1.2,1.4-1.8,2.1c-0.6,0.7-1.1,1.4-1.7,2.1c-1.1,1.4-2,2.7-2.8,3.8c-0.8,1.2-1.3,2.2-1.7,2.9
						c-0.2,0.4-0.3,0.7-0.4,0.9c-0.1,0.2-0.1,0.3-0.1,0.3s0-0.1,0-0.3c0-0.2,0.1-0.5,0.2-0.9c0.2-0.8,0.6-1.9,1.2-3.2
						c0.6-1.3,1.4-2.7,2.4-4.2c0.5-0.7,1-1.5,1.6-2.2c0.6-0.7,1.2-1.5,1.8-2.2c0.6-0.7,1.3-1.4,2-2.1c0.7-0.7,1.4-1.3,2.1-1.8
						c0.4-0.3,0.7-0.6,1.1-0.8c0.2-0.1,0.4-0.2,0.6-0.3l0.3-0.2c0.1-0.1,0.3-0.1,0.4-0.1l0.1,0l0.1,0l0,0c0.1,0,0,0,0.1,0l0,0l0,0
						l0.4,0c0.2,0,0.5,0.1,0.7,0.2c0.4,0.2,0.7,0.4,1,0.7c0.6,0.5,1,1,1.3,1.5c0.3,0.5,0.6,0.9,0.8,1.3
						C760.3,408.8,760.5,409.3,760.5,409.3z"/>
				</g>
				<g>
					<path class="st13" d="M735.1,462.8c0,0-0.3-0.1-0.9-0.5c-0.6-0.3-1.4-0.8-2.2-1.7c-0.4-0.4-0.8-0.9-1.1-1.6l-0.1-0.1l0,0l0,0
						l0-0.1l0,0l0-0.1c0-0.1,0-0.1-0.1-0.3c0-0.3,0-0.5,0-0.6c0-0.4,0.1-0.7,0.2-1.1c0.2-0.7,0.4-1.4,0.7-2.1c0.3-0.7,0.6-1.3,1-2
						c0.4-0.6,0.7-1.3,1.1-1.9c0.4-0.6,0.8-1.2,1.2-1.8c0.8-1.1,1.6-2.1,2.3-3c0.7-0.8,1.4-1.5,1.9-1.9c0.5-0.4,0.8-0.6,0.8-0.6
						s-0.8,1.2-2,3.1c-0.6,0.9-1.2,2-1.9,3.2c-0.3,0.6-0.7,1.2-1,1.8c-0.4,0.6-0.7,1.2-1,1.9c-0.3,0.6-0.7,1.3-1,1.9
						c-0.3,0.6-0.6,1.2-0.8,1.8c-0.1,0.3-0.2,0.6-0.3,0.9l-0.1,0.3c0,0,0,0.1,0,0.2l0,0.1l0,0c0,0.1,0-0.1,0,0l0,0l0,0l0,0.1
						c0.1,0.5,0.4,1,0.7,1.4c0.6,0.9,1.2,1.5,1.6,2C734.8,462.6,735.1,462.8,735.1,462.8z"/>
				</g>
				<g>
					<path class="st13" d="M820.4,461.2c0,0-0.8,0.5-2.1,1.3c-1.4,0.8-3.3,2-5.5,3.5c-2.3,1.5-4.9,3.3-7.6,5.2c-1.4,1-2.8,2-4.2,3.1
						c-1.4,1.1-2.8,2.2-4.2,3.4c-1.4,1.2-2.7,2.3-4,3.6c-1.3,1.2-2.5,2.4-3.7,3.6c-1.2,1.2-2.2,2.4-3.2,3.6c-1,1.2-1.9,2.4-2.6,3.5
						c-0.7,1.1-1.4,2.2-2,3.1c-0.6,0.9-1,1.8-1.3,2.5c-0.3,0.7-0.6,1.3-0.7,1.7c-0.2,0.4-0.3,0.6-0.3,0.6s0.1-0.2,0.2-0.6
						c0.1-0.4,0.2-1,0.5-1.8c0.3-0.7,0.6-1.7,1.1-2.7c0.4-1,1-2.1,1.7-3.3c0.4-0.6,0.7-1.2,1.1-1.8c0.4-0.6,0.9-1.2,1.3-1.9
						c0.9-1.3,2-2.6,3.1-3.8c1.2-1.3,2.4-2.6,3.7-3.8c1.3-1.3,2.7-2.5,4.1-3.7c1.4-1.2,2.8-2.3,4.3-3.4c1.4-1.1,2.9-2.1,4.3-3
						c1.4-1,2.8-1.8,4.2-2.7c1.3-0.8,2.6-1.6,3.8-2.2c2.4-1.3,4.4-2.3,5.9-3C819.6,461.6,820.4,461.2,820.4,461.2z"/>
				</g>
				<g>
					<path class="st13" d="M763.1,398.6c0,0-2.4-1.7-5.8-4.4c-1.7-1.4-3.7-3-5.8-4.8c-1-0.9-2.1-1.8-3.2-2.8c-1.1-1-2.2-2-3.2-2.9
						c-2.1-2-4.3-4-6.2-6c-1-1-1.9-1.9-2.7-2.9c-0.9-0.9-1.7-1.8-2.4-2.7c-0.7-0.8-1.4-1.6-1.9-2.3c-0.5-0.7-1-1.3-1.4-1.9
						c-0.7-1.1-1.1-1.7-1.1-1.7s0.5,0.5,1.4,1.5c0.4,0.5,1,1,1.6,1.7c0.6,0.6,1.3,1.3,2.1,2.1c1.6,1.5,3.4,3.3,5.4,5.2
						c1,0.9,2,1.9,3.1,2.9c1,1,2.1,2,3.2,3c2.1,2,4.3,4,6.3,5.8c2,1.9,3.9,3.6,5.4,5.1C761,396.5,763.1,398.6,763.1,398.6z"/>
				</g>
				<g>
					<path class="st13" d="M748.1,440.1c0,0-2.1-1.1-5.2-3c-1.5-0.9-3.3-2.1-5.2-3.4c-1.9-1.3-3.8-2.7-5.8-4.1
						c-1-0.7-1.9-1.5-2.9-2.2c-0.9-0.7-1.8-1.5-2.7-2.2c-1.7-1.4-3.3-2.8-4.6-4.1c-0.6-0.6-1.2-1.2-1.7-1.8c-0.5-0.6-0.9-1-1.3-1.4
						c-0.3-0.4-0.5-0.8-0.7-1c-0.2-0.2-0.2-0.4-0.2-0.4s0.4,0.4,1.2,1.2c0.4,0.3,0.9,0.8,1.4,1.2c0.6,0.5,1.2,1,1.9,1.5
						c0.7,0.5,1.5,1.1,2.3,1.8c0.8,0.6,1.7,1.3,2.6,1.9c1.8,1.3,3.7,2.8,5.7,4.2c1.9,1.4,3.8,2.9,5.6,4.2c1.8,1.4,3.5,2.6,4.9,3.7
						C746.2,438.6,748.1,440.1,748.1,440.1z"/>
				</g>
				<g>
					<path class="st13" d="M729.9,464.3c-1.7-1.2-3.3-2.5-4.8-3.8c-0.8-0.6-1.6-1.3-2.4-2c-0.8-0.7-1.5-1.3-2.3-2l1.1-1
						c0.6,0.7,1.2,1.4,1.7,2.1c0.6,0.7,1.2,1.4,1.7,2.2c1.1,1.5,2.3,2.9,3.3,4.4c1.1,1.5,2.2,3,3.2,4.5c1.1,1.5,2.1,3,3,4.6
						c-1.3-1.3-2.5-2.7-3.8-4.1c-1.2-1.4-2.4-2.8-3.6-4.2c-1.2-1.4-2.3-2.9-3.5-4.3c-0.6-0.7-1.1-1.5-1.7-2.2
						c-0.6-0.7-1.1-1.5-1.7-2.2l1.1-1c0.7,0.7,1.5,1.4,2.2,2.1c0.7,0.7,1.5,1.4,2.2,2.2C727.1,461.2,728.5,462.7,729.9,464.3z"/>
				</g>
				<g>
					<path class="st13" d="M881.4,486.7c0,0-1.1,0.3-3,0.7c-1.9,0.5-4.6,1.2-7.8,2.3c-3.2,1-6.9,2.3-10.7,4.1
						c-1.9,0.9-3.7,2-5.5,3.2c-0.9,0.6-1.7,1.3-2.4,2.1c-0.7,0.8-1.4,1.6-1.8,2.6c-0.9,2.1-1.7,4.1-2.6,6.2c-0.9,2-1.8,4-2.7,6
						c-0.9,1.9-1.9,3.7-2.8,5.4c-1,1.7-1.9,3.3-2.9,4.6c-1,1.4-1.9,2.6-2.9,3.7c-0.4,0.5-0.9,1-1.3,1.4c-0.2,0.2-0.4,0.4-0.6,0.6
						c-0.2,0.2-0.4,0.4-0.6,0.5c-0.4,0.3-0.7,0.6-1,0.9c-0.3,0.2-0.6,0.4-0.8,0.6c-0.4,0.3-0.7,0.5-0.7,0.5s0.2-0.2,0.6-0.5
						c0.2-0.2,0.4-0.4,0.7-0.6c0.3-0.3,0.6-0.6,0.9-0.9c0.2-0.2,0.4-0.4,0.5-0.6c0.2-0.2,0.4-0.4,0.5-0.6c0.4-0.5,0.8-0.9,1.2-1.5
						c0.8-1.1,1.7-2.4,2.6-3.8c0.4-0.7,0.9-1.5,1.3-2.3c0.5-0.8,0.9-1.6,1.3-2.5c0.9-1.7,1.8-3.5,2.6-5.4c0.9-1.9,1.7-3.9,2.6-6
						c0.8-2.1,1.7-4.1,2.5-6.2c0.5-1.1,1.3-2.1,2.1-3c0.8-0.9,1.7-1.6,2.6-2.3c1.9-1.3,3.8-2.3,5.8-3.2c1.9-0.9,3.9-1.6,5.7-2.2
						c1.8-0.6,3.6-1.1,5.3-1.5c3.3-0.9,6.1-1.4,8-1.7C880.2,486.9,881.4,486.7,881.4,486.7z"/>
				</g>
			</g>
		</g>
		<g>
			<g>
				<g>
					<path class="st17" d="M265.1,581.7h-33.4c-4,0-7.2-3.2-7.2-7.2v-12.4c0-4,3.2-7.2,7.2-7.2h33.4c4,0,7.2,3.2,7.2,7.2v12.4
						C272.3,578.5,269.1,581.7,265.1,581.7z M231.7,561.1c-0.6,0-1,0.5-1,1v12.4c0,0.6,0.5,1,1,1h33.4c0.6,0,1-0.5,1-1v-12.4
						c0-0.6-0.5-1-1-1H231.7z"/>
				</g>
			</g>
			<g>
				<path class="st18" d="M302.7,576H194c0-6.1,5-11.1,11.1-11.1h86.5c3.1,0,5.8,1.2,7.9,3.3C301.5,570.2,302.7,573,302.7,576z"/>
			</g>
			<g>
				<g>
					<path class="st17" d="M296.3,573.3v2.7H278v-2.7c0-1.5,1.2-2.7,2.7-2.7h12.9C295.1,570.6,296.3,571.8,296.3,573.3z"/>
				</g>
				<g>
					<path class="st17" d="M218.7,573.3v2.7h-18.3v-2.7c0-1.5,1.2-2.7,2.7-2.7H216C217.5,570.6,218.7,571.8,218.7,573.3z"/>
				</g>
			</g>
			<g>
				<polygon class="st6" points="302.7,576 293.8,597.6 303,614.5 193.8,614.8 201.8,596.9 194,576 				"/>
			</g>
			<g>
				<g>
					<g>
						<path class="st19" d="M238.7,599.5c-0.3,0-0.6-0.2-0.7-0.5c-0.1-0.2,0-0.4,0-0.6c0.1-0.2,0.3-0.3,0.5-0.4
							c0.4-0.1,0.8,0.1,1,0.5c0.1,0.2,0,0.4,0,0.6c-0.1,0.2-0.3,0.3-0.5,0.4C238.8,599.5,238.8,599.5,238.7,599.5z M238.7,598.4
							c0,0-0.1,0-0.1,0c-0.1,0-0.2,0.1-0.2,0.2c0,0.1-0.1,0.2,0,0.3c0.1,0.2,0.3,0.3,0.5,0.2c0.1,0,0.2-0.1,0.2-0.2
							c0-0.1,0.1-0.2,0-0.3C239,598.5,238.8,598.4,238.7,598.4z"/>
					</g>
					<g>
						<g>
							<polygon class="st20" points="168.8,582 169.4,580.2 169.5,580.2 169.5,580.2 195.1,588.2 194.5,590.1 168.9,582 							"/>
						</g>
						<g>
							<g>
								<polygon class="st21" points="191.5,589.1 191,586.9 189.9,586.6 190.5,588.8 								"/>
							</g>
							<g>
								<polygon class="st21" points="185.2,585.1 185.7,587.3 186.8,587.6 186.2,585.4 								"/>
							</g>
							<g>
								<polygon class="st21" points="180.4,583.6 180.9,585.8 182,586.1 181.5,583.9 								"/>
							</g>
							<g>
								<polygon class="st21" points="175.6,582.1 176.2,584.3 177.2,584.6 176.7,582.4 								"/>
							</g>
							<g>
								<polygon class="st21" points="170.9,580.6 171.4,582.8 172.5,583.1 171.9,580.9 								"/>
							</g>
						</g>
						<g>
							<polygon class="st20" points="169.5,580.2 166.4,580.2 168.9,582 169.5,581.2 							"/>
						</g>
						<g>
							<path class="st21" d="M196.3,587.5l-1.1-0.3c-0.5-0.2-1.1,0.1-1.3,0.7l-0.6,2c-0.2,0.5,0.1,1.1,0.7,1.3l1.1,0.3L196.3,587.5z
								"/>
						</g>
						<g>
							<polygon class="st20" points="198.6,586.8 196.6,593.2 197.9,594.8 209.5,598.5 212.2,589.9 200.6,586.3 							"/>
						</g>
						<g>
							
								<rect x="200.3" y="586.6" transform="matrix(-0.9539 -0.3 0.3 -0.9539 220.6644 1217.8553)" class="st21" width="7" height="10.7"/>
						</g>
						<g>
							<path class="st21" d="M196.3,587.5l-1.2,3.9l1.5,1.8l1.3,1.6l1,1.2c0,0,0.3-0.2,0.8-0.7c0.7-0.7,1.7-2,2.3-4.2
								c0.5-2,0.5-3.5,0.4-4.4c-0.1-0.6-0.2-1-0.2-1l-1.5,0.4l-2,0.6L196.3,587.5z"/>
						</g>
						<g>
							<path class="st19" d="M211.5,586.2l-4.7,14.8l36.4,11.5c2,0.6,4.2,0.4,5.9-0.5c1.8-0.9,3.2-2.5,3.8-4.6
								c1.3-4.1-1-8.5-5.1-9.7L211.5,586.2z"/>
						</g>
						<g class="st1">
							<path class="st22" d="M243.2,612.5c2,0.6,4.2,0.4,5.9-0.5c1.8-0.9,3.2-2.5,3.8-4.6c1.3-4.1-1-8.5-5.1-9.7l-2.3-0.7
								c3.4,1.7,5.2,5.6,4,9.3c-0.6,2-2.1,3.6-3.8,4.6s-3.9,1.2-5.9,0.5L243.2,612.5z"/>
						</g>
						<g>
							
								<rect x="204.2" y="591.6" transform="matrix(0.3 -0.9539 0.9539 0.3 -418.7715 618.3817)" class="st21" width="15.5" height="5.9"/>
						</g>
						<g>
							<g>
								<path class="st21" d="M246.6,600.3l-0.2,0.5l1.8,0.6C247.7,600.9,247.2,600.5,246.6,600.3z"/>
							</g>
							<g>
								<path class="st21" d="M246.1,601.7l-0.5,1.5l4,1.3c0-0.6-0.2-1.3-0.5-1.8L246.1,601.7z"/>
							</g>
							<g>
								<path class="st21" d="M245.3,604.2l-0.5,1.5l4.3,1.3c0.1-0.2,0.2-0.5,0.3-0.7c0.1-0.3,0.1-0.5,0.2-0.8L245.3,604.2z"/>
							</g>
							<g>
								<path class="st21" d="M244.5,606.7l-0.5,1.5l3.1,1c0.5-0.3,1-0.7,1.4-1.2L244.5,606.7z"/>
							</g>
							<g>
								<path class="st21" d="M245.5,609.7l-1.8-0.6l-0.2,0.5C244.2,609.8,244.9,609.8,245.5,609.7z"/>
							</g>
						</g>
						<g class="st0">
							<path class="st3" d="M218.1,591.9l25,7.9c0.5,0.2,1.1-0.1,1.3-0.7l0,0c0.2-0.5-0.1-1.1-0.7-1.3l-25-7.9
								c-0.5-0.2-1.1,0.1-1.3,0.7l0,0C217.3,591.2,217.6,591.8,218.1,591.9z"/>
						</g>
						<g>
							<path class="st19" d="M225.6,609.5c-0.1,0.5-0.3,1-0.7,1.6c-0.3,0.3-0.1,0.8,0.3,1c1.4,0.5,2.3,2,2,3.4l-1.1,6
								c-0.1,0.6-0.4,1.2-0.9,1.6l-0.4,0.4c-1.2-0.2-2.4,0-3.5,0.6c-1,0.6-1.8,1.6-2.2,2.8l17.9,5.6l1.5-4.7l-2.3-0.7c0,0,0,0,0-0.1
								c0.2-2.3,1.2-10.8,2.1-12.5c0.5-1,1.7-1.6,2.7-1.9c1-0.3,1.8-0.4,1.8-0.4l-18.4-5.7c0,0,0.1,0.1,0.3,0.2
								C224.9,607,225.8,608.1,225.6,609.5z"/>
						</g>
						<g>
							<path class="st21" d="M234.7,614.5l-2.3,7.3c-0.6,2,0.5,4.1,2.4,4.7l1.3,0.4c0.2-2.3,1.2-10.8,2.1-12.5
								c0.5-1,1.7-1.6,2.7-1.9l0,0l-1.5-0.5C237.4,611.4,235.3,612.5,234.7,614.5z"/>
						</g>
						<g class="st1">
							<path class="st22" d="M224.5,606.6c0.5,0.4,1.3,1.5,1.1,2.9l7.5-0.2L224.5,606.6z"/>
						</g>
					</g>
				</g>
			</g>
			<g>
				<g>
					<path class="st19" d="M265.5,600.7l0.3-2.7l-5-0.6l-0.2,1.9c-0.3,1.1-0.8,2.1-1.2,2.9c-1.2,2-1.8,4.2-2.1,6.5l-2.2,19.8
						c-0.3,2.6,1.4,5,4,5.4c2.6,0.4,5.1-1.5,5.3-4.1l2.3-20.1c0.3-2.4,0-4.7-0.7-7C265.8,602.1,265.6,601.4,265.5,600.7z"/>
				</g>
				<g>
					<polygon class="st23" points="267.9,567 267.8,567 267.8,567 267.8,567 267.8,567 265.9,566.8 265.9,566.8 264.7,570.4 
						265.1,574.2 262.6,596.4 264.4,596.6 266.9,574.4 268.2,570.8 					"/>
				</g>
				<g class="st0">
					<g>
						<polygon class="st14" points="267.9,567 268.2,570.8 266.9,574.4 264.4,596.6 263.9,596.5 266.5,574.3 267.7,570.6 
							267.4,566.9 						"/>
					</g>
				</g>
				<g>
					<path class="st19" d="M265.9,598.4l-5.1-0.6c-0.5-0.1-0.8-0.5-0.7-0.9l0,0c0.1-0.5,0.5-0.8,0.9-0.7l5.1,0.6
						c0.5,0.1,0.8,0.5,0.7,0.9l0,0C266.7,598.2,266.3,598.5,265.9,598.4z"/>
				</g>
				<g>
					<g>
						<path class="st22" d="M257.2,628.3L257.2,628.3c-0.4,0-0.7-0.4-0.6-0.8l2.2-19.5c0-0.4,0.4-0.7,0.8-0.6l0,0
							c0.4,0,0.7,0.4,0.6,0.8l-2.2,19.5C258,628,257.6,628.3,257.2,628.3z"/>
					</g>
					<g>
						<path class="st22" d="M259.8,628.6L259.8,628.6c-0.4,0-0.7-0.4-0.6-0.8l2.2-19.5c0-0.4,0.4-0.7,0.8-0.6l0,0
							c0.4,0,0.7,0.4,0.6,0.8l-2.2,19.5C260.6,628.3,260.2,628.6,259.8,628.6z"/>
					</g>
					<g>
						<path class="st22" d="M262.4,628.9L262.4,628.9c-0.4,0-0.7-0.4-0.6-0.8l2.2-19.5c0-0.4,0.4-0.7,0.8-0.6l0,0
							c0.4,0,0.7,0.4,0.6,0.8l-2.2,19.5C263.1,628.6,262.8,628.9,262.4,628.9z"/>
					</g>
				</g>
			</g>
			<g>
				<path class="st19" d="M279.8,597.7c0,0,0.9-0.5,2.4-0.2c1.2,0.3,2.4-0.2,3.1-1.2l0.1-0.1c0.5-0.7,1.3-0.9,2.1-0.5l0.1,0
					c0.7,0.4,1,1.3,0.7,2c-0.5,1.2-1,2.9-0.7,4.4c0.5,2.5,3.6,4.2,5.6,6.4c2,2.3,2.8,3.6,4.2,8.1l-6.6,0.8c0,0,0.7-1.8-2.8-4.6
					c-3.6-2.8-7.6-6.1-6.5-11.3L279.8,597.7z"/>
			</g>
			<g class="st0">
				<path class="st22" d="M296.2,616.6c-1.5-4.5-2.2-5.8-4.2-8.1c-2-2.3-5.1-3.9-5.6-6.4c-0.3-1.5,0.2-3.2,0.7-4.4
					c0.3-0.8,0-1.6-0.7-2l-0.1,0c-0.1,0-0.1-0.1-0.2-0.1c0.4-0.2,0.9-0.1,1.3,0.1l0.1,0c0.7,0.4,1.1,1.3,0.7,2
					c-0.5,1.2-1,2.9-0.7,4.4c0.5,2.5,3.6,4.2,5.6,6.4c2,2.3,2.8,3.6,4.2,8.1H296.2z"/>
			</g>
			<g>
				<path class="st24" d="M299.3,592C299.3,592,299.3,592,299.3,592C299.3,592,299.3,592,299.3,592l0.3-0.2
					C299.5,591.8,299.4,591.9,299.3,592"/>
			</g>
			<g>
				<path class="st19" d="M273.9,600.5c0,0-0.9,0.5-1.4,2c-0.4,1.2-1.4,2-2.6,2.1l-0.1,0c-0.8,0.1-1.4,0.7-1.5,1.5l0,0.1
					c0,0.8,0.6,1.5,1.4,1.7c1.2,0.2,3,0.6,4.1,1.6c1.9,1.7,1.8,5.2,2.7,8.1c0.9,2.9,1.7,4.2,4.8,7.7l4-5.3c0,0-1.9-0.3-2.6-4.8
					c-0.6-4.5-1.4-9.6-6.4-11.4L273.9,600.5z"/>
			</g>
			<g class="st0">
				<path class="st22" d="M282.3,624l-1,1.3c-3.1-3.6-3.9-4.8-4.8-7.7c-0.9-2.9-0.8-6.3-2.7-8.1c-1.1-1-2.9-1.4-4.1-1.6
					c-0.8-0.1-1.4-0.8-1.4-1.7l0-0.1c0-0.8,0.7-1.5,1.5-1.5l0.1,0c1.2-0.1,2.2-0.9,2.6-2.1c0.5-1.5,1.4-2,1.4-2l1,1.3
					c-0.1,0.2-0.2,0.4-0.3,0.7c-0.4,1.2-1.4,2-2.6,2.1l-0.1,0c-0.8,0.1-1.4,0.7-1.5,1.5l0,0.1c0,0.8,0.6,1.5,1.4,1.7
					c1.2,0.2,3,0.6,4.1,1.6c1.9,1.7,1.8,5.2,2.7,8.1C279.4,620.1,280,621.4,282.3,624z"/>
			</g>
			<g>
				<path class="st25" d="M303.3,614.5v39c0,6-4.9,10.9-10.9,10.9h-88c-5.7,0-10.4-4.4-10.8-10v0c0-0.1,0-0.2,0-0.2
					c0-0.2,0-0.4,0-0.6v-39H303.3z"/>
			</g>
			<g>
				<path class="st18" d="M303.3,614.5v33.4c0,6-4.9,10.9-10.9,10.9h-88c-3.1,0-5.9-1.3-7.9-3.4c-1.6-1.7-2.7-4-2.9-6.5
					c0-0.3,0-0.7,0-1v-33.4H303.3z"/>
			</g>
			<g>
				<path class="st14" d="M281.5,597.5l-3.7,2.3l-3.6,1.4c-1.7,0.7-3.7-0.3-4.2-2.1l-2.6-9.3c-0.2-0.6,0.1-1.2,0.7-1.5l1.7-0.6
					l1.2-0.4l1.4,2.5c-0.7,0.5-1.2,1.4-1,2.4c0.1,1.2,1.2,2.2,2.4,2.3c0.4,0,0.8,0,1.1-0.2l0.5,0.9c0.1,0.2,0.3,0.3,0.5,0.3
					c0.1,0,0.2,0,0.3-0.1c0.3-0.2,0.4-0.5,0.2-0.7l-0.6-1c0.6-0.6,0.9-1.5,0.6-2.5c-0.3-1.2-1.3-1.9-2.5-1.9c-0.1,0-0.3,0-0.4,0
					l-1.3-2.6l0.8-0.5l1.5-1c0.5-0.3,1.2-0.2,1.6,0.2l6.2,7.2C283.5,594.2,283.1,596.5,281.5,597.5z"/>
			</g>
			<g>
				<g>
					<path class="st17" d="M200.5,617.2v-2.7h18.3v2.7c0,1.5-1.2,2.7-2.7,2.7h-12.9C201.7,619.9,200.5,618.7,200.5,617.2z"/>
				</g>
				<g>
					<path class="st17" d="M278,617.2v-2.7h18.3v2.7c0,1.5-1.2,2.7-2.7,2.7h-12.9C279.2,619.9,278,618.7,278,617.2z"/>
				</g>
			</g>
			<g>
				<ellipse transform="matrix(0.1607 -0.987 0.987 0.1607 -359.2784 777.866)" class="st26" cx="277.7" cy="600.2" rx="4" ry="4"/>
			</g>
			<g>
				<polygon class="st26" points="270.9,587.2 272.3,589.7 269.8,587.6 				"/>
			</g>
			<g>
				<polygon class="st26" points="273.4,589.3 272.1,586.7 272.9,586.2 				"/>
			</g>
		</g>
		<g>
			<g>
				<g>
					<path class="st27" d="M390.4,483l-4.3-0.1c0.5-3.5,1.2-10.2,0.5-15.2c0,0-1.8,9.9-4,15.2l-12.7-0.2
						c-2.5-17.5,0.1-20.6,2.3-33.4c2.3-12.8,2-20.7,2-20.7l9.9,2.3c-0.8,5,5.7,13.8,7.6,20.8C397,470.8,390.4,483,390.4,483z"/>
				</g>
			</g>
			<g>
				<g>
					<circle class="st27" cx="369" cy="426.9" r="15.9"/>
				</g>
			</g>
			<g>
				<g>
					<g>
						<g>
							<g>
								<g>
									<path class="st28" d="M349.3,454.6c0,1,0.3,8.2,1.9,15.9c0.7,2.6,1.5,5.3,2.2,7.9c0.2,0.7,0.4,1.4,0.6,2.1c0,0,0,0,0,0
										c0.2,0.8,0.4,1.6,0.6,2.3c0.3,1,0.5,1.9,0.8,2.8c1.3,4.1,3.2,8.5,4.9,11.9h-0.3v3.8c0,0,0,0,0,0c-0.1,0.1-0.7,0.6-1.5,1.4
										v0.1c0,0.7-0.1,1.4-0.1,2.1c0,0.4,0,0.9-0.1,1.3v0c0,0.1,0,0.1,0,0.1c0,0.2,0,0.4,0,0.6c0,0.2,0,0.5,0,0.7v0
										c-0.1,1.1-0.2,2.1-0.2,2.8l4.9,0l8.9-0.1h1.4l2.8,0h0.2l11.2-0.1l0-1.1l-0.1-4.2l-0.1-2.3l0-1.3l0-0.2l-0.1-3.8l0-0.1
										l1.1-5.1c0,0,0,0,0,0l2.6-12.2l0.2-1.4c0.1-0.2,0.2-0.4,0.2-0.6c0-0.1,0.1-0.2,0.1-0.3c0-0.1,0.1-0.2,0.1-0.3
										c0.1-0.4,0.3-0.7,0.4-1.1c0.1-0.3,0.2-0.7,0.3-1c0.1-0.3,0.2-0.7,0.3-1c0.1-0.3,0.2-0.6,0.2-1c0.1-0.3,0.1-0.6,0.2-0.9
										c0-0.2,0-0.3,0.1-0.5c0-0.3,0.1-0.6,0.1-0.9c0-0.4,0.1-0.9,0.1-1.4c0-1.5-0.2-3.1-0.7-4.7c-0.1-0.3-0.2-0.7-0.3-1
										c-0.1-0.2-0.1-0.3-0.2-0.5c-0.2-0.5-0.4-1.1-0.6-1.6l-3.3-7.8l-1-2.3l-3.6-0.7l-5.8-1.1l0,0c0,0,0,0-0.1,0
										c-3.6,2.9-9.2,3.2-13.3,1c-0.4-0.2-0.8-0.4-1.1-0.6l-0.5-0.3c-0.9,0.7-2.6,0.8-4,1.2l-0.2,0.1h0l-2.3,0.8l-4,1.4
										L349.3,454.6z"/>
								</g>
							</g>
						</g>
					</g>
				</g>
			</g>
			<g>
				<g>
					<g>
						<g>
							<g>
								<g>
									<g>
										<g>
											<g>
												<path class="st29" d="M367.5,433.7c-0.3,1.2-2.7,1.5-5.2,0.8c-2.6-0.7-4.2-2.2-4-3.5c0.3-1.7,2.7-1.5,5.2-0.8
													C366.1,430.9,367.9,432.5,367.5,433.7z"/>
											</g>
										</g>
									</g>
								</g>
							</g>
						</g>
					</g>
				</g>
			</g>
			<g>
				<g>
					<g>
						<g>
							<g>
								<g>
									<g>
										<g>
											<g>
												<path class="st28" d="M358.1,451.6C358.1,451.6,358.1,451.6,358.1,451.6c0,0.5,0.5,8.1,8.6,10.6
													c8.4,2.6,11.9-3.3,13.7-5.6c1.8-2.3,1.9-4.4,1.9-4.4s-3.3-0.5-5.1-1.9c-0.5-0.4-0.9-0.9-1-1.6c-0.1-0.4,0-2,0-3.8
													c0.1-3.1,0.3-7,0.3-7l-13.8-5.6c0,0,0.1,1,0.1,2.6c0.2,4.7,1,14.3,0,15.5c-0.1,0.1-0.1,0.2-0.2,0.2
													c-0.9,0.7-3,0.6-4.4,1C358.2,451.5,358.2,451.5,358.1,451.6z"/>
											</g>
										</g>
									</g>
								</g>
							</g>
						</g>
					</g>
				</g>
			</g>
			<g>
				<g>
					<g>
						<g>
							<g>
								<g>
									<g>
										<g>
											<g>
												<path class="st29" d="M376.6,437.9c0,0-0.2,3.8-0.3,7c-0.9,0.3-1.9,0.6-2.9,0.5c-8-0.5-9.9-13.7-9.9-13.7L376.6,437.9z"
													/>
											</g>
										</g>
									</g>
								</g>
							</g>
						</g>
					</g>
				</g>
			</g>
			<g>
				<g>
					<g>
						<g>
							<g>
								<g>
									<g>
										<g>
											<g>
												<path class="st28" d="M362,426.5c0.1,1,0.2,2,0.3,3c0.7,8.2,5.6,14.5,11.3,14c4.3-0.4,7.4-4,8.4-9.3
													c0-0.1,0.1-0.3,0.1-0.5c0.2-1.2,0.3-2.5,0.2-3.8c0-0.2,0-0.4,0-0.6c0-0.3,0-0.5-0.1-0.8c-0.2-2-0.5-4.6-0.9-6.5
													c-0.2-0.8-1-1.3-1.8-1c-0.6,0.2-1.3,0.5-2.1,0.7c-3,1-8.4,0.6-12.1,0.8C363.3,422.7,361.8,424.4,362,426.5z"/>
											</g>
										</g>
									</g>
								</g>
							</g>
						</g>
					</g>
				</g>
			</g>
			<g>
				<g>
					<g>
						<path class="st30" d="M371.8,437.3c0,0,3.1-1.2,3.7-0.9c0.6,0.2,0.6,0.2,0.6,0.2s0.3-0.4,0.6-0.5c0.3-0.1,2.2,0,2.2,0
							s0.3,1.4-0.4,2.7c0,0.1-0.1,0.1-0.1,0.1c-1,1.3-2.9,1.8-4.4,1c-0.3-0.1-0.7-0.5-0.9-0.7C372.1,438.4,371.8,437.3,371.8,437.3z
							"/>
					</g>
				</g>
			</g>
			<g>
				<g>
					<g>
						<g>
							<g>
								<g>
									<g>
										<g>
											<g>
												<path class="st3" d="M378.9,436.1c0,0-2.8,1.9-7.1,1.2c0,0,1.4,2.6,4.4,2.1C378.7,438.9,378.9,436.1,378.9,436.1z"/>
											</g>
										</g>
									</g>
								</g>
							</g>
						</g>
					</g>
				</g>
			</g>
			<g>
				<g>
					<g>
						<g>
							<g>
								<g>
									<g>
										<g>
											<g>
												<path class="st29" d="M375.7,433.6l0.5-0.1c0.4-0.1,0.6-0.4,0.5-0.6l-0.7-1.7c-0.1-0.2-0.4-0.3-0.7-0.2l0,0
													c-0.3,0.1-0.5,0.3-0.5,0.5l0.2,1.9C375,433.6,375.3,433.7,375.7,433.6z"/>
											</g>
										</g>
									</g>
								</g>
							</g>
						</g>
					</g>
				</g>
			</g>
			<g>
				<g>
					<g>
						<g>
							<g>
								<g>
									<g>
										<g>
											<g>
												<path class="st31" d="M368.8,429.5c0.1,0.5,0.5,0.9,0.9,0.9c0.4-0.1,0.6-0.6,0.6-1.1s-0.5-0.9-0.9-0.9
													C368.9,428.5,368.7,429,368.8,429.5z"/>
											</g>
										</g>
									</g>
								</g>
							</g>
						</g>
					</g>
				</g>
			</g>
			<g>
				<g>
					<path class="st27" d="M371.4,426.5c0,0,0-0.1-0.2-0.2c-0.1-0.1-0.3-0.3-0.5-0.5c-0.1-0.1-0.3-0.2-0.4-0.2
						c-0.2-0.1-0.3-0.1-0.5-0.2c-0.2,0-0.4-0.1-0.6-0.1c-0.2,0-0.4,0-0.6,0c-0.2,0-0.4,0.1-0.6,0.2c-0.2,0.1-0.4,0.2-0.5,0.3
						c-0.2,0.1-0.3,0.2-0.4,0.3c-0.1,0.1-0.2,0.2-0.3,0.4c-0.1,0.1-0.2,0.2-0.2,0.3c-0.1,0.1-0.1,0.2-0.1,0.3
						c-0.1,0.2-0.1,0.3-0.1,0.3s0.1,0,0.2-0.1c0.1,0,0.2-0.1,0.3-0.1c0.1-0.1,0.2-0.1,0.3-0.2c0.1-0.1,0.2-0.1,0.4-0.2
						c0.1-0.1,0.3-0.1,0.4-0.2c0.1,0,0.3-0.1,0.4-0.1c0.2,0,0.3-0.1,0.5-0.1c0.2,0,0.3-0.1,0.5-0.1c0.2,0,0.3,0,0.5,0
						c0.2,0,0.3,0,0.4,0c0.1,0,0.3,0,0.4,0c0.3,0,0.5,0.1,0.7,0.1C371.3,426.5,371.4,426.5,371.4,426.5z"/>
				</g>
			</g>
			<g>
				<g>
					<g>
						<g>
							<g>
								<g>
									<g>
										<g>
											<g>
												<path class="st31" d="M378.4,427.8c0.1,0.5,0.5,0.9,0.9,0.9c0.4-0.1,0.6-0.6,0.6-1.1c-0.1-0.5-0.5-0.9-0.9-0.9
													C378.5,426.7,378.3,427.2,378.4,427.8z"/>
											</g>
										</g>
									</g>
								</g>
							</g>
						</g>
					</g>
				</g>
			</g>
			<g>
				<g>
					<path class="st27" d="M381,424.8c0,0,0-0.1-0.2-0.2c-0.1-0.1-0.3-0.3-0.5-0.5c-0.1-0.1-0.3-0.2-0.4-0.2
						c-0.2-0.1-0.3-0.1-0.5-0.2c-0.2,0-0.4-0.1-0.6-0.1c-0.2,0-0.4,0-0.6,0c-0.2,0-0.4,0.1-0.6,0.2c-0.2,0.1-0.4,0.2-0.5,0.3
						c-0.2,0.1-0.3,0.2-0.4,0.3c-0.1,0.1-0.2,0.2-0.3,0.4c-0.1,0.1-0.2,0.2-0.2,0.3c-0.1,0.1-0.1,0.2-0.1,0.3
						c-0.1,0.2-0.1,0.3-0.1,0.3s0.1,0,0.2-0.1c0.1,0,0.2-0.1,0.3-0.1c0.1-0.1,0.2-0.1,0.3-0.2c0.1-0.1,0.2-0.1,0.4-0.2
						c0.1-0.1,0.3-0.1,0.4-0.2c0.1,0,0.3-0.1,0.4-0.1c0.2,0,0.3-0.1,0.5-0.1c0.2,0,0.3-0.1,0.5-0.1c0.2,0,0.3,0,0.5,0
						c0.2,0,0.3,0,0.4,0c0.1,0,0.3,0,0.4,0c0.3,0,0.5,0.1,0.7,0.1C380.9,424.8,381,424.8,381,424.8z"/>
				</g>
			</g>
			<g class="st0">
				<g>
					<g>
						<g>
							<g>
								<g>
									<g>
										<g>
											<g>
												<path class="st29" d="M367,434.5c0.3,1.2,1.5,2,2.6,1.7c1.2-0.3,1.9-1.5,1.6-2.7c-0.3-1.2-1.5-2-2.6-1.7
													C367.5,432.1,366.7,433.3,367,434.5z"/>
											</g>
										</g>
									</g>
								</g>
							</g>
						</g>
					</g>
				</g>
			</g>
			<g class="st0">
				<g>
					<g>
						<g>
							<g>
								<g>
									<g>
										<g>
											<g>
												<path class="st29" d="M379.7,432.1c0.3,1.1,1.3,1.8,2.3,1.7c0.2-1.2,0.3-2.5,0.2-3.8c0-0.2,0-0.4,0-0.6
													c-0.3-0.1-0.6-0.1-0.9,0C380.2,429.6,379.5,430.8,379.7,432.1z"/>
											</g>
										</g>
									</g>
								</g>
							</g>
						</g>
					</g>
				</g>
			</g>
			<g>
				<g>
					<path class="st32" d="M407.1,497.1c-7,2.6-14.4-9.9-18.5-17.8c-0.1-0.2-0.3-0.5-0.4-0.7c-4.1-7.8-1.5-26.6-1.5-26.6
						s2.4,0.1,5,3.6c3.3,4.2,7.3,12.4,11.2,19.5c7.8,14.3,5.3,10.8,6,16.4C409.3,494.5,408.8,496.5,407.1,497.1z"/>
				</g>
			</g>
			<g>
				<g>
					<path class="st28" d="M403.8,496.4c0,0,0.6,0.8,1.9,1.1c0,0,0,0,0,0c0.1,0,0.2,0,0.2,0c0,0,0,0,0,0c0.1,0,0.2,0,0.3,0
						c0.4,0,0.8-0.1,1.3-0.2c0.1,0,0.2,0,0.3-0.1c0.2-0.1,0.4-0.1,0.7-0.2c0.1,0,0.2-0.1,0.3-0.1c0,0,0.1,0,0.1-0.1
						c0.8-0.3,1.6-0.8,2.4-1.4c0.1-0.1,0.2-0.2,0.3-0.2c0.1-0.1,0.2-0.1,0.2-0.2c0,0,0,0,0,0c0.1-0.1,0.2-0.2,0.3-0.3
						c0,0,0.1-0.1,0.1-0.2c0.4-0.4,0.8-1,1.2-1.6c0.1-0.1,0.2-0.3,0.3-0.4c0.2-0.2,0.3-0.5,0.5-0.7c0,0,0.1-0.1,0.1-0.1
						c0.1-0.2,0.2-0.3,0.3-0.5c0.2-0.3,0.4-0.7,0.6-1.1c0.2-0.4,0.4-0.7,0.7-1.1c0.1-0.2,0.2-0.4,0.3-0.6c0.2-0.4,0.4-0.8,0.7-1.2
						c0.1-0.1,0.1-0.3,0.2-0.4c0.1-0.1,0.1-0.3,0.2-0.4c0.4-0.7,0.7-1.4,1-2.1c1.3-2.7,4-9.7,6.1-15.2c0,0,0,0,0,0
						c0.2-0.6,0.4-1.2,0.6-1.8c0.2-0.5,0.4-1,0.5-1.5c0.3-0.7,0.5-1.3,0.7-1.9c0.1-0.3,0.2-0.5,0.3-0.7c0,0,0-0.1,0.1-0.1
						c0.1-0.3,0.2-0.5,0.2-0.7c0.1-0.2,0.1-0.4,0.1-0.4l-1.8-0.8l-2.2-1h0l-2.6-1.1c0,0,0,0-0.1,0.1c0,0,0,0.1-0.1,0.1
						c0,0.1-0.1,0.1-0.2,0.2c-0.1,0.2-0.3,0.4-0.5,0.6c0,0.1-0.1,0.1-0.1,0.2c-0.3,0.4-0.7,0.9-1.2,1.4c-0.4,0.4-0.8,0.9-1.2,1.5
						c0,0-0.1,0.1-0.1,0.1c-0.3,0.4-0.7,0.9-1.1,1.3l0,0c-1.4,1.7-3,3.7-4.6,5.7c-2.3,2.9-4.6,5.8-6.3,8.2c0,0-0.1,0.1-0.1,0.1
						c0,0,0,0,0,0c-1.1,1.6-2,2.9-2.5,3.7c-0.9,1.7-1.3,3.6-1.6,5.3C400.4,490.9,401.5,494.1,403.8,496.4z"/>
				</g>
			</g>
			<g>
				<g>
					<path class="st32" d="M349.3,454.6c0,0-2,0.2-3.8,4.1c-1.5,3.1-2.5,9.1-4,15.6c-3.3,14.4-5.7,26.5,1.2,27.8
						c3.9,0.8,8-7.3,10.7-15c0.8-2.4,1.7-4.5,2.1-6.6C357.1,472,349.3,454.6,349.3,454.6z"/>
				</g>
			</g>
			<g>
				<g>
					<polygon class="st33" points="387.4,510.4 387.5,509.5 388.1,510.4 					"/>
				</g>
			</g>
			<g>
				<g>
					<path class="st32" d="M392.9,470c0,0.4,0,0.9-0.1,1.4c0,0.3-0.1,0.6-0.1,0.9c0,0.2,0,0.3-0.1,0.5c-0.1,0.3-0.1,0.6-0.2,0.9
						c-0.1,0.3-0.1,0.6-0.2,1c-0.1,0.3-0.2,0.7-0.3,1c-0.1,0.3-0.2,0.7-0.3,1c-0.1,0.3-0.2,0.7-0.4,1.1c0,0.1-0.1,0.2-0.1,0.3
						c0,0.1-0.1,0.2-0.1,0.3c-0.1,0.2-0.2,0.4-0.2,0.6l-0.2,1.4l-2,18.3l-0.3,2.8l0,0.3l-0.4,3.4l-0.5,4.4l-0.1-0.2l0,0l-11.4-2.3
						l-1-0.2l-3.1-0.6l-2.3-0.5l-6-1.2c0-0.1-0.1-0.3-0.3-0.7c0-0.1-0.1-0.2-0.1-0.3c-0.2-0.5-0.5-1.1-0.9-1.8
						c-0.1-0.1-0.1-0.2-0.2-0.3c-0.5-1.1-1.2-2.3-1.8-3.8c-1.7-3.5-3.6-7.8-4.9-11.9c-0.3-0.9-0.6-1.9-0.8-2.8
						c-0.2-0.9-0.4-1.6-0.6-2.3c0,0,0,0,0,0c-0.1-0.3-0.2-0.5-0.2-0.7c-1.1-2.9-1.9-6.1-2.5-9.2c-1.5-7.7-1.8-14.9-1.9-15.9l2.5-0.9
						l11.1-3.7l0.4,0.7c3.1,5.7,11.4,5.3,14-0.6l0,0l9.5,1.9l1,2.3l3.3,7.8c0.2,0.6,0.5,1.1,0.6,1.6c0.1,0.2,0.1,0.3,0.2,0.5
						c0.1,0.3,0.2,0.7,0.3,1C392.6,466.9,392.9,468.5,392.9,470z"/>
				</g>
			</g>
			<g>
				<g>
					<path class="st27" d="M361.6,429.6c0,0,1.9,0.8,3.1-0.2c1.2-1,1.8-5.2,4.3-6c2.5-0.8,3.1-0.8,7.9-0.4s5.2-0.5,5.2-0.5l-0.4-0.8
						c-0.3-0.6-1.1-1-1.8-0.8c-0.5,0.1-1.1,0.3-2,0.4c-2.9,0.5-8.6,0-8.6,0l-4.4,0.1c-0.5,0-1,0.1-1.4,0.4l0,0
						c-1,0.5-1.6,1.5-1.6,2.6L361.6,429.6z"/>
				</g>
			</g>
			<g>
				<g>
					<path class="st29" d="M404.8,478.6l12.2,8.6c0.1-0.3,0.3-0.5,0.4-0.8c0.4-0.7,0.7-1.4,1-2.1l-12.8-6.8L404.8,478.6z"/>
				</g>
			</g>
			<g>
				<g>
					<path class="st32" d="M417.5,486.3c-0.1,0.3-0.3,0.5-0.4,0.8c-0.9,1.7-1.8,3.2-2.6,4.5c-1,1.6-2,2.8-2.8,3.5
						c-0.1,0.1-0.2,0.2-0.3,0.2c-2,1.5-3.9,2-5.4,2.1c-0.3,0-0.6,0-0.9,0c-2.2-0.2-3.5-1.2-3.5-1.2c-2.3-2.2-2.2-5.8-1.7-9
						c0.2-1.5,0.6-3.1,1.3-4.6c0.1-0.2,0.2-0.4,0.3-0.7c0.5-0.9,1.4-2.3,2.6-3.9l0.9,0.5l0.1,0l4.3,2.6L417.5,486.3z"/>
				</g>
			</g>
			<g>
				<g>
					<path class="st34" d="M381.1,478.6l2.3,0.9c2.3,0.9,4.8,1.1,7.2,0.8l0.2-1.4c0.1-0.2,0.2-0.4,0.2-0.6c0-0.1,0.1-0.2,0.1-0.3
						c0-0.1,0.1-0.2,0.1-0.3l-0.1,0c-2.3,1-4.7,1.3-7.2,1.1L381.1,478.6z"/>
				</g>
			</g>
			<g>
				<g>
					<path class="st34" d="M374.6,479c0,0-0.1,0-0.2,0c-0.1,0-0.3,0-0.5,0c-0.2,0-0.5,0-0.8,0c-0.3,0-0.6,0-1,0c-0.4,0-0.7,0-1.2,0
						c-0.2,0-0.4,0-0.6,0c-0.2,0-0.4,0-0.6,0c-0.4,0-0.9,0-1.3,0c-0.2,0-0.5,0-0.7,0c-0.2,0-0.5,0-0.7,0c-0.2,0-0.5,0-0.7,0
						c-0.2,0-0.5,0-0.7,0c-0.2,0-0.5,0-0.7-0.1c-0.2,0-0.4-0.1-0.7-0.1c-0.2,0-0.4-0.1-0.6-0.1c-0.2,0-0.4,0-0.6-0.1
						c-0.4-0.1-0.8-0.1-1.1-0.1c-0.4,0-0.7-0.1-1-0.1c-0.3,0-0.6-0.1-0.8-0.1c-0.4-0.1-0.7-0.1-0.7-0.1s0.2,0.2,0.5,0.5
						c0.2,0.2,0.4,0.3,0.6,0.5c0.1,0.1,0.3,0.2,0.4,0.3c0.2,0.1,0.3,0.2,0.5,0.3c0.3,0.2,0.7,0.4,1.1,0.5c0.4,0.2,0.8,0.3,1.3,0.5
						c0.5,0.1,1,0.2,1.5,0.3c0.2,0,0.5,0.1,0.8,0.1c0.3,0,0.5,0.1,0.8,0.1c0.3,0,0.5,0,0.8,0c0.3,0,0.5,0,0.8,0c0.3,0,0.5,0,0.8-0.1
						c0.2,0,0.5-0.1,0.7-0.1c0.2,0,0.5-0.1,0.7-0.1c0.2-0.1,0.4-0.1,0.7-0.2c0.4-0.1,0.8-0.3,1.2-0.4c0.4-0.2,0.7-0.3,1-0.5
						c0.3-0.2,0.5-0.3,0.7-0.4c0.2-0.1,0.3-0.2,0.4-0.3C374.6,479.1,374.6,479,374.6,479z"/>
				</g>
			</g>
			<g>
				<g>
					
						<rect x="351.9" y="457.6" transform="matrix(0.9759 -0.2181 0.2181 0.9759 -93.6479 88.1328)" class="st22" width="0.9" height="21.4"/>
				</g>
			</g>
			<g>
				<g>
					<path class="st34" d="M390.3,479.2l-0.1-0.9l0,0.5l0-0.5c0,0,0.8-0.1,1.6-1c0.7-0.9,1.5-2.8,1.1-6.8c-0.8-7.8-4.3-14.9-4.4-15
						l0.8-0.4c0,0.1,3.6,7.3,4.5,15.3c0.4,3.5-0.1,6-1.4,7.5C391.5,479.1,390.4,479.2,390.3,479.2z"/>
				</g>
			</g>
			<g>
				<g>
					
						<rect x="357.4" y="506.1" transform="matrix(-1 -1.224647e-16 1.224647e-16 -1 745.6594 1017.649)" class="st35" width="30.8" height="5.4"/>
				</g>
			</g>
			<g>
				<g>
					<path class="st36" d="M357.9,511.1c-0.3,0-0.5-0.2-0.5-0.5c0-0.3,0.2-0.5,0.5-0.5l29.4-0.2h0c0.3,0,0.5,0.2,0.5,0.5
						c0,0.3-0.2,0.5-0.5,0.5L357.9,511.1L357.9,511.1z"/>
				</g>
			</g>
			<g>
				<g>
					<g>
						<g>
							<path class="st28" d="M395.6,661.9c-1.3-1.8-5.6-4.3-9-6.9c-0.1-0.1-0.3-0.2-0.4-0.3l0,0c-1.1-0.9-2.1-1.8-2.9-2.7
								c-2.7-3.3-0.3-5.1,0.8-8.7c0.1-0.4,0.2-0.8,0.3-1.3c0.1-0.6,0-1.6-0.2-2.8c-0.1-0.8-0.3-1.6-0.6-2.5
								c-1.4-5.3-7.9-38.7-7.7-41.3v0c0.2-2.3,0.5-4.4,0.8-6.4c0.5-2.8,1.1-5.2,1.6-7.2c0.8-2.8,1.7-7,1.7-7l14.8-2.8
								c0,0,0.9,4.6,0.9,4.6c0,0.1-2.1,22.8-2.6,27.7c-1.6,14.1-1.7,25.6-1.5,32.2c0,1.3,0.1,2.4,0.1,3.2c0.2,3.9,4.1,9.4,7.9,14.1
								c3.2,4,6.4,7.4,7.4,8.9l0,0c0.2,0.2,0.3,0.4,0.3,0.5C408.1,665.1,397.5,664.4,395.6,661.9z"/>
						</g>
					</g>
				</g>
			</g>
			<g>
				<g>
					<g>
						<polygon class="st6" points="386.7,654.9 385.1,664.4 384.3,664.4 385.2,654.3 						"/>
					</g>
				</g>
			</g>
			<g>
				<g>
					<g>
						<polygon class="st37" points="381.5,651.1 382.7,664.4 384.3,664.4 385.5,654.5 						"/>
					</g>
				</g>
			</g>
			<g>
				<g>
					<g>
						<path class="st6" d="M408.7,663.2c-0.1,0.7-0.6,1.2-1.3,1.2c-4,0-11,0-11.2,0c-0.3,0-2.6-2.9-4.9-5.5c-2.3-2.6-9.4-5-10.7-8.1
							c-0.9-2.4,1.1-8.1,2.2-10.8c0.3-0.9,0.6-1.4,0.6-1.4s2.8,1.6,4.8,3.8c2,2.2,3,8,4.4,9.8c1.4,1.7,6.6,1.5,8.1,1.5
							c1,0,5.3,5.3,7.7,8.4C408.7,662.5,408.8,662.8,408.7,663.2z"/>
					</g>
				</g>
			</g>
			<g>
				<g>
					<g>
						<path class="st37" d="M408.7,663.2c-4.1-1.1-9.2-3.1-14.2-6.8c-6.8-5-10.1-11.9-11.7-16.3c0.3-0.9,0.6-1.4,0.6-1.4
							s2.8,1.6,4.8,3.8c2,2.2,3,8,4.4,9.8c1.4,1.7,6.6,1.5,8.1,1.5c1,0,5.3,5.3,7.7,8.4C408.7,662.5,408.8,662.8,408.7,663.2z"/>
					</g>
				</g>
			</g>
			<g>
				<g>
					<g>
						<g>
							<g>
								<g>
									<g>
										<g>
											<g>
												<path class="st28" d="M382.3,515.6c0,0-3.2,12.3-8.3,24.6c-1.1,2.8-2.4,5.6-3.7,8.2c0,0,0,0.1-0.1,0.1
													c-1.7,3.4-3.5,6.6-5.4,9.2c-1.3,1.9-2.5,3.6-3.5,5.1c-2,3.1-3.4,5.6-4.3,7.7c-0.1,0.3-0.3,0.6-0.4,0.9
													c-1.5,3.8-1.4,6.1-1.6,8.7c-0.3,4.8,1.7,18.1-5.3,30c-5.9,10-9.1,18-11,24.1c-0.2,0.8-0.4,1.5-0.6,2.2
													c-0.1,0.3-0.2,0.7-0.3,1c-1.6,6.3-2.5,21-3.8,20.8c-1.3-0.2-12.9-6.1-10.9-9.7c1.9-3.5,6.3-9.1,7.4-14.5
													c0-0.2,0.1-0.4,0.1-0.6c0.1-0.3,0.1-0.7,0.1-1.2c0.4-5.4,0.2-20.3,1.1-32.2c0.4-5.6,1-10.5,2-13.5
													c0.3-0.9,0.6-1.8,0.9-2.6c2.1-5.8,4.4-10.3,6.2-15c0.1-0.2,0.1-0.4,0.2-0.6c1.8-4.7,3.1-9.7,3.4-16.5
													c0.5-10.8,2.9-26.8,7.9-37.4c0,0,0,0,0,0c0.7-1.5,1.5-2.9,2.3-4.2c2.2-2.9,4-4.5,4.6-5.1c0,0,0,0,0,0
													c0.1-0.1,0.2-0.1,0.2-0.2c0,0,0,0,0,0c0.6-0.4,1.2-0.8,1.9-1h0c1.1-0.4,2.3-0.4,3.6-0.1c0.7,0.2,1.4,0.5,2.2,0.9
													c1.6,0.8,3.5,2,5.8,3.7c0.9,0.7,1.8,1.4,2.6,2C379.6,513.2,382.3,515.6,382.3,515.6z"/>
											</g>
										</g>
									</g>
								</g>
							</g>
						</g>
					</g>
				</g>
			</g>
			<g>
				<g>
					<g>
						<path class="st6" d="M336.9,653.9c-0.3,3.9-0.1,9.5-3.9,10.4c-1.1,0.2-2.5-0.1-4-0.9c-3.9-2-8.2-6.6-7.7-10.4
							c0.7-5.2,6.4-11.5,6.5-11.6c-0.1,0.2-5.7,8.6,2.4,10.8c0,0,0.1,0,0.1,0c5.8,1.5,6.5-7,6.5-7S337.1,650,336.9,653.9z"/>
					</g>
				</g>
			</g>
			<g>
				<g>
					<g>
						<path class="st37" d="M336.9,653.9c-0.3,3.9-0.1,9.5-3.9,10.4c-1.1,0.2-2.5-0.1-4-0.9c-0.1-3.8,0.5-7.7,1.3-11.2
							c5.8,1.5,6.5-7,6.5-7S337.1,650,336.9,653.9z"/>
					</g>
				</g>
			</g>
			<g>
				<g>
					<g>
						<path class="st29" d="M382.3,515.6c0,0-3.2,12.3-8.3,24.6c-1.1,2.8-2.4,5.6-3.7,8.2c0,0,0,0.1-0.1,0.1
							c-1.7,3.4-3.5,6.6-5.4,9.2c-1.3,1.9-2.5,3.6-3.5,5.1c-2,3.1-3.4,5.6-4.3,7.7c-0.1,0.3-0.3,0.6-0.4,0.9
							c-1.5,3.8-1.4,6.1-1.6,8.7c-0.3,4.8,1.7,18.1-5.3,30c-5.9,10-11.4,25.6-11.6,26.3c0,0.1-7.1-2.1-7.5-2.3
							c0-0.2,0.1-0.4,0.1-0.6c0.1-0.3,0.1-0.7,0.1-1.2c0.4-5.4,0.2-20.3,1.1-32.2c0.9-5.1,1.9-10.6,2.9-16.2
							c4.6-24.9,9.9-51.7,12.7-59.2c1.6-4.1,3.3-7.6,5-10.4c0,0,0,0,0,0c1.2-2,2.3-3.6,3.3-5c1.5-2,2.7-3.4,3.6-4.3c0,0,0,0,0,0
							c0.7-0.7,1.1-1,1.2-1.1c0,0,0,0,0,0l0.9,0h0l3.6-0.1c0.7,0.2,1.4,0.5,2.2,0.9c1.6,0.8,3.5,2,5.8,3.7c0.9,0.7,1.8,1.4,2.6,2
							C379.6,513.2,382.3,515.6,382.3,515.6z"/>
					</g>
				</g>
				<g>
					<g>
						<path class="st29" d="M393.2,604.3c-1.6,14.1-1.7,25.6-1.5,32.2c-2.8,0-6.7,0.1-8,0.2c-1.4-5.3-4.2-12.8-6.1-20.7v0l-1.6-20.6
							v0c0.2-2.3,0.5-4.4,0.8-6.4c0.5-2.8,1.1-5.2,1.6-7.2c0.8-2.8,1.7-7,1.7-7l14.8-2.8c0,0,0.9,4.6,0.9,4.6
							C395.8,576.7,393.7,599.4,393.2,604.3z"/>
					</g>
				</g>
			</g>
			<g>
				<g>
					<path class="st6" d="M371.7,501.6v48.9l2.1,27.1l4.3,55.9c5.2-0.2,22.6-1.7,22.6-1.7s0-12.7-0.2-29.5
						c-0.1-7.7-0.2-16.2-0.3-24.8c-0.2-10.1-0.4-20.1-0.7-28.8c-0.3-9-0.7-16.5-1.1-21c-0.3-3.4-0.9-6.4-1.5-9.1c0,0,0,0,0,0
						c-1.6-6.9-3.8-11.3-5.7-14c-1.7-2.5-2.9-3.4-2.9-3.4l-12.6,0.2L371.7,501.6z"/>
				</g>
			</g>
			<g>
				<g>
					<path class="st6" d="M325.6,629.2c2.2,0.9,20.1,5.1,20.1,5.1l16.6-56.7l9.3-31.8l0.1-0.4l0,0l2.2-7.7l3.8-2.2l4.3-34.8
						l-14.6,0.4l-5.5,0.2l-2.1,0.1c0,0,0,0,0,0c-0.1,0.1-0.7,0.5-1.5,1.4c-0.9,0.9-2,2.2-3.3,4c-1.9,2.5-4.1,6-6.2,10.6c0,0,0,0,0,0
						c-0.7,1.5-1.4,3.1-2,4.8c-2.7,7.1-7.6,31.6-12.1,55.5c-2.5,13.7-4.9,27.2-6.6,36.9C326.5,623.5,325.6,629.2,325.6,629.2z"/>
				</g>
			</g>
			<g>
				<g>
					<rect x="359.9" y="497.5" class="st6" width="28.8" height="4.1"/>
				</g>
			</g>
			<g>
				<g>
					<path class="st28" d="M441.6,450.9c0,0,1.4-1,0.6-1.9c-0.8-0.8-2.6-0.2-2.6-0.2s-0.4-1-1.9-0.8c-1.6,0.1-8.1,3.8-9.4,3.3
						c-1.3-0.5,0.9-2.1,1.7-3.1c0.7-1,0.8-1.9,0.7-2.4c0-0.2-0.2-0.2-0.3-0.1c-0.9,0.7-4,3.1-5.9,5.6c-1.9,2.4-4.3,7.6-5.1,9.4
						c-0.2,0.4-0.3,0.6-0.3,0.6l6.3,3.7c0,0,0.3-0.3,0.7-0.8l0,0c1-1,2.8-2.6,4.3-3.2c2.2-0.8,9.7-4.3,10.1-5
						c0.4-0.7,0.3-1.7,0.3-1.7s1-0.6,1.3-1.3C442.4,452.1,441.6,450.9,441.6,450.9z"/>
				</g>
			</g>
			<g>
				<g>
					<g>
						<g>
							<path class="st28" d="M338.2,494.3c0,1.7,0.3,5.5,0.8,9.6l0.1,0.5c0,0.1,0,0.2,0,0.4c0,0.1,0,0.1,0,0.2
								c0,0.2,0.1,0.5,0.1,0.7c0,0.1,0,0.3,0.1,0.4c0.2,1.6,0.4,3.3,0.7,4.8c0.5,2.7,2.6,12,3.2,14.9c0.1,0.5,0.2,0.9,0.2,0.9
								l6.5,0.4v0l0.7,0l0.2,0c0,0,0-0.2,0-0.6c0.1-2.6,0.3-12.5,0.5-20.6c0-0.3,0-0.6,0-0.9c0-0.2,0-0.3,0-0.5c0-0.2,0-0.3,0-0.5
								c0-1.5,0.1-2.9,0.1-4.2v0l0-5l-12.8-1.6C338.4,493.5,338.3,493.9,338.2,494.3C338.2,494.2,338.2,494.2,338.2,494.3z"/>
						</g>
					</g>
				</g>
				<g>
					<g>
						<path class="st29" d="M344.2,502.3l-5.2,1.6c0.1,0.7,0.2,1.5,0.3,2.2l12.1-0.1c0-0.6,0-1.3,0-1.9L344.2,502.3z"/>
					</g>
				</g>
				<g>
					<g>
						<path class="st32" d="M338.2,494.7c0,3.3,0.7,9.8,0.7,9.8l0.2,0h0l12.3,0.6l0.2,0l0-5.1v0l0-5l0-4.7l-8.2,1.1l-3.5,1.2
							c-0.4,0.2-0.8,0.4-1.1,0.8c-0.2,0.3-0.4,0.6-0.4,1c0,0,0,0,0,0C338.2,494.4,338.2,494.5,338.2,494.7z"/>
					</g>
				</g>
			</g>
			<g>
				<g>
					<path class="st32" d="M352.4,489.7c0,0-0.8,2.7-1.1,5.1l-0.4-1.7l-0.1-3.4H352.4z"/>
				</g>
			</g>
			<g>
				<g>
					<g>
						<path class="st28" d="M349,519.1C349,519.1,349,519.1,349,519.1L349,519.1l-5.4,3.9l-0.4,2l0.8,10.3c0,0,0,0.1,0,0.1
							c0,0,0,0.1,0,0.1l0.1,0.8c0,0,0,0,0,0c0.3,1.5,0.8,3.8,1.2,4.5c0.5,0.9,1.2,0.5,1.2,0.5s1.9,1.7,2.9,2c1,0.3,1.7,0.6,1.7,0.6
							s1,0.2,1.8-0.2s0.4-1.5,0.4-1.5s0,0,0.7-0.6c0.6-0.5-3.7-9.3-1.1-9.7c0.5-0.1,1.5,2.2,1.9,2.8c1,1.7,2.5,1.5,2.5,1.5
							s-2.3-8.4-3.1-9.8c-0.7-1.2-2.3-3.5-3.5-5.3C349.7,520.2,349.2,519.4,349,519.1C349,519.2,349,519.1,349,519.1z"/>
					</g>
				</g>
			</g>
			<g>
				<path class="st27" d="M350.2,481.7h8.5c-0.5-4,1-10,1-10c0.9,4.1,2.8,8.2,3.7,10h4c0,0-4-7.7-4.3-14.3s3.2-11.8,3.8-18.8
					c0.6-7-3.9-13.8-3.9-13.8l-2.6,1.4l-7-7.6c0,0-0.6,8.2-0.4,12.3c0.2,4.1-2.4,9.7-5.6,18C344.3,467.2,350.2,481.7,350.2,481.7z"
					/>
			</g>
			<g>
				<g>
					<path class="st27" d="M345.1,481.9l1.2-0.7c-0.1-0.1-6.7-12.5-2.5-24.2c0.7-1.9,2.1-4.1,3.5-6.2c1.3-2.1,2.7-4.2,3.5-6.2
						c3.2-8,4-16.7,4-20.6h-1.4c0,3.8-0.8,12.2-3.9,20c-0.7,1.8-2.1,3.9-3.4,5.9c-1.4,2.2-2.9,4.5-3.6,6.5
						C338.1,468.9,344.8,481.4,345.1,481.9z"/>
				</g>
			</g>
			<g>
				<polygon class="st37" points="373,542.6 371.8,542.2 373.5,537.3 377.4,534.6 382.4,503 383.7,503.2 378.5,535.3 374.5,538.1 
									"/>
			</g>
			<g>
				
					<rect x="363.7" y="517.2" transform="matrix(0.1545 -0.988 0.988 0.1545 -193.4359 809.5917)" class="st37" width="25.2" height="1.2"/>
			</g>
			<g>
				
					<rect x="373.3" y="490.3" transform="matrix(5.414049e-03 -1 1 5.414049e-03 -130.4207 873.4381)" class="st37" width="1.2" height="24"/>
			</g>
			<g>
				<path class="st37" d="M395,518.9c-8.4-1.8-9.9-12.9-10-13.4l1.2-0.2c0,0.1,1.5,10.8,9,12.3L395,518.9z"/>
			</g>
			<g>
				<path class="st37" d="M353,515.8C353,515.8,353,515.8,353,515.8l0-1.2c0.4,0,8.6,0,12.8-10.8l1.2,0.5
					C362.5,515.7,353.3,515.8,353,515.8z"/>
			</g>
			<g>
				
					<rect x="389.6" y="578.2" transform="matrix(1 -4.832123e-03 4.832123e-03 1 -2.9195 1.8925)" class="st37" width="1.2" height="53.8"/>
			</g>
			<g>
				
					<rect x="314.5" y="605" transform="matrix(0.232 -0.9727 0.9727 0.232 -327.37 796.6643)" class="st37" width="52.6" height="1.2"/>
			</g>
		</g>
		<g>
			<g>
				<path class="st27" d="M593.6,437.8c0,0,10.8-6.8,7.7-19.6c-3.1-12.8-16.3-18.8-17.1-15.7c-0.8,3.1-0.8,4.4-3.3,3.7
					c-3.4-1-3.2-3.4-5.3-2.3c-3.9,2,0.9,7-4,6.6c-2.5-0.2-3.7,1.2-3.1,4C570.2,421.6,593.6,437.8,593.6,437.8z"/>
			</g>
			<g>
				<path class="st28" d="M578.3,447.9c-1.9,1-2.4,3.4-1.1,5.1c0,0,0,0.1,0.1,0.1c1.6,2.1,5.4,5.2,13.2,3c2.7-0.7,4.7-1.9,6.3-3
					c1.9-1.5,1.8-4.4-0.3-5.7c-0.9-0.6-1.6-1.3-1.9-2.1c-0.4-1.3-0.3-9.6,0-13.8c0.1-1.4,0.4-4.2,0.4-4.2l-13.1,6.7
					c0,0,0.1,3.5,0.1,6.3c0,1.7-0.1,3.1-0.1,3.5C581.8,445.4,580,446.9,578.3,447.9z"/>
			</g>
			<g>
				<path class="st29" d="M590.4,430.2c0.5,1.2,3,1.3,5.5,0.3c2.6-1,4.2-2.7,3.8-3.9c-0.5-1.7-3-1.3-5.5-0.3
					C591.7,427.3,590,429.1,590.4,430.2z"/>
			</g>
			<g>
				<path class="st29" d="M581.9,434c0,0,0.1,3.5,0.1,6.3c0.9,0.3,1.8,0.5,2.7,0.5c6.8-0.4,9.7-12.8,9.7-12.8L581.9,434z"/>
			</g>
			<g>
				<g>
					<g>
						<g>
							<g>
								<path class="st28" d="M596.2,423.4c-0.1,0.4-0.1,0.8-0.2,1.1c-1.8,9-8,15.3-13.8,14.2c-3.3-0.6-5.7-3.5-6.9-7.4
									c-0.1-0.2-0.1-0.4-0.2-0.6c0-0.2-0.1-0.4-0.1-0.6c-0.1-0.6-0.3-1.3-0.3-2c-0.1-0.5-0.1-0.9-0.1-1.4c0-0.5,0-1.1,0-1.6
									c0-1.5,0.2-3,0.5-4.6c0.1-0.3,0.2-0.7,0.2-1.1c0-0.2,0.1-0.3,0.1-0.5c0-0.1,0.1-0.2,0.1-0.3c0,0,0,0,0-0.1
									c0.4-1.7,1-3.5,1.5-4.7c0.3,0.3,2.6,0.2,5.1,0c4.7-0.4,9.8-0.8,12.3,3.3C595.5,418.8,595.8,422.9,596.2,423.4z"/>
							</g>
						</g>
					</g>
				</g>
			</g>
			<g>
				<path class="st29" d="M582,428.5l-0.7-0.2c-0.5-0.1-0.8-0.6-0.7-0.9l1-2.9c0.1-0.3,0.5-0.5,1-0.4l0,0c0.4,0.1,0.8,0.5,0.7,0.8
					L583,428C583,428.4,582.5,428.6,582,428.5z"/>
			</g>
			<g>
				<path class="st31" d="M589.5,423.3c-0.1,0.6-0.6,1.1-1,1c-0.5-0.1-0.8-0.6-0.7-1.2c0.1-0.6,0.6-1.1,1-1
					C589.3,422.2,589.6,422.7,589.5,423.3z"/>
			</g>
			<g>
				<path class="st27" d="M586.4,420c0,0,0.1-0.1,0.2-0.3c0.1-0.2,0.3-0.4,0.6-0.5c0.1-0.1,0.3-0.2,0.5-0.3c0.2-0.1,0.4-0.1,0.6-0.2
					c0.2,0,0.4-0.1,0.7-0.1c0.2,0,0.5,0,0.7,0c0.2,0,0.5,0.1,0.7,0.2c0.2,0.1,0.4,0.2,0.6,0.3c0.2,0.1,0.3,0.3,0.5,0.4
					c0.2,0.1,0.3,0.3,0.4,0.4c0.1,0.1,0.2,0.3,0.3,0.4c0.1,0.1,0.1,0.2,0.2,0.3c0.1,0.2,0.1,0.3,0.1,0.3s-0.1,0-0.3-0.1
					c-0.1,0-0.2-0.1-0.3-0.1c-0.1-0.1-0.2-0.1-0.4-0.2c-0.1-0.1-0.3-0.1-0.4-0.2c-0.2-0.1-0.3-0.1-0.5-0.2c-0.2,0-0.3-0.1-0.5-0.2
					c-0.2,0-0.3-0.1-0.5-0.1c-0.2,0-0.4-0.1-0.5-0.1c-0.2,0-0.4,0-0.5,0c-0.2,0-0.3,0-0.5,0c-0.2,0-0.3,0-0.5,0
					c-0.3,0-0.6,0.1-0.8,0.1C586.5,420,586.4,420,586.4,420z"/>
			</g>
			<g>
				<path class="st31" d="M578.4,422.1c-0.1,0.6-0.5,1.1-1,1c-0.5,0-0.8-0.6-0.7-1.2c0.1-0.6,0.5-1.1,1-1
					C578.2,420.9,578.5,421.5,578.4,422.1z"/>
			</g>
			<g>
				<path class="st27" d="M575.2,419c0,0,0-0.1,0.2-0.3c0.1-0.2,0.3-0.4,0.6-0.6c0.1-0.1,0.3-0.2,0.5-0.3c0.2-0.1,0.4-0.2,0.6-0.2
					c0.2-0.1,0.4-0.1,0.7-0.1c0.2,0,0.5,0,0.7,0c0.2,0,0.5,0.1,0.7,0.1c0.2,0.1,0.4,0.2,0.6,0.3c0.2,0.1,0.4,0.2,0.5,0.3
					c0.2,0.1,0.3,0.3,0.4,0.4c0.1,0.1,0.2,0.2,0.3,0.4c0.1,0.1,0.1,0.2,0.2,0.3c0.1,0.2,0.1,0.3,0.1,0.3s-0.1,0-0.3-0.1
					c-0.1,0-0.2-0.1-0.3-0.1c-0.1-0.1-0.3-0.1-0.4-0.2c-0.1,0-0.3-0.1-0.5-0.2c-0.2,0-0.3-0.1-0.5-0.2c-0.2,0-0.3-0.1-0.5-0.1
					c-0.2,0-0.4-0.1-0.5-0.1c-0.2,0-0.4,0-0.5,0c-0.2,0-0.4,0-0.5,0c-0.2,0-0.3,0-0.5,0.1c-0.2,0-0.3,0-0.5,0.1
					c-0.3,0-0.6,0.1-0.7,0.2C575.3,418.9,575.2,419,575.2,419z"/>
			</g>
			<g class="st0">
				<g>
					<path class="st29" d="M592.2,428.6c-0.1,1.8-1.6,3.1-3.4,3c-1.7-0.1-3.1-1.6-3-3.4c0.1-1.8,1.6-3.1,3.4-3
						C591,425.3,592.4,426.8,592.2,428.6z"/>
				</g>
			</g>
			<g class="st0">
				<g>
					<path class="st29" d="M578.6,427.7c-0.1,1.8-1.6,3.1-3.3,3c0,0-0.1,0-0.1,0c0-0.2-0.1-0.4-0.1-0.6c-0.1-0.6-0.3-1.3-0.3-2
						c-0.1-0.5-0.1-0.9-0.1-1.4c0-0.8,0-1.5,0.1-2.3c0.3-0.1,0.7-0.1,1-0.1C577.4,424.5,578.7,426,578.6,427.7z"/>
				</g>
			</g>
			<g>
				<path class="st3" d="M578.5,431.7c0,0,4,1.8,8.3,0.6c0,0-1.8,3.4-4.9,3.2C578.9,435.3,578.5,431.7,578.5,431.7z"/>
			</g>
			<g>
				<g>
					<g>
						<path class="st27" d="M575.6,410L575.6,410c0,0.2,0,0.3,0,0.5c0,0.4,0.1,0.8,0.1,1.3c0.1,0.7,0.2,1.5,0.2,2.1
							c0.1,0.8,0.2,1.4,0.2,1.4s0.1,0.1,0.3,0.2c1,0.7,4.7,3.1,9.1,1.7c0,0,0,0,0.1,0c0.6-0.2,1.1-0.4,1.7-0.5
							c0.4-0.1,0.8-0.2,1.1-0.2c2-0.2,3.3,0.3,4,1.4c0.4,0.6,0.7,1.5,0.7,2.4c0.1,2.7-0.8,5.9,0.4,6.4l0,0c0.2,0.1,0.4,0.1,0.8,0
							c0.5-0.1,0.9-0.4,1.4-0.8c0.1-0.1,0.1-0.1,0.2-0.2l0,0c1.5-1.5,2.5-3.9,2.5-3.9l0-0.4c0-0.4,0.1-0.7,0.1-1
							c0.1-4.8-3-9.2-7.7-10.7c0,0-0.1,0-0.1,0c-0.1,0-12.2-0.3-14.7-0.2C575.9,409.5,575.7,409.7,575.6,410z"/>
					</g>
				</g>
			</g>
			<g>
				<path class="st32" d="M566.4,528.5c0,0,8.4,0.2,18.1,0.4c10.9,0.2,23.6,0.5,28.2,0.6c0.8,0,1.3,0,1.5,0c0,0-1.3-14.3-2-21
					c-0.1-0.7-0.1-1.4-0.2-2c-0.6-6.2-1.2-11.6-1.3-12.6c-0.1-0.6,1.7-41.3,1.9-42.7l-10.3-3.3l-3.8-1.2l-3.7-1.2l-13.8,0.3
					l-5.9,2.3l-4,1.5l-4,1.6c0,0-0.3,22.1-0.1,37.5c0,0.7,0,1.4,0,2c0.1,5.6,0,10.2-0.2,12.3c-0.1,1.1-0.2,13.5-0.3,20.6
					C566.4,526.5,566.4,528.5,566.4,528.5z"/>
			</g>
			<g>
				<path class="st19" d="M580.6,527.2"/>
			</g>
			<g>
				<g>
					<path class="st28" d="M528.8,460.5c0,0,0-0.1-0.1-0.4l0,0c0-0.1-0.1-0.2-0.1-0.2c-0.1-0.3-0.2-0.7-0.4-1.2
						c-0.8-2.4-2.4-6.6-3.7-8.8c-1.9-3.2-5.6-6.5-5.6-6.5s-0.2,1.7,0.3,2.9c0.5,1.2,2.7,2.9,1.4,3.3c-1.3,0.4-7.4-4-9-4.3
						c-1.5-0.3-2,0.6-2,0.6s-1.8-0.8-2.6-0.1c-0.9,0.8,0.3,2,0.3,2s-0.9,1.2-0.7,1.9c0.2,0.8,1.2,1.5,1.2,1.5s-0.3,1,0.1,1.7
						c0.3,0.7,7.5,5.1,9.6,6.1c0.7,0.4,1.5,1,2.2,1.7c0.6,0.6,1.2,1.3,1.7,1.8c0,0,0.1,0.1,0.1,0.1c0.3,0.4,0.5,0.7,0.6,0.8
						c0,0,0,0,0,0c0,0,0,0.1,0,0.1L528.8,460.5z"/>
				</g>
				<g>
					<path class="st29" d="M520.8,462.2c0.3,0.6,0.6,1.3,1,2c3.6,7,10.6,20.5,15.8,29.3c1.5,2,3.4,3.7,5.7,4.8
						c0.6,0.3,1.2,0.5,1.6,0.7h0c1.1-0.2,2.1-0.6,3.1-1.1c0.8-0.4,1.5-0.8,2.1-1.1c0.4-0.2,0.8-0.5,1-0.7l-2.4-11.8l-3.5-4.5
						l-15.4-19.5v0h0l-1.4-1.8l-0.1,0l0,0l-7.2,3.5L520.8,462.2z"/>
				</g>
				<g>
					<path class="st32" d="M520.5,464.9c0,0,11.1,19,16,26.9c0.3,0.6,0.7,1.1,1.2,1.7c1.5,2,3.4,3.7,5.7,4.8
						c0.6,0.3,1.2,0.5,1.6,0.7h0c0.3,0.1,0.6,0.1,0.8,0.1c0.8,0,1.7-0.2,2.7-0.6c1.4-0.6,3-1.5,4.4-2.4l-2.6-11.2l-3-4l-1.5-1.9
						L531,459.8l-1.3,0.6h0l-7.9,3.8L520.5,464.9z"/>
				</g>
				<g>
					<path class="st32" d="M548,497.9c0.1,0.2,0.3,0.4,0.4,0.6c1.4-0.6,3-1.5,4.4-2.4c1.5-1,2.8-1.9,3.6-2.6l13.2-13.7l-2.1-28.7
						c0,0-1.2-0.5-7.1,6.6c-2.1,2.6-9.2,12.7-14.6,21.3c-0.2,0.3-0.4,0.6-0.6,0.9c-0.5,0.8-1,1.6-1.5,2.4c-0.2,0.3-0.3,0.6-0.5,0.9
						C540.7,487.2,545.3,494.3,548,497.9z"/>
				</g>
			</g>
			<g>
				<path class="st28" d="M581,636.4c0,0.3-0.1,0.6-0.1,0.8c-0.1,0.8-0.2,1.6-0.3,2.4c-0.1,0.8-0.2,1.5-0.2,2.2
					c0,0.2-0.1,0.5-0.1,0.7c0,0.2-0.1,0.4-0.1,0.6c0,0.4-0.1,0.7-0.1,1c0,0.3-0.1,0.6-0.1,0.9c0,0,0,0.1,0,0.1c0,0.2,0,0.3-0.1,0.5
					v0c-0.1,0.6-0.1,1.1-0.2,1.6c0,0.1,0,0.1,0,0.2c0,0.1,0,0.3-0.1,0.4v0c0,0.1,0,0.3,0,0.4c0,0.1,0,0.1,0,0.2
					c-0.2,1.8-0.3,2.8-0.3,2.9l-8.4,0.1c0,0-0.1-1.2-0.3-3c-0.4-3.8-1-10.2-1.1-11.5c0,0,0-0.1,0-0.1c0-0.1,0-0.2,0-0.2
					c0-0.1,0-0.1,0-0.2H581z"/>
			</g>
			<g>
				<path class="st29" d="M582.4,624.3c-0.5,4.4-0.9,8.5-1.3,12.1c0,0.3-0.1,0.6-0.1,0.8c-0.1,0.8-0.2,1.6-0.3,2.4
					c-0.1,0.8-0.2,1.5-0.2,2.2c0,0.2-0.1,0.5-0.1,0.7c0,0.2-0.1,0.4-0.1,0.6c0,0.4-0.1,0.7-0.1,1c0,0.3-0.1,0.6-0.1,0.9
					c0,0,0,0.1,0,0.1c0,0.2,0,0.3-0.1,0.5v0c-0.1,0.7-0.2,1.3-0.2,1.8c0,0.2,0,0.3-0.1,0.4v0c0,0.2,0,0.3,0,0.4c0,0.1,0,0.1,0,0.2
					l-9.1,0c-0.4-3.8-1-10.2-1.1-11.5c0,0,0-0.1,0-0.1c0-0.1,0-0.1,0-0.2c0-0.1,0-0.1,0-0.2c0,0,0-0.1,0-0.1c0-0.3,0-0.5,0-0.8v0
					c0-0.3,0-0.7-0.1-1c0-0.2,0-0.4,0-0.5c0-0.4,0-0.7-0.1-1.1c0-0.4,0-0.7-0.1-1.1c0-0.2,0-0.4,0-0.6c0-0.7-0.1-1.5-0.1-2.2
					c0-0.2,0-0.4,0-0.7c0-0.2,0-0.5,0-0.7c0-0.7-0.1-1.4-0.1-2.2c0-0.3,0-0.6-0.1-0.9H582.4z"/>
			</g>
			<g>
				<path class="st6" d="M592.7,539l-4.2,1.8l-4.6,44.9l0.5,61.6l-4.2,0h-0.4l-9.5,0l-2.7,0c0,0-2.9-34.4-3.3-61.6
					c-0.4-28.6,1.6-50.2,1.5-57c0-0.6,0.4-12.9,0.4-12.9l25.4,0.3L592.7,539z"/>
			</g>
			<g>
				<path class="st28" d="M615.5,613.8c-0.8,13.9-1.7,28.2-2.1,34.3c0,0.1,0,0.2,0,0.3c-0.1,1.7-0.2,2.8-0.2,2.8l-8.4,0
					c0,0-0.1-1-0.3-2.8c-0.6-5.9-2-19.9-3-31.1c0-0.2,0-0.5-0.1-0.7c0-0.5-0.1-1-0.1-1.4c0-0.5-0.1-0.9-0.1-1.4H615.5z"/>
			</g>
			<g>
				<path class="st29" d="M614.6,605.5c-0.1,2.8-0.1,5.6-0.2,8.3c-0.4,15.1-0.6,28.9-1,34.3c0,0.1,0,0.2,0,0.3l-8.8,0
					c-0.6-5.9-2-19.9-3-31.1c0-0.2,0-0.5-0.1-0.7c0-0.5-0.1-0.9-0.1-1.4c0-0.5-0.1-0.9-0.1-1.4c-0.2-2.8-0.5-5.6-0.7-8.3H614.6z"/>
			</g>
			<g>
				<path class="st6" d="M582.2,515.9c0,0.2,0.6,3.8,1.4,8.1c0.3,1.6,0.6,3.3,0.9,5c0.8,4.6,1.6,10.7,1.7,11.8l4,4.9
					c0.1,0.8,0.6,20.7,2.9,42.7c2.9,27.8,7.8,59,7.8,59l16.8,0c0,0-2.3-29.1-3.2-60.6c-0.6-20.3,0.4-41.6-0.2-56.9
					c0-0.1,0-0.2,0-0.3c0-1-0.1-1.9-0.1-2.9v0c-0.4-8.6-1.1-18.2-1.1-18.3c0,0,0,0-0.1,0C612.8,508.4,582.2,515.9,582.2,515.9z"/>
			</g>
			<g>
				<path class="st28" d="M594.7,445.6c0,0-2,2.2-6.5,2.3c-5,0.1-7.3-2-7.3-2l6.1-2.3L594.7,445.6z"/>
			</g>
			<g>
				<path class="st6" d="M613,508.5c0,0,0-0.1-0.1-0.1c-0.2-0.4-0.7-1.4-0.9-1.9c-6.8-13.8-11.7-24.7-13.8-38.8l-27.4-0.3l-3.9,23.3
					l-1.6,7.9l0.8,25l0.4,0l46.2,6l1.5,0.3c0-0.1,0-0.2,0-0.3c0,0-0.2-5.7-0.3-7.1c0-0.4,0-0.9-0.1-1.3c0-0.1,0-0.3,0-0.4
					c0-0.5-0.1-0.9-0.1-1.4c0-0.3,0-0.5,0-0.8L613,508.5z"/>
			</g>
			<g>
				<g>
					<polygon class="st6" points="593.8,472.9 597.8,473.6 602.3,447.9 598.5,446.8 					"/>
				</g>
				<g>
					<polygon class="st6" points="570.6,469.8 574.6,469.9 575.1,448.1 571,449.6 					"/>
				</g>
			</g>
			<g>
				<g>
					<path class="st37" d="M589.4,541.4c-0.2-0.1-0.4-0.1-3.7-4l-0.1-0.1l-2.3-17.9l1.2-0.2l2.3,17.5c1.4,1.6,3,3.4,3.2,3.6
						l-0.3,0.4L589.4,541.4z"/>
				</g>
				<g>
					
						<rect x="588" y="521.4" transform="matrix(0.9883 -0.1528 0.1528 0.9883 -73.8313 96.1403)" class="st37" width="1.2" height="14.2"/>
				</g>
				<g>
					<path class="st37" d="M612,531.3c-0.3-0.2-7.5-4.1-8.6-14l1.2-0.1c1,9.2,7.9,13,7.9,13L612,531.3z"/>
				</g>
				<g>
					<path class="st37" d="M567.8,532.3l-0.4-1.1c5.3-1.8,6.4-12.9,6.4-13l1.2,0.1C574.9,518.8,573.8,530.2,567.8,532.3z"/>
				</g>
				<g>
					
						<rect x="569.2" y="516.4" transform="matrix(1 -2.634414e-03 2.634414e-03 1 -1.36 1.5553)" class="st37" width="41" height="1.2"/>
				</g>
				<g>
					
						<rect x="568.8" y="510.3" transform="matrix(1 -5.268773e-03 5.268773e-03 1 -2.6838 3.1174)" class="st37" width="43" height="1.2"/>
				</g>
			</g>
			<g>
				<g>
					<path class="st37" d="M580,663.6c0,0.1,0,0.2-0.1,0.3c0,0.1-0.1,0.1-0.1,0.2c0,0,0,0.1-0.1,0.1c0,0,0,0,0,0
						c-0.1,0.1-0.1,0.1-0.2,0.1l0,0c-0.1,0-0.2,0-0.3,0c0,0,0,0,0,0l-9.1,0c0,0,0,0,0,0c0,0-0.1,0-0.1,0c0,0-0.1,0-0.1,0
						c0,0,0,0-0.1,0c0,0-0.1,0-0.1-0.1c0,0-0.1,0-0.1-0.1c-0.1-0.1-0.2-0.2-0.2-0.3c0-0.1-0.1-0.2-0.1-0.3l0,0l0-0.1l0-0.4l0,0
						l-3.9,0l0,0l0,0.3l0,0.2c0,0.2-0.1,0.4-0.2,0.5c-0.1,0.1-0.3,0.2-0.6,0.2l-0.3,0l-8.8,0.1c0,0,0,0,0,0c0,0,0.1,0,0.1,0l-6.7,0
						c0,0,0,0,0,0c0-0.1,0-0.2,0-0.2c0-0.3,0-0.6,0.1-0.9c0-0.1,0-0.1,0-0.2c0.3-1.1,0.8-2,1.6-2.8c0.5-0.5,8.4-4.3,14-6.9l3-2
						c0.8-0.6,1.4-1.4,1.6-2.4c0.1-0.3,0.3-0.6,0.7-0.6c0.4,0,0.7,0.3,0.7,0.6l0.2,1.7l3.8,0l4.8-0.1l0.2,0l0.2,5.9l0.1,4.3l0,2.2
						l0,0.1l0,0.4L580,663.6z"/>
				</g>
				<g>
					<g>
						<path class="st6" d="M565.4,663.3l0,0.2c0,0.2-0.1,0.4-0.2,0.5c-0.1,0.1-0.3,0.2-0.6,0.2l-0.3,0l-8.8,0.1c0,0,0,0,0,0
							c0,0,0.1,0,0.1,0l-6.7,0c0,0,0,0,0,0c0-0.1,0-0.2,0-0.2c0-0.3,0-0.6,0.1-0.9c3.3,0,9.9-0.1,16.3-0.2L565.4,663.3z"/>
					</g>
					<g>
						<path class="st6" d="M580,663.6c0,0.1,0,0.2-0.1,0.3c0,0.1-0.1,0.1-0.1,0.2c0,0,0,0.1-0.1,0.1c0,0,0,0,0,0
							c-0.1,0.1-0.1,0.1-0.2,0.1l0,0c-0.1,0-0.2,0-0.3,0c0,0,0,0,0,0l-9.1,0c0,0,0,0,0,0c0,0-0.1,0-0.1,0c0,0-0.1,0-0.1,0
							c0,0,0,0-0.1,0c0,0-0.1,0-0.1-0.1c0,0-0.1,0-0.1-0.1c-0.1-0.1-0.2-0.2-0.2-0.3c0-0.1-0.1-0.2-0.1-0.3l0,0l0-0.1l0-0.4
							c4.6,0,8.6-0.1,10.7-0.1l0,0.1l0,0.4L580,663.6z"/>
					</g>
				</g>
			</g>
			<g>
				<g>
					<path class="st37" d="M613.9,663.5c0,0.1,0,0.2-0.1,0.3c0,0.1-0.1,0.1-0.1,0.2c0,0,0,0.1-0.1,0.1c0,0,0,0,0,0
						c-0.1,0.1-0.1,0.1-0.2,0.1l0,0c-0.1,0-0.2,0-0.3,0c0,0,0,0,0,0l-9.1,0c0,0,0,0,0,0c0,0-0.1,0-0.1,0c0,0-0.1,0-0.1,0
						c0,0,0,0-0.1,0c0,0-0.1,0-0.1-0.1c0,0-0.1,0-0.1-0.1c-0.1-0.1-0.2-0.2-0.2-0.3c0-0.1-0.1-0.2-0.1-0.3l0,0l0-0.1l0-0.4l0,0
						l-3.9,0l0,0l0,0.3l0,0.2c0,0.2-0.1,0.4-0.2,0.5c-0.1,0.1-0.3,0.2-0.6,0.2l-0.3,0l-8.8,0.1c0,0,0,0,0,0c0,0,0.1,0,0.1,0l-6.7,0
						c0,0,0,0,0,0c0-0.1,0-0.2,0-0.2c0-0.3,0-0.6,0.1-0.9c0-0.1,0-0.1,0-0.2c0.3-1.1,0.8-2,1.6-2.8c0.5-0.5,8.4-4.3,14-6.9l3.1-2.1
						c0.8-0.5,1.3-1.4,1.5-2.4c0.1-0.3,0.3-0.5,0.7-0.5c0.4,0,0.7,0.3,0.7,0.6l0.2,1.7l3.8,0l4.8-0.1l0,0c0.4,2.6,0.6,5.3,0.6,8
						l0,4.4l0,0.1l0,0.4L613.9,663.5z"/>
				</g>
				<g>
					<g>
						<path class="st6" d="M599.3,663.3l0,0.2c0,0.2-0.1,0.4-0.2,0.5c-0.1,0.1-0.3,0.2-0.6,0.2l-0.3,0l-8.8,0.1c0,0,0,0,0,0
							c0,0,0.1,0,0.1,0l-6.7,0c0,0,0,0,0,0c0-0.1,0-0.2,0-0.2c0-0.3,0-0.6,0.1-0.9c3.3,0,9.9-0.1,16.3-0.2L599.3,663.3z"/>
					</g>
					<g>
						<path class="st6" d="M613.9,663.5c0,0.1,0,0.2-0.1,0.3c0,0.1-0.1,0.1-0.1,0.2c0,0,0,0.1-0.1,0.1c0,0,0,0,0,0
							c-0.1,0.1-0.1,0.1-0.2,0.1l0,0c-0.1,0-0.2,0-0.3,0c0,0,0,0,0,0l-9.1,0c0,0,0,0,0,0c0,0-0.1,0-0.1,0c0,0-0.1,0-0.1,0
							c0,0,0,0-0.1,0c0,0-0.1,0-0.1-0.1c0,0-0.1,0-0.1-0.1c-0.1-0.1-0.2-0.2-0.2-0.3c0-0.1-0.1-0.2-0.1-0.3l0,0l0-0.1l0-0.4
							c4.6,0,8.6-0.1,10.7-0.1l0,0.1l0,0.4L613.9,663.5z"/>
					</g>
				</g>
			</g>
			<g>
				<g>
					<path class="st19" d="M595.5,476.8c-1,0-1.8-0.8-1.8-1.8c0-1,0.8-1.8,1.8-1.8c1,0,1.8,0.8,1.8,1.8
						C597.3,476,596.5,476.8,595.5,476.8z M595.5,474.2c-0.5,0-0.8,0.4-0.8,0.8s0.4,0.8,0.8,0.8s0.8-0.4,0.8-0.8
						S596,474.2,595.5,474.2z"/>
				</g>
				<g>
					<path class="st19" d="M574,476.8c-1,0-1.8-0.8-1.8-1.8c0-1,0.8-1.8,1.8-1.8c1,0,1.8,0.8,1.8,1.8C575.8,476,575,476.8,574,476.8
						z M574,474.2c-0.5,0-0.8,0.4-0.8,0.8s0.4,0.8,0.8,0.8s0.8-0.4,0.8-0.8S574.5,474.2,574,474.2z"/>
				</g>
			</g>
			<g>
				<g>
					<g>
						<path class="st15" d="M575.6,493l8.5,22.5c1.4,3.8-0.5,8.1-4.3,9.5l-0.3,0.1c-3.8,1.4-8.1-0.5-9.5-4.3l-8.5-22.5
							c-0.4-0.9,0.1-2,1.1-2.3l10.8-4C574.2,491.5,575.2,492,575.6,493z"/>
					</g>
					<g class="st38">
						<path class="st14" d="M581.8,523.8c-0.6,0.5-1.3,0.9-2.1,1.2l-0.3,0.1c-3.8,1.4-8.1-0.5-9.5-4.3l-8.5-22.5
							c-0.4-0.9,0.1-2,1.1-2.3l4.7-1.8c-0.9,0.4-1.4,1.4-1.1,2.3l8.5,22.5C575.8,522,578.7,523.9,581.8,523.8z"/>
					</g>
					<g>
						<g>
							<path class="st14" d="M577.5,510.6l-5.8,2.2c-1.1,0.4-2.3-0.1-2.7-1.2l-0.1-0.2c-0.4-1.1,0.1-2.3,1.2-2.7l5.8-2.2
								c1.1-0.4,2.3,0.1,2.7,1.2l0.1,0.2C579.1,509,578.5,510.2,577.5,510.6z"/>
						</g>
						<g>
							<path class="st3" d="M573,509.9c0.3,0.8-0.1,1.6-0.9,1.9c-0.8,0.3-1.6-0.1-1.9-0.9c-0.3-0.8,0.1-1.6,0.9-1.9
								C571.8,508.8,572.7,509.2,573,509.9z"/>
						</g>
						<g>
							<polygon class="st19" points="571,511.2 571.3,509.6 572.5,510.6 							"/>
						</g>
						<g>
							<path class="st3" d="M574.6,509.3c-0.3-0.8,0.1-1.6,0.9-1.9s1.6,0.1,1.9,0.9c0.3,0.8-0.1,1.6-0.9,1.9
								C575.8,510.5,574.9,510.1,574.6,509.3z"/>
						</g>
						<g>
							<polygon class="st14" points="576.6,508 576.3,509.7 575.1,508.6 							"/>
						</g>
					</g>
					<g>
						<g>
							<path class="st14" d="M581.8,515.7c1,2.8-0.4,5.8-3.1,6.9c-2.8,1-5.8-0.4-6.9-3.1c-1-2.8,0.4-5.8,3.1-6.9
								S580.7,512.9,581.8,515.7z"/>
						</g>
						<g>
							<path class="st39" d="M578.1,517.1c0.3,0.8-0.1,1.6-0.9,1.9c-0.8,0.3-1.6-0.1-1.9-0.9s0.1-1.6,0.9-1.9
								C577,515.9,577.9,516.3,578.1,517.1z"/>
						</g>
						<g>
							<g>
								<g>
									<path class="st3" d="M576.7,517.4L576.7,517.4C576.6,517.4,576.6,517.3,576.7,517.4l-0.2-0.4c0,0,0-0.1,0-0.1l0,0
										c0,0,0.1,0,0.1,0L576.7,517.4C576.7,517.3,576.7,517.3,576.7,517.4z"/>
								</g>
							</g>
							<g>
								<g>
									<path class="st3" d="M577.1,518.4c-0.4,0.1-0.8-0.1-1-0.4c-0.1-0.3,0-0.6,0.2-0.8c0,0,0.1,0,0.1,0c0,0,0,0.1,0,0.1
										c-0.2,0.2-0.2,0.4-0.2,0.7c0.1,0.3,0.5,0.5,0.8,0.3c0.3-0.1,0.5-0.5,0.3-0.8c-0.1-0.2-0.3-0.4-0.6-0.4c0,0-0.1,0-0.1-0.1
										c0,0,0-0.1,0.1-0.1c0.3,0,0.6,0.2,0.7,0.5C577.6,517.8,577.4,518.2,577.1,518.4z"/>
								</g>
							</g>
						</g>
						<g>
							<path class="st3" d="M577.1,513.7c0.2,0.6-0.3,1.3-1.1,1.7s-1.7,0.1-2-0.5c-0.2-0.6,0.3-1.3,1.1-1.7
								C576,512.9,576.8,513.1,577.1,513.7z"/>
						</g>
						<g>
							<g>
								<path class="st14" d="M574.3,514.4l0.1-0.1l0.3,0.3l0-0.4l0.1-0.1l0.2,0.5l-0.1,0l-0.2-0.5l0,0l0,0.5l-0.1,0l-0.3-0.4l0,0
									l0.2,0.5l-0.1,0L574.3,514.4z"/>
							</g>
							<g>
								<path class="st14" d="M575,514.4c0,0,0-0.1,0-0.1c0,0,0-0.1,0-0.1c0,0,0-0.1,0.1-0.1c0,0,0.1,0,0.1-0.1c0,0,0.1,0,0.1,0
									c0,0,0.1,0,0.1,0c0,0,0.1,0,0.1,0.1c0,0,0,0.1,0.1,0.1c0,0,0,0.1,0,0.1c0,0,0,0.1,0,0.1s0,0.1-0.1,0.1c0,0-0.1,0-0.1,0.1
									c0,0-0.1,0-0.1,0c0,0-0.1,0-0.1,0c0,0-0.1,0-0.1-0.1S575.1,514.5,575,514.4z M575.1,514.4
									C575.2,514.4,575.2,514.4,575.1,514.4c0.1,0.1,0.1,0.1,0.1,0.1c0,0,0,0,0.1,0c0,0,0.1,0,0.1,0s0.1,0,0.1,0c0,0,0,0,0-0.1
									c0,0,0-0.1,0-0.1c0,0,0-0.1,0-0.1c0,0,0-0.1,0-0.1c0,0,0,0-0.1,0c0,0,0,0-0.1,0c0,0-0.1,0-0.1,0c0,0-0.1,0-0.1,0
									c0,0,0,0,0,0.1C575.1,514.2,575.1,514.3,575.1,514.4C575.1,514.3,575.1,514.4,575.1,514.4z"/>
							</g>
							<g>
								<path class="st14" d="M575.6,513.9l0.2-0.1c0,0,0.1,0,0.1,0c0,0,0.1,0,0.1,0c0,0,0.1,0,0.1,0.1c0,0,0.1,0.1,0.1,0.1
									c0,0,0,0.1,0,0.1c0,0,0,0.1,0,0.1c0,0,0,0.1-0.1,0.1s-0.1,0-0.1,0.1l-0.2,0.1L575.6,513.9z M576,514.3
									C576,514.3,576,514.3,576,514.3c0.1-0.1,0.1-0.1,0.1-0.1c0,0,0,0,0-0.1c0,0,0-0.1,0-0.1c0,0,0-0.1,0-0.1c0,0,0,0-0.1,0
									s0,0-0.1,0c0,0-0.1,0-0.1,0l-0.1,0L576,514.3L576,514.3z"/>
							</g>
							<g>
								<path class="st14" d="M576.2,513.7l0.4-0.1l0,0.1l-0.3,0.1l0.1,0.1l0.3-0.1l0,0.1l-0.3,0.1l0.1,0.1l0.3-0.1l0,0.1l-0.4,0.1
									L576.2,513.7z"/>
							</g>
						</g>
						<g>
							<path class="st3" d="M579.6,520.3c0.2,0.6-0.3,1.3-1.1,1.7c-0.9,0.3-1.7,0.1-2-0.5s0.3-1.3,1.1-1.7
								C578.5,519.5,579.4,519.7,579.6,520.3z"/>
						</g>
						<g>
							<g>
								<g>
									<path class="st14" d="M578.3,521.6L578.3,521.6c-0.2,0.1-0.3,0.1-0.5,0c0,0,0,0,0,0c0,0,0,0-0.1,0c0,0,0,0,0,0
										c-0.1-0.1-0.3-0.2-0.3-0.4l0,0l0,0c-0.1-0.2-0.1-0.3,0-0.5c0,0,0,0,0,0c0,0,0,0,0-0.1c0,0,0,0,0,0c0.1-0.1,0.2-0.3,0.4-0.3
										l0,0l0,0c0.2-0.1,0.3-0.1,0.5,0c0,0,0,0,0,0c0,0,0,0,0.1,0c0,0,0,0,0,0c0.1,0.1,0.3,0.2,0.3,0.4l0,0l0,0
										c0.1,0.2,0.1,0.3,0,0.5c0,0,0,0,0,0c0,0,0,0,0,0.1c0,0,0,0,0,0C578.6,521.4,578.5,521.5,578.3,521.6L578.3,521.6z
										 M577.8,520.3L577.8,520.3c-0.2,0.1-0.3,0.2-0.3,0.3c0,0,0,0,0,0c0,0,0,0,0,0.1c0,0,0,0,0,0c0,0.1,0,0.3,0,0.4l0,0
										c0.1,0.1,0.2,0.3,0.3,0.3c0,0,0,0,0,0c0,0,0,0,0.1,0c0,0,0,0,0,0c0.1,0,0.3,0,0.4,0l0,0c0.1-0.1,0.3-0.2,0.3-0.3
										c0,0,0,0,0,0c0,0,0,0,0-0.1c0,0,0,0,0,0c0-0.1,0-0.3,0-0.4l0,0l0,0c-0.1-0.1-0.2-0.3-0.3-0.3c0,0,0,0,0,0c0,0,0,0-0.1,0
										c0,0,0,0,0,0C578.1,520.2,577.9,520.2,577.8,520.3L577.8,520.3z"/>
								</g>
							</g>
							<g>
								<g>
									<g>
										<path class="st14" d="M578.1,520.9c0,0,0.1,0,0.3,0s0.2,0.1,0.1,0.2s-0.1,0.2-0.2,0.2s-0.1-0.1-0.1-0.1
											c0-0.1,0-0.2-0.1-0.2L578.1,520.9z"/>
									</g>
								</g>
								<g>
									<g>
										<path class="st14" d="M578.1,521c0,0,0,0.1-0.1,0.3c-0.1,0.2-0.2,0.1-0.2,0.1c-0.1,0-0.2-0.2-0.2-0.2
											c0-0.1,0.1-0.1,0.1-0.1c0.1,0,0.2,0,0.2-0.1L578.1,521z"/>
									</g>
								</g>
								<g>
									<g>
										<path class="st14" d="M577.9,521c0,0-0.1,0-0.3,0c-0.2,0-0.2-0.1-0.1-0.2c0-0.1,0.1-0.2,0.2-0.2c0.1,0,0.1,0.1,0.1,0.1
											c0,0.1,0,0.2,0.1,0.2L577.9,521z"/>
									</g>
								</g>
								<g>
									<g>
										<path class="st14" d="M578,520.8c0,0,0-0.1,0.1-0.3c0.1-0.2,0.2-0.1,0.2-0.1c0.1,0,0.2,0.2,0.2,0.2c0,0.1-0.1,0.1-0.1,0.1
											c-0.1,0-0.2,0-0.2,0.1L578,520.8z"/>
									</g>
								</g>
								<g>
									<g>
										<path class="st14" d="M578.2,520.9c0,0.1,0,0.2-0.1,0.2c-0.1,0-0.2,0-0.2-0.1s0-0.2,0.1-0.2
											C578,520.8,578.1,520.8,578.2,520.9z"/>
									</g>
								</g>
							</g>
						</g>
						<g>
							<path class="st3" d="M572.9,517.3c0.6-0.2,1.3,0.3,1.7,1.1c0.3,0.9,0.1,1.7-0.5,2c-0.6,0.2-1.3-0.3-1.7-1.1
								C572,518.4,572.3,517.5,572.9,517.3z"/>
						</g>
						<g>
							<path class="st3" d="M579.5,514.8c0.6-0.2,1.3,0.3,1.7,1.1c0.3,0.9,0.1,1.7-0.5,2c-0.6,0.2-1.3-0.3-1.7-1.1
								C578.7,515.9,578.9,515,579.5,514.8z"/>
						</g>
						<g>
							<g>
								<g>
									<g>
										
											<rect x="572.9" y="518.2" transform="matrix(0.9461 -0.3238 0.3238 0.9461 -136.9265 213.5242)" class="st14" width="0.7" height="0.1"/>
									</g>
								</g>
								<g>
									<g>
										<g>
											<polygon class="st14" points="573,518.2 573,518.4 573.1,518.5 572.7,518.5 											"/>
										</g>
									</g>
								</g>
							</g>
							<g>
								<g>
									<g>
										
											<rect x="573" y="518.5" transform="matrix(0.7757 -0.6311 0.6311 0.7757 -198.6326 478.1501)" class="st14" width="0.7" height="0.1"/>
									</g>
								</g>
								<g>
									<g>
										<g>
											<polygon class="st14" points="573.1,518.6 573.1,518.7 573.3,518.8 572.9,518.9 											"/>
										</g>
									</g>
								</g>
							</g>
							<g>
								<g>
									<g>
										
											<rect x="573.2" y="518.7" transform="matrix(0.5517 -0.834 0.834 0.5517 -175.5294 710.931)" class="st14" width="0.7" height="0.1"/>
									</g>
								</g>
								<g>
									<g>
										<g>
											<polygon class="st14" points="573.3,518.9 573.4,519 573.6,519 573.3,519.2 											"/>
										</g>
									</g>
								</g>
							</g>
							<g>
								<g>
									<g>
										
											<rect x="573.5" y="518.8" transform="matrix(0.3419 -0.9397 0.9397 0.3419 -109.9767 880.7386)" class="st14" width="0.7" height="0.1"/>
									</g>
								</g>
								<g>
									<g>
										<g>
											<polygon class="st14" points="573.6,519.1 573.7,519.2 573.9,519.2 573.6,519.4 											"/>
										</g>
									</g>
								</g>
							</g>
						</g>
						<g>
							<g>
								<g>
									<g>
										<path class="st14" d="M580.4,516.6c-0.3,0.1-0.6-0.1-0.8-0.4l0.1,0C579.8,516.4,580.1,516.6,580.4,516.6L580.4,516.6z"/>
									</g>
								</g>
								<g>
									<g>
										<g>
											<polygon class="st14" points="580.6,516.4 580.3,516.4 580.4,516.5 580.4,516.7 											"/>
										</g>
									</g>
								</g>
								<g>
									<g>
										<g>
											<polygon class="st14" points="579.7,515.9 579.9,516.2 579.7,516.2 579.6,516.3 											"/>
										</g>
									</g>
								</g>
							</g>
							<g>
								<g>
									<path class="st14" d="M579.3,515.9l0.6-0.2c0,0,0.1,0,0.1,0l0,0c0,0,0,0.1,0,0.1l-0.6,0.2c0,0-0.1,0-0.1,0l0,0
										C579.3,515.9,579.3,515.9,579.3,515.9z"/>
								</g>
							</g>
							<g>
								<g>
									<path class="st14" d="M580.8,516.7l-0.2-0.6c0,0,0-0.1,0-0.1l0,0c0,0,0.1,0,0.1,0l0.2,0.6c0,0,0,0.1,0,0.1l0,0
										C580.9,516.8,580.8,516.8,580.8,516.7z"/>
								</g>
							</g>
						</g>
					</g>
					<g>
						<g>
							<path class="st26" d="M573.8,494.7l3.2,8.6c0.1,0.4-0.1,0.8-0.4,1l-8.6,3.2c-0.4,0.1-0.8-0.1-1-0.4l-3.2-8.6
								c-0.1-0.4,0-0.8,0.4-1l8.6-3.2C573.3,494.1,573.7,494.3,573.8,494.7z"/>
						</g>
						<g>
							<path class="st40" d="M573.8,494.7l0.2,0.6l-9.9,3.7l-0.2-0.6c-0.1-0.4,0-0.8,0.4-1l8.6-3.2
								C573.3,494.1,573.7,494.3,573.8,494.7z"/>
						</g>
						<g>
							<g>
								<g>
									<g>
										<path class="st3" d="M566,497.8l-1,0.4c-0.1,0-0.2,0-0.2-0.1l0,0c0-0.1,0-0.2,0.1-0.2l1-0.4c0.1,0,0.2,0,0.2,0.1l0,0
											C566.1,497.7,566.1,497.8,566,497.8z"/>
									</g>
									<g>
										<path class="st3" d="M565.8,498.1l-1.2,0.4c-0.1,0-0.2,0-0.2-0.1l-0.2-0.4c0-0.1,0-0.2,0.1-0.2l1.2-0.4
											c0.1,0,0.2,0,0.2,0.1l0.2,0.4C566,498,565.9,498,565.8,498.1z"/>
									</g>
									<g>
										
											<rect x="565.2" y="497.5" transform="matrix(0.9361 -0.3518 0.3518 0.9361 -138.99 230.7728)" class="st40" width="0.5" height="0.6"/>
									</g>
								</g>
							</g>
							<g>
								<g>
									<path class="st3" d="M572.8,495.3C572.8,495.3,572.8,495.3,572.8,495.3c0,0.1,0,0.1,0,0.1c0,0,0.1,0,0.1,0c0,0,0,0,0.1-0.1
										c0,0,0-0.1,0-0.1c0,0,0,0-0.1-0.1C572.9,495.2,572.9,495.2,572.8,495.3C572.9,495.2,572.9,495.2,572.8,495.3z"/>
								</g>
								<g>
									<path class="st3" d="M572.6,495.2C572.6,495.2,572.6,495.2,572.6,495.2C572.6,495.3,572.6,495.3,572.6,495.2
										c0,0.1,0,0.1,0,0.1c0,0,0,0,0,0C572.7,495.3,572.7,495.3,572.6,495.2C572.7,495.3,572.7,495.2,572.6,495.2
										c0.1,0,0.2-0.1,0.2-0.1c0.1,0,0.2,0,0.3,0c0,0,0,0,0,0c0,0,0,0,0,0c0,0,0,0,0,0c0,0,0,0,0,0c-0.1-0.1-0.2-0.1-0.3,0
										C572.7,495.1,572.7,495.1,572.6,495.2z"/>
								</g>
								<g>
									<path class="st3" d="M572.5,495.1C572.4,495.1,572.4,495.2,572.5,495.1C572.4,495.2,572.4,495.2,572.5,495.1
										c0,0.1,0,0.1,0,0.1C572.5,495.2,572.5,495.2,572.5,495.1C572.5,495.2,572.5,495.2,572.5,495.1c0.1-0.1,0.2-0.2,0.3-0.2
										c0.1-0.1,0.3,0,0.4,0c0,0,0,0,0,0c0,0,0,0,0,0c0,0,0,0,0,0c0,0,0,0,0,0c-0.1-0.1-0.3-0.1-0.5,0
										C572.6,494.9,572.5,495,572.5,495.1z"/>
								</g>
								<g>
									<path class="st3" d="M572.7,494.7c-0.2,0.1-0.3,0.2-0.4,0.4c0,0,0,0,0,0.1c0,0,0,0,0,0c0,0,0,0,0,0c0,0,0,0,0,0
										c0,0,0,0,0,0c0,0,0,0,0-0.1C572.4,494.9,572.6,494.8,572.7,494.7c0.2,0,0.4,0,0.6,0.1c0,0,0,0,0,0c0,0,0,0,0,0c0,0,0,0,0,0
										C573.1,494.6,572.9,494.6,572.7,494.7z"/>
								</g>
							</g>
						</g>
						<g>
							<g>
								<path class="st3" d="M571.6,501.6l0.6,1.5c0,0.1,0,0.3-0.1,0.3l0,0c-0.1,0-0.3,0-0.3-0.1l-0.6-1.5c0-0.1,0-0.3,0.1-0.3l0,0
									C571.4,501.4,571.5,501.5,571.6,501.6z"/>
							</g>
							<g>
								<g>
									<path class="st3" d="M572.3,498.5l-1.5,0.6c-0.1,0-0.3,0-0.3-0.1l0,0c0-0.1,0-0.3,0.1-0.3l1.5-0.6c0.1,0,0.3,0,0.3,0.1l0,0
										C572.5,498.3,572.5,498.4,572.3,498.5z"/>
								</g>
								<g>
									<path class="st3" d="M574.1,503.1l-1.5,0.6c-0.1,0-0.3,0-0.3-0.1l0,0c0-0.1,0-0.3,0.1-0.3l1.5-0.6c0.1,0,0.3,0,0.3,0.1l0,0
										C574.3,502.9,574.2,503.1,574.1,503.1z"/>
								</g>
							</g>
						</g>
						<g>
							<g>
								<path class="st3" d="M567.4,500.6l0.6,1.5c0,0.1,0,0.3-0.1,0.3l0,0c-0.1,0-0.3,0-0.3-0.1l-0.6-1.5c0-0.1,0-0.3,0.1-0.3l0,0
									C567.2,500.5,567.3,500.5,567.4,500.6z"/>
							</g>
							<g>
								<path class="st3" d="M570.6,501.9l0.6,1.5c0,0.1,0,0.3-0.1,0.3l0,0c-0.1,0-0.3,0-0.3-0.1l-0.6-1.5c0-0.1,0-0.3,0.1-0.3l0,0
									C570.4,501.7,570.5,501.8,570.6,501.9z"/>
							</g>
						</g>
						<g>
							<g>
								<path class="st19" d="M570.7,499.4l0.6,1.5c0,0.1,0,0.3-0.1,0.3l0,0c-0.1,0-0.3,0-0.3-0.1l-0.6-1.5c0-0.1,0-0.3,0.1-0.3l0,0
									C570.5,499.2,570.7,499.3,570.7,499.4z"/>
							</g>
							<g>
								<path class="st19" d="M571.6,500.9l1.5-0.6c0.1,0,0.3,0,0.3,0.1l0,0c0,0.1,0,0.3-0.1,0.3l-1.5,0.6c-0.1,0-0.3,0-0.3-0.1l0,0
									C571.4,501.1,571.4,501,571.6,500.9z"/>
							</g>
							<g>
								<g>
									<path class="st19" d="M573.1,498.5l0.6,1.5c0,0.1,0,0.3-0.1,0.3l0,0c-0.1,0-0.3,0-0.3-0.1l-0.6-1.5c0-0.1,0-0.3,0.1-0.3
										l0,0C572.9,498.3,573,498.4,573.1,498.5z"/>
								</g>
								<g>
									<path class="st19" d="M573.9,500.7l0.6,1.5c0,0.1,0,0.3-0.1,0.3l0,0c-0.1,0-0.3,0-0.3-0.1l-0.6-1.5c0-0.1,0-0.3,0.1-0.3
										l0,0C573.7,500.5,573.9,500.5,573.9,500.7z"/>
								</g>
							</g>
							<g>
								<path class="st19" d="M569.7,499.7l0.6,1.5c0,0.1,0,0.3-0.1,0.3l0,0c-0.1,0-0.3,0-0.3-0.1l-0.6-1.5c0-0.1,0-0.3,0.1-0.3l0,0
									C569.6,499.6,569.7,499.6,569.7,499.7z"/>
							</g>
							<g>
								<path class="st19" d="M568.2,502.8l0.6,1.5c0,0.1,0,0.3-0.1,0.3l0,0c-0.1,0-0.3,0-0.3-0.1l-0.6-1.5c0-0.1,0-0.3,0.1-0.3l0,0
									C568,502.7,568.2,502.7,568.2,502.8z"/>
							</g>
							<g>
								<path class="st19" d="M569,499.7l-1.5,0.6c-0.1,0-0.3,0-0.3-0.1l0,0c0-0.1,0-0.3,0.1-0.3l1.5-0.6c0.1,0,0.3,0,0.3,0.1l0,0
									C569.2,499.5,569.1,499.7,569,499.7z"/>
							</g>
							<g>
								<path class="st19" d="M569.9,502l-1.5,0.6c-0.1,0-0.3,0-0.3-0.1l0,0c0-0.1,0-0.3,0.1-0.3l1.5-0.6c0.1,0,0.3,0,0.3,0.1l0,0
									C570.1,501.9,570,502,569.9,502z"/>
							</g>
							<g>
								<path class="st19" d="M570.8,504.4l-1.5,0.6c-0.1,0-0.3,0-0.3-0.1l0,0c0-0.1,0-0.3,0.1-0.3l1.5-0.6c0.1,0,0.3,0,0.3,0.1l0,0
									C571,504.2,570.9,504.3,570.8,504.4z"/>
							</g>
						</g>
						<g>
							<g>
								<g>
									<g>
										<g>
											<path class="st3" d="M568.4,506.3c-0.3,0.1-0.6-0.1-0.8-0.4l0.1,0C567.8,506.2,568.1,506.3,568.4,506.3L568.4,506.3z"/>
										</g>
									</g>
									<g>
										<g>
											<g>
												<polygon class="st3" points="568.5,506.2 568.2,506.2 568.3,506.3 568.3,506.5 												"/>
											</g>
										</g>
									</g>
									<g>
										<g>
											<g>
												<polygon class="st3" points="567.6,505.7 567.8,506 567.6,506 567.5,506.1 												"/>
											</g>
										</g>
									</g>
								</g>
								<g>
									<g>
										<path class="st3" d="M567.3,505.7l0.6-0.2c0,0,0.1,0,0.1,0l0,0c0,0,0,0.1,0,0.1l-0.6,0.2c0,0-0.1,0-0.1,0l0,0
											C567.2,505.7,567.2,505.7,567.3,505.7z"/>
									</g>
								</g>
								<g>
									<g>
										<path class="st3" d="M568.7,506.5l-0.2-0.6c0,0,0-0.1,0-0.1l0,0c0,0,0.1,0,0.1,0l0.2,0.6c0,0,0,0.1,0,0.1l0,0
											C568.8,506.6,568.7,506.6,568.7,506.5z"/>
									</g>
								</g>
							</g>
							<g>
								<g>
									<g>
										<g>
											<path class="st3" d="M576.2,502.9c0,0-0.1,0-0.1,0c0,0-0.1,0-0.1,0c0,0-0.1,0-0.1,0.1c0,0-0.1,0.1-0.1,0.1
												c0,0,0,0.1,0,0.1c0,0,0,0.1,0,0.1c0,0,0,0.1,0.1,0.1c0,0,0.1,0.1,0.1,0.1c0,0,0.1,0,0.1,0c0,0,0.1,0,0.1,0
												c0,0,0.1,0,0.1-0.1s0.1-0.1,0.1-0.1l0.2,0c0,0.1-0.1,0.1-0.1,0.2c-0.1,0-0.1,0.1-0.2,0.1c-0.1,0-0.1,0-0.2,0
												c-0.1,0-0.1,0-0.2,0c-0.1,0-0.1-0.1-0.2-0.1c0,0-0.1-0.1-0.1-0.2c0-0.1,0-0.1,0-0.2c0-0.1,0-0.1,0-0.2
												c0-0.1,0.1-0.1,0.1-0.2c0.1,0,0.1-0.1,0.2-0.1c0.1,0,0.1,0,0.2,0c0.1,0,0.1,0,0.2,0.1L576.2,502.9z"/>
										</g>
									</g>
								</g>
								<g>
									<g>
										<path class="st3" d="M575.5,503c-0.1,0-0.2,0-0.3-0.1c0-0.1,0-0.2,0.1-0.3c0.1,0,0.2,0,0.3,0.1
											C575.6,502.9,575.6,503,575.5,503z M575.3,502.7c-0.1,0-0.1,0.1-0.1,0.2c0,0.1,0.1,0.1,0.2,0.1c0.1,0,0.1-0.1,0.1-0.2
											C575.5,502.7,575.4,502.7,575.3,502.7z"/>
									</g>
								</g>
							</g>
						</g>
						<g>
							<path class="st21" d="M567.8,507.6c-0.4,0-0.7-0.2-0.8-0.6l-3.2-8.6c-0.1-0.2-0.1-0.4,0-0.7c0.1-0.2,0.3-0.4,0.5-0.4l8.6-3.2
								c0.1,0,0.2-0.1,0.3-0.1c0.4,0,0.7,0.2,0.8,0.6l3.2,8.6c0.2,0.4-0.1,0.9-0.5,1.1l-8.6,3.2C568,507.6,567.9,507.6,567.8,507.6z
								 M573.2,494.3c-0.1,0-0.2,0-0.2,0l-8.6,3.2c-0.2,0.1-0.3,0.2-0.4,0.3c-0.1,0.2-0.1,0.3,0,0.5l3.2,8.6
								c0.1,0.3,0.5,0.5,0.8,0.4l8.6-3.2c0.3-0.1,0.5-0.5,0.4-0.8l-3.2-8.6C573.7,494.5,573.4,494.3,573.2,494.3z"/>
						</g>
					</g>
				</g>
				<g>
					<path class="st28" d="M627.6,501.8c-1,0.5-2.2,1.1-3.4,1.7h0c-0.5,0.2-1.1,0.5-1.6,0.7h0l-0.3,0.1l-26.9,8.1l-0.3,0.1
						c0,0-0.5,0.4-1.4,0.9c-1.2,0.7-3,1.8-4.9,2.8l-6.9-7.4c0.3-0.5-0.1-1-0.8-1.3l-1.1-3.1c4.5-1.2,10.5,1.5,10.5,1.5l0.5-0.3
						l1.8-0.9l21.4-11.1l5-2l0.2,0.2l1.7,2l6.5,7.7L627.6,501.8z"/>
				</g>
				<g>
					<path class="st28" d="M631,499.8c-0.9,0.6-2.1,1.3-3.4,2c-1,0.5-2.2,1.1-3.4,1.7l0,0c-1.7,0.3-3,0.4-3,0.4l-7.4-9.6l0.4-0.2
						l5.1-2.1l5-2.7l5.4-2.9c0,0,0.4,1.3,0.7,3.2c0,0.1,0.1,0.3,0.1,0.4c0,0.1,0.1,0.3,0.1,0.4c0.1,0.4,0.2,0.9,0.2,1.4
						c0,0.1,0,0.2,0,0.3c0.2,1.1,0.3,2.3,0.4,3.5c0,0,0,0,0,0C631.3,497.1,631.3,498.6,631,499.8z"/>
				</g>
				<g>
					<path class="st29" d="M591,505.7l2.6,7.4l0.1,0.2c0.9-0.5,1.4-0.9,1.4-0.9l0.3-0.1l26.9-8.1c0,0,0.1,0,0.1-0.1l0,0
						c1.2-0.6,2.3-1.1,3.4-1.7c0.6-0.3,1.2-0.6,1.7-0.9l-6.5-7.7l-1.7-2l-0.2-0.2l-5,2l-21.4,11.1L591,505.7z"/>
				</g>
				<g>
					<path class="st32" d="M633.2,497.6c-0.2,0.6-1,1.3-2.2,2.2c-0.9,0.6-2.1,1.3-3.4,2c-1,0.5-2.2,1.1-3.4,1.7l0,0
						c-0.5,0.2-1.1,0.5-1.6,0.7c0,0,0,0,0,0c-10.1,4.5-26.5,10.1-26.5,10.1l-0.7-1.9l-2.7-7.6l-0.8-2.4l22.8-12.2l-4.2-9.7l-0.3-6.9
						l0.3-3l2.1-19.4c0,0,5.4,4.5,9.6,15C622.1,466.2,634.3,494.3,633.2,497.6z"/>
				</g>
				<g>
					<path class="st28" d="M588.8,516.2c0,0-7.9,4.9-11.1,5.3c-5.4,0.6-6.6-0.9-6.6-0.9s-1.4,0.5-2.2-0.4c-0.8-1-0.5-1.6-0.5-1.6
						s-0.8-0.7-0.9-1.4c-0.1-0.5,0.3-1.3,0.3-1.3s-1.7-0.8-1.6-1.5c0-0.7,0.5-1.3,0.5-1.3s8.5-1.4,10.4-1.9c2.7-0.7,4.9-2.4,4.9-2.4
						s4.6,1.5,5,2S588.8,516.2,588.8,516.2z"/>
				</g>
				<g>
					<g>
						<path class="st29" d="M571.9,520.6c-0.2,0-0.3,0-0.3,0l0-0.4c0,0,4,0.2,9.1-3l0.2,0.3C576.5,520.3,572.9,520.6,571.9,520.6z"
							/>
					</g>
					<g>
						<path class="st29" d="M569.2,518.5l0-0.4c0,0,4.4-0.4,6.9-1.6l0.2,0.4C573.6,518.1,569.3,518.5,569.2,518.5z"/>
					</g>
					<g>
						<path class="st29" d="M568.8,515.9l0-0.4c0.1,0,5.7-0.3,7.2-1.3l0.2,0.3C574.6,515.6,569,515.9,568.8,515.9z"/>
					</g>
				</g>
			</g>
		</g>
	</g>
</g>
</svg>
