<svg width="162" height="119" viewBox="0 0 162 119" fill="none" xmlns="http://www.w3.org/2000/svg">
<path opacity="0.1" d="M36.8201 47.1443C35.0192 47.1443 33.291 47.4128 31.5708 47.6576C32.128 45.8256 32.7014 43.9619 33.6221 42.2878C34.5427 39.8555 35.9802 37.7471 37.4097 35.6228C38.6049 33.3248 40.7128 31.7691 42.2633 29.8028C43.8866 27.8918 46.0994 26.6204 47.8519 25.0331C49.5721 23.3747 51.8253 22.5456 53.6181 21.3768C55.4918 20.3266 57.1231 19.1657 58.8675 18.6129L63.2205 16.8598L67.0485 15.3041L63.1316 0L58.3103 1.13715C56.7678 1.5162 54.8861 1.95842 52.7459 2.48751C50.5574 2.88236 48.2234 3.96423 45.6229 4.95134C43.0548 6.0727 40.0828 6.8308 37.3209 8.63128C34.5427 10.3528 31.3366 11.79 28.51 14.0959C25.7722 16.4729 22.4692 18.534 20.0302 21.5585C17.3652 24.3855 14.7324 27.3548 12.6892 30.7346C10.3229 33.9566 8.7158 37.4944 7.01985 40.9927C5.48541 44.491 4.24979 48.0683 3.2403 51.5429C1.32629 58.5079 0.470241 65.1255 0.139127 70.7876C-0.135456 76.4575 0.0260632 81.172 0.365254 84.5834C0.486393 86.1944 0.712521 87.758 0.87404 88.8398L1.07594 90.1665L1.28591 90.1191C2.72231 96.6801 6.02895 102.709 10.8233 107.509C15.6177 112.31 21.7039 115.684 28.3779 117.244C35.0518 118.803 42.0408 118.482 48.5364 116.32C55.032 114.157 60.7686 110.24 65.0828 105.023C69.397 99.8052 72.1125 93.4999 72.915 86.8364C73.7175 80.1728 72.5743 73.4232 69.6177 67.3684C66.6611 61.3136 62.0118 56.201 56.2077 52.622C50.4036 49.043 43.6819 47.1439 36.8201 47.1443ZM125.656 47.1443C123.855 47.1443 122.127 47.4128 120.406 47.6576C120.964 45.8256 121.537 43.9619 122.458 42.2878C123.378 39.8555 124.816 37.7471 126.245 35.6228C127.441 33.3248 129.548 31.7691 131.099 29.8028C132.722 27.8918 134.935 26.6204 136.687 25.0331C138.408 23.3747 140.661 22.5456 142.454 21.3768C144.327 20.3266 145.959 19.1657 147.703 18.6129L152.056 16.8598L155.884 15.3041L151.967 0L147.146 1.13715C145.603 1.5162 143.722 1.95842 141.582 2.48751C139.393 2.88236 137.059 3.96423 134.459 4.95134C131.898 6.08059 128.918 6.83079 126.156 8.63918C123.378 10.3607 120.172 11.7979 117.346 14.1038C114.608 16.4808 111.305 18.5419 108.866 21.5585C106.201 24.3855 103.568 27.3548 101.525 30.7346C99.1585 33.9566 97.5514 37.4944 95.8554 40.9927C94.321 44.491 93.0854 48.0683 92.0759 51.5429C90.1619 58.5079 89.3058 65.1255 88.9747 70.7876C88.7001 76.4575 88.8616 81.172 89.2008 84.5834C89.322 86.1944 89.5481 87.758 89.7096 88.8398L89.9115 90.1665L90.1215 90.1191C91.5579 96.6801 94.8645 102.709 99.6589 107.509C104.453 112.31 110.539 115.684 117.213 117.244C123.887 118.803 130.876 118.482 137.372 116.32C143.868 114.157 149.604 110.24 153.918 105.023C158.233 99.8052 160.948 93.4999 161.751 86.8364C162.553 80.1728 161.41 73.4232 158.453 67.3684C155.497 61.3136 150.847 56.201 145.043 52.622C139.239 49.043 132.518 47.1439 125.656 47.1443Z" fill="#63B1F3"/>
</svg>
