<svg xmlns="http://www.w3.org/2000/svg" version="1.1" xmlns:xlink="http://www.w3.org/1999/xlink" width="512" height="512" x="0" y="0" viewBox="0 0 481.954 481" style="enable-background:new 0 0 512 512" xml:space="preserve"><g><path d="M296.879 206.594a7.995 7.995 0 0 0 10.484.508l54.059-42.579 67.59 52.532-34.59 2.468a8 8 0 0 0-7.43 8.262 7.996 7.996 0 0 0 8.57 7.7l55.348-3.954a8.005 8.005 0 0 0 7.406-8.594l-3.953-51.394c-.34-4.406-4.187-7.703-8.59-7.363a7.999 7.999 0 0 0-7.363 8.59l2.563 33.316L366.3 148.05a7.995 7.995 0 0 0-9.86.031l-53.5 42.145-51.644-49.54a8.003 8.003 0 0 0-11.317.231 8.008 8.008 0 0 0 .23 11.32zM473.953 424.035H436v-94.258c0-4.418-3.922-7.742-8.34-7.742h-77.219c-4.418 0-8.441 3.324-8.441 7.742v94.258h-49V257.582c0-4.418-3.848-7.547-8.266-7.547h-77.218a7.238 7.238 0 0 0-5.418 2.121 7.211 7.211 0 0 0-2.098 5.426v166.453h-50V218.816a7.986 7.986 0 0 0-2.48-5.59 8.003 8.003 0 0 0-5.711-2.19h-77.22a7.503 7.503 0 0 0-5.472 2.253A7.482 7.482 0 0 0 57 218.816v205.22H16V57.03a8 8 0 0 0-16 0v374.567c0 4.422 3.629 8.437 8.047 8.437h465.906a8 8 0 0 0 0-16zm-400.953 0v-197h61v197zm143 0v-158h61v158zm142 0v-86h62v86zm0 0" fill="#03b5ff" opacity="1" data-original="#000000"></path><path d="M130.156 138.129a8.192 8.192 0 0 0-1.156-.094c-.266 0-.535.016-.8.043-8.134-.777-14.348-7.61-14.36-15.781a8 8 0 0 0-16 0c.02 14.238 9.469 26.738 23.16 30.64v7.098c0 4.422 3.582 8 8 8s8-3.578 8-8v-6.738c15.738-3.707 26.203-18.621 24.332-34.68-1.867-16.062-15.469-28.176-31.64-28.176-8.758 0-15.856-7.097-15.856-15.855s7.098-15.856 15.855-15.856c8.758 0 15.856 7.102 15.856 15.86a8 8 0 0 0 16 0c-.02-15.156-10.695-28.207-25.547-31.227v-7.328a8 8 0 0 0-16 0v8.211c-14.957 4.774-24.207 19.734-21.79 35.25 2.419 15.512 15.782 26.953 31.481 26.95 8.66.003 15.711 6.956 15.84 15.613.125 8.66-6.722 15.816-15.375 16.074zm0 0" fill="#03b5ff" opacity="1" data-original="#000000"></path><path d="M129.691 197.535c54.418 0 98.532-44.113 98.532-98.527 0-54.418-44.114-98.531-98.532-98.531s-98.53 44.113-98.53 98.53c.062 54.391 44.14 98.47 98.53 98.528zm0-181.058c45.582 0 82.532 36.949 82.532 82.53 0 45.579-36.95 82.528-82.532 82.528-45.578 0-82.53-36.95-82.53-82.527.05-45.559 36.972-82.48 82.53-82.531zm0 0" fill="#03b5ff" opacity="1" data-original="#000000"></path></g></svg>