<svg width="60" height="60" viewBox="0 0 60 60" fill="none" xmlns="http://www.w3.org/2000/svg">
<g clip-path="url(#clip0_55573_38681)">
<path d="M58.8993 25.7387C58.6179 23.8147 58.1482 21.9376 57.4999 20.1296C57.5557 20.0381 57.5959 19.935 57.6154 19.823L58.2227 16.3166C58.9509 12.1138 57.5798 7.88156 54.5548 4.99488C54.4788 4.92246 54.402 4.85086 54.3246 4.78055C51.4867 2.20125 47.6387 1.08785 43.7681 1.72559L40.0099 2.29242C39.8809 2.31188 39.7632 2.3591 39.6608 2.42613C37.917 1.81605 36.1109 1.37063 34.2613 1.10039C33.9443 0.450234 33.2787 0 32.508 0H27.4918C26.7211 0 26.0554 0.450351 25.7387 1.10074C23.8944 1.37051 22.1053 1.81336 20.3884 2.41219L16.2381 1.72664C12.3646 1.08656 8.51484 2.19984 5.67539 4.78066C5.37082 5.05746 5.07656 5.35195 4.80023 5.65582C2.21953 8.49516 1.10637 12.3451 1.74621 16.2185L2.38934 20.1115C2.40023 20.1777 2.4191 20.2405 2.44336 20.3002C1.8293 22.0431 1.37531 23.8615 1.10074 25.7387C0.450469 26.0554 0 26.7212 0 27.492V32.508C0 33.2788 0.450469 33.9446 1.10086 34.2613C1.36805 36.0893 1.80223 37.8673 2.39391 39.5811C2.35348 39.6592 2.32395 39.7445 2.30812 39.8355L1.77832 42.8886C1.04883 47.0931 2.41969 51.3268 5.44547 54.2137C5.52117 54.2861 5.59781 54.3573 5.67551 54.428C7.98879 56.5305 10.9725 57.6588 14.0937 57.6588C14.8034 57.6588 15.5207 57.6004 16.2382 57.4819L18.9152 57.0397C21.085 57.9274 23.3702 58.5525 25.7384 58.8986C26.0549 59.5494 26.7209 60.0002 27.492 60.0002H32.5082C33.2793 60.0002 33.9452 59.5494 34.2618 58.8986C36.6299 58.5526 38.9152 57.9275 41.0849 57.0398L43.7619 57.482C44.4799 57.6006 45.1964 57.6589 45.9066 57.6589C49.0273 57.6588 52.0116 56.5304 54.3245 54.4282C54.5541 54.2196 54.7793 53.9995 54.9942 53.7739C57.6847 50.9486 58.9027 46.9146 58.2521 42.9831L57.6945 39.6128C57.6852 39.5566 57.6703 39.5029 57.6513 39.4513C58.2203 37.7777 58.6387 36.0432 58.8991 34.2616C59.5496 33.945 60.0001 33.2791 60.0001 32.5083V27.4922C60 26.7212 59.5496 26.0555 58.8993 25.7387ZM49.3679 49.453C46.8451 51.9649 43.9277 53.9276 40.7371 55.281C40.6624 55.3011 40.5908 55.3302 40.5247 55.3686C38.5923 56.169 36.5617 56.7476 34.459 57.0899V47.642C40.9432 46.0091 46.0133 40.9283 47.642 34.459H57.0901C56.1602 40.1664 53.4974 45.3414 49.3679 49.453ZM19.4783 55.3698C19.4106 55.3302 19.3371 55.3002 19.2602 55.2797C16.0714 53.9266 13.1556 51.965 10.6339 49.4548C6.50344 45.343 3.83988 40.1672 2.90988 34.4589H12.3579C13.9859 40.9143 19.083 46.013 25.541 47.6414V57.0898C23.4394 56.7477 21.4098 56.1695 19.4783 55.3698ZM12.5531 27.2988C12.6596 27.2988 12.7462 27.3854 12.7462 27.492V32.508C12.7462 32.6146 12.6596 32.7012 12.5531 32.7012H1.95094C1.84441 32.7012 1.75781 32.6146 1.75781 32.508V27.492C1.75781 27.3854 1.84441 27.2988 1.95094 27.2988H12.5531ZM26.1963 45.9922C20.1805 44.5666 15.433 39.8167 14.0079 33.8036C14.3154 33.4586 14.5041 33.0055 14.5041 32.508V27.492C14.5041 26.9941 14.3152 26.5409 14.0072 26.1957C14.5995 23.6984 15.789 21.3435 17.4579 19.3755C17.7718 19.0054 17.7261 18.4507 17.3559 18.1368C16.9855 17.8227 16.4311 17.8684 16.1171 18.2387C14.3255 20.3515 13.032 22.8679 12.3571 25.541H2.91012C4.80469 13.9433 13.9761 4.80094 25.541 2.91082V12.356C23.1905 12.947 21.0131 13.9893 19.0631 15.4582C18.6754 15.7502 18.5979 16.3014 18.8899 16.689C19.0627 16.9184 19.326 17.0392 19.5926 17.0392C19.7766 17.0392 19.9623 16.9815 20.1207 16.8622C21.9441 15.4888 23.9872 14.5296 26.1954 14.007C26.5405 14.315 26.9939 14.5042 27.4918 14.5042H32.508C33.0054 14.5042 33.4584 14.3155 33.8033 14.008C39.836 15.4369 44.5657 20.173 45.9921 26.1963C45.6845 26.5413 45.4957 26.9945 45.4957 27.492V32.508C45.4957 33.006 45.6847 33.4594 45.9928 33.8045C44.5661 39.8306 39.8439 44.5617 33.8033 45.9921C33.4583 45.6846 33.0053 45.4959 32.5079 45.4959H27.4917C26.9945 45.4958 26.5413 45.6846 26.1963 45.9922ZM58.0491 27.2988C58.1556 27.2988 58.2422 27.3854 58.2422 27.492V32.508C58.2422 32.6146 58.1556 32.7012 58.0491 32.7012H47.4469C47.3404 32.7012 47.2537 32.6146 47.2537 32.508V27.492C47.2537 27.3854 47.3404 27.2988 47.4469 27.2988H58.0491ZM44.0361 3.46289C44.0402 3.4623 44.0442 3.4616 44.0483 3.46102C47.3395 2.91715 50.7388 3.89695 53.1423 6.08156C53.2096 6.14262 53.2761 6.20461 53.3414 6.26695C55.9412 8.74781 57.1184 12.3925 56.4906 16.0166L56.2798 17.2335C55.1057 14.8207 53.5948 12.5664 51.7743 10.5315C51.4505 10.17 50.8952 10.1387 50.5331 10.4626C50.1714 10.7863 50.1404 11.3419 50.4641 11.7036C53.9651 15.6166 56.2495 20.3914 57.0902 25.5411H47.643C46.0143 19.0747 40.9348 13.9895 34.4588 12.3581V2.90977C39.4969 3.7316 44.1784 5.93566 48.0514 9.31922C48.2182 9.46488 48.4242 9.53625 48.6294 9.53625C48.8742 9.53625 49.1179 9.43441 49.2916 9.23566C49.611 8.87004 49.5735 8.31492 49.208 7.99547C47.2103 6.25031 45.0098 4.80105 42.6625 3.67008L44.0361 3.46289ZM27.2988 1.95094C27.2988 1.84441 27.3854 1.75781 27.4918 1.75781H32.508C32.6145 1.75781 32.7011 1.84441 32.7011 1.95094V12.5531C32.7011 12.6596 32.6145 12.7462 32.508 12.7462H27.4918C27.3854 12.7462 27.2988 12.6596 27.2988 12.5531V1.95094ZM3.48047 15.932C2.93684 12.641 3.91664 9.24152 6.1009 6.83813C6.33973 6.57527 6.59438 6.32063 6.85758 6.08133C9.29695 3.86426 12.6117 2.90941 15.9516 3.4609L17.3164 3.68637C11.3943 6.54902 6.5768 11.3537 3.70301 17.2786L3.48047 15.932ZM15.9516 55.7474C12.6108 56.2991 9.29684 55.3439 6.85793 53.1273C6.7909 53.0662 6.72434 53.0045 6.65883 52.9418C4.0582 50.4606 2.88117 46.8146 3.51023 43.1891L3.61734 42.5718C5.04223 45.56 6.9832 48.3008 9.39387 50.7006C11.4171 52.7147 13.6796 54.3957 16.1249 55.7187L15.9516 55.7474ZM32.7012 58.0491C32.7012 58.1556 32.6146 58.2422 32.5082 58.2422H27.492C27.3855 58.2422 27.2989 58.1556 27.2989 58.0491V47.4469C27.2989 47.3404 27.3855 47.2537 27.492 47.2537H32.5082C32.6146 47.2537 32.7012 47.3404 32.7012 47.4469V58.0491ZM56.5178 43.2697C57.0786 46.66 56.0332 50.1334 53.7212 52.5614C53.5355 52.7564 53.3407 52.9467 53.1422 53.1271C50.7389 55.3116 47.3393 56.2913 44.0484 55.7475L43.8751 55.7189C46.3213 54.3955 48.5844 52.7137 50.6082 50.6987C53.0264 48.2911 54.9715 45.5402 56.3972 42.5408L56.5178 43.2697Z" fill="#00B5FF"/>
</g>
<defs>
<clipPath id="clip0_55573_38681">
<rect width="60" height="60" fill="white"/>
</clipPath>
</defs>
</svg>
