<svg width="60" height="60" viewBox="0 0 60 60" fill="none" xmlns="http://www.w3.org/2000/svg">
<path d="M57.1877 30.9337H55.7552C55.6577 30.6581 55.5462 30.3881 55.4205 30.1247L56.433 29.1122C56.6093 28.9359 56.7077 28.6988 56.7077 28.4494C56.7077 28.2 56.6093 27.9619 56.433 27.7866L55.3127 26.6663V18.75C55.3127 16.7466 54.5327 14.8631 53.1162 13.4466C52.5255 12.8569 51.8515 12.3844 51.1249 12.0253C52.3558 11.1272 53.2221 9.75656 53.3983 8.14969C53.4274 7.93594 53.4377 7.72219 53.4377 7.5C53.4377 7.31625 53.4283 7.14094 53.4105 6.98437C53.1471 4.12031 50.688 1.875 47.8127 1.875C44.9374 1.875 42.4783 4.12031 42.2168 6.9675C42.1971 7.14094 42.1877 7.31625 42.1877 7.5C42.1877 7.72219 42.198 7.93594 42.2243 8.12625C42.4024 9.74906 43.2724 11.1272 44.5071 12.0281C42.7962 12.8728 41.4555 14.3484 40.7862 16.1513L35.4321 7.215L32.6196 2.34375C32.4949 2.12906 32.2905 1.97156 32.0505 1.90687C31.8105 1.84406 31.5546 1.87688 31.339 2.00063L24.844 5.75062C24.3949 6.00937 24.2421 6.58219 24.5008 7.03125L27.3133 11.9025C27.438 12.1172 27.6424 12.2747 27.8824 12.3394C27.9621 12.36 28.0437 12.3713 28.1252 12.3713C28.2883 12.3713 28.4505 12.3281 28.594 12.2456L34.2902 8.95687L40.3127 19.0087V26.6653L39.1924 27.7856C39.0162 27.9619 38.9177 28.1991 38.9177 28.4484C38.9177 28.6978 39.0162 28.9359 39.1924 29.1113L40.2002 30.1191C40.0737 30.3834 39.9612 30.6553 39.8637 30.9328H38.4377C37.9202 30.9328 37.5002 31.3519 37.5002 31.8703V35.6278C37.5002 36.1462 37.9202 36.5653 38.4377 36.5653H39.8627C39.9602 36.8428 40.0737 37.1147 40.1993 37.3791L39.1915 38.3869C39.0152 38.5631 38.9168 38.8003 38.9168 39.0497C38.9168 39.2991 39.0152 39.5372 39.1915 39.7125L41.8483 42.3694C42.1999 42.7209 42.8224 42.7209 43.174 42.3694L44.1827 41.3606C44.4471 41.4872 44.719 41.5988 44.9955 41.6963V43.125C44.9955 43.6434 45.4155 44.0625 45.933 44.0625H49.6905C50.208 44.0625 50.628 43.6434 50.628 43.125V41.6953C50.9037 41.5978 51.1746 41.4853 51.438 41.3597L52.4496 42.3712C52.6258 42.5475 52.864 42.6459 53.1124 42.6459C53.3608 42.6459 53.5999 42.5475 53.7752 42.3712L56.4321 39.7144C56.6084 39.5381 56.7068 39.3009 56.7068 39.0516C56.7068 38.8022 56.6084 38.5641 56.4321 38.3888L55.4196 37.3763C55.5452 37.1128 55.6568 36.8428 55.7543 36.5672H57.1877C57.7052 36.5672 58.1252 36.1481 58.1252 35.6297V31.8722C58.1252 31.3528 57.7052 30.9337 57.1877 30.9337ZM28.4683 10.1531L26.5933 6.90563L31.4646 4.09313L33.3396 7.34062L28.4683 10.1531ZM47.8127 3.75C49.0165 3.75 50.1096 4.34156 50.8015 5.25844C49.8415 4.88813 48.8168 4.6875 47.7752 4.6875C46.7627 4.6875 45.783 4.8675 44.8624 5.20875C45.5543 4.32281 46.6296 3.75 47.8127 3.75ZM44.0852 7.8975C44.0787 7.84594 44.0796 7.79156 44.0758 7.73906C45.1662 6.98063 46.4299 6.5625 47.7752 6.5625C49.1533 6.5625 50.4415 6.9975 51.5449 7.78781C51.5412 7.83281 51.543 7.87219 51.5365 7.92187C51.3283 9.81937 49.7271 11.25 47.8127 11.25C45.8983 11.25 44.2971 9.81937 44.0852 7.8975ZM48.6527 17.6747L47.8127 18.9347L46.9727 17.6737L47.8127 15.1519L48.6527 17.6747ZM42.1877 18.75C42.1877 16.1175 44.0083 13.9078 46.4543 13.2975L45.048 17.5153C44.9562 17.79 44.9965 18.0909 45.1577 18.3319L47.0327 21.1444C47.2071 21.4059 47.4996 21.5625 47.8127 21.5625C48.1258 21.5625 48.4183 21.4059 48.5927 21.1453L50.4677 18.3328C50.628 18.0919 50.6683 17.7909 50.5774 17.5163L49.1712 13.2966C50.1537 13.5394 51.0574 14.0391 51.7915 14.7731C52.8527 15.8353 53.4377 17.2472 53.4377 18.75V24.9253C53.104 24.8091 52.7065 24.8738 52.4505 25.1288L51.439 26.1403C51.1746 26.0137 50.9046 25.9022 50.629 25.8047V24.375C50.629 23.8566 50.209 23.4375 49.6915 23.4375H45.934C45.4165 23.4375 44.9965 23.8566 44.9965 24.375V25.8019C44.7199 25.8994 44.449 26.0119 44.1837 26.1375L43.1749 25.1288C42.9987 24.9525 42.7605 24.8541 42.5121 24.8541C42.3996 24.8541 42.2908 24.8803 42.1877 24.9187V18.75ZM56.2502 34.6913H55.0624C54.6349 34.6913 54.2618 34.9809 54.1549 35.3944C54.0021 35.985 53.7687 36.5494 53.4602 37.0725C53.2437 37.4419 53.3037 37.9097 53.6055 38.2116L54.4455 39.0516L53.1143 40.3828L52.2752 39.5438C51.9733 39.2419 51.5055 39.18 51.1362 39.3994C50.6121 39.7078 50.0468 39.9422 49.4562 40.095C49.0427 40.2009 48.753 40.575 48.753 41.0025V42.1875H46.8705V41.0044C46.8705 40.5769 46.5808 40.2038 46.1674 40.0969C45.5758 39.9441 45.0105 39.7097 44.4855 39.4012C44.1171 39.1828 43.6483 39.2437 43.3474 39.5456L42.5121 40.3819L41.1808 39.0506L42.0162 38.2153C42.319 37.9134 42.378 37.4447 42.1605 37.0763C41.8512 36.5513 41.6168 35.985 41.464 35.3934C41.3571 34.98 40.984 34.6903 40.5565 34.6903H39.3752V32.8078H40.5555C40.983 32.8078 41.3562 32.5181 41.463 32.1047C41.6158 31.5131 41.8502 30.9469 42.1596 30.4219C42.3771 30.0534 42.3171 29.5847 42.0152 29.2828L41.1799 28.4475L42.5112 27.1162L43.3465 27.9525C43.6474 28.2544 44.1171 28.3153 44.4846 28.0969C45.0096 27.7884 45.5758 27.5541 46.1665 27.4013C46.5799 27.2953 46.8696 26.9213 46.8696 26.4938V25.3125H48.7521V26.4984C48.7521 26.9259 49.0408 27.2991 49.4552 27.4059C50.0458 27.5587 50.6102 27.7931 51.1352 28.1016C51.5046 28.32 51.9724 28.2581 52.2743 27.9572L53.1124 27.1181L54.4437 28.4494L53.6037 29.2894C53.3018 29.5913 53.2418 30.0591 53.4583 30.4284C53.7668 30.9516 54.0002 31.5159 54.153 32.1066C54.2599 32.52 54.633 32.8097 55.0605 32.8097H56.2502V34.6913Z" fill="#02B5FF"/>
<path d="M47.8125 29.0625C45.2278 29.0625 43.125 31.1653 43.125 33.75C43.125 36.3347 45.2278 38.4375 47.8125 38.4375C50.3972 38.4375 52.5 36.3347 52.5 33.75C52.5 31.1653 50.3972 29.0625 47.8125 29.0625ZM47.8125 36.5625C46.2619 36.5625 45 35.3006 45 33.75C45 32.1994 46.2619 30.9375 47.8125 30.9375C49.3631 30.9375 50.625 32.1994 50.625 33.75C50.625 35.3006 49.3631 36.5625 47.8125 36.5625Z" fill="#02B5FF"/>
<path d="M21.5625 50.6288C22.08 50.6288 22.5 50.2097 22.5 49.6913V45.9337C22.5 45.4153 22.08 44.9962 21.5625 44.9962H20.13C20.0325 44.7206 19.9209 44.4506 19.7953 44.1872L20.8078 43.1747C20.9841 42.9984 21.0825 42.7613 21.0825 42.5119C21.0825 42.2625 20.9841 42.0244 20.8078 41.8491L19.6875 40.7288V32.8125C19.6875 30.8091 18.9075 28.9256 17.4909 27.5091C16.9003 26.9194 16.2263 26.4469 15.4997 26.0878C16.7306 25.1897 17.5969 23.8191 17.7731 22.2122C17.8022 21.9984 17.8125 21.7847 17.8125 21.5625C17.8125 21.3788 17.8031 21.2034 17.7853 21.0469C17.5219 18.1828 15.0628 15.9375 12.1875 15.9375C9.31219 15.9375 6.85313 18.1828 6.59156 21.03C6.57188 21.2034 6.5625 21.3788 6.5625 21.5625C6.5625 21.7847 6.57281 21.9984 6.59906 22.1887C6.77719 23.8116 7.64719 25.1897 8.88187 26.0906C6.40125 27.3159 4.6875 29.8641 4.6875 32.8125V40.7288L3.56719 41.8491C3.39094 42.0253 3.2925 42.2625 3.2925 42.5119C3.2925 42.7613 3.39094 42.9994 3.56719 43.1747L4.575 44.1825C4.44844 44.4469 4.33594 44.7187 4.2375 44.9962H2.8125C2.295 44.9962 1.875 45.4153 1.875 45.9337V49.6913C1.875 50.2097 2.295 50.6288 2.8125 50.6288H4.2375C4.335 50.9063 4.44844 51.1781 4.57406 51.4425L3.56625 52.4503C3.39 52.6266 3.29156 52.8637 3.29156 53.1131C3.29156 53.3625 3.39 53.6006 3.56625 53.7759L6.22313 56.4328C6.57469 56.7844 7.19719 56.7844 7.54875 56.4328L8.5575 55.4241C8.82188 55.5506 9.09375 55.6622 9.37031 55.7597V57.1875C9.37031 57.7059 9.79031 58.125 10.3078 58.125H14.0653C14.5828 58.125 15.0028 57.7059 15.0028 57.1875V55.7578C15.2784 55.6603 15.5494 55.5478 15.8128 55.4222L16.8244 56.4337C17.0006 56.61 17.2387 56.7084 17.4872 56.7084C17.7356 56.7084 17.9747 56.61 18.15 56.4337L20.8069 53.7769C20.9831 53.6006 21.0816 53.3634 21.0816 53.1141C21.0816 52.8647 20.9831 52.6266 20.8069 52.4513L19.7944 51.4388C19.92 51.1753 20.0316 50.9053 20.1291 50.6297L21.5625 50.6288ZM12.1875 17.8125C13.3913 17.8125 14.4844 18.4041 15.1762 19.3209C14.2162 18.9506 13.1916 18.75 12.15 18.75C11.1375 18.75 10.1578 18.93 9.23719 19.2712C9.92906 18.3853 11.0044 17.8125 12.1875 17.8125ZM8.46 21.96C8.45344 21.9084 8.45437 21.8541 8.45062 21.8016C9.54094 21.0431 10.8047 20.625 12.15 20.625C13.5281 20.625 14.8163 21.06 15.9197 21.8503C15.9159 21.8953 15.9178 21.9347 15.9113 21.9844C15.7031 23.8819 14.1019 25.3125 12.1875 25.3125C10.2731 25.3125 8.67188 23.8819 8.46 21.96ZM13.0275 31.7372L12.1875 32.9972L11.3475 31.7363L12.1875 29.2144L13.0275 31.7372ZM6.5625 32.8125C6.5625 30.18 8.38312 27.9703 10.8291 27.36L9.42281 31.5778C9.33094 31.8525 9.37125 32.1534 9.5325 32.3944L11.4075 35.2069C11.5819 35.4684 11.8744 35.625 12.1875 35.625C12.5006 35.625 12.7931 35.4684 12.9675 35.2078L14.8425 32.3953C15.0028 32.1544 15.0431 31.8534 14.9522 31.5787L13.5459 27.3591C14.5284 27.6019 15.4322 28.1016 16.1662 28.8356C17.2275 29.8978 17.8125 31.3097 17.8125 32.8125V38.9878C17.4787 38.8716 17.0813 38.9363 16.8253 39.1913L15.8138 40.2028C15.5494 40.0762 15.2794 39.9647 15.0037 39.8672V38.4375C15.0037 37.9191 14.5837 37.5 14.0662 37.5H10.3088C9.79125 37.5 9.37125 37.9191 9.37125 38.4375V39.8644C9.09469 39.9619 8.82375 40.0744 8.55844 40.2L7.54969 39.1913C7.37344 39.015 7.13531 38.9166 6.88688 38.9166C6.77438 38.9166 6.66562 38.9428 6.5625 38.9813V32.8125ZM19.4372 48.7538C19.0097 48.7538 18.6366 49.0434 18.5297 49.4569C18.3769 50.0475 18.1434 50.6119 17.835 51.135C17.6184 51.5044 17.6784 51.9722 17.9803 52.2741L18.8203 53.1141L17.4891 54.4453L16.65 53.6063C16.3491 53.3053 15.8813 53.2425 15.5109 53.4619C14.9869 53.7703 14.4216 54.0047 13.8309 54.1575C13.4175 54.2634 13.1278 54.6375 13.1278 55.065V56.25H11.2453V55.0669C11.2453 54.6394 10.9556 54.2663 10.5422 54.1594C9.95062 54.0066 9.38531 53.7722 8.86031 53.4637C8.49 53.2453 8.02313 53.3072 7.72219 53.6081L6.88688 54.4444L5.55563 53.1131L6.39094 52.2778C6.69375 51.9759 6.75281 51.5072 6.53531 51.1388C6.22594 50.6138 5.99156 50.0475 5.83875 49.4559C5.73188 49.0425 5.35875 48.7528 4.93125 48.7528H3.75V46.8703H4.93031C5.35781 46.8703 5.73094 46.5806 5.83781 46.1672C5.99063 45.5756 6.225 45.0094 6.53437 44.4844C6.75187 44.1159 6.69187 43.6472 6.39 43.3453L5.55469 42.51L6.88594 41.1787L7.72125 42.015C8.02313 42.3159 8.49094 42.3788 8.85937 42.1594C9.38437 41.8509 9.95063 41.6166 10.5413 41.4638C10.9547 41.3578 11.2444 40.9837 11.2444 40.5562V39.375H13.1269V40.5609C13.1269 40.9884 13.4156 41.3616 13.83 41.4684C14.4206 41.6213 14.985 41.8556 15.51 42.1641C15.8803 42.3825 16.3481 42.3216 16.6491 42.0197L17.4872 41.1806L18.8184 42.5119L17.9784 43.3519C17.6766 43.6538 17.6166 44.1216 17.8331 44.4909C18.1416 45.0141 18.375 45.5784 18.5278 46.1691C18.6347 46.5825 19.0078 46.8722 19.4353 46.8722H20.625V48.7547L19.4372 48.7538Z" fill="#02B5FF"/>
<path d="M12.1875 43.125C9.60281 43.125 7.5 45.2278 7.5 47.8125C7.5 50.3972 9.60281 52.5 12.1875 52.5C14.7722 52.5 16.875 50.3972 16.875 47.8125C16.875 45.2278 14.7722 43.125 12.1875 43.125ZM12.1875 50.625C10.6369 50.625 9.375 49.3631 9.375 47.8125C9.375 46.2619 10.6369 45 12.1875 45C13.7381 45 15 46.2619 15 47.8125C15 49.3631 13.7381 50.625 12.1875 50.625Z" fill="#02B5FF"/>
<path d="M30.9375 45.9375V35.625C30.9375 35.1075 31.3584 34.6875 31.875 34.6875H35.625V32.8125H31.875C30.3244 32.8125 29.0625 34.0744 29.0625 35.625V45.9375C29.0625 46.455 28.6416 46.875 28.125 46.875H24.375V48.75H28.125C29.6756 48.75 30.9375 47.4881 30.9375 45.9375Z" fill="#02B5FF"/>
</svg>
