<svg xmlns="http://www.w3.org/2000/svg" version="1.1" xmlns:xlink="http://www.w3.org/1999/xlink" width="512" height="512" x="0" y="0" viewBox="0 0 512 512" style="enable-background:new 0 0 512 512" xml:space="preserve" class=""><g><path fill-rule="evenodd" d="m221.012 178.267-6.391 105.09a10.969 10.969 0 0 1-10.96 10.314h-4.899a10.968 10.968 0 0 1-10.96-10.314l-6.391-105.09c-.222-3.657.947-6.888 3.457-9.556 2.512-2.669 5.665-4.031 9.329-4.031h14.029c3.664 0 6.818 1.362 9.329 4.031 2.511 2.668 3.68 5.899 3.458 9.556zm-19.801 134.287c-9.6 0-17.383 7.782-17.383 17.383s7.782 17.383 17.383 17.383 17.383-7.783 17.383-17.383-7.783-17.383-17.383-17.383zm207.894-63.527h-86.202a6.973 6.973 0 0 0 0 13.946h83.001l16.78 19.454a6.98 6.98 0 0 0 10.555-9.133l-18.855-21.86a6.964 6.964 0 0 0-5.277-2.406zm42.391-53.965c3.087-11.489 13.583-19.973 26.034-19.973 14.87 0 26.973 12.098 26.973 26.968S492.4 229.03 477.53 229.03c-12.448 0-22.941-8.48-26.031-19.968h-33.164l-16.393 19.005a6.99 6.99 0 0 1-5.641 2.855H318.63a7 7 0 1 1 0-14h74.493l16.756-19.426a6.986 6.986 0 0 1 5.277-2.434zm13.078 6.995c0 7.153 5.808 12.971 12.956 12.971s12.971-5.818 12.971-12.971-5.818-12.966-12.971-12.966-12.956 5.818-12.956 12.966zm-166.937 118.1a7 7 0 0 0 7 7h75.059a7 7 0 1 0 0-14h-75.059a7 7 0 0 0-7 7zm89.059-128.314a7 7 0 0 0-7-7h-75.06a7 7 0 1 0 0 14h75.06a7 7 0 0 0 7-7zm61.065 241.016c0 15.641-12.72 28.361-28.351 28.361s-28.361-12.72-28.361-28.361c0-13.216 9.094-24.35 21.358-27.475v-46.148h-59.05l3.052 4.551c2.464 3.673 1.996 8.459-1.131 11.587l-34.906 34.905c-3.127 3.128-7.913 3.595-11.586 1.132l-22.554-15.125-46.304 19.183-5.252 26.64c-.856 4.339-4.57 7.393-8.994 7.393h-49.364c-4.423 0-8.138-3.053-8.993-7.393l-5.252-26.639-46.304-19.184-22.554 15.125c-3.673 2.463-8.459 1.996-11.587-1.132l-34.905-34.905c-3.128-3.128-3.594-7.914-1.131-11.587l15.125-22.554-19.184-46.305-26.639-5.252c-4.339-.855-7.392-4.571-7.392-8.993v-49.364c0-4.423 3.054-8.137 7.393-8.993l26.638-5.252 19.184-46.305-15.125-22.554c-2.463-3.673-1.997-8.459 1.131-11.587l34.906-34.905c3.127-3.128 7.913-3.594 11.586-1.131l22.554 15.125 46.305-19.184 5.252-26.639c.856-4.339 4.571-7.393 8.993-7.393h49.365c4.423 0 8.137 3.054 8.993 7.393l5.252 26.639 46.305 19.184 22.554-15.125c3.673-2.462 8.458-1.996 11.585 1.131l34.906 34.905c3.127 3.128 3.595 7.914 1.131 11.587l-3.052 4.551h59.05v-46.154c-12.264-3.125-21.358-14.26-21.358-27.485 0-15.627 12.72-28.346 28.361-28.346s28.351 12.72 28.351 28.346c0 13.226-9.095 24.361-21.354 27.485v53.153a7 7 0 0 1-7 7h-135.68c-22.596-20.955-51.972-32.455-82.727-32.455-67.208 0-121.691 54.483-121.691 121.691s54.483 121.691 121.691 121.691c30.75 0 60.135-11.502 82.727-32.456h135.68a7 7 0 0 1 7 7v53.148c12.259 3.124 21.354 14.258 21.354 27.476zM419.41 93.49c7.91 0 14.349-6.44 14.349-14.364s-6.44-14.344-14.349-14.344-14.359 6.435-14.359 14.344S411.49 93.49 419.41 93.49zm14.349 339.369c0-7.909-6.44-14.349-14.349-14.349s-14.359 6.44-14.359 14.349 6.439 14.359 14.359 14.359 14.349-6.439 14.349-14.359zm70.744-122.921c0 14.87-12.103 26.959-26.973 26.959-12.448 0-22.943-8.474-26.032-19.958h-36.342a6.983 6.983 0 0 1-5.277-2.433l-16.756-19.427H318.63a7 7 0 1 1 0-14h77.671a6.993 6.993 0 0 1 5.641 2.855l16.392 19.005h33.163c3.089-11.487 13.583-19.969 26.032-19.969 14.87 0 26.973 12.098 26.973 26.968zm-14.002 0c0-7.153-5.818-12.97-12.971-12.97s-12.956 5.818-12.956 12.97 5.808 12.961 12.956 12.961 12.971-5.813 12.971-12.961z" fill="#2338e2" opacity="1" data-original="#000000" class=""></path></g></svg>