<svg xmlns="http://www.w3.org/2000/svg" version="1.1" xmlns:xlink="http://www.w3.org/1999/xlink" width="512" height="512" x="0" y="0" viewBox="0 0 510 510" style="enable-background:new 0 0 512 512" xml:space="preserve" fill-rule="evenodd" class=""><g><path d="M72.798 7c4.415 0 8 3.585 8 8s-3.585 8-8 8H23v49.722c0 4.415-3.585 8-8 8s-8-3.585-8-8V15a8 8 0 0 1 8-8zM7 119.983c0-4.415 3.585-8 8-8s8 3.585 8 8v32.025c0 4.415-3.585 8-8 8s-8-3.585-8-8zm0 79.286c0-4.416 3.585-8 8-8s8 3.584 8 8v32.024c0 4.416-3.585 8-8 8s-8-3.584-8-8zm0 79.285c0-4.415 3.585-8 8-8s8 3.585 8 8v32.101c0 4.416-3.585 8-8 8s-8-3.584-8-8zm0 79.362c0-4.415 3.585-8 8-8s8 3.585 8 8v32.101c0 4.415-3.585 8-8 8s-8-3.585-8-8zm0 79.362c0-4.415 3.585-8 8-8s8 3.585 8 8V487h49.798c4.415 0 8 3.585 8 8s-3.585 8-8 8H15a8 8 0 0 1-8-8zM120.059 503c-4.415 0-8-3.585-8-8s3.585-8 8-8h32.025c4.415 0 8 3.585 8 8s-3.585 8-8 8zm79.286 0c-4.416 0-8-3.585-8-8s3.584-8 8-8h32.024c4.416 0 8 3.585 8 8s-3.584 8-8 8zm79.286 0c-4.416 0-8-3.585-8-8s3.584-8 8-8h32.1c4.416 0 8 3.585 8 8s-3.584 8-8 8zm79.361 0c-4.415 0-8-3.585-8-8s3.585-8 8-8h32.101c4.415 0 8 3.585 8 8s-3.585 8-8 8zm79.362 0c-4.415 0-8-3.585-8-8s3.585-8 8-8H487v-49.722c0-4.415 3.585-8 8-8s8 3.585 8 8V495a8 8 0 0 1-8 8zM503 390.017c0 4.415-3.585 8-8 8s-8-3.585-8-8v-32.101c0-4.415 3.585-8 8-8s8 3.585 8 8zm0-79.362c0 4.416-3.585 8-8 8s-8-3.584-8-8v-32.101c0-4.415 3.585-8 8-8s8 3.585 8 8zm0-79.362c0 4.416-3.585 8-8 8s-8-3.584-8-8v-32.024c0-4.416 3.585-8 8-8s8 3.584 8 8zm0-79.285c0 4.415-3.585 8-8 8s-8-3.585-8-8v-32.025c0-4.415 3.585-8 8-8s8 3.585 8 8zm0-79.286c0 4.415-3.585 8-8 8s-8-3.585-8-8V23h-49.646c-4.415 0-8-3.585-8-8s3.585-8 8-8H495a8 8 0 0 1 8 8zM390.093 7c4.415 0 8 3.585 8 8s-3.585 8-8 8h-32.101c-4.415 0-8-3.585-8-8s3.585-8 8-8zm-79.362 0c4.416 0 8 3.585 8 8s-3.584 8-8 8h-32.1c-4.416 0-8-3.585-8-8s3.584-8 8-8zm-79.362 0c4.416 0 8 3.585 8 8s-3.584 8-8 8h-32.024c-4.416 0-8-3.585-8-8s3.584-8 8-8zm-79.285 0c4.415 0 8 3.585 8 8s-3.585 8-8 8h-32.025c-4.415 0-8-3.585-8-8s3.585-8 8-8zm136.689 124.916a126.613 126.613 0 0 1 29.398 12.183l18.88-8.395a8 8 0 0 1 8.907 1.653l26.685 26.685a7.999 7.999 0 0 1 1.657 8.897l-8.364 18.883a126.459 126.459 0 0 1 12.19 29.447l19.255 7.41a8.001 8.001 0 0 1 5.126 7.467v37.746a8.001 8.001 0 0 1-5.126 7.467l-19.259 7.411a127.728 127.728 0 0 1-12.19 29.398l8.368 18.893a7.999 7.999 0 0 1-1.657 8.897l-26.685 26.685a7.999 7.999 0 0 1-8.897 1.657l-18.878-8.362a126.3 126.3 0 0 1-29.413 12.185l-7.411 19.258a8.001 8.001 0 0 1-7.467 5.126h-37.746a8.001 8.001 0 0 1-7.467-5.126l-7.41-19.256a127.463 127.463 0 0 1-29.437-12.193l-18.893 8.368a7.999 7.999 0 0 1-8.897-1.657l-26.685-26.685a8 8 0 0 1-1.653-8.907l8.392-18.874a127.478 127.478 0 0 1-12.207-29.402l-19.27-7.416a8.001 8.001 0 0 1-5.126-7.467v-37.746a8.001 8.001 0 0 1 5.126-7.467l19.267-7.414a127.473 127.473 0 0 1 12.213-29.436l-8.395-18.88a8 8 0 0 1 1.653-8.907l26.685-26.685a8 8 0 0 1 8.907-1.653l18.88 8.395a126.627 126.627 0 0 1 29.405-12.185l7.448-19.301a8 8 0 0 1 7.464-5.12h37.746a8 8 0 0 1 7.468 5.13zm-13.453 9.596-6.924-18.019h-26.762l-6.958 18.03a8.002 8.002 0 0 1-5.614 4.903 110.707 110.707 0 0 0-32.51 13.472 8 8 0 0 1-7.447.499l-17.635-7.84-18.913 18.913 7.84 17.635a8 8 0 0 1-.499 7.447 111.61 111.61 0 0 0-13.514 32.566 8.004 8.004 0 0 1-4.906 5.599l-17.985 6.922v26.76l17.985 6.922a8 8 0 0 1 4.904 5.594c2.767 11.491 7.303 22.486 13.51 32.523a7.997 7.997 0 0 1 .505 7.457l-7.84 17.635 18.919 18.919 17.639-7.813a8 8 0 0 1 7.419.493c10.074 6.172 21.033 10.751 32.561 13.482a8 8 0 0 1 5.622 4.911l6.922 17.985h26.76l6.922-17.985a8 8 0 0 1 5.617-4.91c11.483-2.729 22.47-7.263 32.5-13.466a7.997 7.997 0 0 1 7.447-.51l17.639 7.813 18.925-18.925-7.813-17.639a8 8 0 0 1 .493-7.419c6.172-10.075 10.752-21.035 13.483-32.528a8 8 0 0 1 4.91-5.617l17.985-6.922v-26.76l-17.985-6.922a8 8 0 0 1-4.911-5.622 110.506 110.506 0 0 0-13.471-32.543 8 8 0 0 1-.504-7.437l7.813-17.639-18.919-18.919-17.635 7.84a8 8 0 0 1-7.447-.499 110.707 110.707 0 0 0-32.51-13.472 8 8 0 0 1-5.618-4.914zM255 181.162c40.797 0 73.876 33.041 73.876 73.838 0 40.796-33.08 73.876-73.876 73.876-40.797 0-73.838-33.079-73.838-73.876 0-40.799 33.039-73.838 73.838-73.838zm0 16c-31.958 0-57.838 25.88-57.838 57.838 0 31.959 25.879 57.876 57.838 57.876 31.961 0 57.876-25.915 57.876-57.876 0-31.959-25.917-57.838-57.876-57.838zM61.173 437.513l39.205-39.204-4.623-.267a8.003 8.003 0 0 1-7.525-8.448 8.003 8.003 0 0 1 8.447-7.526l22.434 1.295a8 8 0 0 1 7.526 7.526l1.295 22.434a8.003 8.003 0 0 1-7.526 8.447 8.003 8.003 0 0 1-8.448-7.525l-.267-4.623-39.204 39.205 4.622.267c4.408.254 7.78 4.039 7.526 8.447s-4.04 7.78-8.448 7.526l-22.433-1.295a8 8 0 0 1-7.526-7.526l-1.295-22.433c-.254-4.408 3.118-8.194 7.526-8.448s8.193 3.118 8.447 7.526zm348.449-39.166 39.205 39.204.267-4.622c.254-4.408 4.039-7.78 8.447-7.526s7.78 4.04 7.526 8.448l-1.295 22.433a8 8 0 0 1-7.526 7.526l-22.433 1.295c-4.408.254-8.194-3.118-8.448-7.526s3.118-8.193 7.526-8.447l4.622-.267-39.204-39.205-.267 4.623a8.003 8.003 0 0 1-8.448 7.525 8.003 8.003 0 0 1-7.526-8.447l1.295-22.434a8 8 0 0 1 7.526-7.526l22.434-1.295a8.003 8.003 0 0 1 8.447 7.526 8.003 8.003 0 0 1-7.525 8.448zm-11.275-297.931 39.204-39.205-4.622-.266c-4.408-.255-7.78-4.04-7.526-8.448s4.04-7.78 8.448-7.526l22.433 1.295a8 8 0 0 1 7.526 7.526l1.295 22.433c.254 4.408-3.118 8.194-7.526 8.448a8.003 8.003 0 0 1-8.447-7.526l-.267-4.622-39.205 39.204 4.623.267a8.003 8.003 0 0 1 7.525 8.448 8.003 8.003 0 0 1-8.447 7.526l-22.434-1.295a8 8 0 0 1-7.526-7.526l-1.295-22.434a8.003 8.003 0 0 1 7.526-8.447 8.003 8.003 0 0 1 8.448 7.525zM72.525 61.173l39.204 39.205.267-4.623a8.003 8.003 0 0 1 8.448-7.525 8.003 8.003 0 0 1 7.526 8.447l-1.295 22.434a8 8 0 0 1-7.526 7.526l-22.434 1.295a8.003 8.003 0 0 1-8.447-7.526 8.003 8.003 0 0 1 7.525-8.448l4.623-.267-39.205-39.204-.266 4.622c-.255 4.408-4.04 7.78-8.448 7.526s-7.78-4.04-7.526-8.448l1.295-22.433a8 8 0 0 1 7.526-7.526l22.433-1.295c4.408-.254 8.194 3.118 8.448 7.526a8.003 8.003 0 0 1-7.526 8.447z" fill="#02b5ff" opacity="1" data-original="#000000" class=""></path></g></svg>