<svg width="60" height="60" viewBox="0 0 60 60" fill="none" xmlns="http://www.w3.org/2000/svg">
<path d="M51.53 20.8659L52.3195 20.0762L52.3432 20.0999C52.48 20.2369 52.6425 20.3456 52.8214 20.4197C53.0002 20.4939 53.1919 20.532 53.3855 20.532C53.5791 20.532 53.7709 20.4939 53.9497 20.4197C54.1286 20.3456 54.291 20.2369 54.4279 20.0999L55.6483 18.8795C55.7853 18.7426 55.8939 18.5801 55.9681 18.4012C56.0422 18.2223 56.0804 18.0306 56.0804 17.837C56.0804 17.6433 56.0422 17.4516 55.9681 17.2727C55.8939 17.0938 55.7853 16.9313 55.6483 16.7944L52.4485 13.5942C52.1676 13.3262 51.7944 13.1767 51.4062 13.1767C51.018 13.1767 50.6447 13.3262 50.3638 13.5942L49.1434 14.8146C49.0064 14.9514 48.8978 15.114 48.8236 15.2928C48.7495 15.4717 48.7113 15.6635 48.7113 15.8571C48.7113 16.0508 48.7495 16.2425 48.8236 16.4214C48.8978 16.6003 49.0064 16.7628 49.1434 16.8997L49.1666 16.9228L48.3326 17.7568C45.4821 15.5184 42.0867 14.0799 38.4958 13.589V11.1626H40.0751C40.5465 11.1621 40.9985 10.9746 41.3318 10.6413C41.6651 10.3079 41.8526 9.85599 41.8531 9.38459V7.37365C41.8526 6.90226 41.6651 6.45031 41.3318 6.11698C40.9985 5.78365 40.5465 5.59618 40.0751 5.5957H31.3492C30.8779 5.59619 30.4259 5.78366 30.0926 6.11699C29.7593 6.45031 29.5718 6.90225 29.5713 7.37363V9.38457C29.5718 9.85597 29.7593 10.3079 30.0926 10.6412C30.4259 10.9746 30.8779 11.1621 31.3493 11.1625H32.9294V13.5904C31.8445 13.7349 30.7729 13.9666 29.7251 14.2832C29.4872 14.3558 29.288 14.5199 29.1711 14.7394C29.0543 14.9589 29.0295 15.2158 29.1021 15.4537C29.1747 15.6915 29.3388 15.8908 29.5583 16.0076C29.7778 16.1244 30.0347 16.1493 30.2726 16.0767C33.4267 15.1137 36.78 15.0051 39.9898 15.762C43.1997 16.5189 46.1511 18.1142 48.5427 20.385C50.9343 22.6557 52.6804 25.5206 53.6026 28.6869C54.5247 31.8532 54.59 35.2076 53.7916 38.4074C52.9933 41.6072 51.36 44.5378 49.0585 46.8998C46.757 49.2619 43.8698 50.9708 40.6918 51.8519C37.5138 52.7331 34.1589 52.755 30.9697 51.9153C27.7805 51.0757 24.8712 49.4046 22.5391 47.0728C22.4523 46.985 22.3489 46.9153 22.235 46.8676C22.121 46.8199 21.9988 46.7952 21.8753 46.7949C21.7518 46.7945 21.6295 46.8186 21.5153 46.8658C21.4012 46.9129 21.2974 46.9821 21.2101 47.0694C21.1228 47.1567 21.0536 47.2604 21.0065 47.3746C20.9593 47.4888 20.9352 47.6111 20.9355 47.7346C20.9359 47.8581 20.9606 47.9803 21.0083 48.0942C21.0559 48.2082 21.1257 48.3115 21.2134 48.3984C24.9365 52.1259 29.9517 54.2769 35.2185 54.4051C40.4852 54.5333 45.5992 52.6289 49.4992 49.0871C53.3992 45.5452 55.7859 40.6378 56.164 35.383C56.5422 30.1283 54.8827 24.9297 51.53 20.8659ZM51.4057 15.2032L54.0397 17.8367L53.386 18.4909L50.752 15.8574L51.4057 15.2032ZM50.492 18.2487L50.9937 18.7504L50.2691 19.4753C50.1025 19.3072 49.9306 19.1446 49.7584 18.9823L50.492 18.2487ZM31.4463 9.28755V7.47067H39.9781V9.28755H31.4463ZM34.8044 13.4284V11.1626H36.6208V13.4181C36.3195 13.4049 36.0172 13.3951 35.7126 13.3951C35.4087 13.3951 35.107 13.4151 34.8044 13.4284Z" fill="#00B5FF"/>
<path d="M47.8916 46.0046C51.0956 42.7905 52.8948 38.4371 52.8946 33.8987C52.8944 29.3603 51.0949 25.0071 47.8905 21.7932C47.8787 21.78 47.8746 21.7629 47.8619 21.7502C47.8492 21.7375 47.832 21.7334 47.8188 21.7216C44.6061 18.5151 40.2519 16.7153 35.7128 16.7175C34.6813 16.7174 33.6518 16.8094 32.6367 16.9927C32.5155 17.0145 32.3999 17.0601 32.2964 17.1266C32.1928 17.1932 32.1034 17.2795 32.0332 17.3806C31.9631 17.4818 31.9135 17.5957 31.8873 17.716C31.8612 17.8363 31.859 17.9605 31.8809 18.0817C31.9028 18.2028 31.9483 18.3184 32.0149 18.422C32.0815 18.5255 32.1678 18.6149 32.2689 18.6851C32.37 18.7553 32.484 18.8049 32.6043 18.831C32.7245 18.8571 32.8488 18.8593 32.9699 18.8374C33.5672 18.7342 34.1701 18.6664 34.7753 18.6343V20.1009C34.7753 20.3495 34.8741 20.588 35.0499 20.7638C35.2257 20.9396 35.4642 21.0384 35.7128 21.0384C35.9615 21.0384 36.1999 20.9396 36.3758 20.7638C36.5516 20.588 36.6503 20.3495 36.6503 20.1009V18.64C40.0527 18.8455 43.2875 20.187 45.8367 22.4496L44.8068 23.4796C44.7191 23.5665 44.6493 23.6699 44.6016 23.7838C44.554 23.8977 44.5292 24.0199 44.5289 24.1434C44.5286 24.2669 44.5527 24.3893 44.5998 24.5034C44.6469 24.6176 44.7161 24.7213 44.8035 24.8086C44.8908 24.896 44.9945 24.9652 45.1087 25.0123C45.2228 25.0594 45.3452 25.0835 45.4687 25.0832C45.5922 25.0829 45.7144 25.0582 45.8283 25.0105C45.9422 24.9628 46.0456 24.8931 46.1325 24.8053L47.1624 23.7754C49.4251 26.3247 50.7666 29.5598 50.9721 32.9622H49.5117C49.263 32.9622 49.0246 33.061 48.8488 33.2368C48.673 33.4126 48.5742 33.6511 48.5742 33.8997C48.5742 34.1484 48.673 34.3868 48.8488 34.5626C49.0246 34.7384 49.263 34.8372 49.5117 34.8372H50.9721C50.7666 38.2396 49.4251 41.4746 47.1624 44.0238L46.1325 42.9936C45.9563 42.8195 45.7184 42.7221 45.4707 42.7229C45.2231 42.7236 44.9857 42.8223 44.8106 42.9974C44.6354 43.1726 44.5367 43.4099 44.536 43.6576C44.5353 43.9053 44.6327 44.1432 44.8068 44.3193L45.8368 45.3495C43.2875 47.612 40.0527 48.9534 36.6504 49.1589V47.6981C36.6504 47.4494 36.5516 47.211 36.3758 47.0351C36.2 46.8593 35.9616 46.7606 35.7129 46.7606C35.4643 46.7606 35.2258 46.8593 35.05 47.0351C34.8742 47.211 34.7754 47.4494 34.7754 47.6981V49.1679C31.6554 48.9915 28.6665 47.8531 26.2198 45.9091C26.1232 45.8328 26.0126 45.7762 25.8942 45.7426C25.7758 45.709 25.6519 45.6991 25.5297 45.7134C25.4074 45.7277 25.2892 45.7659 25.1817 45.8259C25.0742 45.8858 24.9796 45.9664 24.9033 46.0629C24.8269 46.1595 24.7703 46.2701 24.7367 46.3885C24.7032 46.5069 24.6932 46.6308 24.7075 46.7531C24.7218 46.8753 24.76 46.9936 24.82 47.101C24.88 47.2085 24.9605 47.3031 25.0571 47.3795C28.3525 49.9859 32.4895 51.2932 36.6843 51.0535C40.879 50.8138 44.8402 49.0438 47.8173 46.0789C47.831 46.0667 47.8487 46.0624 47.8619 46.0492C47.8751 46.036 47.8793 46.0184 47.8916 46.0046Z" fill="#00B5FF"/>
<path d="M43.7142 25.8989C43.6271 25.8119 43.5238 25.7428 43.4101 25.6957C43.2963 25.6485 43.1744 25.6243 43.0513 25.6243C42.9282 25.6243 42.8063 25.6485 42.6926 25.6957C42.5788 25.7428 42.4755 25.8119 42.3885 25.8989L37.1335 31.1539C36.6962 30.9208 36.2089 30.7973 35.7134 30.7938C35.0991 30.7937 34.4986 30.9758 33.9879 31.3171C33.4771 31.6583 33.079 32.1433 32.8439 32.7108C32.6088 33.2783 32.5473 33.9027 32.6671 34.5052C32.7868 35.1076 33.0826 35.661 33.5169 36.0954C33.9512 36.5298 34.5046 36.8256 35.107 36.9455C35.7094 37.0654 36.3339 37.0039 36.9014 36.7689C37.4689 36.5339 37.954 36.1358 38.2953 35.6251C38.6366 35.1144 38.8188 34.514 38.8188 33.8997C38.8154 33.4043 38.6919 32.9171 38.459 32.4798L43.7142 27.2246C43.8012 27.1376 43.8703 27.0343 43.9174 26.9205C43.9646 26.8068 43.9888 26.6849 43.9888 26.5618C43.9888 26.4387 43.9646 26.3168 43.9174 26.203C43.8703 26.0893 43.8012 25.986 43.7142 25.8989ZM35.7134 35.1302C35.5109 35.1304 35.3115 35.0806 35.1329 34.9853C34.9543 34.89 34.802 34.7521 34.6894 34.5838C34.5768 34.4155 34.5075 34.2221 34.4876 34.0206C34.4677 33.8191 34.4978 33.6159 34.5752 33.4288C34.6526 33.2417 34.775 33.0767 34.9315 32.9482C35.088 32.8198 35.2737 32.7319 35.4723 32.6924C35.6709 32.6529 35.8761 32.663 36.0698 32.7219C36.2636 32.7807 36.4398 32.8864 36.5829 33.0296C36.755 33.2016 36.8726 33.4213 36.9202 33.66C36.9677 33.8986 36.9434 34.1461 36.8502 34.3709C36.7571 34.5957 36.5994 34.7879 36.397 34.923C36.1946 35.0582 35.9567 35.1303 35.7134 35.1302Z" fill="#00B5FF"/>
<path d="M24.9599 18.5925H19.041C18.7924 18.5925 18.5539 18.4938 18.3781 18.3179C18.2023 18.1421 18.1035 17.9037 18.1035 17.655C18.1035 17.4064 18.2023 17.1679 18.3781 16.9921C18.5539 16.8163 18.7924 16.7175 19.041 16.7175H24.9599C25.2085 16.7175 25.447 16.8163 25.6228 16.9921C25.7986 17.1679 25.8974 17.4064 25.8974 17.655C25.8974 17.9037 25.7986 18.1421 25.6228 18.3179C25.447 18.4938 25.2085 18.5925 24.9599 18.5925Z" fill="#00B5FF"/>
<path d="M16.0141 18.5925H14.1172C13.8685 18.5925 13.6301 18.4938 13.4543 18.3179C13.2785 18.1421 13.1797 17.9037 13.1797 17.655C13.1797 17.4064 13.2785 17.1679 13.4543 16.9921C13.6301 16.8163 13.8685 16.7175 14.1172 16.7175H16.0141C16.2628 16.7175 16.5012 16.8163 16.677 16.9921C16.8529 17.1679 16.9516 17.4064 16.9516 17.655C16.9516 17.9037 16.8529 18.1421 16.677 18.3179C16.5012 18.4938 16.2628 18.5925 16.0141 18.5925Z" fill="#00B5FF"/>
<path d="M27.8523 24.7649H12.1758C11.9271 24.7649 11.6887 24.6661 11.5129 24.4903C11.3371 24.3145 11.2383 24.076 11.2383 23.8274C11.2383 23.5788 11.3371 23.3403 11.5129 23.1645C11.6887 22.9887 11.9271 22.8899 12.1758 22.8899H27.8523C28.101 22.8899 28.3394 22.9887 28.5153 23.1645C28.6911 23.3403 28.7898 23.5788 28.7898 23.8274C28.7898 24.076 28.6911 24.3145 28.5153 24.4903C28.3394 24.6661 28.101 24.7649 27.8523 24.7649Z" fill="#00B5FF"/>
<path d="M21.1013 30.9375H4.7207C4.47206 30.9375 4.23361 30.8387 4.05779 30.6629C3.88197 30.4871 3.7832 30.2486 3.7832 30C3.7832 29.7514 3.88197 29.5129 4.05779 29.3371C4.23361 29.1613 4.47206 29.0625 4.7207 29.0625H21.1013C21.35 29.0625 21.5884 29.1613 21.7642 29.3371C21.94 29.5129 22.0388 29.7514 22.0388 30C22.0388 30.2486 21.94 30.4871 21.7642 30.6629C21.5884 30.8387 21.35 30.9375 21.1013 30.9375Z" fill="#00B5FF"/>
<path d="M25.9529 30.9375H24.1914C23.9428 30.9375 23.7043 30.8387 23.5285 30.6629C23.3527 30.4871 23.2539 30.2486 23.2539 30C23.2539 29.7514 23.3527 29.5129 23.5285 29.3371C23.7043 29.1613 23.9428 29.0625 24.1914 29.0625H25.9529C26.2015 29.0625 26.44 29.1613 26.6158 29.3371C26.7916 29.5129 26.8904 29.7514 26.8904 30C26.8904 30.2486 26.7916 30.4871 26.6158 30.6629C26.44 30.8387 26.2015 30.9375 25.9529 30.9375Z" fill="#00B5FF"/>
<path d="M29.568 37.1099H15.6758C15.4271 37.1099 15.1887 37.0111 15.0129 36.8353C14.8371 36.6595 14.7383 36.421 14.7383 36.1724C14.7383 35.9237 14.8371 35.6853 15.0129 35.5094C15.1887 35.3336 15.4271 35.2349 15.6758 35.2349H29.568C29.8166 35.2349 30.0551 35.3336 30.2309 35.5094C30.4067 35.6853 30.5055 35.9237 30.5055 36.1724C30.5055 36.421 30.4067 36.6595 30.2309 36.8353C30.0551 37.0111 29.8166 37.1099 29.568 37.1099Z" fill="#00B5FF"/>
<path d="M11.7225 43.2825H10.0508C9.80214 43.2825 9.56368 43.1837 9.38787 43.0079C9.21205 42.8321 9.11328 42.5936 9.11328 42.345C9.11328 42.0963 9.21205 41.8579 9.38787 41.6821C9.56368 41.5062 9.80214 41.4075 10.0508 41.4075H11.7225C11.9712 41.4075 12.2096 41.5062 12.3855 41.6821C12.5613 41.8579 12.66 42.0963 12.66 42.345C12.66 42.5936 12.5613 42.8321 12.3855 43.0079C12.2096 43.1837 11.9712 43.2825 11.7225 43.2825Z" fill="#00B5FF"/>
<path d="M25.9532 43.2825H14.7051C14.4564 43.2825 14.218 43.1837 14.0422 43.0079C13.8664 42.8321 13.7676 42.5936 13.7676 42.345C13.7676 42.0963 13.8664 41.8579 14.0422 41.6821C14.218 41.5062 14.4564 41.4075 14.7051 41.4075H25.9532C26.2018 41.4075 26.4403 41.5062 26.6161 41.6821C26.7919 41.8579 26.8907 42.0963 26.8907 42.345C26.8907 42.5936 26.7919 42.8321 26.6161 43.0079C26.4403 43.1837 26.2018 43.2825 25.9532 43.2825Z" fill="#00B5FF"/>
</svg>
