<svg width="60" height="60" viewBox="0 0 60 60" fill="none" xmlns="http://www.w3.org/2000/svg">
<g clip-path="url(#clip0_55469_35666)">
<path d="M29.9987 23.436C26.858 23.436 24.3027 25.9881 24.3027 29.1251C24.3027 32.2622 26.858 34.8142 29.9987 34.8142C33.1394 34.8142 35.6946 32.2622 35.6946 29.1251C35.6946 25.9881 33.1394 23.436 29.9987 23.436ZM29.9987 33.0582C27.8271 33.0582 26.0605 31.2935 26.0605 29.1251C26.0605 26.9562 27.8271 25.1916 29.9987 25.1916C32.1703 25.1916 33.9368 26.9562 33.9368 29.1251C33.9368 31.2935 32.1703 33.0582 29.9987 33.0582Z" fill="#00B5FF"/>
<path d="M40.3673 21.3121L37.8217 18.7697C37.5122 18.4607 37.022 18.4259 36.6722 18.6887L34.7547 20.1279C34.1957 19.8326 33.6107 19.5909 33.0065 19.4046L32.6696 17.0329C32.6082 16.5999 32.237 16.2781 31.7993 16.2781H28.1995C27.7614 16.2781 27.3906 16.5999 27.3288 17.0329L26.9919 19.4046C26.3877 19.5909 25.8031 19.8326 25.2442 20.1279L23.3266 18.6887C22.9764 18.4259 22.4866 18.4607 22.1767 18.7697L19.6315 21.3121C19.3221 21.6216 19.2873 22.1109 19.55 22.4602L20.9911 24.3759C20.6958 24.9339 20.4532 25.518 20.2669 26.1214L17.892 26.4583C17.4585 26.5196 17.1367 26.8904 17.1367 27.3276V30.9229C17.1367 31.36 17.4585 31.7308 17.892 31.7921L20.2669 32.1291C20.4532 32.7324 20.6954 33.3165 20.9911 33.8745L19.55 35.7903C19.2873 36.1395 19.3221 36.6289 19.6315 36.9383L22.1767 39.4807C22.4866 39.7897 22.9764 39.8241 23.3266 39.5618L25.2442 38.1226C25.8031 38.4174 26.3877 38.6595 26.9919 38.8458L27.3288 41.2175C27.3906 41.6505 27.7614 41.9719 28.1995 41.9719H31.7993C32.237 41.9719 32.6078 41.6505 32.6696 41.2175L33.0065 38.8458C33.6107 38.6595 34.1957 38.4174 34.7547 38.1226L36.6722 39.5618C37.022 39.8245 37.5122 39.7897 37.8217 39.4807L40.3673 36.9383C40.6768 36.6289 40.7111 36.1395 40.4483 35.7903L39.0073 33.8745C39.303 33.3165 39.5452 32.7324 39.7315 32.1291L42.1064 31.7921C42.5399 31.7308 42.8621 31.36 42.8621 30.9229V27.3276C42.8621 26.8904 42.5399 26.5196 42.1064 26.4583L39.7315 26.1214C39.5452 25.518 39.303 24.9339 39.0073 24.3759L40.4483 22.4602C40.7111 22.1109 40.6768 21.6216 40.3673 21.3121ZM41.1043 28.0893V30.1607L38.9148 30.4715C38.5591 30.5219 38.2698 30.7832 38.1842 31.132C37.981 31.9633 37.6523 32.7557 37.2078 33.4868C37.0211 33.7935 37.0403 34.1826 37.2563 34.4696L38.5848 36.2357L37.1181 37.7L35.3502 36.3734C35.0627 36.1578 34.6732 36.1382 34.366 36.3249C33.6341 36.7685 32.8408 37.0967 32.0081 37.3004C31.6593 37.3856 31.3974 37.6744 31.3466 38.0296L31.0363 40.2164H28.9621L28.6513 38.0296C28.601 37.6744 28.3387 37.3856 27.9898 37.3004C27.1572 37.0967 26.3643 36.7685 25.6324 36.3249C25.3252 36.1382 24.9356 36.1578 24.6482 36.3734L22.8803 37.7L21.4136 36.2352L22.742 34.4696C22.9576 34.1826 22.9769 33.7935 22.7906 33.4868C22.3461 32.7557 22.0174 31.9633 21.8137 31.1316C21.7285 30.7832 21.4392 30.5214 21.0836 30.471L18.8941 30.1607V28.0893L21.0836 27.7789C21.4392 27.7286 21.7285 27.4667 21.8137 27.1184C22.0174 26.2866 22.3461 25.4947 22.7906 24.7636C22.9769 24.4565 22.9576 24.0674 22.742 23.7808L21.4136 22.0148L22.8803 20.5499L24.6482 21.877C24.9356 22.0921 25.3252 22.1118 25.6324 21.9255C26.3643 21.4815 27.1572 21.1533 27.9898 20.95C28.3387 20.8644 28.6005 20.576 28.6513 20.2203L28.9621 18.0336H31.0363L31.3466 20.2203C31.3974 20.5756 31.6593 20.8644 32.0081 20.95C32.8408 21.1533 33.6341 21.4815 34.366 21.9255C34.6732 22.1118 35.0627 22.0921 35.3502 21.877L37.1181 20.5499L38.5848 22.0148L37.2563 23.7808C37.0403 24.0674 37.0211 24.4569 37.2078 24.7636C37.6523 25.4947 37.9805 26.2866 38.1842 27.1179C38.2694 27.4667 38.5587 27.7286 38.9144 27.7789L41.1043 28.0893Z" fill="#00B5FF"/>
<path d="M29.998 6.90399C30.4837 6.90399 30.877 6.51123 30.877 6.02646V0.877991C30.877 0.392761 30.4837 0 29.998 0C29.5128 0 29.1191 0.392761 29.1191 0.877991V6.02646C29.1191 6.51123 29.5128 6.90399 29.998 6.90399Z" fill="#00B5FF"/>
<path d="M56.3053 26.2751H51.1504C50.6647 26.2751 50.2715 26.6679 50.2715 27.1527C50.2715 27.6379 50.6647 28.0307 51.1504 28.0307H56.3053C56.7905 28.0307 57.1842 27.6379 57.1842 27.1527C57.1842 26.6679 56.7905 26.2751 56.3053 26.2751Z" fill="#00B5FF"/>
<path d="M8.84628 26.2751H3.69141C3.20618 26.2751 2.8125 26.6679 2.8125 27.1527C2.8125 27.6379 3.20618 28.0307 3.69141 28.0307H8.84628C9.33151 28.0307 9.72519 27.6379 9.72519 27.1527C9.72519 26.6679 9.33197 26.2751 8.84628 26.2751Z" fill="#00B5FF"/>
<path d="M14.4199 12.8347C14.7586 13.1729 15.3244 13.1729 15.6627 12.8347C16.0061 12.4918 16.0061 11.9361 15.6627 11.5932L12.018 7.95261C11.6747 7.6102 11.118 7.6102 10.7747 7.95261C10.4319 8.29547 10.4319 8.8512 10.7747 9.19452L14.4199 12.8347Z" fill="#00B5FF"/>
<path d="M10.6235 18.6292L8.84233 17.932C8.39006 17.7553 7.88057 17.9778 7.70341 18.4291C7.52626 18.8805 7.74919 19.39 8.201 19.5667L9.98262 20.2638C10.4289 20.4382 10.9467 20.2121 11.1215 19.7667C11.2987 19.3149 11.0758 18.8059 10.6235 18.6292Z" fill="#00B5FF"/>
<path d="M21.4646 7.80265C21.6395 8.24806 22.1572 8.47419 22.6035 8.29978C23.0553 8.12309 23.2783 7.6136 23.1016 7.16224L22.3829 5.33119C22.2062 4.87937 21.6962 4.6569 21.244 4.8336C20.7922 5.01075 20.5692 5.51978 20.7464 5.97114L21.4646 7.80265Z" fill="#00B5FF"/>
<path d="M37.3944 8.2996C37.8407 8.47401 38.3584 8.24787 38.5333 7.80247L39.252 5.97141C39.4287 5.5196 39.2062 5.01057 38.7539 4.83341C38.3021 4.65718 37.7922 4.87919 37.615 5.33055L36.8968 7.16206C36.7196 7.61341 36.9425 8.12245 37.3944 8.2996Z" fill="#00B5FF"/>
<path d="M44.9553 13.0919C45.1801 13.0919 45.4053 13.0063 45.577 12.8347L49.2217 9.19452C49.565 8.8512 49.565 8.29547 49.2217 7.95261C48.8783 7.6102 48.3222 7.6102 47.9788 7.95261L44.3337 11.5932C43.9903 11.9361 43.9903 12.4918 44.3337 12.8347C44.5053 13.0063 44.7305 13.0919 44.9553 13.0919Z" fill="#00B5FF"/>
<path d="M52.2934 18.4292C52.1163 17.9774 51.6063 17.7554 51.1545 17.932L49.3729 18.6292C48.9211 18.8059 48.6981 19.315 48.8753 19.7668C49.0502 20.2122 49.5679 20.4383 50.0142 20.2639L51.7958 19.5667C52.2476 19.39 52.4706 18.8805 52.2934 18.4292Z" fill="#00B5FF"/>
<path d="M30.1593 9.0412C26.4976 9.01008 22.9243 10.0529 19.8326 12.0556C19.4252 12.3197 19.3094 12.8631 19.5735 13.27C19.8372 13.6765 20.3819 13.7923 20.7888 13.5287C23.5515 11.7397 26.7338 10.7963 30.0032 10.7963C30.0503 10.7963 30.0979 10.7963 30.1451 10.7967C34.6705 10.8347 38.919 12.6232 42.1083 15.834C45.2993 19.0461 47.0567 23.3074 47.0567 27.8329C47.0567 33.3672 44.3481 38.577 39.8108 41.7695C38.3139 42.8223 37.3352 44.4355 37.0894 46.1993H34.0828C33.5971 46.1993 33.2039 46.5925 33.2039 47.0772C33.2039 47.562 33.5971 47.9552 34.0828 47.9552H37.0285V52.4569C37.0285 53.5692 36.1221 54.4742 35.0084 54.4742H24.9897C23.876 54.4742 22.9696 53.5692 22.9696 52.4569V47.9552H30.5671C31.0528 47.9552 31.446 47.562 31.446 47.0772C31.446 46.5925 31.0528 46.1993 30.5671 46.1993H22.9074C22.6648 44.4332 21.7003 42.8287 20.2212 41.7933C15.6628 38.6027 12.9414 33.3842 12.9414 27.8333C12.9414 23.2104 14.7963 18.8712 18.1649 15.6151C18.5138 15.2778 18.5229 14.7221 18.1851 14.3737C17.8477 14.0253 17.2915 14.0162 16.9423 14.3536C13.2289 17.9433 11.1836 22.7306 11.1836 27.8333C11.1836 33.9559 14.1852 39.7123 19.2123 43.2311C20.4643 44.1073 21.2118 45.5451 21.2118 47.0772V52.4569C21.2118 54.2815 22.5155 55.8077 24.2413 56.1552C25.1962 58.4769 27.442 59.9999 29.9991 59.9999C32.5561 59.9999 34.8019 58.4769 35.7563 56.1552C37.4821 55.8077 38.7858 54.2815 38.7858 52.4569V47.0795C38.7858 47.0786 38.7863 47.0782 38.7863 47.0772C38.7863 45.5497 39.5475 44.1022 40.8233 43.2046C45.8267 39.6839 48.8141 33.9376 48.8141 27.8333C48.8141 22.8414 46.8759 18.1411 43.3561 14.5975C39.8382 11.0563 35.1516 9.08286 30.1593 9.0412ZM29.9991 58.2444C28.4532 58.2444 27.0657 57.4694 26.2568 56.2298H33.7413C32.9324 57.4694 31.5449 58.2444 29.9991 58.2444Z" fill="#00B5FF"/>
</g>
<defs>
<clipPath id="clip0_55469_35666">
<rect width="60" height="60" fill="white"/>
</clipPath>
</defs>
</svg>
