<svg width="60" height="60" viewBox="0 0 60 60" fill="none" xmlns="http://www.w3.org/2000/svg">
<path d="M33.8 33.1769H27.2498C26.7321 33.1769 26.3123 33.5967 26.3123 34.1144V55.0212C26.3123 55.539 26.7321 55.9587 27.2498 55.9587H33.8C34.3178 55.9587 34.7375 55.539 34.7375 55.0212V34.1144C34.7375 33.5967 34.3179 33.1769 33.8 33.1769ZM32.8625 54.0837H28.1873V35.0519H32.8625V54.0837ZM45.9627 35.9069H39.4125C38.8948 35.9069 38.475 36.3266 38.475 36.8444V55.0212C38.475 55.539 38.8948 55.9587 39.4125 55.9587H45.9627C46.4804 55.9587 46.9002 55.539 46.9002 55.0212V36.8444C46.9002 36.3266 46.4804 35.9069 45.9627 35.9069ZM45.0252 54.0837H40.35V37.7819H45.0252V54.0837ZM58.125 24.5847H51.5749C51.0572 24.5847 50.6374 25.0045 50.6374 25.5222V55.0212C50.6374 55.539 51.0572 55.9587 51.5749 55.9587H58.125C58.6427 55.9587 59.0625 55.539 59.0625 55.0212V25.5222C59.0625 25.0045 58.6427 24.5847 58.125 24.5847ZM57.1875 54.0836H52.5124V26.4597H57.1875V54.0836ZM21.6375 41.2866H15.0874C14.5697 41.2866 14.1499 41.7064 14.1499 42.2241V55.0211C14.1499 55.5388 14.5697 55.9586 15.0874 55.9586H21.6375C22.1552 55.9586 22.575 55.5388 22.575 55.0211V42.2241C22.575 41.7064 22.1554 41.2866 21.6375 41.2866ZM20.7 54.0836H16.0249V43.1616H20.7V54.0836ZM49.9568 18.0724C49.9116 17.5566 50.293 17.1018 50.8089 17.0565L54.7682 16.7092C55.0479 16.6847 55.3245 16.787 55.5209 16.9883C55.7173 17.1893 55.813 17.468 55.7817 17.7474L55.34 21.6972C55.2865 22.1764 54.8807 22.5306 54.4096 22.5306C54.3748 22.5306 54.3396 22.5286 54.3042 22.5247C53.7896 22.4671 53.4192 22.0034 53.4768 21.4888L53.619 20.2161L43.3534 30.5695C43.1044 30.8207 42.7351 30.9104 42.3987 30.8013L30.7089 27.0126L18.9386 36.1777C18.7675 36.3109 18.5646 36.3755 18.3632 36.3755C18.084 36.3755 17.8077 36.2513 17.6229 36.014C17.3048 35.6055 17.3781 35.0164 17.7866 34.6982L29.9491 25.2278C30.1945 25.0368 30.5187 24.98 30.8141 25.0757L42.4281 28.8398L52.3819 18.8009L50.9726 18.9245C50.4571 18.9691 50.002 18.5881 49.9568 18.0724ZM27.3969 18.3825C27.3969 17.8648 27.8167 17.445 28.3344 17.445H30.0594C30.5771 17.445 30.9969 17.8648 30.9969 18.3825C30.9969 18.9003 30.5771 19.32 30.0594 19.32H28.3344C27.8167 19.32 27.3969 18.9003 27.3969 18.3825ZM32.7093 18.3825C32.7093 17.8648 33.129 17.445 33.6468 17.445H47.0699C47.5876 17.445 48.0074 17.8648 48.0074 18.3825C48.0074 18.9003 47.5876 19.32 47.0699 19.32H33.6468C33.129 19.32 32.7093 18.9003 32.7093 18.3825ZM27.3969 13.5946C27.3969 13.0769 27.8167 12.6571 28.3344 12.6571H30.0594C30.5771 12.6571 30.9969 13.0769 30.9969 13.5946C30.9969 14.1124 30.5771 14.5321 30.0594 14.5321H28.3344C27.8167 14.5321 27.3969 14.1124 27.3969 13.5946ZM32.7093 13.5946C32.7093 13.0769 33.129 12.6571 33.6468 12.6571H47.0699C47.5876 12.6571 48.0074 13.0769 48.0074 13.5946C48.0074 14.1124 47.5876 14.5321 47.0699 14.5321H33.6468C33.129 14.5321 32.7093 14.1124 32.7093 13.5946ZM27.3969 8.80657C27.3969 8.28884 27.8167 7.86907 28.3344 7.86907H30.0594C30.5771 7.86907 30.9969 8.28884 30.9969 8.80657C30.9969 9.32431 30.5771 9.74407 30.0594 9.74407H28.3344C27.8167 9.74407 27.3969 9.32431 27.3969 8.80657ZM32.7093 8.80657C32.7093 8.28884 33.129 7.86907 33.6468 7.86907H47.0699C47.5876 7.86907 48.0074 8.28884 48.0074 8.80657C48.0074 9.32431 47.5876 9.74407 47.0699 9.74407H33.6468C33.129 9.74407 32.7093 9.32431 32.7093 8.80657ZM21.7321 17.9543C21.7321 17.4366 21.3123 17.0168 20.7946 17.0168H12.2722V8.49462C12.2722 7.97688 11.8525 7.55712 11.3347 7.55712C5.6018 7.55712 0.9375 12.2214 0.9375 17.9543C0.9375 23.6873 5.60168 28.3517 11.3347 28.3517C17.0679 28.3517 21.7321 23.6874 21.7321 17.9543ZM11.3347 26.4767C6.63563 26.4767 2.8125 22.6536 2.8125 17.9543C2.8125 13.5718 6.13734 9.95126 10.3972 9.48333V17.9543C10.3972 18.4721 10.817 18.8918 11.3347 18.8918H19.8059C19.3378 23.1518 15.7173 26.4767 11.3347 26.4767ZM14.8505 15.3761H24.3103C24.828 15.3761 25.2478 14.9563 25.2478 14.4386C25.2478 8.70556 20.5836 4.04126 14.8505 4.04126C14.3327 4.04126 13.913 4.46103 13.913 4.97876V14.4386C13.913 14.9563 14.3327 15.3761 14.8505 15.3761ZM15.788 5.96747C19.7401 6.40177 22.8874 9.54896 23.3216 13.5011H15.788V5.96747Z" fill="#00B5FF"/>
</svg>
