<svg width="60" height="60" viewBox="0 0 60 60" fill="none" xmlns="http://www.w3.org/2000/svg">
<g clip-path="url(#clip0_55469_35679)">
<path d="M39.9997 60.0001C28.9543 60.0001 20 51.0458 20 39.9999C20 28.9546 28.9543 20.0002 39.9997 20.0002C51.0455 20.0002 59.9998 28.9546 59.9998 39.9999C59.9911 51.0421 51.0419 59.9914 39.9997 60.0001ZM39.9997 22.5001C30.3349 22.5001 22.4998 30.3352 22.4998 39.9999C22.4998 49.6652 30.3349 57.5002 39.9997 57.5002C49.6649 57.5002 57.5 49.6652 57.5 39.9999C57.4913 30.3388 49.6613 22.5088 39.9997 22.5001Z" fill="#00B5FF"/>
<path d="M39.9999 52.5C35.5001 52.5023 31.4315 49.8225 29.6562 45.6875L31.9533 44.7029C33.3257 47.9118 36.4737 49.9978 39.9637 50.0116C43.4537 50.0248 46.6182 47.9635 48.0158 44.7656L50.2968 45.7658C48.5015 49.8518 44.4635 52.4931 39.9999 52.5Z" fill="#00B5FF"/>
<path d="M51.2497 35.0002H48.7498C48.7498 34.3282 47.8751 33.7501 46.8748 33.7501C45.8746 33.7501 44.9998 34.3282 44.9998 35.0002H42.5C42.5 32.9376 44.4684 31.2502 46.8748 31.2502C49.2813 31.2502 51.2497 32.9376 51.2497 35.0002Z" fill="#00B5FF"/>
<path d="M37.5002 35.0002H35.0003C35.0003 34.3282 34.1251 33.7501 33.1253 33.7501C32.1251 33.7501 31.2503 34.3282 31.2503 35.0002H28.75C28.75 32.9376 30.7188 31.2502 33.1253 31.2502C35.5313 31.2502 37.5002 32.9376 37.5002 35.0002Z" fill="#00B5FF"/>
<path d="M20.0002 39.9998C8.95432 39.9998 0 31.0455 0 20.0002C0 8.95432 8.95432 0 20.0002 0C31.0455 0 39.9998 8.95432 39.9998 20.0002C39.9998 20.4689 39.9843 20.9221 39.9532 21.3748L37.4533 21.2032C37.4844 20.8072 37.5 20.4062 37.5 20.0002C37.5 10.3349 29.6649 2.49985 20.0002 2.49985C10.3349 2.49985 2.49985 10.3349 2.49985 20.0002C2.49985 29.6649 10.3349 37.5 20.0002 37.5L21.2032 37.4533L21.3748 39.9532C20.9221 39.9843 20.4533 39.9998 20.0002 39.9998Z" fill="#00B5FF"/>
<path d="M31.2502 15H28.7498C28.7498 14.328 27.8751 13.7498 26.8748 13.7498C25.8751 13.7498 24.9998 14.328 24.9998 15H22.5C22.5 12.9373 24.4688 11.25 26.8748 11.25C29.2813 11.25 31.2502 12.9373 31.2502 15Z" fill="#00B5FF"/>
<path d="M17.4997 15H14.9998C14.9998 14.328 14.1251 13.7498 13.1248 13.7498C12.1246 13.7498 11.2498 14.328 11.2498 15H8.75C8.75 12.9373 10.7184 11.25 13.1248 11.25C15.5313 11.25 17.4997 12.9373 17.4997 15Z" fill="#00B5FF"/>
<path d="M11.9533 29.047L9.65625 28.0623C11.1888 24.5041 14.4449 21.985 18.2741 21.3941C22.1033 20.8036 25.9668 22.2249 28.5001 25.1564L26.6095 26.7971C24.6384 24.5174 21.6327 23.4128 18.6545 23.8733C15.6758 24.3334 13.1444 26.294 11.9533 29.0625V29.047Z" fill="#00B5FF"/>
</g>
<defs>
<clipPath id="clip0_55469_35679">
<rect width="60" height="60" fill="white"/>
</clipPath>
</defs>
</svg>
