<svg width="60" height="60" viewBox="0 0 60 60" fill="none" xmlns="http://www.w3.org/2000/svg">
<g clip-path="url(#clip0_55468_35646)">
<path d="M15.9454 17.5906C15.4872 17.5906 15.0422 17.7572 15.0422 18.1463V21.7732H11.9157V18.1463C11.9157 17.7572 11.457 17.5906 11.0125 17.5906C10.5539 17.5906 10.1094 17.7572 10.1094 18.1463V27.1784C10.1094 27.5538 10.5539 27.7484 11.0125 27.7484C11.457 27.7484 11.9157 27.5538 11.9157 27.1784V23.1904H15.0422V27.1784C15.0422 27.5538 15.4872 27.7484 15.9454 27.7484C16.3904 27.7484 16.8486 27.5538 16.8486 27.1784V18.1463C16.8486 17.7572 16.3899 17.5906 15.9454 17.5906Z" fill="#00B5FF"/>
<path d="M24.8245 26.9702C24.8245 26.5394 24.6162 26.1645 24.2551 26.1645H20.3224V23.3712H22.4345C22.8236 23.3712 23.004 22.9958 23.004 22.6763C23.004 22.3014 22.7957 21.954 22.4345 21.954H20.3224V19.1749H24.2551C24.6162 19.1749 24.8245 18.7995 24.8245 18.3688C24.8245 17.9939 24.6437 17.5906 24.2551 17.5906H19.308C18.9052 17.5906 18.5156 17.7851 18.5156 18.1605V27.1789C18.5156 27.5543 18.9047 27.7484 19.308 27.7484H24.2551C24.6437 27.7484 24.8245 27.3455 24.8245 26.9702Z" fill="#00B5FF"/>
<path d="M26.6708 27.7484H31.0759C31.4371 27.7484 31.6179 27.3455 31.6179 26.9564C31.6179 26.5531 31.4371 26.164 31.0759 26.164H27.6852V18.1463C27.6852 17.7572 27.227 17.5906 26.7821 17.5906C26.3239 17.5906 25.8789 17.7572 25.8789 18.1463V27.1784C25.8789 27.5538 26.268 27.7484 26.6708 27.7484Z" fill="#00B5FF"/>
<path d="M33.5067 27.7484C33.9516 27.7484 34.4099 27.5538 34.4099 27.1784V23.9549H35.9662C37.8005 23.9549 39.2319 23.0792 39.2319 20.8004V20.7171C39.2319 18.4384 37.8422 17.5906 36.0775 17.5906H33.2842C32.8676 17.5906 32.6035 17.8547 32.6035 18.1463V27.1784C32.6035 27.5538 33.0485 27.7484 33.5067 27.7484ZM34.4099 19.1744H35.9662C36.8694 19.1744 37.4251 19.689 37.4251 20.7725V20.9396C37.4251 22.0231 36.8694 22.5372 35.9662 22.5372H34.4099V19.1744Z" fill="#00B5FF"/>
<path d="M20.7069 38.0406H54.0234C54.5087 38.0406 54.9023 37.6474 54.9023 37.1617C54.9023 36.6765 54.5087 36.2828 54.0234 36.2828H46.9977C47.9741 35.262 48.5747 33.8786 48.5747 32.3575V30.7672H54.0234C54.5087 30.7672 54.9023 30.374 54.9023 29.8883C54.9023 29.4031 54.5087 29.0094 54.0234 29.0094H48.5747V23.4938H54.0234C54.5087 23.4938 54.9023 23.1001 54.9023 22.6149C54.9023 22.1297 54.5087 21.736 54.0234 21.736H48.5747V12.1284C48.5747 8.9946 46.0254 6.44531 42.8915 6.44531H5.68314C2.54929 6.44531 0 8.9946 0 12.1284V32.3575C0 35.4913 2.54929 38.0406 5.68314 38.0406C5.97198 38.0406 6.24069 38.1706 6.42014 38.3972C6.59958 38.6234 6.66458 38.9145 6.59866 39.196L3.67126 51.6783C3.51974 52.326 3.81088 52.9724 4.39636 53.2878C4.61792 53.4073 4.8555 53.465 5.09033 53.465C5.47668 53.465 5.85526 53.308 6.13953 53.0077L20.024 38.335C20.2007 38.1482 20.4497 38.0406 20.7069 38.0406ZM18.7473 37.1265L5.64194 50.9756L8.30978 39.597C8.4993 38.79 8.31253 37.9546 7.79755 37.305C7.28256 36.6554 6.51215 36.2828 5.68314 36.2828C3.51883 36.2828 1.75781 34.5222 1.75781 32.3575V12.1284C1.75781 9.96414 3.51883 8.20312 5.68314 8.20312H42.892C45.0563 8.20312 46.8173 9.96414 46.8173 12.1284V32.3579C46.8173 34.5222 45.0563 36.2833 42.892 36.2833H20.7069C19.9686 36.2828 19.2545 36.5904 18.7473 37.1265Z" fill="#00B5FF"/>
<path d="M54.4436 14.1399H51.7566C51.2713 14.1399 50.8777 14.5336 50.8777 15.0188C50.8777 15.5045 51.2713 15.8977 51.7566 15.8977H54.4436C56.5379 15.8977 58.2412 17.6015 58.2412 19.6953V40.2141C58.2412 42.3084 56.5379 44.0117 54.4436 44.0117H24.5388C22.754 44.0117 21.231 42.7986 20.836 41.0614C20.728 40.5881 20.2565 40.2915 19.7836 40.399C19.3103 40.5071 19.0141 40.9781 19.1217 41.4514C19.7003 43.9939 21.9278 45.7695 24.5388 45.7695H54.4436C57.507 45.7695 59.9991 43.2775 59.9991 40.2141V19.6953C59.9991 16.632 57.507 14.1399 54.4436 14.1399Z" fill="#00B5FF"/>
</g>
<defs>
<clipPath id="clip0_55468_35646">
<rect width="60" height="60" fill="white"/>
</clipPath>
</defs>
</svg>
