<?xml version="1.0" encoding="UTF-8"?>
<svg id="Layer_1" data-name="Layer 1" xmlns="http://www.w3.org/2000/svg" version="1.1" viewBox="0 0 512 512">
  <defs>
    <style>
      .cls-1 {
        fill: #02b5ff;
        stroke-width: 0px;
      }
    </style>
  </defs>
  <path class="cls-1" d="M169.3,129.7c-1.1,4.1-.5,8.5,1.6,12.2l13.1,22.2c2.1,3.7,5.6,6.4,9.8,7.4,4.1,1.1,8.5.5,12.2-1.6l4.9-2.5c5.3,4,11,7.3,17,9.8v5.4c0,8.8,7.2,16,16,16h25.7c8.8,0,16-7.2,16-16v-5.5c6.1-2.6,11.8-5.9,17-9.9l4.7,2.7c7.6,4.4,17.4,1.8,21.8-5.8l12.8-22.2c4.4-7.6,1.8-17.4-5.8-21.8l-4.6-2.5c.5-3.4.7-6.8.7-10.2,0-3.3-.2-6.7-.7-10l4.6-2.6c7.6-4.4,10.2-14.2,5.8-21.8l-12.8-22.2c-4.4-7.6-14.2-10.2-21.8-5.8l-5,2.5c-5.2-4-11-7.3-17-9.8v-5.4c0-8.8-7.2-16-16-16h-25.7c-8.8,0-16,7.2-16,16v5.4c-6,2.6-11.7,6-17,9.9l-4.6-2.6c-7.6-4.4-17.4-1.9-21.9,5.8,0,0,0,0,0,0l-12.8,22.2c-2.1,3.7-2.7,8.1-1.6,12.2,1.1,4.1,3.8,7.6,7.4,9.8l4.6,2.4c-.4,3.4-.7,6.8-.7,10.2,0,3.4.2,6.7.7,10.1l-4.6,2.6c-3.8,2.1-6.6,5.5-7.8,9.7h0ZM196.6,107.3c0-2.7.2-5.3.6-8,.8-6.5-2.3-12.8-8-16l-4.6-2.6,13-22.1,4.6,2.7c5.7,3.3,12.9,2.8,18-1.4,4-3.2,8.5-5.9,13.2-8,6.1-2.4,10.1-8.3,10.1-14.9v-5h25.7v5.4c0,6.6,4,12.5,10.1,14.9,4.7,2.1,9.2,4.8,13.2,8,5.1,4.1,12.3,4.7,18,1.4l4.7-2.7,12.8,21.9-4.6,2.6c-5.7,3.2-8.8,9.5-8,16,.3,2.7.5,5.3.6,8,0,2.7-.2,5.3-.6,8-.8,6.5,2.3,12.8,8,16l4.6,2.6-12.8,22.2-4.7-2.7c-5.7-3.3-12.9-2.8-18,1.4-4,3.2-8.5,5.9-13.2,8-6.1,2.4-10.1,8.3-10.1,14.9v5.4h-25.7v-5.4c0-6.6-4-12.5-10.1-14.9-4.7-2.1-9.2-4.8-13.2-8-2.9-2.2-6.4-3.4-10.1-3.4-2.8,0-5.6.7-8,2.1l-4.6,2.7-12.9-22.2,4.6-2.6c5.7-3.2,8.8-9.5,8-16-.4-2.7-.6-5.4-.6-8.2h0Z"/>
  <path class="cls-1" d="M256,147c22.1,0,40-17.9,40-40s-17.9-40-40-40-40,17.9-40,40,17.9,40,40,40ZM256,83c13.3,0,24,10.7,24,24s-10.7,24-24,24-24-10.7-24-24,10.7-24,24-24ZM441.8,454.2c1.1-14.6,6.5-28.5,15.5-40,21.7-25.5,19-63.7-6.1-85.9-13.8-12.3-32.2-18.1-50.6-16-29.7,3-53.3,26.2-56.7,55.8-1.8,17,3.5,33.9,14.7,46.8,9,11.7,14.2,25.9,15.1,40.6v7.4c0,18.7,15.2,33.8,33.9,33.8,18.7,0,33.8-15.1,33.8-33.8l.3-8.6ZM425.8,462.8c0,9.9-8,17.8-17.9,17.8-9.8,0-17.8-8-17.8-17.8v-6.8h35.7v6.8ZM427.8,440h-11.8v-28.7l13.7-13.6-11.4-11.4-10.3,10.4-10.3-10.4-11.4,11.4,13.7,13.6v28.7h-11.9c-2.9-13-8.7-25.1-17-35.6-8.4-9.5-12.4-22.1-11.1-34.7,2.6-22.2,20.3-39.5,42.5-41.7,1.8-.1,3.7-.1,5.5,0,12,0,23.7,4.4,32.6,12.4,9.8,8.7,15.3,21.2,15.4,34.2,0,10.8-3.8,21.3-10.9,29.4-8.3,10.6-14.2,22.8-17.4,35.9h0ZM55,493.7c1.5,1.5,3.5,2.3,5.6,2.3h91.4c4.4,0,8-3.6,8-8v-144c0-4.4-3.6-8-8-8H24c-4.4,0-8,3.6-8,8v108c0,2.1.9,4.2,2.4,5.7l36.6,36ZM56,472l-16-15.6,19.6-3.9-3.6,19.5ZM32,352h112v128h-73.7l7.2-36.2c.8-4.3-2-8.5-6.4-9.4-1-.2-2-.2-3,0l-36.2,7.2v-89.7Z"/>
  <path class="cls-1" d="M48,368h80v16H48v-16ZM48,408h80v16H48v-16ZM96,448h32v16h-32v-16ZM372.6,93.6l-9.3,13c41.3,29.6,68.5,75,75,125.4h-22.4c-2.9,0-5.7,1.6-7,4.2-1.3,2.5-1.2,5.6.4,8l32,48c1.4,2.3,3.9,3.7,6.6,3.8,2.7,0,5.1-1.3,6.6-3.5l32-48c1.6-2.4,1.7-5.5.4-8-1.3-2.7-4-4.4-7-4.5h-25.5c-6.6-55.6-36.3-105.8-81.8-138.4ZM448,273.6l-17-25.6h34.1l-17,25.6ZM221.8,484.7c1.5,1.8,3.7,2.8,6.1,2.8.6,0,1.1,0,1.7,0,2.9-.6,5.2-2.8,6-5.6l7.4-26.2c4.5,0,8.8.5,13,.5,28.8,0,57.2-6.1,83.4-18.2l-6.7-14.6c-24,11-50.2,16.6-76.6,16.5h-8.6l5.6-19.7c.8-2.9,0-5.9-2.2-8-2.1-2-5.2-2.7-8-1.8l-54.9,17.5c-2.6.8-4.5,2.9-5.3,5.4-.7,2.6,0,5.3,1.7,7.4l37.4,43.9ZM233.6,430.2l-9.6,32.8-19.7-23,29.3-9.8ZM125,165.3c1.4,1.1,3.2,1.7,5,1.8,1.1,0,2.2-.3,3.3-.7,2.7-1.2,4.5-3.8,4.7-6.7l4.3-57.5c.2-2.7-.9-5.2-3-6.9-2.1-1.6-4.9-2.1-7.4-1.3l-54.7,18.1c-2.8.9-4.9,3.3-5.4,6.2-.6,3,.5,6.1,3,8l18.5,14.5c-24.1,33.6-37.1,73.9-37.1,115.3,0,19.8,2.9,39.4,8.6,58.3l15.4-4.6c-16.6-54.3-7.1-113.2,25.8-159.5l19.3,15.1ZM125,112.9l-2.3,30.6-26.7-21,29-9.6ZM480,360h16v16h-16v-16ZM460.6,328l11.3-11.3,11.3,11.3-11.3,11.3-11.3-11.3ZM320,360h16v16h-16v-16ZM340.6,320l11.3-11.3,11.3,11.3-11.3,11.3-11.3-11.3ZM400,288h16v16h-16v-16Z"/>
</svg>