<svg width="60" height="60" viewBox="0 0 60 60" fill="none" xmlns="http://www.w3.org/2000/svg">
<path d="M30 45.9375C38.7881 45.9375 45.9375 38.7881 45.9375 30C45.9375 21.2119 38.7881 14.0625 30 14.0625C21.2119 14.0625 14.0625 21.2119 14.0625 30C14.0625 38.7881 21.2119 45.9375 30 45.9375ZM30 15.9375C37.7541 15.9375 44.0625 22.2459 44.0625 30C44.0625 37.7541 37.7541 44.0625 30 44.0625C22.2459 44.0625 15.9375 37.7541 15.9375 30C15.9375 22.2459 22.2459 15.9375 30 15.9375Z" fill="#00B5FF"/>
<path d="M35.625 36.5625H39.375C39.8925 36.5625 40.3125 36.1425 40.3125 35.625V23.4375C40.3125 22.92 39.8925 22.5 39.375 22.5H35.625C35.1075 22.5 34.6875 22.92 34.6875 23.4375V35.625C34.6875 36.1425 35.1075 36.5625 35.625 36.5625ZM36.5625 24.375H38.4375V34.6875H36.5625V24.375Z" fill="#00B5FF"/>
<path d="M28.125 36.5625H31.875C32.3925 36.5625 32.8125 36.1425 32.8125 35.625V26.25C32.8125 25.7325 32.3925 25.3125 31.875 25.3125H28.125C27.6075 25.3125 27.1875 25.7325 27.1875 26.25V35.625C27.1875 36.1425 27.6075 36.5625 28.125 36.5625ZM29.0625 27.1875H30.9375V34.6875H29.0625V27.1875Z" fill="#00B5FF"/>
<path d="M24.375 36.5625C24.8925 36.5625 25.3125 36.1425 25.3125 35.625V30C25.3125 29.4825 24.8925 29.0625 24.375 29.0625H20.625C20.1075 29.0625 19.6875 29.4825 19.6875 30V35.625C19.6875 36.1425 20.1075 36.5625 20.625 36.5625H24.375ZM21.5625 30.9375H23.4375V34.6875H21.5625V30.9375Z" fill="#00B5FF"/>
<path d="M11.1347 24.1689C10.9509 24.8064 10.4878 25.3014 9.89531 25.4935L7.38281 26.3101C7.035 26.4235 6.78562 26.7273 6.74156 27.0901C6.6225 28.0848 6.5625 29.0635 6.5625 30.0001C6.5625 30.9367 6.6225 31.9154 6.7425 32.9101C6.78562 33.2729 7.03594 33.5767 7.38375 33.6901L9.89625 34.5067C10.4887 34.6989 10.9519 35.1948 11.1356 35.8323C11.2266 36.1473 11.325 36.4595 11.43 36.7689C11.6475 37.4101 11.55 38.1123 11.1675 38.6467L9.66938 40.741C9.45844 41.0364 9.43594 41.4264 9.61312 41.7442C10.5703 43.4551 11.7384 45.046 13.0838 46.4729C13.3388 46.7439 13.7278 46.8367 14.0766 46.7139L16.3425 45.9179C16.9209 45.7154 17.5622 45.8298 18.0572 46.2235C18.3047 46.4204 18.5569 46.6117 18.8128 46.7964C19.3397 47.1751 19.6491 47.7976 19.6416 48.4614L19.6153 50.7498C19.6116 51.1173 19.8216 51.4529 20.1534 51.6095C21.9441 52.4532 23.8425 53.0635 25.7944 53.4235C25.8497 53.4329 25.9059 53.4376 25.9622 53.4376C26.2688 53.4376 26.5603 53.2867 26.7366 53.0279L27.9497 51.2485C28.3087 50.7217 28.9003 50.4414 29.5172 50.431C29.8378 50.4395 30.1603 50.4395 30.4828 50.431C31.1072 50.3964 31.6903 50.7217 32.0494 51.2485L33.2616 53.0279C33.4706 53.3354 33.84 53.4901 34.2066 53.4217C36.1584 53.0617 38.0559 52.4514 39.8475 51.6076C40.1794 51.451 40.3894 51.1154 40.3856 50.7489L40.3594 48.4604C40.3519 47.7967 40.6612 47.1742 41.1872 46.7954C41.4431 46.6107 41.6953 46.4204 41.9428 46.2235C42.4378 45.8298 43.0781 45.7135 43.6584 45.9179L45.9244 46.7139C46.2731 46.8357 46.6631 46.7429 46.9172 46.4729C48.2625 45.047 49.4297 43.456 50.3869 41.7442C50.5641 41.4273 50.5425 41.0364 50.3316 40.741L48.8334 38.6467C48.4509 38.1123 48.3525 37.4101 48.5709 36.7689C48.6759 36.4595 48.7744 36.1473 48.8653 35.8323C49.0491 35.1948 49.5122 34.6998 50.1047 34.5076L52.6172 33.691C52.965 33.5776 53.2144 33.2739 53.2584 32.911C53.3775 31.9154 53.4375 30.9367 53.4375 30.0001C53.4375 29.0635 53.3775 28.0848 53.2575 27.0901C53.2144 26.7273 52.9641 26.4235 52.6163 26.3101L50.1038 25.4935C49.5113 25.3014 49.0481 24.8054 48.8644 24.1679C48.7734 23.8529 48.675 23.5407 48.57 23.2314C48.3525 22.5901 48.45 21.8879 48.8325 21.3535L50.3306 19.2592C50.5416 18.9639 50.5641 18.5739 50.3869 18.256C49.4297 16.5451 48.2616 14.9542 46.9162 13.5273C46.6622 13.2573 46.2713 13.1626 45.9234 13.2864L43.6575 14.0823C43.08 14.2867 42.4387 14.1714 41.9428 13.7767C41.6953 13.5798 41.4431 13.3885 41.1872 13.2039C40.6603 12.8251 40.3509 12.2026 40.3584 11.5389L40.3847 9.25042C40.3884 8.88292 40.1784 8.5473 39.8466 8.39073C38.0559 7.54698 36.1575 6.93667 34.2056 6.57667C33.8419 6.51105 33.4697 6.6648 33.2616 6.97042L32.0484 8.7498C31.6894 9.27667 31.11 9.56917 30.4809 9.5673C30.1603 9.55886 29.8378 9.55886 29.5153 9.5673C28.8712 9.5823 28.3078 9.27667 27.9488 8.7498L26.7366 6.97042C26.5275 6.66386 26.1591 6.50917 25.7916 6.57667C23.8397 6.93667 21.9422 7.54698 20.1506 8.39073C19.8187 8.5473 19.6088 8.88292 19.6125 9.24948L19.6387 11.5379C19.6462 12.2017 19.3369 12.8242 18.8109 13.2029C18.555 13.3876 18.3028 13.5779 18.0553 13.7748C17.5603 14.1685 16.9191 14.2829 16.3397 14.0804L14.0738 13.2845C13.7241 13.1617 13.335 13.2564 13.0809 13.5254C11.7356 14.9514 10.5684 16.5423 9.61125 18.2542C9.43406 18.571 9.45562 18.962 9.66656 19.2573L11.1647 21.3517C11.5472 21.886 11.6447 22.5882 11.4262 23.2295C11.325 23.5417 11.2266 23.8539 11.1347 24.1689ZM12.6928 20.2642L11.5453 18.6601C12.2653 17.4498 13.1016 16.3107 14.0381 15.2607L15.72 15.8514C16.9116 16.2695 18.2213 16.0417 19.2244 15.2439C19.4484 15.0657 19.6763 14.8932 19.9078 14.7264C20.9288 13.9904 21.5297 12.7914 21.5147 11.5182L21.495 9.84105C22.7934 9.27386 24.1481 8.83792 25.5356 8.54073L26.3981 9.8073C27.1181 10.8639 28.3069 11.4695 29.5612 11.4432C29.8528 11.4367 30.1463 11.4367 30.435 11.4432C31.7044 11.4835 32.8791 10.8639 33.5981 9.8073L34.4625 8.54073C35.8509 8.83792 37.2056 9.27386 38.5041 9.84105L38.4844 11.5182C38.4703 12.7914 39.0712 13.9904 40.0922 14.7264C40.3237 14.8932 40.5516 15.0657 40.7756 15.2439C41.7797 16.0426 43.0894 16.2704 44.2809 15.8514L45.9628 15.2607C46.9003 16.3107 47.7356 17.4507 48.4556 18.6601L47.3081 20.2632C46.575 21.2879 46.3838 22.6229 46.7963 23.8351C46.8919 24.1173 46.9809 24.4014 47.0644 24.6892C47.4206 25.9248 48.3412 26.8923 49.5253 27.2776L51.4603 27.9057C51.5278 28.622 51.5625 29.3242 51.5625 30.0001C51.5625 30.676 51.5278 31.3782 51.4594 32.0945L49.5253 32.7226C48.3403 33.107 47.4206 34.0745 47.0634 35.311C46.9809 35.5989 46.8909 35.8829 46.7953 36.1642C46.3828 37.3754 46.575 38.7114 47.3072 39.736L48.4537 41.3401C47.7337 42.5504 46.8975 43.6895 45.9609 44.7395L44.2791 44.1489C43.0856 43.7298 41.7778 43.9576 40.7747 44.7564C40.5506 44.9345 40.3228 45.107 40.0912 45.2739C39.0703 46.0098 38.4694 47.2089 38.4844 48.482L38.5041 50.1592C37.2056 50.7264 35.8509 51.1623 34.4634 51.4595L33.6009 50.1929C32.8987 49.1626 31.7569 48.556 30.5325 48.556C30.5006 48.556 30.4697 48.556 30.4378 48.557C30.1462 48.5635 29.8528 48.5635 29.5641 48.557C28.2872 48.5279 27.12 49.1364 26.4009 50.1929L25.5375 51.4595C24.1491 51.1623 22.7944 50.7264 21.4959 50.1592L21.5156 48.482C21.5297 47.2089 20.9288 46.0098 19.9078 45.2739C19.6763 45.107 19.4484 44.9345 19.2244 44.7564C18.2203 43.9576 16.9106 43.7289 15.7191 44.1489L14.0372 44.7395C13.0997 43.6895 12.2644 42.5495 11.5444 41.3401L12.6919 39.737C13.425 38.7123 13.6162 37.3773 13.2037 36.1651C13.1081 35.8829 13.0191 35.5989 12.9356 35.311C12.5794 34.0754 11.6588 33.1079 10.4747 32.7226L8.53969 32.0945C8.47219 31.3782 8.4375 30.676 8.4375 30.0001C8.4375 29.3242 8.47219 28.622 8.54062 27.9057L10.4756 27.2776C11.6606 26.8923 12.5803 25.9248 12.9366 24.6892C13.0191 24.4014 13.1091 24.1173 13.2047 23.836C13.6172 22.6248 13.4259 21.2889 12.6928 20.2642Z" fill="#00B5FF"/>
<path d="M57.8291 18.7978L56.0338 19.3959C51.7456 8.88281 41.4172 1.875 30.0003 1.875C18.2544 1.875 7.64187 9.28031 3.59375 20.3016L5.35344 20.9475C9.1325 10.6612 19.0372 3.75 30.0003 3.75C40.6156 3.75 50.2222 10.2403 54.2525 19.9903L52.2041 20.6728C51.8787 20.7816 51.6378 21.06 51.5778 21.3975C51.5178 21.7359 51.6472 22.08 51.9153 22.2947L56.6028 26.0447C56.7716 26.1797 56.9778 26.25 57.1878 26.25C57.3012 26.25 57.4147 26.2303 57.5225 26.1881C57.8328 26.0691 58.0578 25.7944 58.1122 25.4662L59.0497 19.8412C59.1041 19.5169 58.9841 19.1878 58.7337 18.9741C58.4834 18.7603 58.1403 18.6928 57.8291 18.7978ZM56.5259 23.5819L54.4316 21.9066L56.945 21.0694L56.5259 23.5819Z" fill="#00B5FF"/>
<path d="M2.03016 40.2993L3.72516 40.0172C7.86141 50.8593 18.3708 58.125 30.0005 58.125C41.7464 58.125 52.3589 50.7197 56.407 39.6984L54.6474 39.0525C50.8683 49.3387 40.9636 56.25 30.0005 56.25C19.2727 56.25 9.57422 49.6237 5.62079 39.7012L7.65422 39.3618C7.98235 39.3075 8.25704 39.0825 8.3761 38.7722C8.49422 38.4609 8.43985 38.1112 8.23266 37.8515L4.48266 33.164C4.26797 32.895 3.92297 32.7637 3.58547 32.8265C3.24797 32.8865 2.96954 33.1275 2.86079 33.4528L0.985786 39.0778C0.881724 39.39 0.948286 39.7331 1.16204 39.9834C1.34297 40.1943 1.6036 40.3125 1.87547 40.3125C1.92704 40.3125 1.97766 40.3087 2.03016 40.2993ZM4.09454 35.6812L5.76985 37.7756L3.25735 38.1947L4.09454 35.6812Z" fill="#00B5FF"/>
</svg>
