<?xml version="1.0" encoding="utf-8"?>
<!-- Generator: Adobe Illustrator 27.0.0, SVG Export Plug-In . SVG Version: 6.00 Build 0)  -->
<svg version="1.1" xmlns="http://www.w3.org/2000/svg" xmlns:xlink="http://www.w3.org/1999/xlink" x="0px" y="0px"
	 viewBox="0 0 500 500" style="enable-background:new 0 0 500 500;" xml:space="preserve">
<style type="text/css">
	.st0{display:none;}
	.st1{display:inline;}
	.st2{fill:#F5F5F5;}
	.st3{fill:#EBEBEB;}
	.st4{fill:#E0E0E0;}
	.st5{fill:#263238;}
	.st6{fill:#00B5FF;}
	.st7{opacity:0.3;}
	.st8{fill:#FFFFFF;}
	.st9{opacity:0.2;}
	.st10{fill:#FFBF9D;}
	.st11{fill:#455A64;}
	.st12{fill:#FF9A6C;}
	.st13{fill:#00639A;}
</style>
<g id="Background_Complete">
</g>
<g id="Background_Simple" class="st0">
	<g class="st1">
		<path class="st2" d="M79.2,116l1.5-3.6c13-30,41.1-50.9,73.4-53.3c4.2-0.3,8.3-0.3,12.5,0c30,2.2,58.4,20.8,72.8,47.5
			c8.5,15.7,12.8,34.6,26.4,46.2c17.6,15,43.6,12,66.3,8.2s48.7-6.8,66.2,8.3c11,9.5,16.1,24.4,17.3,38.9
			c3.2,38.5-18.7,76.3-50.2,98c-31.5,21.6-71.2,28.6-109.3,26.3c-53.4-3.3-106.7-25.3-142.5-65.6C77.8,226.6,62,167.2,79.2,116z"/>
	</g>
	<g class="st1">
		<circle class="st2" cx="48.1" cy="354.6" r="19.8"/>
	</g>
	<g class="st1">
		<circle class="st2" cx="417" cy="89.3" r="25.5"/>
	</g>
</g>
<g id="Floor">
</g>
<g id="Card">
</g>
<g id="Speech_Bubble">
</g>
<g id="Character">
	<g>
		<g>
			<g>
				<path class="st2" d="M46.2,91.1l28.7-49c0.8-1.4,2.6-1.9,4-1.3l51.6,23.7L46.2,91.1z"/>
			</g>
			<g>
				
					<rect x="53.8" y="76.4" transform="matrix(0.9538 -0.3005 0.3005 0.9538 -28.0169 34.4514)" class="st2" width="88.4" height="63.9"/>
			</g>
			<g>
				<path class="st3" d="M52,89.3l25.1-42.9c0.5-0.8,1.5-1.2,2.4-0.8l45.2,20.8L52,89.3z"/>
			</g>
			<g>
				<path class="st3" d="M46.2,91.1l49.4,18.4c1.8,0.7,3.9,0,5-1.6l29.9-43.4L46.2,91.1z"/>
			</g>
			<g>
				<g>
					<path class="st4" d="M100.6,108c0,0,0-0.1,0.1-0.2c0.1-0.2,0.2-0.4,0.4-0.6c0.4-0.6,0.9-1.3,1.6-2.4c1.4-2.1,3.5-5.1,6.1-8.9
						c5.2-7.7,12.7-18.5,21.6-31.5l0.3,0.4c-12.5,4-27,8.5-42.4,13.4c-15.2,4.8-29.5,9.3-42,13.2l0-0.4
						c14.8,5.7,27.2,10.4,35.9,13.8c4.3,1.7,7.8,3,10.1,3.9c1.2,0.5,2,0.8,2.7,1.1c0.3,0.1,0.5,0.2,0.7,0.3c0.2,0.1,0.2,0.1,0.2,0.1
						c0,0-0.1,0-0.2-0.1c-0.2-0.1-0.4-0.1-0.7-0.2c-0.6-0.2-1.5-0.6-2.7-1c-2.4-0.9-5.8-2.2-10.2-3.8c-8.8-3.3-21.2-8-36-13.6
						l-0.6-0.2l0.6-0.2c12.4-3.9,26.8-8.5,42-13.2c15.4-4.8,29.9-9.4,42.4-13.3l0.6-0.2l-0.4,0.6C121.8,77.6,114.3,88.4,109,96
						c-2.6,3.8-4.7,6.8-6.2,8.8c-0.7,1-1.3,1.8-1.6,2.3c-0.2,0.2-0.3,0.4-0.4,0.6C100.7,107.9,100.6,108,100.6,108z"/>
				</g>
			</g>
			<g>
				<g>
					<path class="st2" d="M65.4,152.1l30.5-42c1.1-1.5,3-2.1,4.8-1.5l49.1,16.9"/>
				</g>
				<g>
					<g>
						<path class="st4" d="M149.8,125.5c0,0-0.1,0-0.3-0.1c-0.2-0.1-0.5-0.1-0.8-0.2c-0.7-0.2-1.7-0.6-3-1
							c-2.7-0.9-6.4-2.2-11.1-3.7c-4.7-1.6-10.2-3.5-16.4-5.6c-3.1-1.1-6.3-2.2-9.7-3.3c-1.7-0.6-3.4-1.2-5.1-1.8
							c-0.9-0.3-1.7-0.6-2.6-0.9c-0.8-0.3-1.7-0.3-2.6-0.1c-0.8,0.3-1.6,0.8-2.1,1.5c-0.5,0.8-1.1,1.5-1.6,2.2
							c-1.1,1.5-2.1,2.9-3.2,4.4c-2.1,2.9-4.1,5.6-6,8.3c-3.9,5.3-7.3,10-10.2,14c-2.9,4-5.3,7.2-6.9,9.4c-0.8,1.1-1.4,1.9-1.9,2.5
							c-0.2,0.3-0.4,0.5-0.5,0.7c-0.1,0.1-0.2,0.2-0.2,0.2c0,0,0-0.1,0.1-0.2c0.1-0.2,0.3-0.4,0.5-0.7c0.4-0.6,1.1-1.5,1.8-2.6
							c1.6-2.3,4-5.5,6.8-9.5c2.9-4,6.3-8.8,10.2-14.1c1.9-2.6,3.9-5.4,6-8.3c1-1.4,2.1-2.9,3.2-4.4c0.5-0.7,1.1-1.5,1.6-2.2
							c0.6-0.8,1.4-1.4,2.4-1.7c1-0.3,2-0.3,2.9,0.1c0.9,0.3,1.8,0.6,2.6,0.9c1.7,0.6,3.4,1.2,5.1,1.8c3.4,1.2,6.6,2.3,9.7,3.4
							c6.2,2.1,11.7,4.1,16.4,5.7c4.6,1.6,8.4,3,11,3.9c1.3,0.5,2.3,0.8,3,1.1c0.3,0.1,0.6,0.2,0.8,0.3
							C149.7,125.4,149.8,125.5,149.8,125.5z"/>
					</g>
				</g>
			</g>
		</g>
		<g>
			<g>
				
					<rect x="372.3" y="55.4" transform="matrix(0.9776 0.2104 -0.2104 0.9776 24.2317 -81.8101)" class="st2" width="48.7" height="35.2"/>
			</g>
			<g>
				<path class="st2" d="M376.5,50.7l18.6,22.3c0.7,0.8,1.9,1.1,2.8,0.6l26.1-12.6L376.5,50.7z"/>
			</g>
			<g>
				<g>
					<path class="st4" d="M398,73.5c0,0,0.2-0.1,0.5-0.3c0.3-0.2,0.8-0.4,1.4-0.7c1.3-0.6,3.1-1.5,5.3-2.6
						c4.6-2.3,11.1-5.4,18.9-9.2l0.1,0.4c-7.1-1.5-15.3-3.3-23.9-5.1c-8.6-1.9-16.6-3.6-23.7-5.1l0.2-0.4
						c5.5,6.7,10.1,12.4,13.4,16.4c1.6,2,2.9,3.5,3.8,4.7c0.4,0.5,0.7,0.9,1,1.2c0.2,0.3,0.3,0.4,0.3,0.4c0,0-0.1-0.1-0.4-0.4
						c-0.3-0.3-0.6-0.7-1-1.2c-0.9-1.1-2.2-2.6-3.9-4.6c-3.3-4-8-9.6-13.5-16.3l-0.4-0.5l0.7,0.1c7,1.5,15.1,3.2,23.7,5.1
						c8.7,1.9,16.8,3.6,23.9,5.2l0.7,0.1l-0.6,0.3c-7.8,3.7-14.3,6.8-19,9.1c-2.3,1.1-4.1,1.9-5.4,2.5c-0.6,0.3-1.1,0.5-1.4,0.6
						C398.1,73.5,398,73.5,398,73.5z"/>
				</g>
			</g>
			<g>
				<g>
					<path class="st2" d="M369.1,85l26-11.8c0.9-0.4,2-0.2,2.7,0.6l18.9,21.4"/>
				</g>
				<g>
					<g>
						<path class="st4" d="M416.7,95.3c0,0-0.2-0.1-0.4-0.4c-0.3-0.3-0.7-0.8-1.2-1.3c-1.1-1.2-2.5-2.8-4.3-4.8
							c-1.8-2-4-4.5-6.4-7.1c-1.2-1.3-2.4-2.8-3.7-4.2c-0.6-0.7-1.3-1.5-2-2.2c-0.3-0.4-0.7-0.8-1-1.1c-0.3-0.4-0.7-0.6-1.2-0.7
							c-0.5-0.1-0.9,0-1.3,0.2c-0.5,0.2-0.9,0.4-1.4,0.6c-0.9,0.4-1.8,0.8-2.7,1.2c-1.8,0.8-3.5,1.6-5.1,2.3
							c-3.3,1.5-6.2,2.8-8.7,3.9c-2.4,1.1-4.4,1.9-5.9,2.6c-0.7,0.3-1.2,0.5-1.6,0.7c-0.4,0.1-0.6,0.2-0.6,0.2c0,0,0.2-0.1,0.5-0.3
							c0.4-0.2,0.9-0.5,1.6-0.8c1.4-0.7,3.4-1.6,5.8-2.7c2.5-1.1,5.4-2.5,8.7-4c1.6-0.7,3.4-1.5,5.1-2.3c0.9-0.4,1.8-0.8,2.7-1.2
							c0.5-0.2,0.9-0.4,1.4-0.6c0.5-0.2,1.1-0.3,1.7-0.2c0.6,0.1,1.1,0.4,1.4,0.9c0.3,0.4,0.7,0.8,1,1.1c0.7,0.8,1.3,1.5,2,2.2
							c1.3,1.5,2.5,2.9,3.7,4.2c2.3,2.7,4.5,5.1,6.3,7.2c1.7,2,3.2,3.7,4.2,4.9c0.5,0.5,0.8,1,1.1,1.3
							C416.6,95.1,416.7,95.3,416.7,95.3z"/>
					</g>
				</g>
			</g>
		</g>
		<g>
			<g>
				
					<rect x="40.6" y="351.7" transform="matrix(0.8614 -0.5079 0.5079 0.8614 -178.7347 84.669)" class="st2" width="50.4" height="36.4"/>
			</g>
			<g>
				<path class="st2" d="M34.8,367l29.8,3.9c1.1,0.1,2.2-0.5,2.6-1.5l11-27.9L34.8,367z"/>
			</g>
			<g>
				<g>
					<path class="st4" d="M67.2,369.3c0,0,0-0.2,0.2-0.5c0.1-0.4,0.3-0.9,0.6-1.5c0.5-1.4,1.3-3.3,2.2-5.7c1.9-5,4.7-11.9,7.9-20.3
						l0.3,0.3c-6.5,3.8-13.9,8.2-21.8,12.9c-7.8,4.6-15.2,8.9-21.6,12.7l-0.1-0.4c8.9,1.3,16.4,2.3,21.7,3.1
						c2.6,0.4,4.7,0.7,6.1,0.9c0.7,0.1,1.2,0.2,1.6,0.3c0.4,0.1,0.6,0.1,0.6,0.1c0,0-0.2,0-0.6,0c-0.4,0-0.9-0.1-1.6-0.2
						c-1.5-0.2-3.5-0.4-6.1-0.8c-5.3-0.7-12.8-1.7-21.7-2.9l-0.7-0.1l0.6-0.3c6.4-3.8,13.8-8.1,21.6-12.8c7.9-4.7,15.4-9,21.8-12.8
						l0.6-0.3l-0.3,0.6c-3.3,8.3-6.1,15.3-8.1,20.2c-1,2.4-1.8,4.3-2.3,5.7c-0.3,0.6-0.5,1.1-0.6,1.5
						C67.3,369.2,67.2,369.3,67.2,369.3z"/>
				</g>
			</g>
			<g>
				<g>
					<path class="st2" d="M53.3,398.3l11.5-27.2c0.4-1,1.4-1.6,2.5-1.5l29.4,3.1"/>
				</g>
				<g>
					<g>
						<path class="st4" d="M96.7,372.7c0,0-0.2,0-0.6,0c-0.5,0-1.1-0.1-1.8-0.1c-1.6-0.2-3.9-0.4-6.6-0.6c-2.8-0.3-6.2-0.6-9.8-1
							c-1.9-0.2-3.8-0.4-5.8-0.6c-1-0.1-2-0.2-3.1-0.3c-0.5-0.1-1-0.1-1.6-0.2c-0.5-0.1-1,0-1.4,0.3c-0.4,0.2-0.7,0.6-0.9,1.1
							c-0.2,0.5-0.4,1-0.6,1.5c-0.4,1-0.8,1.9-1.2,2.8c-0.8,1.9-1.6,3.7-2.3,5.4c-1.5,3.4-2.8,6.5-3.9,9.1c-1.1,2.5-2,4.6-2.7,6.1
							c-0.3,0.7-0.6,1.2-0.8,1.6c-0.2,0.4-0.3,0.6-0.3,0.6c0,0,0.1-0.2,0.2-0.6c0.2-0.4,0.4-1,0.7-1.7c0.6-1.5,1.5-3.6,2.5-6.2
							c1.1-2.6,2.4-5.7,3.8-9.1c0.7-1.7,1.5-3.5,2.3-5.4c0.4-0.9,0.8-1.9,1.2-2.8c0.2-0.5,0.4-1,0.6-1.5c0.2-0.5,0.6-1,1.1-1.3
							c0.5-0.3,1.1-0.4,1.7-0.3c0.5,0.1,1.1,0.1,1.6,0.2c1,0.1,2.1,0.2,3.1,0.3c2,0.2,4,0.4,5.8,0.6c3.7,0.4,7,0.8,9.8,1.1
							c2.7,0.3,5,0.6,6.6,0.8c0.7,0.1,1.3,0.2,1.8,0.2C96.5,372.7,96.7,372.7,96.7,372.7z"/>
					</g>
				</g>
			</g>
		</g>
		<g>
			<g>
				<g>
					<path class="st3" d="M45.3,228.1c0.1-3.5,1.6-6.8,3.7-9.6c2.1-2.7,4.9-4.9,8.1-5.9c3.5-1,7.4-0.6,10.5,1.2
						c1.9,1.1,3.4,2.6,4.6,4.5c0.9-1.8,2.1-3.3,3.6-4.6c2.8-2.3,6.6-3.3,10.2-2.8c3.4,0.5,6.5,2.2,9,4.6c2.5,2.4,4.4,5.5,5.1,8.9
						c0.8,4.3,0.4,9.1-1.6,13c-2.1,4.1-5.6,7.6-9.4,10.3c-6.3,4.5-14.6,10.1-14.6,10.1s-7.8-4.9-14.7-8.4c-4.1-2.1-8.2-5-10.9-8.7
						C46.3,237.1,45.1,232.5,45.3,228.1z"/>
				</g>
			</g>
		</g>
		<g>
			<g>
				<g>
					<path class="st3" d="M429.6,202.7c0.3-2.8,1.6-5.5,3.4-7.7c1.8-2.1,4.2-3.8,6.9-4.5c2.9-0.7,6.1-0.2,8.5,1.5
						c1.5,1,2.7,2.3,3.6,3.8c0.8-1.4,1.9-2.6,3.2-3.6c2.4-1.7,5.5-2.4,8.5-1.9c2.7,0.5,5.2,2.1,7.1,4.2c2,2.1,3.4,4.7,3.8,7.5
						c0.5,3.5-0.1,7.4-1.9,10.6c-1.9,3.3-5,6-8.1,8c-5.4,3.4-12.4,7.7-12.4,7.7s-6.2-4.4-11.7-7.5c-3.3-1.9-6.5-4.4-8.5-7.6
						C430.1,210.2,429.3,206.3,429.6,202.7z"/>
				</g>
			</g>
		</g>
		<g>
			<g>
				<g>
					<path class="st3" d="M406.5,363.4c0.2-2.1,1.2-4.1,2.6-5.7c1.4-1.6,3.1-2.9,5.2-3.3c2.2-0.5,4.5-0.1,6.4,1.1
						c1.1,0.7,2,1.7,2.7,2.9c0.6-1,1.4-2,2.4-2.7c1.8-1.3,4.1-1.8,6.3-1.4c2,0.4,3.9,1.6,5.3,3.1c1.5,1.6,2.5,3.5,2.8,5.6
						c0.4,2.6-0.1,5.6-1.4,7.9c-1.4,2.4-3.7,4.4-6.1,6c-4,2.5-9.3,5.7-9.3,5.7s-4.6-3.3-8.7-5.6c-2.4-1.4-4.8-3.3-6.3-5.7
						C406.8,369,406.2,366.1,406.5,363.4z"/>
				</g>
			</g>
		</g>
		<g>
			<g>
				<g>
					<path class="st3" d="M424.4,154.3c0.1-1.5,0.8-2.9,1.8-4.1c1-1.1,2.2-2,3.7-2.4c1.5-0.4,3.2-0.1,4.5,0.8c0.8,0.5,1.4,1.2,1.9,2
						c0.4-0.7,1-1.4,1.7-1.9c1.3-0.9,2.9-1.3,4.5-1c1.5,0.3,2.8,1.1,3.8,2.2c1,1.1,1.8,2.5,2,4c0.3,1.9-0.1,4-1,5.6
						c-1,1.7-2.6,3.2-4.3,4.2c-2.8,1.8-6.6,4.1-6.6,4.1s-3.3-2.3-6.2-4c-1.7-1-3.4-2.3-4.5-4C424.7,158.3,424.3,156.2,424.4,154.3z"
						/>
				</g>
			</g>
		</g>
		<g>
			<g>
				<g>
					<path class="st3" d="M431.3,324.3c0.1-1.5,0.8-2.9,1.8-4.1c1-1.1,2.2-2,3.7-2.4c1.5-0.4,3.2-0.1,4.5,0.8c0.8,0.5,1.4,1.2,1.9,2
						c0.4-0.7,1-1.4,1.7-1.9c1.3-0.9,2.9-1.3,4.5-1c1.5,0.3,2.8,1.1,3.8,2.2c1,1.1,1.8,2.5,2,4c0.3,1.9-0.1,4-1,5.6
						c-1,1.7-2.6,3.2-4.3,4.2c-2.8,1.8-6.6,4.1-6.6,4.1s-3.3-2.3-6.2-4c-1.7-1-3.4-2.3-4.5-4C431.5,328.3,431.1,326.2,431.3,324.3z"
						/>
				</g>
			</g>
		</g>
		<g>
			<g>
				<g>
					<path class="st3" d="M179.4,102.4c0.1-1.6,0.9-3.1,1.9-4.3c1-1.2,2.4-2.2,3.9-2.5c1.6-0.4,3.4-0.1,4.8,0.8
						c0.8,0.5,1.5,1.3,2,2.2c0.4-0.8,1-1.5,1.8-2c1.4-1,3.1-1.4,4.8-1.1c1.5,0.3,2.9,1.2,4,2.3c1.1,1.2,1.9,2.7,2.1,4.3
						c0.3,2-0.1,4.2-1.1,6c-1.1,1.9-2.8,3.4-4.6,4.5c-3,1.9-7,4.3-7,4.3s-3.5-2.5-6.6-4.2c-1.9-1.1-3.7-2.5-4.8-4.3
						C179.7,106.6,179.2,104.4,179.4,102.4z"/>
				</g>
			</g>
		</g>
		<g>
			<g>
				<g>
					<path class="st3" d="M300,65.6c0.1-0.8,0.4-1.5,0.9-2.1c0.5-0.6,1.1-1,1.9-1.2c0.8-0.2,1.6,0,2.3,0.4c0.4,0.3,0.7,0.6,1,1
						c0.2-0.4,0.5-0.7,0.9-1c0.7-0.5,1.5-0.7,2.3-0.5c0.7,0.1,1.4,0.6,1.9,1.1c0.5,0.6,0.9,1.3,1,2c0.1,1,0,2-0.5,2.9
						c-0.5,0.9-1.3,1.6-2.2,2.2c-1.5,0.9-3.4,2.1-3.4,2.1s-1.7-1.2-3.2-2c-0.9-0.5-1.8-1.2-2.3-2.1C300.1,67.6,299.9,66.6,300,65.6z
						"/>
				</g>
			</g>
		</g>
		<g>
			<g>
				<path class="st5" d="M454.7,444.7c0,0.1-91.6,0.3-204.7,0.3c-113.1,0-204.7-0.1-204.7-0.3s91.6-0.3,204.7-0.3
					C363,444.5,454.7,444.6,454.7,444.7z"/>
			</g>
		</g>
		<g>
			<g>
				<g>
					<path class="st6" d="M80.6,279.3L198,180.8c3.3-2.8,8.4-2.8,11.8,0l117.4,98.6H80.6z"/>
				</g>
				<g>
					<rect x="80.6" y="279.3" class="st6" width="246.5" height="165.1"/>
				</g>
				<g class="st7">
					<path d="M97.6,279.3L200.4,193c2-1.7,5-1.7,7,0l102.8,86.3H97.6z"/>
				</g>
				<g class="st7">
					<path d="M80.6,279.3l115.9,83.7c4.1,3,10.5,3,14.6,0l115.9-83.7H80.6z"/>
				</g>
				<g>
					<g>
						<path class="st5" d="M211.2,363.1c0,0,0.2-0.1,0.5-0.4c0.4-0.3,0.9-0.7,1.6-1.2c1.4-1,3.5-2.6,6.2-4.5
							c5.5-4,13.5-9.8,23.6-17.2c20.3-14.7,49.3-35.7,83.9-60.8l0.1,0.4c-36.5,0-78.9,0-123.9,0c-44.5,0-86.4,0-122.7,0l0.1-0.4
							c34.6,25.5,63.7,46.9,84.1,61.9c10.2,7.5,18.2,13.4,23.7,17.5c2.7,2,4.8,3.6,6.2,4.6c0.7,0.5,1.2,0.9,1.6,1.2
							c0.4,0.3,0.5,0.4,0.5,0.4s-0.2-0.1-0.6-0.4c-0.4-0.3-0.9-0.7-1.6-1.2c-1.4-1-3.5-2.6-6.3-4.6c-5.5-4-13.6-9.9-23.8-17.4
							c-20.4-15-49.5-36.3-84.2-61.7l-0.6-0.4l0.7,0c36.3,0,78.2,0,122.7,0c45,0,87.3,0,123.9,0l0.7,0l-0.6,0.4
							c-34.6,25-63.6,45.9-84,60.6c-10.2,7.3-18.2,13.1-23.7,17c-2.7,2-4.8,3.5-6.3,4.5c-0.7,0.5-1.2,0.9-1.6,1.1
							C211.4,362.9,211.2,363.1,211.2,363.1z"/>
					</g>
				</g>
			</g>
			<g>
				<g>
					<g>
						<rect x="94.8" y="150.2" class="st8" width="226.3" height="261.3"/>
					</g>
					<g>
						<g>
							<path class="st5" d="M321.1,411.5c0-2-0.1-105.5-0.2-261.3l0.2,0.2c-66.7,0-144.1,0-226.3,0h0l0.3-0.3
								c0,96.4,0,186.2,0,261.3l-0.2-0.2C231,411.4,319.2,411.5,321.1,411.5c-1.8,0-90,0.1-226.3,0.2l-0.2,0v-0.2
								c0-75.1,0-164.9,0-261.3v-0.3h0.3h0c82.1,0,159.5,0,226.3,0h0.2l0,0.2C321.2,306,321.1,409.5,321.1,411.5z"/>
						</g>
					</g>
				</g>
			</g>
			<g class="st9">
				<g>
					<path class="st6" d="M273.3,173.1c-8.2-11.5-25.4-14.1-38.3-8.2c-12.8,5.9-21.5,18.6-25.8,32.1c-4.3,13.5-4.8,27.8-5.3,42
						c-0.5-14.1-1-28.5-5.3-42c-4.3-13.5-13-26.2-25.8-32.1c-12.8-5.9-30-3.3-38.3,8.2c-7.6,10.6-6.1,25-3.6,37.7
						c10.8,54.4,43.5,114.1,72.4,161.6l0,0.7c28.9-47.5,62.8-107.7,73.6-162.2C279.4,198.1,280.9,183.7,273.3,173.1z"/>
				</g>
			</g>
			<g>
				<path class="st6" d="M211.2,363.1c-4.1,3-10.5,3-14.6,0L80.6,279.3v165.1h246.5V279.3L211.2,363.1z"/>
			</g>
			<g>
				<g>
					<path class="st6" d="M80.6,444.4l116.3-79.8c4.2-2.9,9.8-2.9,14,0l116.3,79.8"/>
				</g>
				<g>
					<g>
						<path class="st6" d="M327.1,444.4c0,0-0.2-0.1-0.6-0.4c-0.4-0.3-1.1-0.7-1.9-1.3c-1.6-1.1-4.1-2.8-7.2-4.9
							c-6.2-4.2-15.2-10.4-26.3-17.9c-11.1-7.6-24.3-16.6-38.9-26.7c-7.3-5-15-10.3-23-15.8c-4-2.7-8-5.5-12.2-8.3
							c-2.1-1.4-4.1-2.8-6.2-4.3c-2-1.4-4.5-2.2-7-2.2c-2.5,0-5,0.8-7,2.2c-2.1,1.4-4.2,2.9-6.2,4.3c-4.1,2.8-8.2,5.6-12.2,8.3
							c-8,5.5-15.7,10.7-23,15.8c-14.7,10-27.8,19.1-38.9,26.7c-11.1,7.6-20.1,13.7-26.3,17.9c-3.1,2.1-5.5,3.7-7.2,4.9
							c-0.8,0.5-1.4,1-1.9,1.3c-0.4,0.3-0.6,0.4-0.6,0.4s0.2-0.2,0.6-0.5c0.4-0.3,1-0.7,1.8-1.3c1.6-1.1,4-2.8,7.1-4.9
							c6.2-4.3,15.1-10.4,26.2-18.1c11.1-7.6,24.2-16.7,38.9-26.8c7.3-5,15-10.3,23-15.8c4-2.7,8-5.5,12.2-8.3
							c2.1-1.4,4.1-2.8,6.2-4.3c2.1-1.5,4.7-2.3,7.3-2.3c2.6,0,5.2,0.8,7.3,2.3c2.1,1.4,4.2,2.9,6.2,4.3c4.1,2.8,8.2,5.6,12.1,8.3
							c8,5.5,15.6,10.8,23,15.8c14.6,10.1,27.8,19.1,38.9,26.8c11,7.6,20,13.8,26.2,18.1c3.1,2.1,5.5,3.8,7.1,4.9
							c0.8,0.6,1.4,1,1.8,1.3C326.9,444.3,327.1,444.4,327.1,444.4z"/>
					</g>
				</g>
			</g>
			<g>
				<g>
					<path class="st5" d="M163.8,258.1h-8.2v-52h8.2v22.3h9.3V206h8.3v52H173v-22.3h-9.3V258.1z"/>
				</g>
				<g>
					<g>
						<path class="st5" d="M227,265.1v41.2c0,3.8,1.7,5.2,4.4,5.2c2.7,0,4.4-1.4,4.4-5.2v-41.2h7.9v40.7c0,8.5-4.3,13.4-12.5,13.4
							c-8.2,0-12.5-4.9-12.5-13.4v-40.7H227z"/>
					</g>
					<g>
						<path class="st5" d="M213.1,253.8h-8.6L203,244h-10.4l-1.5,9.8h-7.8l8.7-54.1h12.4L213.1,253.8z M193.7,236.6h8.2l-4.1-27.4
							L193.7,236.6z"/>
					</g>
					<g>
						<path class="st5" d="M224.7,218.9v39.2h-7.7V204h10.7l8.7,32.4V204h7.6v54.1h-8.7L224.7,218.9z"/>
					</g>
					<g>
						<path class="st5" d="M263,225.6l-1.7,5.1l2.5,15.7l-8.1,1.3l-8.2-51.2l8.1-1.3l3.6,22.3l7-24l8.1-1.3l-7.5,24.6l15.7,26.6
							l-8.3,1.3L263,225.6z"/>
					</g>
					<g>
						<path class="st5" d="M188,287.5c0-8.7,4.6-13.6,12.9-13.6s12.9,4.9,12.9,13.6v28.1c0,8.7-4.6,13.6-12.9,13.6
							s-12.9-4.9-12.9-13.6V287.5z M196.5,316.2c0,3.9,1.7,5.3,4.4,5.3s4.4-1.5,4.4-5.3V287c0-3.9-1.7-5.3-4.4-5.3s-4.4,1.5-4.4,5.3
							V316.2z"/>
					</g>
					<g>
						<path class="st5" d="M168.9,300.6l-10.7-36.2h8.9l6.5,24.7l6.5-24.7h8.1l-10.7,36.2v17.9h-8.5V300.6z"/>
					</g>
					<g>
						<path class="st5" d="M129.5,191.7h26.3v7.7h-8.9v46.4h-8.5v-46.4h-8.9V191.7z"/>
					</g>
					<g>
						<path class="st5" d="M261.2,296.4l-1.5,6.8l-6.8-1.5l1.5-6.8L261.2,296.4z M255.8,292l2.6-16.5l4.1-18.9l7.1,1.5l-4.1,18.9
							l-4.4,16.1L255.8,292z"/>
					</g>
				</g>
			</g>
			<g>
				<path class="st6" d="M147.5,261.8c-2.6-2-6.6-1.4-9.1,0.7s-3.6,5.6-3.6,8.9c-0.1,3.3,0.8,6.5,1.6,9.7c-1-3.1-2.1-6.3-4-9
					c-1.9-2.7-4.6-5-7.9-5.4s-6.9,1.3-8,4.4c-1,2.9,0.3,6,1.7,8.6c6,11.4,17.3,22.5,26.8,31.2l0,0.1c3.3-12.5,6.8-28.1,5.6-41
					C150.5,267,149.9,263.7,147.5,261.8z"/>
			</g>
			<g>
				<path class="st6" d="M307.3,274c-0.1-2.4-2.3-4.3-4.7-4.6c-2.4-0.3-4.8,0.8-6.6,2.4c-1.9,1.6-3.3,3.7-4.6,5.7
					c1.2-2.1,2.5-4.3,3.1-6.7c0.6-2.4,0.6-5-0.7-7c-1.3-2-4-3.2-6.2-2.2c-2.1,0.9-3.2,3.1-4,5.2c-3.5,9-4.3,20.7-4.6,30.3l-0.1,0.1
					c8.5-4.4,18.9-10.3,25.4-17.4C305.9,278.3,307.4,276.3,307.3,274z"/>
			</g>
			<g>
				<g>
					<path class="st5" d="M252.9,172.3c0,0-0.1,0-0.3,0c-0.2,0-0.5,0-0.8,0c-0.7,0-1.7,0-3,0c-2.6,0-6.3,0-10.9,0.1
						c-9.3,0-22,0-36,0.1c-14.1,0-26.8-0.1-36-0.1c-4.6,0-8.3-0.1-10.9-0.1c-1.3,0-2.2,0-3,0c-0.3,0-0.6,0-0.8,0c-0.2,0-0.3,0-0.3,0
						s0.1,0,0.3,0c0.2,0,0.5,0,0.8,0c0.7,0,1.7,0,3,0c2.6,0,6.3,0,10.9-0.1c9.3,0,22,0,36-0.1c14,0,26.8,0.1,36,0.1
						c4.6,0,8.3,0.1,10.9,0.1c1.3,0,2.2,0,3,0c0.3,0,0.6,0,0.8,0C252.8,172.3,252.9,172.3,252.9,172.3z"/>
				</g>
			</g>
		</g>
		<g>
			<g>
				<g>
					<g>
						<g>
							<g>
								<g>
									<g>
										<g>
											<g>
												<g>
													<g>
														<g>
															<g>
																<g>
																	<path class="st8" d="M280.2,104.8l-3.6-8.4c2.1-4.8,2.8-10.3,2-15.9c-2.4-16-17.4-27.1-33.4-24.7
																		c-16,2.4-27.1,17.4-24.7,33.4c2.4,16,17.4,27.1,33.4,24.7c6.7-1,12.5-4.2,16.9-8.8l0,0L280.2,104.8z"/>
																</g>
															</g>
															<g>
																<g>
																	<g>
																		<path class="st5" d="M280.2,104.8c0,0-0.2,0-0.6,0c-0.4,0-1,0.1-1.8,0.1c-1.6,0.1-4,0.2-7,0.4l-0.1,0l0.1-0.1l0,0
																			l0.1,0.1c-2.6,2.7-6.6,5.9-12.2,7.7c-1.4,0.5-2.9,0.8-4.4,1.1c-1.6,0.2-3.2,0.4-4.9,0.3c-3.4,0-7-0.6-10.5-2
																			c-3.5-1.4-6.9-3.5-9.9-6.4c-2.9-2.9-5.4-6.5-7-10.6c-1.6-4.1-2.2-8.7-1.8-13.3c0.4-4.6,2-9.3,4.6-13.3
																			c0.3-0.5,0.7-1,1-1.5c0.4-0.5,0.8-0.9,1.1-1.4l0.6-0.7l0.6-0.6c0.4-0.4,0.8-0.9,1.3-1.3c0.4-0.4,0.9-0.8,1.4-1.2
																			c0.5-0.4,0.9-0.8,1.4-1.1c1-0.7,1.9-1.4,3-1.9c4.1-2.3,8.6-3.5,13-3.7c4.4-0.2,8.7,0.6,12.5,2.2
																			c3.8,1.6,7.1,3.9,9.8,6.6c2.7,2.7,4.6,5.8,6,8.8c0.7,1.5,1.2,3.1,1.6,4.6c0.3,1.6,0.7,3,0.8,4.5
																			c0.5,5.9-0.8,10.8-2.3,14.2l0-0.1c1.2,2.7,2,4.9,2.7,6.3c0.3,0.7,0.5,1.2,0.7,1.6
																			C280.2,104.6,280.2,104.8,280.2,104.8s-0.1-0.2-0.3-0.6c-0.2-0.4-0.4-0.9-0.7-1.6c-0.6-1.4-1.5-3.5-2.7-6.2l0,0
																			l0,0c1.5-3.4,2.7-8.3,2.2-14.2c-0.1-1.5-0.5-2.9-0.8-4.5c-0.5-1.5-0.9-3.1-1.6-4.6c-1.4-3.1-3.3-6.1-6-8.7
																			c-2.6-2.7-5.9-4.9-9.7-6.5c-3.8-1.6-8-2.4-12.4-2.2c-4.4,0.2-8.8,1.5-12.9,3.7c-1,0.5-2,1.2-2.9,1.9
																			c-0.5,0.3-0.9,0.7-1.4,1.1c-0.4,0.4-0.9,0.7-1.3,1.1c-0.4,0.4-0.8,0.8-1.2,1.3l-0.6,0.6l-0.6,0.7
																			c-0.4,0.5-0.8,0.9-1.1,1.4c-0.3,0.5-0.7,1-1,1.5c-2.7,4-4.2,8.6-4.6,13.1c-0.4,4.6,0.2,9.1,1.8,13.2
																			c1.6,4.1,4,7.6,6.9,10.5c2.9,2.8,6.3,5,9.8,6.3c3.5,1.4,7,2,10.4,2c1.7,0.1,3.3-0.2,4.8-0.3c1.5-0.2,3-0.6,4.4-1
																			c5.6-1.8,9.6-4.9,12.2-7.6l0.4-0.4l-0.3,0.5l0,0l-0.1-0.1c3-0.1,5.4-0.2,7-0.3c0.8,0,1.4,0,1.8-0.1
																			C280,104.8,280.2,104.8,280.2,104.8z"/>
																	</g>
																</g>
															</g>
														</g>
													</g>
												</g>
											</g>
										</g>
									</g>
								</g>
							</g>
						</g>
					</g>
				</g>
			</g>
			<g>
				<g>
					<g>
						<path class="st6" d="M234.7,81.3c0.2-1.9,1.1-3.8,2.3-5.3c1.2-1.5,2.9-2.6,4.7-3.1c2-0.5,4.1-0.1,5.8,1c1,0.7,1.8,1.6,2.4,2.6
							c0.5-1,1.3-1.8,2.2-2.4c1.6-1.2,3.8-1.7,5.8-1.3c1.9,0.4,3.6,1.4,4.9,2.8c1.3,1.4,2.3,3.2,2.6,5.1c0.3,2.4-0.1,5.1-1.3,7.2
							c-1.3,2.2-3.4,4.1-5.5,5.5c-3.7,2.3-8.5,5.2-8.5,5.2s-4.2-3-8-5.1c-2.2-1.3-4.4-3-5.8-5.2C235.1,86.4,234.5,83.8,234.7,81.3z"
							/>
					</g>
				</g>
			</g>
		</g>
		<g>
			<g>
				<g>
					<g>
						<g>
							<g>
								<path class="st10" d="M397.7,151.1c1.7,0.4,10.7,5.4,13.3,13.8c2.2,7,5.6,47.6,5.9,46.9c0,0,7.1,42.2,11.2,60.4
									c0,0-5,6.7-8,6.9c-0.4,0-1.7-8.1-3.6-12.3c-5.4-11.9-14.8-30.6-16.5-41.1c-0.7-4.3-2.4-13.2-3.2-15.1
									c-1.1-2.8-3.1-39.8-3.1-39.8L397.7,151.1z"/>
							</g>
						</g>
					</g>
				</g>
				<g>
					<g>
						<path class="st10" d="M417.6,296.8c0,0-2.3-11-2.2-16.1c0.1-5.2,1.4-3.2,2.2-8.2c0.8-5,0.4-9.8,0.4-9.8l8.8,2.6l2.3,11.4
							l2.3,15.9c0.2,1.5-0.3,2.9-1.3,4c-2.2,2.3-6.1,6.2-7,6.2c-1.3,0.1-1.3-1.1-1.3-1.1s-3.8,0.9-4.1-0.4c-0.3-1.3,3.6-3.6,3.6-3.6
							l2.8-4.8l-3.8-8.2c0,0,0.4,4.9,0.3,5.5C420.4,290.8,422.2,296.9,417.6,296.8z"/>
					</g>
				</g>
			</g>
			<g>
				<path class="st10" d="M273.9,136.1c0,0,34.4-2.2,49.6,1.3c15.2,3.5,21.2,12.8,21.2,12.8l-14.7,18.1l-23.6-21.5L273.9,136.1z"/>
			</g>
			<g>
				<path class="st6" d="M339.7,144.5c-15-9.7-23.4-12-36.6-9.8l6.2,16.6l9.3,6.5l12.6,14L339.7,144.5z"/>
			</g>
			<g>
				<g>
					<g>
						<g>
							<g>
								<g>
									<g>
										<g>
											<g>
												<g>
													<g>
														<g>
															<g>
																<g>
																	<g>
																		<path class="st5" d="M332.8,423.9l4,21.8c0,0-23.5,9.2-23.7,13.6l45.8-0.9l-3.5-33.6L332.8,423.9z"/>
																	</g>
																</g>
															</g>
														</g>
													</g>
												</g>
											</g>
										</g>
									</g>
								</g>
							</g>
						</g>
					</g>
				</g>
				<g>
					<g>
						<g>
							<g>
								<g>
									<g>
										<g>
											<g>
												<g>
													<g>
														<g>
															<g>
																<g>
																	<g>
																		<g>
																			<path class="st4" d="M351,443.1c0.9,0.2,1.5,1.2,1.3,2.1c-0.2,0.9-1.2,1.6-2.1,1.3c-0.9-0.2-1.7-1.4-1.4-2.2
																				c0.3-0.9,1.5-1.6,2.3-1.2"/>
																		</g>
																	</g>
																</g>
															</g>
														</g>
													</g>
												</g>
											</g>
										</g>
									</g>
								</g>
							</g>
						</g>
					</g>
				</g>
				<g>
					<g>
						<g>
							<g>
								<g>
									<g>
										<g>
											<g>
												<g>
													<g>
														<g>
															<g>
																<g>
																	<g>
																		<path class="st11" d="M359.1,459l-0.6-4.6l-43.7,2.2c0,0-2.2,1.5-1.9,3L359.1,459z"/>
																	</g>
																</g>
															</g>
														</g>
													</g>
												</g>
											</g>
										</g>
									</g>
								</g>
							</g>
						</g>
					</g>
				</g>
				<g>
					<g>
						<g>
							<g>
								<g>
									<g>
										<g>
											<g>
												<g>
													<g>
														<g>
															<g>
																<g>
																	<g>
																		<g>
																			<path class="st8" d="M336.1,445.2c0,0.2,1.1,0.3,2.2,1c1.1,0.7,1.7,1.6,1.9,1.5c0.2,0-0.2-1.4-1.5-2.2
																				C337.4,444.7,336,445,336.1,445.2z"/>
																		</g>
																	</g>
																</g>
															</g>
														</g>
													</g>
												</g>
											</g>
										</g>
									</g>
								</g>
							</g>
						</g>
					</g>
				</g>
				<g>
					<g>
						<g>
							<g>
								<g>
									<g>
										<g>
											<g>
												<g>
													<g>
														<g>
															<g>
																<g>
																	<g>
																		<g>
																			<path class="st8" d="M331.3,447.3c0,0.2,0.9,0.6,1.7,1.5c0.8,0.9,1,1.9,1.2,1.9c0.2,0,0.3-1.3-0.6-2.4
																				C332.6,447.1,331.3,447,331.3,447.3z"/>
																		</g>
																	</g>
																</g>
															</g>
														</g>
													</g>
												</g>
											</g>
										</g>
									</g>
								</g>
							</g>
						</g>
					</g>
				</g>
				<g>
					<g>
						<g>
							<g>
								<g>
									<g>
										<g>
											<g>
												<g>
													<g>
														<g>
															<g>
																<g>
																	<g>
																		<g>
																			<path class="st8" d="M328.7,453.1c0.2,0,0.5-1.1-0.1-2.3c-0.6-1.2-1.7-1.7-1.7-1.5c-0.1,0.2,0.6,0.8,1,1.8
																				C328.4,452.1,328.4,453.1,328.7,453.1z"/>
																		</g>
																	</g>
																</g>
															</g>
														</g>
													</g>
												</g>
											</g>
										</g>
									</g>
								</g>
							</g>
						</g>
					</g>
				</g>
				<g>
					<g>
						<g>
							<g>
								<g>
									<g>
										<g>
											<g>
												<g>
													<g>
														<g>
															<g>
																<g>
																	<g>
																		<g>
																			<path class="st8" d="M336.4,439.8c0.1,0.2,1.1-0.1,2.4-0.1c1.3,0,2.3,0.4,2.4,0.2c0.1-0.2-0.9-1-2.3-1
																				C337.3,438.9,336.3,439.6,336.4,439.8z"/>
																		</g>
																	</g>
																</g>
															</g>
														</g>
													</g>
												</g>
											</g>
										</g>
									</g>
								</g>
							</g>
						</g>
					</g>
				</g>
			</g>
			<g>
				<g>
					<g>
						<g>
							<g>
								<g>
									<g>
										<g>
											<g>
												<g>
													<path class="st5" d="M382.2,420.8l0.7,28.6l-5.9,22.8c-0.4,1.6,0.6,3.3,2.3,3.6l0,0c0.9,0.2,1.9-0.1,2.6-0.8
														c4.4-4.2,20.3-19.7,20.1-21.8c-0.2-2.4,1.2-30.2,1.2-30.2L382.2,420.8z"/>
												</g>
											</g>
										</g>
									</g>
								</g>
							</g>
						</g>
					</g>
				</g>
				<g>
					<g>
						<g>
							<g>
								<g>
									<g>
										<g>
											<g>
												<g>
													<path class="st11" d="M379.2,475.7l22.7-24.5l0,1.2c0,1-0.4,2.1-1,2.9c-1.8,2.1-6.9,7.9-19,19.7
														C381.2,475.6,380.2,475.9,379.2,475.7L379.2,475.7z"/>
												</g>
											</g>
										</g>
									</g>
								</g>
							</g>
						</g>
					</g>
				</g>
				<g>
					<g>
						<g>
							<g>
								<g>
									<g>
										<g>
											<g>
												<g>
													<g>
														<path class="st4" d="M396,442c-0.7,0.5-0.9,1.6-0.5,2.3c0.5,0.7,1.6,1,2.3,0.5c0.7-0.5,1-1.8,0.5-2.5
															c-0.5-0.7-1.9-0.9-2.4-0.3"/>
													</g>
												</g>
											</g>
										</g>
									</g>
								</g>
							</g>
						</g>
					</g>
				</g>
				<g>
					<g>
						<g>
							<g>
								<g>
									<g>
										<g>
											<g>
												<g>
													<g>
														<path class="st8" d="M385.8,463.2c-0.2,0.1-0.8-1.4-2.5-2.2c-1.7-0.9-3.3-0.4-3.3-0.6c0-0.1,0.3-0.3,1-0.4
															c0.7-0.1,1.6,0,2.6,0.4c0.9,0.5,1.6,1.2,1.9,1.7C385.8,462.8,385.8,463.2,385.8,463.2z"/>
													</g>
												</g>
											</g>
										</g>
									</g>
								</g>
							</g>
						</g>
					</g>
				</g>
				<g>
					<g>
						<g>
							<g>
								<g>
									<g>
										<g>
											<g>
												<g>
													<g>
														<path class="st8" d="M383.7,467c-0.1,0.1-1.1-0.8-2.5-1.2c-1.5-0.5-2.7-0.2-2.8-0.4c-0.1-0.1,1.3-0.8,3-0.2
															C383.1,465.7,383.9,467,383.7,467z"/>
													</g>
												</g>
											</g>
										</g>
									</g>
								</g>
							</g>
						</g>
					</g>
				</g>
				<g>
					<g>
						<g>
							<g>
								<g>
									<g>
										<g>
											<g>
												<g>
													<g>
														<path class="st8" d="M389.5,458.3c-0.1,0.1-1.5-1.3-3.8-2.2c-2.2-0.9-4.2-0.8-4.2-1c0-0.2,2.1-0.6,4.5,0.4
															C388.4,456.5,389.7,458.2,389.5,458.3z"/>
													</g>
												</g>
											</g>
										</g>
									</g>
								</g>
							</g>
						</g>
					</g>
				</g>
				<g>
					<g>
						<g>
							<g>
								<g>
									<g>
										<g>
											<g>
												<g>
													<g>
														<path class="st8" d="M390,449.6c-0.1,0.2-1.7-0.5-3.7-0.6c-2.1-0.1-3.7,0.4-3.7,0.3c-0.1-0.1,1.6-1,3.8-0.9
															C388.6,448.5,390.1,449.5,390,449.6z"/>
													</g>
												</g>
											</g>
										</g>
									</g>
								</g>
							</g>
						</g>
					</g>
				</g>
				<g>
					<g>
						<g>
							<g>
								<g>
									<g>
										<g>
											<g>
												<g>
													<g>
														<path class="st8" d="M390,441.2c-0.1,0.2-1.7-0.8-3.8-0.7c-2.2,0.1-3.7,1.1-3.8,1c0-0.1,0.3-0.4,0.9-0.8
															c0.7-0.4,1.7-0.7,2.8-0.8c1.2,0,2.2,0.2,2.9,0.6C389.7,440.8,390.1,441.1,390,441.2z"/>
													</g>
												</g>
											</g>
										</g>
									</g>
								</g>
							</g>
						</g>
					</g>
				</g>
				<g>
					<g>
						<g>
							<g>
								<g>
									<g>
										<g>
											<g>
												<g>
													<g>
														<path class="st8" d="M386.2,438.9c0,0-0.1-0.4,0-1.1c0.1-0.7,0.3-1.7,0.9-2.8c0.3-0.5,0.6-1.2,1.4-1.6
															c0.4-0.2,1-0.1,1.3,0.3c0.3,0.4,0.4,0.8,0.5,1.3c0,1.8-1.6,3.6-3.6,3.8c-2,0.2-3.9-0.9-4.7-2.5
															c-0.2-0.4-0.3-0.9-0.1-1.4c0.2-0.5,0.8-0.7,1.2-0.6c0.8,0.1,1.4,0.6,1.9,1c1,0.8,1.6,1.6,2,2.2c0.4,0.6,0.5,1,0.4,1
															c-0.1,0.1-0.7-1.4-2.7-2.8c-0.5-0.3-1.1-0.8-1.7-0.8c-0.3,0-0.6,0.1-0.7,0.3c-0.1,0.2,0,0.6,0.1,0.9
															c0.7,1.3,2.4,2.3,4.1,2.1c1.7-0.2,3.1-1.8,3.1-3.2c0-0.4-0.1-0.7-0.3-0.9c-0.2-0.2-0.5-0.3-0.7-0.2
															c-0.6,0.2-0.9,0.8-1.2,1.3C386.2,437.3,386.4,438.9,386.2,438.9z"/>
													</g>
												</g>
											</g>
										</g>
									</g>
								</g>
							</g>
						</g>
					</g>
				</g>
			</g>
			<g>
				<g>
					<g>
						<path class="st5" d="M366,109.4c-6.3-17.4-18.4-23.8-18.4-23.8l-41,20.6c-1.3,9.1,1.5,24.9,1.4,34.4c-0.1,8.1-1.9,13-1.9,13
							l16.9-3.8c0,0-0.9-5.6-0.3-6.2s3.4,5.2,3.4,5.2l46.9-10.3C373,138.5,369.6,119.5,366,109.4z"/>
					</g>
				</g>
				<g>
					<g>
						<g>
							<path class="st5" d="M343.9,83.6c-8.1-3.1-16.5-2.9-24.2,1.3c-4.3,2.4-5.6,4.3-8.2,6.8c-2.6,2.6-4.5,5.8-4.8,9.5
								c-0.4,4.3-0.3,8.9,1.4,12.9c1.8,4.1,4.2,7.7,6.7,10.4c3,3.3,8.9,7.6,13,9.5l7-2.9c5.6-2.9,11.2-5.9,15.8-10.1
								c4.6-4.3,8.2-10.1,8.4-16.3C359.3,95.9,352,86.8,343.9,83.6z"/>
						</g>
					</g>
				</g>
				<g>
					<g>
						<g>
							<path class="st10" d="M335,88.6l-16.1,2.2l-3.2,2.4c-7.7,4.4-8.2,16-4.7,22.3c3.9,7,8.9,15.4,13,19.9
								c8.1,9.1,17.4,4.9,17.4,4.9s1.1,2.2,2.6,5c3,5.8,10.3,8,16.1,4.7l0,0c5.5-3.1,7.5-10.1,4.5-15.6l-23.9-44.2
								C339.4,88.3,337,87.6,335,88.6z"/>
						</g>
					</g>
				</g>
				<g>
					<g>
						<g>
							<g>
								<g>
									<path class="st12" d="M338,124.1c-0.4-0.5-1-0.8-1.5-0.9c-1.1-0.2-2.3,0.4-2.8,1.4c-0.5,1-0.3,2.5,0.5,3.5l0,0
										c0.8,0.4,1.8,0.4,2.6,0c0.1-0.1,0.3-0.1,0.4-0.2c0.6-0.4,1.1-0.9,1.3-1.6C338.6,125.6,338.5,124.8,338,124.1z"/>
								</g>
							</g>
						</g>
					</g>
				</g>
				<g>
					<g>
						<g>
							<g>
								<g>
									<g>
										<g>
											<g>
												<g>
													<g>
														<g>
															<g>
																<g>
																	<g>
																		<g>
																			<g>
																				<g>
																					<g>
																						<g>
																							<g>
																								<g>
																									<g>
																										<g>
																											<path class="st5" d="M320.6,120.9c0.4,0.7,1.3,0.9,2.1,0.5c0.7-0.4,1-1.3,0.6-2
																												c-0.4-0.7-1.3-0.9-2.1-0.5C320.5,119.3,320.2,120.2,320.6,120.9z"/>
																										</g>
																									</g>
																								</g>
																							</g>
																						</g>
																					</g>
																				</g>
																			</g>
																		</g>
																	</g>
																</g>
															</g>
														</g>
													</g>
												</g>
											</g>
										</g>
									</g>
								</g>
							</g>
						</g>
						<g>
							<g>
								<g>
									<g>
										<g>
											<g>
												<g>
													<g>
														<g>
															<g>
																<g>
																	<g>
																		<g>
																			<g>
																				<g>
																					<g>
																						<g>
																							<g>
																								<g>
																									<g>
																										<g>
																											<g>
																												<path class="st5" d="M316.1,118.1c0.2,0.1,1.2-0.7,2.8-1.2c1.6-0.4,2.9-0.3,3.1-0.4
																													c0.1-0.1-0.2-0.2-0.8-0.3c-0.6-0.1-1.5-0.1-2.5,0.2c-1,0.3-1.8,0.7-2.2,1.1
																													C316.1,117.8,316,118,316.1,118.1z"/>
																											</g>
																										</g>
																									</g>
																								</g>
																							</g>
																						</g>
																					</g>
																				</g>
																			</g>
																		</g>
																	</g>
																</g>
															</g>
														</g>
													</g>
												</g>
											</g>
										</g>
									</g>
								</g>
							</g>
						</g>
						<g>
							<g>
								<g>
									<g>
										<g>
											<g>
												<g>
													<g>
														<g>
															<g>
																<g>
																	<g>
																		<g>
																			<g>
																				<g>
																					<g>
																						<g>
																							<g>
																								<g>
																									<g>
																										<g>
																											<path class="st5" d="M330.9,123.6c0-0.1-1,0.3-2.5,1c-0.4,0.2-0.8,0.3-1,0.1c-0.2-0.2-0.3-0.7-0.4-1.2
																												c-0.2-1.1-0.4-2.2-0.7-3.4c-1-4.8-2-8.6-2.2-8.6c-0.2,0,0.5,4,1.5,8.8c0.3,1.2,0.5,2.3,0.7,3.4
																												c0.1,0.5,0.2,1.1,0.7,1.5c0.3,0.2,0.7,0.2,0.9,0.1c0.3-0.1,0.5-0.2,0.7-0.3
																												C330.1,124.3,331,123.7,330.9,123.6z"/>
																										</g>
																									</g>
																								</g>
																							</g>
																						</g>
																					</g>
																				</g>
																			</g>
																		</g>
																	</g>
																</g>
															</g>
														</g>
													</g>
												</g>
											</g>
										</g>
									</g>
								</g>
							</g>
						</g>
						<g>
							<g>
								<g>
									<g>
										<g>
											<g>
												<g>
													<g>
														<g>
															<g>
																<g>
																	<g>
																		<g>
																			<g>
																				<g>
																					<g>
																						<g>
																							<g>
																								<g>
																									<g>
																										<path class="st12" d="M341.3,140.3c0,0,7.1-3.9,11.2-12.3c0,0,0.9,9.3-9.8,14.9L341.3,140.3z"/>
																									</g>
																								</g>
																							</g>
																						</g>
																					</g>
																				</g>
																			</g>
																		</g>
																	</g>
																</g>
															</g>
														</g>
													</g>
												</g>
											</g>
										</g>
									</g>
								</g>
							</g>
						</g>
						<g>
							<g>
								<g>
									<g>
										<g>
											<g>
												<g>
													<g>
														<g>
															<g>
																<g>
																	<g>
																		<g>
																			<g>
																				<g>
																					<g>
																						<g>
																							<g>
																								<g>
																									<g>
																										<g>
																											<path class="st5" d="M335.7,122c-0.2,0.1,0.7,1.6,0.1,3.6c-0.6,1.9-2.3,2.8-2.2,3c0,0.1,0.5,0.1,1.2-0.4
																												c0.7-0.4,1.5-1.2,1.9-2.4c0.4-1.2,0.1-2.3-0.2-2.9C336.2,122.1,335.8,121.9,335.7,122z"/>
																										</g>
																									</g>
																								</g>
																							</g>
																						</g>
																					</g>
																				</g>
																			</g>
																		</g>
																	</g>
																</g>
															</g>
														</g>
													</g>
												</g>
											</g>
										</g>
									</g>
								</g>
							</g>
						</g>
						<g>
							<g>
								<g>
									<g>
										<g>
											<g>
												<g>
													<g>
														<g>
															<g>
																<g>
																	<g>
																		<g>
																			<g>
																				<g>
																					<g>
																						<g>
																							<g>
																								<g>
																									<g>
																										<g>
																											<g>
																												<g>
																													<path class="st5" d="M312.9,112.3c0.5,0.2,1.4-0.7,2.7-1.4c1.3-0.7,2.6-1,2.6-1.5c0-0.2-0.3-0.5-1-0.5
																														c-0.6-0.1-1.6,0.1-2.5,0.6c-0.9,0.5-1.5,1.2-1.8,1.8C312.7,111.8,312.7,112.2,312.9,112.3z"/>
																												</g>
																											</g>
																										</g>
																									</g>
																								</g>
																							</g>
																						</g>
																					</g>
																				</g>
																			</g>
																		</g>
																	</g>
																</g>
															</g>
														</g>
													</g>
												</g>
											</g>
										</g>
									</g>
								</g>
							</g>
						</g>
						<g>
							<g>
								<g>
									<g>
										<g>
											<g>
												<g>
													<g>
														<g>
															<g>
																<g>
																	<g>
																		<g>
																			<g>
																				<g>
																					<g>
																						<g>
																							<g>
																								<g>
																									<g>
																										<g>
																											<path class="st5" d="M336.2,111.3c0.4,0.7,0.2,1.6-0.5,2.1c-0.7,0.5-1.6,0.3-2.1-0.4
																												c-0.4-0.7-0.2-1.6,0.5-2.1C334.9,110.4,335.8,110.6,336.2,111.3z"/>
																										</g>
																									</g>
																								</g>
																							</g>
																						</g>
																					</g>
																				</g>
																			</g>
																		</g>
																	</g>
																</g>
															</g>
														</g>
													</g>
												</g>
											</g>
										</g>
									</g>
								</g>
							</g>
						</g>
						<g>
							<g>
								<g>
									<g>
										<g>
											<g>
												<g>
													<g>
														<g>
															<g>
																<g>
																	<g>
																		<g>
																			<g>
																				<g>
																					<g>
																						<g>
																							<g>
																								<g>
																									<g>
																										<g>
																											<g>
																												<path class="st5" d="M334.6,107c0,0.2-1.1,0.8-2.2,2.1c-1.1,1.3-1.5,2.5-1.7,2.6
																													c-0.1,0-0.1-0.2,0.1-0.8c0.2-0.5,0.6-1.4,1.3-2.2c0.7-0.8,1.4-1.3,1.8-1.6
																													C334.3,106.9,334.6,106.9,334.6,107z"/>
																											</g>
																										</g>
																									</g>
																								</g>
																							</g>
																						</g>
																					</g>
																				</g>
																			</g>
																		</g>
																	</g>
																</g>
															</g>
														</g>
													</g>
												</g>
											</g>
										</g>
									</g>
								</g>
							</g>
						</g>
						<g>
							<g>
								<g>
									<g>
										<g>
											<g>
												<g>
													<g>
														<g>
															<g>
																<g>
																	<g>
																		<g>
																			<g>
																				<g>
																					<g>
																						<g>
																							<g>
																								<g>
																									<g>
																										<g>
																											<g>
																												<g>
																													<path class="st5" d="M331,101.9c-0.1,0.5-1.4,0.8-2.7,1.6c-1.4,0.7-2.3,1.7-2.8,1.5
																														c-0.2-0.1-0.2-0.5,0.1-1.1c0.3-0.6,1-1.3,1.9-1.8c0.9-0.5,1.9-0.7,2.5-0.6
																														C330.6,101.4,331,101.6,331,101.9z"/>
																												</g>
																											</g>
																										</g>
																									</g>
																								</g>
																							</g>
																						</g>
																					</g>
																				</g>
																			</g>
																		</g>
																	</g>
																</g>
															</g>
														</g>
													</g>
												</g>
											</g>
										</g>
									</g>
								</g>
							</g>
						</g>
					</g>
				</g>
				<g>
					<g>
						<g>
							<g>
								<g>
									<g>
										<g>
											<g>
												<g>
													<g>
														<g>
															<g>
																<g>
																	<g>
																		<g>
																			<g>
																				<g>
																					<g>
																						<g>
																							<g>
																								<path class="st10" d="M348.7,108.6c-0.5-0.8-0.7-3.1-0.1-3.7c1.8-1.6,5.5-3.7,8.7,1.3
																									c4.5,6.9-3.3,9.9-3.5,9.7C353.7,115.9,350.3,111.2,348.7,108.6z"/>
																							</g>
																						</g>
																					</g>
																				</g>
																			</g>
																		</g>
																	</g>
																</g>
															</g>
														</g>
													</g>
												</g>
											</g>
										</g>
									</g>
								</g>
							</g>
						</g>
					</g>
				</g>
				<g>
					<g>
						<g>
							<g>
								<g>
									<g>
										<g>
											<g>
												<g>
													<g>
														<g>
															<g>
																<g>
																	<g>
																		<g>
																			<g>
																				<g>
																					<g>
																						<g>
																							<g>
																								<g>
																									<path class="st12" d="M354.1,112.3c0,0,0.2,0,0.4,0c0.3,0,0.6-0.2,0.9-0.6c0.6-0.7,0.4-2.3-0.4-3.5
																										c-0.4-0.6-0.9-1.1-1.4-1.5c-0.5-0.4-1.1-0.5-1.5-0.3c-0.4,0.2-0.5,0.5-0.5,0.8c0,0.3,0.2,0.4,0.1,0.4
																										c0,0-0.2,0-0.4-0.3c-0.1-0.2-0.1-0.4,0-0.6c0.1-0.2,0.3-0.5,0.5-0.6c0.6-0.3,1.3-0.1,1.9,0.3
																										c0.6,0.4,1.2,0.9,1.7,1.6c0.9,1.4,1,3.2,0.2,4.1c-0.4,0.4-0.9,0.6-1.2,0.5
																										C354.2,112.4,354.1,112.3,354.1,112.3z"/>
																								</g>
																							</g>
																						</g>
																					</g>
																				</g>
																			</g>
																		</g>
																	</g>
																</g>
															</g>
														</g>
													</g>
												</g>
											</g>
										</g>
									</g>
								</g>
							</g>
						</g>
					</g>
				</g>
				<g>
					<g>
						<g>
							<g>
								<path class="st5" d="M348.9,104.8l-0.7,2.9c-12-3-37.8-13.1-36.4-12.4c0,0,4.1-5.2,10.4-7.5c6.4-2.3,19-5.6,22.7,1.3
									C348.6,96,348.9,104.8,348.9,104.8z"/>
							</g>
						</g>
					</g>
				</g>
				<g class="st7">
					<path class="st12" d="M344.2,112.3c1.2,1,0.9,3.4-0.8,5.5c-1.6,2.1-3.9,2.9-5.2,2c-1.2-1-0.9-3.4,0.8-5.5
						C340.7,112.2,343,111.3,344.2,112.3z"/>
				</g>
			</g>
			<g>
				<g>
					<g>
						<g>
							<path class="st6" d="M400.1,163.1c0.2,0.9-6.5,34.7-6.5,34.7l1.7,17.9c0,0,2.2,5.3,1.6,8.7c-1.9,5.4-16.4,11.3-36.6,13.1
								c-17.5,0.6-25.6-8.3-25.6-8.3c-0.5-7.3-1.8-35.7-5.3-57.3c-1.8-11.4,0.7-20.7-0.6-24.2l13.9-3.9c1.2,3.9,5.1,4.8,9.1,4.6
								c6.6-0.4,12.4-6.6,13-13.1l0,0l22.5,4.7L400.1,163.1z"/>
						</g>
					</g>
				</g>
				<g>
					<g>
						<g>
							<path class="st6" d="M382.5,139.3c12.2,1.6,26.6,4.9,31,37.2c0.1,0.6-20.3,8.3-20.3,8.3s-3.5-17.9-3.7-18.4
								C389.4,165.8,382.5,139.3,382.5,139.3z"/>
						</g>
					</g>
				</g>
				<g>
					<g>
						<g>
							<path class="st5" d="M397.1,154.9c0,0,0.1,0.6,0.2,1.6c0.1,1,0.2,2.6,0.3,4.4c0.1,3.7,0.1,8.9-0.4,14.6
								c-0.5,5.7-1.4,10.8-2.2,14.5c-0.4,1.8-0.8,3.3-1,4.3c-0.3,1-0.4,1.6-0.5,1.6c0,0,0.1-0.6,0.3-1.6c0.2-1,0.5-2.5,0.9-4.3
								c0.7-3.7,1.5-8.8,2-14.5c0.5-5.7,0.6-10.8,0.5-14.6c0-1.9-0.1-3.4-0.1-4.4C397.1,155.5,397.1,154.9,397.1,154.9z"/>
						</g>
					</g>
				</g>
			</g>
			<g>
				<g>
					<path class="st13" d="M398,222.9c0,0-2.1,0.5-5.6,1.2c-0.8-21-2-53.5-2.9-57.8c-1.3-6.5-44.1,2.3-50.7,2.6
						c-6.3,0.3-1.3,50.2-0.5,55.2c-1.6-0.8-3.1-1.7-4.4-2.8c0,0-5.5,15.9-7.2,27.4c-0.9,6.4-3,24.4-3,24.4s-6.1,61.6-9.5,83.4
						c-0.5,3.2-0.3,6.4,0.4,9.5l13.3,78.6l31.7,1l-8.6-81.8l19.1-73.6l1.7,0.2l4.7,152.9l30.1-0.6l4.3-107.1
						C413,292.4,428,260.7,398,222.9z"/>
				</g>
				<g>
					<g>
						<path class="st13" d="M384.7,139.3c-3.2-1.1-7.2-3.1-10.6-1.8c0,0,1.8,25.1,4,27.7c2.2,2.6,8.4,0,8.4,0L384.7,139.3z"/>
					</g>
				</g>
				<g>
					<g>
						<path class="st13" d="M341.3,143.7c-3.3-0.5-5.7,1.1-8.7,3c0,0,5,22.5,7.7,24.7c2.6,2.1,8.2-1.5,8.2-1.5L341.3,143.7z"/>
					</g>
				</g>
				<g>
					<g>
						<g>
							<path class="st6" d="M375.6,276.2c0,0-0.5,0.3-1.3,0.6c-0.4,0.2-1,0.4-1.7,0.4c-0.7,0.1-1.5,0.1-2.3-0.2
								c-0.8-0.3-1.6-1.1-2-2.1c-0.3-1-0.4-2.1-0.5-3.2c-0.2-2.2-0.4-4.7-0.6-7.2c-0.4-5.1-0.7-9.8-0.9-13.2c-0.1-1.6-0.2-2.9-0.2-4
								c0-0.9,0-1.5,0-1.5c0,0,0.1,0.5,0.2,1.5c0.1,1,0.2,2.4,0.4,4c0.3,3.4,0.7,8,1.1,13.2c0.2,2.6,0.4,5,0.5,7.3
								c0.1,1.1,0.1,2.2,0.4,3.1c0.3,0.9,0.9,1.5,1.7,1.8c1.5,0.6,2.9,0.2,3.8-0.1C375.1,276.3,375.5,276.2,375.6,276.2z"/>
						</g>
					</g>
				</g>
				<g>
					<g>
						<g>
							<path class="st6" d="M338.2,225c0,0,0.1,0.3,0.2,0.9c0.1,0.6,0.2,1.5,0.2,2.6c0,1.1-0.1,2.4-0.3,3.8c-0.2,1.4-0.6,3-1.2,4.5
								c-0.6,1.6-1.3,3-2.1,4.2c-0.8,1.2-1.6,2.2-2.3,3c-0.7,0.8-1.4,1.4-1.9,1.8c-0.5,0.4-0.7,0.6-0.8,0.5c-0.1-0.1,1-0.9,2.3-2.6
								c0.7-0.8,1.4-1.8,2.2-3c0.7-1.2,1.4-2.6,2-4.1c0.6-1.5,1-3,1.2-4.4c0.2-1.4,0.4-2.7,0.4-3.7C338.3,226.4,338.1,225,338.2,225
								z"/>
						</g>
					</g>
				</g>
				<g>
					<g>
						<g>
							<path class="st6" d="M408,240.6c0,0-0.3,0-0.8,0c-0.5-0.1-1.3-0.2-2.2-0.5c-1.9-0.5-4.4-1.6-6.7-3.5c-2.3-1.8-4-4-4.9-5.7
								c-0.5-0.8-0.8-1.6-1-2.1c-0.2-0.5-0.3-0.8-0.2-0.8c0.1,0,0.5,1.1,1.6,2.7c1,1.6,2.7,3.7,4.9,5.5c2.3,1.8,4.7,2.9,6.5,3.5
								C406.9,240.3,408.1,240.5,408,240.6z"/>
						</g>
					</g>
				</g>
				<g>
					<g>
						<g>
							<path class="st6" d="M379.8,189c0,0,0,0.1,0,0.3c0,0.2,0.1,0.5,0.1,0.8c0.1,0.7,0.2,1.8,0.3,3.1c0.2,2.7,0.5,6.6,0.9,11.4
								c0,0.6,0.1,1.2,0.1,1.8c0.1,0.6,0,1.4-0.4,2c-0.2,0.3-0.5,0.5-0.8,0.7c-0.3,0.2-0.7,0.2-1,0.3c-0.7,0.1-1.4,0.3-2,0.4
								c-2.8,0.6-5.8,1.1-8.9,1.5c-3.2,0.5-6.5,0.8-9.9,1.2c-0.9,0.1-1.7,0.1-2.6,0.2l-1.3,0.1c-0.4,0-0.9,0.1-1.4-0.1
								c-0.5-0.1-0.9-0.4-1.2-0.9c-0.3-0.4-0.5-0.9-0.5-1.4c-0.2-0.9-0.4-1.8-0.6-2.7c-0.7-3.6-1.5-7.1-2.2-10.5
								c-0.3-1.7-0.9-3.3-0.7-5.1c0.1-0.9,0.5-1.7,1-2.4c0.6-0.7,1.3-1.1,2-1.5c1.5-0.7,3-1.1,4.5-1.5c1.5-0.4,2.9-0.7,4.3-1
								c2.8-0.6,5.4-0.9,7.8-1.2c2.4-0.3,4.6-0.4,6.5-0.5c1.9-0.1,3.7-0.1,4.8,0.9c0.5,0.4,0.8,1,1,1.5c0.2,0.5,0.2,0.9,0.3,1.3
								c0,0.4,0.1,0.6,0.1,0.8C379.9,188.9,379.8,189,379.8,189c0,0-0.1-0.4-0.2-1.1c-0.1-0.7-0.3-1.8-1.3-2.7
								c-1-0.8-2.8-0.8-4.7-0.7c-1.9,0.1-4.1,0.3-6.5,0.5c-2.4,0.3-5,0.7-7.8,1.3c-1.4,0.3-2.8,0.6-4.3,1c-1.5,0.4-3,0.7-4.3,1.5
								c-1.4,0.7-2.6,1.9-2.7,3.5c-0.2,1.6,0.4,3.3,0.7,4.9c0.7,3.4,1.4,6.9,2.2,10.5c0.2,0.9,0.4,1.8,0.6,2.7
								c0.1,0.5,0.2,0.8,0.4,1.1c0.2,0.3,0.6,0.5,0.9,0.7c0.4,0.1,0.8,0.1,1.2,0l1.3-0.1c0.9-0.1,1.7-0.1,2.6-0.2
								c3.4-0.3,6.8-0.7,9.9-1.1c3.1-0.4,6.1-0.9,8.9-1.5c0.7-0.1,1.4-0.3,2-0.4c0.3-0.1,0.7-0.1,0.9-0.3c0.3-0.1,0.5-0.3,0.7-0.6
								c0.4-0.5,0.4-1.1,0.4-1.7c0-0.6-0.1-1.2-0.1-1.8c-0.3-4.8-0.6-8.6-0.8-11.4c-0.1-1.3-0.1-2.3-0.2-3.1c0-0.3,0-0.6,0-0.8
								C379.8,189.1,379.8,189,379.8,189z"/>
						</g>
					</g>
				</g>
				<g>
					<g>
						<g>
							<path class="st6" d="M347.8,167.1c0,0,0.2,0.3,0.3,0.8c0.2,0.5,0.4,1.3,0.6,2.3c0.2,1,0.2,2.3-0.2,3.6
								c-0.4,1.3-1.6,2.6-3.2,2.9c-0.8,0.2-1.7,0-2.3-0.4c-0.7-0.4-1.1-1-1.5-1.5c-0.8-1.1-1.3-2.2-1.7-3.1
								c-0.4-0.9-0.6-1.7-0.8-2.3c-0.1-0.5-0.2-0.9-0.1-0.9c0.1,0,0.4,1.2,1.3,3c0.4,0.9,1,1.9,1.7,3c0.4,0.5,0.8,1,1.4,1.4
								c0.6,0.3,1.3,0.5,1.9,0.4c1.4-0.3,2.4-1.4,2.8-2.6c0.4-1.2,0.4-2.4,0.3-3.3C348.1,168.3,347.7,167.1,347.8,167.1z"/>
						</g>
					</g>
				</g>
				<g>
					<g>
						<g>
							<path class="st6" d="M386.3,163.3c0,0,0.1,0.3,0.3,0.8c0.1,0.5,0.3,1.3,0.4,2.2c0.1,0.9,0,2.1-0.7,3.3
								c-0.6,1.2-1.9,2.1-3.5,2.2c-0.8,0-1.5-0.2-2.1-0.6c-0.6-0.4-1-1-1.4-1.5c-0.7-1.1-1.1-2.1-1.4-3c-0.6-1.8-0.7-3-0.6-3
								c0.1,0,0.3,1.1,1,2.8c0.3,0.9,0.8,1.9,1.4,2.9c0.3,0.5,0.7,1,1.2,1.3c0.5,0.3,1.1,0.5,1.8,0.5c1.3,0,2.5-0.9,3.1-1.9
								c0.6-1,0.7-2.1,0.7-3C386.4,164.5,386.2,163.4,386.3,163.3z"/>
						</g>
					</g>
				</g>
				<g>
					<g>
						<path class="st6" d="M344.7,169.4c0.7,0,1.4,0.7,1.4,1.4c0,0.7-0.7,1.4-1.4,1.4c-0.7,0-1.4-0.7-1.4-1.4
							C343.3,170.1,344,169.4,344.7,169.4"/>
					</g>
				</g>
				<g>
					<g>
						<path class="st6" d="M382.3,163.8c0.7,0,1.4,0.7,1.4,1.4c0,0.7-0.7,1.4-1.4,1.4c-0.7,0-1.4-0.7-1.4-1.4
							C380.9,164.5,381.6,163.8,382.3,163.8"/>
					</g>
				</g>
			</g>
			<g>
				<path class="st10" d="M328.7,149.2c-0.5-0.5-6.9-5.2-10.8-7.5c-2.5-1.5-8.1-1.4-10.2-1.7l0,0c0,0-28.8-3.8-34.8-3.8
					c-11.2,3.1-13.2,8.3-11.3,13.1c3.8,1.6,39.6,2.1,48.3,2c1.9,1.4,3.6,2.4,3.6,2.4l3.7,5.2c0,0,0.8,2,1.1,4.3c0.3,2.3,1.9,1,1.9,1
					s0.2,1.4,0.8,3.4c0,0,0,0,0,0.1c0.5,1.5,2.6,1.2,2.8-0.4l0.5-5.5c0,0,0.9,4.7,1.4,7.4c0.1,0.5,0.3,0.8,0.5,1.1
					c0.9,1.2,2.9,0.5,3-1l0.1-8.6l-1.8-4.9l2.7,4.2c0,0,1,2.3,1.7,5.8c0.3,1.4,0.9,1.9,1.5,1.9c1,0.1,1.9-0.9,1.7-1.9l-1.1-7.7
					C334.1,158.1,329.2,149.7,328.7,149.2z"/>
			</g>
		</g>
	</g>
</g>
</svg>
