<?xml version="1.0" encoding="UTF-8"?>
<svg id="Layer_1" data-name="Layer 1" xmlns="http://www.w3.org/2000/svg" version="1.1" viewBox="0 0 512 512">
  <defs>
    <style>
      .cls-1 {
        fill: #02b5ff;
        stroke-width: 0px;
      }
    </style>
  </defs>
  <path class="cls-1" d="M248,448h16v16h-16v-16ZM386,397.4l11.3-11.3,11.3,11.3-11.3,11.3-11.3-11.3ZM448,248h16v16h-16v-16Z"/>
  <path class="cls-1" d="M488,200h-56.7c-3.1-9.8-7-19.2-11.7-28.3l40.1-40.1c3.1-3.1,3.1-8.2,0-11.3l-33.9-33.9C332.9-8.3,180.9-9.7,86.3,83.1c-94.6,92.8-96.1,244.8-3.2,339.4,1.1,1.1,2.1,2.2,3.2,3.2l33.9,33.9c3.1,3.1,8.2,3.1,11.3,0l40.1-40.1c9.1,4.7,18.6,8.6,28.4,11.7v56.7c0,4.4,3.6,8,8,8h96c4.4,0,8-3.6,8-8v-56.7c9.8-3.1,19.2-7,28.3-11.7l40.1,40.1c3.1,3.1,8.2,3.1,11.3,0l67.9-67.9c3.1-3.1,3.1-8.2,0-11.3l-40.1-40.1c4.7-9.1,8.6-18.6,11.7-28.4h56.7c4.4,0,8-3.6,8-8v-96c0-4.4-3.6-8-8-8ZM97.6,97.6c85.3-85.3,222.8-87.7,311-5.5l-11.3,11.3C312.9,25.5,181.3,30.7,103.4,115.2c-73.5,79.7-73.5,202.5,0,282.1l-11.3,11.3C9.9,320.4,12.3,182.9,97.6,97.6ZM323.9,188.1c37.2,37.8,36.7,98.6-1.1,135.8-37.4,36.8-97.3,36.8-134.7,0-3.1-3.1-8.2-3.1-11.3,0l-62.1,62.1c-71.8-78-66.8-199.5,11.2-271.3,73.5-67.6,186.6-67.6,260,0l-62.1,62.1c-3.1,3.1-3.1,8.2,0,11.3,0,0,0,0,0,0ZM480,296h-54.7c-3.6,0-6.7,2.4-7.7,5.9-3.5,12.5-8.5,24.6-14.9,36-1.8,3.1-1.2,7.1,1.3,9.6l38.6,38.6-56.6,56.6-38.6-38.6c-2.5-2.6-6.5-3.1-9.6-1.3-11.4,6.4-23.5,11.4-36,14.9-3.5,1-5.9,4.1-5.9,7.7v54.7h-80v-54.7c0-3.6-2.4-6.7-5.9-7.7-12.5-3.5-24.6-8.5-36-14.9-3.1-1.8-7.1-1.2-9.6,1.3l-38.6,38.6-22.6-22.6,79.4-79.4c46.8,40.5,117.5,35.4,158-11.4,36.4-42.1,36.4-104.5,0-146.6l79.4-79.4,22.6,22.6-38.6,38.6c-2.6,2.5-3.1,6.5-1.3,9.6,6.4,11.4,11.4,23.5,14.9,36,1,3.5,4.1,5.9,7.7,5.9h54.7v80Z"/>
  <path class="cls-1" d="M264,225.1v-89.1c0-4.4-3.6-8-8-8s-8,3.6-8,8v89.1c-11.2,2.9-19.9,11.7-22.9,22.9h-57.1c-4.4,0-8,3.6-8,8s3.6,8,8,8h57.1c4.4,17.1,21.8,27.4,38.9,23,17.1-4.4,27.4-21.8,23-38.9-2.9-11.3-11.7-20.1-23-23ZM256,272c-8.8,0-16-7.2-16-16s7.2-16,16-16,16,7.2,16,16-7.2,16-16,16ZM256,104c-4.4,0-8-3.6-8-8v-16c0-4.4,3.6-8,8-8s8,3.6,8,8v16c0,4.4-3.6,8-8,8ZM336,125.4c-4.4,0-8-3.6-8-8,0-1.4.4-2.8,1.1-4l8-13.9c2.2-3.8,7.1-5.1,10.9-2.9,3.8,2.2,5.1,7,2.9,10.9l-8,13.9c-1.4,2.5-4.1,4-6.9,4h0ZM176,125.4c-2.9,0-5.5-1.5-6.9-4l-8-13.9c-2.2-3.8-.8-8.7,3-10.9,3.8-2.2,8.6-.9,10.9,2.9l8,13.9c2.2,3.8.9,8.7-2.9,10.9-1.2.7-2.6,1.1-4,1.1ZM117.4,184c-1.4,0-2.8-.4-4-1.1l-13.9-8c-3.8-2.2-5.1-7.1-2.9-10.9,2.2-3.8,7.1-5.1,10.9-2.9l13.9,8c3.8,2.2,5.1,7.1,2.9,10.9-1.4,2.5-4.1,4-6.9,4h0ZM96,264h-16c-4.4,0-8-3.6-8-8s3.6-8,8-8h16c4.4,0,8,3.6,8,8s-3.6,8-8,8ZM103.6,352c-4.4,0-8-3.6-8-8,0-2.9,1.5-5.5,4-6.9l13.9-8c3.8-2.2,8.7-1,10.9,2.9,2.2,3.8,1,8.7-2.9,10.9,0,0,0,0,0,0l-13.9,8c-1.2.7-2.6,1.1-4,1.1h0Z"/>
  <path class="cls-1" d="M256,336c-21.2,0-41.6-8.4-56.5-23.5-3.2-3.1-3.3-8.1-.2-11.3,3.1-3.2,8.1-3.3,11.3-.2,0,0,.1.1.2.2,24.7,25.2,65.2,25.7,90.4,1,25.2-24.7,25.7-65.2,1-90.4-.3-.3-.6-.6-1-1-3.2-3.1-3.3-8.1-.2-11.3,3.1-3.2,8.1-3.3,11.3-.2,0,0,.1.1.2.2,31.2,31.3,31.2,81.9,0,113.1-15,15-35.3,23.4-56.5,23.4Z"/>
</svg>