<svg xmlns="http://www.w3.org/2000/svg" version="1.1" xmlns:xlink="http://www.w3.org/1999/xlink" width="512" height="512" x="0" y="0" viewBox="0 0 512 512" style="enable-background:new 0 0 512 512" xml:space="preserve" class=""><g><path fill-rule="evenodd" d="m401.39 244.431 13.144-3.768-1.186-4.157a5.486 5.486 0 0 1 2.678-6.332A52.556 52.556 0 0 0 430.5 218.7a5.481 5.481 0 0 1 6.855-1.26l3.771 2.09 6.642-11.982-3.471-1.924a5.489 5.489 0 0 1-2.91-6.528 52.512 52.512 0 0 0 2.12-18.225 5.493 5.493 0 0 1 3.956-5.885l4.134-1.185-3.769-13.144-4.156 1.185a5.484 5.484 0 0 1-6.331-2.678 52.579 52.579 0 0 0-11.47-14.474 5.481 5.481 0 0 1-1.261-6.855l2.09-3.77-11.982-6.642-1.923 3.47a5.49 5.49 0 0 1-6.529 2.91 52.515 52.515 0 0 0-18.225-2.12 5.491 5.491 0 0 1-5.885-3.955l-1.186-4.128-13.145 3.768 1.186 4.157a5.486 5.486 0 0 1-2.678 6.332 52.571 52.571 0 0 0-14.473 11.47 5.48 5.48 0 0 1-6.855 1.26l-3.771-2.09-6.642 11.982 3.471 1.924a5.49 5.49 0 0 1 2.91 6.528 52.515 52.515 0 0 0-2.12 18.225 5.494 5.494 0 0 1-3.955 5.885l-4.135 1.185 3.769 13.144 4.156-1.185a5.486 5.486 0 0 1 6.332 2.678 52.538 52.538 0 0 0 11.469 14.474 5.481 5.481 0 0 1 1.261 6.855l-2.09 3.77 11.982 6.642 1.924-3.469a5.489 5.489 0 0 1 6.528-2.911 52.512 52.512 0 0 0 18.225 2.12 5.49 5.49 0 0 1 5.881 3.956l1.186 4.133zm9.791-96.482a41.241 41.241 0 1 1-31.361-3.593 41.126 41.126 0 0 1 31.361 3.593zm-309.269-38.038c-13.83-15.458-37.373-4.32-37.373 18.089s23.542 33.545 37.373 18.086c8.854-9.9 8.855-26.276 0-36.172zM86.544 91.762c18.965 0 33 17.112 33 36.235s-14.034 36.235-33 36.235-33-17.112-33-36.235 14.035-36.235 33-36.235zm142.8 86.4-108.4 29.046a5.49 5.49 0 0 0-4.072 5.3l-.007 214.517a7.982 7.982 0 0 1-3.221 6.07c-7.872 6.424-21.6 1.918-21.6-6.07v-90.7h1.09a5.5 5.5 0 0 0 0-10.993H79.958a5.5 5.5 0 1 0 0 10.993h1.091v90.706a7.982 7.982 0 0 1-3.221 6.07c-7.873 6.424-21.6 1.918-21.6-6.07V212.514a5.5 5.5 0 0 0-10.992 0V302A9.118 9.118 0 0 1 27 302v-96.2a21.854 21.854 0 0 1 21.776-21.776h75.541c28.641 0 71.691-15.651 100.6-23.568a9.132 9.132 0 0 1 10.261 13.364 8.985 8.985 0 0 1-5.829 4.343zM485 66.458H151.92v26H485zM334.709 260.791c-13.413-14.993-36.24-4.184-36.24 17.561 0 12.481 8.587 24.5 21.342 24.5 19.346 0 28.388-26.985 14.9-42.062zm-96.909 26.6c-7.284-8.142-18.918-8.142-26.2 0-12 13.414-3.845 37.213 13.1 37.213 17.017 0 25.03-23.875 13.1-37.212zm187.524 4.392a17.674 17.674 0 0 0-13.1-6.107c-16.771 0-25.222 23.666-13.1 37.212 11.82 13.211 31.9 3.666 31.9-15.552a23.268 23.268 0 0 0-5.7-15.553zm13.583 1.046c9.711 21.371-4.377 47.159-26.684 47.159s-36.4-25.791-26.684-47.159H349.33c-9.212 22.551-36.425 28.437-52.576 10.386a36.007 36.007 0 0 1-6.463-10.386h-37.265c6.122 20.525-7.632 42.767-28.327 42.767s-34.449-22.242-28.327-42.767h-37.7a5.5 5.5 0 0 1-5.5-5.5v-77.39l-25.32 6.785v210.307c0 18.584-27.2 27.312-41.31 12.927-14.123 14.389-41.311 5.652-41.311-12.927V319.919A20.133 20.133 0 0 1 16.006 302v-96.2a32.851 32.851 0 0 1 32.768-32.768h75.541c8.473 0 18.381-1.506 28.86-3.809v-65.777h-6.751a5.5 5.5 0 0 1-5.5-5.5V60.962a5.5 5.5 0 0 1 5.5-5.5H490.5a5.5 5.5 0 0 1 5.5 5.5V97.95a5.5 5.5 0 0 1-5.5 5.5h-6.751v183.88a5.5 5.5 0 0 1-5.5 5.5zm-26.684-18.146a28.036 28.036 0 0 0-18.59 7.153H351.99c1.79-20.052-12.375-38.974-32.179-38.974s-33.969 18.922-32.179 38.974h-40.221c-11.916-15.387-33.508-15.387-45.425 0h-37.818v-74.84l68.31-18.3a20.147 20.147 0 0 0 12.185-9.372c9.017-15.611-5.516-34.038-22.584-29.465-18.6 4.982-38.5 11.754-57.911 16.74v-63.153h308.586v178.388h-41.941a28.037 28.037 0 0 0-18.59-7.153zM469.2 456.512a5.5 5.5 0 0 0 5.981-5.474v-65.326c0-17.607-12.22-34.388-29.589-34.388h-57.608c-3.051-15.594-15.171-29.155-31.314-29.155h-73.718c-14.235 0-25.483 10.658-29.922 23.887h-61.7c-17.369 0-29.589 16.782-29.589 34.388v70.594a5.5 5.5 0 0 0 5.5 5.5l301.963-.022zm-80.421-10.949h49.589v-52.74a5.5 5.5 0 0 1 10.992 0v52.74h14.829v-59.851c0-11.584-7.441-23.4-18.6-23.4h-56.81v83.247zm-126.944 0h14.83v-65.119a5.5 5.5 0 0 1 10.993 0v65.119h61.607v-59.851a5.5 5.5 0 0 1 10.992 0v59.851h17.53v-85.984c0-12.989-8.366-26.418-21.117-26.418h-73.718c-10.376 0-18.435 9.63-20.335 19.305a32.043 32.043 0 0 0-.782 7.113zm-89.1 0h14.829v-58.008a5.5 5.5 0 0 1 10.992 0v58.008h52.289v-85.984q0-1.275.074-2.53H191.33c-11.156 0-18.6 11.812-18.6 23.4v65.119zM397.348 177.4a9.661 9.661 0 0 1 0 13.222c-5.489 5.67-14.952 1.68-14.952-6.611s9.463-12.281 14.952-6.611zm-182.256 52.909c-5.489-5.671-14.952-1.68-14.952 6.611s9.463 12.282 14.952 6.611a9.659 9.659 0 0 0 0-13.222zm73.808-21.425c-5.489-5.671-14.952-1.681-14.952 6.61s9.463 12.282 14.952 6.611a9.658 9.658 0 0 0 0-13.221zm72.155-21.828c-2.484-24.256 23.492-41.343 44.8-29.532a30.305 30.305 0 0 1 11.814 41.168c-11.582 21.137-42.671 20.7-53.561-1.117l10.229-2.969a19.673 19.673 0 0 0 16.842 9.658c17.415 0 26.444-21.673 14.026-34.5-12.564-12.98-33.923-3.452-33.8 14.291l-10.346 3zm-135.289 39.273 37.193-10.8c-.137-20.094 26.062-28.15 36.618-10.63l21.07-6.116c-1.1-3.843-2.455-6.742-.421-10.411 1.843-3.323 4.394-3.814 7.559-4.722a63.089 63.089 0 0 1 1.542-13.568c-2.881-1.6-5.274-2.658-6.318-6.3a8.327 8.327 0 0 1 .74-6.347l9.171-16.535a8.325 8.325 0 0 1 11.351-3.243l2.328 1.291a62.52 62.52 0 0 1 10.684-8.5c-.91-3.174-1.848-5.582.006-8.926a8.333 8.333 0 0 1 5-3.988l18.184-5.214a8.4 8.4 0 0 1 10.334 5.746l.733 2.557a63.176 63.176 0 0 1 13.57 1.541c1.595-2.878 2.658-5.273 6.3-6.315a8.331 8.331 0 0 1 6.347.739l16.544 9.172a8.325 8.325 0 0 1 3.244 11.35l-1.29 2.327a62.537 62.537 0 0 1 8.5 10.685c3.172-.909 5.581-1.847 8.925.006a8.338 8.338 0 0 1 3.988 5l5.213 18.184a8.4 8.4 0 0 1-5.746 10.333l-2.557.734a63.215 63.215 0 0 1-1.542 13.568c2.879 1.6 5.274 2.659 6.317 6.3a8.329 8.329 0 0 1-.739 6.346l-9.558 17.174a8.331 8.331 0 0 1-11.352 2.4l-1.941-1.076a62.563 62.563 0 0 1-10.684 8.5c.909 3.171 1.848 5.582-.006 8.926a8.345 8.345 0 0 1-5.009 3.991l-18.175 5.211a8.4 8.4 0 0 1-10.334-5.746l-.733-2.557a63.176 63.176 0 0 1-13.57-1.541c-1.6 2.88-2.657 5.271-6.3 6.315a8.32 8.32 0 0 1-6.346-.739l-16.545-9.172a8.325 8.325 0 0 1-3.244-11.35l1.29-2.327a62.537 62.537 0 0 1-8.5-10.685c-3.172.91-5.581 1.848-8.925-.006-3.575-1.983-3.99-5.01-5.017-8.591l-21.154 6.141c.136 20.1-26.065 28.149-36.618 10.629l-37.193 10.8c.12 17.743-21.239 27.271-33.8 14.291-12.417-12.827-3.391-34.5 14.026-34.5a19.673 19.673 0 0 1 16.842 9.658zm27.758-100.8H311.7a5.5 5.5 0 0 0 0-10.993h-58.176a5.5 5.5 0 0 0 0 10.993zm0 20.745H311.7a5.5 5.5 0 0 0 0-10.993h-58.176a5.5 5.5 0 0 0 0 10.993z" fill="#02b5ff" opacity="1" data-original="#000000" class=""></path></g></svg>