<svg width="60" height="60" viewBox="0 0 60 60" fill="none" xmlns="http://www.w3.org/2000/svg">
<g clip-path="url(#clip0_55615_39041)">
<path fill-rule="evenodd" clip-rule="evenodd" d="M29.9472 39.4727C29.8769 39.4727 29.8769 39.4727 29.8418 39.4727C25.4832 39.0509 22.0034 37.188 19.4024 33.9894C12.5834 25.3778 14.4463 10.123 14.5166 9.49029C14.5869 9.10364 14.9384 8.82245 15.3251 8.75215C26.608 7.80312 29.1036 3.83124 29.2091 3.69064C29.2442 3.55004 29.3848 3.44459 29.5606 3.37429C29.9472 3.12825 30.4744 3.30399 30.7205 3.69064C30.7556 3.79609 33.2512 7.80312 44.6748 8.75215C45.0614 8.82245 45.3778 9.10364 45.4481 9.49029C45.5184 10.123 47.3813 25.3778 40.5623 33.9894C37.9964 37.2232 34.4112 39.0861 30.0878 39.4727C29.9823 39.4727 29.9823 39.4727 29.9472 39.4727ZM16.1335 10.4393C15.8523 13.4622 15.1142 25.8699 20.7381 32.8998C23.0228 35.782 26.0808 37.3989 29.9472 37.7855C33.7785 37.3989 36.9068 35.7117 39.1563 32.8998C44.7451 25.8699 44.007 13.4622 43.7258 10.4393C35.0087 9.56058 31.318 6.92438 29.9472 5.51841C28.5061 6.92438 24.8505 9.56058 16.1335 10.4393Z" fill="#00B5FF"/>
<path fill-rule="evenodd" clip-rule="evenodd" d="M29.948 35.0789C29.8777 35.0789 29.8777 35.0789 29.8426 35.0789C26.5386 34.7977 23.9023 33.3917 21.8988 30.8961C16.7319 24.4286 18.1378 12.9699 18.173 12.4778C18.2433 12.0912 18.5948 11.7397 18.9814 11.7397C27.2415 11.0718 29.1045 8.18957 29.1748 8.08412C29.2451 7.94352 29.3505 7.83808 29.4911 7.73263C29.8777 7.48658 30.4401 7.69748 30.651 8.08412C30.7213 8.18957 32.5842 11.0718 40.9146 11.7397C41.3013 11.7748 41.6528 12.0912 41.6879 12.4778C41.7231 12.9699 43.1642 24.4286 37.9973 30.8961C35.9937 33.3917 33.2872 34.7977 30.0183 35.0789C29.9832 35.0789 29.9832 35.0789 29.948 35.0789ZM19.8602 13.3917C19.6493 15.9224 19.2275 24.8152 23.2697 29.8767C24.9217 31.9857 27.1712 33.1456 29.948 33.4268C32.7248 33.1456 35.0096 31.9857 36.6616 29.8767C40.7038 24.8152 40.282 15.9224 40.0711 13.3917C33.9199 12.759 31.108 10.9664 29.948 9.84159C28.753 10.9664 25.9762 12.759 19.8602 13.3917Z" fill="#00B5FF"/>
<path fill-rule="evenodd" clip-rule="evenodd" d="M28.119 27.2408C28.0838 27.2408 28.0838 27.2408 28.119 27.2408C27.8729 27.2408 27.662 27.1353 27.4863 26.9947C27.4511 26.9596 27.416 26.8893 27.3457 26.8541L22.952 22.4605C22.0733 21.5817 22.0733 20.2109 22.952 19.3322C23.3387 18.9455 23.9011 18.6995 24.4283 18.6995C25.0258 18.6995 25.5882 18.9455 25.9749 19.3322L28.0838 21.406L33.8835 15.6415C34.2701 15.2548 34.7974 15.0088 35.3598 15.0088C35.9221 15.0088 36.5197 15.2548 36.9063 15.6415C37.3281 16.0984 37.539 16.6257 37.539 17.1881C37.539 17.7856 37.293 18.3128 36.8712 18.6995L28.8571 26.8541C28.822 26.8893 28.7517 26.9596 28.7165 26.9947C28.5759 27.1353 28.3299 27.2408 28.119 27.2408ZM24.4634 20.4218C24.3931 20.4218 24.2877 20.4218 24.1822 20.5624C23.9714 20.7733 23.9714 21.0896 24.1822 21.3005L28.119 25.2021L35.7815 17.5395C35.887 17.4341 35.9221 17.2935 35.9221 17.2583C35.9221 17.1529 35.9221 17.0475 35.7815 16.9069C35.6409 16.7663 35.5355 16.7663 35.4301 16.7663C35.3598 16.7663 35.2543 16.7663 35.1489 16.9069L28.8571 23.0931C28.822 23.1634 28.7517 23.1986 28.7165 23.2337C28.5056 23.4446 28.3299 23.4798 28.0838 23.4798C27.8378 23.4798 27.662 23.4095 27.4511 23.2337C27.416 23.1986 27.3457 23.1634 27.3105 23.0931L24.7798 20.6327C24.6743 20.4569 24.5337 20.4218 24.4634 20.4218Z" fill="#00B5FF"/>
<path fill-rule="evenodd" clip-rule="evenodd" d="M44.3582 52.3024C44.2528 52.3024 44.1122 52.3024 44.0067 52.1969C43.5849 52.0212 43.374 51.5291 43.5849 51.0721C45.2018 47.4869 46.9593 46.2567 48.6464 45.0967C51.3881 43.1987 54.5164 40.9842 58.2071 26.2215C58.3125 25.8349 58.2422 25.4834 58.0665 25.2022C57.9259 24.9561 57.6095 24.7452 57.2932 24.6749C56.6957 24.4992 55.9575 24.6749 55.7115 25.5888C55.4654 26.6082 55.2194 27.522 55.0436 28.4008C53.5322 35.0792 52.5129 39.4728 43.5849 42.7066C43.1631 42.8472 42.671 42.6363 42.5305 42.1793C42.3547 41.7224 42.5656 41.2303 43.0577 41.0897C46.1157 39.9649 48.1544 38.7347 49.5252 37.3287C49.5955 37.2936 49.6306 37.1881 49.6658 37.153C49.9821 36.8366 49.8415 36.4148 49.6658 36.2742C49.5252 36.0633 49.244 35.8173 48.787 36.0633L43.374 38.9807C41.0542 40.2461 40.5972 41.5115 39.8239 43.8665C39.6482 44.464 39.4022 45.1319 39.1561 45.9052C39.0155 46.3621 38.4531 46.6082 38.0313 46.3973C37.5744 46.2567 37.3283 45.7294 37.5392 45.2725C37.7853 44.6046 38.0313 43.9016 38.2071 43.3393C39.0155 40.9491 39.6482 39.051 42.5656 37.4693L47.9786 34.5519C49.1034 33.9895 50.2985 34.2707 51.0366 35.2549C52.1614 33.2865 52.6886 30.9667 53.3916 28.0141C53.5674 27.1002 53.8134 26.1864 54.0595 25.1319C54.5515 23.2338 56.2739 22.6011 57.715 22.9878C58.4531 23.1987 59.0858 23.6205 59.5428 24.218C59.9645 24.921 60.1051 25.7294 59.9294 26.6082C56.063 41.9684 52.6886 44.3586 49.7361 46.4676C48.1192 47.5572 46.7132 48.6117 45.237 51.7751C44.9909 52.0915 44.7097 52.3024 44.3582 52.3024Z" fill="#00B5FF"/>
<path fill-rule="evenodd" clip-rule="evenodd" d="M40.8422 56.731C40.4204 56.731 40.0338 56.5904 39.6823 56.3092L33.6366 50.4393C33.2851 50.1581 33.1094 49.7011 33.1094 49.2793C33.1094 48.8575 33.25 48.4006 33.5312 48.0491C33.5312 48.0491 33.5312 48.0491 33.5312 48.014L36.4837 45.0263C36.7649 44.7099 37.1867 44.499 37.6436 44.499C38.0654 44.499 38.5224 44.6396 38.8387 44.956L44.8844 50.7908C45.2359 51.072 45.4468 51.5289 45.4468 51.9507C45.4468 52.4076 45.3062 52.8294 44.9899 53.1809L42.0725 56.2038C41.7913 56.485 41.3343 56.6959 40.8422 56.731ZM34.8668 49.1739L40.8422 55.0438L43.7948 52.021L37.7491 46.2213L34.8668 49.1739Z" fill="#00B5FF"/>
<path fill-rule="evenodd" clip-rule="evenodd" d="M15.5706 52.3024C15.2192 52.3024 14.938 52.0915 14.7622 51.8103C13.3562 48.6468 11.9503 47.6275 10.2982 46.5027C7.31054 44.3938 3.9362 42.0036 0.104917 26.6433C-0.141129 25.7997 -0.000531584 24.9561 0.49156 24.2883C0.878203 23.6908 1.51089 23.2338 2.28418 23.0581C3.76045 22.6714 5.44762 23.3041 5.93971 25.2022C6.18576 26.2215 6.43181 27.2057 6.6427 28.0844C7.31054 31.0018 7.83778 33.3217 8.96256 35.2901C9.7007 34.3059 10.9309 34.0247 12.0557 34.6222L17.4687 37.5396C20.3861 39.0862 21.0188 40.9843 21.7921 43.3744C22.003 44.0071 22.1787 44.6398 22.4951 45.3428C22.6357 45.7646 22.4248 46.2567 22.003 46.4676C21.546 46.6082 21.0539 46.3973 20.8782 45.9755C20.5619 45.2373 20.3861 44.5344 20.1752 43.9017C19.4019 41.5818 19.0153 40.3164 16.6603 39.051L11.2824 36.1336C10.8255 35.8876 10.5443 36.1336 10.4037 36.3094C10.2279 36.5203 10.0873 36.9069 10.4037 37.1881C10.4388 37.2233 10.474 37.2936 10.5443 37.399C11.9503 38.8402 13.9538 40.0704 17.0118 41.1249C17.4687 41.3006 17.7148 41.7575 17.539 42.2145C17.3984 42.6363 16.9063 42.8823 16.4845 42.7417C7.55659 39.5431 6.5724 35.1495 5.02583 28.4711C4.81493 27.5923 4.60404 26.6082 4.35799 25.5888C4.11195 24.6749 3.37381 24.4992 2.77627 24.6749C2.45993 24.7452 2.14358 24.9561 2.00298 25.2022C1.79209 25.4834 1.75694 25.8349 1.86239 26.2215C5.44762 40.9843 8.54077 43.1987 11.2824 45.0967C12.9696 46.2567 14.6919 47.4869 16.3439 51.0721C16.5197 51.5291 16.3439 52.0212 15.887 52.1969C15.8167 52.3024 15.6409 52.3024 15.5706 52.3024Z" fill="#00B5FF"/>
<path fill-rule="evenodd" clip-rule="evenodd" d="M19.0499 56.731C18.6281 56.731 18.1712 56.5553 17.8548 56.2038L14.9726 53.2161C14.6211 52.8997 14.4805 52.4428 14.4805 52.021C14.4805 51.5289 14.6914 51.1423 15.0077 50.7908L21.0183 44.9911C21.2994 44.7099 21.7915 44.499 22.2485 44.499C22.6703 44.499 23.1272 44.7099 23.4436 45.0263L26.3258 48.014V48.0491C26.9585 48.7521 26.9234 49.7714 26.2907 50.4393L20.2801 56.3092C19.8935 56.5553 19.4717 56.731 19.0499 56.731ZM22.1782 46.2213L16.2028 52.021L19.0499 54.9735L25.0604 49.1739L22.1782 46.2213Z" fill="#00B5FF"/>
</g>
<defs>
<clipPath id="clip0_55615_39041">
<rect width="60" height="60" fill="white"/>
</clipPath>
</defs>
</svg>
