<?xml version="1.0" encoding="UTF-8"?>
<svg id="Solid" xmlns="http://www.w3.org/2000/svg" version="1.1" viewBox="0 0 512 512">
  <defs>
    <style>
      .cls-1 {
        fill: #02b5ff;
        stroke-width: 0px;
      }
    </style>
  </defs>
  <path class="cls-1" d="M8,256c0,11.8.8,23.7,2.5,35.4,1.2,8.1,7.1,14.6,15,16.6h0c10.6,2.7,21.5-3.7,24.2-14.3.6-2.5.8-5,.5-7.5-16.8-113.6,61.7-219.2,175.3-236,65.2-9.6,131,12.2,177.5,58.8l-17.2,17.2c-2.3,2.3-2.3,6.1,0,8.5.9.9,2,1.5,3.2,1.7l76.4,13.5c3.3.6,6.4-1.6,6.9-4.9.1-.7.1-1.4,0-2.1l-13.5-76.4c-.6-3.3-3.7-5.4-7-4.9-1.2.2-2.3.8-3.2,1.7l-17.5,17.5c-96.6-96.9-253.5-97.1-350.4-.5C34.1,126.8,7.9,190.1,8,256Z"/>
  <path class="cls-1" d="M464,256c0,114.8-92.9,207.9-207.7,208-55.2,0-108.2-21.9-147.3-61l17.2-17.2c2.3-2.3,2.3-6.1,0-8.5-.9-.9-2-1.5-3.2-1.7l-76.4-13.5c-3.3-.6-6.4,1.6-6.9,4.9,0,.7,0,1.4,0,2.1l13.5,76.4c.6,3.3,3.7,5.4,7,4.9,1.2-.2,2.3-.8,3.2-1.7l17.5-17.5c96.8,96.8,253.7,96.9,350.5.1,55.3-55.3,81.3-133.4,70.1-210.7-1.2-8.1-7.1-14.6-15-16.6h0c-10.6-2.7-21.5,3.7-24.2,14.3-.6,2.5-.8,5-.5,7.5,1.5,10,2.2,20.1,2.2,30.2h0Z"/>
  <path class="cls-1" d="M400,226h-30c-2.7-10.3-6.8-20.2-12.2-29.5l21.2-21.2c2.3-2.3,2.3-6.1,0-8.5h0l-33.9-33.9c-2.3-2.3-6.1-2.3-8.5,0h0l-21.2,21.2c-9.2-5.4-19.1-9.5-29.5-12.2v-30c0-3.3-2.7-6-6-6h-48c-3.3,0-6,2.7-6,6v30c-10.3,2.7-20.2,6.8-29.5,12.2l-21.2-21.2c-2.3-2.3-6.1-2.3-8.5,0h0l-33.9,33.9c-2.3,2.3-2.3,6.1,0,8.5h0l21.2,21.2c-5.4,9.2-9.5,19.1-12.2,29.5h-30c-3.3,0-6,2.7-6,6v48c0,3.3,2.7,6,6,6h30c2.7,10.3,6.8,20.2,12.2,29.5l-21.2,21.2c-2.3,2.3-2.3,6.1,0,8.5h0l33.9,33.9c2.3,2.3,6.1,2.3,8.5,0h0l21.2-21.2c9.2,5.4,19.1,9.5,29.5,12.2v30c0,3.3,2.7,6,6,6h48c3.3,0,6-2.7,6-6v-30c10.3-2.7,20.2-6.8,29.5-12.2l21.2,21.2c2.3,2.3,6.1,2.3,8.5,0h0l33.9-33.9c2.3-2.3,2.3-6.1,0-8.5h0l-21.2-21.2c5.4-9.2,9.5-19.1,12.2-29.5h30c3.3,0,6-2.7,6-6v-48c0-3.3-2.7-6-6-6h0ZM256,326c-38.7,0-70-31.3-70-70s31.3-70,70-70,70,31.3,70,70-31.4,70-70,70Z"/>
  <path class="cls-1" d="M256,198c-32,0-58,26-58,58s26,58,58,58,58-26,58-58h0c0-32-26-58-58-58ZM256,290c-18.8,0-34-15.2-34-34s15.2-34,34-34,34,15.2,34,34-15.2,34-34,34Z"/>
</svg>