<svg id="Layer_1" enable-background="new 0 0 512 512" viewBox="0 0 512 512" xmlns="http://www.w3.org/2000/svg"><path d="m249.3 144.234c-54.992 0-99.73 44.739-99.73 99.73s44.739 99.73 99.73 99.73 99.73-44.739 99.73-99.73-44.739-99.73-99.73-99.73zm0 183.461c-46.169 0-83.73-37.562-83.73-83.73s37.562-83.73 83.73-83.73 83.73 37.562 83.73 83.73-37.561 83.73-83.73 83.73zm25.458-93.153c6.382-6.467 10.33-15.341 10.33-25.123 0-19.733-16.055-35.788-35.788-35.788s-35.788 16.055-35.788 35.788c0 9.781 3.948 18.656 10.33 25.122-20.037 8.825-34.673 27.801-37.14 50.86-.242 2.257.487 4.511 2.004 6.199s3.68 2.652 5.95 2.652h109.286c2.27 0 4.433-.964 5.95-2.652s2.246-3.942 2.004-6.199c-2.466-23.058-17.101-42.034-37.138-50.859zm-45.246-25.123c0-10.911 8.877-19.788 19.788-19.788s19.788 8.877 19.788 19.788-8.877 19.788-19.788 19.788-19.788-8.876-19.788-19.788zm-25.089 68.834c5.944-19.346 23.894-33.046 44.877-33.046 20.982 0 38.932 13.7 44.876 33.046zm-68.544-163.879c-1.482 2.566-4.171 4.001-6.936 4.001-1.357 0-2.732-.346-3.993-1.073l-19.883-11.479c-2.475-1.429-4-4.069-4-6.928v-29.782c0-4.418 3.582-8 8-8s8 3.582 8 8v25.162l15.883 9.171c3.827 2.209 5.138 7.101 2.929 10.928zm-34.812-71.357v-6.793c0-4.418 3.582-8 8-8s8 3.582 8 8v6.793c0 4.418-3.582 8-8 8s-8-3.582-8-8zm41.854 22.023c-3.124-3.124-3.124-8.189 0-11.313l4.804-4.804c3.125-3.123 8.19-3.123 11.314.001s3.124 8.189 0 11.313l-4.804 4.804c-1.562 1.562-3.61 2.343-5.657 2.343-2.048-.001-4.095-.782-5.657-2.344zm16.118 83.825c-1.562 1.562-3.61 2.344-5.657 2.344s-4.094-.781-5.657-2.343l-4.804-4.804c-3.124-3.124-3.125-8.189 0-11.313 3.124-3.125 8.189-3.124 11.314-.001l4.804 4.804c3.124 3.123 3.124 8.189 0 11.313zm-83.826-16.117c3.124 3.125 3.124 8.189 0 11.314l-4.804 4.804c-1.562 1.562-3.609 2.343-5.657 2.343s-4.095-.781-5.657-2.343c-3.124-3.125-3.124-8.189 0-11.314l4.804-4.804c3.125-3.123 8.19-3.123 11.314 0zm0-79.022c3.124 3.125 3.124 8.189 0 11.314-1.562 1.562-3.609 2.343-5.657 2.343s-4.095-.781-5.657-2.343l-4.804-4.804c-3.124-3.125-3.124-8.189 0-11.314 3.124-3.123 8.189-3.123 11.313 0zm89.731 37.168h6.793c4.418 0 8 3.582 8 8s-3.582 8-8 8h-6.793c-4.418 0-8-3.582-8-8s3.582-8 8-8zm-47.877 63.877v6.793c0 4.418-3.582 8-8 8s-8-3.582-8-8v-6.793c0-4.418 3.582-8 8-8s8 3.582 8 8zm-63.877-47.877h-6.793c-4.418 0-8-3.582-8-8s3.582-8 8-8h6.793c4.418 0 8 3.582 8 8s-3.581 8-8 8zm446.798 233.019-31.983-31.982c-2.625-2.624-5.974-4.012-9.685-4.012h-78.8c3.355-7.274 6.097-14.811 8.185-22.549l22.293-8.581c3.088-1.188 5.126-4.156 5.126-7.466v-42.718c0-3.31-2.038-6.277-5.126-7.466l-22.286-8.578c-3.209-11.901-7.937-23.308-14.098-34.008l9.7-21.839c1.343-3.024.686-6.563-1.655-8.904l-30.207-30.206c-2.34-2.34-5.879-2.995-8.904-1.654l-21.846 9.703c-10.7-6.16-22.102-10.887-33.997-14.096l-8.581-22.293c-1.188-3.088-4.156-5.126-7.466-5.126h-42.717c-3.31 0-6.277 2.038-7.466 5.126l-8.582 22.294c-5.787 1.562-11.467 3.49-17.008 5.766.586-4.061.895-8.21.895-12.43 0-47.813-38.899-86.713-86.713-86.713s-86.713 38.9-86.713 86.713 38.899 86.713 86.713 86.713c3.222 0 6.402-.183 9.534-.527-3.133 6.941-5.724 14.113-7.711 21.48l-22.29 8.58c-3.088 1.188-5.126 4.156-5.126 7.466v42.718c0 3.31 2.038 6.277 5.126 7.466l22.286 8.578c3.21 11.904 7.938 23.31 14.098 34.008l-9.699 21.838c-1.344 3.024-.686 6.563 1.654 8.904l30.207 30.207c2.341 2.34 5.881 2.997 8.904 1.654l21.848-9.703c10.7 6.159 22.103 10.887 33.997 14.095l8.581 22.293c1.188 3.088 4.156 5.126 7.466 5.126h42.718c3.31 0 6.277-2.038 7.466-5.126l8.578-22.287c11.9-3.208 23.306-7.936 34.008-14.098l21.837 9.7c.681.303 1.389.489 2.103.593v107.551c0 7.552 6.144 13.696 13.696 13.696h131.956c7.552 0 13.696-6.145 13.696-13.696v-136.526c0-3.712-1.388-7.061-4.012-9.684zm-31.308-8.681 8.005 8.005h-8.005zm-430.326-232.338c0-38.991 31.722-70.713 70.713-70.713s70.713 31.722 70.713 70.713-31.722 70.713-70.713 70.713-70.713-31.722-70.713-70.713zm306.297 218.721v42.884l-.627.627-20.601-9.15c-2.412-1.071-5.195-.884-7.442.5-11.509 7.088-23.995 12.263-37.108 15.382-2.567.611-4.667 2.447-5.615 4.909l-8.091 21.022h-31.732l-8.094-21.028c-.947-2.461-3.047-4.298-5.614-4.908-13.108-3.12-25.59-8.295-37.099-15.381-2.247-1.384-5.032-1.57-7.441-.499l-20.61 9.153-22.439-22.438 9.15-20.602c1.071-2.411.884-5.195-.5-7.442-7.085-11.503-12.261-23.988-15.383-37.108-.611-2.565-2.447-4.666-4.909-5.613l-21.021-8.092v-31.731l21.025-8.094c2.461-.947 4.298-3.048 4.909-5.614 2.853-11.99 7.45-23.45 13.633-34.127 22.82-8.433 41.148-26.208 50.326-48.659 9.596-5.129 19.79-9.015 30.357-11.53 2.566-.61 4.667-2.446 5.614-4.908l8.095-21.028h31.732l8.094 21.028c.947 2.461 3.047 4.298 5.614 4.908 13.109 3.12 25.591 8.295 37.099 15.382 2.247 1.383 5.031 1.57 7.442.499l20.609-9.153 22.438 22.438-9.149 20.602c-1.071 2.411-.884 5.195.499 7.442 7.087 11.507 12.263 23.992 15.383 37.108.611 2.566 2.447 4.667 4.909 5.614l21.021 8.092v31.731l-21.028 8.095c-2.461.947-4.298 3.048-4.909 5.613-2.518 10.582-6.389 20.78-11.523 30.381h-3.318c-7.552-.002-13.696 6.143-13.696 13.695zm16 166.204v-163.9h92.029v24.472c0 5.981 4.867 10.848 10.848 10.848h24.472v128.581h-127.349zm115.703-75.214c0 4.418-3.582 8-8 8h-88.058c-4.418 0-8-3.582-8-8s3.582-8 8-8h88.058c4.419 0 8 3.582 8 8zm0 30.065c0 4.418-3.582 8-8 8h-88.058c-4.418 0-8-3.582-8-8s3.582-8 8-8h88.058c4.419 0 8 3.582 8 8zm0-60.129c0 4.418-3.582 8-8 8h-88.058c-4.418 0-8-3.582-8-8s3.582-8 8-8h88.058c4.419 0 8 3.582 8 8zm-164.794 73.138c1.108 4.276-1.46 8.643-5.737 9.751-18.362 4.76-37.38 7.173-56.523 7.173-60.003 0-116.415-23.366-158.843-65.795-42.429-42.429-65.795-98.841-65.795-158.844 0-7.148.358-14.286 1.029-21.383l-3.705 4.177c-2.932 3.303-7.988 3.607-11.293.675s-3.607-7.988-.675-11.294l21.79-24.561c1.795-2.025 4.494-2.998 7.17-2.604 2.676.401 4.968 2.129 6.092 4.59l13.634 29.87c1.834 4.02.063 8.766-3.956 10.6-1.077.492-2.206.725-3.317.725-3.037 0-5.939-1.737-7.283-4.68l-2.564-5.619c-.6 6.473-.921 12.983-.921 19.503 0 115.044 93.595 208.639 208.639 208.639 17.79 0 35.457-2.241 52.509-6.661 4.275-1.109 8.641 1.461 9.749 5.738zm-102.208-420.829c-.647-4.371 2.371-8.438 6.741-9.087 10.918-1.617 22.09-2.438 33.207-2.438 60.003 0 116.415 23.366 158.844 65.795 39.859 39.859 62.891 92.06 65.535 147.985l3.291-4.918c2.457-3.672 7.425-4.656 11.098-2.201 3.672 2.457 4.657 7.426 2.2 11.098l-18.259 27.29c-1.486 2.221-3.981 3.552-6.648 3.552-.034 0-.068 0-.102-.001-2.706-.034-5.211-1.435-6.659-3.721l-17.558-27.745c-2.363-3.733-1.251-8.676 2.482-11.038 3.733-2.363 8.675-1.25 11.038 2.481l3.074 4.858c-5.842-109.854-97.052-197.434-208.336-197.434-10.334 0-20.717.762-30.861 2.265-4.372.651-8.439-2.371-9.087-6.741z"/></svg>