<svg width="48" height="48" viewBox="0 0 48 48" fill="none" xmlns="http://www.w3.org/2000/svg">
<g clip-path="url(#clip0_303_3)">
<path d="M22.5 32H18.423L16.5 36H15L21 24H24L30 36H28.5L26.577 32H22.5ZM20.472 30H24.528L22.5 25.9L20.472 30Z" fill="#0078D4"/>
<path d="M0 0H48V48H0V0Z" fill="url(#paint0_linear_303_3)" style="mix-blend-mode:multiply"/>
<path d="M22.959 13.1611L28.859 13.7911L24.789 17.8911L25.959 23.9911L20.559 20.8911L15.159 23.9911L16.329 17.8911L12.259 13.7911L18.159 13.1611L20.559 7.89112L22.959 13.1611Z" fill="url(#paint1_linear_303_3)"/>
<path d="M37.5 24H36V25.5H37.5V24Z" fill="#212121"/>
<path d="M37.5 27H36V28.5H37.5V27Z" fill="#212121"/>
<path d="M37.5 30H36V31.5H37.5V30Z" fill="#212121"/>
<path d="M37.5 33H36V34.5H37.5V33Z" fill="#212121"/>
<path d="M34.5 36H33V37.5H34.5V36Z" fill="#212121"/>
<path d="M31.5 36H30V37.5H31.5V36Z" fill="#212121"/>
<path d="M28.5 36H27V37.5H28.5V36Z" fill="#212121"/>
<path d="M25.5 36H24V37.5H25.5V36Z" fill="#212121"/>
<path d="M22.5 36H21V37.5H22.5V36Z" fill="#212121"/>
<path d="M19.5 36H18V37.5H19.5V36Z" fill="#212121"/>
<path d="M16.5 36H15V37.5H16.5V36Z" fill="#212121"/>
<path d="M13.5 36H12V37.5H13.5V36Z" fill="#212121"/>
<path d="M10.5 36H9V37.5H10.5V36Z" fill="#212121"/>
<path d="M10.5 33H9V34.5H10.5V33Z" fill="#212121"/>
<path d="M10.5 30H9V31.5H10.5V30Z" fill="#212121"/>
<path d="M10.5 27H9V28.5H10.5V27Z" fill="#212121"/>
<path d="M10.5 24H9V25.5H10.5V24Z" fill="#212121"/>
<path d="M10.5 21H9V22.5H10.5V21Z" fill="#212121"/>
<path d="M10.5 18H9V19.5H10.5V18Z" fill="#212121"/>
<path d="M10.5 15H9V16.5H10.5V15Z" fill="#212121"/>
<path d="M10.5 12H9V13.5H10.5V12Z" fill="#212121"/>
<path d="M13.5 10.5H12V12H13.5V10.5Z" fill="#212121"/>
<path d="M16.5 10.5H15V12H16.5V10.5Z" fill="#212121"/>
<path d="M19.5 10.5H18V12H19.5V10.5Z" fill="#212121"/>
<path d="M22.5 10.5H21V12H22.5V10.5Z" fill="#212121"/>
<path d="M25.5 10.5H24V12H25.5V10.5Z" fill="#212121"/>
<path d="M28.5 10.5H27V12H28.5V10.5Z" fill="#212121"/>
<path d="M31.5 10.5H30V12H31.5V10.5Z" fill="#212121"/>
<path d="M34.5 10.5H33V12H34.5V10.5Z" fill="#212121"/>
<path d="M37.5 12H36V13.5H37.5V12Z" fill="#212121"/>
<path d="M37.5 15H36V16.5H37.5V15Z" fill="#212121"/>
<path d="M37.5 18H36V19.5H37.5V18Z" fill="#212121"/>
<path d="M37.5 21H36V22.5H37.5V21Z" fill="#212121"/>
</g>
<defs>
<linearGradient id="paint0_linear_303_3" x1="24" y1="0" x2="24" y2="48" gradientUnits="userSpaceOnUse">
<stop stop-color="#464646"/>
<stop offset="1" stop-color="#212121"/>
</linearGradient>
<linearGradient id="paint1_linear_303_3" x1="20.559" y1="7.89112" x2="20.559" y2="23.9911" gradientUnits="userSpaceOnUse">
<stop stop-color="#3C3C3C"/>
<stop offset="1" stop-color="#2C2C2C"/>
</linearGradient>
<clipPath id="clip0_303_3">
<rect width="48" height="48" fill="white"/>
</clipPath>
</defs>
</svg>
