<svg width="48" height="48" viewBox="0 0 48 48" fill="none" xmlns="http://www.w3.org/2000/svg">
<path d="M24 4L9 12V36L24 44L39 36V12L24 4Z" fill="#2F2F2F"/>
<path d="M17 29L24 33L31 29V21L24 17L17 21V29Z" fill="url(#paint0_linear_2_18)"/>
<path d="M24 17V9L32.14 13.9L39 12V20L31 24.5L24 20.5V17Z" fill="url(#paint1_linear_2_18)"/>
<path d="M24 17V9L15.86 13.9L9 12V20L17 24.5L24 20.5V17Z" fill="url(#paint2_linear_2_18)"/>
<path d="M31 29V37L24 41V33L31 29Z" fill="url(#paint3_linear_2_18)"/>
<path d="M17 29V37L24 41V33L17 29Z" fill="url(#paint4_linear_2_18)"/>
<defs>
<linearGradient id="paint0_linear_2_18" x1="24" y1="17" x2="24" y2="33" gradientUnits="userSpaceOnUse">
<stop stop-color="#0078D4"/>
<stop offset="1" stop-color="#50E6FF"/>
</linearGradient>
<linearGradient id="paint1_linear_2_18" x1="31.5" y1="9" x2="31.5" y2="24.5" gradientUnits="userSpaceOnUse">
<stop stop-color="#50E6FF"/>
<stop offset="1" stop-color="#0078D4"/>
</linearGradient>
<linearGradient id="paint2_linear_2_18" x1="16.5" y1="9" x2="16.5" y2="24.5" gradientUnits="userSpaceOnUse">
<stop stop-color="#50E6FF"/>
<stop offset="1" stop-color="#0078D4"/>
</linearGradient>
<linearGradient id="paint3_linear_2_18" x1="27.5" y1="29" x2="27.5" y2="41" gradientUnits="userSpaceOnUse">
<stop stop-color="#50E6FF"/>
<stop offset="1" stop-color="#0078D4"/>
</linearGradient>
<linearGradient id="paint4_linear_2_18" x1="20.5" y1="29" x2="20.5" y2="41" gradientUnits="userSpaceOnUse">
<stop stop-color="#50E6FF"/>
<stop offset="1" stop-color="#0078D4"/>
</linearGradient>
</defs>
</svg>
