<svg width="48" height="48" viewBox="0 0 48 48" fill="none" xmlns="http://www.w3.org/2000/svg">
<path d="M36 12C36 10.34 34.66 9 33 9C31.34 9 30 10.34 30 12V18H18C13.58 18 10 21.58 10 26C10 30.42 13.58 34 18 34H22V38C22 39.66 23.34 41 25 41C26.66 41 28 39.66 28 38V34H33C34.66 34 36 32.66 36 31V12Z" fill="url(#paint0_linear_2_4)"/>
<path d="M26 31C26 32.66 24.66 34 23 34H18C13.58 34 10 30.42 10 26C10 21.58 13.58 18 18 18H30V12C30 10.34 31.34 9 33 9C34.66 9 36 10.34 36 12V31H26Z" fill="url(#paint1_linear_2_4)"/>
<path d="M28 38C28 39.66 26.66 41 25 41C23.34 41 22 39.66 22 38V34H18C15.79 34 14 32.21 14 30V29C14 26.79 15.79 25 18 25H20V20C20 18.34 21.34 17 23 17C24.66 17 26 18.34 26 20V25H28V38Z" fill="url(#paint2_linear_2_4)"/>
<defs>
<linearGradient id="paint0_linear_2_4" x1="23" y1="9" x2="23" y2="41" gradientUnits="userSpaceOnUse">
<stop stop-color="#A643B9"/>
<stop offset="1" stop-color="#7B1499"/>
</linearGradient>
<linearGradient id="paint1_linear_2_4" x1="23" y1="9" x2="23" y2="34" gradientUnits="userSpaceOnUse">
<stop stop-color="#C770D8"/>
<stop offset="1" stop-color="#A23FBC"/>
</linearGradient>
<linearGradient id="paint2_linear_2_4" x1="21" y1="17" x2="21" y2="41" gradientUnits="userSpaceOnUse">
<stop stop-color="#8E25AA"/>
<stop offset="1" stop-color="#7B1499"/>
</linearGradient>
</defs>
</svg>
