<svg width="48" height="48" viewBox="0 0 48 48" fill="none" xmlns="http://www.w3.org/2000/svg">
<path d="M4 9C4 7.89543 4.89543 7 6 7H24V41H6C4.89543 41 4 40.1046 4 39V9Z" fill="#B43C1B"/>
<path d="M24 7H42C43.1046 7 44 7.89543 44 9V39C44 40.1046 43.1046 41 42 41H24V7Z" fill="#D85128"/>
<path d="M27 13H33C35.2091 13 37 14.7909 37 17C37 19.2091 35.2091 21 33 21H27V13Z" fill="white"/>
<path d="M27 21H33C35.2091 21 37 22.7909 37 25C37 27.2091 35.2091 29 33 29H27V21Z" fill="#F4B9A9"/>
<path d="M27 21V29H25V13H27V21Z" fill="#C43E1A"/>
</svg>
