<svg width="48" height="48" viewBox="0 0 48 48" fill="none" xmlns="http://www.w3.org/2000/svg">
<path d="M35 15C35 12.24 32.76 10 30 10C27.24 10 25 12.24 25 15V16H18C16.34 16 15 17.34 15 19V34C15 35.66 16.34 37 18 37H28C29.66 37 31 35.66 31 34V16H35V15Z" fill="#4B53BC"/>
<path d="M28 17H31V34C31 35.66 29.66 37 28 37V17Z" fill="#4F52B2"/>
<path d="M21 16H25V15C25 12.24 22.76 10 20 10C17.24 10 15 12.24 15 15V19C15 17.34 16.34 16 18 16H21Z" fill="#5D62D0"/>
<path d="M21 21C21 19.9 21.9 19 23 19C24.1 19 25 19.9 25 21C25 22.1 24.1 23 23 23C21.9 23 21 22.1 21 21ZM34 22C34 20.34 32.66 19 31 19C29.34 19 28 20.34 28 22C28 23.66 29.34 25 31 25C32.66 25 34 23.66 34 22ZM33.5 28C33.5 27.17 32.83 26.5 32 26.5C31.17 26.5 30.5 27.17 30.5 28V31C30.5 31.83 31.17 32.5 32 32.5C32.83 32.5 33.5 31.83 33.5 31V28ZM40 25C40 23.9 39.1 23 38 23C36.9 23 36 23.9 36 25V28C36 29.1 36.9 30 38 30C39.1 30 40 29.1 40 28V25Z" fill="white"/>
</svg>
